<?xml version="1.0" encoding="utf-8"?>
<!-- Generator: Adobe Illustrator 19.0.0, SVG Export Plug-In . SVG Version: 6.00 Build 0)  -->
<svg version="1.1" id="Layer_1" xmlns="http://www.w3.org/2000/svg" xmlns:xlink="http://www.w3.org/1999/xlink" x="0px" y="0px"
	 viewBox="9 -9 768 768" style="enable-background:new 9 -9 768 768;" xml:space="preserve">
<metadata><?xpacket begin="﻿" id="W5M0MpCehiHzreSzNTczkc9d"?>
<x:xmpmeta xmlns:x="adobe:ns:meta/" x:xmptk="Adobe XMP Core 5.6-c067 79.157747, 2015/03/30-23:40:42        ">
   <rdf:RDF xmlns:rdf="http://www.w3.org/1999/02/22-rdf-syntax-ns#">
      <rdf:Description rdf:about=""/>
   </rdf:RDF>
</x:xmpmeta>
                                                                                                    
                                                                                                    
                                                                                                    
                                                                                                    
                                                                                                    
                                                                                                    
                                                                                                    
                                                                                                    
                                                                                                    
                                                                                                    
                                                                                                    
                                                                                                    
                                                                                                    
                                                                                                    
                                                                                                    
                                                                                                    
                                                                                                    
                                                                                                    
                                                                                                    
                                                                                                    
                           
<?xpacket end="w"?></metadata>
<style type="text/css">
	.st0{fill:#762D7A;}
	.st1{fill:#FFFFFF;}
</style>
<circle id="XMLID_90_" class="st0" cx="473.9" cy="915.7" r="14.6"/>
<path id="XMLID_33_" class="st0" d="M625.1,291.8c-11.1-5.6-23.5-8.8-36.1-9.2c-20.5-32.4-58.8-52.9-100-52.9
	c-36.3,0-67.7,16.4-86.4,45c-2,3.1-3.8,6.5-5.2,10c-23.9-16-52.9-25-82.8-25.3h-1.7c-40.5,0-87.5,15.5-98,59.1
	c-0.9,3.8-1.5,7.7-1.7,11.5c-1.4-0.1-2.8-0.1-4.3-0.1c-27.1,0-55.6,14.5-74.3,37.9c-12.3,15.4-20.8,33.4-23.8,50.8
	c-4,22.6,1.2,42.7,15.1,58.1c1.3,1.4,2.6,2.8,4,4.1c-2.5,5.8-4.3,12.5-5.5,20.3c-2.8,18.3,0.5,37.1,9.1,53.1
	c14.7,27.2,43.8,44.8,74.1,44.8c3.8,0,7.6-0.3,11.4-0.8c3.6-0.5,7.1-1.3,10.6-2.4c17.8,12.3,39.5,19,61.8,19
	c27.2,0,52.1-9.9,69.6-27.2c29.3,25.3,68.5,39.5,110.2,39.5l0,0c62.5,0,117.3-31.8,143.1-83c11.3-22.4,14.2-49.2,8.6-72.7
	c31-13,48.4-52.1,52.3-78C681.8,351.1,661.6,310.2,625.1,291.8z"/>
<circle id="XMLID_97_" class="st0" cx="221.3" cy="163.1" r="40.2"/>
<circle id="XMLID_34_" class="st0" cx="168.3" cy="249.1" r="23.4"/>
<g>
	<path class="st1" d="M301.6,455.9c0,0.4,0.3,1.2,0.9,2.4c0.3,0.6,0.6,1.2,0.8,1.6c0.2,0.4,0.4,0.7,0.4,0.9c1.1,2.6,2.3,5,3.7,7.1
		c1.5,2,2.2,4.7,2.4,7.9c0,0.8-0.1,1.6-0.4,2.2c-0.3,0.6-0.6,1.3-0.9,2.1l-0.4,1.2c-0.3,1.1-0.6,1.9-0.9,2.2
		c-0.6,0.6-0.8,0.7-0.7,0.4c0.2-0.4,0-0.3-0.6,0.2c-0.7,0.5-0.9,0.7-0.7,0.5c0.2-0.1,0.2,0.1-0.1,0.4c-0.6,0.7-0.7,1-0.5,0.9
		c0.1,0,0,0-0.3,0.1c-0.3,0.1-0.8,0.1-1.4,0.2c-0.5,0-0.9,0-1.3,0c-0.4-0.1-0.6-0.1-0.8,0l-0.9,0.2c0.4-0.1,0.1,0.3-0.9,1l-3.2-0.9
		c-0.5-0.2-0.8-0.3-1-0.4c-0.2-0.1-0.3-0.1-0.2-0.1c0.1,0-0.3,0.2-1.4,0.5c-0.3-0.5-0.4-0.8-0.4-0.9c0,0-0.2-0.3-0.6-0.7l-1.5-0.8
		c-1.2-0.4-1.7-1-1.4-1.7c0.3-0.7-0.1-1.5-1.1-2.4l-1.4-0.8c-1.1-0.7-1.9-1.8-2.4-3.1c-0.5-1.3-1.1-2.4-1.7-3.5
		c-0.9-1.6-1.8-3.3-2.6-5.2c-0.8-1.9-1.6-3.7-2.5-5.3H261c-1.5,0-2.9,0-4.2-0.1c-1.3-0.1-2.5-0.2-3.6-0.4c-1.1-0.2-2.3-0.3-3.5-0.4
		c-1.2-0.1-2.5-0.1-3.9-0.1c-0.7,1.1-1.3,2.2-1.7,3.3c-0.5,1.1-1,2.2-1.6,3.3c-2.4,4.4-2.9,7-1.5,7.9c1.4,0.8,2.1,2.4,2.1,4.7
		c0,0.5-0.4,0.8-1.1,0.9c-0.7,0.1-1.2,0.2-1.7,0.4c-0.9,0.3-1.4,0.5-1.5,0.5c0,0,0,0.5,0.2,1.3c-2.4,0-3.9-0.2-4.4-0.7
		c-0.2-0.2-0.6-0.5-1-0.9c-0.4-0.4-1-1-1.6-1.6c-1.3-1.3-2.1-2.2-2.3-2.8c-0.2-0.6-0.3-1.6-0.2-3.2c0.3-5.6,0.8-9.4,1.5-11.3
		c0.7-1.9,1.2-3.6,1.3-5.3c-0.4-0.2-0.8-0.3-1.2-0.4c-0.4-0.1-0.7-0.3-1.1-0.4c-3.7-1.7-4.8-3.3-3.4-5c1.5-1.7,4.4-2.6,8.7-2.6
		c0.8-1.2,1.3-2.3,1.6-3.2c0.2-0.5,0.3-1.1,0.6-1.7s0.5-1.2,0.8-1.9l18.4-42.2c0.4-1.5,0.5-2.9,0.3-4.4c-0.2-1.5-0.1-3.1,0.4-4.7
		l0.6-2.5c0.1-0.2,0.6,0,1.5,0.6c0-1.5,0.9-3.1,2.7-4.8c0.6-0.6,1-1.3,1.2-1.9c0.9,0.7,1.2,1,0.9,0.9c-0.2,0-0.2,0,0,0.1
		c0.2,0.1,0.5,0.2,0.9,0.4c-0.4-1.1-0.5-1.5-0.3-1.2c0.2,0.2,0.6,0.2,1.1,0c0.5-0.2,0.7-0.1,0.8,0.4c0.1,0.4,0.1-0.3,0.2-1.8
		c1.2,0.1,1.7,0.2,1.3,0.3c-0.3,0.1-0.2,0.1,0.4,0.2c0.9,0.2,1.7,0.1,2.3-0.3c0.6-0.4,1.9,0.3,3.7,1.9l1.8,1.8
		c0.2,0.4,0.4,0.6,0.4,0.8c0,0.2,0.1,0.3,0.2,0.4c0.2,0.4,0.4,0.8,0.7,1.3c0.3,0.5,0.7,1.1,1.1,1.7c0.9,1.3,1.5,3.3,1.7,6
		c0.3,5.3,0.6,8.5,0.9,9.6c0.3,1,0.9,3.9,1.8,8.7l1.2,4.1c0.1,0.4,0.1,0.6,0.2,0.8c0.1,0.2,0.1,0.4,0.2,0.6c1.2,4.8,2.9,9.2,5,13.2
		l3.5,7.1c0.8,1.6,1.2,2.4,1,2.6c-0.2,0.1,0.6,0.7,2.2,1.8l1.3,0.9l0.5,0.9c0.6,1.1,1.1,1.6,1.8,1.5c0.7-0.1,1.1,0.6,1.4,2l0.1,0.6
		c0.1,0.7,0.3,1.3,0.5,1.8c0.2,0.4,0.2,1.2-0.1,2.3l-0.3,1c-0.2,0.7-0.4,0.8-0.4,0.4V455.9z M253.9,448.8l0.5-0.2l6.7-0.5
		c1.5,0,2.8-0.2,3.7-0.4c0.5-0.1,1.2-0.1,2-0.2c0.8-0.1,1.9-0.1,3.1-0.1c0-0.5,0-1-0.1-1.3c-0.1-0.4-0.2-0.7-0.4-1
		c-0.1-0.3-0.3-0.6-0.5-0.9c-0.2-0.3-0.3-0.7-0.5-1.1l-4.3-12.1c-1,0.3-1.5,0.5-1.4,0.6c0.2,0.1,0,0.6-0.5,1.6l-4.8,8
		c0,0.1,0,0.2-0.1,0.2l-3.8,6.7l-0.1,0.1c0,0-0.1,0.1-0.1,0.1s0,0.1-0.1,0.1L253.9,448.8z M300.2,484.3
		C300.2,484.3,300.1,484.3,300.2,484.3C300.2,484.4,300.2,484.4,300.2,484.3l0.1,0.1L300.2,484.3z M300.6,448.3
		C300.6,448.4,300.6,448.4,300.6,448.3c0.1,0.1,0.1,0.1,0.2,0.1L300.6,448.3z M306,484.8c0,0,0,0,0.1-0.1l0.1-0.1L306,484.8z"/>
	<path class="st1" d="M306.2,395.5c0.7,0.3,1.1,0.4,1,0.4c-0.1,0,0-0.2,0.4-0.4c-1.4-1-1.5-1.9-0.2-2.8c1.3-0.9,2-1.9,2.3-2.9
		c0.2-0.6,0-0.9-0.4-0.8c-0.2,0-0.1-0.1,0.3-0.3c0.4-0.3,1.2-0.6,2.4-1.2l1.7-0.9c0.9-0.4,1.3-0.5,1.2-0.3c-0.1,0.1,0.5-0.4,1.7-1.5
		l0.9,0.4l-0.8-0.3c-0.6-0.2-0.8-0.3-0.6-0.2c0.1,0.1,0.6,0.4,1.4,0.8c0.5,0.3,0.6,0.4,0.2,0.4c-0.3,0-0.1-0.1,0.4-0.2
		c0.7,0,0.9-0.1,0.6-0.2c-0.3-0.2,0.2-0.2,1.4-0.2c0.5,0,0.8,0,0.9,0c0.1,0,0.1,0-0.1,0.1c-0.4,0-0.3,0.2,0.4,0.5l2.7,1.8
		c2,1.8,2.7,2.8,2.2,3c-0.5,0.2,0.2,0.4,2,0.4l-0.4,0.8c-0.1,0.4-0.2,0.4-0.4,0.2c-0.1-0.1,0-0.1,0.1,0.1c0.2,0.1,0.5,0.4,1,0.8
		c0,0,0.1,0.1,0.2,0.2c0.2,0.1,0.3,0.2,0.4,0.2c-0.4,1.3-0.6,1.8-0.7,1.5c-0.1-0.2-0.1-0.2,0,0c0.1,0.2,0.3,0.6,0.6,1.1
		c0.4,0.9,0.6,2.6,0.7,5.1c0,2.4,0.1,3.9,0.2,4.5c0,0.7,0,1.4,0,2.3c0,0.9-0.1,1.9-0.2,2.9c-0.1,1-0.2,2.1-0.4,3.2
		c-0.2,1.1-0.4,2.2-0.6,3.3c2.2,0,3.1-0.3,2.9-0.7c-0.2-0.4,1.9-0.7,6.4-0.7c1.4,0,2.7,0.1,3.9,0.2c1.2,0.1,2.3,0.2,3.3,0.4
		c2,0.3,4.4,1,7.3,2.2l4.7,3.3c2.2,2,4,4.7,5.4,8l0.1,0.4c0.8,2,1.3,3.8,1.5,5.3c0.2,1.6,0.5,3,0.8,4.3c1.7,6.2,2,11.7,1.1,16.5
		c-0.9,4.9-2.5,10-4.6,15.4c-2.1,5.4-5.4,9.4-9.9,12c-0.9,0.5-1.7,0.9-2.4,1.2c-0.7,0.3-1.3,0.5-1.7,0.6c-0.9,0.2-2.2,0.5-3.9,0.9
		c-5.6,1.1-10.9,0.1-16-3.1l-5.5-4.2c0,0-0.1-0.1-0.3-0.2c-0.4,0.9-0.4,1.2-0.2,1c0.2-0.3,0.2,0.2-0.1,1.4c-0.2,1-0.4,1.4-0.5,1.4
		c-0.1-0.1-0.3,0.3-0.5,1.1c-2.1,0-3.7-0.5-4.7-1.4l-0.2-0.2c-2.4-2.5-4-7.2-4.8-14.2c-0.4-3.5-0.7-6.6-1-9.3
		c-0.3-2.6-0.5-4.9-0.6-6.8l0.9-44.4c0-0.2-0.1-1-0.4-2.7c-0.3-1.6-0.5-2.3-0.6-2.2c-0.2,0.1-0.5-0.4-0.9-1.6
		c-0.2-0.5-0.3-1-0.4-1.5c-0.1-0.5-0.1-0.9-0.2-1.4c-0.1-0.5-0.2-0.9-0.4-1.4S306.5,396,306.2,395.5z M308.4,390.6
		c0,0-0.1,0.2-0.3,0.5c-0.2,0.4-0.1,0.1,0.2-0.7c0.1-0.2,0.2-0.3,0.3-0.4c0.1-0.1,0.2-0.1,0.3-0.1c0.1,0,0.1,0,0,0.1
		C308.8,390.1,308.6,390.3,308.4,390.6z M324.8,457.7c0,0.8-0.2,1.6-0.4,2.5c-0.2,0.8-0.3,1.6-0.3,2.2c0.1,1.1,1.3,2.6,3.6,4.3
		c1.2,0.9,2.3,1.6,3.4,2.2c1,0.6,2,1,2.9,1.3c4.5,1.5,7.8,1.3,9.9-0.5c2.2-1.9,3.6-4.4,4.1-7.6c0.6-3.3,0.6-6.8-0.1-10.5
		c-0.7-3.8-1.5-6.9-2.5-9.3c-0.8-1.5-1.8-2.5-3-2.8c-4.1-1.1-7.5-0.6-10.1,1.5c-2.6,2-4.9,2.8-7,2.3L324.8,457.7z"/>
	<path class="st1" d="M399.2,484.2c-1.3,0-2-0.1-2.2-0.2c-0.1-0.1-1.3-0.2-3.6-0.3c-1.5,0-3.2-0.5-5-1.6c-3.7-2-6.8-4-9.3-6.2
		c-2.4-2.1-4.5-5.3-6.3-9.4c-2.2-5.1-3.5-11.1-4-18.1c-0.5-7.1,0.4-13.3,2.7-18.6c0.6-1.3,1.1-2.5,1.5-3.6c0.5-1.1,0.9-2.2,1.2-3.1
		c0.4-0.9,0.9-2,1.6-3.1s1.4-2.3,2.4-3.6l2-2.1l0.2-0.2l5.3-4c2.5-1.7,6.3-2.7,11.2-2.9c4.9-0.2,8.7,0.2,11.3,1.1
		c3.4,1.3,5,2,4.8,2.1c-0.2,0.1,0.4,0.5,1.9,1.2c0.3,0.2,0.5,0.3,0.5,0.3c0.1,0,0,0-0.1-0.1c-0.2-0.1,0-0.1,0.5,0.1
		c0.2,0.2,0.5,0.4,0.7,0.4l2.9,2.9c0.4,0.4,0.8,0.8,1.1,1.2c0.3,0.3,0.5,0.6,0.7,0.9c0.5,0.6,1,1.4,1.5,2.5l4.9,8.9
		c2.1,3.3,3.3,6.5,3.6,9.4c0.2,1.5,0.3,3,0.4,4.5c0.1,1.5,0.3,3.2,0.4,4.8l-0.7,10.3c-0.4,2.2-1.3,4.8-2.9,7.7
		c-1.6,3.1-3.2,5.6-4.8,7.5c-1.7,1.9-4.4,3.9-8,5.8c-1.8,1-3.5,1.8-5,2.4c-1.5,0.6-2.8,1.1-4,1.4c-1.8,0.4-3,0.7-3.4,1
		C403.1,484,401.7,484.2,399.2,484.2z M398.7,468.5c0.3-0.6,0.8-1.3,1.7-2.2l6.5-10.9l0.8-1.5c0.2-0.3,0.3-0.9,0.4-1.8
		c0.1-1.4,0.2-2.6,0.2-3.7c0-1.1,0-2.1-0.1-3c-0.2-1.8-0.9-3.6-2.1-5.4c-0.6-0.8-1.1-1.7-1.5-2.5c-0.5-0.9-0.9-1.8-1.2-2.7
		c-0.6-1.8-1.4-2.9-2.2-3.2l-2.5-0.2h-0.4c-0.8,0-1.7-0.1-2.7-0.1c-1,0-1.7,0.1-2.3,0.4c-0.5,0.3-1.6,1.6-3.3,3.9
		c-1.7,2.3-2.7,3.9-3.1,4.8c-0.4,1-0.8,2.3-1.1,3.7c-0.3,1.5-0.6,3.2-0.8,5.2c-0.4,3.9-0.2,7,0.5,9.5l3.4,11.6l3.5-0.8
		c0.3-0.1,0.4,0,0.4,0.2c0,0.2,0.1,0.4,0.5,0.6c0.4,0.2,1.8,0.3,4.1,0.4L398.7,468.5z"/>
	<path class="st1" d="M443,398.7c0.5-0.1,0.9-0.1,1.4-0.2c0.4,0,0.7-0.1,0.8-0.1c0.7-0.2,1-0.5,0.9-0.6c-0.1-0.2,0.2-0.4,0.9-0.4
		c1.2,0,2.2,0.1,3,0.4c0.8,0.3,1.6,0.5,2.4,0.8c1.9,0.7,3.2,1.4,3.8,2.3c0.3,0.4,0.7,0.9,1.1,1.5c0.4,0.6,0.9,1.2,1.4,1.9
		c1.3,1.9,2,3.9,2,6l-3.2,22.2c-0.4,1.3-0.7,2.4-0.9,3.5s-0.4,2-0.5,2.9c-0.1,0.8-0.1,1.8-0.2,2.9c-0.1,1.1-0.1,2.3-0.2,3.7
		c0,0.4-0.1,0.8-0.1,1c0,0.2,0,0.3,0,0.4c0,1.9,0,3.9-0.2,6s-0.2,4,0.1,5.9l0.2,1.1c0.2,1.2,0.4,2.3,0.8,3.4c0.4,1.1,0.9,2,1.6,2.9
		c0.7,0.8,1.5,1.6,2.4,2.1c0.9,0.6,2.1,1,3.4,1.2c2.1,0.4,3.5,0.4,4.1-0.2c0.8-0.7,1.5-1.4,2.2-2.3c0.7-0.9,1.3-1.7,1.9-2.5
		c0.4-0.6,0.7-1,0.9-1.3c0.2-0.3,0.4-0.6,0.5-0.7c0.2-0.3,0.3-1.1,0.1-2.5c-0.2-1.7-0.4-3.5-0.5-5.6c-0.1-2.1-0.2-4.4-0.3-7
		c-0.1-3-0.3-6-0.8-9.2c-0.4-3.2-0.8-6.3-1.1-9.4l-0.4-11.2c0.2-3.4,0.9-5.4,1.9-6.1c1.1-0.7,2-1.7,3-2.9c0.7-1.1,1.3-1.8,1.8-1.9
		l2.2,0.2v-1.4c1.1,0,1.8,0.3,2.2,0.8c0.4,0.4,1.1,0.7,2.1,0.8c1,0.2,1.8,0.1,2.2-0.3c0.4-0.4,1.2-0.2,2.3,0.6l4,4.5
		c0.8,1.1,1.1,2,0.7,2.8c-0.3,0.7,0.2,2,1.4,3.6c0.7,1.1,1,1.5,0.7,1.2s-0.4,0.3-0.4,1.5l0.2,5.3l-5.9,36.6
		c-0.3,1.4-0.5,2.8-0.7,4.3c-0.1,1.4-0.3,2.9-0.5,4.3c-0.4,2.3-0.9,4.3-1.6,5.9c-0.6,1.6-1.1,3.5-1.6,5.6c-0.2,1.1-0.5,1.7-0.7,1.9
		c-0.2,0.2-0.4,0.9-0.4,1.9c-1.2,0.1-1.7,0.1-1.4,0c0.3-0.1,0.3,0.2,0.1,0.9c-1.7-0.2-2.8-1.2-3.2-3c-0.2-0.9-0.4-1.7-0.6-2.5
		c-0.2-0.7-0.4-1.5-0.6-2.1c-0.2-0.6-0.4-1.1-0.5-1.5c-0.2-0.4-0.3-0.9-0.4-1.6c-1,0.3-3.3,2-6.9,5.1c-3.4,3.1-8.7,3.3-15.7,0.6
		c-0.9-0.4-1.8-0.8-2.8-1.3c-1-0.5-1.9-1.1-2.9-1.8c-0.9-0.6-1.8-1.3-2.7-2s-1.6-1.4-2.2-2.1l-3-3.7c-2.5-3.2-4.2-6.9-5.3-11.2
		c-0.5-2.2-0.9-4.3-1.2-6.4c-0.3-2.1-0.5-4.3-0.6-6.4c0-1.3-0.1-2.5-0.1-3.6c0-1.1-0.1-2.1-0.1-3c-0.1-0.9-0.1-2,0-3.2
		c0.1-1.2,0.2-2.5,0.3-3.9c0.2-1.3,0.3-2.4,0.5-3.2c0.2-0.9,0.3-2.1,0.3-3.5c0-1.5,0.2-2.6,0.4-3.5c0.1-0.4,0.2-0.9,0.3-1.5
		s0.2-1.2,0.3-2l0.7-8.3c0.1-0.6,0.2-1.2,0.2-1.9c0.1-0.7,0.2-1.4,0.4-2.2c0.3-1.5,0.9-2.8,2-3.8l1.4-1.3c1.5-1.8,3.2-2.8,5.1-3
		L443,398.7z M484.9,405.4v1.4H484v-1.4H484.9z M489.9,410.5c0-0.2,0-0.3-0.1-0.2L489.9,410.5z M493.3,418.7c0,0.7,0,0.9,0.1,0.5
		c0-0.1,0.1-0.1,0.1-0.2c0-0.1,0-0.1,0.1-0.1c0,0,0-0.1,0.1-0.1c0.2,0,0.2-0.1,0-0.4C493.4,418,493.3,418.1,493.3,418.7z"/>
	<path class="st1" d="M517.4,392.7c0-0.9-0.1-1.2-0.2-0.8c-0.1,0.3-0.2-0.1-0.2-1.3l-0.1-5.4c-0.1-1.3-0.1-2.4-0.2-3.3
		c0-0.9-0.1-1.6-0.1-2.1c0.1-1.1,0.9-2.4,2.4-4l3.3-3.8c0.3-0.4,0.8-0.8,1.4-1.1c0.5-0.2,0.8-0.3,0.9-0.3s0,0.1-0.3,0.2
		c-0.3,0.2-0.4,0.2-0.2,0.2c0.1,0,0.5-0.1,1-0.3c0.3-0.1,0.5-0.1,0.6-0.2s0,0-0.1,0.1c-0.3,0.1-0.2,0,0.3-0.3
		c0.4-0.3,0.4-0.4,0.2-0.2c-0.2,0,0-0.1,0.5-0.4c0.3-0.2,0.5-0.3,0.6-0.4c0.1-0.1,0.1-0.1,0.1-0.1c0,0,0.3,0,1.1-0.1l0.9,1.4
		c0.2-0.4,0.5-0.7,0.9-0.9c0.2-0.2,0.6-0.2,1.1-0.1c1.4,0.3,2.3,0.8,2.8,1.5c0.5,0.8,0.8,1.2,0.9,1.2c0.2,0.2,0.5,0.3,0.9,0.4
		c0.4,0.1,0.9,0.6,1.4,1.4l2.1,2.9c0.2,0.4,0.4,0.8,0.5,1.2c0.1,0.3,0.1,0.7,0.2,1c0.1,0.3,0.1,0.7,0.2,1.1c0.1,0.4,0.2,0.8,0.4,1.3
		c0.6,1.6,0.7,3.5,0.5,5.6c-0.1,1-0.1,2.1-0.1,3.1c0,1,0,2.1,0,3.1c0,0.7-0.1,1.6-0.3,2.6c-0.2,1-0.3,2-0.4,3.1
		c-0.1,0.6-0.1,1.1-0.2,1.5c0,0.5-0.1,0.9-0.1,1.4s-0.1,1-0.1,1.5c0,0.5,0,1.2,0,1.9l6.4-0.7c2.3,0,4.5,0.5,6.5,1.6
		c0.1,0,0.2,0.1,0.3,0.2c0.8,0.6,1.5,1.2,2.1,1.9c0.6,0.7,1.3,1.3,2.1,1.9c0.1,0.1,0.2,0.2,0.3,0.2l1,0.7c-0.2,0.6-0.5,1.3-0.9,2.2
		c0.4,0,0.8,0.1,1,0.1c0.2,0,0.3,0,0.4,0c0,0,0.2,0.4,0.4,1.2c-0.5,0.7-0.7,1-0.6,1c0,0-0.5-0.1-1.5-0.1l0.9,1.3
		c-0.1,1-0.1,1.5-0.1,1.4c0.1-0.1-0.4-0.3-1.3-0.5c0.2,0.3,0.3,0.6,0.4,0.7c0.1,0.2,0.3,0.3,0.4,0.5c0.1,0.2,0.3,0.3,0.4,0.6
		c0.1,0.2,0.3,0.5,0.5,0.9l-0.7,1.1c-0.3,0.4-0.5,0.6-0.7,0.7c-1.1,0.8-1.8,1.1-2.1,0.9c-0.3-0.2-0.5,0.2-0.6,1.1
		c-0.3,2-1.8,3-4.4,3c-1.3,0-2.2,0-2.5-0.1c-0.3-0.1-0.5,0.4-0.5,1.4c-3,0.1-5.4-0.2-7.3-0.8c-0.8-0.2-1.5-0.5-2.1-0.7
		c-0.6-0.3-1.3-0.3-2-0.1c-0.6,0.1-0.6,0-0.1-0.2c0.3-0.2,0.4-0.2,0.3-0.1c-0.1,0.1-0.3,0.3-0.7,0.5c-0.6,0.4-0.8,0.5-0.6,0.3
		c0.2-0.2,0.1,0.2-0.1,1l-2.3,10.6c-0.2,2.8-0.4,4.7-0.5,5.7c-0.1,0.9-0.2,3.1-0.2,6.6l0.1,6.1c-0.1,1.8,0,3.4,0.1,4.9
		c0.1,1.5,0.4,2.9,0.7,4.2c0.7,2.6,1.2,5,1.4,7.1c1.4,0.3,2.6,0.5,3.7,0.6c1.1,0.1,2,0.1,2.8,0c1.6-0.2,1.5,1.7-0.3,5.6
		c-1.7,3.4-4,5.2-7,5.6c-3,0.4-5.6-0.3-7.8-1.8c0,0-0.3-0.2-0.8-0.7c-0.5-0.5-0.8-0.7-0.8-0.8c-0.2,0-0.2-0.1-0.2-0.2l-2.6-3.6
		c-1.3-2-2.3-4.1-3.1-6.3s-1.5-4.4-2-6.7c-0.2-0.3-0.2-0.6-0.2-0.8c-0.6-2.2-1.1-4.7-1.5-7.3c-0.4-2.6-0.6-5.3-0.6-8
		c0-1.5-0.1-3.2-0.2-5.1c-0.1-1.9-0.3-4-0.6-6.3c-0.5-4.5-0.1-8.1,1.2-10.8c-1.8,0-3.4,0-4.8-0.1c-1.5-0.1-2.8-0.2-4.1-0.3
		c-2.4-0.3-5.1-1.2-7.9-2.7c-0.1-0.1-0.2-0.1-0.2-0.1l-1.5-1.4c-0.1-0.2-0.2-0.3-0.3-0.4s-0.2-0.2-0.3-0.4c0.6-2.2,2.1-4,4.7-5.4
		c2.6-1.5,4.9-2.8,6.9-3.7c0.5-0.2,0.9-0.4,1.3-0.6c0.4-0.2,0.8-0.4,1.1-0.6c0.9-0.4,1.6-0.7,2.2-0.9c3.3-1.1,5.1-2,5.4-2.6
		c0.3-0.6,0.5-4.6,0.6-12.1c0-0.9,0.1-1.4,0.2-1.2C517.4,394.1,517.4,393.7,517.4,392.7z M536.7,375.1c0-0.1,0-0.2-0.1-0.2
		L536.7,375.1z"/>
</g>
</svg>
