<?xml version="1.0" encoding="utf-8"?>
<!-- Generator: Adobe Illustrator 19.0.0, SVG Export Plug-In . SVG Version: 6.00 Build 0)  -->
<svg version="1.1" id="Layer_1" xmlns="http://www.w3.org/2000/svg" xmlns:xlink="http://www.w3.org/1999/xlink" x="0px" y="0px"
	 viewBox="0 0 768 768" style="enable-background:new 0 0 768 768;" xml:space="preserve">
<metadata><?xpacket begin="﻿" id="W5M0MpCehiHzreSzNTczkc9d"?>
<x:xmpmeta xmlns:x="adobe:ns:meta/" x:xmptk="Adobe XMP Core 5.6-c067 79.157747, 2015/03/30-23:40:42        ">
   <rdf:RDF xmlns:rdf="http://www.w3.org/1999/02/22-rdf-syntax-ns#">
      <rdf:Description rdf:about=""/>
   </rdf:RDF>
</x:xmpmeta>
                                                                                                    
                                                                                                    
                                                                                                    
                                                                                                    
                                                                                                    
                                                                                                    
                                                                                                    
                                                                                                    
                                                                                                    
                                                                                                    
                                                                                                    
                                                                                                    
                                                                                                    
                                                                                                    
                                                                                                    
                                                                                                    
                                                                                                    
                                                                                                    
                                                                                                    
                                                                                                    
                           
<?xpacket end="w"?></metadata>
<style type="text/css">
	.st0{fill:#5D2D7A;}
	.st1{fill:#FFFFFF;}
</style>
<path id="XMLID_33_" class="st0" d="M616.2,254.2c-11.1-5.6-23.5-8.8-36.1-9.2c-20.5-32.4-58.8-52.9-100-52.9
	c-36.3,0-67.7,16.4-86.4,45c-2,3.1-3.8,6.5-5.2,10c-23.9-16-52.9-25-82.8-25.3H304c-40.5,0-87.5,15.5-98,59.1
	c-0.9,3.8-1.5,7.7-1.7,11.5c-1.4-0.1-2.8-0.1-4.3-0.1c-27.1,0-55.6,14.5-74.3,37.9c-12.3,15.4-20.8,33.4-23.8,50.8
	c-4,22.6,1.2,42.7,15.1,58.1c1.3,1.4,2.6,2.8,4,4.1c-2.5,5.8-4.3,12.5-5.5,20.3c-2.8,18.3,0.5,37.1,9.1,53.1
	c14.7,27.2,43.8,44.8,74.1,44.8c3.8,0,7.6-0.3,11.4-0.8c3.6-0.5,7.1-1.3,10.6-2.4c17.8,12.3,39.5,19,61.8,19
	c27.2,0,52.1-9.9,69.6-27.2c29.3,25.3,68.5,39.5,110.2,39.5l0,0c62.5,0,117.3-31.8,143.1-83c11.3-22.4,14.2-49.2,8.6-72.7
	c31-13,48.4-52.1,52.3-78C672.9,313.5,652.7,272.6,616.2,254.2z"/>
<g id="XMLID_29_">
	<path id="XMLID_110_" class="st1" d="M334.3,363.3c2-2.1,3.4-3,4.1-2.8s1.4,0.5,2,1.1c0.6,0.5,1,1.1,1.1,1.8
		c0.1,0.7,0.1,1.9,0.2,3.5c0,1.6,0.2,2.7,0.4,3.4c0.3,0.6,0.7,2.6,1.2,5.9s0.8,5.4,0.9,6.1c0,0.7,0.2,1.8,0.6,3.3s2.2,1.8,5.6,1.1
		c3.4-0.7,6.8-1.6,10.1-2.5c3.3-0.9,5.8-1.6,7.4-2.1s-0.1,0.3-5,2.3s-8.4,3.7-10.3,4.8c-1.9,1.2-3.7,2.4-5.2,3.6
		c-1.6,1.2-2.4,2.6-2.4,4.3c0,1.6-0.2,3.9-0.6,6.8s-0.7,5.4-1.1,7.6s-0.6,4-0.8,5.4c-0.2,1.4-0.7,2.8-1.5,4.1s-1.7,2.1-2.6,2.2
		c-1,0.2-1.8-0.1-2.4-0.9s-0.7-2.7-0.3-5.8c0.4-3.1,0.9-5.9,1.3-8.3s0.9-5.1,1.3-7.9c0.4-2.9-0.5-4.1-2.8-3.8s-4.6,0.6-7.1,1
		s-4.9,0.7-7.4,1s-4.5,0.9-6.2,1.7c-1.6,0.8-4.5,4-8.7,9.7c-4.2,5.6-6.9,9.4-8.1,11.1c-1.3,1.8-2.4,2.6-3.4,2.6s-1.7-0.4-2.2-1.2
		c-0.4-0.8-0.5-1.9,0-3.4c0.4-1.5,2-4.3,4.6-8.3c2.7-4.1,5.7-8.2,9.3-12.6c3.5-4.3,6.4-7.8,8.8-10.4c2.3-2.7,4.4-5.3,6.3-7.8
		c1.9-2.6,4-5.4,6.4-8.5C330.1,368,332.3,365.4,334.3,363.3z M336.8,377c-0.4-3.1-1.3-3.8-2.5-2.3c-1.3,1.6-2.4,3.1-3.5,4.5
		s-3.2,3.9-6.5,7.5s-3.5,5.1-0.9,4.4c2.7-0.6,5.9-1.2,9.7-1.5c3.8-0.4,5.6-1.2,5.5-2.4c-0.1-1.2-0.4-2.5-0.7-3.7
		C337.7,382.2,337.3,380.1,336.8,377z"/>
	<path id="XMLID_113_" class="st1" d="M377,349.7c0.4-0.4,1.2-0.4,2.2-0.3c1.1,0.2,2.1,0.7,3.2,1.6s0.9,2.2-0.4,3.9
		c-1.3,1.7-2.8,4.1-4.5,7s-3.6,7-5.9,12.1s-3.2,8.4-2.9,9.9c0.4,1.4,1.1,2.7,2.2,3.7s3,1.5,5.6,1.4s7.4-0.3,14.6-0.7
		c7.1-0.4,7.6-0.3,1.6,0.3c-6.1,0.5-10.6,1.1-13.6,1.5c-3,0.5-4.1,2-3.1,4.5c0.9,2.5,1.5,4.5,1.7,5.8s0.3,2.8,0,4.3
		c-0.2,1.5-0.9,3.1-2,4.8c-1.1,1.7-2.4,3.1-3.7,4.3c-1.3,1.2-2.6,2-4,2.4c-1.3,0.4-2.8,0.4-4.5-0.1c-1.7-0.4-3.1-1.3-4.3-2.5
		c-1.2-1.3-2-3.1-2.6-5.5c-0.5-2.4-0.7-4.9-0.6-7.3s1.2-6.3,3.2-11.5c2-5.3,3.7-9.5,5.2-12.7s3.4-7.7,6-13.7c2.5-6,4-9.4,4.5-10.3
		C375.3,351.7,376,350.7,377,349.7z M368,395.1c-1.2-1.6-2.4-1.6-3.4-0.1s-1.6,3-1.8,4.5c-0.2,1.5-0.3,2.9-0.2,4.1
		c0.1,1.3,0.5,2.5,1.1,3.8s1.6,1.9,2.8,1.8s2.2-0.5,3-1.5c0.8-0.9,1.4-2.1,1.7-3.4c0.3-1.3,0.2-2.8-0.5-4.5
		C370.2,398.2,369.2,396.6,368,395.1z"/>
	<path id="XMLID_116_" class="st1" d="M393.4,390.9c0.8-0.8,1.9-1.3,3.1-1.5s2.2-0.2,3,0.2c0.8,0.4,1.5,1,2,1.9s1.9,1.3,4.1,1.3
		s4.9,0,8.2,0c3.3,0.1,2.6,0.2-2.1,0.3s-7.3,0.3-7.9,0.6c-0.6,0.2-0.9,1-0.8,2.3s0.2,2.7,0.3,4.2c0.1,1.5,0.1,3.1,0,4.9
		c0,1.8-0.2,3.1-0.4,4c-0.2,0.9-0.5,1.8-1,2.8s-1.1,2-1.9,3.1c-0.9,1.1-1.9,2.1-3.2,3c-1.3,0.9-2.4,1.6-3.5,2.1s-2.2,0.5-3.4,0.1
		c-1.2-0.4-2.2-1.1-3-2s-1.4-1.8-1.8-2.8c-0.5-1-0.7-2.7-0.6-5.1s0.3-4.4,0.8-5.8c0.5-1.5,1.2-3,2.1-4.6c1-1.6,1.3-2.4,0.9-2.2
		c-0.4,0.1-0.5,0.1-0.3-0.2c0.2-0.2,1-1.2,2.3-2.8C391.6,392.8,392.7,391.6,393.4,390.9z M396.7,401.2c-1-1.2-2.2-0.9-3.6,1
		c-1.5,1.8-2.3,3.8-2.6,5.9c-0.3,2.1-0.2,3.5,0.3,4.4c0.5,0.8,1,1.3,1.6,1.5c0.5,0.1,1.3-0.2,2.3-1.1s1.8-2.7,2.5-5.6
		C397.9,404.3,397.7,402.3,396.7,401.2z"/>
	<path id="XMLID_119_" class="st1" d="M434.7,393.2c0.9-0.5,1.7-0.7,2.4-0.5c0.7,0.1,1.2,0.5,1.4,1c0.3,0.5,0,2.4-0.8,5.7
		c-0.8,3.3-1.3,6.1-1.6,8.5s0,4,0.7,4.9s1.9,1.3,3.7,1s3.6-1.4,5.6-3.5s2.3-2.2,0.7-0.3c-1.6,1.9-3,3.5-4.4,5
		c-1.3,1.5-2.5,2.4-3.5,2.8s-2.2,0.5-3.5,0.3s-2.4-0.7-3.3-1.6c-0.8-0.8-1.5-1.8-2-3s-0.5-2.6-0.1-4.3c0.4-1.7,0.6-3.2,0.8-4.4
		c0.1-1.2-0.4-1.2-1.5,0.2c-1.1,1.4-2.5,2.8-4.1,4.5c-1.6,1.6-3.3,3-5.1,4.3c-1.8,1.2-3.2,2-4.3,2.4c-1,0.4-2.1,0.6-3.1,0.8
		c-1,0.2-2,0-2.9-0.6s-1.4-1.4-1.6-2.5s0-2.8,0.7-5s1.8-5.2,3.3-9.1c1.6-3.8,1.1-5.9-1.4-6.1s-4.3-0.8-5.5-1.6
		c-1.2-0.8-0.5-0.7,2.2,0.3s4.6,0.9,5.7-0.3c1.1-1.2,2-2,2.9-2.2s1.8-0.2,2.6,0.1c0.8,0.3,1.3,0.8,1.6,1.6c0.2,0.8,0.2,1.7-0.1,2.7
		c-0.3,1.1-1.5,3.8-3.4,8.3s-2,6.5-0.2,5.9s5-3.1,9.7-7.8C431.1,396.2,433.8,393.7,434.7,393.2z"/>
	<path id="XMLID_121_" class="st1" d="M455.7,373.3c0.5-0.6,1.4-0.9,2.5-0.8s2,0.4,2.5,1.1s1,1.4,1.3,2.2c0.4,0.9,0.3,1.8-0.2,2.8
		s-0.9,2.2-1.4,3.8c-0.4,1.6-1,3.7-1.7,6.6c-0.7,2.8-0.7,4.4,0.1,4.7c0.8,0.4,2.2,0.7,4.1,1.1s5,0.5,9.3,0.4c4.2-0.1,4,0.2-0.7,0.9
		c-4.7,0.7-8.2,1.3-10.4,1.9c-2.3,0.6-3.8,1-4.5,1.2s-2,2.7-3.7,7.3c-1.7,4.6-2.9,7.7-3.4,9.3c-0.6,1.5-1.1,2.6-1.7,3.1
		s-1.4,0.9-2.4,1.2c-1,0.3-1.8,0.2-2.6-0.1c-0.8-0.4-0.8-1.8,0-4.3s1.9-5.5,3.3-8.9s2.2-5.6,2.3-6.4c0.1-0.8-0.4-1.1-1.7-0.9
		s-2.4,0.3-3.4,0.4c-1,0-1.5-0.6-1.4-1.8c0-1.3,0.8-2.3,2.4-3.1s3-1.2,4.2-1.2s2.3-1.7,3.3-5.1s1.5-5.7,1.7-6.8
		c0.2-1.1,0.5-2.6,0.9-4.6C454.8,375.2,455.2,373.9,455.7,373.3z"/>
</g>
<circle id="XMLID_97_" class="st0" cx="212.4" cy="125.5" r="40.2"/>
<circle id="XMLID_90_" class="st0" cx="576.9" cy="599.4" r="14.6"/>
<circle id="XMLID_34_" class="st0" cx="159.4" cy="211.5" r="23.4"/>
</svg>
