<?xml version="1.0" encoding="iso-8859-1"?>
<!-- Generator: Adobe Illustrator 19.2.1, SVG Export Plug-In . SVG Version: 6.00 Build 0)  -->
<svg version="1.1" id="Layer_1" xmlns="http://www.w3.org/2000/svg" xmlns:xlink="http://www.w3.org/1999/xlink" x="0px" y="0px"
	 viewBox="0 0 768 768" style="enable-background:new 0 0 768 768;" xml:space="preserve">
<path id="XMLID_78_" style="fill:#ECE0DB;" d="M617.01,188.25c-40.095-41.104-99.388-64.678-162.681-64.678
	c-40.069,0-78.948,9.403-112.435,27.191c-40.711,21.625-70.646,55.598-84.741,95.332c-9.907-2.622-20.344-3.973-30.98-3.973
	c-27.173,0-53.716,8.623-74.739,24.281c-55.407,41.265-69.295,117.736-32.298,177.881c25.812,41.967,71.925,67.022,123.354,67.022
	c15.513,0,30.9-2.269,45.658-6.672c-4.664,18.256-12.794,33.952-24.325,46.889c-17.114,19.205-39.947,30.771-74.047,37.501
	c-7.665,1.516-13.71,6.502-16.732,13.207c-1.7,2.693-2.838,5.772-3.236,9.057c-1.15,9.501,3.951,18.469,12.678,22.308
	c16.538,7.287,36.443,10.83,60.858,10.83c8.882,0,18.304-0.468,28.804-1.43c29.239-2.681,57.77-9.834,84.807-21.262
	c28.788-12.168,90.015-43.302,109.443-94.307c15.358,6.234,31.523,9.46,47.797,9.462c0,0,0.003,0,0.006,0
	c21.422,0,42.379-5.839,60.604-16.881c32.832-19.893,52.576-57.007,51.304-94.775c26.965-28.216,42.273-65.183,43.341-105.175
	C670.743,271.781,651.628,223.736,617.01,188.25z"/>
<rect id="XMLID_11_" x="1131.691" y="-928.488" style="fill:#00BD9C;" width="217.897" height="217.897"/>
<rect id="XMLID_197_" x="1153.357" y="-1177.758" style="fill:#ECE0DB;" width="217.897" height="217.897"/>
<g id="XMLID_3_">
	<path id="XMLID_5_" style="fill:#5D2D7A;" d="M190.922,440.876c-7.407,0-13.435-3.014-18.082-9.041l-5.378-7.978
		c-2.916-5.2-4.885-11.228-5.909-18.082c-0.512-3.467-0.729-6.825-0.649-10.075s0.434-6.45,1.063-9.603
		c0.512-2.64,1.25-5.092,2.216-7.357c0.965-2.265,2.077-4.618,3.339-7.062c0.157-0.314,0.275-0.521,0.354-0.62
		c0.078-0.099,0.177-0.267,0.295-0.503c0-0.038,0.02-0.078,0.06-0.118c0.039-0.038,0.078-0.098,0.118-0.177
		c0.118-0.118,0.178-0.197,0.178-0.236l10.459-10.873c0.314-0.315,0.62-0.591,0.916-0.827c0.295-0.236,0.562-0.453,0.798-0.65
		l5.022-3.428c0.157-0.118,0.256-0.196,0.296-0.236c0.038-0.038,0.068-0.068,0.088-0.088s0.068-0.06,0.148-0.119
		c0.078-0.059,0.236-0.167,0.473-0.324l5.2-3.014c4.884-2.166,9.828-3.546,14.832-4.137c4.846-0.63,10.144-0.02,15.896,1.832
		c1.183,0.434,2.295,0.995,3.339,1.684c1.044,0.69,2.098,1.389,3.162,2.098l1.004,0.769c0,0.158,0.079,0.236,0.236,0.236
		l3.664,4.786c0.669,1.38,0.984,2.207,0.945,2.482c0,0.315,0.118,1.084,0.354,2.305v0.118c0,0.04,0.02,0.079,0.06,0.118
		c0.354,1.34,0.57,1.753,0.649,1.241c0.079-0.275,0.099-0.345,0.06-0.207c-0.04,0.139-0.118,0.482-0.236,1.034l-1.891,5.613
		c-0.198,0.354-0.375,0.65-0.532,0.887c-0.671,1.024-0.985,1.458-0.945,1.3c0.118-0.236-0.178-0.118-0.887,0.354l-0.827,0.591
		l-0.118,0.118c-0.04,0.04-0.079,0.06-0.118,0.06c-0.315,0.197-0.395,0.276-0.236,0.236c0.118-0.039,0.138-0.039,0.059,0
		c-0.079,0.04-0.275,0.118-0.591,0.236c-0.434,0.197-0.808,0.306-1.122,0.325c-0.316,0.021-0.602,0-0.857-0.06
		c-0.257-0.059-0.493-0.127-0.709-0.207c-0.217-0.078-0.443-0.156-0.68-0.236c-0.867-0.118-1.596-0.403-2.187-0.856
		c-0.591-0.452-1.3-0.896-2.127-1.329c-0.316-0.118-0.66-0.256-1.034-0.414c-0.375-0.157-0.729-0.345-1.063-0.562
		c-0.336-0.216-0.611-0.463-0.827-0.738c-0.218-0.275-0.325-0.63-0.325-1.063c0-0.197,0.156-0.335,0.473-0.414
		c0.275-0.118-0.139-0.492-1.241-1.123l-5.437-1.358c-0.631-0.079-1.152-0.138-1.565-0.178c-0.414-0.039-0.72-0.06-0.916-0.06
		c-3.271-0.433-6.796,0.158-10.578,1.773c-0.354,0.157-0.62,0.286-0.798,0.384c-0.177,0.099-0.335,0.178-0.473,0.236
		c-0.139,0.06-0.295,0.129-0.473,0.207c-0.177,0.079-0.404,0.177-0.68,0.296c-3.979,1.852-7.544,4.353-10.695,7.504l-5.378,6.265
		c-2.403,3.624-3.781,7.111-4.136,10.459c-0.316,3.31-0.257,7.091,0.177,11.346c0.078,0.788,0.216,1.605,0.414,2.452
		c0.196,0.848,0.452,1.764,0.768,2.748c0.354,0.945,0.709,1.832,1.063,2.659c0.355,0.827,0.689,1.576,1.005,2.245l3.723,6.501
		c1.615,2.285,3.329,3.861,5.142,4.727c1.339,0.71,3.014,1.064,5.022,1.064c1.93-0.039,3.644-0.217,5.142-0.532
		c0.591-0.118,1.103-0.216,1.536-0.296c0.433-0.078,0.837-0.177,1.211-0.295s0.759-0.236,1.152-0.354s0.866-0.275,1.419-0.473
		c2.56-0.788,4.982-1.693,7.268-2.719c2.285-1.023,4.491-2.166,6.619-3.427c0.945-0.591,1.693-0.965,2.245-1.123
		c2.757-0.63,4.274-0.374,4.55,0.769s-0.079,2.62-1.063,4.432c-0.512,0.906-1.084,1.802-1.714,2.688s-1.339,1.783-2.127,2.688
		c-1.536,1.813-2.738,3.014-3.604,3.605c-1.971,1.339-3.959,2.57-5.969,3.692c-2.009,1.123-4.087,2.079-6.234,2.866
		c-2.147,0.788-4.363,1.408-6.647,1.861C195.788,440.65,193.405,440.876,190.922,440.876z"/>
	<path id="XMLID_7_" style="fill:#5D2D7A;" d="M269.102,439.044c-1.3,0-2.029-0.079-2.187-0.236
		c-0.118-0.118-1.32-0.217-3.604-0.295c-1.498,0-3.152-0.532-4.964-1.596c-3.743-1.97-6.835-4.038-9.277-6.205
		c-2.364-2.127-4.472-5.259-6.323-9.396c-2.206-5.082-3.545-11.109-4.018-18.082c-0.474-7.091,0.413-13.275,2.659-18.556
		c0.551-1.26,1.053-2.452,1.507-3.575c0.452-1.122,0.856-2.156,1.211-3.102c0.394-0.945,0.916-1.979,1.566-3.103
		c0.649-1.123,1.447-2.314,2.393-3.575l1.95-2.068l0.236-0.236l5.318-3.959c2.521-1.733,6.264-2.698,11.228-2.896
		c4.924-0.157,8.706,0.217,11.346,1.122c3.428,1.301,5.043,2.01,4.846,2.128c-0.197,0.079,0.434,0.473,1.891,1.182
		c0.275,0.158,0.453,0.257,0.532,0.296c0.078,0.039,0.039,0.02-0.118-0.06c-0.197-0.118-0.021-0.078,0.532,0.118
		c0.236,0.236,0.452,0.375,0.649,0.414l2.896,2.896c0.434,0.434,0.798,0.817,1.094,1.152c0.295,0.335,0.541,0.641,0.738,0.916
		c0.473,0.552,0.984,1.398,1.536,2.541l4.905,8.923c2.088,3.349,3.289,6.48,3.604,9.396c0.157,1.458,0.305,2.955,0.443,4.491
		c0.138,1.536,0.266,3.152,0.384,4.846l-0.649,10.341c-0.355,2.207-1.321,4.786-2.896,7.741c-1.575,3.112-3.171,5.614-4.786,7.505
		c-1.694,1.931-4.354,3.861-7.978,5.791c-1.813,0.985-3.467,1.793-4.964,2.423c-1.497,0.631-2.816,1.084-3.959,1.359
		c-1.813,0.394-2.955,0.729-3.428,1.004C272.982,438.926,271.545,439.044,269.102,439.044z M268.57,423.385
		c0.275-0.591,0.847-1.339,1.714-2.245l6.5-10.933l0.769-1.478c0.197-0.314,0.315-0.925,0.354-1.832
		c0.118-1.378,0.187-2.619,0.207-3.723c0.02-1.103-0.01-2.087-0.089-2.954c-0.197-1.812-0.886-3.604-2.068-5.378
		c-0.552-0.827-1.063-1.674-1.536-2.541c-0.473-0.866-0.867-1.752-1.182-2.659c-0.631-1.772-1.359-2.855-2.187-3.25l-2.482-0.236
		h-0.354c-0.827-0.039-1.724-0.068-2.688-0.089c-0.966-0.019-1.743,0.109-2.334,0.385c-0.473,0.275-1.576,1.576-3.31,3.899
		c-1.694,2.286-2.718,3.9-3.072,4.846c-0.435,1.025-0.808,2.267-1.123,3.724s-0.571,3.19-0.769,5.199
		c-0.354,3.861-0.197,7.032,0.474,9.515l3.427,11.641l3.486-0.768c0.315-0.079,0.434,0,0.354,0.236
		c-0.039,0.157,0.138,0.354,0.532,0.591c0.394,0.197,1.753,0.335,4.077,0.413L268.57,423.385z"/>
	<path id="XMLID_10_" style="fill:#5D2D7A;" d="M327.072,363.938l1.182,0.06c0.157,0.748,0.197,1.32,0.119,1.713
		c-0.08,0.395-0.119,1.144-0.119,2.246l1.892-0.532h0.118c0.039,0,0.059-0.009,0.059-0.029c0-0.02,0.02-0.029,0.06-0.029
		l0.177-0.118l1.892-0.827c3.466-1.457,7.327-1.753,11.582-0.887c1.26,0.315,2.383,0.62,3.368,0.916
		c0.984,0.295,1.852,0.601,2.6,0.916c1.537,0.67,3.251,1.852,5.142,3.545c1.654,1.537,2.875,3.566,3.664,6.087l0.295,0.709
		c0.827,2.482,1.221,4.57,1.182,6.264c-0.039,0.907-0.029,1.843,0.03,2.808c0.059,0.966,0.127,1.979,0.206,3.043
		c0.236,3.034-0.059,7.604-0.886,13.709c-0.749,6.067-1.813,10.873-3.191,14.419c-0.985,2.521-1.497,5.477-1.536,8.864
		c-0.04,3.309-0.671,6.322-1.891,9.041c-0.198,0.395-0.316,0.611-0.355,0.649c-0.039,0.04-0.118,0.218-0.236,0.532
		c-0.157,0.276-0.256,0.502-0.295,0.68c-0.04,0.177-0.118,0.384-0.236,0.62c-0.709-0.473-1.34-1.161-1.892-2.068
		c-0.552-0.905-1.044-1.772-1.477-2.6c-1.813-3.466-2.621-7.957-2.423-13.474c0.118-2.718,0.207-5.238,0.266-7.563
		c0.06-2.324,0.068-4.471,0.029-6.441l-1.122-12.941l-0.592-3.309c-0.236-0.984-0.649-1.478-1.24-1.478
		c-1.734,0-3.33,0.513-4.787,1.536c-0.67,0.513-1.35,0.976-2.038,1.389c-0.69,0.414-1.369,0.798-2.039,1.152l-3.132,1.832
		c-0.985,0.473-1.822,1.005-2.512,1.596s-1.408,1.202-2.156,1.832l-1.241,1.714c-0.473,0.63-0.769,0.848-0.887,0.649
		c-0.079-0.236-0.257,0.118-0.531,1.063l-0.178,0.71c-0.039,0.039-0.059,0.157-0.059,0.354l-6.027,26.946
		c-0.474,1.852-0.887,4.195-1.241,7.031c-0.354,2.758-1.123,4.846-2.305,6.265l-0.887,0.886c-0.079,0-0.315,0.197-0.709,0.591
		c-1.891-1.024-3.427-2.758-4.609-5.2c-0.315-0.591-0.562-1.161-0.738-1.713c-0.178-0.552-0.325-1.113-0.443-1.685
		c-0.118-0.57-0.228-1.182-0.325-1.832c-0.099-0.65-0.207-1.389-0.325-2.216c-0.67-3.742-0.945-6.52-0.827-8.332v-2.009
		c0-0.157,0.02-0.434,0.06-0.828c0.039-0.393,0.059-0.729,0.059-1.004l0.118-19.441c-0.118-0.946-0.138-1.714-0.059-2.305
		c0.078-0.591,0.118-1.182,0.118-1.773c-0.158-4.884-0.207-9.857-0.147-14.921c0.059-5.062-0.129-10.075-0.562-15.039
		c-0.394-4.018,0.63-7.188,3.072-9.514c0.197-0.157,0.385-0.295,0.562-0.413c0.178-0.118,0.384-0.296,0.621-0.532l1.3-1.772
		c0.787-0.866,2.127-1.419,4.018-1.655c0.906,0,1.457,0.021,1.655,0.06c0.512,0.079,0.856,0.147,1.034,0.207
		c0.177,0.059,0.226,0.088,0.147,0.088c-0.079,0,0.236,0.139,0.945,0.414c1.143,0.473,1.556,0.552,1.241,0.236
		c-0.315-0.354,0.059-0.354,1.123,0c0.747,0.276,1.279,0.827,1.595,1.654c0.394,0.828,1.044,1.438,1.95,1.832
		c0.118,0.118,0.178,0.158,0.178,0.118c0.039,0.04,0.078,0.06,0.118,0.06c0.039,0.039,0.078,0.059,0.118,0.059l0.413,0.354
		c1.064,1.025,1.635,1.694,1.714,2.01c0.118,0.275,0.118,1.004,0,2.187c-0.157,1.497-0.039,2.049,0.354,1.654
		c0.473-0.512,0.394-0.098-0.236,1.241L327.072,363.938z M322.936,354.661c-0.08,0-0.119-0.06-0.119-0.178L322.936,354.661z
		 M323.054,354.956c0,0.04-0.021,0.06-0.06,0.06l-0.059,0.059L323.054,354.956z M326.954,364.883c-0.039,0-0.05,0.011-0.029,0.03
		c0.02,0.02,0.049,0.029,0.089,0.029l0.059,0.059C327.072,364.845,327.033,364.805,326.954,364.883z M339.837,366.184
		c0,0.709,0.038,0.866,0.118,0.473c0.038-0.079,0.059-0.148,0.059-0.207c0-0.06,0.02-0.108,0.06-0.147
		c0-0.039,0.02-0.079,0.059-0.118c0.157,0,0.157-0.138,0-0.414C339.934,365.456,339.837,365.592,339.837,366.184z"/>
	<path id="XMLID_18_" style="fill:#5D2D7A;" d="M382.619,347.628c0-0.905-0.059-1.182-0.177-0.827
		c-0.118,0.315-0.178-0.118-0.178-1.3l-0.059-5.437c-0.08-1.301-0.139-2.402-0.178-3.31c-0.04-0.905-0.059-1.615-0.059-2.127
		c0.078-1.103,0.886-2.423,2.423-3.959l3.309-3.842c0.315-0.433,0.769-0.807,1.359-1.122c0.512-0.197,0.827-0.296,0.945-0.296
		s0.02,0.079-0.295,0.236c-0.276,0.158-0.355,0.228-0.237,0.207c0.119-0.02,0.453-0.128,1.005-0.325
		c0.315-0.078,0.512-0.138,0.591-0.177s0.039-0.02-0.118,0.059c-0.315,0.118-0.217,0.021,0.296-0.296
		c0.354-0.274,0.433-0.354,0.236-0.236c-0.197,0.04-0.04-0.078,0.473-0.354c0.275-0.156,0.473-0.274,0.591-0.354
		c0.118-0.078,0.138-0.098,0.06-0.059c-0.04,0.039,0.334,0,1.122-0.118l0.887,1.359c0.157-0.394,0.452-0.71,0.887-0.946
		c0.236-0.156,0.61-0.196,1.122-0.118c1.419,0.316,2.344,0.827,2.777,1.537c0.473,0.788,0.769,1.202,0.887,1.24
		c0.196,0.198,0.492,0.336,0.887,0.414c0.393,0.079,0.865,0.552,1.418,1.418l2.127,2.896c0.236,0.435,0.394,0.818,0.473,1.152
		c0.079,0.335,0.148,0.671,0.207,1.005c0.06,0.335,0.118,0.689,0.178,1.063c0.059,0.375,0.187,0.798,0.384,1.271
		c0.551,1.616,0.729,3.486,0.532,5.614c-0.08,1.024-0.129,2.059-0.148,3.102c-0.02,1.045-0.01,2.079,0.03,3.103
		c0,0.709-0.089,1.576-0.267,2.601c-0.177,1.024-0.306,2.049-0.384,3.072c-0.079,0.553-0.139,1.063-0.178,1.537
		c-0.039,0.473-0.079,0.945-0.118,1.418s-0.069,0.975-0.088,1.507c-0.021,0.531-0.03,1.152-0.03,1.861l6.383-0.709
		c2.323,0,4.49,0.531,6.5,1.596c0.118,0.039,0.216,0.099,0.295,0.177c0.827,0.552,1.526,1.192,2.098,1.921
		c0.571,0.729,1.271,1.35,2.099,1.861c0.118,0.118,0.216,0.177,0.295,0.177l1.005,0.709c-0.158,0.553-0.453,1.301-0.887,2.246
		c0.434,0.04,0.758,0.069,0.976,0.089c0.216,0.02,0.344,0.029,0.384,0.029c0.039,0,0.177,0.395,0.413,1.182
		c-0.473,0.671-0.689,1.005-0.649,1.005c0.039-0.039-0.473-0.06-1.536-0.06l0.886,1.301c-0.118,1.024-0.139,1.497-0.059,1.418
		c0.078-0.118-0.354-0.296-1.301-0.532c0.157,0.316,0.305,0.562,0.443,0.739c0.138,0.177,0.275,0.345,0.414,0.502
		c0.138,0.158,0.275,0.346,0.413,0.562c0.138,0.217,0.305,0.502,0.503,0.856l-0.709,1.063c-0.316,0.354-0.532,0.572-0.65,0.65
		c-1.063,0.827-1.772,1.143-2.127,0.945c-0.316-0.196-0.513,0.158-0.591,1.063c-0.316,1.971-1.773,2.976-4.373,3.014
		c-1.34,0.04-2.187,0-2.541-0.118c-0.316-0.118-0.493,0.354-0.532,1.419c-2.954,0.079-5.377-0.178-7.269-0.769
		c-0.788-0.236-1.487-0.482-2.098-0.738c-0.611-0.256-1.291-0.305-2.038-0.148c-0.553,0.118-0.572,0.04-0.06-0.236
		c0.275-0.156,0.374-0.196,0.296-0.118c-0.08,0.08-0.316,0.257-0.709,0.532c-0.592,0.395-0.789,0.493-0.592,0.295
		c0.157-0.156,0.118,0.178-0.118,1.005l-2.305,10.578c-0.236,2.836-0.413,4.747-0.531,5.731c-0.118,0.945-0.178,3.132-0.178,6.56
		l0.118,6.086c-0.079,1.773-0.05,3.408,0.089,4.905c0.138,1.497,0.364,2.896,0.68,4.195c0.748,2.64,1.201,5.004,1.359,7.091
		c1.378,0.316,2.609,0.523,3.693,0.621c1.083,0.099,2.018,0.108,2.807,0.029c1.615-0.157,1.516,1.694-0.296,5.555
		c-1.654,3.389-3.998,5.239-7.031,5.555c-3.034,0.354-5.635-0.257-7.801-1.832c-0.039,0-0.315-0.236-0.827-0.709
		c-0.513-0.473-0.769-0.748-0.769-0.827c-0.157,0-0.236-0.06-0.236-0.178l-2.6-3.604c-1.262-2.009-2.285-4.116-3.073-6.322
		s-1.458-4.433-2.009-6.678c-0.158-0.275-0.236-0.552-0.236-0.827c-0.591-2.246-1.094-4.678-1.507-7.298
		c-0.414-2.62-0.621-5.289-0.621-8.008c0-1.496-0.059-3.2-0.177-5.111c-0.118-1.91-0.315-4.008-0.591-6.293
		c-0.473-4.53-0.06-8.135,1.241-10.814c-1.773,0-3.389-0.029-4.846-0.088c-1.458-0.06-2.817-0.168-4.078-0.325
		c-2.442-0.275-5.063-1.162-7.858-2.659c-0.079-0.079-0.157-0.118-0.237-0.118l-1.477-1.419c-0.079-0.156-0.178-0.295-0.296-0.413
		s-0.216-0.236-0.295-0.354c0.552-2.166,2.127-3.979,4.727-5.437c2.64-1.536,4.944-2.777,6.914-3.723
		c0.473-0.197,0.916-0.385,1.33-0.562c0.413-0.178,0.777-0.364,1.093-0.562c0.866-0.394,1.615-0.688,2.246-0.887
		c3.348-1.103,5.141-1.969,5.377-2.6c0.275-0.591,0.473-4.629,0.591-12.114c0-0.945,0.06-1.359,0.178-1.241
		C382.56,349.008,382.619,348.574,382.619,347.628z M401.883,329.959c0-0.118-0.04-0.177-0.118-0.177L401.883,329.959z"/>
	<path id="XMLID_21_" style="fill:#5D2D7A;" d="M446.085,367.07c2.009-0.157,4.432-0.334,7.269-0.531
		c2.875-0.236,5.613-0.236,8.214,0c1.103,0.118,2.058,0.227,2.866,0.324c0.807,0.1,1.486,0.188,2.038,0.267s1.201,0.217,1.95,0.413
		c0.748,0.198,1.635,0.453,2.659,0.769c1.103,0.395,2.246,0.877,3.428,1.447c1.182,0.572,2.166,1.311,2.954,2.217
		c0.039,0.118,0.178,0.295,0.414,0.531c2.324,2.916,3.368,6.244,3.132,9.987l-1.005,2.896c-0.236,0.434-0.354,0.61-0.354,0.531
		c0-0.118-0.118,0.178-0.354,0.887l-2.423,8.687c-0.354,1.3-0.729,2.521-1.122,3.664c-0.395,1.143-0.71,2.344-0.946,3.604
		l-4.254,26.946c-0.08,0.67-0.1,1.379-0.06,2.127c0.039,0.749,0.06,1.498,0.06,2.245c0,0.749-0.03,1.478-0.089,2.187
		c-0.06,0.709-0.207,1.32-0.443,1.832c-0.945,2.284-2.068,2.975-3.368,2.068c-1.262-0.867-2.482-2.009-3.664-3.428
		c-0.276-0.314-0.493-0.551-0.649-0.709c-0.158-0.156-0.276-0.256-0.354-0.295c-0.08-0.079-0.237-0.571-0.474-1.478
		c-0.197-0.591-0.256-0.925-0.177-1.005c0.078-0.078,0.02-0.531-0.178-1.358c-0.748,0.591-1.103,0.966-1.063,1.122
		c0.039,0.158-0.513,0.65-1.654,1.478l-3.25,2.068c-1.3,0.749-2.521,1.34-3.664,1.772c-1.104,0.434-2.64,0.65-4.609,0.65
		c-1.458,0-2.916-0.168-4.373-0.502c-1.457-0.335-2.865-0.798-4.225-1.389c-1.359-0.592-2.65-1.271-3.871-2.039
		s-2.344-1.586-3.368-2.452l-3.072-3.132c-2.797-3.31-4.629-7.111-5.496-11.405c-0.314-1.693-0.314-3.584,0-5.673
		c0.473-2.639,1.655-5.102,3.546-7.387c0.945-1.182,1.891-2.245,2.836-3.19c0.946-0.946,1.911-1.753,2.896-2.423
		c2.64-1.852,5.2-3.211,7.683-4.078c2.402-0.866,5.121-1.634,8.154-2.305c1.97-0.433,3.673-0.758,5.112-0.975
		c1.438-0.216,2.629-0.345,3.574-0.384c1.892-0.118,4.708,0.236,8.451,1.063c0.118-0.275,0.186-0.64,0.206-1.094
		c0.02-0.452,0.049-0.915,0.089-1.389c0.039-0.473,0.089-0.954,0.147-1.447c0.06-0.492,0.207-0.955,0.443-1.389
		c-2.009,0-3.792,0-5.348,0c-1.557,0-2.887,0.021-3.989,0.059c-2.206,0-5.199,0.473-8.981,1.419c-0.118,0-0.296,0.039-0.532,0.118
		c-1.852,0.512-3.604,1.162-5.259,1.95c-0.513,0.512-0.966,0.768-1.359,0.768l-2.245,0.473c-0.395,0.08-0.621,0.148-0.68,0.207
		c-0.06,0.06,0.009,0.089,0.207,0.089h-0.65l-7.387-2.305c-0.197-0.118-0.473-0.452-0.827-1.005
		c-0.236-0.354-0.414-0.61-0.532-0.768s-0.226-0.267-0.325-0.325c-0.098-0.06-0.177-0.098-0.236-0.118
		c-0.059-0.02-0.147-0.068-0.266-0.148c-0.118-0.118-0.216-0.206-0.295-0.266c-0.079-0.059-0.138-0.138-0.178-0.236
		c-0.039-0.098-0.078-0.266-0.118-0.502c-0.039-0.236-0.059-0.591-0.059-1.063c0-1.024,0.275-1.812,0.827-2.364
		c-0.827-0.196-1.201-0.334-1.123-0.413c0.079-0.079-0.296-0.236-1.123-0.473c0.158-1.931,0.435-3.407,0.827-4.433
		c0.276-0.945,0.966-2.187,2.068-3.723c0.709-0.866,1.753-1.516,3.132-1.95c1.339-0.394,1.989-0.768,1.95-1.123
		c-0.197-0.709-0.315-0.709-0.354,0c0,0.671-0.177,0.414-0.531-0.768L446.085,367.07z M426.229,379.539h-0.059
		c0-0.196-0.039-0.256-0.118-0.178L426.229,379.539z M436.335,416.708c0.039,0.118,0.098,0.236,0.177,0.354
		c0.079,0.08,0.128,0.158,0.148,0.236c0.019,0.08,0.068,0.158,0.147,0.236c0.394,0.789,0.748,1.458,1.063,2.01
		c0.314,0.552,0.788,1.123,1.418,1.714l1.005,0.827c2.955,2.324,5.378,3.408,7.269,3.25c1.93-0.157,4.137-0.748,6.618-1.772
		c4.137-1.615,6.479-2.679,7.032-3.191c0.551-0.552,0.827-2.935,0.827-7.15c-1.262-0.118-1.694-0.177-1.3-0.177
		c0.433,0,0.098-0.512-1.005-1.537l-1.772-1.3c-1.222-0.669-2.857-0.887-4.905-0.65l-4.49,0.414
		c-3.507,0.434-6.048,0.907-7.623,1.418c-1.576,0.553-3.29,1.892-5.142,4.019L436.335,416.708z"/>
	<path id="XMLID_25_" style="fill:#5D2D7A;" d="M534.427,418.185c0.197,0,0.63,0.296,1.301,0.887
		c0.591,0.473,0.965,0.867,1.122,1.182c0.592,1.379,0.296,3.29-0.886,5.731c-0.553,1.222-1.123,2.305-1.714,3.251
		c-0.591,0.945-1.182,1.772-1.772,2.481c-2.482,2.837-4.826,4.807-7.032,5.909c-1.104,0.513-2.216,0.866-3.339,1.063
		s-2.275,0.532-3.457,1.005c-2.009,0.709-4.53,1.043-7.563,1.005c-3.113-0.08-5.535-0.454-7.269-1.123l-1.536-0.827
		c-0.907-0.473-1.725-0.916-2.453-1.33c-0.729-0.413-1.408-0.798-2.038-1.152c-0.591-0.354-1.222-0.798-1.892-1.329
		c-0.67-0.532-1.379-1.172-2.127-1.921l-1.536-1.536c-1.104-1.182-1.734-1.891-1.892-2.127l-4.727-6.441
		c0.078,0.079,0.049,0-0.089-0.236c-0.139-0.236-0.365-0.63-0.68-1.182c-0.591-1.143-1.063-2.078-1.418-2.808
		c-0.354-0.729-0.61-1.25-0.769-1.565l-1.772-4.55c-1.143-2.994-1.852-6.835-2.128-11.523c-0.274-4.609,0.276-8.332,1.655-11.169
		l1.536-2.896c0.395-0.709,0.955-1.526,1.684-2.452c0.729-0.925,1.389-1.703,1.98-2.334c0.747-0.906,1.407-1.693,1.979-2.363
		c0.57-0.67,1.309-1.438,2.216-2.305l4.491-4.019c0.473-0.434,1.25-0.984,2.334-1.654c1.083-0.67,2.512-1.457,4.284-2.364
		c1.772-0.905,3.289-1.654,4.55-2.245s2.305-0.984,3.132-1.183l4.491-1.182l4.137-0.591c2.009-0.275,3.388-0.354,4.137-0.236
		c1.023,0.197,1.959,0.365,2.807,0.502c0.847,0.139,1.604,0.247,2.275,0.325c0.669,0.08,1.389,0.247,2.156,0.503
		c0.769,0.256,1.566,0.601,2.394,1.034c2.127,1.103,3.841,2.363,5.141,3.781c2.048,2.364,3.703,4.964,4.964,7.801
		c1.261,2.836,1.103,6.106-0.473,9.809c-0.158,0.316-0.464,0.789-0.916,1.419c-0.453,0.631-1.073,1.438-1.861,2.423
		c-1.497,1.891-2.481,2.876-2.954,2.954c-0.435,0.08-0.71,0.129-0.828,0.148s-0.039-0.01,0.236-0.089
		c0.512-0.118,0.492-0.178-0.059-0.178c-0.552,0.08-0.926,0.395-1.123,0.945h-1.772l-0.354-0.886
		c0.039-0.039-0.335-0.118-1.123-0.236c-1.143-0.118-1.95-0.06-2.423,0.177s-1.162-0.118-2.068-1.063l-1.891-2.127
		c-0.158,0-0.236-0.06-0.236-0.178c-0.079-0.078-0.178-0.138-0.296-0.177l-2.836-3.133c-0.197-0.314-0.257-0.591-0.178-0.827
		c0.039-0.274-0.315-0.413-1.063-0.413c-2.363,0-4.019,0.059-4.964,0.177c-0.906,0.118-2.423,0.591-4.55,1.419
		c-0.709,0.354-1.241,0.601-1.596,0.738c-0.354,0.139-0.808,0.384-1.359,0.738c-5.909,4.098-9.396,7.466-10.459,10.105
		c-1.025,2.679-0.04,7.071,2.954,13.178c0.67,1.379,1.398,2.669,2.187,3.87c0.788,1.202,1.635,2.354,2.541,3.457
		c1.852,2.127,3.802,3.526,5.851,4.195c2.245,0.827,5.515,0.789,9.81-0.118c4.254-0.945,7.484-2.009,9.69-3.19
		c1.537-0.828,2.305-1.379,2.305-1.655c0.079-0.314,0.63-0.669,1.655-1.063C533.383,418.264,533.876,418.185,534.427,418.185z"/>
	<path id="XMLID_27_" style="fill:#5D2D7A;" d="M564.861,347.628c0-0.905-0.06-1.182-0.178-0.827
		c-0.118,0.315-0.177-0.118-0.177-1.3l-0.06-5.437c-0.079-1.301-0.139-2.402-0.177-3.31c-0.04-0.905-0.06-1.615-0.06-2.127
		c0.078-1.103,0.887-2.423,2.423-3.959l3.31-3.842c0.314-0.433,0.768-0.807,1.358-1.122c0.512-0.197,0.828-0.296,0.946-0.296
		s0.019,0.079-0.296,0.236c-0.276,0.158-0.354,0.228-0.236,0.207c0.118-0.02,0.452-0.128,1.005-0.325
		c0.314-0.078,0.511-0.138,0.591-0.177c0.078-0.039,0.038-0.02-0.118,0.059c-0.316,0.118-0.217,0.021,0.295-0.296
		c0.354-0.274,0.434-0.354,0.236-0.236c-0.197,0.04-0.039-0.078,0.473-0.354c0.275-0.156,0.474-0.274,0.592-0.354
		c0.118-0.078,0.137-0.098,0.059-0.059c-0.04,0.039,0.334,0,1.123-0.118l0.886,1.359c0.157-0.394,0.453-0.71,0.887-0.946
		c0.236-0.156,0.61-0.196,1.123-0.118c1.418,0.316,2.343,0.827,2.777,1.537c0.473,0.788,0.768,1.202,0.886,1.24
		c0.197,0.198,0.492,0.336,0.887,0.414c0.394,0.079,0.866,0.552,1.418,1.418l2.128,2.896c0.236,0.435,0.394,0.818,0.473,1.152
		c0.078,0.335,0.147,0.671,0.207,1.005c0.059,0.335,0.118,0.689,0.177,1.063c0.06,0.375,0.187,0.798,0.385,1.271
		c0.551,1.616,0.728,3.486,0.531,5.614c-0.079,1.024-0.128,2.059-0.147,3.102c-0.021,1.045-0.011,2.079,0.029,3.103
		c0,0.709-0.089,1.576-0.266,2.601c-0.178,1.024-0.306,2.049-0.385,3.072c-0.079,0.553-0.138,1.063-0.177,1.537
		c-0.04,0.473-0.079,0.945-0.118,1.418c-0.04,0.473-0.069,0.975-0.089,1.507c-0.021,0.531-0.029,1.152-0.029,1.861l6.382-0.709
		c2.324,0,4.491,0.531,6.5,1.596c0.118,0.039,0.216,0.099,0.296,0.177c0.827,0.552,1.526,1.192,2.098,1.921
		c0.57,0.729,1.271,1.35,2.098,1.861c0.118,0.118,0.216,0.177,0.296,0.177l1.004,0.709c-0.157,0.553-0.453,1.301-0.886,2.246
		c0.433,0.04,0.758,0.069,0.975,0.089c0.216,0.02,0.345,0.029,0.384,0.029s0.178,0.395,0.414,1.182
		c-0.473,0.671-0.689,1.005-0.65,1.005c0.039-0.039-0.473-0.06-1.536-0.06l0.887,1.301c-0.118,1.024-0.139,1.497-0.06,1.418
		c0.079-0.118-0.354-0.296-1.3-0.532c0.157,0.316,0.305,0.562,0.443,0.739c0.138,0.177,0.275,0.345,0.413,0.502
		c0.138,0.158,0.275,0.346,0.414,0.562c0.138,0.217,0.305,0.502,0.502,0.856l-0.709,1.063c-0.315,0.354-0.531,0.572-0.649,0.65
		c-1.064,0.827-1.773,1.143-2.128,0.945c-0.315-0.196-0.513,0.158-0.591,1.063c-0.315,1.971-1.772,2.976-4.373,3.014
		c-1.34,0.04-2.187,0-2.541-0.118c-0.315-0.118-0.493,0.354-0.531,1.419c-2.955,0.079-5.378-0.178-7.269-0.769
		c-0.789-0.236-1.487-0.482-2.098-0.738c-0.611-0.256-1.291-0.305-2.039-0.148c-0.552,0.118-0.571,0.04-0.059-0.236
		c0.274-0.156,0.374-0.196,0.295-0.118c-0.079,0.08-0.315,0.257-0.709,0.532c-0.591,0.395-0.788,0.493-0.591,0.295
		c0.157-0.156,0.118,0.178-0.118,1.005l-2.305,10.578c-0.236,2.836-0.414,4.747-0.532,5.731c-0.118,0.945-0.177,3.132-0.177,6.56
		l0.118,6.086c-0.079,1.773-0.05,3.408,0.089,4.905c0.138,1.497,0.363,2.896,0.68,4.195c0.747,2.64,1.201,5.004,1.358,7.091
		c1.379,0.316,2.609,0.523,3.693,0.621c1.083,0.099,2.019,0.108,2.807,0.029c1.615-0.157,1.517,1.694-0.295,5.555
		c-1.654,3.389-3.999,5.239-7.032,5.555c-3.034,0.354-5.634-0.257-7.8-1.832c-0.04,0-0.316-0.236-0.827-0.709
		c-0.513-0.473-0.769-0.748-0.769-0.827c-0.158,0-0.236-0.06-0.236-0.178l-2.601-3.604c-1.261-2.009-2.285-4.116-3.072-6.322
		c-0.789-2.206-1.458-4.433-2.01-6.678c-0.157-0.275-0.236-0.552-0.236-0.827c-0.591-2.246-1.093-4.678-1.507-7.298
		c-0.413-2.62-0.62-5.289-0.62-8.008c0-1.496-0.06-3.2-0.178-5.111c-0.118-1.91-0.315-4.008-0.591-6.293
		c-0.473-4.53-0.059-8.135,1.241-10.814c-1.772,0-3.389-0.029-4.846-0.088c-1.458-0.06-2.816-0.168-4.077-0.325
		c-2.443-0.275-5.063-1.162-7.859-2.659c-0.078-0.079-0.157-0.118-0.236-0.118l-1.478-1.419c-0.078-0.156-0.177-0.295-0.295-0.413
		s-0.217-0.236-0.296-0.354c0.552-2.166,2.127-3.979,4.728-5.437c2.639-1.536,4.943-2.777,6.914-3.723
		c0.473-0.197,0.916-0.385,1.329-0.562c0.414-0.178,0.777-0.364,1.094-0.562c0.866-0.394,1.614-0.688,2.245-0.887
		c3.348-1.103,5.142-1.969,5.378-2.6c0.274-0.591,0.473-4.629,0.591-12.114c0-0.945,0.059-1.359,0.177-1.241
		C564.801,349.008,564.861,348.574,564.861,347.628z M584.125,329.959c0-0.118-0.039-0.177-0.118-0.177L584.125,329.959z"/>
</g>
</svg>
