<?xml version="1.0" encoding="iso-8859-1"?>
<!-- Generator: Adobe Illustrator 19.2.1, SVG Export Plug-In . SVG Version: 6.00 Build 0)  -->
<svg version="1.1" id="Layer_1" xmlns="http://www.w3.org/2000/svg" xmlns:xlink="http://www.w3.org/1999/xlink" x="0px" y="0px"
	 viewBox="0 0 768 768" style="enable-background:new 0 0 768 768;" xml:space="preserve">
<path id="XMLID_78_" style="fill:#ECE0DB;" d="M617.01,188.25c-40.095-41.104-99.388-64.678-162.681-64.678
	c-40.069,0-78.948,9.403-112.435,27.191c-40.711,21.625-70.646,55.598-84.741,95.332c-9.907-2.622-20.344-3.973-30.98-3.973
	c-27.173,0-53.716,8.623-74.739,24.281c-55.407,41.265-69.295,117.736-32.298,177.881c25.812,41.967,71.925,67.022,123.354,67.022
	c15.513,0,30.9-2.269,45.658-6.672c-4.664,18.256-12.794,33.952-24.325,46.889c-17.114,19.205-39.947,30.771-74.047,37.501
	c-7.665,1.516-13.71,6.502-16.732,13.207c-1.7,2.693-2.838,5.772-3.236,9.057c-1.15,9.501,3.951,18.469,12.678,22.308
	c16.538,7.287,36.443,10.83,60.858,10.83c8.882,0,18.304-0.468,28.804-1.43c29.239-2.681,57.77-9.834,84.807-21.262
	c28.788-12.168,90.015-43.302,109.443-94.307c15.358,6.234,31.523,9.46,47.797,9.462c0,0,0.003,0,0.006,0
	c21.422,0,42.379-5.839,60.604-16.881c32.832-19.893,52.576-57.007,51.304-94.775c26.965-28.216,42.273-65.183,43.341-105.175
	C670.743,271.781,651.628,223.736,617.01,188.25z"/>
<g id="XMLID_9_">
	<path id="XMLID_132_" style="fill:#5D2D7A;" d="M306.968,355.46c2.241-1.318,4.142-1.779,5.702-1.385
		c1.559,0.396,2.735,1.11,3.526,2.143c0.791,1.033,0.956,2.198,0.494,3.494c-0.461,1.297-1.264,2.099-2.406,2.406
		s-2.527,0.736-4.152,1.285c-1.627,0.55-3.418,1.473-5.372,2.769c-1.956,1.297-4.45,3.196-7.482,5.702
		c-3.032,2.504-6.064,5.351-9.097,8.536c-3.032,3.187-5.131,6.394-6.295,9.624c-1.165,3.229-1.803,5.504-1.911,6.822
		c-0.11,1.318,0.043,2.747,0.461,4.285c0.417,1.538,1.121,2.746,2.109,3.625c0.989,0.88,2.208,1.506,3.658,1.879
		c1.45,0.374,2.977,0.494,4.582,0.362c1.604-0.132,3.646-0.307,6.13-0.527c2.482-0.22,5.724-0.879,9.723-1.978
		c3.999-1.098,8.063-2.746,12.195-4.943c4.13-2.197,6.833-3.955,8.107-5.273s1.208-1.099-0.197,0.658
		c-1.407,1.759-3.406,3.473-5.999,5.143s-6.438,3.944-11.535,6.822c-5.099,2.879-8.855,4.713-11.272,5.504s-4.802,1.297-7.151,1.516
		c-2.352,0.221-4.527,0.165-6.526-0.164c-2-0.33-3.658-0.944-4.977-1.846c-1.318-0.9-2.726-2.384-4.219-4.449
		c-1.495-2.065-2.396-4.482-2.703-7.252c-0.308-2.768-0.088-5.58,0.659-8.438c0.747-2.855,1.835-5.415,3.264-7.679
		c1.427-2.263,3.251-4.889,5.471-7.878c2.219-2.987,5.394-6.118,9.525-9.393c4.13-3.273,7.229-5.658,9.294-7.152
		C302.639,358.186,304.77,356.778,306.968,355.46z"/>
	<path id="XMLID_134_" style="fill:#5D2D7A;" d="M319.426,382.816c0.835-0.791,1.856-1.295,3.065-1.516
		c1.208-0.22,2.208-0.153,2.999,0.197c0.791,0.353,1.461,0.979,2.011,1.879c0.549,0.901,1.922,1.33,4.12,1.285
		c2.196-0.043,4.933-0.032,8.206,0.033c3.273,0.066,2.582,0.165-2.076,0.297s-7.307,0.319-7.943,0.561
		c-0.637,0.242-0.9,1.021-0.791,2.34s0.198,2.714,0.264,4.186c0.066,1.473,0.077,3.109,0.033,4.911
		c-0.044,1.803-0.176,3.143-0.396,4.021c-0.22,0.88-0.55,1.803-0.988,2.77c-0.44,0.967-1.088,1.988-1.945,3.064
		c-0.856,1.077-1.911,2.076-3.164,3c-1.252,0.922-2.405,1.614-3.46,2.076c-1.055,0.461-2.198,0.483-3.428,0.065
		c-1.231-0.417-2.231-1.076-3-1.978c-0.769-0.9-1.384-1.834-1.846-2.801c-0.461-0.967-0.659-2.659-0.593-5.076
		c0.065-2.416,0.329-4.361,0.791-5.834c0.461-1.472,1.175-3.01,2.143-4.614c0.966-1.604,1.252-2.351,0.856-2.241
		c-0.396,0.11-0.494,0.056-0.297-0.164c0.198-0.22,0.956-1.164,2.274-2.835C317.58,384.772,318.635,383.564,319.426,382.816z
		 M322.722,393.165c-0.967-1.187-2.175-0.857-3.625,0.988s-2.318,3.802-2.604,5.867c-0.286,2.066-0.176,3.517,0.33,4.351
		c0.505,0.835,1.032,1.318,1.582,1.45c0.549,0.132,1.329-0.23,2.34-1.088c1.011-0.856,1.835-2.713,2.472-5.57
		C323.853,396.308,323.689,394.309,322.722,393.165z"/>
	<path id="XMLID_137_" style="fill:#5D2D7A;" d="M343.288,380.773c0.923-0.438,2.099-0.352,3.526,0.264
		c1.428,0.616,1.736,1.758,0.923,3.428c-0.813,1.671-2.142,4.428-3.987,8.272c-1.846,3.846-2.033,4.9-0.561,3.164
		c1.472-1.735,3.252-3.504,5.339-5.306s3.593-2.967,4.516-3.494s1.922-0.923,2.999-1.187s2.296-0.198,3.659,0.198
		c1.361,0.395,2.526,1.505,3.493,3.328c0.967,1.824,1.483,4.835,1.549,9.031c0.066,4.197,1.099,6.252,3.099,6.163
		c1.999-0.088,3.943-0.824,5.834-2.208c1.889-1.385,3.296-2.79,4.219-4.219c0.923-1.428,1.318-1.813,1.187-1.154
		c-0.132,0.66-0.638,1.627-1.517,2.9c-0.879,1.275-2.747,3.253-5.603,5.934c-2.857,2.681-5.329,4.043-7.416,4.086
		c-2.088,0.045-3.604-0.791-4.549-2.504c-0.945-1.715-1.56-4.45-1.846-8.207c-0.286-3.758-0.78-5.669-1.482-5.735
		c-0.704-0.065-2.241,0.638-4.614,2.109c-2.373,1.473-4.549,3.396-6.526,5.769s-3.593,4.383-4.845,6.031
		c-1.253,1.647-2.385,2.647-3.395,2.999c-1.012,0.353-1.836,0.089-2.473-0.791c-0.637-0.879-0.856-1.955-0.659-3.229
		c0.198-1.274,0.582-3.23,1.154-5.867c0.57-2.637,1.384-5.416,2.438-8.339c1.055-2.922,0.813-3.878-0.725-2.867
		c-1.539,1.012-3.418,2.538-5.637,4.581c-2.218,2.044-1.427,1.077,2.373-2.9c3.801-3.977,5.91-6.295,6.328-6.954
		s0.824-1.263,1.22-1.813C341.706,381.707,342.366,381.212,343.288,380.773z"/>
	<path id="XMLID_139_" style="fill:#5D2D7A;" d="M386.662,365.282c0.527-0.615,1.362-0.879,2.505-0.791s1.978,0.439,2.505,1.055
		s0.967,1.362,1.318,2.24c0.352,0.88,0.285,1.803-0.197,2.77c-0.484,0.967-0.945,2.23-1.385,3.79
		c-0.439,1.561-1.011,3.747-1.714,6.559c-0.703,2.813-0.659,4.395,0.132,4.746c0.791,0.353,2.153,0.703,4.087,1.055
		c1.934,0.353,5.021,0.484,9.262,0.396c4.24-0.088,4.01,0.221-0.692,0.923c-4.702,0.703-8.185,1.341-10.448,1.911
		c-2.264,0.572-3.757,0.979-4.482,1.22c-0.725,0.242-1.955,2.682-3.691,7.317c-1.736,4.637-2.878,7.724-3.428,9.262
		s-1.132,2.57-1.746,3.098c-0.616,0.527-1.407,0.923-2.373,1.187c-0.968,0.264-1.846,0.221-2.637-0.132
		c-0.791-0.352-0.781-1.779,0.032-4.285c0.813-2.504,1.923-5.471,3.329-8.898s2.176-5.559,2.308-6.395
		c0.132-0.834-0.44-1.142-1.714-0.922c-1.275,0.22-2.406,0.341-3.396,0.362c-0.988,0.022-1.473-0.594-1.45-1.846
		c0.022-1.253,0.824-2.274,2.406-3.065s2.988-1.197,4.219-1.22c1.23-0.021,2.329-1.735,3.296-5.142
		c0.967-3.405,1.538-5.669,1.714-6.789c0.176-1.121,0.462-2.647,0.857-4.582C385.674,367.172,386.135,365.898,386.662,365.282z"/>
	<path id="XMLID_141_" style="fill:#5D2D7A;" d="M417.644,379.784c1.011-0.264,2.12-0.308,3.329-0.133
		c1.208,0.177,2.176,0.551,2.9,1.121c0.726,0.571,1.417,1.692,2.076,3.361c0.659,1.671,0.363,2.792-0.89,3.362
		c-1.252,0.571-2.385,0.374-3.395-0.593c-1.012-0.967-2.066-1.164-3.164-0.594c-1.1,0.571-2.187,1.153-3.263,1.747
		c-1.078,0.593-2.406,1.527-3.988,2.802s-3.209,2.9-4.878,4.877c-1.671,1.979-2.594,3.242-2.769,3.791
		c-0.177,0.55,0.252,0.473,1.285-0.23c1.032-0.703,2.614-1.769,4.746-3.197c2.131-1.428,4.813-2.89,8.042-4.384
		c3.23-1.493,5.273-2.076,6.131-1.747c0.856,0.33,1.592,0.935,2.208,1.813c0.614,0.88,0.966,1.638,1.055,2.274
		c0.087,0.638-0.012,1.144-0.297,1.517c-0.286,0.374-0.616,1.219-0.988,2.537c-0.374,1.318-0.342,2.594,0.099,3.824
		c0.438,1.23,0.999,2.076,1.681,2.537c0.681,0.462,1.615,0.594,2.802,0.396c1.187-0.197,2.646-1.098,4.384-2.702
		c1.735-1.604,1.658-1.23-0.231,1.12c-1.89,2.352-3.384,3.846-4.482,4.482c-1.099,0.638-1.956,0.945-2.57,0.923
		c-0.616-0.021-1.417-0.219-2.406-0.593c-0.988-0.373-1.923-0.956-2.802-1.747s-1.571-1.757-2.076-2.9
		c-0.506-1.143-0.847-1.988-1.021-2.538c-0.177-0.549-0.583-1.153-1.22-1.813c-0.638-0.659-1.417-0.802-2.34-0.429
		c-0.923,0.374-2.538,1.396-4.845,3.065c-2.308,1.671-4.461,3.044-6.46,4.12c-2.001,1.077-3.791,1.824-5.373,2.241
		c-1.582,0.418-2.604,0.56-3.064,0.429c-0.462-0.133-0.968-0.627-1.517-1.483c-0.549-0.857-0.867-1.79-0.956-2.802
		c-0.087-1.011,0.056-2.032,0.429-3.065c0.374-1.032,1.78-3.098,4.219-6.196c2.439-3.098,4.789-5.636,7.054-7.613
		c2.263-1.978,4.668-3.658,7.218-5.043C414.853,380.938,416.633,380.092,417.644,379.784z"/>
	<path id="XMLID_143_" style="fill:#5D2D7A;" d="M447.834,381.103c4.263-1.67,7.163-2.087,8.701-1.253
		c1.538,0.835,2.296,2.088,2.274,3.757c-0.022,1.671-1.549,2.571-4.581,2.703s-5.647,0.935-7.845,2.406
		c-2.197,1.473-3.625,3.625-4.284,6.46c-0.659,2.834-0.11,4.977,1.647,6.427s3.537,2.121,5.34,2.011
		c1.801-0.109,3.395-0.385,4.778-0.824c1.385-0.438,3-1.164,4.846-2.175s3.922-2.473,6.229-4.384
		c2.308-1.912,2.252-1.658-0.164,0.758c-2.418,2.417-4.614,4.449-6.592,6.098c-1.978,1.647-3.736,2.856-5.273,3.625
		c-1.539,0.77-3.055,1.309-4.549,1.615c-1.494,0.308-3.285,0.396-5.372,0.264c-2.088-0.132-4.065-1.175-5.933-3.131
		c-1.868-1.955-2.791-4.273-2.769-6.954c0.021-2.681,0.438-4.944,1.252-6.79s2.055-3.658,3.725-5.438
		C440.935,384.497,443.791,382.773,447.834,381.103z"/>
	<path id="XMLID_145_" style="fill:#5D2D7A;" d="M476.245,365.282c0.527-0.615,1.361-0.879,2.505-0.791
		c1.142,0.088,1.978,0.439,2.505,1.055s0.966,1.362,1.318,2.24c0.351,0.88,0.285,1.803-0.198,2.77s-0.945,2.23-1.384,3.79
		c-0.44,1.561-1.012,3.747-1.714,6.559c-0.704,2.813-0.659,4.395,0.132,4.746c0.791,0.353,2.152,0.703,4.087,1.055
		c1.933,0.353,5.02,0.484,9.262,0.396c4.24-0.088,4.009,0.221-0.692,0.923c-4.703,0.703-8.186,1.341-10.448,1.911
		c-2.264,0.572-3.757,0.979-4.482,1.22c-0.725,0.242-1.956,2.682-3.691,7.317c-1.736,4.637-2.879,7.724-3.428,9.262
		c-0.55,1.538-1.132,2.57-1.747,3.098s-1.406,0.923-2.373,1.187s-1.846,0.221-2.637-0.132c-0.791-0.352-0.78-1.779,0.033-4.285
		c0.813-2.504,1.922-5.471,3.329-8.898c1.405-3.428,2.175-5.559,2.307-6.395c0.132-0.834-0.439-1.142-1.714-0.922
		s-2.405,0.341-3.395,0.362c-0.988,0.022-1.473-0.594-1.45-1.846c0.021-1.253,0.824-2.274,2.406-3.065s2.987-1.197,4.219-1.22
		c1.229-0.021,2.328-1.735,3.296-5.142c0.966-3.405,1.537-5.669,1.714-6.789c0.175-1.121,0.461-2.647,0.856-4.582
		C475.256,367.172,475.718,365.898,476.245,365.282z"/>
</g>
<rect id="XMLID_11_" x="1131.691" y="-928.488" style="fill:#00BD9C;" width="217.897" height="217.897"/>
<rect id="XMLID_197_" x="1153.357" y="-1177.758" style="fill:#ECE0DB;" width="217.897" height="217.897"/>
</svg>
