<?xml version="1.0" encoding="utf-8"?>
<!-- Generator: Adobe Illustrator 19.0.0, SVG Export Plug-In . SVG Version: 6.00 Build 0)  -->
<svg version="1.1" id="Layer_1" xmlns="http://www.w3.org/2000/svg" xmlns:xlink="http://www.w3.org/1999/xlink" x="0px" y="0px"
	 viewBox="0 0 768 768" style="enable-background:new 0 0 768 768;" xml:space="preserve">
<metadata><?xpacket begin="﻿" id="W5M0MpCehiHzreSzNTczkc9d"?>
<x:xmpmeta xmlns:x="adobe:ns:meta/" x:xmptk="Adobe XMP Core 5.6-c067 79.157747, 2015/03/30-23:40:42        ">
   <rdf:RDF xmlns:rdf="http://www.w3.org/1999/02/22-rdf-syntax-ns#">
      <rdf:Description rdf:about=""/>
   </rdf:RDF>
</x:xmpmeta>
                                                                                                    
                                                                                                    
                                                                                                    
                                                                                                    
                                                                                                    
                                                                                                    
                                                                                                    
                                                                                                    
                                                                                                    
                                                                                                    
                                                                                                    
                                                                                                    
                                                                                                    
                                                                                                    
                                                                                                    
                                                                                                    
                                                                                                    
                                                                                                    
                                                                                                    
                                                                                                    
                           
<?xpacket end="w"?></metadata>
<style type="text/css">
	.st0{fill:#762D7A;}
	.st1{fill:#FFFFFF;}
</style>
<path id="XMLID_53_" class="st0" d="M665.8,385.6C654,322.5,601,255.3,526,255.3c-2.3,0-4.6,0.1-6.9,0.2
	c-23.9-65-94.8-94.8-154.3-94.8c-8.5,0-17,0.6-25.2,1.7c-38.9,5.4-74.8,22.4-103.9,49.3c-14.6,13.5-46.7,47.7-52.5,90.8
	c-7.1,2.4-14,5.5-20.6,9.2c-30.4,17.1-53.1,47.3-60.7,80.5c-6.8,30.1-1,60.4,16.5,85.3c17.8,25.4,47.2,40.5,78.7,40.5
	c13.3,0,26.1-2.7,37.7-7.8c3.2,26.9,16.5,51.7,37.9,68.4c18.2,14.2,41,22,64,22c24,0,46.8-8.5,64.3-24c1.6-1.4,3.2-3,4.8-4.6
	c19.4,22.6,48.7,35.1,83.7,35.1l0,0c30.9,0,64.1-9.7,90.9-26.6C645.6,539.8,679.9,461.4,665.8,385.6z"/>
<circle id="XMLID_90_" class="st0" cx="543" cy="229.7" r="6.6"/>
<circle id="XMLID_34_" class="st0" cx="602.8" cy="196.6" r="12.9"/>
<circle id="XMLID_33_" class="st0" cx="163.2" cy="636.2" r="25.5"/>
<g id="XMLID_24_">
	<path id="XMLID_130_" class="st1" d="M331.2,364.8c4.6,0.4,7.6,0.7,9,0.9c1.4,0.2,3.9,0.5,7.5,0.8s6,0.9,7.2,1.9
		c1.2,0.9,1.2,1.8,0.1,2.6c-1.1,0.8-2.6,1.2-4.4,1.2s-3.5-0.1-5.1-0.3c-1.6-0.2-2.8-0.3-3.7-0.3c-0.9,0-3.2-0.2-7.2-0.5
		s-6.6-0.4-8-0.3c-1.4,0-2.5,0.5-3.3,1.4s-1.8,2-3,3.4s-2.9,3.5-5,6.3c-2.1,2.9-4.2,6.1-6.4,9.6s-4.2,7-6.1,10.2s-2.9,5.7-2.9,7.5
		s0.4,3,1.3,3.7c0.9,0.6,2,0.7,3.3,0.1s2.4-1,3.2-1.2c0.8-0.2,1.9-0.7,3.3-1.5s3-1.8,4.6-3s1.5-0.9-0.2,1c-1.8,1.9-3.1,3.5-4.1,4.8
		s-2.7,3-5.2,5s-4.7,3.1-6.4,3.2s-3.2-0.3-4.6-1.2c-1.3-0.9-2.2-2.3-2.4-4.3c-0.3-1.9-0.4-3.7-0.4-5.2s0.4-3.2,1.1-5.1
		s1.6-3.8,2.8-5.8c1.1-2,3.3-5.4,6.5-10.2s6.1-9.4,8.8-13.7c2.7-4.3,2.9-6.4,0.6-6.3s-5.6,0.2-10,0.3c-4.4,0.1-7.7,0.2-9.9,0.3
		c-2.2,0.2-4,0.6-5.4,1.2c-1.4,0.7-2.9,0.6-4.4-0.1s-2.4-1.4-2.6-1.8c-0.2-0.5-0.3-0.8-0.1-1c0.2-0.2,1-0.8,2.3-1.8s2.7-1.9,4.1-2.6
		s6.3-1,14.7-0.9c8.3,0.1,13.4,0.2,15.1,0.3c1.7,0.1,3.6,0.2,5.5,0.3C323.4,364.2,326.7,364.4,331.2,364.8z"/>
	<path id="XMLID_132_" class="st1" d="M354.8,346.7c2.3-0.5,4.2-0.2,5.6,0.9s1.2,3-0.9,5.8s-4.9,8.6-8.5,17.5s-6,15.2-7.1,19
		c-1.1,3.7-1.2,5.1-0.3,4.1c0.9-1,1.8-1.9,2.7-2.7c0.9-0.8,1.9-1.6,3-2.5s2.1-1.5,3-1.9s1.9-0.7,3-0.9c1.1-0.2,2.1,0,3,0.5
		s1.6,1.2,2.1,1.9c0.5,0.8,0.8,2.2,0.9,4.3c0.1,2.1,0,4.2-0.4,6.5s-0.4,4-0.1,5.1s0.9,2.2,1.7,3c0.8,0.9,2.2,1.1,4.2,0.6
		s3.5-1.3,4.6-2.4c1.1-1.2,1.4-1.1,0.8,0.2c-0.6,1.3-1.5,2.5-2.6,3.5c-1.2,1-2.6,1.9-4.3,2.7c-1.7,0.8-3,1.2-4.1,1.2
		s-2.1-0.4-3.2-1.3s-1.8-2.2-2.2-3.9c-0.4-1.7-0.5-4.3-0.3-7.9s0-5.7-0.8-6.4c-0.7-0.7-2.6,0.1-5.6,2.3c-3,2.2-5.3,4.8-6.8,7.6
		c-1.5,2.8-2.7,5.2-3.4,7.2c-0.7,2-1.7,2.8-2.8,2.5c-1.1-0.3-2-0.8-2.6-1.5s-0.9-1.7-0.9-3s1.3-6.3,4-15.1s5.6-17.3,9-25.6
		c3.4-8.3,5.4-13.4,5.9-15.2C352.2,350.9,353.2,348.9,354.8,346.7z"/>
	<path id="XMLID_134_" class="st1" d="M386.5,384.1c2.9-0.2,4.7,0.3,5.4,1.5c0.6,1.2,0.9,2.7,0.9,4.6s-0.9,3.5-2.6,4.7
		c-1.7,1.3-4,2.6-6.8,3.9c-0.8,0.3-1.5,0.5-2.1,0.5s-1.2,0-1.6-0.1s-0.7-0.1-1-0.2c-0.2-0.1-0.4,0-0.4,0.1c-0.8,1.3-1.2,2.5-1.2,3.8
		s0.4,2.5,1.3,3.5c0.9,1.1,1.8,1.7,2.9,1.9s2.2,0.1,3.3-0.1c1.1-0.2,3.3-1,6.3-2.3c3.1-1.3,5.2-2.5,6.4-3.6c1.2-1.1,2.4-2.2,3.5-3.3
		c1.1-1.1,1.3-1.1,0.5,0s-1.8,2.3-2.9,3.8s-2.6,3-4.4,4.4c-1.7,1.5-3.2,2.6-4.3,3.4c-1.1,0.8-2.6,1.5-4.4,2.1s-3.6,0.8-5.4,0.6
		c-1.8-0.2-3.1-0.6-4-1.2s-1.7-1.3-2.4-2s-1.4-1.7-1.8-2.8c-0.5-1.1-0.7-2.5-0.8-4.4c0-1.9,0.4-3.9,1.3-6.1s1.9-4,3.1-5.5
		c1.1-1.5,2.7-2.9,4.6-4.4C381.8,385.6,384,384.6,386.5,384.1z M386.6,390c-0.3-0.3-1.1-0.2-2.3,0.5c-1.2,0.6-2.1,1.3-2.6,2.1
		c-0.5,0.8-0.6,1.3-0.3,1.7c0.4,0.4,1.1,0.2,2.2-0.4s2.1-1.3,2.7-1.9C387.1,391.3,387.1,390.6,386.6,390z"/>
	<path id="XMLID_137_" class="st1" d="M406.9,385.7c1.7-2.3,3-3.4,4.1-3.3s1.7,0.5,2,1.3s0.6,1.5,0.8,2.2c0.2,0.7,0.4,1.7,0.7,3
		c0.2,1.3-0.7,3.8-2.7,7.5s-1.9,4.2,0.4,1.4c2.3-2.8,4.2-4.5,5.9-5.2c1.6-0.7,3.1-0.7,4.5,0s2.2,1.5,2.6,2.5s0.6,2.1,0.7,3.3
		c0.1,1.2,0.3,1.9,0.5,2.1c0.3,0.2,1.7-1.1,4.4-4c2.6-2.8,5-4.7,7-5.6s3.7-1.1,5-0.6s2.5,1.6,3.5,3.1s2.3,3.8,3.9,6.7
		c1.6,2.9,3.2,5.1,4.9,6.5c1.7,1.4,3.2,2.2,4.5,2.5s3.6-0.5,6.9-2.1c3.3-1.7,4-2,2.2-1c-1.8,1.1-3.6,2-5.4,2.7
		c-1.8,0.8-3.1,1.4-3.9,1.8c-0.7,0.4-1.8,0.8-3.1,1.1c-1.3,0.3-2.5,0.2-3.7-0.4c-1.1-0.6-2.2-1.3-3.3-2.2c-1.1-0.9-2.4-2.4-4-4.5
		s-2.7-3.6-3.4-4.6c-0.7-1-1.5-1.4-2.5-1.3s-2.1,0.7-3.2,1.7c-1.1,0.9-2.6,2.3-4.5,4.1c-1.9,1.8-3.4,3.6-4.5,5.5s-1.7,3.2-1.9,3.7
		c-0.2,0.5-0.8,1.3-1.7,2.3c-0.9,1-1.8,1.4-2.6,1.1c-0.8-0.2-1.4-0.7-1.8-1.3c-0.4-0.6-0.4-1.8-0.1-3.4s0.6-3.2,0.8-4.7
		c0.2-1.5,0.4-3.1,0.5-4.9s-0.4-2.7-1.5-2.8c-1.1-0.1-3,1.1-5.7,3.8c-2.7,2.6-4.3,4.6-5,6.1s-1.3,2.5-1.7,3.1
		c-0.4,0.6-0.9,1.1-1.3,1.5c-0.5,0.4-1.4,0.3-2.8-0.1s-2.2-1-2.3-1.7c-0.2-0.7,0.2-2.1,1-4.3c0.8-2.2,1.9-5.5,3.3-10
		s2.3-7.3,2.8-8.5s-3.1,1-11,6.5c-7.8,5.5-10,6.8-6.6,4c3.5-2.8,6.8-5.4,10.2-7.7C402.7,390.3,405.2,388,406.9,385.7z"/>
	<path id="XMLID_139_" class="st1" d="M473.3,384.1c2.9-0.2,4.7,0.3,5.4,1.5c0.6,1.2,0.9,2.7,0.9,4.6s-0.9,3.5-2.6,4.7
		c-1.7,1.3-4,2.6-6.8,3.9c-0.8,0.3-1.5,0.5-2.1,0.5s-1.2,0-1.6-0.1s-0.7-0.1-1-0.2c-0.2-0.1-0.4,0-0.4,0.1c-0.8,1.3-1.2,2.5-1.2,3.8
		s0.4,2.5,1.3,3.5c0.9,1.1,1.8,1.7,2.9,1.9s2.2,0.1,3.3-0.1c1.1-0.2,3.3-1,6.3-2.3c3.1-1.3,5.2-2.5,6.4-3.6c1.2-1.1,2.4-2.2,3.5-3.3
		c1.1-1.1,1.3-1.1,0.5,0s-1.8,2.3-2.9,3.8s-2.6,3-4.4,4.4c-1.7,1.5-3.2,2.6-4.3,3.4c-1.1,0.8-2.6,1.5-4.4,2.1s-3.6,0.8-5.4,0.6
		c-1.8-0.2-3.1-0.6-4-1.2s-1.7-1.3-2.4-2s-1.4-1.7-1.8-2.8c-0.5-1.1-0.7-2.5-0.8-4.4c0-1.9,0.4-3.9,1.3-6.1s1.9-4,3.1-5.5
		c1.1-1.5,2.7-2.9,4.6-4.4C468.5,385.6,470.8,384.6,473.3,384.1z M473.4,390c-0.3-0.3-1.1-0.2-2.3,0.5c-1.2,0.6-2.1,1.3-2.6,2.1
		c-0.5,0.8-0.6,1.3-0.3,1.7c0.4,0.4,1.1,0.2,2.2-0.4s2.1-1.3,2.7-1.9C473.8,391.3,473.9,390.6,473.4,390z"/>
</g>
</svg>
