<?xml version="1.0" encoding="utf-8"?>
<!-- Generator: Adobe Illustrator 19.0.0, SVG Export Plug-In . SVG Version: 6.00 Build 0)  -->
<svg version="1.1" id="Layer_1" xmlns="http://www.w3.org/2000/svg" xmlns:xlink="http://www.w3.org/1999/xlink" x="0px" y="0px"
	 viewBox="9 -9 768 768" style="enable-background:new 9 -9 768 768;" xml:space="preserve">
<metadata><?xpacket begin="﻿" id="W5M0MpCehiHzreSzNTczkc9d"?>
<x:xmpmeta xmlns:x="adobe:ns:meta/" x:xmptk="Adobe XMP Core 5.6-c067 79.157747, 2015/03/30-23:40:42        ">
   <rdf:RDF xmlns:rdf="http://www.w3.org/1999/02/22-rdf-syntax-ns#">
      <rdf:Description rdf:about=""/>
   </rdf:RDF>
</x:xmpmeta>
                                                                                                    
                                                                                                    
                                                                                                    
                                                                                                    
                                                                                                    
                                                                                                    
                                                                                                    
                                                                                                    
                                                                                                    
                                                                                                    
                                                                                                    
                                                                                                    
                                                                                                    
                                                                                                    
                                                                                                    
                                                                                                    
                                                                                                    
                                                                                                    
                                                                                                    
                                                                                                    
                           
<?xpacket end="w"?></metadata>
<style type="text/css">
	.st0{fill:#5d2d7a;}
	.st1{fill:#FFFFFF;}
</style>
<circle id="XMLID_33_" class="st0" cx="60.2" cy="952.5" r="25.5"/>
<path id="XMLID_53_" class="st0" d="M674.8,376.7C663,313.6,610,246.4,535,246.4c-2.3,0-4.6,0.1-6.9,0.2
	c-23.9-65-94.8-94.8-154.3-94.8c-8.5,0-17,0.6-25.2,1.7c-38.9,5.4-74.8,22.4-103.9,49.3c-14.6,13.5-46.7,47.7-52.5,90.8
	c-7.1,2.4-14,5.5-20.6,9.2c-30.4,17.1-53.1,47.3-60.7,80.5c-6.8,30.1-1,60.4,16.5,85.3c17.8,25.4,47.2,40.5,78.7,40.5
	c13.3,0,26.1-2.7,37.7-7.8c3.2,26.9,16.5,51.7,37.9,68.4c18.2,14.2,41,22,64,22c24,0,46.8-8.5,64.3-24c1.6-1.4,3.2-3,4.8-4.6
	c19.4,22.6,48.7,35.1,83.7,35.1l0,0c30.9,0,64.1-9.7,90.9-26.6C654.6,530.9,688.9,452.5,674.8,376.7z"/>
<circle id="XMLID_90_" class="st0" cx="552" cy="220.8" r="6.6"/>
<circle id="XMLID_34_" class="st0" cx="611.8" cy="187.7" r="12.9"/>
<g>
	<path class="st1" d="M209,356c0.2-0.8,0.2-1.4-0.1-1.8c-0.2-0.2-0.3-0.4-0.4-0.6c-0.1-0.2-0.2-0.3-0.2-0.4c-0.1-0.3,0-0.9,0.3-1.8
		c2-7.2,7.3-11.5,15.8-12.6c4.3-0.6,8.2-1.2,11.8-1.7c3.6-0.5,6.9-1,9.8-1.4c2.2-0.3,4.6-0.5,6.9-0.7c2.4-0.1,4.9-0.2,7.4-0.1
		c5.1,0.1,10.3,0.1,15.4,0c0.8,0,1.6,0,2.4-0.1c0.8-0.1,1.6-0.2,2.4-0.3c1.7-0.3,3.6,0,5.7,0.7l6.2,5.1c0.7,1,0.9,1.4,0.4,1.2
		c-0.5-0.2,0.1,0.9,1.8,3.3l-1.2,0.9c0,0-0.1,0.1-0.2,0.1c0.3,1.3,0.6,1.8,0.8,1.6c0.3-0.2,0.2,0.4-0.2,1.8c-0.4,1.1-1,2-1.9,2.9
		c-0.9,0.9-1.7,1.6-2.5,2.3l-2,2.3c-0.9,0-1.6,0-2.1,0c-0.5,0-0.9,0-1.1,0.1c-0.4,0-1.1,0.3-2,0.9c-0.5,0.3-0.9,0.5-1.1,0.7
		c-0.2,0.1-0.2,0.2-0.1,0.1c0.2-0.1-0.1-0.2-0.9-0.2l-17.3-0.6l-2.2,30.7l-3,22.9c-1.3,9.8-3.2,16.8-5.7,21.2
		c-0.4,0.7-0.8,1.3-1.2,1.7c-0.7,0.8-1,1-0.9,0.6c0.1-0.2,0.1-0.2,0.1-0.1c0,0.2-0.2,0.5-0.4,0.9c-1.8-0.1-3.2-1.1-4.3-3.1
		c-1.1-2.1-2.1-4.5-2.8-7.2c-0.7-2.7-1.2-5.3-1.6-7.9l-0.7-5.4l-1.5-54.1h-8.9c-2.1,0-5,0.1-8.5,0.5c-0.4,0-0.6,0.1-0.8,0.1
		c-0.2,0-0.3,0.1-0.5,0.1c-0.1,0-0.3,0-0.4,0.1c-0.1,0-0.3,0-0.6,0c-3.2,0.4-5.4,0-6.7-1.1l-2-1.6c-0.6-0.3-0.7-0.5-0.6-0.4
		C210.4,355.8,210,355.9,209,356z M289,353.2C289,353.2,289,353.2,289,353.2c0.1,0.1,0.1,0.1,0.1,0.1L289,353.2z"/>
	<path class="st1" d="M299.7,344c0-0.4,0-0.7-0.1-0.9c-0.1-0.2-0.1-0.5-0.1-0.9c0-0.3,0-0.5,0-0.7c0-0.2,0-0.4,0-0.5
		c0.1-3-0.2-6.4-0.7-10.2c-0.6-3.9-0.7-6.4-0.5-7.4l1.1-4.2l0.3-0.5l0.2-0.7c0.1-0.1,0.1-0.2,0.1-0.2l1.2-1.2c0,0,0-0.1,0.1-0.1
		l0.1-0.1c0.4-0.4,0.5-0.6,0.2-0.6c-0.2,0-0.1,0,0.1-0.1c0.2-0.1,0.6-0.3,1.2-0.5l3.4-0.8c0.6-0.2,1-0.4,1.3-0.5
		c0.3-0.1,0.6-0.2,0.7-0.3c0.2-0.1,0.9,0,2.1,0.3c3.2,1,4.9,1.5,5.1,1.4c0.2,0,1.4,1.2,3.8,3.7l0.5,0.4l0.2,0.2
		c1.8,1.8,2.4,5,1.8,9.6c-0.5,4.5-0.8,8-0.9,10.4l-1.2,17.4c-0.1,1.1-0.2,2.2-0.3,3.2c-0.1,1-0.3,1.9-0.4,2.7
		c-0.2,0.8-0.3,1.7-0.4,2.7c-0.1,1-0.2,2.1-0.3,3.3c-0.2,2.6-0.5,4.4-0.9,5.3c0.9-0.2,2.2-1.4,4.1-3.6c0.9-1.1,1.8-2,2.6-2.8
		c0.8-0.8,1.4-1.4,2-1.9l1.7-1.4c0.7-0.6,1.7-1.3,3-1.9l2.8-1.4c3.5-1.1,6.4-1.6,8.9-1.5c2.6,0.1,5.4,1.1,8.5,3.2
		c2,1.4,3.8,3.4,5.6,6.1c1,1.6,1.8,3.3,2.4,5.3c0.6,1.9,1.2,3.7,1.6,5.4c0,0.3,0.1,0.6,0.2,0.8c0,0.1,0.1,0.2,0.1,0.2
		c0,0,0.1,0.4,0.2,1.2c0.2,1.1,0.3,2.2,0.3,3.4s0,2.4,0,3.5c0,1.2,0,2.4-0.1,3.5c0,1.2,0,2.3,0,3.4c0,0.4,0,0.6,0,0.7
		c0,0.1,0,0,0.1-0.2c0-0.2,0.1-0.2,0.1-0.1s0,0.4,0,0.9l-3.3,23c-0.1,0.3-0.1,0.7-0.2,1.2c0,0.5-0.1,1.1-0.1,1.8
		c-0.1,1.4-0.2,2.4-0.4,3c-0.3,0.8-0.5,1.3-0.7,1.3c-0.2,0-0.3,0.3-0.5,0.9c-0.2,0.6-0.3,0.9-0.2,1.1c0.1,0.2-0.1,0.6-0.5,1.1
		l-2.5,2.4l-0.2,0.2l-0.4,0.5c-1.4,2-2.4,2.6-2.8,1.8c-0.4-0.8-0.8-0.4-1.2,1.2c-1.3-0.1-1.9-0.3-1.8-0.6c0.1-0.3-0.2-0.6-0.9-0.7
		c-0.7-0.2-0.8-0.2-0.5-0.2c0.5,0.1,0.5,0.2-0.1,0.3l-1.4-0.2c-1.2-0.2-2-0.1-2.4,0.2c-0.4,0.3-1.1-0.4-2.3-2
		c-0.2-0.3-0.3-0.5-0.4-0.5c0-0.1,0,0,0.1,0.1c0.1,0.1,0.1,0.1,0.1,0.1c-0.1-0.1-0.2-0.3-0.4-0.5c-0.3-0.3-0.5-0.4-0.5-0.5
		c-0.1-0.1-0.1,0,0.1,0.1c0.1,0.1,0.1,0.1,0.1,0.1c-0.1-0.1-0.2-0.2-0.5-0.4c-1.6-1.2-2.5-2.7-2.7-4.6c-0.2-1.3-0.1-2.3,0.3-3
		c-0.3-0.1-0.4-0.2-0.2-0.2c0.2,0,0.1,0-0.1,0c-0.2,0-0.6,0.1-1.1,0.2c0-0.8,0-1.4-0.1-1.7s-0.1-0.8-0.1-1.3l1.1-8.6
		c0.7-4.6,1.6-9.8,2.8-15.7c1.3-6,1.7-10.8,1.4-14.2c-0.1-1.1-0.1-1.9,0.1-2.3c0.2-0.4,0-1.1-0.6-2c-0.9,0.1-1.6,0.3-2.1,0.6
		c-0.5,0.3-1,0.6-1.7,1c-1.8,1.2-3.4,2.5-4.7,3.8c-1.3,1.4-2.7,2.8-4.1,4.2l-5,6.2c-0.5,0.7-0.8,1.3-1.1,1.8
		c-0.3,0.5-0.7,1.1-1.1,1.8c-0.2,0.4-0.4,0.6-0.6,0.9c-0.2,0.2-0.3,0.5-0.5,0.7c-1.5,2.7-2.8,5.8-4,9.3c-0.6,1.8-1.1,3.5-1.4,5.1
		s-0.5,3.1-0.5,4.6c0,3.9-0.4,7.2-1.2,9.9c-0.2,0.7-0.3,1.3-0.4,1.8c-0.1,0.5-0.2,1-0.4,1.5s-0.3,0.9-0.5,1.4
		c-0.2,0.5-0.5,1-0.9,1.5l-0.1,0.1c0,0,0,0.1-0.1,0.2c-0.9-0.2-1.7-0.7-2.2-1.3l-3.8-6.5c-1.3-2.8-2.2-7-2.6-12.6l-0.9-13.9
		l0.5-19.5c0.5-4.1,0.7-8.2,0.6-12.3c-0.1-4.1-0.1-8.2-0.1-12.1v-6.7c0-0.8,0-1.5,0-2c0-0.6,0-1.1-0.1-1.5c0-0.3-0.1-0.6-0.1-0.8
		c0-0.2,0-0.4,0-0.6c0-0.1,0-0.2,0.1-0.4c0-0.1,0-0.2,0-0.3C299.7,344.2,299.7,344.1,299.7,344z M299.6,318.3c0-0.2,0-0.2,0.1-0.1
		L299.6,318.3z M310.8,313.7C310.8,313.8,310.8,313.8,310.8,313.7C310.7,313.7,310.7,313.7,310.8,313.7l-0.1-0.1L310.8,313.7z
		 M319.7,320.4c0,0,0,0.1,0.1,0.1l0.1,0.1L319.7,320.4z M338,430.8c0,0,0,0.1,0.1,0.1l0.1,0.1L338,430.8z"/>
	<path class="st1" d="M390.9,435.7c-4.3,0-8.6-1.8-12.9-5.3c-4.2-3.6-7.3-7.4-9.2-11.3c-1.3-2.7-2.4-3.9-3.5-3.6
		c-1.1,0.3-1.8-0.2-2-1.5l0.1-0.9c0.2-2.3,0.6-3.3,1.2-3.1c0.6,0.2,0.7-0.7,0.3-2.8l-0.5-9.6c0-1.4,0.3-3.1,0.8-5
		c0.3-1,0.5-1.9,0.7-2.7c0.2-0.8,0.4-1.6,0.6-2.2c1.5-4.6,3.9-8.9,7.3-12.7c1.7-2,3.4-3.8,5.2-5.5c1.8-1.7,3.6-3.3,5.4-4.8l2.4-1.6
		c1-0.7,2.1-1.4,3.3-2.1c1.2-0.7,2.5-1.3,3.6-1.6c1.7-0.4,3.4-0.8,5.3-1.1c1.9-0.3,3.8-0.5,5.9-0.6c4.1-0.2,7.6,0.7,10.3,2.7
		l2.5,1.9c3,2.4,5,5.8,5.8,10.1c0.8,4.3,0.7,8.2-0.5,11.8c-1.1,3.5-2.7,6.4-4.8,8.5c-0.4,0.4-0.8,0.8-1.1,1.2
		c-0.3,0.4-0.6,0.7-0.8,0.9c-1.7,2.2-4,4.3-6.8,6l-7.8,4.7l-8.4,4.5c-0.8,0.5-2.3,1.2-4.4,2.3c-2,1-3.4,1.5-4.2,1.6
		c0.7,3.1,2.9,5.4,6.4,7c5.5,2.5,11,2.1,16.4-1.4c5.4-3.5,8.5-6.7,9.3-9.6c1,0,1.5,0,1.5,0s0.3,0.3,0.7,0.9c0.6,1.1,0.7,3.4,0.1,7
		c-0.5,3.5-2.1,6.6-4.7,9.2c-1.5,1.5-3.5,2.9-6,4.2c-2.5,1.3-4.7,2.2-6.7,2.8c-0.7,0.2-1.4,0.4-2.3,0.6c-0.9,0.2-1.8,0.4-2.8,0.6
		c-1,0.2-2,0.3-3,0.4C392.6,435.7,391.7,435.7,390.9,435.7z M401.1,386.8c0-0.8,0.1-1.2,0.2-1.1c0,0.1,0.3-0.1,0.8-0.6l4.1-3.6
		c0.8-0.7,1.2-2.9,1.2-6.7c-2.5-0.6-4.8-0.5-6.8,0.3l-4,1.8c-0.4,0.3-1,0.6-1.6,1.1c-0.6,0.4-1.3,1-2.1,1.6c-0.1,0-0.4,0.3-0.9,0.8
		l-5,5.3c-2.8,3.3-4.4,5.6-4.7,6.9c-0.2,0.6-0.4,1.2-0.6,2c-0.3,0.8-0.6,1.6-1.1,2.6c1-0.1,2.4-0.6,4-1.4c0.8-0.4,1.6-0.8,2.3-1.2
		s1.4-0.7,2-1c0.6-0.3,1.4-0.8,2.5-1.4c1-0.6,2.3-1.4,3.8-2.3C398.4,387.9,400.3,386.9,401.1,386.8z"/>
	<path class="st1" d="M426.6,353.5c0-1.9,0.5-3.5,1.4-4.7l2.7-2.8c0.4-0.4,0.7-0.8,0.9-1.2c0.3-0.5,0.6-0.8,1.1-1.1
		c0,0,0.3-0.1,0.8-0.2c1.1-0.1,1.4-0.1,0.9,0.2c-0.2,0.1-0.2,0.1,0-0.1c0.2-0.1,0.5-0.4,1.1-0.7c0.5-0.3,0.7-0.5,0.6-0.5
		c-0.1-0.1,0.3-0.2,1.1-0.5c0.2,0.2,0.4,0.3,0.5,0.4c0.1,0.1,0.1,0.2,0.2,0.3c0,0.1,0.1,0.2,0.1,0.3c0,0.1,0.1,0.2,0.2,0.4
		c0.8-0.6,1.5-0.9,2-1.1c0.5-0.2,1.4,0.2,2.6,0.9c1,0.7,1.4,1.1,1.1,1.1c-0.3,0-0.2,0.2,0.4,0.7c0.5,0.5,0.7,0.6,0.6,0.2
		c-0.1-0.5,0.3-0.1,1.1,1.1l1.4,2.2c2.4,2.8,3.1,4.8,2,6.1c-1.1,1.3,0.6,1.2,5-0.4c2.8-1,5.6-1.6,8.5-1.7c2.9-0.2,5.7,0.5,8.3,2
		c2.3,1.3,3.6,2.5,3.8,3.5c0.4,1.1,1.1,2.1,2,3.1l1.2,2c0.6,1.7,0.9,3.3,0.9,4.8h1.3c0.2-0.5,0.9-1.3,2.2-2.2l3-2.4
		c0.1-0.1,0.2-0.1,0.3-0.2l7.1-4.9c2.8-1.5,5.6-2.2,8.3-2.1c3.6,0.2,6.8,1.4,9.6,3.5c2.8,2.2,4.7,4.3,5.7,6.4c0.3,0.8,0.6,1.4,0.7,2
		c0.2,0.5,0.3,0.9,0.3,1.2c0,0.2,0,0.3,0,0.4c0,0.1,0,0.2,0,0.2c0,0.1,0,0.2,0,0.3c0,0.1,0,0.4,0.1,0.7c0.1,1.7,0,4.6-0.4,8.7
		c-0.4,4.3-0.7,7.1-0.9,8.6c-0.9,6.3-2.1,12.6-3.5,18.8c-1.5,6.2-3.2,12.4-5.3,18.7l-1.9,5.7c-0.7,2.2-2.1,3.3-4.3,3.3
		c-0.2-0.6-0.4-1.1-0.6-1.4c-0.2-0.3-0.5-0.9-0.8-1.6c-1.9-4.5-2.4-9.8-1.7-16.1c0.8-6.2,1.4-11.6,1.6-16.3l-0.3-17.7l-1.6,1.1
		c-0.9,0.6-1.8,1.2-2.5,2c-0.8,0.7-1.6,1.4-2.3,2.2c-0.8,0.7-1.5,1.4-2.3,2.2c-0.8,0.7-1.6,1.4-2.4,2c0,0-0.1,0.1-0.3,0.2l-1.2,0.9
		c-3.4,3-5.3,4.5-5.8,4.7s-1,2-1.7,5.7c-0.4,1.7-0.6,3.1-0.9,4.4c-0.2,1.3-0.5,2.7-0.9,4.1l-4.6,15.8c-0.5,1.3-1,2.5-1.6,3.7
		c-0.6,1.2-1.6,1.8-3,1.9c-0.2-0.7-0.5-1.6-0.9-2.5c-0.4-0.9-0.9-1.9-1.5-3c-1.2-2.2-1.9-5.4-2-9.7l-0.1-3.3l-0.2-4.4
		c0-0.5-0.1-0.9-0.1-1.2c0-0.4,0-0.6,0-0.8c0-3.2-0.3-8.3-0.9-15.1c-0.6-6.9-1.4-11.7-2.7-14.3c-0.4,0.2-0.7,0.4-1,0.5
		c-0.3,0.1-0.5,0.3-0.7,0.4l-0.8,0.5c-1.3,0.8-2.4,1.8-3.3,2.8c-0.9,1-1.9,2.1-2.8,3.1c-0.5,0.5-0.9,0.9-1.2,1.3
		c-0.3,0.4-0.7,0.8-1.2,1.2c-1.6,1.6-2.6,2.4-3.1,2.6c-0.4,0.1-0.8,1.2-1.1,3.4l-1.6,8.6l-1.5,6.9c-0.4,1.7-0.7,3.3-1.2,5
		c-0.4,1.7-0.8,3.4-1.3,5.2c-0.4,1.8-0.9,3.5-1.3,5.1s-0.9,3.2-1.4,4.6c-0.9,2.9-1.8,4.6-2.7,5.1c-1-0.2-1.7-1-2.2-2.2l-1.3-3.1
		c-0.4-0.9-0.7-1.9-1.1-3c-0.3-1.1-0.6-2.3-0.8-3.7l-1.5-46.4c0-0.1,0.1-0.5,0.1-1.1c0-0.1,0-0.2,0-0.4c0-0.2,0-0.5,0.1-0.8l0.4-7.7
		c0-0.8,0-1.8,0-2.8s-0.1-2.1-0.2-3.1c-0.1-1.3-0.2-2.4-0.4-3.3C426.6,356,426.6,354.8,426.6,353.5z M445.2,347.8
		C445.2,347.8,445.2,347.8,445.2,347.8l0.1,0.1L445.2,347.8z M510.6,360.2C510.6,360.3,510.6,360.3,510.6,360.2
		c0.1,0.1,0.1,0.1,0.1,0.1L510.6,360.2z"/>
	<path class="st1" d="M544.6,435.7c-4.3,0-8.6-1.8-12.9-5.3c-4.2-3.6-7.3-7.4-9.2-11.3c-1.3-2.7-2.4-3.9-3.5-3.6
		c-1.1,0.3-1.8-0.2-2-1.5l0.1-0.9c0.2-2.3,0.6-3.3,1.2-3.1s0.6-0.7,0.3-2.8l-0.5-9.6c0-1.4,0.3-3.1,0.8-5c0.3-1,0.5-1.9,0.7-2.7
		c0.2-0.8,0.4-1.6,0.6-2.2c1.5-4.6,3.9-8.9,7.3-12.7c1.7-2,3.4-3.8,5.2-5.5c1.8-1.7,3.6-3.3,5.4-4.8l2.4-1.6c1-0.7,2.1-1.4,3.3-2.1
		c1.2-0.7,2.5-1.3,3.6-1.6c1.7-0.4,3.4-0.8,5.3-1.1c1.9-0.3,3.8-0.5,5.8-0.6c4.1-0.2,7.6,0.7,10.3,2.7l2.5,1.9c3,2.4,5,5.8,5.8,10.1
		c0.8,4.3,0.7,8.2-0.5,11.8c-1.1,3.5-2.7,6.4-4.8,8.5c-0.4,0.4-0.8,0.8-1.1,1.2c-0.3,0.4-0.6,0.7-0.8,0.9c-1.7,2.2-4,4.3-6.8,6
		l-7.8,4.7l-8.4,4.5c-0.8,0.5-2.3,1.2-4.4,2.3c-2,1-3.4,1.5-4.2,1.6c0.7,3.1,2.9,5.4,6.4,7c5.5,2.5,11,2.1,16.4-1.4
		c5.4-3.5,8.5-6.7,9.3-9.6c1,0,1.5,0,1.5,0c0,0,0.3,0.3,0.7,0.9c0.6,1.1,0.6,3.4,0.1,7c-0.5,3.5-2.1,6.6-4.7,9.2
		c-1.5,1.5-3.5,2.9-6,4.2c-2.5,1.3-4.7,2.2-6.7,2.8c-0.7,0.2-1.4,0.4-2.3,0.6c-0.9,0.2-1.8,0.4-2.8,0.6c-1,0.2-2,0.3-3,0.4
		C546.3,435.7,545.4,435.7,544.6,435.7z M554.8,386.8c0-0.8,0.1-1.2,0.2-1.1c0,0.1,0.3-0.1,0.8-0.6l4.1-3.6c0.8-0.7,1.2-2.9,1.2-6.7
		c-2.5-0.6-4.8-0.5-6.8,0.3l-4,1.8c-0.4,0.3-1,0.6-1.6,1.1c-0.6,0.4-1.3,1-2.1,1.6c-0.1,0-0.4,0.3-0.9,0.8l-5,5.3
		c-2.8,3.3-4.4,5.6-4.7,6.9c-0.2,0.6-0.4,1.2-0.7,2c-0.3,0.8-0.6,1.6-1.1,2.6c1-0.1,2.4-0.6,4-1.4c0.8-0.4,1.6-0.8,2.3-1.2
		s1.4-0.7,2-1c0.6-0.3,1.4-0.8,2.5-1.4c1-0.6,2.3-1.4,3.8-2.3C552.1,387.9,554,386.9,554.8,386.8z"/>
</g>
</svg>
