<?xml version="1.0" encoding="utf-8"?>
<!-- Generator: Adobe Illustrator 19.0.0, SVG Export Plug-In . SVG Version: 6.00 Build 0)  -->
<svg version="1.1" id="Layer_1" xmlns="http://www.w3.org/2000/svg" xmlns:xlink="http://www.w3.org/1999/xlink" x="0px" y="0px"
	 viewBox="9 -9 768 768" style="enable-background:new 9 -9 768 768;" xml:space="preserve">
<metadata><?xpacket begin="﻿" id="W5M0MpCehiHzreSzNTczkc9d"?>
<x:xmpmeta xmlns:x="adobe:ns:meta/" x:xmptk="Adobe XMP Core 5.6-c067 79.157747, 2015/03/30-23:40:42        ">
   <rdf:RDF xmlns:rdf="http://www.w3.org/1999/02/22-rdf-syntax-ns#">
      <rdf:Description rdf:about=""/>
   </rdf:RDF>
</x:xmpmeta>
                                                                                                    
                                                                                                    
                                                                                                    
                                                                                                    
                                                                                                    
                                                                                                    
                                                                                                    
                                                                                                    
                                                                                                    
                                                                                                    
                                                                                                    
                                                                                                    
                                                                                                    
                                                                                                    
                                                                                                    
                                                                                                    
                                                                                                    
                                                                                                    
                                                                                                    
                                                                                                    
                           
<?xpacket end="w"?></metadata>
<style type="text/css">
	.st0{fill:#7F467A;}
	.st1{fill:#FFFFFF;}
</style>
<circle id="XMLID_101_" class="st0" cx="643.9" cy="536.3" r="12.5"/>
<circle id="XMLID_95_" class="st0" cx="151.2" cy="583" r="32.8"/>
<circle id="XMLID_93_" class="st0" cx="547" cy="568.2" r="25.5"/>
<g id="XMLID_29_">
	<g id="XMLID_59_">
		<path id="XMLID_63_" class="st0" d="M690.5,317.2c-19.9-33-59.5-56.1-96.2-56.1c-6.1,0-12.2,0.6-17.9,1.9
			c1.7-47.1-20.7-94.7-60.4-122.2c-22.9-15.8-51.9-24.6-81.7-24.6c-34.6,0-67.5,11.2-92.6,31.3c-10.9-7.2-23.3-12.8-36.6-16.5
			c-13.6-3.8-27.8-5.6-42.4-5.6c-71.8,0-136.9,44.4-158.2,107.9c-15.1,45-7.1,94.5,20.9,129.3c19.3,24,47.3,40.1,77.3,45
			c-16.7,36.8-13.7,79.8,10.4,109.9c15.4,19.2,39.4,30.7,64,30.7c13.6,0,26.5-3.5,37.7-9.9c20.6,33.9,56.3,55.3,94.6,55.3
			c4.7,0,9.5-0.3,14.2-1c37.8-5.1,68.6-31.3,80.6-65.6c9.1,4.2,19,6.5,29,6.5c9.9,0,19.6-2.2,28.8-6.4
			c22.3-10.2,37.2-31.8,40.3-55.3c4.4,0.6,8.9,1,13.5,1l0,0c16.4,0,31.8-4.1,44.6-11.9C707.8,432.2,721.1,367.7,690.5,317.2z"/>
	</g>
</g>
<g>
	<path class="st1" d="M202.5,361.9c-0.2-0.6-0.6-1.4-1.1-2.2s-1-1.5-1.4-2.1c-1.4-2-3.3-3.6-5.8-4.7c-1.2-0.6-2.3-1.1-3.3-1.6
		c-1-0.5-1.9-1-2.7-1.5c-1.7-1-3.4-2-5.1-3s-3.5-1.9-5.3-2.8s-3.4-1.9-5-3c-1.6-1.1-3.1-2.4-4.5-3.8c-0.4-0.4-0.7-0.6-1-0.9
		c-0.3-0.2-0.6-0.5-0.9-0.8c-2.9-2.5-4.7-5.7-5.5-9.5c-0.8-3.9-1-7.7-0.6-11.3c0-0.6,0.1-1,0.3-1.5l0.2-0.6l0.6-1.2
		c0-0.1,0-0.2,0.1-0.3c0.9-2.2,2-4.1,3.2-5.7c1.2-1.6,2.6-3.3,4.3-5.1l1-1.2c1.3-1.4,3-2.8,4.8-4.1c2-1.4,3.8-2.4,5.5-3l4.4-1.8
		c1-0.4,2.1-0.7,3.2-0.9c1.2-0.2,2.4-0.4,3.6-0.5c1.2-0.1,2.4-0.2,3.6-0.2c1.2,0,2.3,0,3.3,0.1c1,0.1,2.2,0.3,3.5,0.6
		c1.3,0.3,2.7,0.6,4.3,1.1c3.2,0.8,5.6,2,7,3.6c1.1,1.2,2.1,2.5,2.9,3.8c0.8,1.3,1.6,2.7,2.3,4.2c1.3,2.9,1.5,6,0.5,9.5
		c-0.4,1.3-0.6,2.3-0.6,3c0.1,0.6-0.5,0.9-1.7,1c0,1.8-0.3,3.2-0.8,4.4c-0.6,1.2-1.1,1.7-1.5,1.5c-0.4-0.2-0.8,0.2-1.2,1.1
		c-0.2-0.2-0.2-0.2-0.2-0.2c-0.6-0.6-1.4-0.8-2.5-0.7c-0.4-1.7-0.8-2.4-1.1-2.2c-0.3,0.1-0.6-0.4-0.8-1.4c-0.2-1-0.3-1.6-0.1-1.7
		c0.2-0.2-0.5-0.7-2.2-1.5c-1.4-0.6-2.1-0.9-2.2-0.9c-0.2,0-0.6-0.5-1.5-1.6c-1-1.3-2.2-1.7-3.8-1.1c-0.4,0.2-0.8,0.3-1.3,0.4
		c-0.5,0-1.1,0.1-1.8,0.1c-0.7,0-1.4,0-2.2,0.1c-0.8,0-1.6,0.2-2.4,0.4l-1,0.3c-0.1,0-0.3,0.2-0.8,0.5l-1.8,1.4l-1.7,1.5l-3,3.3
		c1.1,1.7,2.6,3.1,4.7,4.2c1,0.6,2,1.1,2.9,1.5c0.9,0.5,1.7,0.9,2.3,1.3c3.2,1.8,6.1,3.5,8.7,5c2.6,1.5,4.8,2.9,6.8,4.1
		c3.9,2.5,7.6,7.4,11,14.8l1.4,3.1c1.1,2.4,1.5,5.1,1.4,8.3c-0.1,1.6-0.3,3-0.7,4.3c-0.4,1.3-0.9,2.5-1.5,3.6
		c-0.6,1.1-1.3,2.2-2.2,3.2c-0.9,1-1.8,2-2.9,3.1c-1.1,1.1-2.4,1.9-3.8,2.5c-1.4,0.6-2.9,1.2-4.3,1.8c-1.8,0.7-4.3,1.2-7.5,1.7
		c-1.6,0.2-3,0.3-4.2,0.4s-2.4,0.1-3.3,0c-1.5-0.1-2.8-0.2-4-0.4c-1.2-0.1-2.3-0.3-3.2-0.4c-1.9-0.3-4.1-1.1-6.9-2.5
		c-1.1-0.5-1.9-0.9-2.3-1.3c-0.1,0-0.2-0.1-0.2-0.2l-5.2-5.6c-0.9-1.5-2.1-4.2-3.5-8.2c-1.5-4.1-1.1-6.1,0.9-6.1
		c1.2,0,3.2,1.3,5.9,4c2.8,2.6,6.6,4.4,11.5,5.4c2.5,0.5,5.7,0.4,9.6-0.4C198.3,365.7,201,364.2,202.5,361.9z"/>
	<path class="st1" d="M224.9,332.3c0-1.2-0.2-4.1-0.7-8.8c-0.5-4.6-0.7-8-0.6-10.3c0.1-1.8,0.5-3.7,1.1-5.7c0.6-2,1.5-3.6,2.7-4.7
		l0.8-0.6l0.2-0.2c0.1,0,0.2-0.1,0.2-0.1c0,0,0,0,0-0.1c0,0,0-0.1,0.1-0.1s0.2-0.1,0.5-0.3c0.4-0.2,0.6-0.3,0.6-0.3
		c0,0,0.2-0.1,0.6-0.3l2.1-1.9c0.7,0.2,1.1,0.4,1.2,0.5c0.1,0.1-0.1,0.1-0.6,0c-0.5-0.1-0.7-0.1-0.6,0s0.6,0.2,1.3,0.4
		c1.1-1.1,2.1-1.3,2.9-0.8c0.4,0.3,0.8,0.5,1.2,0.8c0.4,0.2,0.9,0.5,1.4,0.7c0.8,0.4,1.4,0.6,1.8,0.4c0.4-0.2,0.9,0.4,1.7,1.9l0.4,1
		v0.1c0,0,0,0.1,0.1,0.1c0.1,0.2,0.2,0.4,0.4,0.6c0.4,0.6,0.6,0.9,0.7,0.8c0.2,0,0.4,0.3,0.6,1c2-1,5.8-1.1,11.2-0.4
		c5.5,0.8,8.9,1.5,10.2,2c2.4,1.1,3.3,1.5,2.8,1.1c-0.2-0.2,0-0.1,0.5,0.2c0.6,0.3,1.5,0.9,2.8,1.8c1.3,0.9,2.5,1.8,3.8,2.7
		c1.2,0.9,2.2,2,3.1,3.3l0.5,0.9c0.1,0.3,0.2,0.4,0.2,0.4c0,0,0.1,0.2,0.3,0.4l3,5.4c1.3,2.9,2.2,4.7,2.7,5.5c0.4,0.7,1,2.9,1.7,6.7
		c0.4,2.3,0.6,4.5,0.7,6.4c0,1.9-0.1,3.7-0.4,5.4c-0.6,3.3-2,7.2-4.3,11.9c-1.1,2.3-2,3.9-2.5,4.8c-0.5,0.9-0.7,1.2-0.6,0.9
		c0.3-0.7-0.7,0.5-3,3.7l-0.4,0.9c-0.4,0.8-0.9,1.6-1.5,2.4c-0.6,0.8-1.3,1.5-2,2.2c-0.7,0.7-1.5,1.3-2.3,1.9s-1.6,1.1-2.3,1.5
		l-4,1.8c-0.7,0.3-1.3,0.5-1.8,0.7s-1.2,0.4-2.1,0.7c-3.6,1.1-7,0.9-10.1-0.4s-5.5-2.1-7-2.5c0,1.1-0.1,1.8-0.2,2.2
		c-0.1,0.4-0.2,1.1-0.2,2.2l-2.2,18.2c0,0.4-0.1,0.8-0.3,1.4c-0.1,0.6-0.3,1.4-0.5,2.3c-0.2,0.9-0.4,1.6-0.6,2.2
		c-0.2,0.6-0.3,1-0.4,1.2c-1.3-0.1-2.4-1-3.5-2.7c-0.4-0.6-0.8-1.1-1.2-1.7c-0.4-0.6-0.8-1.2-1.1-1.8c-1.9-3.5-3.1-8.8-3.4-15.7
		c-0.3-6.8-0.6-11.8-1.1-14.9l-1.6-20.2c-0.1-0.9-0.1-1.9-0.1-2.8c0.1-0.9,0-1.9-0.1-2.8c-0.1-0.6-0.3-1.4-0.4-2.4
		c-0.2-1-0.3-1.9-0.3-2.7l-0.3-3.2c0-0.5-0.4-1.5-1-3c-0.3-0.6-0.5-1-0.6-1.3c-0.1-0.3-0.1-0.3,0-0.3
		C224.8,333.5,224.9,333.1,224.9,332.3z M252.9,363.9c0.9,0,2-0.5,3.3-1.4c0.6-0.5,1.2-1,1.7-1.4c0.5-0.4,0.9-0.8,1.2-1.2l3-5
		l0.7-2.9c0.4-1.5,0.7-3,0.9-4.4c0.2-1.4,0.3-2.8,0.3-4.2c0-1.4-0.2-2.8-0.6-4.1c-0.4-1.4-0.9-2.8-1.7-4.2c-0.3-0.7-0.8-1.4-1.4-2.2
		c-0.5-0.7-1.2-1.3-2-1.7c-1.8-0.7-3.7-1.1-5.7-1.2c-2.1-0.1-3.7,0.8-5,2.5c-1.1,1.6-1.6,3-1.6,4.2l-0.7,21.6l2.5,3.2
		c1.1,1.2,1.8,1.9,2.1,2.1C250.4,363.8,251.3,363.9,252.9,363.9z"/>
	<path class="st1" d="M314.3,382.7c-4.3,0-8.6-1.8-12.9-5.3c-4.2-3.6-7.3-7.4-9.2-11.3c-1.3-2.7-2.4-3.9-3.5-3.6
		c-1.1,0.3-1.8-0.2-2-1.5l0.1-0.9c0.2-2.3,0.6-3.3,1.2-3.1c0.6,0.2,0.7-0.7,0.3-2.8l-0.5-9.6c0-1.4,0.3-3.1,0.8-5
		c0.3-1,0.5-1.9,0.7-2.7c0.2-0.8,0.4-1.6,0.6-2.2c1.5-4.6,3.9-8.9,7.3-12.7c1.7-2,3.4-3.8,5.2-5.5c1.8-1.7,3.6-3.3,5.4-4.8l2.4-1.6
		c1-0.7,2.1-1.4,3.3-2.1c1.2-0.7,2.5-1.3,3.6-1.6c1.7-0.4,3.4-0.8,5.3-1.1c1.9-0.3,3.8-0.5,5.9-0.6c4.1-0.2,7.6,0.7,10.3,2.7
		l2.5,1.9c3,2.4,5,5.8,5.8,10.1c0.8,4.3,0.7,8.2-0.5,11.8c-1.1,3.5-2.7,6.4-4.8,8.5c-0.4,0.4-0.8,0.8-1.1,1.2
		c-0.3,0.4-0.6,0.7-0.8,0.9c-1.7,2.2-4,4.3-6.8,6l-7.8,4.7l-8.4,4.5c-0.8,0.5-2.3,1.2-4.4,2.3c-2,1-3.4,1.5-4.2,1.6
		c0.7,3.1,2.9,5.4,6.4,7c5.5,2.5,11,2.1,16.4-1.4c5.4-3.5,8.5-6.7,9.3-9.6c1,0,1.5,0,1.5,0c0,0,0.3,0.3,0.7,0.9
		c0.6,1.1,0.7,3.4,0.1,7c-0.5,3.5-2.1,6.6-4.7,9.2c-1.5,1.5-3.5,2.9-6,4.2c-2.5,1.3-4.7,2.2-6.7,2.8c-0.7,0.2-1.4,0.4-2.3,0.6
		s-1.8,0.4-2.8,0.6c-1,0.2-2,0.3-3,0.4C316,382.7,315.1,382.7,314.3,382.7z M324.6,333.8c0-0.8,0.1-1.2,0.2-1.1
		c0,0.1,0.3-0.1,0.8-0.6l4.1-3.6c0.8-0.7,1.2-2.9,1.2-6.7c-2.5-0.6-4.8-0.5-6.8,0.3l-4,1.8c-0.4,0.3-1,0.6-1.6,1.1
		c-0.6,0.4-1.3,1-2.1,1.6c-0.1,0-0.4,0.3-0.9,0.8l-5,5.3c-2.8,3.3-4.4,5.6-4.7,6.9c-0.2,0.6-0.4,1.2-0.6,2c-0.3,0.8-0.6,1.6-1.1,2.6
		c1-0.1,2.4-0.6,4-1.4c0.8-0.4,1.6-0.8,2.3-1.2c0.7-0.4,1.4-0.7,2-1c0.6-0.3,1.4-0.8,2.5-1.4c1-0.6,2.3-1.4,3.8-2.3
		C321.8,334.9,323.7,333.9,324.6,333.8z"/>
	<path class="st1" d="M369.1,309.8c2-0.2,4.4-0.3,7.3-0.5c2.9-0.2,5.6-0.2,8.2,0c1.1,0.1,2.1,0.2,2.9,0.3c0.8,0.1,1.5,0.2,2,0.3
		c0.6,0.1,1.2,0.2,2,0.4c0.7,0.2,1.6,0.5,2.7,0.8c1.1,0.4,2.2,0.9,3.4,1.4c1.2,0.6,2.2,1.3,3,2.2c0,0.1,0.2,0.3,0.4,0.5
		c2.3,2.9,3.4,6.2,3.1,10l-1,2.9c-0.2,0.4-0.4,0.6-0.4,0.5c0-0.1-0.1,0.2-0.4,0.9l-2.4,8.7c-0.4,1.3-0.7,2.5-1.1,3.7
		c-0.4,1.1-0.7,2.3-0.9,3.6l-4.3,26.9c-0.1,0.7-0.1,1.4-0.1,2.1c0,0.7,0.1,1.5,0.1,2.2c0,0.8,0,1.5-0.1,2.2
		c-0.1,0.7-0.2,1.3-0.4,1.8c-0.9,2.3-2.1,3-3.4,2.1c-1.3-0.9-2.5-2-3.7-3.4c-0.3-0.3-0.5-0.6-0.7-0.7c-0.2-0.2-0.3-0.3-0.4-0.3
		c-0.1-0.1-0.2-0.6-0.5-1.5c-0.2-0.6-0.3-0.9-0.2-1s0-0.5-0.2-1.4c-0.7,0.6-1.1,1-1.1,1.1c0,0.2-0.5,0.6-1.7,1.5l-3.2,2.1
		c-1.3,0.7-2.5,1.3-3.7,1.8c-1.1,0.4-2.6,0.6-4.6,0.6c-1.5,0-2.9-0.2-4.4-0.5c-1.5-0.3-2.9-0.8-4.2-1.4c-1.4-0.6-2.6-1.3-3.9-2
		c-1.2-0.8-2.3-1.6-3.4-2.5l-3.1-3.1c-2.8-3.3-4.6-7.1-5.5-11.4c-0.3-1.7-0.3-3.6,0-5.7c0.5-2.6,1.7-5.1,3.5-7.4
		c0.9-1.2,1.9-2.2,2.8-3.2s1.9-1.8,2.9-2.4c2.6-1.9,5.2-3.2,7.7-4.1c2.4-0.9,5.1-1.6,8.2-2.3c2-0.4,3.7-0.8,5.1-1
		c1.4-0.2,2.6-0.3,3.6-0.4c1.9-0.1,4.7,0.2,8.5,1.1c0.1-0.3,0.2-0.6,0.2-1.1c0-0.5,0-0.9,0.1-1.4c0-0.5,0.1-1,0.1-1.4
		c0.1-0.5,0.2-1,0.4-1.4c-2,0-3.8,0-5.3,0s-2.9,0-4,0.1c-2.2,0-5.2,0.5-9,1.4c-0.1,0-0.3,0-0.5,0.1c-1.9,0.5-3.6,1.2-5.3,2
		c-0.5,0.5-1,0.8-1.4,0.8l-2.2,0.5c-0.4,0.1-0.6,0.1-0.7,0.2c-0.1,0.1,0,0.1,0.2,0.1h-0.7l-7.4-2.3c-0.2-0.1-0.5-0.5-0.8-1
		c-0.2-0.4-0.4-0.6-0.5-0.8c-0.1-0.2-0.2-0.3-0.3-0.3c-0.1-0.1-0.2-0.1-0.2-0.1c-0.1,0-0.1-0.1-0.3-0.1c-0.1-0.1-0.2-0.2-0.3-0.3
		c-0.1-0.1-0.1-0.1-0.2-0.2c0-0.1-0.1-0.3-0.1-0.5s-0.1-0.6-0.1-1.1c0-1,0.3-1.8,0.8-2.4c-0.8-0.2-1.2-0.3-1.1-0.4
		c0.1-0.1-0.3-0.2-1.1-0.5c0.2-1.9,0.4-3.4,0.8-4.4c0.3-0.9,1-2.2,2.1-3.7c0.7-0.9,1.8-1.5,3.1-2c1.3-0.4,2-0.8,2-1.1
		c-0.2-0.7-0.3-0.7-0.4,0c0,0.7-0.2,0.4-0.5-0.8L369.1,309.8z M349.3,322.3L349.3,322.3c-0.1-0.2-0.1-0.3-0.2-0.2L349.3,322.3z
		 M359.4,359.4c0,0.1,0.1,0.2,0.2,0.4c0.1,0.1,0.1,0.2,0.1,0.2c0,0.1,0.1,0.2,0.1,0.2c0.4,0.8,0.7,1.5,1.1,2
		c0.3,0.6,0.8,1.1,1.4,1.7l1,0.8c3,2.3,5.4,3.4,7.3,3.2c1.9-0.2,4.1-0.7,6.6-1.8c4.1-1.6,6.5-2.7,7-3.2c0.6-0.6,0.8-2.9,0.8-7.2
		c-1.3-0.1-1.7-0.2-1.3-0.2c0.4,0,0.1-0.5-1-1.5l-1.8-1.3c-1.2-0.7-2.9-0.9-4.9-0.7l-4.5,0.4c-3.5,0.4-6,0.9-7.6,1.4
		c-1.6,0.6-3.3,1.9-5.1,4L359.4,359.4z"/>
	<path class="st1" d="M414.2,271.7c0.1-0.2,0.6-0.4,1.5-0.5c0.9-0.2,1.4-0.2,1.5-0.1c0,0.1,0.1,0.2,0.2,0.4c0.1,0.2,0.2,0.5,0.3,0.8
		c0.5-0.3,0.9-0.6,1.2-0.7c0.3-0.2,0.6-0.3,0.7-0.3c0.3-0.1,1.1,0.3,2.4,1.1c0.8,0.5,1.7,1.4,2.7,2.7l2.4,3c0.7,0.9,0.9,1.3,0.7,1.1
		c-0.2-0.2-0.3,0.2-0.2,1.1c0,1.1,0.3,1.9,0.8,2.6c0.5,0.6,0.8,1.4,0.8,2.4c0,1.9-0.1,3.7-0.4,5.3c-0.3,1.6-0.5,3.4-0.6,5.3
		l-1.7,24.6c0.9-0.5,2.2-1.5,3.7-3.1l3.5-3.8l1.1-1.2l5.7-5.4c0,0,0-0.1,0.1-0.1l0.1-0.1c0.7-0.7,1.5-1.4,2.3-2
		c0.8-0.6,1.7-1.3,2.5-2l5.1-4.3c1.2-1.2,3.5-3.6,6.9-7.3c3.5-3.7,6.1-5.1,7.7-4.4l-0.5-1.8c3.2,0,5.5,0.4,7,1.2
		c1.5,0.7,2.9,2.2,4.4,4.3c3.9,5.7,3.5,10.8-0.9,15.2c-0.2,0.2-0.4,0.5-0.6,0.7c-0.2,0.2-0.3,0.4-0.4,0.5c-0.7,0.9-1.3,1.4-1.7,1.5
		c-0.4,0-1,0.3-2,0.6c-1.4,0.6-2.7,1.3-4.1,2.2c-1.4,0.9-2.7,2-4.1,3.3l-9.8,8l-0.2,0.2c-1,0.9-2,1.6-2.8,2.3
		c-0.8,0.7-1.6,1.2-2.2,1.7c-1.3,0.9-1.4,2.1-0.3,3.6c3.3,4.6,5.7,8.6,7.1,12.1c1.5,3.4,3.5,7.6,6,12.6c0.9,1.7,1.7,3.4,2.6,5.1
		c0.9,1.6,1.8,3.3,2.8,4.9c2,3.3,3.5,6.8,4.4,10.5c0.6,2.3,0.7,3.7,0.3,4.1c-0.3,0.4-0.5,1.5-0.6,3.3h-1.8c-1.5,0-3.5-1.2-6-3.7
		c-1.2-1.3-2.3-2.4-3.1-3.3c-0.8-0.9-1.5-1.7-2-2.4c-0.4-0.5-0.9-1-1.3-1.3c-0.4-0.4-0.9-0.8-1.3-1.4c-0.4-0.5-0.8-0.9-1-1.4
		c-0.3-0.5-0.6-0.9-1-1.4l-3.2-4.3c-0.6-0.6-0.9-1-1-1.2c-2.3-2.8-4.4-5.7-6.2-8.9c-1.9-3.2-4.2-5.9-6.9-8.3
		c-0.9-0.8-1.9-1.5-2.8-2.2c-0.9-0.7-2-1.2-3.2-1.5c-0.4,1.3-0.8,1.8-1.4,1.7c-0.6-0.2-0.9,0.5-1,2c0,0.5,0,1.4,0,2.6
		c0.1,1.3,0.2,2.3,0.2,3.2c0,3-0.1,6.6-0.4,11c-0.2,4.4-0.7,7.9-1.2,10.5l-1.8,7.1c-0.1,0.2-0.1,0.3-0.1,0.3c0,0.1-0.1,0.1-0.1,0.2
		c0,0-0.1,0.1-0.1,0.1l-0.7,1.4c-1.3,0-2.3-0.5-3-1.4c-0.5-0.7-0.7-0.9-0.5-0.8c-0.6-1-1-2-1.2-3.1c-0.2-1-0.5-2.1-0.8-3.4
		c-0.2-0.6-0.3-0.9-0.4-0.8c0,0-0.2-0.4-0.4-1.1c-0.7-1.9-1.1-3.8-1.4-5.6s-0.6-3.9-1.1-6.1l-0.9-4.2c-0.4-1.7-0.6-3.2-0.6-4.6
		l-0.8-0.4c-0.1,0-0.2-0.1-0.4-0.2c-0.1,0-0.2-0.1-0.4-0.2l-1.7-0.4c-1.1-0.4-1.7-1.2-1.7-2.4c0-2.8,0.5-4.9,1.5-6.4
		c1-1.5,1.5-3,1.3-4.4l-2.4-29.7c0-0.6,0-1.2-0.1-1.7c0-0.5-0.1-1-0.1-1.4c0-0.4-0.1-0.9-0.1-1.3c0-0.4-0.1-0.9-0.1-1.5l-2.4-18.4
		c0.2-2,1-3.6,2.4-4.8c0.7-0.6,1.3-1.3,2-1.9c0.7-0.7,1.3-1.3,1.9-2l0.2-0.2l0.7-1.1c1.1,0.4,1.4,0.6,0.9,0.5
		c-0.5-0.1-0.2,0,0.9,0.4L414.2,271.7z"/>
	<path class="st1" d="M499.4,382.7c-4.3,0-8.6-1.8-12.9-5.3c-4.2-3.6-7.3-7.4-9.2-11.3c-1.3-2.7-2.4-3.9-3.5-3.6
		c-1.1,0.3-1.8-0.2-2-1.5l0.1-0.9c0.2-2.3,0.6-3.3,1.2-3.1c0.6,0.2,0.6-0.7,0.3-2.8l-0.5-9.6c0-1.4,0.3-3.1,0.8-5
		c0.3-1,0.5-1.9,0.7-2.7c0.2-0.8,0.4-1.6,0.6-2.2c1.5-4.6,3.9-8.9,7.3-12.7c1.7-2,3.4-3.8,5.2-5.5c1.8-1.7,3.6-3.3,5.4-4.8l2.4-1.6
		c1-0.7,2.1-1.4,3.3-2.1c1.2-0.7,2.5-1.3,3.6-1.6c1.7-0.4,3.4-0.8,5.3-1.1c1.9-0.3,3.8-0.5,5.8-0.6c4.1-0.2,7.6,0.7,10.3,2.7
		l2.5,1.9c3,2.4,5,5.8,5.8,10.1c0.8,4.3,0.7,8.2-0.5,11.8c-1.1,3.5-2.7,6.4-4.8,8.5c-0.4,0.4-0.8,0.8-1.1,1.2s-0.6,0.7-0.8,0.9
		c-1.7,2.2-4,4.3-6.8,6l-7.8,4.7l-8.4,4.5c-0.8,0.5-2.3,1.2-4.4,2.3c-2,1-3.4,1.5-4.2,1.6c0.7,3.1,2.9,5.4,6.4,7
		c5.5,2.5,11,2.1,16.4-1.4c5.4-3.5,8.5-6.7,9.3-9.6c1,0,1.5,0,1.5,0c0,0,0.3,0.3,0.7,0.9c0.6,1.1,0.6,3.4,0.1,7
		c-0.5,3.5-2.1,6.6-4.7,9.2c-1.5,1.5-3.5,2.9-6,4.2c-2.5,1.3-4.7,2.2-6.7,2.8c-0.7,0.2-1.4,0.4-2.3,0.6c-0.9,0.2-1.8,0.4-2.8,0.6
		s-2,0.3-3,0.4S500.1,382.7,499.4,382.7z M509.6,333.8c0-0.8,0.1-1.2,0.2-1.1c0,0.1,0.3-0.1,0.8-0.6l4.1-3.6
		c0.8-0.7,1.2-2.9,1.2-6.7c-2.5-0.6-4.8-0.5-6.8,0.3l-4,1.8c-0.4,0.3-1,0.6-1.6,1.1c-0.6,0.4-1.3,1-2.1,1.6c-0.1,0-0.4,0.3-0.9,0.8
		l-5,5.3c-2.8,3.3-4.4,5.6-4.7,6.9c-0.2,0.6-0.4,1.2-0.7,2c-0.3,0.8-0.6,1.6-1.1,2.6c1-0.1,2.4-0.6,4-1.4c0.8-0.4,1.6-0.8,2.3-1.2
		c0.7-0.4,1.4-0.7,2-1c0.6-0.3,1.4-0.8,2.5-1.4c1-0.6,2.3-1.4,3.8-2.3C506.8,334.9,508.7,333.9,509.6,333.8z"/>
	<path class="st1" d="M539.8,285.9c1-0.4,1.4-0.5,1.2-0.2c-0.1,0.2,0.1,0.1,0.8-0.2c0.9-0.4,1.1-0.6,0.7-0.8
		c-0.4-0.2,1.1-0.1,4.5,0.4c0.1,1.3,0.3,1.8,0.6,1.2c0.3-0.6,1.2-0.3,2.8,0.7c1.3,0.9,2.1,1.7,2.3,2.5c0.1,0.4,0.1,0.8,0.1,1.3
		c0.6-0.6,1.1-0.6,1.7,0.1c0.4,0.5,0.8,1.2,1.1,2.1c0.3,1.1,0.4,1.6,0.2,1.5c-0.2,0-0.3,0.2-0.3,0.6c-0.1,0.4,0,1,0.5,1.8
		c0.4,0.9,0.7,1.8,0.7,2.6c0,1.2-0.1,2-0.3,2.2c-0.1,0.2-0.2,1.7-0.2,4.6l-0.6,9.4c2.4-1.6,3.9-2.8,4.5-3.8c0.6-0.9,3-2.3,7.1-4.2
		l4.1-2.1c0.8-0.5,1.7-0.8,2.7-0.9c1-0.1,2-0.1,2.8-0.1c0.8,0.1,1.6,0.3,2.4,0.5c0.8,0.3,1.5,0.6,2.3,1c0.7,0.4,1.5,0.9,2.4,1.4
		l2.3,2.1c0.6,0.8,0.7,1.2,0.3,1c-0.4-0.2,0.1-0.1,1.2,0.5c-0.6,1-0.7,1.4-0.5,1.2c0.2-0.2-0.1-0.1-0.8,0.1c0.4,0.7,0.6,1,0.5,0.9
		c-0.2-0.1,0.3-0.1,1.4-0.1c-0.1,1.3-0.3,1.9-0.5,1.7c-0.2-0.2-0.7-0.2-1.4,0.1c0.3,1.2,0.6,1.7,0.9,1.5c0.3-0.2,0.3,0.4,0.1,1.8
		l-0.1,0.6c-0.4,2.2-0.6,3-0.7,2.2s-0.8-0.3-2,1.3c-0.3,0.4-0.5,0.7-0.6,1c-0.1,0.3-0.3,0.6-0.6,1c-0.5,0.7-1.1,1.1-1.7,1.3
		c-0.5,0.2-0.8,0.3-1,0.3s-0.1,0.1,0.1,0c0.3-0.2,0.3-0.3,0-0.3c-1,0-1.5,0-1.5,0.1c0,0.2-0.5,0.3-1.7,0.3c0.4,0.4,0.7,0.7,0.7,0.9
		c0,0.3-0.1,0.5-0.4,0.6c-0.6,0.3-1.8,0.4-3.5,0.2c-1.7-0.2-3.2-0.2-4.3,0.1c-1.3,0.3-2.8,1-4.4,2.2c-0.8,0.6-1.5,1.1-2.1,1.6
		c-0.6,0.5-1.2,1-1.7,1.4c-1.6,1.4-3.1,3.4-4.5,5.9c-0.7,1.3-1.2,2.4-1.6,3.5c-0.4,1.1-0.6,2.1-0.6,3.1c-0.1,1.8-0.1,3.6-0.1,5.6
		c0.1,1.9,0.1,3.8,0.1,5.6c0,2.3-0.2,5.5-0.5,9.4c-0.3,3.9-0.8,6.8-1.7,8.8c-0.3,0.6-0.5,1.2-0.8,1.9s-0.5,1.3-0.8,1.9
		c-0.4,0.8-0.8,1.4-1.2,1.8c-0.3,0.4-0.6,0.9-0.8,1.6l-2-0.9c-0.4-0.1-1.1-1.1-2.1-3c-0.5-0.9-0.9-1.9-1.2-2.9c-0.3-1-0.6-2-1-3
		c-0.7-1.8-1.2-4-1.4-6.6c-0.2-2.6-0.5-4.8-0.7-6.6c-0.2-1.6-0.5-3.1-0.8-4.4c-0.3-1.4-0.5-2.7-0.8-4c-0.3-1.3-0.5-2.5-0.8-3.7
		c-0.3-1.2-0.5-2.5-0.8-3.8l-2.6-28.6c0-1.9,0-3.9-0.1-6.1c-0.1-2.2-0.4-4.6-0.7-7.2c-0.7-5.2,0.2-9.3,2.7-12.1l0.4-0.5l0.2-0.2
		c0.4-0.5,0.7-0.8,1.1-1.1l1.2-1.6v-0.2c0,0-0.1,0-0.1-0.1V285.9z M555.4,297.5C555.3,297.6,555.4,297.6,555.4,297.5
		c0.1,0.1,0.1,0.1,0.1,0.1C555.5,297.5,555.4,297.4,555.4,297.5z"/>
	<path class="st1" d="M586.5,327.2v-0.6v0.5l0.1-0.5c0,0,0.1-0.3,0.1-0.6c0.6-4.2,2-7.3,4.1-9.3c1.1-1,2.1-2,3.2-2.9
		c1.1-0.9,2.2-1.8,3.4-2.7c3.4-2.6,8-4.4,13.7-5.3c5.8-0.9,10.7-0.8,14.8,0.4c5.9,1.9,10.5,4.9,13.7,9c2.5,3.5,3.9,6.5,4.2,9.2
		c0.3,2.7-0.6,6-2.7,9.9l-1.1,2.1c-0.3,0.6-0.4,0.9-0.4,0.9c0,0-0.1,0.4-0.4,0.9c-0.5,0.9-1,1.5-1.4,1.7c-0.5,0.2-0.8,0.6-1.1,1.2
		c-0.9-0.6-1.2-0.9-0.9-0.9c0.3,0,0-0.1-0.9-0.2c-0.9,0-1.3,0.1-1.2,0.2c0.1,0.1-0.1-0.4-0.7-1.4l-1.4-1.7c-0.4-0.5-0.5-0.8-0.4-0.9
		c0.1,0,0.2-0.6,0.2-1.7c-1.9-0.1-3.4-1.3-4.6-3.4c-0.7-1.3-1-2-0.9-2s-0.7-0.4-2.4-1.2c-0.7-0.4-1.2-0.6-1.3-0.9
		c-0.1-0.3-0.8-0.6-2-0.9c-1.5-0.4-3.5-0.5-5.9-0.2c-2.4,0.2-4.4,0.8-6,1.6c-0.1,0-0.2,0.1-0.4,0.1c-0.2,0.1-0.4,0.2-0.7,0.3
		c-0.2,0.1-0.3,0.1-0.4,0.2c-0.1,0-0.2,0.1-0.2,0.1c-0.1,0-0.2,0.1-0.2,0.1l-1.1,0.8c-0.3,0.2-0.2,1,0.4,2.5c0.4,1.1,1.2,2.1,2.4,3
		c0.7,0.4,1.3,0.8,1.9,1.2c0.6,0.4,1.1,0.7,1.7,1c0.5,0.3,0.9,0.6,1.2,0.7c0.4,0.2,0.8,0.4,1.4,0.6c1.1,0.5,2,0.9,3,1.4
		c0.9,0.5,2,0.9,3.2,1.4l11.4,6c2.6,1.7,4.9,3.7,6.9,6.1c3.9,4.8,5.1,9.8,3.5,15.1c-1.6,5.2-5.1,9.2-10.6,11.8l-1.7,0.6l-2.8,0.9
		c-0.4,0.1-0.6,0.1-0.6,0.2c-0.1,0,0,0.1,0.2,0.1c0.2,0,0.2,0.1,0.1,0.1s-0.4,0-0.9,0c-5.8,0-10.5-0.3-14.2-1
		c-3.5-0.6-7.6-2.7-12.2-6.3c-0.6-0.4-1.2-1-1.8-1.7c-0.6-0.7-1.1-1.5-1.7-2.4l-2.4-4.7c-0.2-0.6-0.5-1.2-0.8-1.8
		c-0.3-0.6-0.6-1.3-0.8-1.9c-0.2-0.6-0.4-1.3-0.5-2s-0.1-1.4,0-2.1v-0.1c0,0,0-0.1,0-0.1c0,0,0,0,0-0.1l0.2-0.6l0.1-0.4
		c0-0.2,0.1-0.3,0.1-0.4c0-0.1,0.1-0.1,0.1-0.2c0-0.1,0.1-0.2,0.1-0.3s0-0.3,0-0.7c1.8,0,3.5,0.6,5,1.7l2.7,2.7
		c2.8,3.9,7,6.6,12.5,8.3c5.5,1.7,9.9,1.8,13.1,0.5c2-0.9,2.5-2.2,1.4-4c0,0-0.1-0.1-0.2-0.2c-0.1-0.1-0.2-0.2-0.2-0.3
		c-1.4-1.7-3.3-3.2-5.6-4.3c-1.1-0.6-2.2-1.1-3.3-1.6c-1-0.5-2.1-1-3-1.4c-0.2-0.1-0.4-0.2-0.5-0.2c-0.1,0-0.2,0-0.3-0.1
		c-0.1,0-0.2,0-0.3-0.1c-0.1,0-0.3-0.1-0.5-0.2l-7-2.8l-3.4-1.5c-1.2-0.5-2.2-1.1-3.2-1.7c-0.9-0.6-1.9-1.3-2.9-2l-5.1-4.7
		c-1.4-1.7-2.6-3.8-3.5-6.3c-0.4-1-0.6-2-0.7-3s-0.2-2-0.4-3.1L586.5,327.2z"/>
</g>
</svg>
