<?xml version="1.0" encoding="iso-8859-1"?>
<!-- Generator: Adobe Illustrator 19.2.1, SVG Export Plug-In . SVG Version: 6.00 Build 0)  -->
<svg version="1.1" id="Layer_1" xmlns="http://www.w3.org/2000/svg" xmlns:xlink="http://www.w3.org/1999/xlink" x="0px" y="0px"
	 viewBox="0 0 768 768" style="enable-background:new 0 0 768 768;" xml:space="preserve">
<g>
	<circle id="XMLID_101_" style="fill:#7F467A;" cx="603.8" cy="565.4" r="12.5"/>
	<circle id="XMLID_95_" style="fill:#7F467A;" cx="111.1" cy="612.1" r="32.8"/>
	<circle id="XMLID_93_" style="fill:#7F467A;" cx="506.9" cy="597.3" r="25.5"/>
	<g id="XMLID_59_">
		<path id="XMLID_63_" style="fill:#7F467A;" d="M651.6,349c-18.5-30.6-55.2-52-89.2-52c-5.7,0-11.3,0.6-16.6,1.8
			c1.6-43.7-19.2-87.8-56-113.3c-21.2-14.7-48.1-22.8-75.8-22.8c-32.1,0-62.6,10.4-85.9,29c-10.1-6.7-21.6-11.9-33.9-15.3
			c-12.6-3.5-25.8-5.2-39.3-5.2c-66.6,0-127,41.2-146.7,100.1c-14,41.7-6.6,87.6,19.4,119.9c17.9,22.3,43.9,37.2,71.7,41.7
			c-15.6,34.1-12.8,74,9.5,101.9c14.3,17.8,36.5,28.5,59.4,28.5c12.6,0,24.6-3.2,35-9.2c19.1,31.4,52.2,51.3,87.7,51.3
			c4.4,0,8.8-0.3,13.2-0.9c35.1-4.7,63.6-29,74.8-60.8c8.4,3.9,17.6,6,26.9,6c9.2,0,18.2-2,26.7-5.9c20.7-9.5,34.5-29.5,37.4-51.3
			c4.1,0.6,8.3,0.9,12.5,0.9l0,0c15.2,0,29.5-3.8,41.4-11C667.6,455.7,680,395.9,651.6,349z"/>
	</g>
	<g id="XMLID_24_">
		<path id="XMLID_142_" style="fill:#FFFFFF;" d="M294.7,336.9c1.6-0.5,3.1-0.7,4.3-0.5c1.2,0.2,2.4,0.5,3.4,0.9s1.8,1,2.4,1.9
			s0.9,2,1.1,3.1s0,2.2-0.5,3.2s-1.1,1.9-1.7,2.6s-1.3,1.6-1.8,2.5s-1.3,1.5-2.4,1.8c-1,0.3-1.8,0.3-2.2,0c-0.5-0.3-0.2-1.7,0.8-4.2
			c1-2.4,1-3.8,0.1-4.2c-0.9-0.4-2-0.4-3.2-0.1s-2.9,1.5-5.2,3.6c-2.3,2.1-4.1,4.5-5.6,7.3s-2.4,5-2.7,6.7c-0.3,1.7-0.4,3.5-0.2,5.1
			c0.2,1.7,0.4,3.8,0.9,6.3c0.4,2.5,0.9,4.8,1.3,6.8c0.5,2,0.5,4.6,0.2,7.9s-1.1,5.9-2.4,8s-2.5,3.9-3.6,5.4s-2.4,2.7-3.8,3.6
			s-3,1.4-4.8,1.5s-3.2,0-4.2-0.4s-2-1.3-3.1-2.8s-1.6-2.9-1.7-4.2c-0.1-1.3,0.3-2.7,1.2-4.4c0.9-1.6,2.3-3.5,4.2-5.4
			c1.9-2,3.5-3.2,4.8-3.6s2.5-1.2,3.6-2.3c1-1.1,1-4.1-0.1-9.1s-1.4-9.2-0.8-12.8s1.3-6.3,2.3-8.3s2.5-4.2,4.6-6.5s4-4,5.6-5
			s3.1-1.9,4.6-2.8C291.5,338,293,337.4,294.7,336.9z M274.2,385.8c-0.7-1.1-2.4,0.1-5.1,3.5s-4,5.8-3.8,7.1c0.2,1.3,0.6,2,1.3,2.2
			c0.6,0.2,1.3,0.2,1.9,0c0.7-0.2,1.3-0.5,1.8-1.1c0.5-0.5,1.3-1.2,2.2-2.1s1.6-1.9,2.2-3.2s0.8-2.4,0.7-3.4
			C275.3,387.9,274.9,386.9,274.2,385.8z"/>
		<path id="XMLID_145_" style="fill:#FFFFFF;" d="M297.2,372.6c3.9-2.6,6.3-4.1,7.2-4.4c0.9-0.3,1.6-0.2,2.2,0.3s0.9,1.2,1.1,1.9
			c0.1,0.8-0.1,2.5-0.7,5c-0.6,2.6-0.6,3.6,0,3.2c0.6-0.5,1.4-1,2.4-1.4s2.4-1,4-1.6s3.1-0.8,4.5-0.7c1.4,0.1,2.5,0.4,3.2,1
			s1.2,1.1,1.4,1.5c0.2,0.4,0.5,0.9,0.8,1.6s0.5,1.1,0.5,1.3c0,0.2,0,0.5,0.1,1s0,1.3-0.1,2.5c-0.2,1.2-0.6,2.6-1.4,4.2
			s-1.9,3.2-3.5,4.6c-1.5,1.4-2.9,2.5-4,3.1s-2.3,1.2-3.5,1.6c-1.3,0.5-2.5,0.8-3.9,1c-1.3,0.2-2.4,0-3.2-0.6
			c-0.8-0.6-1.2-1.2-1.2-1.9c0-0.7,0.2-1.5,0.7-2.5s1-1.7,1.5-2.5c0.5-0.7,1.4-1.6,2.5-2.6c1.2-1,2.4-1.8,3.7-2.3
			c1.3-0.6,2.3-0.9,3.1-1.1c0.7-0.2,0.3,0.4-1.5,1.5c-1.7,1.2-3.3,2.4-4.5,3.5c-1.3,1.1-1.7,2-1.3,2.5c0.5,0.5,1.3,0.6,2.5,0.1
			s3-1.8,5.3-4.1c2.3-2.3,3.1-4.3,2.2-5.9c-0.8-1.6-2.4-2-4.7-1.2c-2.3,0.9-4.4,2.1-6.2,3.7c-1.8,1.6-3.7,4.8-5.7,9.6
			c-2,4.8-3.4,8.4-4.2,10.7c-0.8,2.3-1.9,5.5-3.3,9.5s-3,8-4.8,11.8s-3.4,5.5-4.5,5c-1.2-0.5-1.9-1.1-2.1-1.9s-0.3-1.6-0.2-2.5
			c0.1-0.9,0.5-2,1.1-3.3s1.5-3.6,2.5-6.7c1.1-3.1,3.3-9.1,6.7-18c3.4-8.9,5.4-14.2,6.1-15.8c0.6-1.6,1.5-4.1,2.5-7.3
			c1-3.2,1.1-4.7,0.3-4.4c-0.8,0.3-2.6,1.2-5.3,2.6C292.7,375.8,293.3,375.2,297.2,372.6z"/>
		<path id="XMLID_147_" style="fill:#FFFFFF;" d="M339.6,369.5c2.9-0.2,4.7,0.3,5.4,1.5c0.6,1.2,0.9,2.7,0.9,4.6s-0.9,3.5-2.6,4.7
			c-1.7,1.3-4,2.6-6.8,3.9c-0.8,0.3-1.5,0.5-2.1,0.5s-1.2,0-1.6-0.1s-0.7-0.1-1-0.2c-0.2-0.1-0.4,0-0.4,0.1
			c-0.8,1.3-1.2,2.5-1.2,3.8s0.4,2.5,1.3,3.5c0.9,1.1,1.8,1.7,2.9,1.9c1.1,0.2,2.2,0.1,3.3-0.1c1.1-0.2,3.3-1,6.3-2.3
			c3.1-1.3,5.2-2.5,6.4-3.6c1.2-1.1,2.4-2.2,3.5-3.3c1.1-1.1,1.3-1.1,0.5,0s-1.8,2.3-2.9,3.8s-2.6,3-4.4,4.4
			c-1.7,1.5-3.2,2.6-4.3,3.4c-1.1,0.8-2.6,1.5-4.4,2.1s-3.6,0.8-5.4,0.6c-1.8-0.2-3.1-0.6-4-1.2s-1.7-1.3-2.4-2s-1.4-1.7-1.8-2.8
			c-0.5-1.1-0.7-2.5-0.8-4.4c0-1.9,0.4-3.9,1.3-6.1s1.9-4,3.1-5.5c1.1-1.4,2.7-2.9,4.6-4.4C334.8,371,337.1,370,339.6,369.5z
			 M339.6,375.4c-0.3-0.3-1.1-0.2-2.3,0.5c-1.2,0.6-2.1,1.3-2.6,2.1c-0.5,0.8-0.6,1.3-0.3,1.7c0.4,0.4,1.1,0.2,2.2-0.4
			s2.1-1.3,2.7-1.9C340.1,376.6,340.2,376,339.6,375.4z"/>
		<path id="XMLID_150_" style="fill:#FFFFFF;" d="M374.7,369.9c1-0.3,2.1-0.3,3.3-0.1c1.2,0.2,2.2,0.6,2.9,1.1
			c0.7,0.6,1.4,1.7,2.1,3.4c0.7,1.7,0.4,2.8-0.9,3.4s-2.4,0.4-3.4-0.6s-2.1-1.2-3.2-0.6s-2.2,1.2-3.3,1.7c-1.1,0.6-2.4,1.5-4,2.8
			s-3.2,2.9-4.9,4.9c-1.7,2-2.6,3.2-2.8,3.8c-0.2,0.5,0.3,0.5,1.3-0.2s2.6-1.8,4.7-3.2c2.1-1.4,4.8-2.9,8-4.4s5.3-2.1,6.1-1.7
			c0.9,0.3,1.6,0.9,2.2,1.8s1,1.6,1.1,2.3c0.1,0.6,0,1.1-0.3,1.5s-0.6,1.2-1,2.5s-0.3,2.6,0.1,3.8c0.4,1.2,1,2.1,1.7,2.5
			c0.7,0.5,1.6,0.6,2.8,0.4c1.2-0.2,2.6-1.1,4.4-2.7c1.7-1.6,1.7-1.2-0.2,1.1c-1.9,2.4-3.4,3.8-4.5,4.5c-1.1,0.6-2,0.9-2.6,0.9
			s-1.4-0.2-2.4-0.6s-1.9-1-2.8-1.7s-1.6-1.8-2.1-2.9s-0.8-2-1-2.5s-0.6-1.2-1.2-1.8c-0.6-0.7-1.4-0.8-2.3-0.4s-2.5,1.4-4.8,3.1
			s-4.5,3-6.5,4.1s-3.8,1.8-5.4,2.2c-1.6,0.4-2.6,0.6-3.1,0.4c-0.5-0.1-1-0.6-1.5-1.5s-0.9-1.8-1-2.8s0.1-2,0.4-3.1
			c0.4-1,1.8-3.1,4.2-6.2c2.4-3.1,4.8-5.6,7.1-7.6c2.3-2,4.7-3.7,7.2-5C371.9,371,373.7,370.2,374.7,369.9z"/>
		<path id="XMLID_152_" style="fill:#FFFFFF;" d="M408.4,342.5c0.9-0.9,2.2-1.1,3.8-0.4s1.9,3.5,0.9,8.5s-2.2,10-3.4,15
			c-1.2,5-1,7.4,0.8,7.3c1.8-0.2,3.4-0.8,4.9-2.1c1.5-1.2,3.2-2.5,5-3.9s3.6-2.6,5.2-3.6s2.6-0.7,3,0.9s0.2,2.9-0.3,4
			c-0.6,1.1-2.9,3-7,5.7s-6,4.4-5.8,5.1s0.4,1.4,0.6,2c0.2,0.7,1.1,2.2,2.7,4.5s3.7,4.7,6.3,7.2c2.6,2.5,3.8,4,3.5,4.6
			s-0.7,1-1.4,1.2c-0.7,0.2-1.5,0.4-2.5,0.5c-1,0.2-2.5-0.6-4.5-2.4c-2-1.7-4-3.9-5.8-6.4c-1.9-2.5-3.5-4.6-4.7-6.1
			c-1.3-1.5-2.2-2.5-2.7-2.8c-0.5-0.4-1.5,1.7-2.8,6.1c-1.4,4.5-2.6,7.8-3.7,10.1s-2.2,3.2-3.5,2.9c-1.3-0.3-2.1-0.7-2.4-1
			c-0.4-0.4-0.4-1.1-0.2-2.1c0.2-1.1,1-3,2.4-5.9s2.9-8.5,4.7-16.8c1.8-8.3,2.9-14.2,3.4-17.6s0-3.8-1.4-1.2
			c-1.4,2.6-3.7,6.2-6.9,10.7c-3.2,4.5-3.6,4.9-1.1,1s4.3-6.8,5.3-8.7c1.1-1.9,2.3-4.9,3.9-8.9C406.3,345.9,407.5,343.4,408.4,342.5
			z"/>
		<path id="XMLID_154_" style="fill:#FFFFFF;" d="M443.5,369.5c2.9-0.2,4.7,0.3,5.4,1.5c0.6,1.2,0.9,2.7,0.9,4.6s-0.9,3.5-2.6,4.7
			c-1.7,1.3-4,2.6-6.8,3.9c-0.8,0.3-1.5,0.5-2.1,0.5s-1.2,0-1.6-0.1s-0.7-0.1-1-0.2c-0.2-0.1-0.4,0-0.4,0.1
			c-0.8,1.3-1.2,2.5-1.2,3.8s0.4,2.5,1.3,3.5c0.9,1.1,1.8,1.7,2.9,1.9c1.1,0.2,2.2,0.1,3.3-0.1c1.1-0.2,3.3-1,6.3-2.3
			c3.1-1.3,5.2-2.5,6.4-3.6c1.2-1.1,2.4-2.2,3.5-3.3s1.3-1.1,0.5,0s-1.8,2.3-2.9,3.8c-1.2,1.5-2.6,3-4.4,4.4
			c-1.7,1.5-3.2,2.6-4.3,3.4s-2.6,1.5-4.4,2.1s-3.6,0.8-5.4,0.6c-1.8-0.2-3.1-0.6-4-1.2s-1.7-1.3-2.4-2c-0.7-0.8-1.4-1.7-1.8-2.8
			c-0.5-1.1-0.7-2.5-0.8-4.4c0-1.9,0.4-3.9,1.3-6.1s1.9-4,3.1-5.5c1.1-1.4,2.7-2.9,4.6-4.4C438.8,371,441,370,443.5,369.5z
			 M443.6,375.4c-0.3-0.3-1.1-0.2-2.3,0.5c-1.2,0.6-2.1,1.3-2.6,2.1c-0.5,0.8-0.6,1.3-0.3,1.7s1.1,0.2,2.2-0.4s2.1-1.3,2.7-1.9
			C444,376.6,444.1,376,443.6,375.4z"/>
		<path id="XMLID_157_" style="fill:#FFFFFF;" d="M460.2,378.8c1.6-6.1,3.1-9.1,4.6-9s2.6,0.8,3.3,2c0.7,1.2,0.7,2.6-0.2,4.4
			c-0.9,1.7-1,2.5-0.3,2.4s1.7-0.5,2.9-1.3c1.2-0.8,2.3-1.4,3.4-1.8c1.1-0.5,1.9-0.8,2.6-0.9s1.9,0.1,3.8,0.7s3.6,1.4,5.3,2.4
			c1.7,1,3.9,1.1,6.6,0.3c2.7-0.9,2.4-0.6-0.9,0.9c-3.3,1.4-6.8,2.1-10.3,2s-6.2,0.3-8.1,1.3c-1.9,0.9-3.5,1.9-4.8,3.1
			c-1.3,1.1-2.5,3-3.7,5.5c-1.1,2.6-2,4.7-2.6,6.5s-1.1,3.2-1.6,4.3c-0.5,1.1-1.4,1.7-2.8,1.8c-1.4,0.1-2.4-0.5-2.8-1.5
			c-0.5-1.1-0.6-1.8-0.3-2.1c0.2-0.3,0.9-2.3,2-6C457.3,389.8,458.7,384.9,460.2,378.8z"/>
		<path id="XMLID_159_" style="fill:#FFFFFF;" d="M499.2,370.3c1.8-0.9,3.5-1.5,5.3-1.7c1.8-0.3,2.8,0.1,3.2,1
			c0.4,0.9,0.2,1.8-0.5,2.7c-0.7,0.9-1.7,1.4-3,1.5s-2.6,1-4.1,2.7s-2.3,3.7-2.5,6s-0.2,3.9,0.2,4.8c0.3,0.9,0.7,2.6,1.1,5.1
			s0.1,4.7-0.8,6.6c-0.9,1.8-1.9,3.2-3,4s-2.4,1.5-3.9,1.8c-1.6,0.4-2.9,0.6-4,0.6s-2.3-0.3-3.5-0.8c-1.3-0.5-2-1.6-2.3-3.3
			c-0.3-1.6,2-4.7,6.9-9.2s5.3-4.6,1.2-0.4c-4.1,4.2-5.7,6.8-4.8,7.8c0.9,1,2,1.3,3.2,0.8c1.3-0.5,2.2-1.1,3-1.9
			c0.7-0.8,1.3-1.8,1.6-3c0.4-1.2,0.5-2.2,0.5-3.2s-0.4-3.2-1-6.6s-0.6-6,0-7.7s1.6-3.2,2.8-4.4C496,372.3,497.5,371.2,499.2,370.3z
			"/>
	</g>
</g>
</svg>
