<?xml version="1.0" encoding="utf-8"?>
<!-- Generator: Adobe Illustrator 19.0.0, SVG Export Plug-In . SVG Version: 6.00 Build 0)  -->
<svg version="1.1" id="Layer_1" xmlns="http://www.w3.org/2000/svg" xmlns:xlink="http://www.w3.org/1999/xlink" x="0px" y="0px"
	 viewBox="9 -9 768 768" style="enable-background:new 9 -9 768 768;" xml:space="preserve">
<metadata><?xpacket begin="﻿" id="W5M0MpCehiHzreSzNTczkc9d"?>
<x:xmpmeta xmlns:x="adobe:ns:meta/" x:xmptk="Adobe XMP Core 5.6-c067 79.157747, 2015/03/30-23:40:42        ">
   <rdf:RDF xmlns:rdf="http://www.w3.org/1999/02/22-rdf-syntax-ns#">
      <rdf:Description rdf:about=""/>
   </rdf:RDF>
</x:xmpmeta>
                                                                                                    
                                                                                                    
                                                                                                    
                                                                                                    
                                                                                                    
                                                                                                    
                                                                                                    
                                                                                                    
                                                                                                    
                                                                                                    
                                                                                                    
                                                                                                    
                                                                                                    
                                                                                                    
                                                                                                    
                                                                                                    
                                                                                                    
                                                                                                    
                                                                                                    
                                                                                                    
                           
<?xpacket end="w"?></metadata>
<style type="text/css">
	.st0{fill:#D5576A;}
	.st1{fill:#FFFFFF;}
</style>
<path id="XMLID_88_" class="st0" d="M694.1,390.6c-4.9-59.6-39.3-103.7-94.5-121.3c-1.7-0.6-3.3-1-5.1-1.5
	c13.8-40.7,2.4-90.6-20.6-126.5c-29.8-46.5-81.1-74.2-137.1-74.2c-5.2,0-10.6,0.2-15.8,0.8c-51.2,5-97,34.7-123.4,79
	c-21-18.1-48.1-27.8-79.5-27.8c-51.2,0-107,27-138.9,67c-27.1,34.2-36.6,80.1-25.4,123c7.5,28.9,23.8,53.5,46.2,70.7
	c-25.3,31-39.9,73.2-37.7,113.3c4.2,77.5,66.5,141.5,148.1,152.2c7.3,0.9,14.7,1.5,22,1.5c56.8,0,110.3-28.6,145.7-75.5
	c2,3,4.2,5.8,6.5,8.5c27.3,33,70.4,52,118,52l0,0c6.7,0,13.4-0.3,20-1.1C635.9,617.6,702.7,496.1,694.1,390.6z"/>
<circle id="XMLID_106_" class="st0" cx="714.8" cy="290.6" r="23"/>
<circle id="XMLID_105_" class="st0" cx="662.9" cy="253.7" r="13.7"/>
<circle id="XMLID_98_" class="st0" cx="737.8" cy="387.9" r="35"/>
<g>
	<path class="st1" d="M160.2,388c-2.2-1.4-3.8-4.5-4.7-9.3c-0.9-4.8-1.3-8.4-1.4-10.9c-0.1-1.7-0.2-3.5-0.4-5.4
		c-0.2-1.9-0.6-3.9-1-6c-0.5-2.1-0.9-4.1-1.3-5.9c-0.4-1.8-0.8-3.5-1.2-5.2c-0.8-3-1.2-5-1.2-5.9c-0.1-1.1-0.3-2.7-0.6-5
		c-0.6-3.3-0.8-5.3-0.5-5.9c0.3-0.6-0.3-1.2-1.8-1.6c-1.1-0.3-1.8-0.3-1.9-0.1c-0.2,0.3-0.7,0.3-1.7,0.1l-0.9-0.4
		c-0.3-0.2-0.4-0.4-0.5-0.6c-0.1-0.2-0.1-0.3-0.2-0.5c0-0.1,0-0.3,0-0.4c0-0.2,0-0.3,0-0.5c-0.1-1-0.5-1.7-1.2-2.1
		c-0.6-0.4-0.9-1.1-0.7-2.3l0.2-0.6c0.1-0.8-0.1-1.4-0.5-1.8c-0.5-0.4-0.5-1.3,0-2.6c0.3-0.5,0.5-0.9,0.9-1c0.3-0.2,0.8-0.8,1.5-1.7
		l0-0.1c0.3-0.4,0.5-0.8,0.7-1.2c0.2-0.4,0.7-0.9,1.3-1.5l1-0.6c0.7-0.4,1.4-0.9,2.1-1.3c0.7-0.4,1.4-0.8,2.1-1.2
		c1.1-0.5,1.9-0.9,2.5-1c0.4-0.1,0.8-0.2,1.2-0.3c0.4-0.1,0.8-0.2,1.3-0.4l4.7-1.3l0.7,0c0,0,0.3,0,0.7,0c0.9-0.1,1.9-0.1,3-0.1
		c1.1,0,2.3,0,3.6,0.1c2.6,0.1,4.8,0.4,6.7,0.9c0.5,0.2,1,0.3,1.5,0.4c0.5,0.1,1,0.2,1.4,0.3l3.6,1.5c1.6,0.7,3.2,1.5,4.7,2.4
		c1.5,0.9,2.9,1.8,4.3,2.8l4.3,3.4c0,0.1,0.1,0.2,0.2,0.2l1,0.9c0.8,0.8,1.7,1.6,2.5,2.4c0.8,0.8,1.6,1.7,2.2,2.6
		c0.7,1.1,1.3,2,1.8,2.7c0.5,0.7,0.8,1.3,1,1.6c0.2,0.4,0.4,0.9,0.7,1.7c0.3,0.8,0.6,1.8,0.9,3c0.9,3.1,0.9,6.3,0.2,9.7l-0.6,2.9
		c-0.2,1-0.4,1.7-0.5,2.1c-0.7,1.9-1.7,3.8-3,5.5c-1.5,1.9-2.8,3.4-4.1,4.6l-3.7,2.8l-7.4,2.6c-5.1,1.1-8.3,1.2-9.5,0.4
		c-1.2-0.8-3.3-1.5-6.3-2.1c-1.3-0.3-1.9-0.1-1.8,0.4c0.1,0.3,0.1,0.9,0.1,1.9c0,1,0,2.4-0.1,4.1c-0.1,1.4-0.1,2.9-0.3,4.6
		c-0.1,1.7-0.3,3.5-0.5,5.5c-0.4,4-1.2,7-2.3,9.2c-0.2,0.5-0.4,0.8-0.6,1.2c-0.2,0.3-0.3,0.6-0.4,0.8
		C161.8,386.8,161.2,387.3,160.2,388z M163.8,322.1C163.7,322.2,163.8,322.2,163.8,322.1C163.8,322.2,163.9,322.2,163.8,322.1
		L163.8,322.1z M164.8,320.9c0,0.2,0,0.4,0,0.6c0,0.2,0,0.4,0,0.5l0.3,7.3c0,0.7,0,1.1,0,1.2c0.1,0.1,0.1,0.4,0,0.9v10.3
		c0.1,0.7,0.2,1.4,0.2,2.1c0.1,0.7,0.1,1.2,0.2,1.5l0.5,3.8c0.2,1.8,0.2,3,0,3.7c3.2,0,6.8-0.4,10.6-1.3c4-0.9,7-2.4,9-4.4
		c1.5-1.4,2.4-2.5,2.8-3.2c0.4-0.7,0.7-1.8,0.9-3.4c0.3-2.2,0.2-3.9,0-5.2c-0.3-1.4-1.2-2.7-2.8-4c-0.5-0.4-0.8-0.6-0.8-0.6
		c0,0-0.1-0.3-0.5-0.7c-0.5-0.6-1.1-1-1.6-1.1c-0.4-0.1-1-0.4-1.6-0.9l-1.8-1.3c-0.6-0.5-1-0.7-1.2-0.7c-0.2,0-0.6-0.3-1.2-0.9
		c-0.6-0.5-0.8-0.7-0.8-0.6c0.1,0,0,0,0,0c-0.1,0-0.2-0.1-0.5-0.2l-3.5-1.4l-0.8-0.3l-1.1-0.4l-2-0.6c-0.7-0.1-1.4-0.2-2.2-0.4
		C166.3,320.9,165.5,320.9,164.8,320.9z"/>
	<path class="st1" d="M223.3,387.4c-3.1,0-6.2-1.3-9.3-3.8c-3-2.6-5.2-5.3-6.6-8.2c-0.9-1.9-1.7-2.8-2.5-2.6
		c-0.8,0.2-1.3-0.2-1.5-1.1l0-0.6c0.2-1.6,0.5-2.4,0.9-2.3s0.5-0.5,0.2-2l-0.4-6.9c0-1,0.2-2.2,0.6-3.6c0.2-0.7,0.4-1.4,0.5-2
		c0.2-0.6,0.3-1.1,0.4-1.6c1.1-3.4,2.8-6.4,5.2-9.2c1.2-1.4,2.5-2.8,3.7-4c1.3-1.2,2.6-2.4,3.9-3.5l1.8-1.2c0.7-0.5,1.5-1,2.4-1.5
		c0.9-0.5,1.8-0.9,2.6-1.2c1.2-0.3,2.5-0.6,3.8-0.8c1.3-0.2,2.7-0.3,4.2-0.4c3-0.2,5.5,0.5,7.5,2l1.8,1.4c2.2,1.8,3.6,4.2,4.2,7.3
		c0.6,3.1,0.5,5.9-0.3,8.5c-0.8,2.6-2,4.6-3.5,6.1c-0.3,0.3-0.6,0.6-0.8,0.9c-0.2,0.3-0.4,0.5-0.6,0.7c-1.2,1.6-2.9,3.1-4.9,4.4
		l-5.6,3.4l-6.1,3.2c-0.6,0.3-1.7,0.9-3.2,1.7c-1.5,0.7-2.5,1.1-3,1.2c0.5,2.2,2.1,3.9,4.6,5c4,1.8,7.9,1.5,11.8-1
		c3.9-2.5,6.1-4.9,6.7-7c0.7,0,1.1,0,1.1,0c0,0,0.2,0.2,0.5,0.6c0.5,0.8,0.5,2.5,0,5c-0.4,2.5-1.5,4.8-3.4,6.7
		c-1.1,1.1-2.5,2.1-4.3,3c-1.8,0.9-3.4,1.6-4.8,2c-0.5,0.1-1,0.3-1.7,0.4c-0.6,0.1-1.3,0.3-2,0.4c-0.7,0.1-1.5,0.2-2.1,0.3
		C224.5,387.4,223.9,387.4,223.3,387.4z M230.7,352.1c0-0.6,0.1-0.9,0.1-0.8c0,0.1,0.2-0.1,0.6-0.4l3-2.6c0.6-0.5,0.9-2.1,0.9-4.8
		c-1.8-0.4-3.5-0.3-4.9,0.2l-2.9,1.3c-0.3,0.2-0.7,0.5-1.1,0.8c-0.4,0.3-0.9,0.7-1.5,1.2c-0.1,0-0.3,0.2-0.7,0.6l-3.6,3.8
		c-2,2.4-3.1,4-3.4,5c-0.1,0.4-0.3,0.9-0.5,1.4c-0.2,0.6-0.5,1.2-0.8,1.9c0.7-0.1,1.7-0.4,2.9-1c0.6-0.3,1.2-0.6,1.7-0.9
		c0.5-0.3,1-0.5,1.5-0.7c0.4-0.2,1-0.6,1.8-1c0.8-0.4,1.7-1,2.8-1.6C228.7,352.9,230.1,352.2,230.7,352.1z"/>
	<path class="st1" d="M252.5,317.5c0.7-0.3,1-0.4,0.9-0.2c-0.1,0.1,0.1,0.1,0.6-0.1c0.6-0.3,0.8-0.5,0.5-0.6
		c-0.3-0.2,0.8-0.1,3.2,0.3c0.1,1,0.2,1.3,0.4,0.9c0.2-0.4,0.9-0.2,2,0.5c1,0.6,1.5,1.2,1.7,1.8c0.1,0.3,0.1,0.6,0.1,0.9
		c0.4-0.5,0.8-0.4,1.2,0c0.3,0.4,0.6,0.9,0.8,1.5c0.2,0.8,0.3,1.2,0.1,1.1c-0.1,0-0.2,0.1-0.2,0.4c-0.1,0.3,0,0.8,0.3,1.3
		c0.3,0.7,0.5,1.3,0.5,1.9c0,0.9-0.1,1.4-0.2,1.6c-0.1,0.1-0.1,1.2-0.2,3.3l-0.4,6.8c1.7-1.1,2.8-2,3.2-2.7c0.5-0.7,2.2-1.7,5.2-3
		l2.9-1.5c0.6-0.4,1.2-0.6,1.9-0.7c0.7-0.1,1.4-0.1,2,0c0.6,0.1,1.2,0.2,1.7,0.4c0.6,0.2,1.1,0.4,1.6,0.7c0.5,0.3,1.1,0.6,1.7,1
		l1.7,1.5c0.4,0.6,0.5,0.8,0.2,0.7c-0.3-0.2,0,0,0.9,0.4c-0.4,0.7-0.5,1-0.4,0.9c0.1-0.1-0.1-0.1-0.6,0.1c0.3,0.5,0.4,0.7,0.3,0.7
		c-0.1-0.1,0.2-0.1,1,0c-0.1,0.9-0.2,1.3-0.3,1.2c-0.1-0.1-0.5-0.1-1,0.1c0.2,0.9,0.4,1.3,0.6,1.1c0.2-0.1,0.2,0.3,0,1.3l-0.1,0.4
		c-0.3,1.6-0.4,2.1-0.5,1.6c-0.1-0.5-0.6-0.2-1.4,0.9c-0.2,0.3-0.3,0.5-0.4,0.7s-0.2,0.4-0.4,0.7c-0.4,0.5-0.8,0.8-1.2,0.9
		c-0.4,0.1-0.6,0.2-0.7,0.2s-0.1,0,0,0c0.2-0.1,0.2-0.2,0-0.2c-0.7,0-1.1,0-1.1,0.1c0,0.1-0.4,0.2-1.2,0.2c0.3,0.3,0.5,0.5,0.5,0.7
		c0,0.2-0.1,0.3-0.3,0.4c-0.5,0.2-1.3,0.3-2.5,0.2c-1.3-0.1-2.3-0.1-3.1,0c-1,0.2-2,0.7-3.2,1.6c-0.6,0.4-1.1,0.8-1.5,1.2
		c-0.5,0.4-0.9,0.7-1.2,1c-1.1,1-2.2,2.4-3.2,4.3c-0.5,0.9-0.9,1.8-1.1,2.6c-0.3,0.8-0.4,1.5-0.4,2.2c-0.1,1.3-0.1,2.6-0.1,4
		c0,1.4,0.1,2.7,0.1,4c0,1.7-0.1,3.9-0.4,6.8c-0.2,2.8-0.6,4.9-1.2,6.4c-0.2,0.4-0.4,0.9-0.6,1.3s-0.4,0.9-0.6,1.4
		c-0.3,0.6-0.6,1-0.8,1.3c-0.2,0.3-0.4,0.6-0.6,1.2l-1.4-0.6c-0.3-0.1-0.8-0.8-1.5-2.2c-0.3-0.7-0.6-1.4-0.8-2.1s-0.4-1.4-0.7-2.1
		c-0.5-1.3-0.9-2.9-1-4.8c-0.2-1.9-0.3-3.5-0.5-4.7c-0.2-1.1-0.4-2.2-0.6-3.2c-0.2-1-0.4-1.9-0.6-2.9c-0.2-0.9-0.4-1.8-0.6-2.7
		c-0.2-0.9-0.4-1.8-0.6-2.7l-1.9-20.7c0-1.3,0-2.8-0.1-4.4c-0.1-1.6-0.3-3.3-0.5-5.2c-0.5-3.8,0.2-6.7,1.9-8.7l0.3-0.3l0.2-0.2
		c0.3-0.3,0.5-0.6,0.8-0.8l0.9-1.2v-0.1C252.5,317.7,252.5,317.6,252.5,317.5L252.5,317.5z M263.8,325.9
		C263.7,325.9,263.7,325.9,263.8,325.9C263.8,325.9,263.8,326,263.8,325.9C263.8,325.9,263.8,325.8,263.8,325.9z"/>
	<path class="st1" d="M311.6,330.3l10.3-1c0.5-0.1,0.9-0.1,1.3-0.1c0.9,0.1,1.4,0.2,1.6,0.3l1.1,0.6c0.2,0.1,0.3,0.2,0.3,0.2
		c0,0,0,0-0.2-0.1c-0.1-0.1-0.1-0.1-0.1-0.1c0,0,0.2,0.1,0.4,0.1c0.3,0.1,0.5,0.2,0.6,0.3c0.1,0,0.1,0,0,0c2.4,1,3.9,2.7,4.6,5.1
		c0.5,1.7,0.4,3.5-0.2,5.5l-0.2,0.6c0,0.1,0,0.1,0,0.2c-0.4,1-1.4,2.1-3.1,3.3c-1.7,1.2-3.2,1.7-4.4,1.6c-0.5,0-0.7-0.1-0.7-0.1
		c0.1-0.1-0.2-0.1-0.7-0.2c-0.3-0.1-0.6-0.1-0.9-0.1s-0.6,0-0.9,0c-1.2-0.1-3.2-0.2-5.9-0.3c-2.8-0.1-4.7,0-5.7,0.3
		c-0.2,0.7-0.3,2.8-0.3,6.3c0,1.8,0,3.4,0.1,4.8c0.1,1.4,0.2,2.7,0.3,3.8c0.1,0.9,0.2,1.7,0.2,2.6s0,1.6,0,2.4
		c-0.1,1.5,0,3.1,0.4,4.7c0.2,1.1,0.4,2.2,0.5,3.5c0.1,1.2,0.3,2.6,0.4,4c0.3,2.8,0.2,5.3-0.2,7.3c-0.1,0.4-0.2,0.6-0.3,0.6
		c-0.1-0.1-0.2,0.2-0.3,0.8c-0.9-0.1-1.6-0.5-2.1-1.4c-0.2-0.4-0.5-0.9-0.8-1.4c-0.3-0.5-0.6-1.1-1-1.7c-2.3-3.6-4.1-8.9-5.5-15.8
		c-1.3-6.9-2.1-12.6-2.4-17.1c-0.1-2.1-0.8-2.6-2-1.5c-1.2,1.1-3.3,1.3-6.3,0.5l-2.6-1.2c0-0.5,0-0.9,0-1.2c0-0.3,0-0.5-0.1-0.6
		c-0.1-0.2,0-0.7,0.2-1.4c0.3-1.1,0.7-2,1.1-2.8c0.4-0.7,0.8-1.3,1.3-2c0.4-0.7,1-1.3,1.6-1.8c1.1-0.9,2-1.5,2.7-1.8
		c0.8-0.3,1.7-0.8,2.8-1.4c0.7-0.4,1.1-0.7,1.1-0.9c0-0.2,0.1-0.8,0.3-1.7c0.5-2.7,0.8-4.2,1-4.7c0.1-0.2,0.2-0.7,0.4-1.4
		c0.2-0.8,0.5-1.8,0.9-3.1c0.3-1.1,1.1-2.9,2.3-5.3c1.3-2.5,2.2-4.1,2.9-4.9l0.9-1.3c0.7-0.9,1.6-1.8,2.9-2.6
		c1.3-0.8,2.4-1.5,3.3-2.2c1.4-0.9,3.5-1.7,6.1-2.2c2.8-0.6,5-0.6,6.7,0c1.3,0.5,2.3,0.9,3.1,1.3c0.8,0.4,1.7,1.3,2.7,2.6
		c1.3,1.8,1.9,3.7,1.8,5.9c0,0.1,0,0.3,0,0.4c0,0.2,0,0.3,0,0.4v0.2l0,0.5c-0.1,0.8-0.4,1.6-0.9,2.6c-0.3,0.5-0.5,0.9-0.8,1.3
		c-0.2,0.4-0.5,0.8-0.7,1.1l-1.1,1.5c0,0-0.3,0.2-0.9,0.4c-0.9,0.4-1.7,0.8-2.6,1.4c-0.9,0.6-1.4,0.3-1.5-0.8
		c-2.1,0-2.8-0.4-2.2-1.1c0.6-0.8-0.7-0.5-3.9,0.7c-1.6,0.6-2.9,1.7-3.9,3.2L311.6,330.3z M326.7,346.4c-0.1-0.1,0-0.2,0.1-0.4
		c0.2-0.2,0.4-0.2,0.5-0.1c0.4,0.3,0.3,0.4-0.1,0.5C327,346.4,326.8,346.4,326.7,346.4z"/>
	<path class="st1" d="M348.9,386.7c-0.9,0-1.5-0.1-1.6-0.2c-0.1-0.1-1-0.2-2.6-0.2c-1.1,0-2.3-0.4-3.6-1.2c-2.7-1.4-4.9-2.9-6.7-4.5
		c-1.7-1.5-3.2-3.8-4.6-6.8c-1.6-3.7-2.6-8-2.9-13.1c-0.3-5.1,0.3-9.6,1.9-13.4c0.4-0.9,0.8-1.8,1.1-2.6c0.3-0.8,0.6-1.6,0.9-2.2
		c0.3-0.7,0.7-1.4,1.1-2.2c0.5-0.8,1-1.7,1.7-2.6l1.4-1.5l0.2-0.2l3.8-2.9c1.8-1.3,4.5-1.9,8.1-2.1c3.6-0.1,6.3,0.2,8.2,0.8
		c2.5,0.9,3.6,1.5,3.5,1.5c-0.1,0.1,0.3,0.3,1.4,0.9c0.2,0.1,0.3,0.2,0.4,0.2c0.1,0,0,0-0.1,0c-0.1-0.1,0-0.1,0.4,0.1
		c0.2,0.2,0.3,0.3,0.5,0.3l2.1,2.1c0.3,0.3,0.6,0.6,0.8,0.8c0.2,0.2,0.4,0.5,0.5,0.7c0.3,0.4,0.7,1,1.1,1.8l3.5,6.4
		c1.5,2.4,2.4,4.7,2.6,6.8c0.1,1.1,0.2,2.1,0.3,3.2c0.1,1.1,0.2,2.3,0.3,3.5l-0.5,7.5c-0.3,1.6-1,3.5-2.1,5.6
		c-1.1,2.2-2.3,4.1-3.5,5.4c-1.2,1.4-3.1,2.8-5.8,4.2c-1.3,0.7-2.5,1.3-3.6,1.8c-1.1,0.5-2,0.8-2.9,1c-1.3,0.3-2.1,0.5-2.5,0.7
		C351.7,386.7,350.6,386.7,348.9,386.7z M348.5,375.4c0.2-0.4,0.6-1,1.2-1.6l4.7-7.9l0.6-1.1c0.1-0.2,0.2-0.7,0.3-1.3
		c0.1-1,0.1-1.9,0.1-2.7c0-0.8,0-1.5-0.1-2.1c-0.1-1.3-0.6-2.6-1.5-3.9c-0.4-0.6-0.8-1.2-1.1-1.8c-0.3-0.6-0.6-1.3-0.9-1.9
		c-0.5-1.3-1-2.1-1.6-2.3l-1.8-0.2h-0.3c-0.6,0-1.2,0-1.9-0.1c-0.7,0-1.3,0.1-1.7,0.3c-0.3,0.2-1.1,1.1-2.4,2.8
		c-1.2,1.7-2,2.8-2.2,3.5c-0.3,0.7-0.6,1.6-0.8,2.7c-0.2,1.1-0.4,2.3-0.6,3.8c-0.3,2.8-0.1,5.1,0.3,6.9l2.5,8.4l2.5-0.6
		c0.2-0.1,0.3,0,0.3,0.2c0,0.1,0.1,0.3,0.4,0.4c0.3,0.1,1.3,0.2,2.9,0.3L348.5,375.4z"/>
	<path class="st1" d="M377.7,317.5c0.7-0.3,1-0.4,0.9-0.2c-0.1,0.1,0.1,0.1,0.6-0.1c0.6-0.3,0.8-0.5,0.5-0.6
		c-0.3-0.2,0.8-0.1,3.2,0.3c0.1,1,0.2,1.3,0.4,0.9c0.2-0.4,0.9-0.2,2,0.5c1,0.6,1.5,1.2,1.7,1.8c0.1,0.3,0.1,0.6,0.1,0.9
		c0.4-0.5,0.8-0.4,1.2,0c0.3,0.4,0.6,0.9,0.8,1.5c0.2,0.8,0.3,1.2,0.1,1.1c-0.1,0-0.2,0.1-0.2,0.4c-0.1,0.3,0,0.8,0.3,1.3
		c0.3,0.7,0.5,1.3,0.5,1.9c0,0.9-0.1,1.4-0.2,1.6c-0.1,0.1-0.1,1.2-0.2,3.3l-0.4,6.8c1.7-1.1,2.8-2,3.2-2.7c0.5-0.7,2.2-1.7,5.2-3
		l2.9-1.5c0.6-0.4,1.2-0.6,1.9-0.7c0.7-0.1,1.4-0.1,2,0c0.6,0.1,1.2,0.2,1.7,0.4c0.6,0.2,1.1,0.4,1.6,0.7c0.5,0.3,1.1,0.6,1.7,1
		l1.7,1.5c0.4,0.6,0.5,0.8,0.2,0.7c-0.3-0.2,0,0,0.9,0.4c-0.4,0.7-0.5,1-0.4,0.9c0.1-0.1-0.1-0.1-0.6,0.1c0.3,0.5,0.4,0.7,0.3,0.7
		c-0.1-0.1,0.2-0.1,1,0c-0.1,0.9-0.2,1.3-0.3,1.2c-0.1-0.1-0.5-0.1-1,0.1c0.2,0.9,0.4,1.3,0.6,1.1c0.2-0.1,0.2,0.3,0,1.3l-0.1,0.4
		c-0.3,1.6-0.4,2.1-0.5,1.6c-0.1-0.5-0.6-0.2-1.4,0.9c-0.2,0.3-0.3,0.5-0.4,0.7c-0.1,0.2-0.2,0.4-0.4,0.7c-0.4,0.5-0.8,0.8-1.2,0.9
		c-0.4,0.1-0.6,0.2-0.7,0.2c-0.1,0-0.1,0,0,0c0.2-0.1,0.2-0.2,0-0.2c-0.7,0-1.1,0-1.1,0.1c0,0.1-0.4,0.2-1.2,0.2
		c0.3,0.3,0.5,0.5,0.5,0.7c0,0.2-0.1,0.3-0.3,0.4c-0.5,0.2-1.3,0.3-2.5,0.2c-1.3-0.1-2.3-0.1-3.1,0c-1,0.2-2,0.7-3.2,1.6
		c-0.6,0.4-1.1,0.8-1.5,1.2c-0.5,0.4-0.9,0.7-1.2,1c-1.1,1-2.2,2.4-3.2,4.3c-0.5,0.9-0.9,1.8-1.1,2.6c-0.3,0.8-0.4,1.5-0.4,2.2
		c-0.1,1.3-0.1,2.6-0.1,4c0,1.4,0.1,2.7,0.1,4c0,1.7-0.1,3.9-0.4,6.8c-0.2,2.8-0.6,4.9-1.2,6.4c-0.2,0.4-0.4,0.9-0.6,1.3
		s-0.4,0.9-0.6,1.4c-0.3,0.6-0.6,1-0.8,1.3c-0.2,0.3-0.4,0.6-0.6,1.2l-1.4-0.6c-0.3-0.1-0.8-0.8-1.5-2.2c-0.3-0.7-0.6-1.4-0.8-2.1
		s-0.4-1.4-0.7-2.1c-0.5-1.3-0.9-2.9-1-4.8c-0.2-1.9-0.3-3.5-0.5-4.7c-0.2-1.1-0.4-2.2-0.6-3.2c-0.2-1-0.4-1.9-0.6-2.9
		c-0.2-0.9-0.4-1.8-0.6-2.7c-0.2-0.9-0.4-1.8-0.6-2.7l-1.9-20.7c0-1.3,0-2.8-0.1-4.4c-0.1-1.6-0.3-3.3-0.5-5.2
		c-0.5-3.8,0.2-6.7,1.9-8.7l0.3-0.3l0.2-0.2c0.3-0.3,0.5-0.6,0.8-0.8l0.9-1.2v-0.1C377.7,317.7,377.7,317.6,377.7,317.5L377.7,317.5
		z M388.9,325.9C388.9,325.9,388.9,325.9,388.9,325.9C389,325.9,389,326,388.9,325.9C389,325.9,389,325.8,388.9,325.9z"/>
	<path class="st1" d="M413.6,328.1c0-1.4,0.3-2.5,1-3.4l1.9-2c0.3-0.3,0.5-0.5,0.7-0.9c0.2-0.3,0.4-0.6,0.8-0.8c0,0,0.2-0.1,0.6-0.1
		c0.8-0.1,1,0,0.7,0.1c-0.1,0.1-0.1,0,0,0c0.1-0.1,0.4-0.3,0.8-0.5c0.3-0.2,0.5-0.3,0.4-0.4c-0.1-0.1,0.2-0.2,0.8-0.3
		c0.2,0.1,0.3,0.2,0.3,0.3c0.1,0.1,0.1,0.1,0.1,0.2c0,0.1,0,0.1,0,0.2c0,0.1,0,0.2,0.1,0.3c0.6-0.4,1.1-0.7,1.5-0.8
		c0.4-0.1,1,0.1,1.9,0.7c0.7,0.5,1,0.8,0.8,0.8c-0.2,0-0.1,0.2,0.3,0.5c0.4,0.4,0.5,0.4,0.4,0.1c-0.1-0.3,0.2-0.1,0.8,0.8l1,1.6
		c1.7,2,2.2,3.5,1.5,4.4c-0.8,0.9,0.4,0.8,3.6-0.3c2-0.7,4.1-1.1,6.1-1.2c2.1-0.1,4.1,0.4,6,1.4c1.6,0.9,2.6,1.8,2.8,2.6
		c0.3,0.8,0.8,1.5,1.5,2.2l0.9,1.4c0.5,1.2,0.7,2.4,0.7,3.5h0.9c0.1-0.4,0.6-0.9,1.6-1.6l2.2-1.7c0.1-0.1,0.1-0.1,0.2-0.1l5.1-3.5
		c2-1.1,4-1.6,6-1.5c2.6,0.1,4.9,1,6.9,2.5c2,1.6,3.4,3.1,4.1,4.7c0.2,0.6,0.4,1,0.5,1.4c0.1,0.4,0.2,0.7,0.2,0.9c0,0.1,0,0.2,0,0.3
		c0,0.1,0,0.1,0,0.2c0,0.1,0,0.1,0,0.2c0,0.1,0,0.3,0,0.5c0.1,1.2,0,3.3-0.3,6.3c-0.3,3.1-0.5,5.1-0.6,6.2
		c-0.7,4.6-1.5,9.1-2.6,13.5c-1.1,4.5-2.3,9-3.8,13.5l-1.4,4.1c-0.5,1.6-1.5,2.4-3.1,2.4c-0.1-0.4-0.3-0.8-0.4-1
		c-0.2-0.2-0.4-0.6-0.6-1.1c-1.4-3.2-1.8-7.1-1.2-11.6c0.6-4.5,1-8.4,1.2-11.7l-0.2-12.8l-1.2,0.8c-0.7,0.4-1.3,0.9-1.8,1.4
		c-0.6,0.5-1.1,1-1.7,1.6c-0.6,0.5-1.1,1-1.7,1.6c-0.6,0.5-1.2,1-1.7,1.4c0,0,0,0-0.2,0.1l-0.9,0.7c-2.4,2.2-3.8,3.3-4.2,3.4
		c-0.3,0.1-0.7,1.5-1.2,4.1c-0.3,1.2-0.5,2.3-0.6,3.2c-0.2,0.9-0.4,1.9-0.6,3l-3.3,11.4c-0.3,0.9-0.7,1.8-1.2,2.7
		c-0.4,0.9-1.2,1.3-2.2,1.4c-0.1-0.5-0.4-1.1-0.6-1.8c-0.3-0.6-0.7-1.4-1.1-2.2c-0.9-1.6-1.4-3.9-1.5-7l-0.1-2.4l-0.2-3.2
		c0-0.3,0-0.6-0.1-0.9c0-0.3,0-0.5,0-0.6c0-2.3-0.2-6-0.6-10.9c-0.4-5-1-8.4-1.9-10.3c-0.3,0.1-0.5,0.3-0.7,0.4
		c-0.2,0.1-0.4,0.2-0.5,0.3l-0.6,0.4c-0.9,0.6-1.7,1.3-2.4,2c-0.7,0.8-1.3,1.5-2,2.2c-0.3,0.4-0.6,0.7-0.9,0.9
		c-0.2,0.3-0.5,0.6-0.9,0.9c-1.1,1.1-1.9,1.8-2.3,1.9c-0.3,0.1-0.6,0.9-0.8,2.4l-1.2,6.2l-1.1,5c-0.3,1.2-0.5,2.4-0.8,3.6
		c-0.3,1.2-0.6,2.5-0.9,3.8c-0.3,1.3-0.6,2.5-1,3.7s-0.7,2.3-1,3.3c-0.7,2.1-1.3,3.3-1.9,3.7c-0.7-0.2-1.2-0.7-1.6-1.6l-0.9-2.3
		c-0.3-0.6-0.5-1.3-0.8-2.1c-0.2-0.8-0.4-1.7-0.6-2.6l-1.1-33.5c0-0.1,0-0.4,0-0.8c0-0.1,0-0.2,0-0.3c0-0.2,0-0.3,0-0.6l0.3-5.5
		c0-0.6,0-1.3,0-2s0-1.5-0.1-2.2c-0.1-0.9-0.2-1.7-0.3-2.4S413.6,329,413.6,328.1z M427,323.9C427,323.9,427,323.9,427,323.9
		L427,323.9L427,323.9z M474.3,332.9C474.2,332.9,474.3,332.9,474.3,332.9C474.3,332.9,474.4,332.9,474.3,332.9L474.3,332.9z"/>
	<path class="st1" d="M498.8,387.4c-3.1,0-6.2-1.3-9.3-3.8c-3-2.6-5.2-5.3-6.6-8.2c-0.9-1.9-1.7-2.8-2.5-2.6
		c-0.8,0.2-1.3-0.2-1.5-1.1l0-0.6c0.2-1.6,0.5-2.4,0.9-2.3s0.5-0.5,0.2-2l-0.4-6.9c0-1,0.2-2.2,0.6-3.6c0.2-0.7,0.4-1.4,0.5-2
		c0.2-0.6,0.3-1.1,0.4-1.6c1.1-3.4,2.8-6.4,5.2-9.2c1.2-1.4,2.5-2.8,3.7-4c1.3-1.2,2.6-2.4,3.9-3.5l1.7-1.2c0.7-0.5,1.5-1,2.4-1.5
		c0.9-0.5,1.8-0.9,2.6-1.2c1.2-0.3,2.5-0.6,3.8-0.8c1.3-0.2,2.7-0.3,4.2-0.4c3-0.2,5.5,0.5,7.5,2l1.8,1.4c2.2,1.8,3.6,4.2,4.2,7.3
		c0.6,3.1,0.5,5.9-0.3,8.5c-0.8,2.6-2,4.6-3.5,6.1c-0.3,0.3-0.6,0.6-0.8,0.9c-0.2,0.3-0.4,0.5-0.6,0.7c-1.2,1.6-2.9,3.1-4.9,4.4
		l-5.6,3.4l-6.1,3.2c-0.6,0.3-1.7,0.9-3.2,1.7c-1.5,0.7-2.5,1.1-3,1.2c0.5,2.2,2.1,3.9,4.6,5c4,1.8,7.9,1.5,11.8-1
		c3.9-2.5,6.1-4.9,6.7-7c0.7,0,1.1,0,1.1,0s0.2,0.2,0.5,0.6c0.5,0.8,0.5,2.5,0,5c-0.4,2.5-1.5,4.8-3.4,6.7c-1.1,1.1-2.5,2.1-4.3,3
		c-1.8,0.9-3.4,1.6-4.8,2c-0.5,0.1-1,0.3-1.7,0.4s-1.3,0.3-2,0.4c-0.7,0.1-1.5,0.2-2.1,0.3C500,387.4,499.4,387.4,498.8,387.4z
		 M506.2,352.1c0-0.6,0.1-0.9,0.1-0.8c0,0.1,0.2-0.1,0.6-0.4l3-2.6c0.6-0.5,0.9-2.1,0.9-4.8c-1.8-0.4-3.5-0.3-4.9,0.2L503,345
		c-0.3,0.2-0.7,0.5-1.1,0.8c-0.4,0.3-0.9,0.7-1.5,1.2c-0.1,0-0.3,0.2-0.7,0.6l-3.6,3.8c-2,2.4-3.1,4-3.4,5c-0.1,0.4-0.3,0.9-0.5,1.4
		c-0.2,0.6-0.5,1.2-0.8,1.9c0.7-0.1,1.7-0.4,2.9-1c0.6-0.3,1.2-0.6,1.7-0.9c0.5-0.3,1-0.5,1.5-0.7c0.4-0.2,1-0.6,1.8-1
		c0.8-0.4,1.7-1,2.8-1.6C504.2,352.9,505.6,352.2,506.2,352.1z"/>
	<path class="st1" d="M528,317.5c0.7-0.3,1-0.4,0.9-0.2c-0.1,0.1,0.1,0.1,0.6-0.1c0.6-0.3,0.8-0.5,0.5-0.6c-0.3-0.2,0.8-0.1,3.2,0.3
		c0.1,1,0.2,1.3,0.4,0.9c0.2-0.4,0.9-0.2,2,0.5c1,0.6,1.5,1.2,1.7,1.8c0.1,0.3,0.1,0.6,0.1,0.9c0.4-0.5,0.8-0.4,1.2,0
		c0.3,0.4,0.6,0.9,0.8,1.5c0.2,0.8,0.3,1.2,0.1,1.1c-0.1,0-0.2,0.1-0.2,0.4c-0.1,0.3,0,0.8,0.3,1.3c0.3,0.7,0.5,1.3,0.5,1.9
		c0,0.9-0.1,1.4-0.2,1.6c-0.1,0.1-0.1,1.2-0.2,3.3l-0.4,6.8c1.7-1.1,2.8-2,3.2-2.7s2.2-1.7,5.2-3l2.9-1.5c0.6-0.4,1.2-0.6,1.9-0.7
		c0.7-0.1,1.4-0.1,2,0c0.6,0.1,1.2,0.2,1.7,0.4c0.6,0.2,1.1,0.4,1.6,0.7c0.5,0.3,1.1,0.6,1.7,1l1.7,1.5c0.4,0.6,0.5,0.8,0.2,0.7
		c-0.3-0.2,0,0,0.9,0.4c-0.4,0.7-0.5,1-0.4,0.9c0.1-0.1-0.1-0.1-0.6,0.1c0.3,0.5,0.4,0.7,0.3,0.7c-0.1-0.1,0.2-0.1,1,0
		c-0.1,0.9-0.2,1.3-0.3,1.2c-0.1-0.1-0.5-0.1-1,0.1c0.2,0.9,0.4,1.3,0.6,1.1c0.2-0.1,0.2,0.3,0,1.3l-0.1,0.4
		c-0.3,1.6-0.4,2.1-0.5,1.6c-0.1-0.5-0.6-0.2-1.4,0.9c-0.2,0.3-0.3,0.5-0.4,0.7c-0.1,0.2-0.2,0.4-0.4,0.7c-0.4,0.5-0.8,0.8-1.2,0.9
		c-0.4,0.1-0.6,0.2-0.7,0.2c-0.1,0-0.1,0,0,0c0.2-0.1,0.2-0.2,0-0.2c-0.7,0-1.1,0-1.1,0.1c0,0.1-0.4,0.2-1.2,0.2
		c0.3,0.3,0.5,0.5,0.5,0.7c0,0.2-0.1,0.3-0.3,0.4c-0.5,0.2-1.3,0.3-2.5,0.2c-1.3-0.1-2.3-0.1-3.1,0c-1,0.2-2,0.7-3.2,1.6
		c-0.6,0.4-1.1,0.8-1.5,1.2c-0.5,0.4-0.9,0.7-1.2,1c-1.1,1-2.2,2.4-3.2,4.3c-0.5,0.9-0.9,1.8-1.1,2.6c-0.3,0.8-0.4,1.5-0.4,2.2
		c-0.1,1.3-0.1,2.6-0.1,4c0,1.4,0.1,2.7,0.1,4c0,1.7-0.1,3.9-0.4,6.8c-0.2,2.8-0.6,4.9-1.2,6.4c-0.2,0.4-0.4,0.9-0.6,1.3
		s-0.4,0.9-0.6,1.4c-0.3,0.6-0.6,1-0.8,1.3c-0.2,0.3-0.4,0.6-0.6,1.2l-1.4-0.6c-0.3-0.1-0.8-0.8-1.5-2.2c-0.3-0.7-0.6-1.4-0.8-2.1
		c-0.2-0.7-0.4-1.4-0.7-2.1c-0.5-1.3-0.9-2.9-1-4.8c-0.2-1.9-0.3-3.5-0.5-4.7c-0.2-1.1-0.4-2.2-0.6-3.2c-0.2-1-0.4-1.9-0.6-2.9
		c-0.2-0.9-0.4-1.8-0.6-2.7c-0.2-0.9-0.4-1.8-0.6-2.7l-1.9-20.7c0-1.3,0-2.8-0.1-4.4c-0.1-1.6-0.3-3.3-0.5-5.2
		c-0.5-3.8,0.2-6.7,1.9-8.7l0.3-0.3l0.2-0.2c0.3-0.3,0.5-0.6,0.8-0.8l0.9-1.2v-0.1C528,317.7,528,317.6,528,317.5L528,317.5z
		 M539.3,325.9C539.2,325.9,539.3,325.9,539.3,325.9C539.3,325.9,539.4,326,539.3,325.9C539.4,325.9,539.3,325.8,539.3,325.9z"/>
	<path class="st1" d="M561.8,347.3v-0.4V347.3l0-0.4c0,0,0-0.2,0-0.5c0.4-3,1.4-5.3,2.9-6.7c0.8-0.7,1.6-1.4,2.3-2.1
		c0.8-0.7,1.6-1.3,2.4-2c2.4-1.9,5.7-3.1,9.9-3.8c4.2-0.7,7.7-0.6,10.7,0.3c4.3,1.3,7.6,3.5,9.9,6.5c1.8,2.5,2.8,4.7,3,6.7
		c0.2,1.9-0.4,4.3-1.9,7.1l-0.8,1.5c-0.2,0.4-0.3,0.6-0.3,0.7c0,0-0.1,0.3-0.3,0.7c-0.4,0.7-0.7,1.1-1,1.2c-0.3,0.1-0.6,0.4-0.8,0.9
		c-0.6-0.5-0.9-0.7-0.7-0.7c0.2,0,0-0.1-0.7-0.1c-0.7,0-1,0-0.9,0.1c0.1,0.1-0.1-0.3-0.5-1l-1-1.2c-0.3-0.4-0.3-0.6-0.3-0.6
		c0.1,0,0.1-0.4,0.2-1.2c-1.4-0.1-2.5-0.9-3.3-2.5c-0.5-0.9-0.7-1.4-0.7-1.4c0.1,0-0.5-0.3-1.7-0.9c-0.5-0.3-0.9-0.5-0.9-0.6
		c-0.1-0.2-0.6-0.4-1.4-0.7c-1.1-0.3-2.5-0.3-4.2-0.1c-1.7,0.2-3.2,0.6-4.4,1.2c-0.1,0-0.1,0.1-0.3,0.1c-0.1,0-0.3,0.1-0.5,0.2
		c-0.1,0.1-0.2,0.1-0.3,0.1c-0.1,0-0.1,0.1-0.2,0.1c-0.1,0-0.1,0-0.2,0l-0.8,0.6c-0.2,0.1-0.1,0.7,0.3,1.8c0.3,0.8,0.8,1.5,1.7,2.2
		c0.5,0.3,0.9,0.6,1.3,0.9c0.4,0.3,0.8,0.5,1.2,0.7c0.3,0.2,0.6,0.4,0.9,0.5c0.3,0.1,0.6,0.3,1,0.4c0.8,0.3,1.5,0.7,2.1,1
		c0.7,0.3,1.4,0.7,2.3,1l8.2,4.3c1.9,1.2,3.6,2.7,5,4.4c2.8,3.5,3.7,7.1,2.5,10.9c-1.1,3.8-3.7,6.6-7.7,8.5l-1.2,0.4l-2,0.6
		c-0.3,0.1-0.4,0.1-0.4,0.1s0,0.1,0.1,0.1c0.1,0,0.2,0,0.1,0c-0.1,0-0.3,0-0.6,0c-4.2,0-7.6-0.2-10.3-0.7c-2.6-0.5-5.5-2-8.8-4.5
		c-0.5-0.3-0.9-0.7-1.3-1.2c-0.4-0.5-0.8-1.1-1.2-1.8l-1.8-3.4c-0.2-0.4-0.4-0.9-0.6-1.3c-0.2-0.5-0.4-0.9-0.6-1.4s-0.3-1-0.4-1.5
		c-0.1-0.5-0.1-1,0-1.5v-0.1c0,0,0,0,0,0c0,0,0,0,0,0l0.1-0.4l0.1-0.3c0-0.1,0.1-0.2,0.1-0.3c0,0,0.1-0.1,0.1-0.1c0-0.1,0-0.1,0-0.2
		c0-0.1,0-0.2,0-0.5c1.3,0,2.5,0.4,3.6,1.2l1.9,1.9c2,2.8,5,4.8,9,6c4,1.2,7.1,1.3,9.4,0.3c1.5-0.6,1.8-1.6,1-2.9
		c0,0-0.1-0.1-0.2-0.2c-0.1-0.1-0.1-0.2-0.1-0.2c-1-1.3-2.4-2.3-4-3.1c-0.8-0.4-1.6-0.8-2.4-1.2s-1.5-0.7-2.2-1
		c-0.2-0.1-0.3-0.1-0.4-0.1c-0.1,0-0.2,0-0.2,0c-0.1,0-0.1,0-0.2,0c-0.1,0-0.2-0.1-0.4-0.1l-5-2l-2.5-1.1c-0.9-0.4-1.6-0.8-2.3-1.2
		c-0.7-0.5-1.4-0.9-2.1-1.5l-3.7-3.4c-1-1.3-1.9-2.8-2.6-4.5c-0.3-0.7-0.4-1.5-0.5-2.2c-0.1-0.7-0.2-1.5-0.3-2.2L561.8,347.3z"/>
</g>
</svg>
