<?xml version="1.0" encoding="utf-8"?>
<!-- Generator: Adobe Illustrator 19.0.0, SVG Export Plug-In . SVG Version: 6.00 Build 0)  -->
<svg version="1.1" id="Layer_1" xmlns="http://www.w3.org/2000/svg" xmlns:xlink="http://www.w3.org/1999/xlink" x="0px" y="0px"
	 viewBox="0 0 768 768" style="enable-background:new 0 0 768 768;" xml:space="preserve">
<metadata><?xpacket begin="﻿" id="W5M0MpCehiHzreSzNTczkc9d"?>
<x:xmpmeta xmlns:x="adobe:ns:meta/" x:xmptk="Adobe XMP Core 5.6-c067 79.157747, 2015/03/30-23:40:42        ">
   <rdf:RDF xmlns:rdf="http://www.w3.org/1999/02/22-rdf-syntax-ns#">
      <rdf:Description rdf:about=""/>
   </rdf:RDF>
</x:xmpmeta>
                                                                                                    
                                                                                                    
                                                                                                    
                                                                                                    
                                                                                                    
                                                                                                    
                                                                                                    
                                                                                                    
                                                                                                    
                                                                                                    
                                                                                                    
                                                                                                    
                                                                                                    
                                                                                                    
                                                                                                    
                                                                                                    
                                                                                                    
                                                                                                    
                                                                                                    
                                                                                                    
                           
<?xpacket end="w"?></metadata>
<style type="text/css">
	.st0{fill:#D5576A;}
	.st1{fill:#FFFFFF;}
</style>
<path id="XMLID_88_" class="st0" d="M666.8,413.6c-4.3-52.3-34.5-91.1-83-106.5c-1.5-0.5-2.9-0.9-4.5-1.3
	c12.1-35.7,2.1-79.6-18.1-111.1c-26.2-40.8-71.2-65.2-120.4-65.2c-4.6,0-9.3,0.2-13.9,0.7c-45,4.4-85.2,30.5-108.4,69.4
	c-18.4-15.9-42.2-24.4-69.8-24.4c-45,0-94,23.7-122,58.8c-23.8,30-32.1,70.3-22.3,108c6.6,25.4,20.9,47,40.6,62.1
	c-22.2,27.2-35,64.3-33.1,99.5c3.8,68,58.5,124.2,130.2,133.6c6.4,0.8,12.9,1.3,19.3,1.3c49.9,0,96.9-25.1,127.9-66.3
	c1.8,2.6,3.7,5.1,5.7,7.5c24,29,61.8,45.7,103.6,45.7l0,0c5.9,0,11.8-0.3,17.6-1C615.7,612.8,674.4,506.1,666.8,413.6z"/>
<circle id="XMLID_106_" class="st0" cx="705.8" cy="317.6" r="23"/>
<circle id="XMLID_105_" class="st0" cx="653.9" cy="280.8" r="13.7"/>
<circle id="XMLID_98_" class="st0" cx="720.8" cy="422.1" r="35"/>
<g id="XMLID_24_">
	<path id="XMLID_161_" class="st1" d="M250.4,339.8c0.9-0.5,1.9-0.6,3-0.1c1.1,0.4,2,1.1,2.5,2s0.7,1.6,0.4,2.3
		c-0.3,0.7-0.6,1.5-0.9,2.6c-0.4,1.1-0.6,2-0.7,2.8c-0.1,0.8,0,1.3,0.3,1.6s2.4,1.4,6.3,3.3c4,1.9,6.6,3.7,8,5.3
		c1.4,1.6,2.4,2.8,2.9,3.7c0.5,0.9,1,1.9,1.3,3.2c0.4,1.2,0.6,2.4,0.7,3.6c0.1,1.1,0,2.6-0.3,4.4s-1.7,4-4.2,6.6s-4.7,4.5-6.6,5.7
		c-1.8,1.1-3.8,2.1-5.9,2.9s-4.9,1.7-8.3,2.6c-3.4,1-5.8,1.5-7.3,1.6c-1.4,0.1-2.9,0.2-4.5,0.3c-1.6,0.1-2.6,0.7-3,1.7
		c-0.4,1.1-1.1,2.5-2.1,4.5c-1,1.9-1.8,4.2-2.6,6.8c-0.7,2.6-1.5,4.4-2.3,5.3s-1.7,1.4-2.8,1.3s-1.9-0.4-2.2-1
		c-0.4-0.6,0.5-4.3,2.6-11.1c2.1-6.8,4.4-13.1,6.9-18.9s3.8-9.3,4.1-10.5s0.5-2,0.8-2.2s0.8-2.1,1.5-5.4c0.7-3.4,0.3-5-1.2-5
		s-1.4-1.1,0.4-3.3c1.8-2.2,3.4-4,4.9-5.4s2.5-2.6,3.2-3.6c0.6-1,1.1-1.8,1.6-2.4c0.4-0.7,0.9-1.5,1.5-2.4
		C248.8,341.1,249.5,340.4,250.4,339.8z M253.1,360.8c-1-0.2-2.1,0.3-3.4,1.5c-1.3,1.1-2.7,3.4-4.2,6.7c-1.5,3.3-2.9,6.5-4.4,9.6
		c-1.4,3-2.4,5.2-3,6.5s0.6,1.8,3.7,1.3c3.1-0.4,6.9-1.4,11.4-3s7.8-3.5,9.8-5.9s3-4,3.1-5s0-1.9-0.1-2.9c-0.2-1-0.8-2.2-1.8-3.6
		c-1.1-1.4-2.9-2.6-5.5-3.6C255.9,361.6,254.1,361,253.1,360.8z"/>
	<path id="XMLID_164_" class="st1" d="M285.1,377.6c2.9-0.2,4.7,0.3,5.4,1.5c0.6,1.2,0.9,2.7,0.9,4.6s-0.9,3.5-2.6,4.7
		c-1.7,1.3-4,2.6-6.8,3.9c-0.8,0.3-1.5,0.5-2.1,0.5s-1.2,0-1.6-0.1s-0.7-0.1-1-0.2c-0.2-0.1-0.4,0-0.4,0.1c-0.8,1.3-1.2,2.5-1.2,3.8
		s0.4,2.5,1.3,3.5c0.9,1.1,1.8,1.7,2.9,1.9c1.1,0.2,2.2,0.1,3.3-0.1c1.1-0.2,3.3-1,6.3-2.3c3.1-1.3,5.2-2.5,6.4-3.6
		c1.2-1.1,2.4-2.2,3.5-3.3s1.3-1.1,0.5,0s-1.8,2.3-2.9,3.8c-1.2,1.5-2.6,3-4.4,4.4c-1.7,1.5-3.2,2.6-4.3,3.4s-2.6,1.5-4.4,2.1
		s-3.6,0.8-5.4,0.6c-1.8-0.2-3.1-0.6-4-1.2s-1.7-1.3-2.4-2c-0.7-0.8-1.4-1.7-1.8-2.8c-0.5-1.1-0.7-2.5-0.8-4.4
		c0-1.9,0.4-3.9,1.3-6.1s1.9-4,3.1-5.5c1.1-1.4,2.7-2.9,4.6-4.4C280.4,379.1,282.6,378.1,285.1,377.6z M285.2,383.5
		c-0.3-0.3-1.1-0.2-2.3,0.5c-1.2,0.6-2.1,1.3-2.6,2.1c-0.5,0.8-0.6,1.3-0.3,1.7s1.1,0.2,2.2-0.4s2.1-1.3,2.7-1.9
		C285.6,384.8,285.7,384.2,285.2,383.5z"/>
	<path id="XMLID_167_" class="st1" d="M301.8,386.9c1.6-6.1,3.1-9.1,4.6-9s2.6,0.8,3.3,2c0.7,1.2,0.7,2.6-0.2,4.4
		c-0.9,1.7-1,2.5-0.3,2.4s1.7-0.5,2.9-1.3c1.2-0.8,2.3-1.4,3.4-1.8c1.1-0.5,1.9-0.8,2.6-0.9s1.9,0.1,3.8,0.7s3.6,1.4,5.3,2.4
		c1.7,1,3.9,1.1,6.6,0.3c2.7-0.9,2.4-0.6-0.9,0.9c-3.3,1.4-6.8,2.1-10.3,2s-6.2,0.3-8.1,1.3c-1.9,0.9-3.5,1.9-4.8,3.1
		c-1.3,1.1-2.5,3-3.7,5.5c-1.1,2.6-2,4.7-2.6,6.5s-1.1,3.2-1.6,4.3c-0.5,1.1-1.4,1.7-2.8,1.8c-1.4,0.1-2.4-0.5-2.8-1.5
		c-0.5-1.1-0.6-1.8-0.3-2.1c0.2-0.3,0.9-2.3,2-6C298.9,397.9,300.3,393,301.8,386.9z"/>
	<path id="XMLID_169_" class="st1" d="M354,347.6c2.1-1.2,3.8-1.6,5.1-1.1c1.3,0.5,2.5,1.3,3.4,2.2c0.9,0.9,1.7,1.9,2.2,3
		s0.4,2.2-0.4,3.5c-0.7,1.3-1.5,1.6-2.2,1s-1.7-1.2-2.9-1.7c-1.2-0.5-2.3-0.4-3.3,0.3c-1,0.7-2.1,2.2-3.4,4.2s-2.8,4.9-4.5,8.6
		s-2.8,6.4-3.3,8c-0.5,1.7,0.4,2.5,2.6,2.4c2.2,0,4.8,0,7.6,0c2.9,0,8.4,0,16.7-0.2c8.3-0.2,9.1-0.2,2.4-0.1
		c-6.7,0.2-12,0.6-15.8,1.5c-3.9,0.8-6.5,1.4-7.8,1.8c-1.4,0.4-2.8,0.8-4.3,1.3s-2.5,1-2.9,1.5s-1,1.2-1.6,2
		c-0.6,0.9-2.7,6.5-6.2,17s-5.7,16.9-6.5,19.2s-1.8,4.1-3,5.1c-1.1,1-2.5,1.5-4.2,1.4c-1.6-0.1-2.9-1.1-3.8-2.9s-1.1-3-0.9-3.5
		c0.3-0.5,0.6-0.4,0.9,0.3c0.3,0.7,0.8,1.2,1.5,1.4s1.3,0,1.9-0.7s3.3-7.4,7.9-20.3s5.5-18.7,2.8-17.5c-2.8,1.2-4,0.5-3.8-2.2
		c0.2-2.6,1.5-4,3.8-4.1s3.7-0.4,4.3-0.8c0.6-0.5,1.8-3,3.7-7.7c1.9-4.7,3.4-8.2,4.6-10.6s2.5-4.7,4.1-7
		C350.3,350.7,352.1,348.9,354,347.6z"/>
	<path id="XMLID_171_" class="st1" d="M363.8,381c0.8-0.8,1.9-1.3,3.1-1.5s2.2-0.2,3,0.2c0.8,0.4,1.5,1,2,1.9s1.9,1.3,4.1,1.3
		s4.9,0,8.2,0c3.3,0.1,2.6,0.2-2.1,0.3c-4.7,0.1-7.3,0.3-7.9,0.6c-0.6,0.2-0.9,1-0.8,2.3s0.2,2.7,0.3,4.2c0.1,1.5,0.1,3.1,0,4.9
		c0,1.8-0.2,3.1-0.4,4c-0.2,0.9-0.5,1.8-1,2.8s-1.1,2-1.9,3.1c-0.9,1.1-1.9,2.1-3.2,3c-1.3,0.9-2.4,1.6-3.5,2.1s-2.2,0.5-3.4,0.1
		c-1.2-0.4-2.2-1.1-3-2s-1.4-1.8-1.8-2.8c-0.5-1-0.7-2.7-0.6-5.1s0.3-4.4,0.8-5.8c0.5-1.5,1.2-3,2.1-4.6c1-1.6,1.3-2.4,0.9-2.2
		c-0.4,0.1-0.5,0.1-0.3-0.2c0.2-0.2,1-1.2,2.3-2.8C361.9,383,363,381.8,363.8,381z M367.1,391.4c-1-1.2-2.2-0.9-3.6,1
		s-2.3,3.8-2.6,5.9c-0.3,2.1-0.2,3.5,0.3,4.4c0.5,0.8,1,1.3,1.6,1.5c0.5,0.1,1.3-0.2,2.3-1.1s1.8-2.7,2.5-5.6
		C368.2,394.5,368,392.5,367.1,391.4z"/>
	<path id="XMLID_174_" class="st1" d="M382.4,386.9c1.6-6.1,3.1-9.1,4.6-9s2.6,0.8,3.3,2s0.7,2.6-0.2,4.4c-0.9,1.7-1,2.5-0.3,2.4
		s1.7-0.5,2.9-1.3c1.2-0.8,2.3-1.4,3.4-1.8c1.1-0.5,1.9-0.8,2.6-0.9s1.9,0.1,3.8,0.7s3.6,1.4,5.3,2.4c1.7,1,3.9,1.1,6.6,0.3
		c2.7-0.9,2.4-0.6-0.9,0.9c-3.3,1.4-6.8,2.1-10.2,2c-3.5-0.1-6.2,0.3-8.1,1.3c-1.9,0.9-3.5,1.9-4.8,3.1c-1.3,1.1-2.5,3-3.7,5.5
		c-1.1,2.6-2,4.7-2.6,6.5s-1.1,3.2-1.6,4.3c-0.5,1.1-1.4,1.7-2.8,1.8c-1.4,0.1-2.4-0.5-2.8-1.5c-0.5-1.1-0.6-1.8-0.3-2.1
		c0.2-0.3,0.9-2.3,2-6S380.9,393,382.4,386.9z"/>
	<path id="XMLID_176_" class="st1" d="M415.2,379.2c1.7-2.3,3-3.4,4.1-3.3s1.7,0.5,2,1.3s0.6,1.5,0.8,2.2c0.2,0.7,0.4,1.7,0.7,3
		c0.2,1.3-0.7,3.8-2.7,7.5s-1.9,4.2,0.4,1.4c2.3-2.8,4.2-4.5,5.9-5.2c1.6-0.7,3.1-0.7,4.5,0s2.2,1.5,2.6,2.5s0.6,2.1,0.7,3.3
		c0.1,1.2,0.3,1.9,0.5,2.1c0.3,0.2,1.7-1.1,4.4-4c2.6-2.8,5-4.7,7-5.6s3.7-1.1,5-0.6s2.5,1.6,3.5,3.1s2.3,3.8,3.9,6.7
		c1.6,2.9,3.2,5.1,4.9,6.5c1.7,1.4,3.2,2.2,4.5,2.5s3.6-0.5,6.9-2.1c3.3-1.7,4-2,2.2-1s-3.6,2-5.4,2.7c-1.8,0.8-3.1,1.4-3.9,1.8
		c-0.7,0.4-1.8,0.8-3.1,1.1c-1.3,0.3-2.5,0.2-3.7-0.4c-1.1-0.6-2.2-1.3-3.3-2.2c-1.1-0.9-2.4-2.4-4-4.5s-2.7-3.6-3.4-4.6
		c-0.7-1-1.5-1.4-2.5-1.3c-1,0.2-2.1,0.7-3.2,1.7c-1.1,0.9-2.6,2.3-4.5,4.1c-1.9,1.8-3.4,3.6-4.5,5.5s-1.7,3.2-1.9,3.7
		c-0.2,0.5-0.8,1.3-1.7,2.3c-0.9,1-1.8,1.4-2.6,1.1c-0.8-0.2-1.4-0.7-1.8-1.3c-0.4-0.6-0.4-1.8-0.1-3.4s0.6-3.2,0.8-4.7
		c0.2-1.5,0.4-3.1,0.5-4.9s-0.4-2.7-1.5-2.8c-1.1-0.1-3,1.1-5.7,3.8c-2.7,2.6-4.3,4.6-5,6.1s-1.3,2.5-1.7,3.1
		c-0.4,0.6-0.9,1.1-1.3,1.5c-0.5,0.4-1.4,0.3-2.8-0.1s-2.2-1-2.3-1.7c-0.2-0.7,0.2-2.1,1-4.3c0.8-2.2,1.9-5.5,3.3-10
		s2.3-7.3,2.8-8.5s-3.1,1-11,6.5c-7.8,5.5-10,6.8-6.6,4c3.5-2.8,6.8-5.4,10.2-7.7C411,383.8,413.5,381.5,415.2,379.2z"/>
	<path id="XMLID_178_" class="st1" d="M481.6,377.6c2.9-0.2,4.7,0.3,5.4,1.5c0.6,1.2,0.9,2.7,0.9,4.6s-0.9,3.5-2.6,4.7
		c-1.7,1.3-4,2.6-6.8,3.9c-0.8,0.3-1.5,0.5-2.1,0.5s-1.2,0-1.6-0.1s-0.7-0.1-1-0.2c-0.2-0.1-0.4,0-0.4,0.1c-0.8,1.3-1.2,2.5-1.2,3.8
		s0.4,2.5,1.3,3.5c0.9,1.1,1.8,1.7,2.9,1.9c1.1,0.2,2.2,0.1,3.3-0.1c1.1-0.2,3.3-1,6.3-2.3c3.1-1.3,5.2-2.5,6.4-3.6
		c1.2-1.1,2.4-2.2,3.5-3.3s1.3-1.1,0.5,0s-1.8,2.3-2.9,3.8c-1.2,1.5-2.6,3-4.4,4.4c-1.7,1.5-3.2,2.6-4.3,3.4s-2.6,1.5-4.4,2.1
		s-3.6,0.8-5.4,0.6c-1.8-0.2-3.1-0.6-4-1.2s-1.7-1.3-2.4-2c-0.7-0.8-1.4-1.7-1.8-2.8c-0.5-1.1-0.7-2.5-0.8-4.4
		c0-1.9,0.4-3.9,1.3-6.1s1.9-4,3.1-5.5c1.1-1.4,2.7-2.9,4.6-4.4C476.8,379.1,479,378.1,481.6,377.6z M481.6,383.5
		c-0.3-0.3-1.1-0.2-2.3,0.5c-1.2,0.6-2.1,1.3-2.6,2.1c-0.5,0.8-0.6,1.3-0.3,1.7s1.1,0.2,2.2-0.4s2.1-1.3,2.7-1.9
		C482.1,384.8,482.1,384.2,481.6,383.5z"/>
	<path id="XMLID_181_" class="st1" d="M498.2,386.9c1.6-6.1,3.1-9.1,4.6-9s2.6,0.8,3.3,2c0.7,1.2,0.7,2.6-0.2,4.4
		c-0.9,1.7-1,2.5-0.3,2.4s1.7-0.5,2.9-1.3c1.2-0.8,2.3-1.4,3.4-1.8c1.1-0.5,1.9-0.8,2.6-0.9s1.9,0.1,3.8,0.7
		c1.9,0.6,3.6,1.4,5.3,2.4s3.9,1.1,6.6,0.3c2.7-0.9,2.4-0.6-0.9,0.9c-3.3,1.4-6.8,2.1-10.3,2s-6.2,0.3-8.1,1.3
		c-1.9,0.9-3.5,1.9-4.8,3.1c-1.3,1.1-2.5,3-3.7,5.5c-1.1,2.6-2,4.7-2.6,6.5s-1.1,3.2-1.6,4.3c-0.5,1.1-1.4,1.7-2.8,1.8
		c-1.4,0.1-2.4-0.5-2.8-1.5c-0.5-1.1-0.6-1.8-0.3-2.1c0.2-0.3,0.9-2.3,2-6C495.4,397.9,496.7,393,498.2,386.9z"/>
	<path id="XMLID_183_" class="st1" d="M537.3,378.5c1.8-0.9,3.5-1.5,5.3-1.7c1.8-0.3,2.8,0.1,3.2,1s0.2,1.8-0.5,2.7
		c-0.7,0.9-1.7,1.4-3,1.5s-2.6,1-4.1,2.7s-2.3,3.7-2.5,6s-0.2,3.9,0.2,4.8c0.3,0.9,0.7,2.6,1.1,5.1c0.4,2.5,0.1,4.7-0.8,6.6
		c-0.9,1.8-1.9,3.2-3,4s-2.4,1.5-3.9,1.8c-1.6,0.4-2.9,0.6-4,0.6s-2.3-0.3-3.5-0.8c-1.3-0.5-2-1.6-2.3-3.3c-0.3-1.6,2-4.7,6.9-9.2
		s5.3-4.6,1.2-0.4s-5.7,6.8-4.8,7.8s2,1.3,3.2,0.8c1.3-0.5,2.2-1.1,3-1.9c0.7-0.8,1.3-1.8,1.6-3c0.4-1.2,0.5-2.2,0.5-3.2
		s-0.4-3.2-1-6.6s-0.6-6,0-7.7s1.6-3.2,2.8-4.4C534,380.4,535.5,379.3,537.3,378.5z"/>
</g>
</svg>
