<?xml version="1.0" encoding="utf-8"?>
<!-- Generator: Adobe Illustrator 19.0.0, SVG Export Plug-In . SVG Version: 6.00 Build 0)  -->
<svg version="1.1" id="Layer_1" xmlns="http://www.w3.org/2000/svg" xmlns:xlink="http://www.w3.org/1999/xlink" x="0px" y="0px"
	 viewBox="9 -9 768 768" style="enable-background:new 9 -9 768 768;" xml:space="preserve">
<metadata><?xpacket begin="﻿" id="W5M0MpCehiHzreSzNTczkc9d"?>
<x:xmpmeta xmlns:x="adobe:ns:meta/" x:xmptk="Adobe XMP Core 5.6-c067 79.157747, 2015/03/30-23:40:42        ">
   <rdf:RDF xmlns:rdf="http://www.w3.org/1999/02/22-rdf-syntax-ns#">
      <rdf:Description rdf:about=""/>
   </rdf:RDF>
</x:xmpmeta>
                                                                                                    
                                                                                                    
                                                                                                    
                                                                                                    
                                                                                                    
                                                                                                    
                                                                                                    
                                                                                                    
                                                                                                    
                                                                                                    
                                                                                                    
                                                                                                    
                                                                                                    
                                                                                                    
                                                                                                    
                                                                                                    
                                                                                                    
                                                                                                    
                                                                                                    
                                                                                                    
                           
<?xpacket end="w"?></metadata>
<style type="text/css">
	.st0{fill:#D5576A;}
	.st1{fill:#FFFFFF;}
</style>
<path id="XMLID_88_" class="st0" d="M685.1,399.6c-4.9-59.6-39.3-103.7-94.5-121.3c-1.7-0.6-3.3-1-5.1-1.5
	c13.8-40.7,2.4-90.6-20.6-126.5c-29.8-46.5-81.1-74.2-137.1-74.2c-5.2,0-10.6,0.2-15.8,0.8c-51.2,5-97,34.7-123.4,79
	c-21-18.1-48.1-27.8-79.5-27.8c-51.2,0-107,27-138.9,67c-27.1,34.2-36.6,80.1-25.4,123c7.5,28.9,23.8,53.5,46.2,70.7
	c-25.3,31-39.9,73.2-37.7,113.3c4.2,77.5,66.5,141.5,148.1,152.2c7.3,0.9,14.7,1.5,22,1.5c56.8,0,110.3-28.6,145.7-75.5
	c2,3,4.2,5.8,6.5,8.5c27.3,33,70.4,52,118,52l0,0c6.7,0,13.4-0.3,20-1.1C626.9,626.6,693.7,505.1,685.1,399.6z"/>
<circle id="XMLID_106_" class="st0" cx="705.8" cy="299.6" r="23"/>
<circle id="XMLID_105_" class="st0" cx="653.9" cy="262.7" r="13.7"/>
<circle id="XMLID_98_" class="st0" cx="728.8" cy="396.9" r="35"/>
<g>
	<path class="st1" d="M132,406.5c-2.2-1.4-3.7-4.5-4.6-9.1c-0.8-4.7-1.3-8.3-1.4-10.8c-0.1-1.7-0.2-3.5-0.4-5.3
		c-0.2-1.9-0.6-3.8-1-5.9c-0.4-2.1-0.9-4-1.3-5.8c-0.4-1.8-0.8-3.5-1.2-5.1c-0.8-3-1.2-4.9-1.2-5.8c-0.1-1-0.3-2.7-0.6-4.9
		c-0.6-3.3-0.8-5.2-0.5-5.9c0.3-0.6-0.3-1.1-1.8-1.6c-1.1-0.3-1.7-0.3-1.9-0.1c-0.2,0.3-0.7,0.3-1.6,0.1l-0.8-0.4
		c-0.3-0.2-0.4-0.4-0.5-0.5c-0.1-0.2-0.1-0.3-0.2-0.5c0-0.1,0-0.3,0-0.4c0-0.2,0-0.3,0-0.5c-0.1-1-0.5-1.7-1.1-2.1
		c-0.6-0.4-0.9-1.1-0.7-2.3l0.2-0.5c0.1-0.8-0.1-1.4-0.5-1.8c-0.5-0.4-0.5-1.3,0-2.5c0.3-0.5,0.5-0.8,0.8-1c0.3-0.2,0.8-0.7,1.5-1.7
		l0-0.1c0.3-0.4,0.5-0.8,0.7-1.2c0.2-0.4,0.7-0.9,1.3-1.5l1-0.6c0.7-0.4,1.4-0.8,2.1-1.3c0.7-0.4,1.4-0.8,2.1-1.1
		c1-0.5,1.9-0.8,2.5-1c0.4-0.1,0.8-0.2,1.2-0.3c0.4-0.1,0.8-0.2,1.3-0.4l4.7-1.3l0.7,0c0,0,0.3,0,0.7,0c0.9-0.1,1.9-0.1,3-0.1
		c1.1,0,2.3,0,3.6,0.1c2.5,0.1,4.7,0.4,6.6,0.8c0.5,0.2,1,0.3,1.5,0.4c0.5,0.1,0.9,0.2,1.4,0.3l3.6,1.5c1.6,0.7,3.1,1.5,4.6,2.3
		c1.5,0.9,2.9,1.8,4.3,2.8l4.3,3.3c0,0.1,0.1,0.2,0.2,0.2l1,0.9c0.8,0.8,1.6,1.5,2.5,2.3s1.6,1.6,2.2,2.5c0.7,1.1,1.3,2,1.8,2.7
		c0.4,0.7,0.8,1.3,1,1.6c0.2,0.4,0.4,0.9,0.7,1.7c0.3,0.8,0.6,1.8,0.9,3c0.8,3,0.9,6.2,0.2,9.6l-0.6,2.8c-0.2,1-0.4,1.7-0.5,2.1
		c-0.6,1.9-1.6,3.7-3,5.5c-1.4,1.9-2.8,3.4-4.1,4.5l-3.6,2.7l-7.3,2.5c-5,1-8.2,1.2-9.4,0.4c-1.2-0.8-3.2-1.5-6.2-2.1
		c-1.3-0.3-1.9-0.1-1.8,0.4c0.1,0.3,0.1,0.9,0.1,1.9c0,1,0,2.3-0.1,4.1c-0.1,1.4-0.1,2.9-0.3,4.5c-0.1,1.7-0.3,3.5-0.5,5.4
		c-0.4,3.9-1.2,7-2.3,9.1c-0.2,0.4-0.4,0.8-0.6,1.1c-0.2,0.3-0.3,0.6-0.4,0.8C133.6,405.3,133,405.8,132,406.5z M135.5,341.5
		C135.5,341.5,135.5,341.6,135.5,341.5C135.6,341.6,135.6,341.6,135.5,341.5L135.5,341.5z M136.5,340.2c0,0.2,0,0.4,0,0.6
		c0,0.2,0,0.4,0,0.5l0.3,7.2c0,0.7,0,1.1,0,1.2c0.1,0.1,0.1,0.4,0,0.9v10.2c0.1,0.7,0.2,1.4,0.2,2c0.1,0.7,0.1,1.2,0.2,1.5l0.5,3.8
		c0.2,1.8,0.2,3,0,3.6c3.2,0,6.7-0.4,10.5-1.3c3.9-0.9,6.9-2.3,8.9-4.3c1.5-1.4,2.4-2.5,2.7-3.2c0.4-0.7,0.7-1.8,0.9-3.4
		c0.3-2.1,0.2-3.9,0-5.2c-0.3-1.3-1.2-2.7-2.7-3.9c-0.5-0.4-0.8-0.6-0.8-0.6c0,0-0.1-0.3-0.5-0.7c-0.5-0.6-1.1-0.9-1.6-1.1
		c-0.4-0.1-1-0.4-1.6-0.9l-1.8-1.3c-0.6-0.4-1-0.7-1.2-0.7c-0.2,0-0.5-0.3-1.1-0.9c-0.6-0.5-0.8-0.7-0.8-0.6c0.1,0,0,0,0,0
		c-0.1,0-0.2-0.1-0.5-0.2l-3.5-1.4l-0.8-0.3l-1.1-0.4l-2-0.5c-0.7-0.1-1.4-0.2-2.1-0.4C138.1,340.3,137.3,340.2,136.5,340.2z"/>
	<path class="st1" d="M194.3,406c-3.1,0-6.2-1.2-9.2-3.7c-3-2.6-5.2-5.3-6.5-8.1c-0.9-1.9-1.7-2.8-2.5-2.6c-0.8,0.2-1.3-0.2-1.4-1.1
		l0-0.6c0.2-1.6,0.4-2.4,0.8-2.2c0.4,0.1,0.5-0.5,0.2-2l-0.4-6.8c0-1,0.2-2.2,0.5-3.5c0.2-0.7,0.4-1.3,0.5-1.9
		c0.2-0.6,0.3-1.1,0.4-1.6c1.1-3.3,2.8-6.3,5.2-9.1c1.2-1.4,2.4-2.7,3.7-3.9c1.2-1.2,2.5-2.4,3.9-3.4l1.7-1.1c0.7-0.5,1.5-1,2.4-1.5
		c0.9-0.5,1.7-0.9,2.6-1.2c1.2-0.3,2.4-0.6,3.7-0.8c1.3-0.2,2.7-0.3,4.2-0.4c2.9-0.2,5.4,0.5,7.4,1.9l1.8,1.3
		c2.2,1.7,3.5,4.1,4.1,7.2c0.6,3.1,0.5,5.9-0.3,8.4c-0.8,2.5-1.9,4.5-3.5,6.1c-0.3,0.3-0.6,0.6-0.8,0.8c-0.2,0.3-0.4,0.5-0.5,0.7
		c-1.2,1.6-2.8,3-4.8,4.3l-5.6,3.4l-6,3.2c-0.6,0.3-1.6,0.9-3.2,1.6c-1.5,0.7-2.5,1.1-3,1.1c0.5,2.2,2,3.9,4.5,5
		c3.9,1.8,7.8,1.5,11.7-1c3.8-2.5,6.1-4.8,6.7-6.9c0.7,0,1.1,0,1.1,0c0,0,0.2,0.2,0.5,0.6c0.4,0.8,0.5,2.4,0,5
		c-0.4,2.5-1.5,4.7-3.4,6.6c-1.1,1.1-2.5,2.1-4.3,3c-1.8,0.9-3.4,1.6-4.8,2c-0.5,0.1-1,0.3-1.6,0.4c-0.6,0.1-1.3,0.3-2,0.4
		c-0.7,0.1-1.4,0.2-2.1,0.3C195.5,405.9,194.9,406,194.3,406z M201.6,371.1c0-0.6,0.1-0.9,0.1-0.8c0,0.1,0.2-0.1,0.5-0.4l2.9-2.6
		c0.6-0.5,0.8-2.1,0.8-4.8c-1.8-0.4-3.4-0.3-4.8,0.2l-2.8,1.3c-0.3,0.2-0.7,0.4-1.1,0.8c-0.4,0.3-0.9,0.7-1.5,1.1
		c-0.1,0-0.3,0.2-0.7,0.6l-3.5,3.7c-2,2.4-3.1,4-3.3,4.9c-0.1,0.4-0.3,0.9-0.5,1.4c-0.2,0.5-0.4,1.2-0.8,1.8c0.7-0.1,1.7-0.4,2.9-1
		c0.6-0.3,1.1-0.6,1.6-0.9s1-0.5,1.4-0.7c0.4-0.2,1-0.6,1.7-1c0.7-0.4,1.6-1,2.7-1.6C199.6,371.9,201,371.2,201.6,371.1z"/>
	<path class="st1" d="M223.1,337c0.7-0.3,1-0.4,0.8-0.2c-0.1,0.1,0.1,0.1,0.5-0.1c0.6-0.3,0.8-0.4,0.5-0.6c-0.3-0.2,0.8-0.1,3.2,0.3
		c0.1,1,0.2,1.3,0.4,0.9c0.2-0.4,0.9-0.2,2,0.5c1,0.6,1.5,1.2,1.6,1.8c0.1,0.3,0.1,0.6,0.1,0.9c0.4-0.4,0.8-0.4,1.2,0
		c0.3,0.4,0.6,0.9,0.8,1.5c0.2,0.8,0.3,1.2,0.1,1.1c-0.1,0-0.2,0.1-0.2,0.4c-0.1,0.3,0,0.7,0.3,1.3c0.3,0.7,0.5,1.3,0.5,1.9
		c0,0.9-0.1,1.4-0.2,1.6c-0.1,0.1-0.1,1.2-0.2,3.2l-0.4,6.7c1.7-1.1,2.8-2,3.2-2.7c0.4-0.7,2.1-1.7,5.1-3l2.9-1.5
		c0.6-0.4,1.2-0.6,1.9-0.7c0.7-0.1,1.4-0.1,2,0s1.2,0.2,1.7,0.4c0.5,0.2,1.1,0.4,1.6,0.7c0.5,0.3,1.1,0.6,1.7,1l1.6,1.5
		c0.4,0.6,0.5,0.8,0.2,0.7c-0.3-0.2,0,0,0.9,0.4c-0.4,0.7-0.5,1-0.4,0.9c0.1-0.1-0.1-0.1-0.6,0.1c0.3,0.5,0.4,0.7,0.3,0.7
		c-0.1-0.1,0.2-0.1,1,0c-0.1,0.9-0.2,1.3-0.3,1.2c-0.1-0.1-0.5-0.1-1,0.1c0.2,0.9,0.4,1.2,0.6,1.1c0.2-0.1,0.2,0.3,0,1.3l-0.1,0.4
		c-0.3,1.6-0.4,2.1-0.5,1.6c-0.1-0.5-0.5-0.2-1.4,0.9c-0.2,0.3-0.3,0.5-0.4,0.7c-0.1,0.2-0.2,0.4-0.4,0.7c-0.4,0.5-0.8,0.8-1.2,0.9
		c-0.4,0.1-0.6,0.2-0.7,0.2c-0.1,0-0.1,0,0,0c0.2-0.1,0.2-0.2,0-0.2c-0.7,0-1.1,0-1.1,0.1c0,0.1-0.4,0.2-1.2,0.2
		c0.3,0.3,0.5,0.5,0.5,0.7c0,0.2-0.1,0.3-0.3,0.4c-0.4,0.2-1.3,0.3-2.5,0.2c-1.2-0.1-2.2-0.1-3,0c-1,0.2-2,0.7-3.1,1.6
		c-0.6,0.4-1.1,0.8-1.5,1.2c-0.4,0.4-0.8,0.7-1.2,1c-1.1,1-2.2,2.4-3.2,4.2c-0.5,0.9-0.8,1.7-1.1,2.5c-0.3,0.8-0.4,1.5-0.4,2.2
		c-0.1,1.3-0.1,2.6-0.1,4c0,1.4,0.1,2.7,0.1,4c0,1.7-0.1,3.9-0.4,6.7c-0.2,2.8-0.6,4.8-1.2,6.3c-0.2,0.4-0.4,0.9-0.5,1.3
		c-0.2,0.5-0.4,0.9-0.6,1.4c-0.3,0.6-0.6,1-0.8,1.3c-0.2,0.3-0.4,0.6-0.6,1.1l-1.4-0.6c-0.3-0.1-0.8-0.8-1.5-2.1
		c-0.3-0.7-0.6-1.4-0.8-2.1c-0.2-0.7-0.4-1.4-0.7-2.1c-0.5-1.3-0.8-2.8-1-4.7c-0.2-1.9-0.3-3.4-0.5-4.7c-0.2-1.1-0.4-2.2-0.5-3.2
		c-0.2-1-0.4-1.9-0.6-2.8c-0.2-0.9-0.4-1.8-0.6-2.7s-0.4-1.8-0.5-2.7l-1.9-20.4c0-1.3,0-2.8-0.1-4.3c-0.1-1.6-0.3-3.3-0.5-5.1
		c-0.5-3.7,0.2-6.6,1.9-8.6l0.3-0.3l0.2-0.2c0.3-0.3,0.5-0.6,0.8-0.8l0.9-1.1v-0.1C223.1,337.1,223.1,337.1,223.1,337L223.1,337z
		 M234.2,345.2C234.2,345.2,234.2,345.3,234.2,345.2C234.3,345.3,234.3,345.3,234.2,345.2C234.3,345.2,234.3,345.2,234.2,345.2z"/>
	<path class="st1" d="M281.5,349.6l10.2-1c0.4-0.1,0.9-0.1,1.3-0.1c0.8,0.1,1.4,0.2,1.6,0.3l1.1,0.6c0.2,0.1,0.3,0.2,0.3,0.2
		c0,0,0,0-0.2-0.1c-0.1-0.1-0.1-0.1-0.1-0.1c0,0,0.2,0.1,0.4,0.1c0.3,0.1,0.5,0.2,0.6,0.3c0.1,0,0.1,0,0,0c2.3,1,3.8,2.7,4.5,5
		c0.4,1.6,0.4,3.5-0.2,5.5l-0.2,0.6c0,0.1,0,0.1,0,0.2c-0.4,1-1.4,2.1-3.1,3.2c-1.7,1.2-3.1,1.7-4.3,1.6c-0.5,0-0.7-0.1-0.7-0.1
		c0.1-0.1-0.2-0.1-0.7-0.2c-0.3-0.1-0.6-0.1-0.9-0.1c-0.3,0-0.6,0-0.9,0c-1.2-0.1-3.2-0.2-5.9-0.3c-2.7-0.1-4.6,0-5.6,0.3
		c-0.2,0.7-0.3,2.8-0.3,6.2c0,1.7,0,3.3,0.1,4.7c0.1,1.4,0.2,2.7,0.3,3.7c0.1,0.9,0.2,1.7,0.2,2.5c0,0.8,0,1.6,0,2.4
		c-0.1,1.5,0,3.1,0.4,4.7c0.2,1.1,0.4,2.2,0.5,3.4c0.1,1.2,0.3,2.5,0.4,4c0.3,2.8,0.2,5.2-0.2,7.2c-0.1,0.4-0.2,0.6-0.3,0.5
		c-0.1-0.1-0.2,0.2-0.3,0.8c-0.9-0.1-1.6-0.5-2.1-1.3c-0.2-0.4-0.5-0.8-0.8-1.3c-0.3-0.5-0.6-1.1-1-1.6c-2.3-3.5-4.1-8.7-5.4-15.6
		c-1.3-6.9-2.1-12.5-2.4-16.8c-0.1-2.1-0.8-2.6-2-1.4c-1.2,1.1-3.2,1.3-6.2,0.5l-2.6-1.2c0-0.5,0-0.9,0-1.1c0-0.3,0-0.5-0.1-0.6
		c-0.1-0.2,0-0.7,0.2-1.3c0.3-1,0.6-2,1.1-2.7c0.4-0.6,0.8-1.3,1.2-2c0.4-0.7,0.9-1.3,1.5-1.8c1.1-0.9,2-1.5,2.7-1.8
		c0.8-0.3,1.7-0.8,2.7-1.4c0.7-0.4,1.1-0.7,1.1-0.9c0-0.2,0.1-0.7,0.3-1.6c0.5-2.6,0.8-4.2,1-4.6c0.1-0.2,0.2-0.7,0.4-1.4
		c0.2-0.7,0.5-1.8,0.9-3.1c0.3-1.1,1.1-2.8,2.3-5.3c1.2-2.4,2.2-4.1,2.9-4.8l0.9-1.3c0.6-0.9,1.6-1.7,2.8-2.5
		c1.3-0.8,2.4-1.5,3.3-2.1c1.4-0.9,3.4-1.7,6-2.2c2.7-0.6,4.9-0.5,6.6,0c1.3,0.5,2.3,0.9,3,1.3c0.8,0.4,1.7,1.2,2.7,2.5
		c1.3,1.7,1.9,3.7,1.8,5.8c0,0.1,0,0.3,0,0.4c0,0.2,0,0.3,0,0.4v0.2l0,0.5c-0.1,0.8-0.4,1.6-0.9,2.6c-0.3,0.5-0.5,0.9-0.8,1.3
		c-0.2,0.4-0.5,0.8-0.7,1.1l-1.1,1.4c0,0-0.3,0.2-0.9,0.4c-0.8,0.4-1.7,0.8-2.6,1.4c-0.9,0.6-1.4,0.3-1.5-0.8
		c-2.1,0-2.8-0.4-2.2-1.1c0.6-0.8-0.7-0.5-3.9,0.7c-1.5,0.6-2.8,1.7-3.8,3.2L281.5,349.6z M296.4,365.4c-0.1-0.1,0-0.2,0.1-0.4
		c0.2-0.2,0.4-0.2,0.5-0.1c0.4,0.3,0.3,0.4-0.1,0.5C296.6,365.5,296.4,365.5,296.4,365.4z"/>
	<path class="st1" d="M318.2,405.3c-0.9,0-1.4-0.1-1.6-0.2c-0.1-0.1-0.9-0.2-2.6-0.2c-1.1,0-2.2-0.4-3.5-1.1
		c-2.7-1.4-4.9-2.9-6.6-4.4c-1.7-1.5-3.2-3.7-4.5-6.7c-1.6-3.6-2.5-7.9-2.9-12.9c-0.3-5.1,0.3-9.5,1.9-13.2c0.4-0.9,0.8-1.7,1.1-2.5
		c0.3-0.8,0.6-1.5,0.9-2.2c0.3-0.7,0.7-1.4,1.1-2.2c0.5-0.8,1-1.6,1.7-2.5l1.4-1.5l0.2-0.2l3.8-2.8c1.8-1.2,4.5-1.9,8-2.1
		c3.5-0.1,6.2,0.2,8.1,0.8c2.4,0.9,3.6,1.4,3.5,1.5c-0.1,0.1,0.3,0.3,1.3,0.8c0.2,0.1,0.3,0.2,0.4,0.2c0.1,0,0,0-0.1,0
		c-0.1-0.1,0-0.1,0.4,0.1c0.2,0.2,0.3,0.3,0.5,0.3l2.1,2.1c0.3,0.3,0.6,0.6,0.8,0.8c0.2,0.2,0.4,0.5,0.5,0.7c0.3,0.4,0.7,1,1.1,1.8
		l3.5,6.4c1.5,2.4,2.3,4.6,2.6,6.7c0.1,1,0.2,2.1,0.3,3.2c0.1,1.1,0.2,2.2,0.3,3.5l-0.5,7.4c-0.3,1.6-0.9,3.4-2.1,5.5
		c-1.1,2.2-2.3,4-3.4,5.4c-1.2,1.4-3.1,2.8-5.7,4.1c-1.3,0.7-2.5,1.3-3.5,1.7c-1.1,0.4-2,0.8-2.8,1c-1.3,0.3-2.1,0.5-2.4,0.7
		C321,405.2,320,405.3,318.2,405.3z M317.9,394.1c0.2-0.4,0.6-1,1.2-1.6l4.6-7.8l0.5-1.1c0.1-0.2,0.2-0.7,0.3-1.3
		c0.1-1,0.1-1.9,0.1-2.7c0-0.8,0-1.5-0.1-2.1c-0.1-1.3-0.6-2.6-1.5-3.8c-0.4-0.6-0.8-1.2-1.1-1.8c-0.3-0.6-0.6-1.2-0.8-1.9
		c-0.4-1.3-1-2-1.6-2.3l-1.8-0.2h-0.3c-0.6,0-1.2,0-1.9-0.1c-0.7,0-1.2,0.1-1.7,0.3c-0.3,0.2-1.1,1.1-2.4,2.8
		c-1.2,1.6-1.9,2.8-2.2,3.5c-0.3,0.7-0.6,1.6-0.8,2.7c-0.2,1-0.4,2.3-0.5,3.7c-0.3,2.8-0.1,5,0.3,6.8l2.4,8.3l2.5-0.5
		c0.2-0.1,0.3,0,0.3,0.2c0,0.1,0.1,0.3,0.4,0.4c0.3,0.1,1.2,0.2,2.9,0.3L317.9,394.1z"/>
	<path class="st1" d="M346.7,337c0.7-0.3,1-0.4,0.8-0.2c-0.1,0.1,0.1,0.1,0.5-0.1c0.6-0.3,0.8-0.4,0.5-0.6c-0.3-0.2,0.8-0.1,3.2,0.3
		c0.1,1,0.2,1.3,0.4,0.9c0.2-0.4,0.9-0.2,2,0.5c1,0.6,1.5,1.2,1.6,1.8c0.1,0.3,0.1,0.6,0.1,0.9c0.4-0.4,0.8-0.4,1.2,0
		c0.3,0.4,0.6,0.9,0.8,1.5c0.2,0.8,0.3,1.2,0.1,1.1c-0.1,0-0.2,0.1-0.2,0.4c-0.1,0.3,0,0.7,0.3,1.3c0.3,0.7,0.5,1.3,0.5,1.9
		c0,0.9-0.1,1.4-0.2,1.6c-0.1,0.1-0.1,1.2-0.2,3.2l-0.4,6.7c1.7-1.1,2.8-2,3.2-2.7c0.4-0.7,2.1-1.7,5.1-3l2.9-1.5
		c0.6-0.4,1.2-0.6,1.9-0.7c0.7-0.1,1.4-0.1,2,0c0.6,0.1,1.2,0.2,1.7,0.4c0.5,0.2,1.1,0.4,1.6,0.7c0.5,0.3,1.1,0.6,1.7,1l1.6,1.5
		c0.4,0.6,0.5,0.8,0.2,0.7c-0.3-0.2,0,0,0.9,0.4c-0.4,0.7-0.5,1-0.4,0.9c0.1-0.1-0.1-0.1-0.6,0.1c0.3,0.5,0.4,0.7,0.3,0.7
		c-0.1-0.1,0.2-0.1,1,0c-0.1,0.9-0.2,1.3-0.3,1.2c-0.1-0.1-0.5-0.1-1,0.1c0.2,0.9,0.4,1.2,0.6,1.1c0.2-0.1,0.2,0.3,0,1.3l-0.1,0.4
		c-0.3,1.6-0.4,2.1-0.5,1.6c-0.1-0.5-0.5-0.2-1.4,0.9c-0.2,0.3-0.3,0.5-0.4,0.7c-0.1,0.2-0.2,0.4-0.4,0.7c-0.4,0.5-0.8,0.8-1.2,0.9
		c-0.4,0.1-0.6,0.2-0.7,0.2c-0.1,0-0.1,0,0,0c0.2-0.1,0.2-0.2,0-0.2c-0.7,0-1.1,0-1.1,0.1c0,0.1-0.4,0.2-1.2,0.2
		c0.3,0.3,0.5,0.5,0.5,0.7c0,0.2-0.1,0.3-0.3,0.4c-0.4,0.2-1.3,0.3-2.5,0.2c-1.2-0.1-2.2-0.1-3,0c-1,0.2-2,0.7-3.1,1.6
		c-0.6,0.4-1.1,0.8-1.5,1.2c-0.4,0.4-0.8,0.7-1.2,1c-1.1,1-2.2,2.4-3.2,4.2c-0.5,0.9-0.8,1.7-1.1,2.5c-0.3,0.8-0.4,1.5-0.4,2.2
		c-0.1,1.3-0.1,2.6-0.1,4c0,1.4,0.1,2.7,0.1,4c0,1.7-0.1,3.9-0.4,6.7c-0.2,2.8-0.6,4.8-1.2,6.3c-0.2,0.4-0.4,0.9-0.5,1.3
		c-0.2,0.5-0.4,0.9-0.6,1.4c-0.3,0.6-0.6,1-0.8,1.3c-0.2,0.3-0.4,0.6-0.6,1.1l-1.4-0.6c-0.3-0.1-0.8-0.8-1.5-2.1
		c-0.3-0.7-0.6-1.4-0.8-2.1c-0.2-0.7-0.4-1.4-0.7-2.1c-0.5-1.3-0.8-2.8-1-4.7c-0.2-1.9-0.3-3.4-0.5-4.7c-0.2-1.1-0.4-2.2-0.5-3.2
		c-0.2-1-0.4-1.9-0.6-2.8c-0.2-0.9-0.4-1.8-0.6-2.7c-0.2-0.9-0.4-1.8-0.5-2.7l-1.9-20.4c0-1.3,0-2.8-0.1-4.3
		c-0.1-1.6-0.3-3.3-0.5-5.1c-0.5-3.7,0.2-6.6,1.9-8.6l0.3-0.3l0.2-0.2c0.3-0.3,0.5-0.6,0.8-0.8l0.9-1.1v-0.1
		C346.7,337.1,346.7,337.1,346.7,337L346.7,337z M357.8,345.2C357.8,345.2,357.8,345.3,357.8,345.2
		C357.9,345.3,357.9,345.3,357.8,345.2C357.9,345.2,357.8,345.2,357.8,345.2z"/>
	<path class="st1" d="M382.1,347.4c0-1.3,0.3-2.5,1-3.4l1.9-2c0.3-0.3,0.5-0.5,0.7-0.9c0.2-0.3,0.4-0.6,0.8-0.8c0,0,0.2-0.1,0.6-0.1
		c0.8-0.1,1,0,0.7,0.1c-0.1,0.1-0.1,0,0,0c0.1-0.1,0.4-0.3,0.8-0.5c0.3-0.2,0.5-0.3,0.4-0.4c-0.1-0.1,0.2-0.2,0.8-0.3
		c0.2,0.1,0.3,0.2,0.3,0.3c0.1,0.1,0.1,0.1,0.1,0.2c0,0.1,0,0.1,0,0.2c0,0.1,0,0.2,0.1,0.3c0.6-0.4,1-0.7,1.4-0.8
		c0.4-0.1,1,0.1,1.9,0.7c0.7,0.5,1,0.8,0.8,0.8c-0.2,0-0.1,0.2,0.3,0.5c0.4,0.4,0.5,0.4,0.4,0.1c-0.1-0.3,0.2-0.1,0.8,0.8l1,1.6
		c1.7,2,2.2,3.4,1.4,4.4c-0.8,0.9,0.4,0.8,3.6-0.3c2-0.7,4-1.1,6-1.2c2-0.1,4,0.4,5.9,1.4c1.6,0.9,2.5,1.8,2.7,2.5
		c0.3,0.8,0.8,1.5,1.4,2.2l0.8,1.4c0.4,1.2,0.7,2.3,0.7,3.5h0.9c0.1-0.4,0.6-0.9,1.6-1.6l2.1-1.7c0.1-0.1,0.1-0.1,0.2-0.1l5.1-3.5
		c2-1.1,4-1.6,5.9-1.5c2.6,0.1,4.8,1,6.8,2.5c2,1.5,3.4,3.1,4.1,4.6c0.2,0.6,0.4,1,0.5,1.4c0.1,0.4,0.2,0.6,0.2,0.8
		c0,0.1,0,0.2,0,0.3c0,0.1,0,0.1,0,0.2c0,0.1,0,0.1,0,0.2c0,0.1,0,0.3,0,0.5c0.1,1.2,0,3.3-0.3,6.2c-0.3,3-0.5,5.1-0.6,6.1
		c-0.6,4.5-1.5,9-2.5,13.4c-1,4.4-2.3,8.9-3.7,13.3l-1.3,4c-0.5,1.5-1.5,2.3-3,2.4c-0.1-0.4-0.3-0.8-0.4-1c-0.2-0.2-0.4-0.6-0.6-1.1
		c-1.3-3.2-1.7-7-1.2-11.5c0.6-4.4,1-8.3,1.1-11.6l-0.2-12.6l-1.1,0.8c-0.6,0.4-1.2,0.9-1.8,1.4c-0.6,0.5-1.1,1-1.7,1.5
		c-0.5,0.5-1.1,1-1.7,1.5c-0.6,0.5-1.1,1-1.7,1.4c0,0,0,0-0.2,0.1l-0.9,0.7c-2.4,2.1-3.8,3.2-4.1,3.3c-0.3,0.1-0.7,1.4-1.2,4
		c-0.3,1.2-0.5,2.2-0.6,3.2c-0.2,0.9-0.4,1.9-0.6,2.9l-3.3,11.2c-0.3,0.9-0.7,1.8-1.1,2.7c-0.4,0.8-1.1,1.3-2.1,1.4
		c-0.1-0.5-0.4-1.1-0.6-1.7c-0.3-0.6-0.6-1.3-1.1-2.1c-0.9-1.5-1.3-3.8-1.4-6.9l-0.1-2.4l-0.2-3.1c0-0.3,0-0.6-0.1-0.9
		c0-0.3,0-0.4,0-0.6c0-2.3-0.2-5.9-0.6-10.8c-0.4-4.9-1-8.3-1.9-10.2c-0.3,0.1-0.5,0.3-0.7,0.4c-0.2,0.1-0.4,0.2-0.5,0.3l-0.6,0.4
		c-0.9,0.6-1.7,1.3-2.3,2c-0.7,0.7-1.3,1.5-2,2.2c-0.3,0.4-0.6,0.7-0.9,0.9c-0.2,0.3-0.5,0.5-0.9,0.9c-1.1,1.1-1.9,1.7-2.2,1.9
		c-0.3,0.1-0.6,0.9-0.8,2.4l-1.1,6.2l-1.1,4.9c-0.3,1.2-0.5,2.4-0.8,3.6c-0.3,1.2-0.6,2.4-0.9,3.7c-0.3,1.3-0.6,2.5-0.9,3.6
		c-0.3,1.2-0.7,2.2-1,3.3c-0.7,2.1-1.3,3.3-1.9,3.7c-0.7-0.2-1.2-0.7-1.6-1.6l-0.9-2.2c-0.3-0.6-0.5-1.3-0.8-2.1
		c-0.2-0.8-0.4-1.7-0.5-2.6l-1.1-33.1c0-0.1,0-0.4,0-0.8c0-0.1,0-0.2,0-0.3s0-0.3,0-0.6l0.3-5.5c0-0.6,0-1.3,0-2
		c0-0.8,0-1.5-0.1-2.2c-0.1-0.9-0.2-1.7-0.3-2.3C382.1,349.1,382.1,348.3,382.1,347.4z M395.4,343.2
		C395.4,343.3,395.4,343.3,395.4,343.2L395.4,343.2L395.4,343.2z M442,352.1C442,352.2,442,352.2,442,352.1
		C442.1,352.2,442.1,352.2,442,352.1L442,352.1z"/>
	<path class="st1" d="M463.2,354c1.4-0.1,3.2-0.2,5.2-0.4c2.1-0.2,4-0.2,5.9,0c0.8,0.1,1.5,0.2,2,0.2c0.6,0.1,1.1,0.1,1.5,0.2
		c0.4,0.1,0.9,0.2,1.4,0.3c0.5,0.1,1.2,0.3,1.9,0.5c0.8,0.3,1.6,0.6,2.4,1c0.8,0.4,1.5,0.9,2.1,1.6c0,0.1,0.1,0.2,0.3,0.4
		c1.7,2.1,2.4,4.5,2.2,7.1l-0.7,2.1c-0.2,0.3-0.3,0.4-0.3,0.4c0-0.1-0.1,0.1-0.3,0.6l-1.7,6.2c-0.3,0.9-0.5,1.8-0.8,2.6
		c-0.3,0.8-0.5,1.7-0.7,2.6l-3,19.2c-0.1,0.5-0.1,1,0,1.5c0,0.5,0,1.1,0,1.6c0,0.5,0,1.1-0.1,1.6c0,0.5-0.1,0.9-0.3,1.3
		c-0.7,1.6-1.5,2.1-2.4,1.5c-0.9-0.6-1.8-1.4-2.6-2.4c-0.2-0.2-0.4-0.4-0.5-0.5c-0.1-0.1-0.2-0.2-0.3-0.2c-0.1-0.1-0.2-0.4-0.3-1.1
		c-0.1-0.4-0.2-0.7-0.1-0.7c0.1-0.1,0-0.4-0.1-1c-0.5,0.4-0.8,0.7-0.8,0.8c0,0.1-0.4,0.5-1.2,1.1l-2.3,1.5c-0.9,0.5-1.8,1-2.6,1.3
		c-0.8,0.3-1.9,0.5-3.3,0.5c-1,0-2.1-0.1-3.1-0.4c-1-0.2-2-0.6-3-1c-1-0.4-1.9-0.9-2.8-1.5c-0.9-0.5-1.7-1.1-2.4-1.7l-2.2-2.2
		c-2-2.4-3.3-5.1-3.9-8.1c-0.2-1.2-0.2-2.6,0-4c0.3-1.9,1.2-3.6,2.5-5.3c0.7-0.8,1.3-1.6,2-2.3c0.7-0.7,1.4-1.2,2.1-1.7
		c1.9-1.3,3.7-2.3,5.5-2.9c1.7-0.6,3.7-1.2,5.8-1.6c1.4-0.3,2.6-0.5,3.6-0.7c1-0.2,1.9-0.2,2.5-0.3c1.3-0.1,3.4,0.2,6,0.8
		c0.1-0.2,0.1-0.5,0.1-0.8c0-0.3,0-0.7,0.1-1c0-0.3,0.1-0.7,0.1-1c0-0.4,0.1-0.7,0.3-1c-1.4,0-2.7,0-3.8,0s-2.1,0-2.8,0
		c-1.6,0-3.7,0.3-6.4,1c-0.1,0-0.2,0-0.4,0.1c-1.3,0.4-2.6,0.8-3.7,1.4c-0.4,0.4-0.7,0.5-1,0.5l-1.6,0.3c-0.3,0.1-0.4,0.1-0.5,0.1
		c0,0,0,0.1,0.1,0.1h-0.5l-5.3-1.6c-0.1-0.1-0.3-0.3-0.6-0.7c-0.2-0.3-0.3-0.4-0.4-0.5c-0.1-0.1-0.2-0.2-0.2-0.2
		c-0.1,0-0.1-0.1-0.2-0.1c0,0-0.1,0-0.2-0.1c-0.1-0.1-0.2-0.1-0.2-0.2c-0.1,0-0.1-0.1-0.1-0.2c0-0.1-0.1-0.2-0.1-0.4
		c0-0.2,0-0.4,0-0.8c0-0.7,0.2-1.3,0.6-1.7c-0.6-0.1-0.9-0.2-0.8-0.3c0.1-0.1-0.2-0.2-0.8-0.3c0.1-1.4,0.3-2.4,0.6-3.2
		c0.2-0.7,0.7-1.6,1.5-2.7c0.5-0.6,1.2-1.1,2.2-1.4c1-0.3,1.4-0.5,1.4-0.8c-0.1-0.5-0.2-0.5-0.3,0c0,0.5-0.1,0.3-0.4-0.5L463.2,354z
		 M449.1,362.9L449.1,362.9c0-0.1-0.1-0.2-0.1-0.1L449.1,362.9z M456.3,389.4c0,0.1,0.1,0.2,0.1,0.3c0.1,0.1,0.1,0.1,0.1,0.2
		c0,0.1,0,0.1,0.1,0.2c0.3,0.6,0.5,1,0.8,1.4c0.2,0.4,0.6,0.8,1,1.2l0.7,0.6c2.1,1.7,3.8,2.4,5.2,2.3c1.4-0.1,2.9-0.5,4.7-1.3
		c2.9-1.2,4.6-1.9,5-2.3c0.4-0.4,0.6-2.1,0.6-5.1c-0.9-0.1-1.2-0.1-0.9-0.1c0.3,0,0.1-0.4-0.7-1.1l-1.3-0.9c-0.9-0.5-2-0.6-3.5-0.5
		l-3.2,0.3c-2.5,0.3-4.3,0.6-5.4,1c-1.1,0.4-2.3,1.3-3.7,2.9L456.3,389.4z"/>
	<path class="st1" d="M505.9,351.7l0.8,0c0.1,0.5,0.1,0.9,0.1,1.2c-0.1,0.3-0.1,0.8-0.1,1.6l1.3-0.4h0.1c0,0,0,0,0,0c0,0,0,0,0,0
		l0.1-0.1l1.3-0.6c2.5-1,5.2-1.2,8.3-0.6c0.9,0.2,1.7,0.4,2.4,0.7c0.7,0.2,1.3,0.4,1.9,0.7c1.1,0.5,2.3,1.3,3.7,2.5
		c1.2,1.1,2,2.5,2.6,4.3l0.2,0.5c0.6,1.8,0.9,3.3,0.8,4.5c0,0.6,0,1.3,0,2c0,0.7,0.1,1.4,0.1,2.2c0.2,2.2,0,5.4-0.6,9.8
		c-0.5,4.3-1.3,7.8-2.3,10.3c-0.7,1.8-1.1,3.9-1.1,6.3c0,2.4-0.5,4.5-1.3,6.4c-0.1,0.3-0.2,0.4-0.3,0.5c0,0-0.1,0.2-0.2,0.4
		c-0.1,0.2-0.2,0.4-0.2,0.5c0,0.1-0.1,0.3-0.2,0.4c-0.5-0.3-1-0.8-1.3-1.5c-0.4-0.6-0.7-1.3-1.1-1.9c-1.3-2.5-1.9-5.7-1.7-9.6
		c0.1-1.9,0.1-3.7,0.2-5.4c0-1.7,0-3.2,0-4.6l-0.8-9.2l-0.4-2.4c-0.2-0.7-0.5-1.1-0.9-1.1c-1.2,0-2.4,0.4-3.4,1.1
		c-0.5,0.4-1,0.7-1.5,1c-0.5,0.3-1,0.6-1.5,0.8l-2.2,1.3c-0.7,0.3-1.3,0.7-1.8,1.1c-0.5,0.4-1,0.9-1.5,1.3l-0.9,1.2
		c-0.3,0.4-0.5,0.6-0.6,0.5c-0.1-0.2-0.2,0.1-0.4,0.8l-0.1,0.5c0,0,0,0.1,0,0.3l-4.3,19.2c-0.3,1.3-0.6,3-0.9,5
		c-0.3,2-0.8,3.5-1.6,4.5l-0.6,0.6c-0.1,0-0.2,0.1-0.5,0.4c-1.3-0.7-2.4-2-3.3-3.7c-0.2-0.4-0.4-0.8-0.5-1.2
		c-0.1-0.4-0.2-0.8-0.3-1.2c-0.1-0.4-0.2-0.8-0.2-1.3c-0.1-0.5-0.1-1-0.2-1.6c-0.5-2.7-0.7-4.6-0.6-5.9v-1.4c0-0.1,0-0.3,0-0.6
		c0-0.3,0-0.5,0-0.7l0.1-13.9c-0.1-0.7-0.1-1.2,0-1.6c0.1-0.4,0.1-0.8,0.1-1.3c-0.1-3.5-0.1-7-0.1-10.6c0-3.6-0.1-7.2-0.4-10.7
		c-0.3-2.9,0.4-5.1,2.2-6.8c0.1-0.1,0.3-0.2,0.4-0.3c0.1-0.1,0.3-0.2,0.4-0.4l0.9-1.3c0.6-0.6,1.5-1,2.9-1.2c0.6,0,1,0,1.2,0
		c0.4,0.1,0.6,0.1,0.7,0.1c0.1,0,0.2,0.1,0.1,0.1c-0.1,0,0.2,0.1,0.7,0.3c0.8,0.3,1.1,0.4,0.9,0.2c-0.2-0.3,0-0.3,0.8,0
		c0.5,0.2,0.9,0.6,1.1,1.2c0.3,0.6,0.7,1,1.4,1.3c0.1,0.1,0.1,0.1,0.1,0.1c0,0,0.1,0,0.1,0c0,0,0.1,0,0.1,0l0.3,0.3
		c0.8,0.7,1.2,1.2,1.2,1.4c0.1,0.2,0.1,0.7,0,1.6c-0.1,1.1,0,1.5,0.3,1.2C506.3,350.5,506.3,350.8,505.9,351.7L505.9,351.7z
		 M502.9,345.1c-0.1,0-0.1,0-0.1-0.1L502.9,345.1z M503,345.3C503,345.4,503,345.4,503,345.3L503,345.3L503,345.3z M505.8,352.4
		C505.8,352.4,505.8,352.4,505.8,352.4C505.8,352.5,505.8,352.5,505.8,352.4L505.8,352.4C505.9,352.4,505.9,352.4,505.8,352.4z
		 M515,353.3c0,0.5,0,0.6,0.1,0.3c0-0.1,0-0.1,0-0.1c0,0,0-0.1,0-0.1c0,0,0-0.1,0-0.1c0.1,0,0.1-0.1,0-0.3
		C515.1,352.8,515,352.9,515,353.3z"/>
	<path class="st1" d="M567.9,390.4c0.1,0,0.4,0.2,0.9,0.6c0.4,0.3,0.7,0.6,0.8,0.8c0.4,1,0.2,2.3-0.6,4.1c-0.4,0.9-0.8,1.6-1.2,2.3
		c-0.4,0.7-0.8,1.3-1.3,1.8c-1.8,2-3.4,3.4-5,4.2c-0.8,0.4-1.6,0.6-2.4,0.8c-0.8,0.1-1.6,0.4-2.5,0.7c-1.4,0.5-3.2,0.7-5.4,0.7
		c-2.2-0.1-3.9-0.3-5.2-0.8l-1.1-0.6c-0.6-0.3-1.2-0.7-1.7-0.9c-0.5-0.3-1-0.6-1.5-0.8c-0.4-0.3-0.9-0.6-1.3-0.9
		c-0.5-0.4-1-0.8-1.5-1.4l-1.1-1.1c-0.8-0.8-1.2-1.3-1.3-1.5l-3.4-4.6c0.1,0.1,0,0-0.1-0.2c-0.1-0.2-0.3-0.4-0.5-0.8
		c-0.4-0.8-0.8-1.5-1-2c-0.3-0.5-0.4-0.9-0.5-1.1l-1.3-3.2c-0.8-2.1-1.3-4.9-1.5-8.2c-0.2-3.3,0.2-5.9,1.2-8l1.1-2.1
		c0.3-0.5,0.7-1.1,1.2-1.7c0.5-0.7,1-1.2,1.4-1.7c0.5-0.6,1-1.2,1.4-1.7c0.4-0.5,0.9-1,1.6-1.6l3.2-2.9c0.3-0.3,0.9-0.7,1.7-1.2
		c0.8-0.5,1.8-1,3.1-1.7c1.3-0.6,2.3-1.2,3.2-1.6c0.9-0.4,1.6-0.7,2.2-0.8l3.2-0.8l2.9-0.4c1.4-0.2,2.4-0.3,2.9-0.2
		c0.7,0.1,1.4,0.3,2,0.4c0.6,0.1,1.1,0.2,1.6,0.2c0.5,0.1,1,0.2,1.5,0.4c0.5,0.2,1.1,0.4,1.7,0.7c1.5,0.8,2.7,1.7,3.7,2.7
		c1.5,1.7,2.6,3.5,3.5,5.6c0.9,2,0.8,4.4-0.3,7c-0.1,0.2-0.3,0.6-0.7,1c-0.3,0.4-0.8,1-1.3,1.7c-1.1,1.3-1.8,2.1-2.1,2.1
		c-0.3,0.1-0.5,0.1-0.6,0.1c-0.1,0,0,0,0.2-0.1c0.4-0.1,0.4-0.1,0-0.1c-0.4,0.1-0.7,0.3-0.8,0.7h-1.3l-0.3-0.6c0,0-0.2-0.1-0.8-0.2
		c-0.8-0.1-1.4,0-1.7,0.1s-0.8-0.1-1.5-0.8l-1.3-1.5c-0.1,0-0.2,0-0.2-0.1c-0.1-0.1-0.1-0.1-0.2-0.1l-2-2.2
		c-0.1-0.2-0.2-0.4-0.1-0.6c0-0.2-0.2-0.3-0.8-0.3c-1.7,0-2.9,0-3.5,0.1c-0.6,0.1-1.7,0.4-3.2,1c-0.5,0.3-0.9,0.4-1.1,0.5
		c-0.3,0.1-0.6,0.3-1,0.5c-4.2,2.9-6.7,5.3-7.5,7.2c-0.7,1.9,0,5,2.1,9.4c0.5,1,1,1.9,1.6,2.8c0.6,0.9,1.2,1.7,1.8,2.5
		c1.3,1.5,2.7,2.5,4.2,3c1.6,0.6,3.9,0.6,7-0.1c3-0.7,5.3-1.4,6.9-2.3c1.1-0.6,1.6-1,1.6-1.2c0.1-0.2,0.4-0.5,1.2-0.8
		C567.2,390.5,567.5,390.4,567.9,390.4z"/>
	<path class="st1" d="M592.1,406c-3.1,0-6.2-1.2-9.2-3.7c-3-2.6-5.2-5.3-6.5-8.1c-0.9-1.9-1.7-2.8-2.5-2.6c-0.8,0.2-1.3-0.2-1.4-1.1
		l0-0.6c0.2-1.6,0.4-2.4,0.8-2.2c0.4,0.1,0.5-0.5,0.2-2l-0.4-6.8c0-1,0.2-2.2,0.5-3.5c0.2-0.7,0.4-1.3,0.5-1.9
		c0.2-0.6,0.3-1.1,0.4-1.6c1.1-3.3,2.8-6.3,5.2-9.1c1.2-1.4,2.4-2.7,3.7-3.9c1.2-1.2,2.5-2.4,3.9-3.4l1.7-1.1c0.7-0.5,1.5-1,2.4-1.5
		c0.9-0.5,1.7-0.9,2.6-1.2c1.2-0.3,2.4-0.6,3.7-0.8c1.3-0.2,2.7-0.3,4.2-0.4c2.9-0.2,5.4,0.5,7.4,1.9l1.8,1.3
		c2.2,1.7,3.5,4.1,4.1,7.2c0.6,3.1,0.5,5.9-0.3,8.4c-0.8,2.5-1.9,4.5-3.5,6.1c-0.3,0.3-0.6,0.6-0.8,0.8c-0.2,0.3-0.4,0.5-0.5,0.7
		c-1.2,1.6-2.8,3-4.8,4.3l-5.6,3.4l-6,3.2c-0.6,0.3-1.6,0.9-3.2,1.6c-1.5,0.7-2.5,1.1-3,1.1c0.5,2.2,2,3.9,4.5,5
		c3.9,1.8,7.8,1.5,11.7-1c3.8-2.5,6.1-4.8,6.7-6.9c0.7,0,1.1,0,1.1,0c0,0,0.2,0.2,0.5,0.6c0.4,0.8,0.5,2.4,0,5
		c-0.4,2.5-1.5,4.7-3.4,6.6c-1.1,1.1-2.5,2.1-4.3,3c-1.8,0.9-3.4,1.6-4.8,2c-0.5,0.1-1,0.3-1.6,0.4c-0.6,0.1-1.3,0.3-2,0.4
		c-0.7,0.1-1.4,0.2-2.1,0.3C593.3,405.9,592.6,406,592.1,406z M599.4,371.1c0-0.6,0.1-0.9,0.1-0.8c0,0.1,0.2-0.1,0.5-0.4l2.9-2.6
		c0.6-0.5,0.8-2.1,0.8-4.8c-1.8-0.4-3.4-0.3-4.8,0.2l-2.8,1.3c-0.3,0.2-0.7,0.4-1.1,0.8c-0.4,0.3-0.9,0.7-1.5,1.1
		c-0.1,0-0.3,0.2-0.7,0.6l-3.5,3.7c-2,2.4-3.1,4-3.3,4.9c-0.1,0.4-0.3,0.9-0.5,1.4c-0.2,0.5-0.4,1.2-0.8,1.8c0.7-0.1,1.7-0.4,2.9-1
		c0.6-0.3,1.1-0.6,1.6-0.9s1-0.5,1.4-0.7c0.4-0.2,1-0.6,1.7-1c0.7-0.4,1.6-1,2.7-1.6C597.4,371.9,598.8,371.2,599.4,371.1z"/>
</g>
</svg>
