<?xml version="1.0" encoding="utf-8"?>
<!-- Generator: Adobe Illustrator 19.0.0, SVG Export Plug-In . SVG Version: 6.00 Build 0)  -->
<svg version="1.1" id="Layer_1" xmlns="http://www.w3.org/2000/svg" xmlns:xlink="http://www.w3.org/1999/xlink" x="0px" y="0px"
	 viewBox="9 -9 768 768" style="enable-background:new 9 -9 768 768;" xml:space="preserve">
<metadata><?xpacket begin="﻿" id="W5M0MpCehiHzreSzNTczkc9d"?>
<x:xmpmeta xmlns:x="adobe:ns:meta/" x:xmptk="Adobe XMP Core 5.6-c067 79.157747, 2015/03/30-23:40:42        ">
   <rdf:RDF xmlns:rdf="http://www.w3.org/1999/02/22-rdf-syntax-ns#">
      <rdf:Description rdf:about=""/>
   </rdf:RDF>
</x:xmpmeta>
                                                                                                    
                                                                                                    
                                                                                                    
                                                                                                    
                                                                                                    
                                                                                                    
                                                                                                    
                                                                                                    
                                                                                                    
                                                                                                    
                                                                                                    
                                                                                                    
                                                                                                    
                                                                                                    
                                                                                                    
                                                                                                    
                                                                                                    
                                                                                                    
                                                                                                    
                                                                                                    
                           
<?xpacket end="w"?></metadata>
<style type="text/css">
	.st0{fill:#D54C47;}
	.st1{fill:#FFFFFF;}
</style>
<path id="XMLID_43_" class="st0" d="M724.7,446.9c-0.7-20.3-5.6-58-31.8-82.8c-11.6-11-26.3-18.3-42.2-21.1
	c4.9-13.1,6.4-25.6,4.6-37.7c-3.4-22-18.4-40.8-41.2-51.6c-12.6-6-26.3-9-40.7-9c-10.5,0-20.7,1.6-30.5,4.7
	c1.1-10.1,1.1-20.2-0.2-29.5c-7.2-51.7-57.2-79.6-100.6-79.6c-45.5,0-85.3,26.1-102.1,64c-12.8-8.3-28.1-12.9-45-12.9
	c-18,0-36.2,5.5-51.4,15.4c-18,11.7-32.6,30.3-40,50.9c-5.2,14.5-6.6,29-4.3,42.8c-28.5,3.1-57.1,18.2-79.9,42.7
	c-48.5,51.9-53.6,129.1-12.2,183.6c24.1,31.7,62.5,50.6,102.6,50.6c27.3,0,53.2-8.5,74.4-24.4c27.8,35.6,71.5,59.1,118.1,62.6
	c4.1,0.3,8.3,0.5,12.5,0.5c24.3,0,48.9-5.4,70.9-15.4c7.9-3.5,27-12.2,40.2-28.5c15.8,13.7,37.5,21.1,62.6,21.1l0,0
	c23.2,0,47.9-6.4,67.5-17.7C700.1,550.4,726.4,501.2,724.7,446.9z"/>
<circle id="XMLID_104_" class="st0" cx="575.1" cy="198.1" r="23.7"/>
<circle id="XMLID_98_" class="st0" cx="198.9" cy="204.7" r="18.3"/>
<circle id="XMLID_92_" class="st0" cx="289.1" cy="150.7" r="34.8"/>
<g>
	<path class="st1" d="M193.2,392.6l0.4,0.4c0.3-0.2,0.6-0.4,0.8-0.4h0.7c0,1.4,0,2,0.1,1.7c0.1-0.2,0.4,0,0.9,0.8
		c0.3,0.4,0.4,1,0.4,1.7l1.3,14.7c0,2.2,0.1,4.4,0.4,6.5c0.3,2.1,0.6,4.3,1.1,6.4c0.5,2.1,1,4.3,1.5,6.3c0.5,2.1,1,4.2,1.5,6.3
		l0.8,2.7c0,0,0.2,0.8,0.6,2.2c0.3,1.3,0.8,2.2,1.5,2.7c0.1-1.6,0.8-4.4,1.8-8.3c0.6-2,1.1-3.7,1.5-5.2c0.4-1.5,0.8-2.7,1.1-3.7
		c0.2-0.7,0.4-1.5,0.5-2.2c0.1-0.8,0.2-1.4,0.4-1.9l1.7-6.1c0.1-0.7,0.2-1.1,0.1-1.1c-0.1,0-0.1-0.3,0.1-0.8
		c0.1-0.8,0.3-1.7,0.6-2.8c0.3-1.1,0.6-2.2,1-3.5c0.9-2.6,1.4-4.8,1.7-6.5c0.1-0.9,0.2-1.8,0.3-2.7c0.1-0.9,0.1-1.7,0.1-2.5
		c0-0.8,0.2-1.6,0.4-2.5c0.2-0.8,0.5-1.7,1-2.5c0.9-1.7,2-3,3.6-3.7l1-0.6l0.8-0.4l0.9-0.3l0.9-0.3c0.8-0.2,1.4-0.1,1.7,0.3
		c0.3,0.3,0.5,0.5,0.5,0.5l0.1,0.2c0.6-0.4,0.9-0.8,0.8-1.1c-0.1-0.3,0.2-0.2,0.7,0.3c0.2,0.2,0.3,0.3,0.4,0.3
		c0.2,0.1-0.1,0.6-0.8,1.6c0.6,0,1.1,0,1.5-0.1c0.3,0,0.8,0.1,1.4,0.3c0.5,0.2,0.9,0.3,1.2,0.3c0.3,0,0.6,0.2,0.9,0.7
		c0.4,0.7,0.5,1.1,0.3,1.1c-0.2,0-0.2,0.5,0.3,1.5c0.3,0.9,0.5,1,0.6,0.5c0.1-0.5,0.3-1,0.5-1.3l0.6,5.2c-0.3,1.2-0.6,1.6-0.7,1.4
		c0-0.2,0.1-0.1,0.3,0.6c0.2,0.5,0.3,0.8,0.4,0.8c0.1-0.1,0,0.3-0.4,1.3l-13.2,40.4c-0.1,0.3-0.2,0.5-0.3,0.7
		c-0.1,0.2-0.2,0.4-0.2,0.5c-0.1,0.1-0.2,0.5-0.5,1.2c-0.2,0.6-0.4,1-0.5,1.3c-0.1,0.3-0.3,0.6-0.5,1.2l-4.6,9
		c-0.3,0.6-0.7,1.3-1.2,2.3c-0.1,0.3-0.3,0.6-0.5,0.9c-0.2,0.4-0.5,0.8-0.7,1.3c-0.3,0.4-0.6,1.1-0.9,1.9c-0.3,0.8-0.7,1.8-1.1,2.9
		c-0.8,2.3-1.8,3.5-3.2,3.5h-0.7c0.3,0,0.3-0.1-0.1-0.3c-1.7-0.7-2.9-2-3.6-3.7c-0.6-1.7-1.5-3.3-2.6-4.8c-1-1.3-1.9-2.9-2.8-4.8
		l-2.4-5.4c-0.5-1.2-1-2.2-1.4-3.1c-0.4-0.9-0.7-1.8-1-2.6l-1-2.8c-0.1-0.2-0.2-0.4-0.2-0.4c-0.1-0.1-0.1-0.2-0.1-0.2
		c0-0.1-0.1-0.1-0.1-0.2c0-0.1-0.1-0.2-0.2-0.4c-0.3-0.7-0.6-1.6-1-2.7c-0.4-1.1-0.8-2.5-1.2-4.2c-0.9-3.3-1.7-5.3-2.4-5.8
		c-0.1,1-0.3,1.7-0.6,2.3c-0.3,0.5-0.6,1.2-0.8,2.1c-0.3,1.2-0.7,2.6-1.3,4.1c-0.6,1.6-1.2,3.3-2,5.2c-1.6,3.9-3,6.8-4.3,8.9
		l-7.4,12.2c-0.7,1.4-1.1,2.8-1.1,4.2c0,1.3-0.6,2.8-1.8,4.5c-1.1,1.3-2,1.7-2.9,1.3c-0.4-0.2-0.8-0.6-1.1-1.1
		c-0.1-0.1-0.1-0.2-0.2-0.3l-0.3-0.5c-0.6-1-1.6-3.6-3.1-8c-1.5-4.4-2.3-7.2-2.5-8.4c0-0.1,0-0.2,0-0.2c0,0,0-0.1,0-0.1
		c0-0.1,0-0.1-0.1-0.2c0-0.1-0.1-0.3-0.1-0.5l-4.8-19.1c-0.2-0.9-0.4-1.6-0.6-2.3c-0.2-0.7-0.3-1.3-0.4-1.7l-6-21.6
		c-0.2-0.9-0.3-1.6-0.4-2.4c-0.1-0.7-0.1-1.4-0.2-2c-0.1-0.6-0.2-1.3-0.3-1.9c-0.1-0.6-0.3-1.3-0.5-2c-0.1-0.3-0.2-0.6-0.3-1
		c-0.1-0.4-0.2-0.9-0.3-1.4c-0.2-1.1-0.3-1.8-0.3-2.1c0-0.5,0.3-1.4,0.9-2.8c0.5-1.3,1-2.1,1.4-2.6c0.4-0.5,0.6-0.8,0.6-0.8
		c-0.1,0,0.3-0.1,1.1-0.2c0.1-1.1,0.2-1.6,0.4-1.4c0.2,0.2,0.5-0.3,0.8-1.3c0.9,0.3,1.4,0.4,1.7,0.3l1.1-0.8c0,0,0,0,0,0
		c0.1,0,0.1-0.1,0.2-0.2c0.8,0.6,1.1,1,0.9,1.1c-0.2,0.1,0.3,0.1,1.5,0.1c0.3,0,0.6,0,0.9-0.1c0.3,0,0.5-0.1,0.8-0.1
		c0.3,0,0.5,0,0.8,0.1c0.3,0.1,0.6,0.2,0.9,0.3c3,1.5,4.5,4.5,4.5,9c0.8,0.5,1.2,0.7,1.2,0.8c0,0.8,0,1.6-0.1,2.3
		c-0.1,0.7-0.1,1.4-0.2,2.1c-0.1,0.7-0.1,1.4-0.1,2.1c0,0.7,0,1.4,0.1,2.2v0.6c0,0.4,0.1,0.9,0.3,1.3c0.1,0.5,0.3,0.9,0.4,1.4
		l1.3,6.7l0.1,0.6c0-0.1,0.1,0.1,0.2,0.5c0.1,0.5,0.2,0.9,0.3,1.3c0.1,0.3,0.2,0.8,0.3,1.4l2.9,23.9l1.4-3.6c1.2-3.6,2.2-7.3,3.1-11
		c0.9-3.7,1.8-7.3,2.9-10.9c0.1-0.4,0.2-0.7,0.2-0.8c0.1-0.1,0.1-0.4,0.2-0.8l2.3-9.2c0.4-1.9,0.3-3.3-0.4-3.9
		c-0.7-0.6-0.7-1.9-0.2-3.7l0.3-0.7c0.4-1.7,0.8-2.7,1-3.2c0.1-0.2,0.3-0.5,0.6-1c0.3-0.5,0.7-1,1.2-1.8c0-0.1,0.2-0.2,0.4-0.5
		l0.6-0.5l3.7-1.3l0.8,1.1c0.1-0.3,0.2-0.5,0.3-0.7c0.1-0.1,0.3-0.2,0.4-0.2c0.2,0,0.3,0,0.6,0.1c0.2,0.1,0.5,0.1,0.8,0.2
		c0.5,0.1,0.8,0.1,0.8,0.1c0.1-0.1,0.5,0.1,1.2,0.4c1,0.5,1.3,0.9,0.9,1.1c-0.3,0.2-0.2,0.4,0.5,0.5c0.4,0.1,0.6,0,0.6-0.3
		c0-0.3,0.2-0.4,0.6-0.4c0.1,0.1,0.2,0.2,0.3,0.4L193.2,392.6z M189.5,390.8c0-0.2,0-0.2-0.1-0.2L189.5,390.8z M189.8,391.4
		c0,0,0,0.1,0.1,0.1l0.1,0.1L189.8,391.4z M194.8,397.2c0,0,0,0.1,0.1,0.1l0.1,0.1L194.8,397.2z M226.8,388.3c0,0.1,0.1,0.1,0.2,0.1
		L226.8,388.3z M226.8,389.5c0,0.6,0,0.8,0.1,0.4c0-0.1,0.1-0.1,0.1-0.2c0-0.1,0-0.1,0.1-0.1c0,0,0-0.1,0.1-0.1c0.1,0,0.1-0.1,0-0.4
		C226.9,388.8,226.8,389,226.8,389.5z M231.8,391.8C231.8,391.8,231.8,391.8,231.8,391.8c0.1,0.1,0.1,0.1,0.1,0.1L231.8,391.8z
		 M233.8,399.9C233.7,399.9,233.8,399.9,233.8,399.9c0.1,0.1,0.1,0.1,0.1,0.1L233.8,399.9z"/>
	<path class="st1" d="M264.8,469.1c-1.1,0-1.8-0.1-1.9-0.2c-0.1-0.1-1.1-0.2-3.1-0.3c-1.3,0-2.7-0.5-4.3-1.4c-3.2-1.7-5.9-3.5-8-5.4
		c-2-1.8-3.9-4.6-5.5-8.1c-1.9-4.4-3.1-9.6-3.5-15.7c-0.4-6.1,0.4-11.5,2.3-16.1c0.5-1.1,0.9-2.1,1.3-3.1c0.4-1,0.7-1.9,1-2.7
		c0.3-0.8,0.8-1.7,1.4-2.7c0.6-1,1.3-2,2.1-3.1l1.7-1.8l0.2-0.2l4.6-3.4c2.2-1.5,5.4-2.3,9.7-2.5c4.3-0.1,7.5,0.2,9.8,1
		c3,1.1,4.4,1.7,4.2,1.8c-0.2,0.1,0.4,0.4,1.6,1c0.2,0.1,0.4,0.2,0.5,0.3c0.1,0,0,0-0.1-0.1c-0.2-0.1,0-0.1,0.5,0.1
		c0.2,0.2,0.4,0.3,0.6,0.4l2.5,2.5c0.4,0.4,0.7,0.7,0.9,1c0.3,0.3,0.5,0.6,0.6,0.8c0.4,0.5,0.9,1.2,1.3,2.2l4.2,7.7
		c1.8,2.9,2.8,5.6,3.1,8.1c0.1,1.3,0.3,2.6,0.4,3.9c0.1,1.3,0.2,2.7,0.3,4.2l-0.6,9c-0.3,1.9-1.1,4.1-2.5,6.7
		c-1.4,2.7-2.7,4.9-4.1,6.5c-1.5,1.7-3.8,3.3-6.9,5c-1.6,0.9-3,1.6-4.3,2.1c-1.3,0.5-2.4,0.9-3.4,1.2c-1.6,0.3-2.6,0.6-3,0.9
		C268.2,469,267,469.1,264.8,469.1z M264.4,455.5c0.2-0.5,0.7-1.2,1.5-1.9l5.6-9.5l0.7-1.3c0.2-0.3,0.3-0.8,0.3-1.6
		c0.1-1.2,0.2-2.3,0.2-3.2c0-1,0-1.8-0.1-2.6c-0.2-1.6-0.8-3.1-1.8-4.7c-0.5-0.7-0.9-1.4-1.3-2.2c-0.4-0.8-0.8-1.5-1-2.3
		c-0.5-1.5-1.2-2.5-1.9-2.8l-2.1-0.2h-0.3c-0.7,0-1.5-0.1-2.3-0.1c-0.8,0-1.5,0.1-2,0.3c-0.4,0.2-1.4,1.4-2.9,3.4
		c-1.5,2-2.4,3.4-2.7,4.2c-0.4,0.9-0.7,2-1,3.2c-0.3,1.3-0.5,2.8-0.7,4.5c-0.3,3.3-0.2,6.1,0.4,8.2l3,10.1l3-0.7
		c0.3-0.1,0.4,0,0.3,0.2c0,0.1,0.1,0.3,0.5,0.5c0.3,0.2,1.5,0.3,3.5,0.4L264.4,455.5z"/>
	<path class="st1" d="M299.4,386c0.9-0.4,1.2-0.4,1-0.2c-0.1,0.1,0.1,0.1,0.7-0.2c0.8-0.3,1-0.5,0.6-0.7c-0.3-0.2,1-0.1,3.9,0.3
		c0.1,1.2,0.3,1.5,0.5,1.1c0.3-0.5,1.1-0.3,2.4,0.6c1.2,0.8,1.8,1.5,2,2.2c0.1,0.3,0.1,0.7,0.1,1.1c0.5-0.5,1-0.5,1.4,0.1
		c0.4,0.4,0.7,1.1,1,1.8c0.3,1,0.3,1.4,0.2,1.3c-0.1,0-0.2,0.1-0.3,0.5c-0.1,0.4,0,0.9,0.4,1.6c0.4,0.8,0.6,1.6,0.6,2.3
		c0,1.1-0.1,1.7-0.3,1.9c-0.1,0.2-0.1,1.5-0.2,3.9l-0.5,8.1c2-1.4,3.3-2.5,3.9-3.3c0.5-0.8,2.6-2,6.2-3.6l3.5-1.8
		c0.7-0.4,1.4-0.7,2.3-0.8c0.9-0.1,1.7-0.1,2.4-0.1c0.7,0.1,1.4,0.2,2.1,0.5c0.7,0.2,1.3,0.5,2,0.9c0.6,0.4,1.3,0.8,2,1.2l2,1.8
		c0.5,0.7,0.6,1,0.3,0.9c-0.3-0.2,0.1-0.1,1.1,0.5c-0.5,0.9-0.6,1.2-0.5,1.1c0.1-0.1-0.1-0.1-0.7,0.1c0.4,0.6,0.5,0.9,0.4,0.8
		c-0.1-0.1,0.3-0.1,1.2-0.1c-0.1,1.1-0.2,1.6-0.4,1.4c-0.2-0.2-0.6-0.1-1.2,0.1c0.2,1.1,0.5,1.5,0.8,1.3c0.2-0.2,0.3,0.4,0.1,1.6
		l-0.1,0.5c-0.3,1.9-0.5,2.6-0.6,1.9c-0.1-0.6-0.7-0.2-1.7,1.1c-0.2,0.3-0.4,0.6-0.5,0.8c-0.1,0.3-0.3,0.5-0.5,0.8
		c-0.4,0.6-0.9,1-1.5,1.1c-0.4,0.1-0.7,0.2-0.9,0.3c-0.1,0.1-0.1,0,0.1,0c0.2-0.1,0.2-0.2,0-0.3c-0.9,0-1.3,0-1.3,0.1
		c0,0.1-0.5,0.2-1.5,0.3c0.4,0.4,0.6,0.6,0.6,0.8c0,0.2-0.1,0.4-0.3,0.5c-0.5,0.3-1.6,0.3-3,0.2c-1.5-0.2-2.7-0.2-3.7,0.1
		c-1.2,0.2-2.4,0.9-3.8,1.9c-0.7,0.5-1.3,1-1.8,1.4c-0.5,0.4-1,0.8-1.4,1.2c-1.4,1.2-2.7,2.9-3.9,5.1c-0.6,1.1-1,2.1-1.4,3.1
		c-0.3,1-0.5,1.8-0.5,2.7c-0.1,1.5-0.1,3.1-0.1,4.8c0.1,1.7,0.1,3.3,0.1,4.8c0,2-0.2,4.7-0.5,8.1c-0.2,3.3-0.7,5.9-1.5,7.6
		c-0.2,0.5-0.5,1-0.7,1.6c-0.2,0.6-0.4,1.1-0.7,1.7c-0.4,0.7-0.7,1.2-1,1.5c-0.3,0.3-0.5,0.8-0.7,1.4l-1.7-0.8c-0.4-0.1-1-1-1.8-2.6
		c-0.4-0.8-0.7-1.7-1-2.5c-0.3-0.9-0.5-1.7-0.8-2.6c-0.6-1.5-1-3.4-1.2-5.7c-0.2-2.3-0.4-4.2-0.6-5.7c-0.2-1.4-0.4-2.6-0.7-3.8
		c-0.2-1.2-0.5-2.3-0.7-3.4c-0.2-1.1-0.5-2.2-0.7-3.2c-0.2-1.1-0.5-2.1-0.7-3.3l-2.3-24.8c0-1.6,0-3.4-0.1-5.3
		c-0.1-1.9-0.3-4-0.6-6.2c-0.6-4.5,0.2-8,2.3-10.4l0.4-0.4l0.2-0.2c0.3-0.4,0.6-0.7,0.9-1l1.1-1.4v-0.2c0,0-0.1,0-0.1-0.1V386z
		 M312.9,396.1C312.9,396.1,312.9,396.1,312.9,396.1c0.1,0.1,0.1,0.1,0.1,0.1C313,396,313,396,312.9,396.1z"/>
	<path class="st1" d="M349.5,373.7c0.1-0.2,0.5-0.3,1.3-0.5c0.8-0.2,1.2-0.2,1.3-0.1c0,0.1,0.1,0.2,0.2,0.4c0.1,0.2,0.2,0.4,0.3,0.7
		c0.4-0.3,0.8-0.5,1.1-0.6c0.3-0.1,0.5-0.2,0.6-0.3c0.3-0.1,1,0.2,2.1,0.9c0.7,0.4,1.5,1.2,2.4,2.3l2.1,2.6c0.6,0.8,0.8,1.1,0.6,1
		c-0.2-0.1-0.2,0.2-0.2,1c0,0.9,0.3,1.7,0.7,2.3c0.4,0.5,0.7,1.2,0.7,2c0,1.6-0.1,3.2-0.3,4.6c-0.2,1.4-0.4,2.9-0.5,4.6l-1.4,21.3
		c0.8-0.4,1.9-1.3,3.2-2.7l3.1-3.3l0.9-1l5-4.7c0,0,0-0.1,0.1-0.1l0.1-0.1c0.6-0.6,1.3-1.2,2-1.8c0.7-0.6,1.5-1.2,2.2-1.8l4.4-3.7
		c1-1,3-3.1,6-6.3c3-3.2,5.3-4.4,6.7-3.8l-0.4-1.5c2.8,0,4.8,0.3,6.1,1c1.3,0.6,2.5,1.9,3.8,3.7c3.3,4.9,3.1,9.3-0.8,13.2
		c-0.2,0.2-0.4,0.4-0.5,0.6c-0.2,0.2-0.3,0.3-0.4,0.5c-0.6,0.8-1.1,1.2-1.5,1.3c-0.3,0-0.9,0.2-1.7,0.6c-1.2,0.5-2.4,1.1-3.6,1.9
		c-1.2,0.8-2.4,1.8-3.6,2.9l-8.5,7l-0.2,0.2c-0.9,0.8-1.7,1.4-2.4,2c-0.7,0.6-1.4,1.1-1.9,1.5c-1.2,0.8-1.2,1.8-0.3,3.1
		c2.8,4,4.9,7.5,6.2,10.5c1.3,3,3,6.6,5.2,10.9c0.8,1.5,1.5,3,2.3,4.4c0.8,1.4,1.6,2.8,2.4,4.2c1.7,2.8,3,5.9,3.8,9.1
		c0.5,2,0.6,3.2,0.3,3.5c-0.3,0.3-0.4,1.3-0.5,2.8H396c-1.3,0-3-1.1-5.2-3.2c-1.1-1.1-2-2-2.7-2.9s-1.3-1.5-1.7-2
		c-0.4-0.4-0.8-0.8-1.1-1.2c-0.4-0.3-0.8-0.7-1.1-1.2c-0.4-0.4-0.7-0.8-0.9-1.2c-0.2-0.4-0.5-0.8-0.8-1.3l-2.8-3.7
		c-0.5-0.5-0.8-0.9-0.9-1.1c-2-2.4-3.8-4.9-5.4-7.7c-1.6-2.7-3.6-5.1-6-7.2c-0.8-0.7-1.6-1.3-2.5-1.9c-0.8-0.6-1.8-1-2.8-1.3
		c-0.3,1.1-0.7,1.6-1.2,1.4c-0.5-0.2-0.8,0.4-0.9,1.7c0,0.4,0,1.2,0,2.3c0.1,1.1,0.2,2,0.2,2.8c0,2.6-0.1,5.8-0.3,9.6
		c-0.2,3.8-0.6,6.8-1.1,9.1l-1.6,6.1c-0.1,0.2-0.1,0.3-0.1,0.3c0,0.1-0.1,0.1-0.1,0.2c0,0-0.1,0.1-0.1,0.1l-0.6,1.2
		c-1.2,0-2-0.4-2.6-1.2c-0.4-0.6-0.6-0.8-0.5-0.7c-0.5-0.9-0.9-1.8-1-2.7c-0.2-0.9-0.4-1.9-0.7-2.9c-0.2-0.5-0.3-0.8-0.3-0.7
		c0,0-0.2-0.3-0.4-0.9c-0.6-1.6-1-3.3-1.2-4.8c-0.2-1.6-0.5-3.4-0.9-5.3l-0.8-3.6c-0.3-1.5-0.5-2.8-0.5-4l-0.7-0.3
		c-0.1,0-0.2-0.1-0.3-0.2c-0.1,0-0.2-0.1-0.3-0.2l-1.4-0.4c-1-0.4-1.5-1.1-1.5-2.1c0-2.4,0.4-4.3,1.3-5.5c0.9-1.3,1.3-2.6,1.1-3.8
		l-2-25.7c0-0.5,0-1-0.1-1.5c0-0.4-0.1-0.8-0.1-1.2c0-0.4-0.1-0.7-0.1-1.1c0-0.4-0.1-0.8-0.1-1.3l-2.1-15.9c0.2-1.7,0.9-3.1,2.1-4.2
		c0.6-0.5,1.2-1.1,1.7-1.7c0.6-0.6,1.1-1.2,1.7-1.8l0.2-0.2l0.6-0.9c0.9,0.4,1.2,0.5,0.8,0.5c-0.4-0.1-0.2,0,0.8,0.3L349.5,373.7z"
		/>
	<path class="st1" d="M408.1,421.8v-0.5v0.4l0.1-0.4c0,0,0.1-0.2,0.1-0.6c0.5-3.7,1.7-6.3,3.5-8.1c0.9-0.9,1.9-1.7,2.8-2.5
		c1-0.8,1.9-1.6,2.9-2.4c2.9-2.3,6.9-3.8,11.9-4.6c5-0.8,9.3-0.7,12.8,0.3c5.2,1.6,9.1,4.2,11.8,7.8c2.2,3,3.4,5.7,3.6,8
		c0.3,2.3-0.5,5.2-2.3,8.5l-0.9,1.8c-0.2,0.5-0.4,0.8-0.4,0.8c0,0-0.1,0.3-0.3,0.8c-0.4,0.8-0.9,1.3-1.2,1.4
		c-0.4,0.2-0.7,0.5-0.9,1.1c-0.8-0.5-1-0.8-0.8-0.8c0.2,0,0-0.1-0.8-0.2c-0.8,0-1.1,0.1-1.1,0.2c0.1,0.1-0.1-0.3-0.6-1.2l-1.2-1.5
		c-0.3-0.4-0.4-0.7-0.3-0.8c0.1,0,0.2-0.5,0.2-1.5c-1.6-0.1-3-1.1-4-3c-0.6-1.1-0.9-1.7-0.8-1.7c0.1,0-0.6-0.4-2-1.1
		c-0.6-0.3-1-0.6-1.1-0.8c-0.1-0.2-0.7-0.5-1.7-0.8c-1.3-0.3-3-0.4-5.1-0.2c-2,0.2-3.8,0.7-5.2,1.4c-0.1,0-0.2,0.1-0.3,0.1
		c-0.1,0.1-0.3,0.1-0.6,0.3c-0.1,0.1-0.2,0.1-0.3,0.2c-0.1,0-0.1,0.1-0.2,0.1c-0.1,0-0.1,0.1-0.2,0.1l-0.9,0.7
		c-0.3,0.2-0.2,0.9,0.3,2.1c0.3,1,1,1.8,2.1,2.6c0.6,0.4,1.1,0.7,1.6,1c0.5,0.3,1,0.6,1.5,0.9c0.4,0.3,0.8,0.5,1.1,0.6
		c0.3,0.1,0.7,0.3,1.2,0.5c0.9,0.4,1.8,0.8,2.6,1.2c0.8,0.4,1.7,0.8,2.8,1.2l9.9,5.2c2.3,1.5,4.3,3.2,5.9,5.3
		c3.4,4.2,4.4,8.5,3,13.1c-1.4,4.5-4.4,7.9-9.2,10.2l-1.4,0.5l-2.4,0.8c-0.3,0.1-0.5,0.1-0.5,0.2c-0.1,0,0,0.1,0.2,0.1
		c0.2,0,0.2,0.1,0.1,0.1s-0.4,0-0.8,0c-5,0-9.1-0.3-12.3-0.9c-3.1-0.5-6.6-2.4-10.6-5.4c-0.5-0.4-1.1-0.9-1.6-1.5
		c-0.5-0.6-1-1.3-1.5-2.1l-2.1-4c-0.2-0.5-0.4-1-0.7-1.6c-0.3-0.5-0.5-1.1-0.7-1.7c-0.2-0.6-0.4-1.1-0.5-1.7s-0.1-1.2,0-1.8v-0.1
		c0,0,0-0.1,0-0.1c0,0,0,0,0-0.1l0.2-0.5l0.1-0.3c0-0.2,0.1-0.3,0.1-0.3c0-0.1,0.1-0.1,0.1-0.2c0-0.1,0.1-0.2,0.1-0.3
		c0-0.1,0-0.3,0-0.6c1.6,0,3,0.5,4.3,1.5l2.3,2.3c2.5,3.3,6.1,5.8,10.8,7.2c4.8,1.4,8.5,1.6,11.3,0.4c1.7-0.8,2.1-1.9,1.2-3.5
		c0,0-0.1-0.1-0.2-0.2s-0.2-0.2-0.2-0.3c-1.2-1.5-2.8-2.7-4.8-3.7c-1-0.5-1.9-0.9-2.8-1.4c-0.9-0.4-1.8-0.9-2.6-1.2
		c-0.2-0.1-0.4-0.2-0.5-0.2c-0.1,0-0.2,0-0.3-0.1c-0.1,0-0.2,0-0.3-0.1c-0.1,0-0.3-0.1-0.5-0.2l-6-2.5l-3-1.3
		c-1-0.4-1.9-0.9-2.8-1.5c-0.8-0.5-1.7-1.1-2.5-1.7l-4.4-4c-1.2-1.5-2.3-3.3-3.1-5.4c-0.3-0.9-0.5-1.8-0.6-2.6
		c-0.1-0.9-0.2-1.8-0.3-2.7L408.1,421.8z"/>
	<path class="st1" d="M461.6,390.4c0-0.3,0-0.6-0.1-0.8c-0.1-0.2-0.1-0.4-0.1-0.8c0-0.2,0-0.4,0-0.6c0-0.2,0-0.3,0-0.5
		c0.1-2.6-0.1-5.5-0.6-8.9c-0.5-3.4-0.6-5.5-0.4-6.4l0.9-3.6l0.3-0.4l0.2-0.6c0.1-0.1,0.1-0.1,0.1-0.2l1-1.1c0,0,0-0.1,0.1-0.1
		l0.1-0.1c0.3-0.4,0.4-0.5,0.2-0.5c-0.1,0-0.1,0,0.1-0.1c0.2-0.1,0.5-0.2,1-0.4l3-0.7c0.5-0.2,0.9-0.3,1.2-0.4
		c0.3-0.1,0.5-0.2,0.6-0.2c0.2-0.1,0.8,0,1.8,0.3c2.8,0.9,4.3,1.3,4.5,1.2c0.1,0,1.2,1,3.3,3.2l0.4,0.4l0.2,0.2
		c1.5,1.6,2.1,4.3,1.6,8.3c-0.4,3.9-0.7,6.9-0.8,9l-1.1,15c-0.1,1-0.2,1.9-0.3,2.8c-0.1,0.9-0.2,1.7-0.4,2.4
		c-0.1,0.7-0.2,1.5-0.3,2.3c-0.1,0.9-0.2,1.8-0.2,2.9c-0.2,2.3-0.4,3.8-0.8,4.6c0.8-0.2,1.9-1.2,3.6-3.1c0.8-1,1.6-1.8,2.2-2.4
		c0.7-0.7,1.2-1.2,1.7-1.6l1.4-1.2c0.6-0.5,1.5-1.1,2.6-1.6l2.5-1.2c3-0.9,5.6-1.4,7.7-1.3c2.2,0.1,4.7,1,7.3,2.8
		c1.7,1.2,3.3,3,4.8,5.3c0.9,1.4,1.5,2.9,2.1,4.6c0.5,1.7,1,3.2,1.4,4.7c0,0.3,0.1,0.5,0.2,0.7c0,0.1,0.1,0.2,0.1,0.2
		c0,0,0.1,0.3,0.2,1c0.1,0.9,0.2,1.9,0.3,2.9c0,1,0,2,0,3.1c0,1,0,2-0.1,3.1c0,1,0,2,0,2.9c0,0.3,0,0.5,0,0.6c0,0.1,0,0,0.1-0.2
		c0-0.2,0.1-0.2,0.1-0.1c0,0.1,0,0.4,0,0.8l-2.9,19.9c-0.1,0.3-0.1,0.6-0.2,1.1c0,0.4-0.1,1-0.1,1.5c-0.1,1.2-0.2,2.1-0.3,2.6
		c-0.2,0.7-0.4,1.1-0.6,1.1c-0.1,0-0.3,0.3-0.4,0.8c-0.2,0.5-0.2,0.8-0.2,0.9c0.1,0.2-0.1,0.5-0.4,1l-2.2,2.1l-0.2,0.2l-0.3,0.4
		c-1.2,1.7-2,2.2-2.5,1.5c-0.4-0.7-0.7-0.3-1.1,1c-1.2-0.1-1.7-0.3-1.6-0.6c0.1-0.3-0.2-0.5-0.8-0.6c-0.6-0.1-0.7-0.2-0.4-0.2
		c0.4,0.1,0.4,0.2-0.1,0.3l-1.2-0.2c-1.1-0.1-1.7-0.1-2,0.2c-0.3,0.3-1-0.3-2-1.7c-0.2-0.2-0.3-0.4-0.3-0.5c0-0.1,0,0,0.1,0.1
		c0.1,0.1,0.1,0.1,0.1,0.1c-0.1-0.1-0.2-0.2-0.4-0.5c-0.2-0.2-0.4-0.4-0.5-0.4c-0.1-0.1-0.1,0,0.1,0.1c0.1,0.1,0.1,0.1,0.1,0.1
		c-0.1-0.1-0.2-0.2-0.4-0.3c-1.4-1-2.2-2.4-2.4-4c-0.1-1.2-0.1-2,0.3-2.6c-0.3-0.1-0.3-0.2-0.2-0.2c0.1,0,0.1,0-0.1,0
		c-0.2,0-0.5,0.1-1,0.2c0-0.7,0-1.2-0.1-1.5c-0.1-0.3-0.1-0.7-0.1-1.1l0.9-7.4c0.6-4,1.4-8.5,2.5-13.6c1.1-5.2,1.5-9.3,1.2-12.3
		c-0.1-1-0.1-1.7,0.1-2c0.2-0.4,0-1-0.5-1.7c-0.8,0.1-1.4,0.3-1.8,0.6c-0.4,0.3-0.9,0.6-1.4,0.9c-1.6,1-2.9,2.1-4.1,3.3
		c-1.2,1.2-2.4,2.4-3.6,3.6l-4.3,5.4c-0.4,0.6-0.7,1.1-1,1.5c-0.2,0.4-0.6,1-1,1.5c-0.2,0.3-0.4,0.6-0.5,0.7
		c-0.1,0.2-0.3,0.4-0.4,0.6c-1.3,2.3-2.4,5-3.5,8.1c-0.5,1.6-0.9,3-1.2,4.4c-0.3,1.4-0.4,2.7-0.4,4c0,3.4-0.4,6.3-1,8.6
		c-0.2,0.6-0.3,1.1-0.4,1.6c-0.1,0.5-0.2,0.9-0.3,1.3c-0.1,0.4-0.3,0.8-0.5,1.2c-0.2,0.4-0.4,0.8-0.7,1.3l-0.1,0.1
		c0,0,0,0.1-0.1,0.2c-0.8-0.2-1.5-0.6-1.9-1.1l-3.3-5.6c-1.2-2.4-1.9-6-2.3-11l-0.8-12l0.5-16.9c0.4-3.5,0.6-7.1,0.5-10.6
		c-0.1-3.6-0.1-7.1-0.1-10.5v-5.8c0-0.7,0-1.3,0-1.8c0-0.5,0-0.9-0.1-1.3c0-0.3-0.1-0.5-0.1-0.7c0-0.2,0-0.3,0-0.5
		c0-0.1,0-0.2,0.1-0.3c0-0.1,0-0.1,0-0.2C461.5,390.6,461.6,390.5,461.6,390.4z M461.5,368.2c0-0.1,0-0.2,0.1-0.1L461.5,368.2z
		 M471.2,364.2C471.2,364.2,471.2,364.2,471.2,364.2C471.1,364.2,471.1,364.2,471.2,364.2l-0.1-0.1L471.2,364.2z M478.9,370
		c0,0,0,0.1,0.1,0.1l0.1,0.1L478.9,370z M494.7,465.6c0,0,0,0.1,0.1,0.1l0.1,0.1L494.7,465.6z"/>
	<path class="st1" d="M543.1,469.1c-1.1,0-1.8-0.1-1.9-0.2c-0.1-0.1-1.1-0.2-3.1-0.3c-1.3,0-2.7-0.5-4.3-1.4c-3.2-1.7-5.9-3.5-8-5.4
		c-2-1.8-3.9-4.6-5.5-8.1c-1.9-4.4-3.1-9.6-3.5-15.7c-0.4-6.1,0.4-11.5,2.3-16.1c0.5-1.1,0.9-2.1,1.3-3.1c0.4-1,0.7-1.9,1-2.7
		c0.3-0.8,0.8-1.7,1.4-2.7c0.6-1,1.3-2,2.1-3.1l1.7-1.8l0.2-0.2l4.6-3.4c2.2-1.5,5.4-2.3,9.7-2.5c4.3-0.1,7.5,0.2,9.8,1
		c3,1.1,4.4,1.7,4.2,1.8c-0.2,0.1,0.4,0.4,1.6,1c0.2,0.1,0.4,0.2,0.5,0.3c0.1,0,0,0-0.1-0.1c-0.2-0.1,0-0.1,0.5,0.1
		c0.2,0.2,0.4,0.3,0.6,0.4l2.5,2.5c0.4,0.4,0.7,0.7,0.9,1c0.3,0.3,0.5,0.6,0.6,0.8c0.4,0.5,0.9,1.2,1.3,2.2l4.2,7.7
		c1.8,2.9,2.8,5.6,3.1,8.1c0.1,1.3,0.3,2.6,0.4,3.9c0.1,1.3,0.2,2.7,0.3,4.2l-0.6,9c-0.3,1.9-1.1,4.1-2.5,6.7
		c-1.4,2.7-2.7,4.9-4.1,6.5c-1.5,1.7-3.8,3.3-6.9,5c-1.6,0.9-3,1.6-4.3,2.1c-1.3,0.5-2.4,0.9-3.4,1.2c-1.6,0.3-2.6,0.6-3,0.9
		C546.5,469,545.2,469.1,543.1,469.1z M542.6,455.5c0.2-0.5,0.7-1.2,1.5-1.9l5.6-9.5l0.7-1.3c0.2-0.3,0.3-0.8,0.3-1.6
		c0.1-1.2,0.2-2.3,0.2-3.2c0-1,0-1.8-0.1-2.6c-0.2-1.6-0.8-3.1-1.8-4.7c-0.5-0.7-0.9-1.4-1.3-2.2c-0.4-0.8-0.8-1.5-1-2.3
		c-0.5-1.5-1.2-2.5-1.9-2.8l-2.1-0.2h-0.3c-0.7,0-1.5-0.1-2.3-0.1c-0.8,0-1.5,0.1-2,0.3c-0.4,0.2-1.4,1.4-2.9,3.4
		c-1.5,2-2.4,3.4-2.7,4.2c-0.4,0.9-0.7,2-1,3.2c-0.3,1.3-0.5,2.8-0.7,4.5c-0.3,3.3-0.2,6.1,0.4,8.2l3,10.1l3-0.7
		c0.3-0.1,0.4,0,0.3,0.2c0,0.1,0.1,0.3,0.5,0.5c0.3,0.2,1.5,0.3,3.5,0.4L542.6,455.5z"/>
	<path class="st1" d="M574,426.2c0-1-0.2-3.6-0.6-7.6c-0.4-4-0.6-6.9-0.5-8.9c0.1-1.5,0.4-3.2,0.9-4.9c0.5-1.8,1.3-3.1,2.4-4.1
		l0.7-0.5l0.2-0.2c0.1,0,0.2-0.1,0.2-0.1c0,0,0,0,0-0.1c0,0,0-0.1,0.1-0.1c0.1-0.1,0.2-0.1,0.4-0.2c0.3-0.2,0.5-0.2,0.5-0.2
		c0,0,0.2-0.1,0.5-0.3l1.8-1.6c0.6,0.2,1,0.3,1,0.4c0.1,0.1-0.1,0.1-0.5,0c-0.4-0.1-0.6-0.1-0.5,0c0.1,0.1,0.5,0.2,1.1,0.4
		c1-0.9,1.8-1.1,2.5-0.7c0.3,0.2,0.7,0.5,1.1,0.7s0.8,0.4,1.2,0.6c0.7,0.4,1.2,0.5,1.5,0.3c0.3-0.2,0.8,0.3,1.5,1.6l0.4,0.9v0.1
		c0,0,0,0.1,0.1,0.1c0.1,0.2,0.2,0.4,0.3,0.6c0.3,0.5,0.5,0.8,0.6,0.7c0.1,0,0.3,0.3,0.5,0.9c1.8-0.9,5-1,9.7-0.3
		c4.8,0.7,7.7,1.3,8.9,1.7c2,1,2.9,1.3,2.5,1c-0.2-0.2,0-0.1,0.5,0.2c0.5,0.3,1.3,0.8,2.5,1.6c1.1,0.8,2.2,1.5,3.3,2.3
		c1,0.8,1.9,1.8,2.7,2.9l0.4,0.8c0.1,0.2,0.2,0.4,0.2,0.4c0,0,0.1,0.1,0.3,0.4l2.6,4.7c1.1,2.5,1.9,4.1,2.3,4.8
		c0.4,0.6,0.9,2.5,1.4,5.8c0.3,2,0.5,3.9,0.6,5.5c0,1.7-0.1,3.2-0.3,4.7c-0.5,2.8-1.7,6.3-3.7,10.3c-1,2-1.7,3.4-2.2,4.2
		c-0.5,0.8-0.6,1.1-0.5,0.8c0.2-0.6-0.6,0.4-2.6,3.2l-0.4,0.8c-0.3,0.7-0.8,1.4-1.3,2.1c-0.5,0.7-1.1,1.3-1.7,1.9
		c-0.6,0.6-1.3,1.1-2,1.6c-0.7,0.5-1.3,0.9-2,1.3l-3.5,1.6c-0.6,0.2-1.1,0.4-1.5,0.6s-1,0.3-1.8,0.6c-3.1,0.9-6.1,0.8-8.8-0.3
		c-2.7-1.1-4.7-1.8-6.1-2.1c0,0.9-0.1,1.6-0.2,1.9c-0.1,0.3-0.1,1-0.2,1.9l-1.9,15.8c0,0.3-0.1,0.7-0.2,1.3c-0.1,0.5-0.3,1.2-0.4,2
		c-0.2,0.8-0.3,1.4-0.5,1.9c-0.2,0.5-0.3,0.8-0.4,1.1c-1.1-0.1-2.1-0.9-3.1-2.3c-0.3-0.5-0.7-1-1.1-1.5c-0.4-0.5-0.7-1-0.9-1.5
		c-1.7-3.1-2.7-7.6-3-13.6c-0.2-5.9-0.5-10.2-0.9-13l-1.4-17.5c-0.1-0.8-0.1-1.6-0.1-2.4c0.1-0.8,0-1.6-0.1-2.4
		c-0.1-0.5-0.2-1.2-0.4-2.1c-0.2-0.9-0.2-1.7-0.3-2.3l-0.3-2.8c0-0.4-0.3-1.3-0.9-2.6c-0.2-0.5-0.4-0.9-0.5-1.1
		c-0.1-0.2-0.1-0.3,0-0.2C573.9,427.2,574,426.9,574,426.2z M598.2,453.6c0.8,0,1.8-0.4,2.9-1.2c0.5-0.4,1-0.8,1.4-1.2
		c0.4-0.4,0.8-0.7,1.1-1l2.6-4.4l0.6-2.5c0.3-1.3,0.6-2.6,0.8-3.8c0.2-1.2,0.3-2.4,0.3-3.6c0-1.2-0.2-2.4-0.5-3.6
		c-0.3-1.2-0.8-2.4-1.4-3.6c-0.3-0.6-0.7-1.2-1.2-1.9c-0.4-0.6-1-1.1-1.7-1.4c-1.5-0.6-3.2-1-4.9-1c-1.8-0.1-3.2,0.7-4.3,2.2
		c-0.9,1.4-1.4,2.6-1.4,3.6l-0.6,18.7l2.2,2.8c0.9,1,1.5,1.6,1.8,1.8C596.1,453.5,596.9,453.6,598.2,453.6z"/>
	<path class="st1" d="M628.6,421.8v-0.5v0.4l0.1-0.4c0,0,0.1-0.2,0.1-0.6c0.5-3.7,1.7-6.3,3.5-8.1c0.9-0.9,1.9-1.7,2.8-2.5
		c1-0.8,1.9-1.6,2.9-2.4c2.9-2.3,6.9-3.8,11.9-4.6c5-0.8,9.3-0.7,12.8,0.3c5.2,1.6,9.1,4.2,11.8,7.8c2.2,3,3.4,5.7,3.6,8
		c0.3,2.3-0.5,5.2-2.3,8.5l-0.9,1.8c-0.2,0.5-0.4,0.8-0.4,0.8c0,0-0.1,0.3-0.3,0.8c-0.4,0.8-0.9,1.3-1.2,1.4
		c-0.4,0.2-0.7,0.5-0.9,1.1c-0.8-0.5-1-0.8-0.8-0.8c0.2,0,0-0.1-0.8-0.2c-0.8,0-1.1,0.1-1.1,0.2c0.1,0.1-0.1-0.3-0.6-1.2l-1.2-1.5
		c-0.3-0.4-0.4-0.7-0.3-0.8c0.1,0,0.2-0.5,0.2-1.5c-1.6-0.1-3-1.1-4-3c-0.6-1.1-0.9-1.7-0.8-1.7c0.1,0-0.6-0.4-2-1.1
		c-0.6-0.3-1-0.6-1.1-0.8c-0.1-0.2-0.7-0.5-1.7-0.8c-1.3-0.3-3-0.4-5.1-0.2c-2,0.2-3.8,0.7-5.2,1.4c-0.1,0-0.2,0.1-0.3,0.1
		c-0.1,0.1-0.3,0.1-0.6,0.3c-0.1,0.1-0.2,0.1-0.3,0.2c-0.1,0-0.1,0.1-0.2,0.1c-0.1,0-0.1,0.1-0.2,0.1l-0.9,0.7
		c-0.3,0.2-0.2,0.9,0.3,2.1c0.3,1,1,1.8,2.1,2.6c0.6,0.4,1.1,0.7,1.6,1c0.5,0.3,1,0.6,1.5,0.9c0.4,0.3,0.8,0.5,1.1,0.6
		c0.3,0.1,0.7,0.3,1.2,0.5c0.9,0.4,1.8,0.8,2.6,1.2c0.8,0.4,1.7,0.8,2.8,1.2l9.9,5.2c2.3,1.5,4.3,3.2,5.9,5.3
		c3.4,4.2,4.4,8.5,3,13.1c-1.4,4.5-4.4,7.9-9.2,10.2l-1.4,0.5l-2.4,0.8c-0.3,0.1-0.5,0.1-0.5,0.2c-0.1,0,0,0.1,0.2,0.1
		c0.2,0,0.2,0.1,0.1,0.1s-0.4,0-0.8,0c-5,0-9.1-0.3-12.3-0.9c-3.1-0.5-6.6-2.4-10.6-5.4c-0.5-0.4-1.1-0.9-1.6-1.5
		c-0.5-0.6-1-1.3-1.5-2.1l-2.1-4c-0.2-0.5-0.4-1-0.7-1.6c-0.3-0.5-0.5-1.1-0.7-1.7c-0.2-0.6-0.4-1.1-0.5-1.7s-0.1-1.2,0-1.8v-0.1
		c0,0,0-0.1,0-0.1c0,0,0,0,0-0.1l0.2-0.5l0.1-0.3c0-0.2,0.1-0.3,0.1-0.3c0-0.1,0.1-0.1,0.1-0.2c0-0.1,0.1-0.2,0.1-0.3
		c0-0.1,0-0.3,0-0.6c1.6,0,3,0.5,4.3,1.5l2.3,2.3c2.5,3.3,6.1,5.8,10.8,7.2c4.8,1.4,8.5,1.6,11.3,0.4c1.7-0.8,2.1-1.9,1.2-3.5
		c0,0-0.1-0.1-0.2-0.2s-0.2-0.2-0.2-0.3c-1.2-1.5-2.8-2.7-4.8-3.7c-1-0.5-1.9-0.9-2.8-1.4s-1.8-0.9-2.6-1.2
		c-0.2-0.1-0.4-0.2-0.5-0.2c-0.1,0-0.2,0-0.3-0.1c-0.1,0-0.2,0-0.3-0.1c-0.1,0-0.3-0.1-0.5-0.2l-6-2.5l-3-1.3
		c-1-0.4-1.9-0.9-2.8-1.5c-0.8-0.5-1.7-1.1-2.5-1.7l-4.4-4c-1.2-1.5-2.3-3.3-3.1-5.4c-0.3-0.9-0.5-1.8-0.6-2.6
		c-0.1-0.9-0.2-1.8-0.3-2.7L628.6,421.8z"/>
</g>
</svg>
