<?xml version="1.0" encoding="utf-8"?>
<!-- Generator: Adobe Illustrator 19.0.0, SVG Export Plug-In . SVG Version: 6.00 Build 0)  -->
<svg version="1.1" id="Layer_1" xmlns="http://www.w3.org/2000/svg" xmlns:xlink="http://www.w3.org/1999/xlink" x="0px" y="0px"
	 viewBox="0 0 768 768" style="enable-background:new 0 0 768 768;" xml:space="preserve">
<metadata><?xpacket begin="﻿" id="W5M0MpCehiHzreSzNTczkc9d"?>
<x:xmpmeta xmlns:x="adobe:ns:meta/" x:xmptk="Adobe XMP Core 5.6-c067 79.157747, 2015/03/30-23:40:42        ">
   <rdf:RDF xmlns:rdf="http://www.w3.org/1999/02/22-rdf-syntax-ns#">
      <rdf:Description rdf:about=""/>
   </rdf:RDF>
</x:xmpmeta>
                                                                                                    
                                                                                                    
                                                                                                    
                                                                                                    
                                                                                                    
                                                                                                    
                                                                                                    
                                                                                                    
                                                                                                    
                                                                                                    
                                                                                                    
                                                                                                    
                                                                                                    
                                                                                                    
                                                                                                    
                                                                                                    
                                                                                                    
                                                                                                    
                                                                                                    
                                                                                                    
                           
<?xpacket end="w"?></metadata>
<style type="text/css">
	.st0{fill:#D54C47;}
	.st1{fill:#FFFFFF;}
</style>
<path id="XMLID_43_" class="st0" d="M667.5,439.1c-0.6-17.8-4.9-50.9-27.9-72.7c-10.2-9.7-23.1-16.1-37.1-18.5
	c4.3-11.5,5.6-22.5,4-33.1c-3-19.3-16.2-35.8-36.2-45.3c-11.1-5.3-23.1-7.9-35.7-7.9c-9.2,0-18.2,1.4-26.8,4.1
	c1-8.9,1-17.7-0.2-25.9c-6.3-45.4-50.2-69.9-88.3-69.9c-40,0-74.9,22.9-89.7,56.2c-11.2-7.3-24.7-11.3-39.5-11.3
	c-15.8,0-31.8,4.8-45.1,13.5c-15.8,10.3-28.6,26.6-35.1,44.7c-4.6,12.7-5.8,25.5-3.8,37.6c-25,2.7-50.1,16-70.2,37.5
	c-42.6,45.6-47.1,113.4-10.7,161.2c21.2,27.8,54.9,44.4,90.1,44.4c24,0,46.7-7.5,65.3-21.4c24.4,31.3,62.8,51.9,103.7,55
	c3.6,0.3,7.3,0.4,11,0.4c21.3,0,42.9-4.7,62.3-13.5c6.9-3.1,23.7-10.7,35.3-25c13.9,12,32.9,18.5,55,18.5l0,0
	c20.4,0,42.1-5.6,59.3-15.5C645.9,530,669,486.8,667.5,439.1z"/>
<circle id="XMLID_104_" class="st0" cx="557.1" cy="203.9" r="23.7"/>
<circle id="XMLID_98_" class="st0" cx="199.2" cy="210.5" r="18.3"/>
<circle id="XMLID_92_" class="st0" cx="271.1" cy="156.5" r="34.8"/>
<g id="XMLID_24_">
	<path id="XMLID_185_" class="st1" d="M273.7,346.2c1.8-2.5,3.4-3.7,4.7-3.7c1.3,0.1,2.4,0.5,3.3,1.2s1.1,2.7,0.6,5.9
		c-0.5,3.3-1.5,9.7-3.1,19.5c-1.6,9.7-2.1,15.4-1.6,17.1s3.3-0.6,8.3-6.9c5-6.2,9.6-12.4,13.6-18.4s6.5-9.7,7.4-11s1.8-2.5,2.6-3.6
		c0.8-1.1,1.6-2,2.4-2.6c0.7-0.6,1.5-0.5,2.2,0.3s1.1,1.7,1.3,2.6s-0.4,2.4-1.6,4.5c-1.3,2.1-2.6,4.6-4.1,7.5s-3.4,6.2-5.6,10.1
		c-2.2,3.8-5.3,8.2-9.3,13c-3.9,4.8-6.9,8.3-9,10.5s-4.6,4-7.6,5.4c-3,1.3-5.1,1.3-6.3-0.3c-1.1-1.5-2-3.1-2.4-4.9
		c-0.5-1.7-0.8-3.7-0.9-5.9c-0.1-2.2,0.6-6.8,2.1-13.9s1.1-9.1-1.1-6s-4.7,6.3-7.5,9.5s-4.6,5.2-5.4,5.8c-0.8,0.7-1.8,1.9-2.9,3.6
		c-1.1,1.7-2.1,3-2.9,3.8c-0.8,0.8-2.9,2.9-6.4,6.4c-3.4,3.5-5.7,5.2-7,5.2c-1.2,0-2.2-0.4-2.8-1.2c-0.7-0.8-1.4-2.2-2.2-4.1
		s-1.1-4.3-0.8-7.1c0.2-2.8,0.7-5.4,1.5-7.8c0.7-2.4,1.5-4.9,2.3-7.4c0.8-2.6,2.2-6.4,4.4-11.4s3.7-8.5,4.5-10.5
		c0.9-2,1.6-3.2,2.1-3.7s1.5-0.5,3,0c1.5,0.4,2.4,1.2,3,2.4c0.5,1.1,0.5,2.3,0,3.4s-2,4.3-4.5,9.7c-2.5,5.4-4.6,11.2-6.3,17.6
		c-1.7,6.3-1.3,8.1,1.3,5.4s5.4-6.1,8.6-10.1c3.1-4,6.6-8.4,10.4-13.3c3.8-4.8,6.3-8.1,7.3-9.9C270.5,350.8,271.9,348.6,273.7,346.2
		z"/>
	<path id="XMLID_187_" class="st1" d="M317.8,369.8c0.8-0.8,1.9-1.3,3.1-1.5s2.2-0.2,3,0.2c0.8,0.4,1.5,1,2,1.9s1.9,1.3,4.1,1.3
		s4.9,0,8.2,0c3.3,0.1,2.6,0.2-2.1,0.3c-4.7,0.1-7.3,0.3-7.9,0.6c-0.6,0.2-0.9,1-0.8,2.3s0.2,2.7,0.3,4.2c0.1,1.5,0.1,3.1,0,4.9
		c0,1.8-0.2,3.1-0.4,4c-0.2,0.9-0.5,1.8-1,2.8s-1.1,2-1.9,3.1c-0.9,1.1-1.9,2.1-3.2,3c-1.3,0.9-2.4,1.6-3.5,2.1s-2.2,0.5-3.4,0.1
		c-1.2-0.4-2.2-1.1-3-2s-1.4-1.8-1.8-2.8c-0.5-1-0.7-2.7-0.6-5.1s0.3-4.4,0.8-5.8c0.5-1.5,1.2-3,2.1-4.6c1-1.6,1.3-2.4,0.9-2.2
		c-0.4,0.1-0.5,0.1-0.3-0.2c0.2-0.2,1-1.2,2.3-2.8C315.9,371.8,317,370.6,317.8,369.8z M321.1,380.2c-1-1.2-2.2-0.9-3.6,1
		s-2.3,3.8-2.6,5.9c-0.3,2.1-0.2,3.5,0.3,4.4c0.5,0.8,1,1.3,1.6,1.5c0.5,0.1,1.3-0.2,2.3-1.1s1.8-2.7,2.5-5.6
		C322.2,383.3,322.1,381.3,321.1,380.2z"/>
	<path id="XMLID_190_" class="st1" d="M336.4,375.7c1.6-6.1,3.1-9.1,4.6-9s2.6,0.8,3.3,2s0.7,2.6-0.2,4.4c-0.9,1.7-1,2.5-0.3,2.4
		s1.7-0.5,2.9-1.3c1.2-0.8,2.3-1.4,3.4-1.8c1.1-0.5,1.9-0.8,2.6-0.9s1.9,0.1,3.8,0.7s3.6,1.4,5.3,2.4c1.7,1,3.9,1.1,6.6,0.3
		c2.7-0.9,2.4-0.6-0.9,0.9c-3.3,1.4-6.8,2.1-10.2,2c-3.5-0.1-6.2,0.3-8.1,1.3c-1.9,0.9-3.5,1.9-4.8,3.1c-1.3,1.1-2.5,3-3.7,5.5
		c-1.1,2.6-2,4.7-2.6,6.5s-1.1,3.2-1.6,4.3c-0.5,1.1-1.4,1.7-2.8,1.8c-1.4,0.1-2.4-0.5-2.8-1.5c-0.5-1.1-0.6-1.8-0.3-2.1
		c0.2-0.3,0.9-2.3,2-6S334.9,381.8,336.4,375.7z"/>
	<path id="XMLID_192_" class="st1" d="M378.6,339.5c0.9-0.9,2.2-1.1,3.8-0.4s1.9,3.5,0.9,8.5s-2.2,10-3.4,15c-1.2,5-1,7.4,0.8,7.3
		c1.8-0.2,3.4-0.8,4.9-2.1c1.5-1.2,3.2-2.5,5-3.9s3.6-2.6,5.2-3.6s2.6-0.7,3,0.9s0.2,2.9-0.3,4c-0.6,1.1-2.9,3-7,5.7s-6,4.4-5.8,5.1
		s0.4,1.4,0.6,2c0.2,0.7,1.1,2.2,2.7,4.5s3.7,4.7,6.3,7.2c2.6,2.5,3.8,4,3.5,4.6s-0.7,1-1.4,1.2c-0.7,0.2-1.5,0.4-2.5,0.5
		c-1,0.2-2.5-0.6-4.5-2.4c-2-1.7-4-3.9-5.8-6.4c-1.9-2.5-3.5-4.6-4.7-6.1c-1.3-1.5-2.2-2.5-2.7-2.8c-0.5-0.4-1.5,1.7-2.8,6.1
		c-1.4,4.5-2.6,7.8-3.7,10.1s-2.2,3.2-3.5,2.9c-1.3-0.3-2.1-0.7-2.4-1c-0.4-0.4-0.4-1.1-0.2-2.1c0.2-1.1,1-3,2.4-5.9
		s2.9-8.5,4.7-16.8c1.8-8.3,2.9-14.2,3.4-17.6s0-3.8-1.4-1.2c-1.4,2.6-3.7,6.2-6.9,10.7c-3.2,4.5-3.6,4.9-1.1,1s4.3-6.8,5.3-8.7
		c1.1-1.9,2.3-4.9,3.9-8.9C376.5,342.8,377.7,340.4,378.6,339.5z"/>
	<path id="XMLID_194_" class="st1" d="M413.1,367.3c1.8-0.9,3.5-1.5,5.3-1.7c1.8-0.3,2.8,0.1,3.2,1c0.4,0.9,0.2,1.8-0.5,2.7
		c-0.7,0.9-1.7,1.4-3,1.5s-2.6,1-4.1,2.7s-2.3,3.7-2.5,6s-0.2,3.9,0.2,4.8c0.3,0.9,0.7,2.6,1.1,5.1s0.1,4.7-0.8,6.6
		c-0.9,1.8-1.9,3.2-3,4s-2.4,1.5-3.9,1.8c-1.6,0.4-2.9,0.6-4,0.6s-2.3-0.3-3.5-0.8c-1.3-0.5-2-1.6-2.3-3.3c-0.3-1.6,2-4.7,6.9-9.2
		s5.3-4.6,1.2-0.4c-4.1,4.2-5.7,6.8-4.8,7.8c0.9,1,2,1.3,3.2,0.8c1.3-0.5,2.2-1.1,3-1.9c0.7-0.8,1.3-1.8,1.6-3
		c0.4-1.2,0.5-2.2,0.5-3.2s-0.4-3.2-1-6.6s-0.6-6,0-7.7s1.6-3.2,2.8-4.4C409.8,369.2,411.3,368.2,413.1,367.3z"/>
	<path id="XMLID_199_" class="st1" d="M441.7,329c2.3-0.5,4.2-0.2,5.6,0.9s1.2,3-0.9,5.8c-2,2.8-4.9,8.6-8.5,17.5s-6,15.2-7.1,19
		c-1.1,3.7-1.2,5.1-0.3,4.1c0.9-1,1.8-1.9,2.7-2.7c0.9-0.8,1.9-1.6,3-2.5s2.1-1.5,3-1.9s1.9-0.7,3-0.9c1.1-0.2,2.1,0,3,0.5
		s1.6,1.2,2.1,1.9c0.5,0.8,0.8,2.2,0.9,4.3c0.1,2.1,0,4.2-0.4,6.5s-0.4,4-0.1,5.1s0.9,2.2,1.7,3c0.8,0.9,2.2,1.1,4.2,0.6
		s3.5-1.3,4.6-2.4c1.1-1.2,1.4-1.1,0.8,0.2c-0.6,1.3-1.5,2.5-2.6,3.5c-1.2,1-2.6,1.9-4.3,2.7c-1.7,0.8-3,1.2-4.1,1.2
		s-2.1-0.4-3.2-1.3s-1.8-2.2-2.2-3.9c-0.4-1.7-0.5-4.3-0.3-7.9s0-5.7-0.8-6.4c-0.7-0.7-2.6,0.1-5.6,2.3c-3,2.2-5.3,4.8-6.8,7.6
		c-1.5,2.8-2.7,5.2-3.4,7.2c-0.7,2-1.7,2.8-2.8,2.5c-1.1-0.3-2-0.8-2.6-1.5s-0.9-1.7-0.9-3s1.3-6.3,4-15.1c2.6-8.7,5.6-17.3,9-25.6
		c3.4-8.3,5.4-13.4,5.9-15.2C439.1,333.2,440.1,331.2,441.7,329z"/>
	<path id="XMLID_201_" class="st1" d="M468,369.8c0.8-0.8,1.9-1.3,3.1-1.5s2.2-0.2,3,0.2c0.8,0.4,1.5,1,2,1.9s1.9,1.3,4.1,1.3
		s4.9,0,8.2,0c3.3,0.1,2.6,0.2-2.1,0.3c-4.7,0.1-7.3,0.3-7.9,0.6c-0.6,0.2-0.9,1-0.8,2.3s0.2,2.7,0.3,4.2c0.1,1.5,0.1,3.1,0,4.9
		c0,1.8-0.2,3.1-0.4,4c-0.2,0.9-0.5,1.8-1,2.8s-1.1,2-1.9,3.1c-0.9,1.1-1.9,2.1-3.2,3c-1.3,0.9-2.4,1.6-3.5,2.1s-2.2,0.5-3.4,0.1
		c-1.2-0.4-2.2-1.1-3-2s-1.4-1.8-1.8-2.8c-0.5-1-0.7-2.7-0.6-5.1s0.3-4.4,0.8-5.8c0.5-1.5,1.2-3,2.1-4.6c1-1.6,1.3-2.4,0.9-2.2
		c-0.4,0.1-0.5,0.1-0.3-0.2c0.2-0.2,1-1.2,2.3-2.8C466.1,371.8,467.2,370.6,468,369.8z M471.2,380.2c-1-1.2-2.2-0.9-3.6,1
		s-2.3,3.8-2.6,5.9c-0.3,2.1-0.2,3.5,0.3,4.4c0.5,0.8,1,1.3,1.6,1.5c0.5,0.1,1.3-0.2,2.3-1.1s1.8-2.7,2.5-5.6
		C472.4,383.3,472.2,381.3,471.2,380.2z"/>
	<path id="XMLID_204_" class="st1" d="M486,369.6c3.9-2.6,6.3-4.1,7.2-4.4c0.9-0.3,1.6-0.2,2.2,0.3s0.9,1.2,1.1,1.9
		c0.1,0.8-0.1,2.5-0.7,5c-0.6,2.6-0.6,3.6,0,3.2c0.6-0.5,1.4-1,2.4-1.4s2.4-1,4-1.6s3.1-0.8,4.5-0.7c1.4,0.1,2.5,0.4,3.2,1
		s1.2,1.1,1.4,1.5c0.2,0.4,0.5,0.9,0.8,1.6c0.3,0.7,0.5,1.1,0.5,1.3c0,0.2,0,0.5,0.1,1s0,1.3-0.1,2.5c-0.2,1.2-0.6,2.6-1.4,4.2
		c-0.8,1.6-1.9,3.2-3.5,4.6c-1.5,1.4-2.9,2.5-4,3.1s-2.3,1.2-3.5,1.6c-1.3,0.5-2.5,0.8-3.9,1c-1.3,0.2-2.4,0-3.2-0.6
		c-0.8-0.6-1.2-1.2-1.2-1.9c0-0.7,0.2-1.5,0.7-2.5s1-1.7,1.5-2.5c0.5-0.7,1.4-1.6,2.5-2.6c1.2-1,2.4-1.8,3.7-2.3
		c1.3-0.6,2.3-0.9,3.1-1.1c0.7-0.2,0.3,0.4-1.5,1.5c-1.7,1.2-3.3,2.4-4.5,3.5c-1.3,1.1-1.7,2-1.3,2.5c0.5,0.5,1.3,0.6,2.5,0.1
		s3-1.8,5.3-4.1c2.3-2.3,3.1-4.3,2.2-5.9c-0.8-1.6-2.4-2-4.7-1.2c-2.3,0.9-4.4,2.1-6.2,3.7c-1.8,1.6-3.7,4.8-5.7,9.6
		c-2,4.8-3.4,8.4-4.2,10.7c-0.8,2.3-1.9,5.5-3.3,9.5s-3,8-4.8,11.8s-3.4,5.5-4.5,5c-1.2-0.5-1.9-1.1-2.1-1.9s-0.3-1.6-0.2-2.5
		c0.1-0.9,0.5-2,1.1-3.3s1.5-3.6,2.5-6.7c1.1-3.1,3.3-9.1,6.7-18c3.4-8.9,5.4-14.2,6.1-15.8c0.6-1.6,1.5-4.1,2.5-7.3
		c1-3.2,1.1-4.7,0.3-4.4c-0.8,0.3-2.6,1.2-5.3,2.6C481.5,372.7,482.1,372.2,486,369.6z"/>
	<path id="XMLID_206_" class="st1" d="M527.7,367.3c1.8-0.9,3.5-1.5,5.3-1.7s2.8,0.1,3.2,1s0.2,1.8-0.5,2.7c-0.7,0.9-1.7,1.4-3,1.5
		s-2.6,1-4.1,2.7s-2.3,3.7-2.5,6s-0.2,3.9,0.2,4.8c0.3,0.9,0.7,2.6,1.1,5.1c0.4,2.5,0.1,4.7-0.8,6.6c-0.9,1.8-1.9,3.2-3,4
		s-2.4,1.5-3.9,1.8c-1.6,0.4-2.9,0.6-4,0.6s-2.3-0.3-3.5-0.8c-1.3-0.5-2-1.6-2.3-3.3c-0.3-1.6,2-4.7,6.9-9.2s5.3-4.6,1.2-0.4
		s-5.7,6.8-4.8,7.8s2,1.3,3.2,0.8c1.3-0.5,2.2-1.1,3-1.9c0.7-0.8,1.3-1.8,1.6-3c0.4-1.2,0.5-2.2,0.5-3.2s-0.4-3.2-1-6.6
		s-0.6-6,0-7.7s1.6-3.2,2.8-4.4C524.5,369.2,526,368.2,527.7,367.3z"/>
</g>
</svg>
