<?xml version="1.0" encoding="iso-8859-1"?>
<!-- Generator: Adobe Illustrator 19.2.1, SVG Export Plug-In . SVG Version: 6.00 Build 0)  -->
<svg version="1.1" id="Layer_1" xmlns="http://www.w3.org/2000/svg" xmlns:xlink="http://www.w3.org/1999/xlink" x="0px" y="0px"
	 viewBox="0 0 768 768" style="enable-background:new 0 0 768 768;" xml:space="preserve">
<path id="XMLID_18_" style="fill:#D52147;" d="M652.037,267.408c-22.785-44.216-74.391-88.979-128.951-88.979
	c-11.772,0-22.956,2.105-33.368,6.218c-2.528-5.283-5.673-10.464-9.39-15.443c-17.237-23.081-45.311-39.323-77.028-44.563
	c-6.337-1.047-12.845-1.577-19.344-1.577c-40.293,0-77.003,19.636-97.761,50.196c-8.531-3.575-17.233-6.082-25.884-7.424
	c-4.697-0.728-9.499-1.097-14.271-1.097c-58.903,0-109.012,55.046-118.852,106.456c-6.491,33.888,5.118,70.489,27.595,95.95
	c-21.826,17.026-38.612,39.653-48.023,65.489c-17.375,47.702-5.148,103.204,31.913,144.849
	c33.681,37.847,86.827,60.411,145.813,61.908c1.76,0.046,3.546,0.067,5.339,0.067c50.689,0,82.318-15.668,101.336-31.503
	c26.481,23.525,61.088,36.981,97.16,36.981c14.004,0,27.941-2.015,41.428-5.99c70.45-20.76,109.053-85,91.796-152.742
	c-2.945-11.562-7.743-23.248-13.866-34.128c20.42-11.576,36.776-29.157,47.547-51.56
	C674.693,360.008,673.471,309.005,652.037,267.408z"/>
<g id="XMLID_3_">
	<path id="XMLID_82_" style="fill:#FFFFFF;" d="M348.542,359.668c5.098-4.657,8.35-6.932,9.756-6.822
		c1.406,0.11,2.482,1.033,3.23,2.769c0.746,1.736,1.064,2.923,0.956,3.56c-0.11,0.638-0.935,1-2.473,1.088s-3.966,1.977-7.283,5.668
		c-3.319,3.691-5.846,6.625-7.581,8.801c-1.736,2.175-3.955,4.779-6.657,7.811c-2.703,3.033-4.439,5.143-5.208,6.328
		c-0.77,1.188-5.263,5.516-13.48,12.986c-8.218,7.472-12.976,11.525-14.271,12.162c-1.297,0.638-2.868,1.011-4.714,1.12
		c-1.846,0.11-3.361-0.208-4.548-0.956c-1.187-0.746-2.1-1.779-2.735-3.098c-0.638-1.318-1.121-3.812-1.45-7.481
		c-0.33-3.669-0.275-7.13,0.164-10.382s0.714-5.581,0.824-6.988c0.109-1.405,0.318-2.91,0.626-4.515
		c0.308-1.604,0.517-4.307,0.627-8.108c0.108-3.801,0.054-6.46-0.165-7.976c-0.221-1.517,0-2.977,0.659-4.384
		c0.659-1.406,1.582-2.208,2.769-2.406c1.187-0.197,1.999-0.241,2.438-0.132c0.439,0.11,1.088,0.704,1.945,1.78
		c0.856,1.077,1.395,2.373,1.614,3.889c0.22,1.517,0.274,4.593,0.165,9.229c-0.11,4.637-0.539,9.229-1.285,13.777
		c-0.748,4.548-1.066,8.448-0.956,11.7c0.109,3.253,0.429,4.988,0.956,5.208s1.384-0.109,2.57-0.989
		c1.187-0.879,2.868-2.186,5.043-3.922c2.176-1.735,3.746-3.087,4.713-4.054s2.802-2.911,5.505-5.834
		c2.702-2.922,5.998-6.328,9.888-10.218c3.889-3.889,6.646-6.965,8.272-9.229C340.082,367.787,343.444,364.326,348.542,359.668z"/>
	<path id="XMLID_84_" style="fill:#FFFFFF;" d="M362.056,381.222c2.943-0.219,4.734,0.275,5.372,1.483
		c0.637,1.209,0.934,2.747,0.89,4.614c-0.044,1.868-0.923,3.45-2.637,4.746c-1.714,1.297-3.978,2.582-6.789,3.856
		c-0.791,0.308-1.506,0.473-2.143,0.494c-0.638,0.022-1.165,0-1.582-0.065c-0.418-0.066-0.748-0.132-0.989-0.198
		c-0.241-0.065-0.385-0.032-0.428,0.099c-0.791,1.275-1.198,2.55-1.22,3.824c-0.022,1.274,0.396,2.45,1.252,3.526
		c0.857,1.077,1.813,1.703,2.868,1.878c1.055,0.177,2.152,0.144,3.296-0.099c1.142-0.241,3.251-0.999,6.328-2.274
		c3.075-1.273,5.218-2.472,6.427-3.592c1.208-1.121,2.361-2.209,3.461-3.264c1.098-1.055,1.252-1.055,0.461,0
		s-1.77,2.33-2.934,3.824s-2.614,2.978-4.351,4.449c-1.736,1.473-3.153,2.604-4.251,3.395c-1.1,0.791-2.561,1.506-4.384,2.143
		c-1.824,0.638-3.615,0.835-5.372,0.593c-1.759-0.241-3.077-0.647-3.955-1.22c-0.88-0.57-1.692-1.252-2.439-2.043
		s-1.362-1.725-1.846-2.802c-0.482-1.076-0.735-2.548-0.758-4.416c-0.021-1.867,0.417-3.899,1.318-6.098
		c0.9-2.197,1.922-4.021,3.065-5.472c1.142-1.449,2.691-2.91,4.646-4.383C357.319,382.751,359.551,381.75,362.056,381.222z
		 M362.121,387.156c-0.308-0.308-1.065-0.154-2.274,0.461c-1.209,0.616-2.087,1.308-2.637,2.076c-0.55,0.77-0.648,1.33-0.296,1.682
		c0.351,0.352,1.098,0.209,2.241-0.429c1.142-0.637,2.054-1.274,2.735-1.912C362.571,388.397,362.648,387.771,362.121,387.156z"/>
	<path id="XMLID_87_" style="fill:#FFFFFF;" d="M383.94,382.607c0.923-0.438,2.098-0.352,3.526,0.264
		c1.428,0.616,1.735,1.758,0.923,3.428c-0.813,1.671-2.143,4.428-3.988,8.272c-1.846,3.846-2.033,4.9-0.56,3.164
		c1.472-1.735,3.251-3.504,5.339-5.306c2.087-1.802,3.593-2.967,4.516-3.494s1.922-0.923,2.999-1.187
		c1.076-0.264,2.296-0.198,3.658,0.198c1.362,0.395,2.526,1.505,3.494,3.328c0.966,1.824,1.483,4.835,1.549,9.031
		c0.066,4.197,1.098,6.252,3.099,6.163c1.999-0.088,3.943-0.824,5.833-2.208c1.89-1.385,3.296-2.79,4.219-4.219
		c0.923-1.428,1.318-1.813,1.187-1.154c-0.132,0.66-0.638,1.627-1.516,2.9c-0.88,1.275-2.747,3.253-5.604,5.934
		s-5.329,4.043-7.415,4.086c-2.088,0.045-3.604-0.791-4.549-2.504c-0.945-1.715-1.561-4.45-1.846-8.207
		c-0.286-3.758-0.78-5.669-1.483-5.735c-0.703-0.065-2.241,0.638-4.614,2.109c-2.373,1.473-4.548,3.396-6.525,5.769
		s-3.593,4.383-4.845,6.031c-1.253,1.647-2.385,2.647-3.396,2.999c-1.011,0.353-1.835,0.089-2.472-0.791
		c-0.638-0.879-0.856-1.955-0.659-3.229c0.198-1.274,0.582-3.23,1.153-5.867s1.385-5.416,2.439-8.339
		c1.055-2.922,0.813-3.878-0.726-2.867c-1.538,1.012-3.417,2.538-5.636,4.581c-2.219,2.044-1.428,1.077,2.373-2.9
		c3.801-3.977,5.91-6.295,6.328-6.954c0.417-0.659,0.824-1.263,1.22-1.813C382.358,383.542,383.018,383.046,383.94,382.607z"/>
	<path id="XMLID_89_" style="fill:#FFFFFF;" d="M439.707,387.023c0.923-0.482,1.724-0.658,2.406-0.527
		c0.681,0.133,1.153,0.451,1.417,0.956c0.264,0.506,0,2.418-0.791,5.735c-0.791,3.318-1.318,6.142-1.582,8.471
		s-0.045,3.966,0.659,4.91c0.702,0.945,1.922,1.285,3.658,1.021c1.735-0.264,3.614-1.427,5.636-3.493
		c2.021-2.065,2.252-2.164,0.692-0.297c-1.561,1.868-3.011,3.55-4.351,5.043c-1.341,1.494-2.517,2.438-3.526,2.835
		c-1.012,0.395-2.187,0.483-3.526,0.264c-1.342-0.22-2.429-0.747-3.264-1.582s-1.494-1.835-1.978-3
		c-0.483-1.164-0.527-2.592-0.132-4.284c0.396-1.691,0.648-3.153,0.759-4.384c0.108-1.229-0.386-1.164-1.483,0.197
		c-1.1,1.363-2.45,2.847-4.054,4.45c-1.605,1.604-3.308,3.021-5.109,4.251c-1.802,1.231-3.22,2.022-4.251,2.373
		c-1.033,0.353-2.066,0.605-3.099,0.759c-1.033,0.154-1.989-0.033-2.867-0.561c-0.88-0.527-1.429-1.352-1.648-2.472
		c-0.22-1.121,0-2.79,0.659-5.01c0.659-2.219,1.769-5.24,3.329-9.064c1.56-3.822,1.109-5.866-1.352-6.13s-4.306-0.802-5.537-1.615
		c-1.229-0.813-0.482-0.702,2.241,0.33c2.725,1.033,4.614,0.934,5.669-0.297c1.055-1.229,2.032-1.955,2.934-2.175
		c0.9-0.22,1.757-0.176,2.571,0.131c0.813,0.309,1.34,0.847,1.582,1.615c0.24,0.77,0.197,1.682-0.132,2.736
		c-0.33,1.055-1.45,3.822-3.362,8.305c-1.911,4.482-1.967,6.461-0.165,5.934s5.031-3.12,9.69-7.779
		C436.059,390.012,438.827,387.463,439.707,387.023z"/>
	<path id="XMLID_91_" style="fill:#FFFFFF;" d="M461.064,381.222c2.943-0.219,4.734,0.275,5.372,1.483
		c0.637,1.209,0.934,2.747,0.89,4.614c-0.044,1.868-0.923,3.45-2.637,4.746c-1.714,1.297-3.978,2.582-6.789,3.856
		c-0.791,0.308-1.506,0.473-2.143,0.494c-0.638,0.022-1.165,0-1.582-0.065c-0.418-0.066-0.748-0.132-0.989-0.198
		c-0.241-0.065-0.385-0.032-0.428,0.099c-0.791,1.275-1.198,2.55-1.22,3.824c-0.022,1.274,0.396,2.45,1.252,3.526
		c0.857,1.077,1.813,1.703,2.868,1.878c1.055,0.177,2.152,0.144,3.296-0.099c1.142-0.241,3.251-0.999,6.328-2.274
		c3.075-1.273,5.218-2.472,6.427-3.592c1.208-1.121,2.361-2.209,3.461-3.264c1.098-1.055,1.252-1.055,0.461,0
		s-1.77,2.33-2.934,3.824s-2.614,2.978-4.351,4.449c-1.736,1.473-3.153,2.604-4.251,3.395c-1.1,0.791-2.561,1.506-4.384,2.143
		c-1.824,0.638-3.615,0.835-5.372,0.593c-1.759-0.241-3.077-0.647-3.955-1.22c-0.88-0.57-1.692-1.252-2.439-2.043
		s-1.362-1.725-1.846-2.802c-0.482-1.076-0.735-2.548-0.758-4.416c-0.021-1.867,0.417-3.899,1.318-6.098
		c0.9-2.197,1.922-4.021,3.065-5.472c1.142-1.449,2.691-2.91,4.646-4.383C456.328,382.751,458.56,381.75,461.064,381.222z
		 M461.13,387.156c-0.308-0.308-1.065-0.154-2.274,0.461c-1.209,0.616-2.087,1.308-2.637,2.076c-0.55,0.77-0.648,1.33-0.296,1.682
		c0.351,0.352,1.098,0.209,2.241-0.429c1.142-0.637,2.054-1.274,2.735-1.912C461.58,388.397,461.657,387.771,461.13,387.156z"/>
</g>
<circle id="XMLID_17_" style="fill:#D52147;" cx="146.757" cy="65.654" r="10.784"/>
<circle id="XMLID_16_" style="fill:#D52147;" cx="55.86" cy="42.93" r="11.555"/>
<circle id="XMLID_15_" style="fill:#D52147;" cx="52.929" cy="111.681" r="31.733"/>
<circle id="XMLID_13_" style="fill:#D52147;" cx="103.534" cy="183.127" r="18.873"/>
</svg>
