<?xml version="1.0" encoding="iso-8859-1"?>
<!-- Generator: Adobe Illustrator 19.2.1, SVG Export Plug-In . SVG Version: 6.00 Build 0)  -->
<svg version="1.1" id="Layer_1" xmlns="http://www.w3.org/2000/svg" xmlns:xlink="http://www.w3.org/1999/xlink" x="0px" y="0px"
	 viewBox="0 0 768 768" style="enable-background:new 0 0 768 768;" xml:space="preserve">
<path id="XMLID_18_" style="fill:#D52147;" d="M652.037,267.408c-22.785-44.216-74.391-88.979-128.951-88.979
	c-11.772,0-22.956,2.105-33.368,6.218c-2.528-5.283-5.673-10.464-9.39-15.443c-17.237-23.081-45.311-39.323-77.028-44.563
	c-6.337-1.047-12.845-1.577-19.344-1.577c-40.293,0-77.003,19.636-97.761,50.196c-8.531-3.575-17.233-6.082-25.884-7.424
	c-4.697-0.728-9.499-1.097-14.271-1.097c-58.903,0-109.012,55.046-118.852,106.456c-6.491,33.888,5.118,70.489,27.595,95.95
	c-21.826,17.026-38.612,39.653-48.023,65.489c-17.375,47.702-5.148,103.204,31.913,144.849
	c33.681,37.847,86.827,60.411,145.813,61.908c1.76,0.046,3.546,0.067,5.339,0.067c50.689,0,82.318-15.668,101.336-31.503
	c26.481,23.525,61.088,36.981,97.16,36.981c14.004,0,27.941-2.015,41.428-5.99c70.45-20.76,109.053-85,91.796-152.742
	c-2.945-11.562-7.743-23.248-13.866-34.128c20.42-11.576,36.776-29.157,47.547-51.56
	C674.693,360.008,673.471,309.005,652.037,267.408z"/>
<circle id="XMLID_17_" style="fill:#D52147;" cx="146.757" cy="65.654" r="10.784"/>
<circle id="XMLID_16_" style="fill:#D52147;" cx="55.86" cy="42.93" r="11.555"/>
<circle id="XMLID_15_" style="fill:#D52147;" cx="52.929" cy="111.681" r="31.733"/>
<circle id="XMLID_13_" style="fill:#D52147;" cx="103.534" cy="183.127" r="18.873"/>
<g id="XMLID_3_">
	<path id="XMLID_5_" style="fill:#FFFFFF;" d="M274.729,408.169c0.038-2.127,0.274-4.175,0.709-6.146
		c0.433-1.969,0.866-4.018,1.3-6.146l3.428-15.423c0.866-2.875,1.684-5.859,2.452-8.953c0.769-3.092,1.703-6.017,2.807-8.775
		l6.146-15.187c0.354-1.93,0.374-3.348,0.06-4.254c-0.316-0.906-0.414-1.674-0.296-2.305c0.039-0.315,0.216-0.63,0.532-0.946
		c0.433-0.354,0.688-0.561,0.768-0.62s-0.02,0.029-0.295,0.266c-0.236,0.198-0.315,0.295-0.236,0.295
		c0.078,0,0.314-0.118,0.709-0.354c0.118-0.039,0.374-0.295,0.769-0.768c0-0.039,0.059-0.118,0.177-0.236
		c0-0.039,0.02-0.079,0.06-0.118l0.118-0.118l1.418-1.3c0.314-0.354,0.65-0.807,1.005-1.359c0.354-0.551,0.886-0.887,1.595-1.005
		l0.65,0.059l0.178,0.059l1.891-0.768c0.039-0.039,0.118-0.059,0.236-0.059c0.039-0.039,0.118-0.059,0.236-0.059l0.945-0.295
		l2.659,0.354c1.221,0.198,2.128,0.513,2.719,0.946c0.669,0.512,0.984,0.847,0.945,1.004l-0.296,1.418
		c0.984-0.196,1.497-0.098,1.537,0.296c0.156,0.434,0.413,0.886,0.768,1.359c0.984,1.458,1.478,2.443,1.478,2.955
		c0.039,0.198,0.108,0.532,0.207,1.004c0.098,0.473,0.245,1.044,0.443,1.714l0.295,3.427l-0.354,1.596
		c-0.395,1.3-0.975,2.591-1.743,3.871c-0.769,1.281-1.389,2.532-1.861,3.752l-3.782,7.268c-1.063,1.773-2.02,3.497-2.866,5.171
		c-0.847,1.675-1.586,3.339-2.216,4.993c-0.63,1.655-1.3,3.33-2.009,5.023c-0.709,1.694-1.478,3.448-2.305,5.259l-0.709,1.477
		c-0.118,0.198-0.296,0.769-0.532,1.714c-0.985,3.309-2.147,6.53-3.486,9.662c-1.34,3.132-2.562,6.293-3.663,9.484
		c-0.671,1.891-1.794,4.491-3.369,7.8c-0.788,1.655-1.507,3.063-2.156,4.225c-0.65,1.163-1.251,2.118-1.803,2.866
		c-1.3,1.852-1.832,3.034-1.596,3.545c0.236,0.512,0.178,1.713-0.177,3.604c-0.158,0.827-0.375,1.3-0.65,1.418
		c-0.197,0.079-0.394,0.512-0.591,1.3c-1.34-0.118-2.659-0.847-3.959-2.187c-1.3-1.339-2.305-2.58-3.014-3.723l-0.769-1.478
		l-1.832-3.073l-6.795-12.705c-1.183-2.482-2.532-4.846-4.048-7.091c-1.518-2.246-2.906-4.589-4.166-7.032
		c-0.316-0.788-0.553-1.3-0.71-1.537l-3.309-6.441c-2.68-4.846-5.103-10.578-7.269-17.196l-8.687-19.737l-0.236-0.236
		c-1.182-1.773-1.714-3.014-1.596-3.723c0.079-0.709-0.039-1.93-0.354-3.664c-0.236-1.3,0-2.364,0.709-3.191
		c0.749-0.866,1.202-1.91,1.359-3.132c0.158-0.984,0.571-1.655,1.241-2.009c0.709-0.354,1.161-0.473,1.358-0.354
		s0.275-0.414,0.236-1.596h2.659c0.079,1.104,0.079,1.557,0,1.359c-0.079-0.197,0.236-0.059,0.946,0.414l-0.532-1.773
		c1.063,0.237,1.693,0.296,1.891,0.178c0.197-0.119,0.61-0.63,1.241-1.537c0.906,0.473,1.772,0.827,2.601,1.063
		c0.787,0.236,1.418,0.926,1.891,2.068l2.423-0.295c1.221,0.591,1.988,1.458,2.305,2.6c0.118,0.473,0.118,0.591,0,0.354
		c-0.08-0.157-0.089-0.167-0.029-0.029c0.059,0.138,0.167,0.404,0.324,0.797c0.827,2.089,1.261,2.857,1.301,2.305
		c0.038-0.591,0.334-0.709,0.886-0.354c0.591,0.434,1.044,1.517,1.359,3.25c0.157,0.828,0.285,1.537,0.384,2.127
		s0.187,1.063,0.267,1.418l1.24,4.491c0.236,0.946,0.443,1.714,0.621,2.305c0.177,0.591,0.423,1.3,0.738,2.127
		c0.157,0.512,0.305,0.916,0.443,1.211c0.138,0.295,0.266,0.641,0.384,1.034l4.669,15.896c0.236,0.867,0.403,1.684,0.502,2.452
		c0.098,0.768,0.325,1.625,0.68,2.57c0.157,0.473,0.363,1.064,0.62,1.773c0.256,0.709,0.562,1.537,0.916,2.482l8.392,24.937
		c0.078,0.198,0.156,0.365,0.236,0.502C274.57,407.923,274.649,408.051,274.729,408.169z M239.569,332.057
		c-0.08,0.08-0.118,0.04-0.118-0.118c0.038,0,0.059,0.021,0.059,0.059C239.509,332.078,239.528,332.097,239.569,332.057z
		 M290.92,342.399c-0.198,0-0.257-0.039-0.178-0.118L290.92,342.399z"/>
	<path id="XMLID_9_" style="fill:#FFFFFF;" d="M324.07,433.283c-4.334,0-8.647-1.752-12.941-5.259
		c-4.216-3.584-7.268-7.366-9.159-11.346c-1.26-2.678-2.423-3.879-3.486-3.604c-1.103,0.276-1.772-0.236-2.009-1.536l0.059-0.887
		c0.236-2.284,0.631-3.329,1.183-3.132c0.552,0.198,0.649-0.729,0.295-2.777l-0.532-9.573c0-1.418,0.257-3.073,0.769-4.964
		c0.276-0.984,0.522-1.891,0.739-2.718c0.217-0.828,0.423-1.575,0.62-2.246c1.497-4.648,3.919-8.883,7.269-12.705
		c1.693-1.969,3.417-3.812,5.17-5.525c1.753-1.714,3.556-3.318,5.407-4.816l2.423-1.596c0.984-0.669,2.098-1.368,3.339-2.098
		c1.241-0.729,2.452-1.271,3.634-1.625c1.655-0.433,3.407-0.788,5.26-1.064c1.852-0.275,3.801-0.473,5.85-0.591
		c4.137-0.236,7.584,0.67,10.342,2.718l2.541,1.891c3.033,2.443,4.964,5.811,5.791,10.104c0.827,4.294,0.669,8.234-0.473,11.819
		c-1.104,3.545-2.719,6.382-4.846,8.509c-0.435,0.434-0.808,0.827-1.123,1.182s-0.571,0.67-0.768,0.946
		c-1.694,2.245-3.96,4.254-6.796,6.027l-7.801,4.728l-8.391,4.491c-0.827,0.473-2.305,1.241-4.433,2.305
		c-2.049,0.985-3.447,1.517-4.195,1.596c0.748,3.112,2.875,5.437,6.382,6.973c5.516,2.521,10.972,2.068,16.369-1.359
		c5.396-3.506,8.509-6.716,9.337-9.632c0.983,0.04,1.496,0.04,1.536,0c0.039-0.039,0.256,0.257,0.65,0.886
		c0.629,1.104,0.649,3.428,0.059,6.973c-0.513,3.507-2.089,6.58-4.728,9.218c-1.497,1.498-3.486,2.896-5.968,4.196
		c-2.482,1.261-4.708,2.187-6.678,2.777c-0.671,0.197-1.438,0.384-2.305,0.562c-0.867,0.177-1.813,0.364-2.837,0.561
		c-1.024,0.197-2.009,0.345-2.954,0.443C325.726,433.233,324.859,433.283,324.07,433.283z M334.294,384.355
		c0.038-0.828,0.098-1.201,0.177-1.123c0.039,0.08,0.296-0.118,0.769-0.591l4.137-3.604c0.787-0.669,1.182-2.896,1.182-6.678
		c-2.521-0.551-4.786-0.452-6.796,0.295l-3.959,1.832c-0.434,0.276-0.956,0.631-1.566,1.063c-0.611,0.434-1.31,0.966-2.098,1.596
		c-0.118,0.04-0.434,0.316-0.945,0.827l-4.964,5.259c-2.798,3.309-4.354,5.595-4.668,6.855c-0.158,0.552-0.375,1.211-0.65,1.979
		c-0.276,0.768-0.631,1.625-1.063,2.57c1.024-0.078,2.363-0.551,4.019-1.418c0.827-0.433,1.596-0.836,2.305-1.211
		c0.709-0.374,1.378-0.718,2.009-1.034c0.591-0.315,1.408-0.777,2.452-1.389c1.044-0.61,2.314-1.368,3.812-2.275
		C331.517,385.458,333.467,384.473,334.294,384.355z"/>
	<path id="XMLID_12_" style="fill:#FFFFFF;" d="M382.572,357.231l1.182,0.059c0.157,0.749,0.196,1.32,0.118,1.713
		c-0.079,0.395-0.118,1.143-0.118,2.246l1.891-0.532h0.118c0.039,0,0.06-0.009,0.06-0.03c0-0.019,0.02-0.029,0.059-0.029
		l0.178-0.118l1.891-0.827c3.467-1.457,7.328-1.752,11.582-0.887c1.261,0.316,2.384,0.621,3.368,0.916s1.852,0.601,2.601,0.916
		c1.536,0.67,3.25,1.852,5.141,3.545c1.655,1.537,2.876,3.566,3.664,6.086l0.296,0.709c0.827,2.482,1.221,4.57,1.182,6.264
		c-0.04,0.907-0.029,1.842,0.029,2.807c0.06,0.966,0.128,1.979,0.207,3.043c0.236,3.034-0.06,7.604-0.887,13.709
		c-0.749,6.067-1.813,10.873-3.19,14.419c-0.985,2.521-1.498,5.476-1.537,8.864c-0.039,3.309-0.67,6.323-1.891,9.041
		c-0.197,0.395-0.315,0.611-0.354,0.65c-0.04,0.04-0.118,0.217-0.236,0.532c-0.158,0.276-0.257,0.502-0.296,0.679
		s-0.118,0.384-0.236,0.621c-0.709-0.473-1.34-1.162-1.891-2.068c-0.552-0.906-1.044-1.772-1.478-2.6
		c-1.813-3.466-2.62-7.957-2.423-13.473c0.118-2.718,0.207-5.239,0.267-7.563c0.059-2.324,0.068-4.471,0.029-6.441l-1.123-12.941
		l-0.591-3.309c-0.236-0.984-0.65-1.477-1.241-1.477c-1.733,0-3.329,0.512-4.786,1.536c-0.671,0.513-1.35,0.975-2.039,1.389
		s-1.369,0.798-2.038,1.152l-3.132,1.832c-0.985,0.473-1.823,1.004-2.512,1.595c-0.689,0.591-1.409,1.202-2.157,1.832l-1.241,1.714
		c-0.473,0.63-0.768,0.848-0.886,0.65c-0.079-0.236-0.257,0.118-0.532,1.063l-0.177,0.709c-0.04,0.04-0.06,0.158-0.06,0.354
		l-6.027,26.946c-0.473,1.852-0.887,4.195-1.241,7.032c-0.354,2.757-1.122,4.846-2.305,6.264l-0.886,0.886
		c-0.08,0-0.316,0.197-0.709,0.591c-1.892-1.025-3.428-2.758-4.609-5.2c-0.316-0.591-0.562-1.162-0.739-1.713
		c-0.177-0.551-0.324-1.113-0.442-1.685c-0.118-0.57-0.228-1.182-0.325-1.832c-0.099-0.65-0.207-1.389-0.325-2.216
		c-0.67-3.742-0.945-6.52-0.827-8.332v-2.009c0-0.157,0.02-0.433,0.059-0.828c0.039-0.393,0.06-0.729,0.06-1.004l0.118-19.441
		c-0.118-0.946-0.139-1.714-0.06-2.305s0.118-1.182,0.118-1.773c-0.157-4.884-0.206-9.858-0.147-14.921
		c0.06-5.062-0.128-10.075-0.562-15.039c-0.394-4.018,0.63-7.189,3.073-9.514c0.196-0.157,0.384-0.295,0.562-0.414
		c0.177-0.118,0.384-0.295,0.62-0.532l1.3-1.773c0.788-0.866,2.128-1.418,4.019-1.655c0.906,0,1.457,0.021,1.654,0.059
		c0.512,0.08,0.857,0.148,1.034,0.207c0.178,0.059,0.227,0.088,0.148,0.088c-0.08,0,0.236,0.139,0.945,0.414
		c1.142,0.473,1.556,0.552,1.24,0.236c-0.315-0.355,0.06-0.355,1.123,0c0.748,0.276,1.28,0.827,1.596,1.654
		c0.394,0.828,1.043,1.438,1.95,1.832c0.118,0.118,0.177,0.158,0.177,0.118c0.039,0.04,0.079,0.059,0.118,0.059
		c0.039,0.04,0.079,0.059,0.118,0.059l0.414,0.354c1.063,1.025,1.634,1.694,1.714,2.009c0.118,0.276,0.118,1.004,0,2.187
		c-0.158,1.498-0.04,2.049,0.354,1.654c0.473-0.511,0.394-0.098-0.236,1.241L382.572,357.231z M378.436,347.953
		c-0.079,0-0.118-0.059-0.118-0.177L378.436,347.953z M378.554,348.249c0,0.04-0.021,0.059-0.059,0.059l-0.06,0.059L378.554,348.249
		z M382.454,358.177c-0.04,0-0.05,0.01-0.03,0.03c0.02,0.02,0.05,0.029,0.089,0.029l0.06,0.059
		C382.572,358.138,382.532,358.098,382.454,358.177z M395.336,359.477c0,0.709,0.039,0.867,0.118,0.473
		c0.039-0.079,0.06-0.148,0.06-0.207s0.019-0.108,0.059-0.147c0-0.039,0.02-0.079,0.06-0.118c0.156,0,0.156-0.138,0-0.414
		C395.434,358.748,395.336,358.885,395.336,359.477z"/>
	<path id="XMLID_24_" style="fill:#FFFFFF;" d="M426.892,346.89c0.473-0.079,0.926-0.138,1.359-0.177
		c0.433-0.039,0.709-0.079,0.827-0.118c0.709-0.236,1.005-0.453,0.887-0.65c-0.118-0.237,0.196-0.355,0.945-0.355
		c1.182,0,2.187,0.139,3.014,0.414c0.827,0.276,1.634,0.532,2.423,0.768c1.891,0.67,3.171,1.438,3.841,2.305
		c0.315,0.434,0.688,0.926,1.123,1.477c0.433,0.552,0.905,1.182,1.418,1.891c1.339,1.852,2.009,3.861,2.009,6.027l-3.19,22.219
		c-0.354,1.261-0.65,2.414-0.887,3.457c-0.236,1.044-0.395,2-0.473,2.866c-0.079,0.827-0.147,1.783-0.207,2.866
		c-0.059,1.084-0.128,2.315-0.206,3.693c-0.04,0.434-0.069,0.759-0.089,0.975c-0.021,0.217-0.029,0.345-0.029,0.384
		c0.038,1.931-0.04,3.929-0.237,5.998s-0.157,4.048,0.118,5.939l0.178,1.123c0.157,1.182,0.433,2.305,0.827,3.369
		c0.394,1.063,0.926,2.019,1.596,2.866c0.669,0.848,1.478,1.557,2.423,2.127c0.945,0.571,2.068,0.975,3.368,1.211
		c2.127,0.434,3.486,0.375,4.077-0.177c0.788-0.669,1.507-1.438,2.157-2.305c0.65-0.866,1.271-1.714,1.861-2.541
		c0.354-0.551,0.65-0.984,0.887-1.3c0.236-0.315,0.413-0.551,0.531-0.709c0.236-0.315,0.275-1.142,0.118-2.482
		c-0.197-1.654-0.364-3.525-0.502-5.614c-0.139-2.087-0.246-4.432-0.325-7.032c-0.079-2.955-0.335-6.028-0.769-9.219
		s-0.788-6.323-1.063-9.396l-0.354-11.168c0.236-3.388,0.866-5.417,1.892-6.086c1.063-0.709,2.048-1.674,2.954-2.896
		c0.709-1.142,1.319-1.772,1.832-1.891l2.187,0.177v-1.359c1.063,0.04,1.792,0.295,2.187,0.769c0.433,0.434,1.122,0.709,2.068,0.827
		c1.023,0.158,1.752,0.059,2.187-0.295c0.393-0.394,1.161-0.197,2.304,0.591l3.96,4.55c0.827,1.063,1.063,1.99,0.709,2.777
		c-0.276,0.749,0.196,1.95,1.418,3.604c0.748,1.063,0.984,1.478,0.709,1.241c-0.275-0.237-0.413,0.276-0.413,1.536l0.236,5.318
		l-5.909,36.637c-0.316,1.418-0.532,2.847-0.65,4.285c-0.118,1.438-0.296,2.866-0.532,4.284c-0.394,2.285-0.926,4.254-1.595,5.909
		c-0.592,1.616-1.123,3.486-1.596,5.614c-0.236,1.063-0.453,1.693-0.65,1.891c-0.236,0.236-0.375,0.866-0.413,1.891
		c-1.183,0.118-1.655,0.118-1.419,0c0.275-0.118,0.296,0.177,0.06,0.887c-1.734-0.198-2.798-1.182-3.191-2.955
		c-0.197-0.906-0.394-1.733-0.591-2.481c-0.197-0.748-0.395-1.457-0.591-2.127c-0.197-0.591-0.375-1.093-0.532-1.507
		s-0.295-0.936-0.413-1.566c-1.025,0.276-3.31,1.97-6.854,5.082c-3.428,3.073-8.668,3.269-15.719,0.591
		c-0.907-0.354-1.842-0.798-2.808-1.33s-1.92-1.123-2.865-1.773s-1.843-1.33-2.689-2.039s-1.586-1.418-2.216-2.127l-3.014-3.664
		c-2.481-3.151-4.235-6.894-5.259-11.228c-0.473-2.167-0.857-4.314-1.152-6.441c-0.296-2.127-0.482-4.274-0.562-6.441
		c-0.039-1.3-0.078-2.512-0.118-3.634c-0.039-1.123-0.078-2.137-0.118-3.043c-0.078-0.945-0.089-2.009-0.029-3.191
		c0.059-1.182,0.168-2.482,0.324-3.9c0.158-1.3,0.336-2.364,0.532-3.191c0.197-0.906,0.296-2.088,0.296-3.546
		c0.039-1.457,0.157-2.639,0.354-3.545c0.079-0.433,0.177-0.945,0.295-1.537c0.118-0.591,0.216-1.241,0.296-1.95l0.709-8.332
		c0.078-0.591,0.157-1.221,0.236-1.891c0.078-0.669,0.196-1.398,0.354-2.187c0.275-1.536,0.925-2.816,1.95-3.841l1.359-1.3
		c1.536-1.772,3.229-2.757,5.082-2.955L426.892,346.89z M468.73,353.567v1.359h-0.887v-1.359H468.73z M473.752,358.649
		c0-0.197-0.039-0.256-0.118-0.177L473.752,358.649z M477.18,366.922c0,0.709,0.039,0.867,0.118,0.473
		c0.039-0.078,0.059-0.147,0.059-0.207s0.02-0.108,0.06-0.148c0-0.039,0.02-0.078,0.059-0.118c0.157,0,0.157-0.138,0-0.414
		C477.278,366.194,477.18,366.331,477.18,366.922z"/>
	<path id="XMLID_29_" style="fill:#FFFFFF;" d="M504.776,433.283c-4.334,0-8.647-1.752-12.941-5.259
		c-4.216-3.584-7.268-7.366-9.159-11.346c-1.26-2.678-2.423-3.879-3.486-3.604c-1.103,0.276-1.772-0.236-2.009-1.536l0.059-0.887
		c0.236-2.284,0.631-3.329,1.183-3.132c0.552,0.198,0.649-0.729,0.295-2.777l-0.532-9.573c0-1.418,0.257-3.073,0.769-4.964
		c0.276-0.984,0.522-1.891,0.739-2.718c0.217-0.828,0.423-1.575,0.62-2.246c1.497-4.648,3.919-8.883,7.269-12.705
		c1.693-1.969,3.417-3.812,5.17-5.525c1.753-1.714,3.556-3.318,5.407-4.816l2.423-1.596c0.984-0.669,2.098-1.368,3.339-2.098
		c1.241-0.729,2.452-1.271,3.634-1.625c1.655-0.433,3.407-0.788,5.26-1.064c1.852-0.275,3.801-0.473,5.85-0.591
		c4.137-0.236,7.584,0.67,10.342,2.718l2.541,1.891c3.033,2.443,4.964,5.811,5.791,10.104c0.827,4.294,0.669,8.234-0.473,11.819
		c-1.104,3.545-2.719,6.382-4.846,8.509c-0.435,0.434-0.808,0.827-1.123,1.182s-0.571,0.67-0.768,0.946
		c-1.694,2.245-3.96,4.254-6.796,6.027l-7.801,4.728l-8.391,4.491c-0.827,0.473-2.305,1.241-4.433,2.305
		c-2.049,0.985-3.447,1.517-4.195,1.596c0.748,3.112,2.875,5.437,6.382,6.973c5.516,2.521,10.972,2.068,16.369-1.359
		c5.396-3.506,8.509-6.716,9.337-9.632c0.983,0.04,1.496,0.04,1.536,0c0.039-0.039,0.256,0.257,0.65,0.886
		c0.629,1.104,0.649,3.428,0.059,6.973c-0.513,3.507-2.089,6.58-4.728,9.218c-1.497,1.498-3.486,2.896-5.968,4.196
		c-2.482,1.261-4.708,2.187-6.678,2.777c-0.671,0.197-1.438,0.384-2.305,0.562c-0.867,0.177-1.813,0.364-2.837,0.561
		c-1.024,0.197-2.009,0.345-2.954,0.443C506.431,433.233,505.564,433.283,504.776,433.283z M514.999,384.355
		c0.038-0.828,0.098-1.201,0.177-1.123c0.039,0.08,0.296-0.118,0.769-0.591l4.137-3.604c0.787-0.669,1.182-2.896,1.182-6.678
		c-2.521-0.551-4.786-0.452-6.796,0.295l-3.959,1.832c-0.434,0.276-0.956,0.631-1.566,1.063c-0.611,0.434-1.31,0.966-2.098,1.596
		c-0.118,0.04-0.434,0.316-0.945,0.827l-4.964,5.259c-2.798,3.309-4.354,5.595-4.668,6.855c-0.158,0.552-0.375,1.211-0.65,1.979
		c-0.276,0.768-0.631,1.625-1.063,2.57c1.024-0.078,2.363-0.551,4.019-1.418c0.827-0.433,1.596-0.836,2.305-1.211
		c0.709-0.374,1.378-0.718,2.009-1.034c0.591-0.315,1.408-0.777,2.452-1.389c1.044-0.61,2.314-1.368,3.812-2.275
		C512.222,385.458,514.172,384.473,514.999,384.355z"/>
</g>
</svg>
