<?xml version="1.0" encoding="iso-8859-1"?>
<!-- Generator: Adobe Illustrator 19.2.1, SVG Export Plug-In . SVG Version: 6.00 Build 0)  -->
<svg version="1.1" id="Layer_1" xmlns="http://www.w3.org/2000/svg" xmlns:xlink="http://www.w3.org/1999/xlink" x="0px" y="0px"
	 viewBox="0 0 768 768" style="enable-background:new 0 0 768 768;" xml:space="preserve">
<path id="XMLID_3_" style="fill:#008F9C;" d="M642.676,357.023c20.372-50.855,5.072-112.599-38.594-146.94
	C582.45,193.071,554.76,183.7,526.116,183.7c-23.154,0-45.731,5.913-65.44,16.924c-15.755-17.518-42.296-31.733-80.904-31.733
	c-5.486,0-10.932,0.34-16.184,1.007c-14.135,1.797-28.504,6.99-40.968,14.565c-20.23-17.415-46.21-26.815-74.966-26.815
	c-29.371,0-59.519,9.712-84.888,27.348c-23.616,16.416-43.091,40.318-53.439,65.575c-12.369,30.2-11.56,61.556,2.273,88.297
	c4.263,8.24,9.763,15.988,16.289,23c-11.951,17.359-18.443,39.173-18.976,64.267c-0.56,26.366,5.785,56.243,17.406,81.969
	c27.322,60.474,82.579,99.611,144.211,102.142c1.74,0.071,3.506,0.107,5.279,0.107c45.395,0,95.069-22.242,116.324-60.836
	c28.083,15.901,59.835,24.202,93.228,24.204c0.007,0,0.007,0,0.014,0c60.586-0.002,118.366-28.408,154.555-75.99
	C675.966,450.353,676.659,393.762,642.676,357.023z"/>
<g id="XMLID_5_">
	<path id="XMLID_94_" style="fill:#FFFFFF;" d="M283.962,347.367c0.878-0.527,1.889-0.57,3.032-0.132
		c1.142,0.439,1.978,1.099,2.505,1.978c0.527,0.88,0.659,1.647,0.396,2.308c-0.264,0.658-0.572,1.516-0.923,2.57
		c-0.353,1.055-0.572,1.978-0.659,2.769c-0.089,0.791,0,1.318,0.264,1.582s2.373,1.362,6.328,3.296
		c3.955,1.935,6.635,3.691,8.042,5.273c1.405,1.582,2.373,2.813,2.9,3.691c0.527,0.88,0.966,1.935,1.318,3.164
		c0.351,1.23,0.57,2.417,0.659,3.56c0.087,1.144,0,2.594-0.264,4.351c-0.264,1.758-1.671,3.955-4.219,6.592
		c-2.55,2.637-4.746,4.526-6.592,5.669c-1.846,1.144-3.823,2.109-5.933,2.9s-4.878,1.671-8.306,2.637
		c-3.428,0.967-5.846,1.494-7.251,1.582c-1.407,0.089-2.9,0.176-4.482,0.264c-1.582,0.089-2.594,0.659-3.032,1.714
		c-0.44,1.055-1.144,2.549-2.109,4.482c-0.968,1.935-1.824,4.197-2.571,6.789c-0.747,2.594-1.506,4.352-2.273,5.273
		c-0.77,0.924-1.714,1.352-2.835,1.286c-1.12-0.066-1.857-0.396-2.208-0.989c-0.353-0.593,0.527-4.295,2.637-11.107
		c2.109-6.811,4.394-13.117,6.855-18.918c2.46-5.801,3.823-9.316,4.087-10.547c0.264-1.229,0.527-1.978,0.791-2.241
		s0.758-2.076,1.483-5.438c0.725-3.361,0.329-5.031-1.187-5.01c-1.517,0.022-1.396-1.064,0.362-3.263
		c1.757-2.197,3.383-3.998,4.878-5.405c1.493-1.406,2.548-2.593,3.164-3.56c0.614-0.966,1.142-1.78,1.582-2.438
		c0.438-0.66,0.923-1.473,1.45-2.439C282.38,348.643,283.082,347.895,283.962,347.367z M286.73,368.329
		c-0.968-0.175-2.109,0.308-3.428,1.45c-1.318,1.144-2.726,3.385-4.219,6.724c-1.495,3.34-2.945,6.525-4.351,9.559
		c-1.407,3.031-2.418,5.207-3.032,6.525c-0.616,1.318,0.614,1.758,3.691,1.318c3.075-0.438,6.889-1.438,11.437-2.999
		c4.549-1.56,7.8-3.516,9.756-5.867c1.955-2.351,2.977-4.01,3.065-4.977c0.087-0.966,0.043-1.934-0.132-2.9
		c-0.177-0.966-0.791-2.152-1.846-3.56c-1.055-1.406-2.9-2.593-5.537-3.56C289.499,369.077,287.696,368.505,286.73,368.329z"/>
	<path id="XMLID_97_" style="fill:#FFFFFF;" d="M326.61,385.534c1.011-0.264,2.12-0.308,3.329-0.133
		c1.208,0.177,2.176,0.551,2.9,1.121c0.726,0.571,1.417,1.692,2.076,3.361c0.659,1.671,0.363,2.792-0.89,3.362
		c-1.252,0.571-2.385,0.374-3.395-0.593c-1.012-0.967-2.066-1.164-3.164-0.594c-1.1,0.571-2.187,1.153-3.263,1.747
		c-1.078,0.593-2.406,1.527-3.988,2.802s-3.209,2.9-4.878,4.877c-1.671,1.979-2.594,3.242-2.769,3.791
		c-0.177,0.55,0.252,0.473,1.285-0.23c1.032-0.703,2.614-1.769,4.746-3.197c2.131-1.428,4.813-2.89,8.042-4.384
		c3.23-1.493,5.273-2.076,6.131-1.747c0.856,0.33,1.592,0.935,2.208,1.813c0.614,0.88,0.966,1.638,1.055,2.274
		c0.087,0.638-0.012,1.144-0.297,1.517c-0.286,0.374-0.616,1.219-0.988,2.537c-0.374,1.318-0.342,2.594,0.099,3.824
		c0.438,1.23,0.999,2.076,1.681,2.537c0.681,0.462,1.615,0.594,2.802,0.396c1.187-0.197,2.646-1.098,4.384-2.702
		c1.735-1.604,1.658-1.23-0.231,1.12c-1.89,2.352-3.384,3.846-4.482,4.482c-1.099,0.638-1.956,0.945-2.57,0.923
		c-0.616-0.021-1.417-0.219-2.406-0.593c-0.988-0.373-1.923-0.956-2.802-1.747s-1.571-1.757-2.076-2.9
		c-0.506-1.143-0.847-1.988-1.021-2.538c-0.177-0.549-0.583-1.153-1.22-1.813c-0.638-0.659-1.417-0.802-2.34-0.429
		c-0.923,0.374-2.538,1.396-4.845,3.065c-2.308,1.671-4.461,3.044-6.46,4.12c-2.001,1.077-3.791,1.824-5.373,2.241
		c-1.582,0.418-2.604,0.56-3.064,0.429c-0.462-0.133-0.968-0.627-1.517-1.483c-0.549-0.857-0.867-1.79-0.956-2.802
		c-0.087-1.011,0.056-2.032,0.429-3.065c0.374-1.032,1.78-3.098,4.219-6.196c2.439-3.098,4.789-5.636,7.054-7.613
		c2.263-1.978,4.668-3.658,7.218-5.043C323.819,386.688,325.599,385.842,326.61,385.534z"/>
	<path id="XMLID_99_" style="fill:#FFFFFF;" d="M347.243,394.433c1.582-6.107,3.108-9.097,4.581-8.965
		c1.472,0.132,2.581,0.791,3.329,1.978c0.746,1.187,0.669,2.648-0.231,4.384c-0.9,1.736-0.988,2.549-0.264,2.438
		c0.726-0.109,1.682-0.549,2.868-1.318c1.187-0.769,2.317-1.384,3.395-1.846c1.076-0.461,1.944-0.758,2.604-0.89
		s1.922,0.089,3.79,0.659c1.868,0.571,3.637,1.374,5.307,2.406c1.67,1.033,3.878,1.12,6.625,0.264
		c2.746-0.857,2.449-0.571-0.89,0.856c-3.341,1.429-6.757,2.1-10.251,2.011c-3.493-0.088-6.196,0.329-8.107,1.253
		c-1.912,0.922-3.526,1.944-4.845,3.064c-1.318,1.121-2.538,2.967-3.659,5.537c-1.12,2.571-1.978,4.736-2.57,6.493
		c-0.594,1.758-1.121,3.197-1.582,4.317c-0.462,1.121-1.407,1.714-2.835,1.78c-1.428,0.065-2.373-0.45-2.834-1.55
		c-0.462-1.098-0.57-1.813-0.33-2.142c0.242-0.33,0.901-2.341,1.978-6.032C344.397,405.441,345.704,400.541,347.243,394.433z"/>
	<path id="XMLID_101_" style="fill:#FFFFFF;" d="M386.53,371.032c0.527-0.615,1.361-0.879,2.505-0.791
		c1.142,0.088,1.978,0.439,2.505,1.055s0.966,1.362,1.318,2.24c0.351,0.88,0.285,1.803-0.198,2.77s-0.945,2.23-1.384,3.79
		c-0.44,1.561-1.012,3.747-1.714,6.559c-0.704,2.813-0.659,4.395,0.132,4.746c0.791,0.353,2.152,0.703,4.087,1.055
		c1.933,0.353,5.02,0.484,9.262,0.396c4.24-0.088,4.009,0.221-0.692,0.923c-4.703,0.703-8.186,1.341-10.448,1.911
		c-2.264,0.572-3.757,0.979-4.482,1.22c-0.725,0.242-1.956,2.682-3.691,7.317c-1.736,4.637-2.879,7.724-3.428,9.262
		c-0.55,1.538-1.132,2.57-1.747,3.098s-1.406,0.923-2.373,1.187s-1.846,0.221-2.637-0.132c-0.791-0.352-0.78-1.779,0.033-4.285
		c0.813-2.504,1.922-5.471,3.329-8.898c1.405-3.428,2.175-5.559,2.307-6.395c0.132-0.834-0.439-1.142-1.714-0.922
		s-2.405,0.341-3.395,0.362c-0.988,0.022-1.473-0.594-1.45-1.846c0.021-1.253,0.824-2.274,2.406-3.065s2.987-1.197,4.219-1.22
		c1.229-0.021,2.328-1.735,3.296-5.142c0.966-3.405,1.537-5.669,1.714-6.789c0.175-1.121,0.461-2.647,0.856-4.582
		C385.541,372.922,386.003,371.648,386.53,371.032z"/>
	<path id="XMLID_103_" style="fill:#FFFFFF;" d="M404.262,386.523c0.923-0.438,2.099-0.352,3.526,0.264
		c1.428,0.616,1.736,1.758,0.923,3.428c-0.813,1.671-2.142,4.428-3.987,8.272c-1.846,3.846-2.033,4.9-0.561,3.164
		c1.472-1.735,3.252-3.504,5.339-5.306s3.593-2.967,4.516-3.494s1.922-0.923,2.999-1.187s2.296-0.198,3.659,0.198
		c1.361,0.395,2.526,1.505,3.493,3.328c0.967,1.824,1.483,4.835,1.549,9.031c0.066,4.197,1.099,6.252,3.099,6.163
		c1.999-0.088,3.943-0.824,5.834-2.208c1.889-1.385,3.296-2.79,4.219-4.219c0.923-1.428,1.318-1.813,1.187-1.154
		c-0.132,0.66-0.638,1.627-1.517,2.9c-0.879,1.275-2.747,3.253-5.603,5.934c-2.857,2.681-5.329,4.043-7.416,4.086
		c-2.088,0.045-3.604-0.791-4.549-2.504c-0.945-1.715-1.56-4.45-1.846-8.207c-0.286-3.758-0.78-5.669-1.482-5.735
		c-0.704-0.065-2.241,0.638-4.614,2.109c-2.373,1.473-4.549,3.396-6.526,5.769s-3.593,4.383-4.845,6.031
		c-1.253,1.647-2.385,2.647-3.395,2.999c-1.012,0.353-1.836,0.089-2.473-0.791c-0.637-0.879-0.856-1.955-0.659-3.229
		c0.198-1.274,0.582-3.23,1.154-5.867c0.57-2.637,1.384-5.416,2.438-8.339c1.055-2.922,0.813-3.878-0.725-2.867
		c-1.539,1.012-3.418,2.538-5.637,4.581c-2.218,2.044-1.427,1.077,2.373-2.9c3.801-3.977,5.91-6.295,6.328-6.954
		s0.824-1.263,1.22-1.813C402.68,387.457,403.339,386.962,404.262,386.523z"/>
	<path id="XMLID_105_" style="fill:#FFFFFF;" d="M447.966,385.138c2.943-0.219,4.734,0.275,5.372,1.483
		c0.637,1.209,0.934,2.747,0.89,4.614c-0.044,1.868-0.923,3.45-2.637,4.746c-1.714,1.297-3.978,2.582-6.789,3.856
		c-0.791,0.308-1.506,0.473-2.143,0.494c-0.638,0.022-1.165,0-1.582-0.065c-0.418-0.066-0.748-0.132-0.989-0.198
		c-0.241-0.065-0.385-0.032-0.428,0.099c-0.791,1.275-1.198,2.55-1.22,3.824c-0.022,1.274,0.396,2.45,1.252,3.526
		c0.857,1.077,1.813,1.703,2.868,1.878c1.055,0.177,2.152,0.144,3.296-0.099c1.142-0.241,3.251-0.999,6.328-2.274
		c3.075-1.273,5.218-2.472,6.427-3.592c1.208-1.121,2.361-2.209,3.461-3.264c1.098-1.055,1.252-1.055,0.461,0
		s-1.77,2.33-2.934,3.824s-2.614,2.978-4.351,4.449c-1.736,1.473-3.153,2.604-4.251,3.395c-1.1,0.791-2.561,1.506-4.384,2.143
		c-1.824,0.638-3.615,0.835-5.372,0.593c-1.759-0.241-3.077-0.647-3.955-1.22c-0.88-0.57-1.692-1.252-2.439-2.043
		s-1.362-1.725-1.846-2.802c-0.482-1.076-0.735-2.548-0.758-4.416c-0.021-1.867,0.417-3.899,1.318-6.098
		c0.9-2.197,1.922-4.021,3.065-5.472c1.142-1.449,2.691-2.91,4.646-4.383C443.229,386.666,445.461,385.665,447.966,385.138z
		 M448.031,391.072c-0.308-0.308-1.065-0.154-2.274,0.461c-1.209,0.616-2.087,1.308-2.637,2.076c-0.55,0.77-0.648,1.33-0.296,1.682
		c0.351,0.352,1.098,0.209,2.241-0.429c1.142-0.637,2.054-1.274,2.735-1.912C448.481,392.313,448.558,391.687,448.031,391.072z"/>
	<path id="XMLID_108_" style="fill:#FFFFFF;" d="M464.642,394.433c1.582-6.107,3.108-9.097,4.582-8.965
		c1.472,0.132,2.581,0.791,3.328,1.978s0.67,2.648-0.23,4.384c-0.901,1.736-0.988,2.549-0.264,2.438
		c0.726-0.109,1.681-0.549,2.867-1.318c1.187-0.769,2.317-1.384,3.396-1.846c1.076-0.461,1.944-0.758,2.604-0.89
		s1.922,0.089,3.79,0.659c1.867,0.571,3.636,1.374,5.307,2.406c1.669,1.033,3.878,1.12,6.625,0.264
		c2.745-0.857,2.449-0.571-0.891,0.856c-3.34,1.429-6.756,2.1-10.25,2.011c-3.493-0.088-6.196,0.329-8.107,1.253
		c-1.912,0.922-3.527,1.944-4.846,3.064c-1.318,1.121-2.537,2.967-3.658,5.537c-1.12,2.571-1.978,4.736-2.57,6.493
		c-0.594,1.758-1.121,3.197-1.582,4.317c-0.462,1.121-1.407,1.714-2.835,1.78c-1.429,0.065-2.373-0.45-2.834-1.55
		c-0.462-1.098-0.571-1.813-0.33-2.142c0.242-0.33,0.901-2.341,1.978-6.032S463.104,400.541,464.642,394.433z"/>
	<path id="XMLID_110_" style="fill:#FFFFFF;" d="M503.666,385.995c1.758-0.879,3.516-1.45,5.273-1.714s2.823,0.065,3.197,0.989
		c0.373,0.922,0.197,1.823-0.527,2.702c-0.726,0.88-1.714,1.374-2.967,1.483c-1.252,0.11-2.604,1.011-4.054,2.702
		c-1.45,1.692-2.285,3.691-2.505,5.999c-0.22,2.307-0.165,3.9,0.165,4.779c0.329,0.879,0.692,2.593,1.088,5.141
		c0.396,2.55,0.132,4.736-0.791,6.56c-0.923,1.824-1.912,3.153-2.967,3.987c-1.055,0.836-2.362,1.451-3.922,1.846
		c-1.561,0.396-2.89,0.594-3.988,0.594s-2.274-0.264-3.526-0.791c-1.253-0.527-2.021-1.615-2.308-3.263
		c-0.285-1.648,2.022-4.702,6.922-9.163c4.899-4.46,5.284-4.592,1.153-0.396c-4.131,4.197-5.745,6.801-4.845,7.812
		c0.9,1.012,1.978,1.275,3.229,0.791c1.253-0.483,2.241-1.131,2.967-1.944c0.725-0.813,1.263-1.802,1.615-2.967
		c0.351-1.164,0.505-2.241,0.461-3.229c-0.044-0.989-0.385-3.186-1.021-6.592c-0.638-3.405-0.638-5.966,0-7.68
		c0.637-1.714,1.582-3.197,2.834-4.449C500.403,387.94,501.908,386.875,503.666,385.995z"/>
</g>
<circle id="XMLID_34_" style="fill:#008F9C;" cx="554.443" cy="620.543" r="23.393"/>
</svg>
