<?xml version="1.0" encoding="iso-8859-1"?>
<!-- Generator: Adobe Illustrator 19.2.1, SVG Export Plug-In . SVG Version: 6.00 Build 0)  -->
<svg version="1.1" id="Layer_1" xmlns="http://www.w3.org/2000/svg" xmlns:xlink="http://www.w3.org/1999/xlink" x="0px" y="0px"
	 viewBox="0 0 768 768" style="enable-background:new 0 0 768 768;" xml:space="preserve">
<path id="XMLID_3_" style="fill:#008F9C;" d="M642.676,357.023c20.372-50.855,5.072-112.599-38.594-146.94
	C582.45,193.071,554.76,183.7,526.116,183.7c-23.154,0-45.731,5.913-65.44,16.924c-15.755-17.518-42.296-31.733-80.904-31.733
	c-5.486,0-10.932,0.34-16.184,1.007c-14.135,1.797-28.504,6.99-40.968,14.565c-20.23-17.415-46.21-26.815-74.966-26.815
	c-29.371,0-59.519,9.712-84.888,27.348c-23.616,16.416-43.091,40.318-53.439,65.575c-12.369,30.2-11.56,61.556,2.273,88.297
	c4.263,8.24,9.763,15.988,16.289,23c-11.951,17.359-18.443,39.173-18.976,64.267c-0.56,26.366,5.785,56.243,17.406,81.969
	c27.322,60.474,82.579,99.611,144.211,102.142c1.74,0.071,3.506,0.107,5.279,0.107c45.395,0,95.069-22.242,116.324-60.836
	c28.083,15.901,59.835,24.202,93.228,24.204c0.007,0,0.007,0,0.014,0c60.586-0.002,118.366-28.408,154.555-75.99
	C675.966,450.353,676.659,393.762,642.676,357.023z"/>
<circle id="XMLID_34_" style="fill:#008F9C;" cx="554.443" cy="620.543" r="23.393"/>
<g id="XMLID_5_">
	<path id="XMLID_6_" style="fill:#FFFFFF;" d="M166.731,440.895c-3.073-1.971-5.24-6.244-6.5-12.823
		c-1.182-6.579-1.832-11.621-1.95-15.128c-0.079-2.363-0.286-4.854-0.62-7.476c-0.335-2.619-0.818-5.367-1.448-8.243
		c-0.631-2.915-1.222-5.633-1.773-8.154c-0.552-2.521-1.104-4.905-1.655-7.15c-1.103-4.176-1.675-6.894-1.713-8.155
		c-0.08-1.457-0.375-3.742-0.887-6.854c-0.827-4.609-1.063-7.347-0.709-8.214c0.394-0.866-0.434-1.596-2.482-2.187
		c-1.575-0.433-2.442-0.473-2.6-0.118c-0.236,0.354-1.004,0.414-2.305,0.178l-1.182-0.532c-0.354-0.275-0.591-0.531-0.709-0.769
		c-0.118-0.236-0.197-0.452-0.236-0.649c-0.039-0.197-0.049-0.403-0.03-0.621c0.021-0.216,0.01-0.462-0.029-0.738
		c-0.157-1.418-0.689-2.402-1.596-2.954c-0.866-0.512-1.201-1.575-1.004-3.191l0.236-0.769c0.158-1.103-0.079-1.95-0.709-2.541
		c-0.669-0.591-0.669-1.772,0-3.545c0.354-0.709,0.749-1.182,1.182-1.419c0.394-0.236,1.104-1.043,2.127-2.422l0.059-0.118
		c0.354-0.552,0.68-1.094,0.975-1.626c0.295-0.531,0.916-1.211,1.861-2.038l1.359-0.887c0.985-0.591,1.97-1.182,2.955-1.772
		c0.984-0.591,1.97-1.123,2.955-1.596c1.457-0.709,2.62-1.182,3.487-1.418c0.551-0.157,1.093-0.305,1.625-0.443
		c0.532-0.138,1.132-0.325,1.802-0.562l6.559-1.832l0.946-0.059c0.039,0.039,0.354,0.021,0.945-0.06
		c1.26-0.078,2.659-0.127,4.196-0.147c1.536-0.02,3.21,0.01,5.022,0.089c3.546,0.118,6.638,0.512,9.278,1.182
		c0.709,0.236,1.408,0.414,2.098,0.532c0.689,0.118,1.33,0.256,1.92,0.413l5.023,2.068c2.246,0.985,4.402,2.078,6.471,3.279
		c2.068,1.202,4.067,2.492,5.998,3.871l5.968,4.668c0,0.158,0.079,0.236,0.236,0.236l1.359,1.3c1.142,1.064,2.294,2.157,3.457,3.28
		c1.162,1.123,2.176,2.314,3.043,3.575c1.024,1.497,1.851,2.747,2.482,3.752c0.629,1.005,1.083,1.764,1.359,2.275
		c0.275,0.513,0.591,1.31,0.946,2.394s0.788,2.473,1.3,4.166c1.182,4.254,1.28,8.745,0.295,13.473l-0.827,3.959
		c-0.276,1.38-0.513,2.364-0.709,2.955c-0.907,2.64-2.305,5.2-4.196,7.682c-2.009,2.601-3.92,4.728-5.732,6.382l-5.082,3.842
		l-10.282,3.545c-7.052,1.458-11.444,1.654-13.177,0.591c-1.616-1.103-4.531-2.068-8.746-2.896
		c-1.852-0.354-2.679-0.177-2.482,0.532c0.079,0.354,0.127,1.222,0.148,2.6c0.02,1.38-0.01,3.29-0.088,5.732
		c-0.08,1.931-0.198,4.058-0.355,6.382c-0.158,2.325-0.375,4.846-0.65,7.563c-0.552,5.517-1.635,9.751-3.25,12.705
		c-0.316,0.631-0.601,1.163-0.857,1.596c-0.257,0.434-0.463,0.789-0.621,1.063C168.898,439.2,168.07,439.949,166.731,440.895z
		 M171.636,349.714c-0.04,0.04-0.02,0.06,0.059,0.06c0.039,0,0.059,0.021,0.059,0.059L171.636,349.714z M172.996,347.941
		c0,0.276,0.02,0.562,0.059,0.857c0.039,0.295,0.059,0.522,0.059,0.679l0.354,10.046c0,0.985,0.02,1.537,0.059,1.655
		c0.079,0.197,0.098,0.61,0.059,1.24v14.241c0.118,0.985,0.226,1.941,0.325,2.866c0.098,0.926,0.187,1.625,0.266,2.098l0.65,5.318
		c0.315,2.482,0.296,4.177-0.059,5.082c4.452,0,9.356-0.61,14.714-1.832c5.475-1.26,9.651-3.288,12.527-6.086
		c2.048-1.97,3.329-3.447,3.841-4.433c0.551-0.945,0.984-2.521,1.3-4.727c0.354-2.994,0.334-5.417-0.059-7.269
		c-0.354-1.892-1.635-3.723-3.841-5.496c-0.709-0.512-1.064-0.787-1.064-0.827c0.039-0.039-0.177-0.374-0.65-1.005
		c-0.749-0.827-1.477-1.319-2.187-1.477c-0.591-0.157-1.339-0.591-2.245-1.301l-2.541-1.772c-0.867-0.63-1.418-0.945-1.655-0.945
		c-0.236-0.039-0.768-0.452-1.595-1.241c-0.789-0.709-1.143-1.005-1.064-0.886c0.079,0.039,0.059,0.039-0.059,0
		s-0.335-0.119-0.65-0.237l-4.905-1.949l-1.063-0.473l-1.478-0.532l-2.836-0.769c-0.945-0.156-1.95-0.334-3.014-0.531
		S174.098,347.941,172.996,347.941z"/>
	<path id="XMLID_10_" style="fill:#FFFFFF;" d="M249.816,367.206c2.009-0.157,4.432-0.335,7.268-0.532
		c2.875-0.236,5.614-0.236,8.214,0c1.103,0.118,2.058,0.228,2.866,0.325c0.807,0.099,1.486,0.188,2.039,0.266
		c0.551,0.079,1.201,0.217,1.95,0.414c0.748,0.197,1.634,0.453,2.659,0.768c1.103,0.395,2.246,0.878,3.427,1.448
		c1.182,0.571,2.166,1.311,2.955,2.216c0.039,0.118,0.177,0.296,0.414,0.532c2.324,2.915,3.369,6.244,3.132,9.986l-1.004,2.896
		c-0.236,0.434-0.354,0.611-0.354,0.532c0-0.118-0.118,0.177-0.354,0.886l-2.423,8.687c-0.354,1.301-0.729,2.521-1.123,3.664
		c-0.395,1.144-0.709,2.345-0.946,3.604l-4.254,26.946c-0.08,0.671-0.099,1.38-0.059,2.128c0.039,0.748,0.059,1.497,0.059,2.245
		c0,0.749-0.03,1.478-0.089,2.187s-0.207,1.32-0.443,1.832c-0.945,2.284-2.068,2.974-3.368,2.068
		c-1.261-0.867-2.482-2.01-3.664-3.428c-0.276-0.314-0.493-0.552-0.65-0.709c-0.158-0.157-0.276-0.256-0.354-0.296
		c-0.08-0.078-0.237-0.57-0.473-1.478c-0.197-0.591-0.256-0.925-0.177-1.004c0.079-0.079,0.02-0.532-0.177-1.359
		c-0.749,0.591-1.103,0.966-1.063,1.123c0.039,0.157-0.513,0.649-1.655,1.478l-3.25,2.067c-1.3,0.749-2.521,1.34-3.664,1.773
		c-1.104,0.433-2.64,0.649-4.609,0.649c-1.458,0-2.916-0.168-4.373-0.502c-1.458-0.334-2.866-0.798-4.225-1.389
		c-1.359-0.591-2.65-1.271-3.871-2.039c-1.221-0.768-2.344-1.585-3.368-2.452l-3.073-3.132c-2.797-3.309-4.628-7.11-5.496-11.404
		c-0.315-1.693-0.315-3.585,0-5.674c0.473-2.639,1.655-5.101,3.545-7.386c0.946-1.183,1.891-2.246,2.836-3.191
		c0.946-0.945,1.911-1.752,2.896-2.423c2.639-1.852,5.2-3.21,7.682-4.077c2.403-0.866,5.121-1.635,8.155-2.305
		c1.97-0.434,3.673-0.758,5.112-0.976c1.438-0.216,2.629-0.344,3.575-0.384c1.891-0.118,4.708,0.236,8.451,1.063
		c0.118-0.274,0.186-0.64,0.207-1.093c0.02-0.452,0.049-0.916,0.089-1.389c0.039-0.473,0.088-0.955,0.147-1.448
		c0.059-0.492,0.207-0.954,0.443-1.389c-2.009,0-3.792,0-5.348,0c-1.557,0-2.886,0.021-3.989,0.06c-2.207,0-5.2,0.473-8.982,1.418
		c-0.118,0-0.295,0.04-0.532,0.118c-1.852,0.513-3.604,1.163-5.259,1.95c-0.512,0.513-0.966,0.769-1.359,0.769l-2.246,0.473
		c-0.395,0.079-0.621,0.147-0.68,0.207c-0.059,0.059,0.009,0.088,0.207,0.088h-0.65l-7.386-2.305
		c-0.198-0.118-0.473-0.452-0.828-1.004c-0.236-0.354-0.414-0.61-0.532-0.769c-0.118-0.157-0.226-0.266-0.325-0.325
		c-0.098-0.059-0.177-0.098-0.236-0.118c-0.059-0.02-0.147-0.068-0.266-0.147c-0.118-0.118-0.216-0.207-0.295-0.266
		c-0.079-0.06-0.138-0.138-0.177-0.236c-0.039-0.099-0.079-0.267-0.118-0.503c-0.039-0.236-0.059-0.591-0.059-1.063
		c0-1.023,0.276-1.812,0.827-2.363c-0.827-0.197-1.201-0.335-1.123-0.414c0.08-0.078-0.295-0.236-1.123-0.473
		c0.158-1.93,0.434-3.407,0.827-4.432c0.276-0.945,0.966-2.187,2.068-3.723c0.709-0.866,1.752-1.517,3.132-1.95
		c1.339-0.394,1.989-0.769,1.95-1.123c-0.198-0.709-0.316-0.709-0.354,0c0,0.67-0.177,0.414-0.532-0.769L249.816,367.206z
		 M229.96,379.674h-0.059c0-0.196-0.039-0.255-0.118-0.177L229.96,379.674z M240.065,416.844c0.039,0.118,0.098,0.236,0.177,0.354
		c0.079,0.079,0.127,0.158,0.148,0.236c0.019,0.079,0.068,0.158,0.147,0.236c0.394,0.788,0.748,1.458,1.064,2.009
		c0.314,0.553,0.788,1.123,1.418,1.714l1.005,0.827c2.955,2.325,5.377,3.408,7.268,3.25c1.93-0.156,4.137-0.747,6.619-1.772
		c4.136-1.615,6.479-2.679,7.032-3.191c0.551-0.551,0.828-2.934,0.828-7.149c-1.262-0.118-1.694-0.178-1.3-0.178
		c0.433,0,0.098-0.512-1.004-1.536l-1.773-1.3c-1.222-0.67-2.857-0.887-4.905-0.65l-4.491,0.414
		c-3.507,0.434-6.048,0.906-7.623,1.418c-1.576,0.552-3.29,1.891-5.141,4.019L240.065,416.844z"/>
	<path id="XMLID_15_" style="fill:#FFFFFF;" d="M291.594,343.332c0.984-0.433,1.379-0.512,1.182-0.236
		c-0.118,0.158,0.138,0.099,0.768-0.177c0.866-0.354,1.103-0.63,0.709-0.827c-0.354-0.236,1.143-0.118,4.491,0.354
		c0.118,1.34,0.315,1.753,0.591,1.24c0.315-0.551,1.241-0.314,2.777,0.709c1.339,0.867,2.107,1.714,2.305,2.541
		c0.079,0.395,0.118,0.828,0.118,1.301c0.551-0.63,1.103-0.61,1.655,0.059c0.433,0.513,0.807,1.222,1.123,2.128
		c0.315,1.103,0.374,1.615,0.177,1.536c-0.158-0.039-0.256,0.158-0.295,0.591c-0.118,0.434,0.039,1.044,0.473,1.832
		c0.433,0.945,0.65,1.813,0.65,2.6c-0.04,1.222-0.139,1.971-0.296,2.246c-0.079,0.197-0.158,1.714-0.236,4.55l-0.591,9.396
		c2.364-1.575,3.86-2.836,4.491-3.781c0.629-0.946,3.014-2.344,7.15-4.196l4.078-2.127c0.788-0.512,1.674-0.827,2.659-0.945
		c1.024-0.118,1.95-0.138,2.777-0.06c0.827,0.08,1.625,0.257,2.393,0.532c0.769,0.276,1.526,0.62,2.275,1.034
		c0.748,0.413,1.536,0.877,2.363,1.389l2.305,2.127c0.551,0.827,0.65,1.163,0.295,1.005c-0.354-0.236,0.059-0.06,1.241,0.531
		c-0.552,1.025-0.729,1.439-0.532,1.241c0.157-0.157-0.118-0.118-0.828,0.118c0.433,0.671,0.591,0.985,0.473,0.945
		c-0.158-0.078,0.295-0.098,1.359-0.059c-0.118,1.3-0.276,1.852-0.473,1.654c-0.198-0.196-0.65-0.157-1.359,0.118
		c0.275,1.222,0.571,1.734,0.887,1.536c0.275-0.196,0.295,0.414,0.059,1.832l-0.118,0.591c-0.354,2.207-0.591,2.955-0.709,2.246
		s-0.768-0.275-1.95,1.3c-0.276,0.354-0.473,0.68-0.591,0.975c-0.118,0.296-0.315,0.621-0.591,0.976
		c-0.512,0.709-1.084,1.143-1.713,1.3c-0.513,0.158-0.848,0.266-1.005,0.325c-0.158,0.059-0.138,0.05,0.059-0.029
		c0.275-0.157,0.275-0.256,0-0.296c-1.025-0.039-1.517,0-1.477,0.118c0.039,0.158-0.532,0.257-1.714,0.296
		c0.433,0.434,0.65,0.749,0.65,0.945c0,0.276-0.118,0.473-0.354,0.591c-0.63,0.315-1.793,0.395-3.486,0.236
		c-1.734-0.196-3.152-0.177-4.255,0.06c-1.339,0.275-2.797,1.004-4.373,2.186c-0.789,0.592-1.498,1.134-2.127,1.626
		c-0.631,0.492-1.182,0.955-1.655,1.389c-1.576,1.418-3.073,3.388-4.491,5.909c-0.67,1.261-1.192,2.442-1.566,3.545
		c-0.375,1.104-0.582,2.128-0.621,3.073c-0.118,1.772-0.148,3.625-0.089,5.555c0.059,1.931,0.089,3.782,0.089,5.555
		c0,2.325-0.177,5.457-0.532,9.396c-0.276,3.861-0.848,6.796-1.714,8.805c-0.276,0.591-0.532,1.212-0.768,1.861
		c-0.236,0.65-0.513,1.291-0.827,1.921c-0.434,0.827-0.818,1.418-1.152,1.772c-0.335,0.354-0.601,0.887-0.798,1.596l-1.95-0.887
		c-0.434-0.118-1.143-1.122-2.127-3.014c-0.473-0.945-0.856-1.91-1.152-2.896c-0.295-0.984-0.62-1.969-0.975-2.954
		c-0.709-1.773-1.182-3.979-1.418-6.619c-0.236-2.639-0.473-4.825-0.709-6.559c-0.236-1.575-0.493-3.053-0.769-4.433
		c-0.276-1.378-0.542-2.697-0.797-3.959c-0.257-1.26-0.523-2.501-0.798-3.723c-0.276-1.221-0.532-2.481-0.768-3.782l-2.6-28.601
		c0.04-1.852-0.009-3.88-0.148-6.086c-0.138-2.206-0.364-4.609-0.68-7.21c-0.669-5.238,0.217-9.257,2.659-12.055l0.414-0.473
		l0.237-0.236c0.354-0.473,0.709-0.847,1.063-1.123l1.241-1.596v-0.177c-0.04,0-0.059-0.02-0.059-0.06V343.332z M307.195,354.914
		c-0.04,0.04-0.02,0.06,0.059,0.06c0.039,0,0.059,0.021,0.059,0.059C307.313,354.876,307.273,354.836,307.195,354.914z"/>
	<path id="XMLID_18_" style="fill:#FFFFFF;" d="M361.206,347.765c0-0.906-0.059-1.183-0.177-0.828
		c-0.118,0.316-0.177-0.118-0.177-1.3l-0.059-5.437c-0.08-1.3-0.139-2.402-0.177-3.309c-0.04-0.906-0.059-1.615-0.059-2.128
		c0.078-1.103,0.886-2.423,2.423-3.959l3.309-3.841c0.315-0.434,0.768-0.808,1.359-1.123c0.512-0.196,0.828-0.295,0.946-0.295
		s0.019,0.079-0.295,0.236c-0.276,0.157-0.355,0.227-0.237,0.206c0.119-0.019,0.453-0.127,1.005-0.324
		c0.315-0.079,0.511-0.138,0.591-0.178c0.079-0.039,0.039-0.02-0.118,0.06c-0.316,0.118-0.217,0.02,0.295-0.296
		c0.354-0.275,0.433-0.354,0.236-0.236c-0.197,0.04-0.04-0.078,0.473-0.354c0.275-0.157,0.473-0.275,0.591-0.354
		s0.137-0.098,0.059-0.06c-0.04,0.04,0.334,0,1.123-0.118l0.886,1.359c0.157-0.394,0.453-0.709,0.887-0.945
		c0.236-0.157,0.61-0.197,1.123-0.118c1.418,0.315,2.343,0.827,2.777,1.536c0.473,0.789,0.768,1.202,0.886,1.241
		c0.197,0.197,0.492,0.335,0.887,0.413c0.393,0.08,0.866,0.553,1.418,1.419l2.127,2.896c0.236,0.434,0.394,0.817,0.473,1.152
		c0.079,0.335,0.148,0.67,0.207,1.004c0.059,0.336,0.118,0.69,0.177,1.064s0.187,0.797,0.384,1.271
		c0.551,1.615,0.728,3.486,0.532,5.613c-0.08,1.025-0.128,2.059-0.148,3.103c-0.02,1.044-0.01,2.078,0.03,3.103
		c0,0.709-0.089,1.576-0.266,2.6c-0.177,1.025-0.306,2.049-0.384,3.073c-0.079,0.552-0.138,1.063-0.177,1.536
		c-0.04,0.473-0.079,0.945-0.118,1.418c-0.04,0.473-0.069,0.976-0.088,1.507c-0.021,0.532-0.03,1.152-0.03,1.861l6.382-0.709
		c2.324,0,4.491,0.532,6.5,1.596c0.118,0.04,0.216,0.099,0.295,0.178c0.827,0.552,1.526,1.191,2.098,1.92
		c0.571,0.729,1.271,1.35,2.098,1.861c0.118,0.118,0.216,0.178,0.295,0.178l1.004,0.709c-0.158,0.552-0.453,1.3-0.886,2.245
		c0.433,0.04,0.758,0.069,0.975,0.089c0.216,0.021,0.344,0.029,0.384,0.029c0.039,0,0.177,0.395,0.414,1.183
		c-0.473,0.67-0.689,1.004-0.65,1.004c0.039-0.038-0.473-0.059-1.536-0.059l0.886,1.3c-0.118,1.024-0.139,1.498-0.059,1.418
		c0.079-0.118-0.354-0.295-1.3-0.531c0.157,0.315,0.305,0.562,0.443,0.738c0.138,0.178,0.275,0.346,0.414,0.502
		c0.138,0.158,0.275,0.346,0.414,0.562c0.138,0.217,0.305,0.503,0.502,0.857l-0.709,1.063c-0.316,0.354-0.532,0.571-0.65,0.649
		c-1.064,0.828-1.773,1.144-2.127,0.946c-0.316-0.197-0.513,0.157-0.591,1.063c-0.316,1.97-1.773,2.975-4.373,3.014
		c-1.34,0.04-2.187,0-2.541-0.118c-0.316-0.118-0.493,0.354-0.532,1.418c-2.955,0.079-5.377-0.177-7.269-0.769
		c-0.789-0.236-1.487-0.481-2.098-0.738c-0.611-0.256-1.291-0.305-2.039-0.147c-0.552,0.118-0.572,0.039-0.059-0.236
		c0.275-0.157,0.374-0.197,0.295-0.118c-0.08,0.079-0.316,0.257-0.709,0.531c-0.591,0.395-0.789,0.493-0.591,0.296
		c0.157-0.157,0.118,0.177-0.118,1.005l-2.305,10.577c-0.236,2.837-0.414,4.748-0.532,5.732c-0.118,0.945-0.177,3.132-0.177,6.559
		l0.118,6.087c-0.079,1.772-0.05,3.408,0.089,4.904c0.138,1.498,0.364,2.896,0.68,4.196c0.748,2.64,1.201,5.003,1.359,7.091
		c1.378,0.315,2.609,0.522,3.693,0.62c1.083,0.099,2.018,0.109,2.807,0.029c1.615-0.156,1.516,1.694-0.295,5.556
		c-1.654,3.388-3.999,5.238-7.032,5.555c-3.034,0.354-5.634-0.257-7.8-1.832c-0.04,0-0.316-0.236-0.827-0.709
		c-0.513-0.474-0.769-0.748-0.769-0.828c-0.158,0-0.236-0.059-0.236-0.177l-2.6-3.604c-1.261-2.01-2.285-4.116-3.073-6.323
		c-0.789-2.206-1.458-4.432-2.009-6.678c-0.158-0.274-0.236-0.551-0.236-0.827c-0.591-2.245-1.093-4.678-1.507-7.298
		c-0.414-2.619-0.621-5.289-0.621-8.007c0-1.497-0.059-3.2-0.177-5.111s-0.315-4.009-0.591-6.294
		c-0.473-4.529-0.059-8.134,1.241-10.813c-1.773,0-3.389-0.029-4.846-0.089c-1.458-0.059-2.817-0.167-4.078-0.325
		c-2.443-0.275-5.063-1.161-7.859-2.659c-0.079-0.078-0.157-0.118-0.237-0.118l-1.477-1.418c-0.079-0.157-0.177-0.296-0.295-0.414
		s-0.216-0.236-0.295-0.354c0.552-2.166,2.127-3.979,4.727-5.437c2.639-1.536,4.944-2.777,6.914-3.723
		c0.473-0.196,0.916-0.384,1.33-0.562c0.414-0.177,0.777-0.363,1.093-0.562c0.866-0.393,1.615-0.688,2.246-0.886
		c3.348-1.103,5.141-1.97,5.377-2.601c0.275-0.591,0.473-4.628,0.591-12.113c0-0.946,0.059-1.359,0.177-1.241
		C361.147,349.144,361.206,348.71,361.206,347.765z M380.47,330.096c0-0.118-0.04-0.178-0.118-0.178L380.47,330.096z"/>
	<path id="XMLID_21_" style="fill:#FFFFFF;" d="M428.394,364.074l1.182,0.059c0.157,0.749,0.196,1.32,0.118,1.714
		c-0.079,0.395-0.118,1.143-0.118,2.245l1.891-0.531h0.118c0.039,0,0.06-0.01,0.06-0.03c0-0.019,0.02-0.029,0.059-0.029l0.178-0.118
		l1.891-0.827c3.467-1.457,7.328-1.752,11.582-0.887c1.261,0.316,2.384,0.621,3.368,0.916c0.984,0.296,1.852,0.602,2.601,0.916
		c1.536,0.671,3.25,1.853,5.141,3.546c1.655,1.536,2.876,3.565,3.664,6.086l0.296,0.71c0.827,2.481,1.221,4.57,1.182,6.264
		c-0.04,0.906-0.029,1.842,0.029,2.807c0.06,0.966,0.128,1.979,0.207,3.043c0.236,3.034-0.06,7.604-0.887,13.71
		c-0.749,6.067-1.813,10.873-3.19,14.419c-0.985,2.521-1.498,5.476-1.537,8.863c-0.039,3.31-0.67,6.323-1.891,9.041
		c-0.197,0.395-0.315,0.611-0.354,0.65c-0.04,0.04-0.118,0.217-0.236,0.532c-0.158,0.275-0.257,0.502-0.296,0.679
		c-0.039,0.178-0.118,0.385-0.236,0.621c-0.709-0.473-1.34-1.162-1.891-2.068c-0.552-0.906-1.044-1.772-1.478-2.601
		c-1.813-3.466-2.62-7.957-2.423-13.473c0.118-2.719,0.207-5.239,0.267-7.563c0.059-2.324,0.068-4.471,0.029-6.441l-1.123-12.941
		l-0.591-3.31c-0.236-0.984-0.65-1.477-1.241-1.477c-1.733,0-3.329,0.512-4.786,1.536c-0.671,0.513-1.35,0.975-2.039,1.389
		c-0.689,0.413-1.369,0.798-2.038,1.152l-3.132,1.832c-0.985,0.473-1.823,1.004-2.512,1.595c-0.689,0.592-1.409,1.202-2.157,1.832
		l-1.241,1.714c-0.473,0.631-0.768,0.848-0.886,0.65c-0.079-0.236-0.257,0.118-0.532,1.063l-0.177,0.709
		c-0.04,0.04-0.06,0.158-0.06,0.354l-6.027,26.946c-0.473,1.853-0.887,4.195-1.241,7.032c-0.354,2.757-1.123,4.846-2.305,6.264
		l-0.886,0.887c-0.08,0-0.316,0.196-0.709,0.591c-1.891-1.025-3.427-2.758-4.609-5.2c-0.316-0.591-0.562-1.162-0.739-1.714
		c-0.177-0.551-0.325-1.112-0.443-1.685c-0.118-0.57-0.228-1.182-0.325-1.831c-0.099-0.65-0.207-1.389-0.325-2.217
		c-0.67-3.742-0.945-6.52-0.827-8.332v-2.009c0-0.157,0.02-0.433,0.059-0.827c0.039-0.394,0.059-0.729,0.059-1.005l0.118-19.441
		c-0.118-0.945-0.138-1.714-0.059-2.305c0.079-0.591,0.118-1.182,0.118-1.772c-0.158-4.885-0.207-9.858-0.147-14.921
		c0.059-5.062-0.128-10.075-0.562-15.039c-0.394-4.019,0.63-7.189,3.073-9.514c0.197-0.157,0.384-0.296,0.562-0.414
		s0.384-0.295,0.621-0.531l1.3-1.773c0.788-0.866,2.127-1.418,4.018-1.654c0.906,0,1.457,0.021,1.655,0.059
		c0.512,0.08,0.857,0.148,1.034,0.207c0.177,0.06,0.226,0.089,0.148,0.089c-0.08,0,0.236,0.139,0.945,0.414
		c1.142,0.473,1.556,0.552,1.241,0.236c-0.315-0.355,0.059-0.355,1.123,0c0.748,0.275,1.28,0.827,1.596,1.654
		c0.394,0.827,1.043,1.438,1.95,1.832c0.118,0.118,0.177,0.157,0.177,0.118c0.039,0.039,0.079,0.059,0.118,0.059
		c0.039,0.04,0.079,0.06,0.118,0.06l0.414,0.354c1.063,1.024,1.634,1.694,1.714,2.009c0.118,0.276,0.118,1.005,0,2.187
		c-0.158,1.498-0.04,2.049,0.354,1.654c0.473-0.511,0.394-0.098-0.236,1.241L428.394,364.074z M424.257,354.796
		c-0.079,0-0.118-0.059-0.118-0.177L424.257,354.796z M424.375,355.092c0,0.04-0.021,0.059-0.059,0.059l-0.06,0.06L424.375,355.092z
		 M428.275,365.02c-0.04,0-0.05,0.01-0.03,0.029c0.02,0.021,0.05,0.029,0.089,0.029l0.06,0.06
		C428.394,364.98,428.354,364.94,428.275,365.02z M441.157,366.319c0,0.709,0.039,0.867,0.118,0.473
		c0.039-0.078,0.06-0.147,0.06-0.207c0-0.059,0.019-0.107,0.059-0.147c0-0.039,0.02-0.078,0.06-0.118c0.156,0,0.156-0.138,0-0.414
		C441.255,365.591,441.157,365.729,441.157,366.319z"/>
	<path id="XMLID_27_" style="fill:#FFFFFF;" d="M487.427,440.126c-4.334,0-8.647-1.752-12.941-5.259
		c-4.216-3.585-7.268-7.366-9.159-11.347c-1.26-2.678-2.423-3.879-3.486-3.604c-1.103,0.276-1.772-0.236-2.009-1.536l0.059-0.887
		c0.236-2.284,0.631-3.328,1.183-3.132c0.552,0.198,0.649-0.729,0.295-2.777l-0.532-9.572c0-1.419,0.257-3.073,0.769-4.964
		c0.276-0.984,0.522-1.892,0.739-2.719s0.423-1.575,0.62-2.245c1.497-4.648,3.919-8.884,7.269-12.705
		c1.693-1.97,3.417-3.812,5.17-5.525s3.556-3.318,5.407-4.815l2.423-1.596c0.984-0.67,2.098-1.368,3.339-2.098
		c1.241-0.729,2.452-1.271,3.634-1.625c1.655-0.434,3.407-0.788,5.26-1.064c1.852-0.274,3.801-0.473,5.85-0.591
		c4.137-0.236,7.584,0.671,10.342,2.719l2.541,1.891c3.033,2.443,4.964,5.812,5.791,10.104c0.827,4.295,0.669,8.234-0.473,11.819
		c-1.104,3.545-2.719,6.382-4.846,8.509c-0.435,0.435-0.808,0.827-1.123,1.182s-0.571,0.671-0.768,0.946
		c-1.694,2.245-3.96,4.254-6.796,6.027l-7.801,4.728l-8.391,4.49c-0.827,0.473-2.305,1.241-4.433,2.305
		c-2.049,0.985-3.447,1.518-4.195,1.596c0.748,3.112,2.875,5.437,6.382,6.973c5.516,2.521,10.972,2.068,16.369-1.358
		c5.396-3.506,8.509-6.717,9.337-9.633c0.983,0.04,1.496,0.04,1.536,0c0.039-0.038,0.256,0.257,0.65,0.887
		c0.629,1.104,0.649,3.428,0.059,6.973c-0.513,3.507-2.089,6.58-4.728,9.219c-1.497,1.498-3.486,2.896-5.968,4.195
		c-2.482,1.262-4.708,2.187-6.678,2.777c-0.671,0.197-1.438,0.385-2.305,0.562c-0.867,0.178-1.813,0.364-2.837,0.562
		c-1.024,0.196-2.009,0.345-2.954,0.443C489.082,440.076,488.215,440.126,487.427,440.126z M497.65,391.197
		c0.038-0.827,0.098-1.201,0.177-1.123c0.039,0.08,0.296-0.118,0.769-0.591l4.137-3.604c0.787-0.669,1.182-2.896,1.182-6.678
		c-2.521-0.551-4.786-0.452-6.796,0.296l-3.959,1.832c-0.434,0.275-0.956,0.631-1.566,1.063c-0.611,0.434-1.31,0.966-2.098,1.596
		c-0.118,0.039-0.434,0.315-0.945,0.827l-4.964,5.259c-2.798,3.31-4.354,5.595-4.668,6.855c-0.158,0.552-0.375,1.211-0.65,1.979
		c-0.276,0.768-0.631,1.625-1.063,2.57c1.024-0.078,2.363-0.551,4.019-1.418c0.827-0.434,1.596-0.837,2.305-1.212
		c0.709-0.374,1.378-0.718,2.009-1.034c0.591-0.314,1.408-0.777,2.452-1.389c1.044-0.61,2.314-1.368,3.812-2.274
		C494.873,392.301,496.823,391.315,497.65,391.197z"/>
	<path id="XMLID_30_" style="fill:#FFFFFF;" d="M527.846,343.332c0.984-0.433,1.379-0.512,1.183-0.236
		c-0.118,0.158,0.138,0.099,0.768-0.177c0.866-0.354,1.103-0.63,0.709-0.827c-0.354-0.236,1.143-0.118,4.491,0.354
		c0.118,1.34,0.315,1.753,0.591,1.24c0.315-0.551,1.241-0.314,2.777,0.709c1.339,0.867,2.107,1.714,2.305,2.541
		c0.079,0.395,0.118,0.828,0.118,1.301c0.552-0.63,1.103-0.61,1.655,0.059c0.433,0.513,0.807,1.222,1.122,2.128
		c0.315,1.103,0.374,1.615,0.178,1.536c-0.158-0.039-0.257,0.158-0.296,0.591c-0.118,0.434,0.039,1.044,0.473,1.832
		c0.434,0.945,0.65,1.813,0.65,2.6c-0.04,1.222-0.139,1.971-0.296,2.246c-0.079,0.197-0.157,1.714-0.236,4.55l-0.591,9.396
		c2.364-1.575,3.86-2.836,4.491-3.781c0.63-0.946,3.014-2.344,7.15-4.196l4.077-2.127c0.788-0.512,1.674-0.827,2.659-0.945
		c1.024-0.118,1.95-0.138,2.777-0.06c0.827,0.08,1.625,0.257,2.394,0.532c0.769,0.276,1.526,0.62,2.275,1.034
		c0.747,0.413,1.536,0.877,2.363,1.389l2.305,2.127c0.551,0.827,0.65,1.163,0.295,1.005c-0.354-0.236,0.06-0.06,1.241,0.531
		c-0.552,1.025-0.729,1.439-0.531,1.241c0.156-0.157-0.118-0.118-0.828,0.118c0.434,0.671,0.592,0.985,0.474,0.945
		c-0.158-0.078,0.295-0.098,1.358-0.059c-0.118,1.3-0.275,1.852-0.473,1.654c-0.197-0.196-0.649-0.157-1.359,0.118
		c0.275,1.222,0.571,1.734,0.887,1.536c0.275-0.196,0.296,0.414,0.06,1.832l-0.118,0.591c-0.354,2.207-0.592,2.955-0.71,2.246
		s-0.768-0.275-1.949,1.3c-0.276,0.354-0.473,0.68-0.592,0.975c-0.118,0.296-0.315,0.621-0.591,0.976
		c-0.512,0.709-1.084,1.143-1.713,1.3c-0.513,0.158-0.848,0.266-1.005,0.325c-0.158,0.059-0.139,0.05,0.059-0.029
		c0.275-0.157,0.275-0.256,0-0.296c-1.024-0.039-1.517,0-1.477,0.118c0.038,0.158-0.532,0.257-1.714,0.296
		c0.433,0.434,0.649,0.749,0.649,0.945c0,0.276-0.118,0.473-0.354,0.591c-0.63,0.315-1.793,0.395-3.486,0.236
		c-1.733-0.196-3.152-0.177-4.255,0.06c-1.339,0.275-2.797,1.004-4.372,2.186c-0.789,0.592-1.498,1.134-2.128,1.626
		c-0.631,0.492-1.182,0.955-1.654,1.389c-1.576,1.418-3.073,3.388-4.491,5.909c-0.67,1.261-1.191,2.442-1.565,3.545
		c-0.375,1.104-0.582,2.128-0.621,3.073c-0.118,1.772-0.147,3.625-0.089,5.555c0.06,1.931,0.089,3.782,0.089,5.555
		c0,2.325-0.177,5.457-0.531,9.396c-0.276,3.861-0.848,6.796-1.714,8.805c-0.276,0.591-0.532,1.212-0.769,1.861
		c-0.236,0.65-0.513,1.291-0.827,1.921c-0.434,0.827-0.818,1.418-1.152,1.772c-0.335,0.354-0.601,0.887-0.798,1.596l-1.95-0.887
		c-0.434-0.118-1.143-1.122-2.127-3.014c-0.473-0.945-0.856-1.91-1.152-2.896c-0.296-0.984-0.62-1.969-0.975-2.954
		c-0.71-1.773-1.183-3.979-1.419-6.619c-0.236-2.639-0.473-4.825-0.709-6.559c-0.236-1.575-0.493-3.053-0.769-4.433
		c-0.275-1.378-0.542-2.697-0.797-3.959c-0.257-1.26-0.523-2.501-0.798-3.723c-0.276-1.221-0.532-2.481-0.769-3.782l-2.6-28.601
		c0.039-1.852-0.01-3.88-0.148-6.086c-0.138-2.206-0.363-4.609-0.68-7.21c-0.669-5.238,0.218-9.257,2.659-12.055l0.414-0.473
		l0.236-0.236c0.354-0.473,0.709-0.847,1.063-1.123l1.241-1.596v-0.177c-0.04,0-0.06-0.02-0.06-0.06V343.332z M543.446,354.914
		c-0.039,0.04-0.02,0.06,0.06,0.06c0.039,0,0.059,0.021,0.059,0.059C543.565,354.876,543.525,354.836,543.446,354.914z"/>
	<path id="XMLID_33_" style="fill:#FFFFFF;" d="M574.589,384.579v-0.591v0.473l0.059-0.473c0.04-0.039,0.06-0.256,0.06-0.65
		c0.591-4.215,1.949-7.327,4.077-9.337c1.063-1.023,2.146-1.999,3.25-2.925c1.103-0.925,2.226-1.841,3.368-2.748
		c3.388-2.6,7.957-4.353,13.71-5.259c5.751-0.945,10.695-0.827,14.832,0.354c5.948,1.853,10.498,4.866,13.65,9.041
		c2.521,3.467,3.919,6.54,4.195,9.219c0.314,2.68-0.571,5.968-2.659,9.868l-1.063,2.068c-0.276,0.552-0.414,0.867-0.414,0.945
		c0.039,0.04-0.079,0.354-0.354,0.945c-0.513,0.946-0.985,1.498-1.418,1.655c-0.473,0.197-0.827,0.611-1.063,1.24
		c-0.867-0.629-1.182-0.945-0.945-0.945c0.274-0.038-0.04-0.098-0.946-0.177c-0.906,0-1.32,0.059-1.24,0.177
		c0.118,0.118-0.118-0.354-0.709-1.418l-1.359-1.714c-0.354-0.512-0.473-0.807-0.354-0.887c0.118-0.038,0.196-0.609,0.236-1.713
		c-1.892-0.118-3.428-1.261-4.609-3.428c-0.709-1.3-1.025-1.95-0.945-1.95c0.078,0-0.709-0.413-2.364-1.241
		c-0.748-0.354-1.182-0.649-1.3-0.886c-0.118-0.275-0.769-0.591-1.95-0.945c-1.536-0.394-3.486-0.453-5.85-0.178
		c-2.364,0.236-4.373,0.769-6.027,1.596c-0.08,0.04-0.198,0.089-0.355,0.147c-0.157,0.06-0.374,0.168-0.649,0.325
		c-0.158,0.079-0.276,0.139-0.354,0.177c-0.08,0.04-0.158,0.08-0.236,0.119c-0.08,0.039-0.158,0.059-0.236,0.059l-1.063,0.769
		c-0.316,0.197-0.198,1.024,0.354,2.481c0.354,1.104,1.161,2.108,2.423,3.014c0.669,0.435,1.289,0.827,1.861,1.182
		c0.57,0.354,1.132,0.69,1.684,1.005c0.473,0.315,0.887,0.552,1.241,0.709c0.354,0.158,0.827,0.354,1.418,0.591
		c1.063,0.473,2.048,0.937,2.955,1.389c0.905,0.454,1.969,0.916,3.19,1.389l11.405,5.969c2.639,1.694,4.924,3.723,6.854,6.087
		c3.939,4.807,5.102,9.849,3.486,15.127c-1.576,5.24-5.121,9.159-10.637,11.76l-1.654,0.591l-2.777,0.887
		c-0.354,0.078-0.562,0.138-0.62,0.177c-0.06,0.039,0.009,0.079,0.206,0.118s0.236,0.06,0.118,0.06s-0.413,0-0.886,0
		c-5.791,0-10.539-0.334-14.241-1.005c-3.546-0.63-7.623-2.718-12.232-6.264c-0.631-0.433-1.231-1.005-1.803-1.714
		s-1.133-1.516-1.684-2.423l-2.423-4.668c-0.236-0.591-0.502-1.201-0.798-1.832c-0.296-0.63-0.562-1.271-0.798-1.921
		c-0.236-0.649-0.414-1.319-0.532-2.009c-0.118-0.688-0.118-1.389,0-2.098v-0.118c0-0.039,0.01-0.06,0.03-0.06
		c0.02,0,0.029-0.019,0.029-0.059l0.178-0.591l0.118-0.354c0.038-0.197,0.078-0.325,0.118-0.385
		c0.038-0.059,0.078-0.127,0.118-0.206c0.038-0.079,0.059-0.178,0.059-0.296s0-0.334,0-0.65c1.812,0,3.466,0.572,4.964,1.714
		l2.659,2.659c2.837,3.861,6.992,6.639,12.469,8.332c5.515,1.655,9.868,1.813,13.06,0.473c2.009-0.866,2.461-2.205,1.358-4.018
		c-0.039-0.039-0.118-0.118-0.236-0.236s-0.177-0.217-0.177-0.296c-1.418-1.733-3.271-3.151-5.555-4.255
		c-1.144-0.551-2.236-1.083-3.28-1.596c-1.044-0.511-2.059-0.983-3.043-1.418c-0.236-0.118-0.413-0.187-0.531-0.207
		c-0.118-0.019-0.218-0.038-0.296-0.059c-0.079-0.02-0.178-0.039-0.296-0.06c-0.118-0.019-0.295-0.088-0.531-0.206l-6.973-2.837
		l-3.428-1.478c-1.182-0.512-2.245-1.083-3.191-1.714c-0.945-0.629-1.911-1.3-2.896-2.009l-5.082-4.668
		c-1.418-1.733-2.6-3.821-3.545-6.264c-0.354-1.024-0.591-2.039-0.709-3.044c-0.118-1.004-0.236-2.038-0.354-3.103L574.589,384.579z
		"/>
</g>
</svg>
