<?xml version="1.0" encoding="iso-8859-1"?>
<!-- Generator: Adobe Illustrator 19.2.1, SVG Export Plug-In . SVG Version: 6.00 Build 0)  -->
<svg version="1.1" id="Layer_1" xmlns="http://www.w3.org/2000/svg" xmlns:xlink="http://www.w3.org/1999/xlink" x="0px" y="0px"
	 viewBox="0 0 768 768" style="enable-background:new 0 0 768 768;" xml:space="preserve">
<path id="XMLID_88_" style="fill:#00A69C;" d="M667.72,413.729c-4.282-52.45-34.623-91.386-83.25-106.825
	c-1.464-0.465-2.955-0.913-4.466-1.342c12.136-35.786,2.092-79.807-18.178-111.429c-26.259-40.962-71.4-65.418-120.749-65.418
	c-4.633,0-9.323,0.227-13.933,0.673c-45.107,4.366-85.509,30.577-108.774,69.651c-18.408-15.949-42.346-24.448-69.981-24.448
	c-45.163,0-94.326,23.724-122.339,59.033c-23.849,30.063-32.216,70.55-22.382,108.306c6.64,25.484,20.976,47.142,40.704,62.287
	c-22.286,27.274-35.105,64.478-33.155,99.775c3.773,68.253,58.705,124.619,130.614,134.025c6.419,0.841,12.941,1.266,19.383,1.266
	c50.105,0,97.239-25.172,128.282-66.513c1.79,2.586,3.691,5.096,5.697,7.52c24.105,29.103,61.992,45.794,103.95,45.795
	c0.003,0,0.003,0,0.006,0c5.881,0,11.824-0.341,17.656-1.016C616.459,613.537,675.292,506.482,667.72,413.729z"/>
<circle id="XMLID_99_" style="fill:#00A69C;" cx="201.382" cy="89" r="48.618"/>
<circle id="XMLID_94_" style="fill:#00A69C;" cx="138.51" cy="145.538" r="22.705"/>
<circle id="XMLID_74_" style="fill:#00A69C;" cx="351.755" cy="650.582" r="16.418"/>
<g id="XMLID_3_">
	<path id="XMLID_5_" style="fill:#FFFFFF;" d="M236.822,354.73c0.237-0.788,0.217-1.379-0.059-1.772
		c-0.157-0.236-0.285-0.443-0.384-0.621c-0.098-0.177-0.167-0.305-0.207-0.384c-0.078-0.314,0.021-0.925,0.295-1.832
		c2.049-7.248,7.328-11.464,15.837-12.646c4.293-0.63,8.233-1.201,11.818-1.714c3.584-0.512,6.855-0.984,9.81-1.418
		c2.246-0.315,4.56-0.541,6.943-0.68c2.383-0.138,4.855-0.187,7.416-0.147c5.121,0.079,10.262,0.079,15.423,0
		c0.788,0,1.575-0.03,2.364-0.089c0.788-0.06,1.595-0.167,2.423-0.325c1.693-0.275,3.604-0.039,5.732,0.709l6.205,5.082
		c0.748,0.985,0.866,1.38,0.354,1.182c-0.473-0.196,0.118,0.907,1.773,3.31l-1.241,0.887c0,0.039-0.059,0.059-0.177,0.059
		c0.315,1.262,0.591,1.793,0.828,1.596c0.275-0.197,0.196,0.395-0.236,1.772c-0.355,1.063-0.975,2.029-1.862,2.896
		c-0.886,0.867-1.704,1.636-2.452,2.305l-1.95,2.305c-0.867,0-1.557,0-2.068,0c-0.513,0-0.867,0.021-1.064,0.06
		c-0.394,0-1.063,0.295-2.009,0.886c-0.512,0.316-0.867,0.542-1.063,0.68c-0.198,0.139-0.217,0.188-0.059,0.147
		c0.236-0.118-0.08-0.196-0.945-0.236l-17.314-0.591l-2.186,30.729l-2.955,22.928c-1.261,9.771-3.152,16.842-5.673,21.214
		c-0.394,0.71-0.789,1.281-1.182,1.714c-0.709,0.827-1.004,1.044-0.886,0.65c0.078-0.197,0.098-0.217,0.059-0.06
		c-0.04,0.157-0.158,0.473-0.355,0.946c-1.772-0.08-3.211-1.123-4.313-3.133c-1.143-2.087-2.068-4.471-2.777-7.149
		s-1.241-5.318-1.596-7.919l-0.65-5.377l-1.477-54.07h-8.864c-2.127-0.038-4.964,0.139-8.509,0.532
		c-0.354,0.04-0.621,0.079-0.798,0.118c-0.177,0.04-0.335,0.069-0.473,0.089c-0.138,0.02-0.276,0.039-0.414,0.059
		c-0.139,0.021-0.325,0.029-0.562,0.029c-3.191,0.354-5.437,0-6.736-1.063l-1.95-1.596c-0.551-0.314-0.748-0.452-0.591-0.413
		C238.221,354.455,237.807,354.573,236.822,354.73z M316.893,351.893c-0.04,0.04-0.021,0.06,0.059,0.06
		c0.039,0,0.059,0.021,0.059,0.059L316.893,351.893z"/>
	<path id="XMLID_8_" style="fill:#FFFFFF;" d="M349.098,434.446c-4.334,0-8.648-1.752-12.941-5.259
		c-4.216-3.585-7.268-7.366-9.159-11.347c-1.26-2.678-2.423-3.879-3.486-3.604c-1.103,0.276-1.773-0.236-2.009-1.536l0.059-0.887
		c0.236-2.284,0.631-3.328,1.182-3.132c0.552,0.198,0.65-0.729,0.295-2.777l-0.532-9.572c0-1.419,0.257-3.073,0.769-4.964
		c0.276-0.984,0.522-1.892,0.739-2.719c0.217-0.827,0.423-1.575,0.62-2.245c1.498-4.648,3.919-8.884,7.269-12.705
		c1.693-1.97,3.417-3.812,5.17-5.525c1.752-1.714,3.555-3.318,5.407-4.815l2.423-1.596c0.984-0.67,2.098-1.368,3.338-2.098
		c1.241-0.729,2.453-1.271,3.634-1.625c1.655-0.434,3.407-0.788,5.259-1.064c1.852-0.274,3.801-0.473,5.85-0.591
		c4.137-0.236,7.583,0.671,10.341,2.719l2.541,1.891c3.033,2.443,4.964,5.812,5.791,10.104c0.827,4.295,0.669,8.234-0.473,11.819
		c-1.104,3.545-2.718,6.382-4.846,8.509c-0.434,0.435-0.808,0.827-1.123,1.182c-0.316,0.354-0.572,0.671-0.768,0.946
		c-1.694,2.245-3.959,4.254-6.796,6.027l-7.8,4.728l-8.391,4.49c-0.827,0.473-2.305,1.241-4.432,2.305
		c-2.049,0.985-3.447,1.518-4.195,1.596c0.748,3.112,2.875,5.437,6.382,6.973c5.515,2.521,10.971,2.068,16.369-1.358
		c5.397-3.506,8.509-6.717,9.337-9.633c0.984,0.04,1.497,0.04,1.536,0c0.039-0.038,0.256,0.257,0.65,0.887
		c0.629,1.104,0.65,3.428,0.059,6.973c-0.513,3.507-2.089,6.58-4.728,9.219c-1.498,1.498-3.486,2.896-5.968,4.195
		c-2.482,1.262-4.708,2.187-6.678,2.777c-0.67,0.197-1.438,0.385-2.305,0.562c-0.867,0.178-1.813,0.364-2.836,0.562
		c-1.025,0.196-2.009,0.345-2.955,0.443C350.753,434.396,349.886,434.446,349.098,434.446z M359.321,385.517
		c0.039-0.827,0.098-1.201,0.177-1.123c0.039,0.08,0.295-0.118,0.768-0.591l4.137-3.604c0.788-0.669,1.182-2.896,1.182-6.678
		c-2.521-0.551-4.786-0.452-6.795,0.296l-3.959,1.832c-0.434,0.275-0.956,0.631-1.566,1.063c-0.611,0.434-1.31,0.966-2.098,1.596
		c-0.118,0.039-0.434,0.315-0.945,0.827l-4.964,5.259c-2.798,3.31-4.354,5.595-4.668,6.855c-0.158,0.552-0.375,1.211-0.65,1.979
		c-0.276,0.768-0.631,1.625-1.064,2.57c1.024-0.078,2.364-0.551,4.019-1.418c0.827-0.434,1.596-0.837,2.305-1.212
		c0.709-0.374,1.378-0.718,2.009-1.034c0.591-0.314,1.408-0.777,2.452-1.389c1.043-0.61,2.314-1.368,3.812-2.274
		C356.544,386.621,358.494,385.635,359.321,385.517z"/>
	<path id="XMLID_11_" style="fill:#FFFFFF;" d="M403.877,361.526c2.009-0.157,4.432-0.335,7.268-0.532
		c2.875-0.236,5.614-0.236,8.214,0c1.103,0.118,2.058,0.228,2.866,0.325c0.807,0.099,1.486,0.188,2.039,0.266
		c0.551,0.079,1.201,0.217,1.95,0.414c0.748,0.197,1.634,0.453,2.659,0.768c1.103,0.395,2.246,0.878,3.427,1.448
		c1.182,0.571,2.166,1.311,2.955,2.216c0.039,0.118,0.177,0.296,0.414,0.532c2.324,2.915,3.369,6.244,3.132,9.986l-1.004,2.896
		c-0.236,0.434-0.354,0.611-0.354,0.532c0-0.118-0.118,0.177-0.354,0.886l-2.423,8.687c-0.354,1.301-0.729,2.521-1.123,3.664
		c-0.395,1.144-0.709,2.345-0.946,3.604l-4.254,26.946c-0.08,0.671-0.099,1.38-0.059,2.128c0.039,0.748,0.059,1.497,0.059,2.245
		c0,0.749-0.03,1.478-0.089,2.187s-0.207,1.32-0.443,1.832c-0.945,2.284-2.068,2.974-3.368,2.068
		c-1.261-0.867-2.482-2.01-3.664-3.428c-0.276-0.314-0.493-0.552-0.65-0.709c-0.158-0.157-0.276-0.256-0.354-0.296
		c-0.08-0.078-0.237-0.57-0.473-1.478c-0.197-0.591-0.256-0.925-0.177-1.004c0.079-0.079,0.02-0.532-0.177-1.359
		c-0.749,0.591-1.103,0.966-1.063,1.123c0.039,0.157-0.513,0.649-1.655,1.478l-3.25,2.067c-1.3,0.749-2.521,1.34-3.664,1.773
		c-1.104,0.433-2.64,0.649-4.609,0.649c-1.458,0-2.916-0.168-4.373-0.502c-1.458-0.334-2.866-0.798-4.225-1.389
		c-1.359-0.591-2.65-1.271-3.871-2.039c-1.221-0.768-2.344-1.585-3.368-2.452l-3.073-3.132c-2.797-3.309-4.628-7.11-5.496-11.404
		c-0.315-1.693-0.315-3.585,0-5.674c0.473-2.639,1.655-5.101,3.545-7.386c0.946-1.183,1.891-2.246,2.836-3.191
		c0.946-0.945,1.911-1.752,2.896-2.423c2.639-1.852,5.2-3.21,7.682-4.077c2.403-0.866,5.121-1.635,8.155-2.305
		c1.97-0.434,3.673-0.758,5.112-0.976c1.438-0.216,2.629-0.344,3.575-0.384c1.891-0.118,4.708,0.236,8.451,1.063
		c0.118-0.274,0.186-0.64,0.207-1.093c0.02-0.452,0.049-0.916,0.089-1.389c0.039-0.473,0.088-0.955,0.147-1.448
		c0.059-0.492,0.207-0.954,0.443-1.389c-2.009,0-3.792,0-5.348,0c-1.557,0-2.886,0.021-3.989,0.06c-2.207,0-5.2,0.473-8.982,1.418
		c-0.118,0-0.295,0.04-0.532,0.118c-1.852,0.513-3.604,1.163-5.259,1.95c-0.512,0.513-0.966,0.769-1.359,0.769l-2.246,0.473
		c-0.395,0.079-0.621,0.147-0.68,0.207c-0.059,0.059,0.009,0.088,0.207,0.088h-0.65l-7.386-2.305
		c-0.198-0.118-0.473-0.452-0.828-1.004c-0.236-0.354-0.414-0.61-0.532-0.769c-0.118-0.157-0.226-0.266-0.325-0.325
		c-0.098-0.059-0.177-0.098-0.236-0.118c-0.059-0.02-0.147-0.068-0.266-0.147c-0.118-0.118-0.216-0.207-0.295-0.266
		c-0.079-0.06-0.138-0.138-0.177-0.236c-0.039-0.099-0.079-0.267-0.118-0.503c-0.039-0.236-0.059-0.591-0.059-1.063
		c0-1.023,0.276-1.812,0.827-2.363c-0.827-0.197-1.201-0.335-1.123-0.414c0.08-0.078-0.295-0.236-1.123-0.473
		c0.158-1.93,0.434-3.407,0.827-4.432c0.276-0.945,0.966-2.187,2.068-3.723c0.709-0.866,1.752-1.517,3.132-1.95
		c1.339-0.394,1.989-0.769,1.95-1.123c-0.198-0.709-0.316-0.709-0.354,0c0,0.67-0.177,0.414-0.532-0.769L403.877,361.526z
		 M384.022,373.994h-0.059c0-0.196-0.039-0.255-0.118-0.177L384.022,373.994z M394.127,411.164c0.039,0.118,0.098,0.236,0.177,0.354
		c0.079,0.079,0.127,0.158,0.148,0.236c0.019,0.079,0.068,0.158,0.147,0.236c0.394,0.788,0.748,1.458,1.064,2.009
		c0.314,0.553,0.788,1.123,1.418,1.714l1.005,0.827c2.955,2.325,5.377,3.408,7.268,3.25c1.93-0.156,4.137-0.747,6.619-1.772
		c4.136-1.615,6.479-2.679,7.032-3.191c0.551-0.551,0.828-2.934,0.828-7.149c-1.262-0.118-1.694-0.178-1.3-0.178
		c0.433,0,0.098-0.512-1.004-1.536l-1.773-1.3c-1.222-0.67-2.857-0.887-4.905-0.65l-4.491,0.414
		c-3.507,0.434-6.048,0.906-7.623,1.418c-1.576,0.552-3.29,1.891-5.141,4.019L394.127,411.164z"/>
	<path id="XMLID_16_" style="fill:#FFFFFF;" d="M440.87,352.248c0-1.891,0.473-3.466,1.418-4.727l2.659-2.777
		c0.354-0.354,0.659-0.759,0.916-1.212c0.256-0.452,0.621-0.817,1.093-1.093c0.039-0.039,0.315-0.099,0.827-0.178
		c1.064-0.118,1.378-0.059,0.946,0.178c-0.198,0.079-0.207,0.059-0.03-0.06s0.541-0.354,1.093-0.709
		c0.473-0.275,0.669-0.452,0.591-0.532c-0.079-0.078,0.295-0.236,1.123-0.473c0.236,0.198,0.393,0.346,0.473,0.443
		c0.078,0.099,0.137,0.188,0.177,0.266c0.039,0.08,0.059,0.169,0.059,0.267c0,0.099,0.059,0.227,0.177,0.384
		c0.788-0.551,1.457-0.925,2.009-1.123c0.511-0.156,1.378,0.158,2.6,0.946c1.024,0.709,1.397,1.084,1.123,1.122
		c-0.316,0-0.198,0.236,0.354,0.709c0.512,0.513,0.709,0.572,0.591,0.178c-0.079-0.473,0.275-0.118,1.064,1.063l1.418,2.187
		c2.403,2.758,3.073,4.807,2.009,6.146c-1.063,1.3,0.61,1.163,5.023-0.413c2.797-0.984,5.614-1.557,8.45-1.714
		c2.875-0.157,5.652,0.493,8.332,1.95c2.284,1.3,3.565,2.481,3.841,3.545c0.394,1.104,1.064,2.128,2.009,3.073l1.182,1.95
		c0.629,1.654,0.945,3.271,0.945,4.846h1.3c0.157-0.512,0.887-1.261,2.187-2.246l3.014-2.363c0.079-0.079,0.177-0.138,0.295-0.178
		l7.091-4.904c2.797-1.497,5.555-2.187,8.273-2.068c3.584,0.197,6.775,1.359,9.573,3.486c2.836,2.167,4.747,4.313,5.732,6.441
		c0.314,0.788,0.551,1.438,0.709,1.95c0.157,0.512,0.256,0.906,0.295,1.182c0,0.197-0.01,0.335-0.03,0.413
		c-0.02,0.08-0.029,0.158-0.029,0.236c0,0.08,0,0.188,0,0.325c0,0.139,0.02,0.365,0.059,0.68c0.118,1.694-0.021,4.59-0.414,8.687
		c-0.354,4.255-0.65,7.131-0.886,8.628c-0.907,6.304-2.089,12.557-3.546,18.762c-1.458,6.205-3.211,12.439-5.259,18.703
		l-1.891,5.673c-0.67,2.167-2.089,3.27-4.255,3.309c-0.158-0.591-0.354-1.053-0.591-1.389c-0.236-0.334-0.513-0.856-0.827-1.565
		c-1.891-4.451-2.443-9.81-1.655-16.073c0.827-6.185,1.359-11.602,1.596-16.251l-0.296-17.668l-1.595,1.063
		c-0.907,0.591-1.753,1.241-2.541,1.95c-0.789,0.709-1.566,1.428-2.334,2.156c-0.769,0.729-1.547,1.448-2.334,2.157
		c-0.789,0.709-1.595,1.359-2.423,1.95c0.039,0-0.059,0.059-0.295,0.177l-1.241,0.946c-3.389,2.994-5.318,4.55-5.791,4.668
		c-0.473,0.118-1.025,2.009-1.655,5.673c-0.354,1.654-0.641,3.132-0.857,4.432c-0.217,1.3-0.502,2.68-0.857,4.137l-4.609,15.777
		c-0.473,1.262-1.005,2.503-1.596,3.724c-0.591,1.182-1.596,1.831-3.014,1.949c-0.198-0.747-0.493-1.565-0.886-2.452
		c-0.395-0.886-0.907-1.881-1.537-2.984c-1.222-2.166-1.891-5.396-2.009-9.69l-0.118-3.31l-0.236-4.373
		c-0.04-0.473-0.069-0.886-0.088-1.24c-0.021-0.355-0.03-0.63-0.03-0.828c-0.04-3.229-0.335-8.272-0.886-15.127
		c-0.552-6.894-1.438-11.661-2.659-14.301c-0.354,0.197-0.68,0.364-0.975,0.502c-0.295,0.139-0.542,0.286-0.739,0.443l-0.827,0.532
		c-1.261,0.827-2.354,1.764-3.28,2.807c-0.926,1.044-1.861,2.078-2.807,3.103c-0.473,0.513-0.877,0.945-1.211,1.3
		c-0.335,0.354-0.739,0.769-1.211,1.241c-1.576,1.576-2.621,2.443-3.132,2.6c-0.434,0.118-0.808,1.241-1.123,3.368l-1.595,8.628
		l-1.537,6.914c-0.354,1.654-0.739,3.329-1.152,5.022c-0.414,1.694-0.837,3.428-1.271,5.2c-0.434,1.772-0.877,3.467-1.33,5.082
		c-0.453,1.616-0.936,3.152-1.448,4.609c-0.945,2.916-1.832,4.63-2.659,5.141c-0.985-0.236-1.713-0.984-2.187-2.245l-1.3-3.132
		c-0.394-0.866-0.749-1.852-1.063-2.955c-0.316-1.103-0.572-2.323-0.769-3.663l-1.477-46.388c0.04-0.118,0.059-0.492,0.059-1.123
		c0-0.078,0-0.227,0-0.443c0-0.216,0.02-0.481,0.059-0.798l0.354-7.682c0-0.827,0-1.773,0-2.837s-0.059-2.087-0.177-3.072
		c-0.118-1.261-0.236-2.354-0.354-3.28C440.929,354.662,440.87,353.548,440.87,352.248z M459.483,346.457
		c0,0.04,0.02,0.06,0.059,0.06l0.06,0.059L459.483,346.457z M524.958,358.925c-0.04,0.04-0.02,0.06,0.059,0.06
		c0.039,0,0.06,0.021,0.06,0.059L524.958,358.925z"/>
</g>
</svg>
