<?xml version="1.0" encoding="iso-8859-1"?>
<!-- Generator: Adobe Illustrator 19.2.1, SVG Export Plug-In . SVG Version: 6.00 Build 0)  -->
<svg version="1.1" id="Layer_1" xmlns="http://www.w3.org/2000/svg" xmlns:xlink="http://www.w3.org/1999/xlink" x="0px" y="0px"
	 viewBox="0 0 768 768" style="enable-background:new 0 0 768 768;" xml:space="preserve">
<path id="XMLID_88_" style="fill:#00A69C;" d="M667.72,413.729c-4.282-52.45-34.623-91.386-83.25-106.825
	c-1.464-0.465-2.955-0.913-4.466-1.342c12.136-35.786,2.092-79.807-18.178-111.429c-26.259-40.962-71.4-65.418-120.749-65.418
	c-4.633,0-9.323,0.227-13.933,0.673c-45.107,4.366-85.509,30.577-108.774,69.651c-18.408-15.949-42.346-24.448-69.981-24.448
	c-45.163,0-94.326,23.724-122.339,59.033c-23.849,30.063-32.216,70.55-22.382,108.306c6.64,25.484,20.976,47.142,40.704,62.287
	c-22.286,27.274-35.105,64.478-33.155,99.775c3.773,68.253,58.705,124.619,130.614,134.025c6.419,0.841,12.941,1.266,19.383,1.266
	c50.105,0,97.239-25.172,128.282-66.513c1.79,2.586,3.691,5.096,5.697,7.52c24.105,29.103,61.992,45.794,103.95,45.795
	c0.003,0,0.003,0,0.006,0c5.881,0,11.824-0.341,17.656-1.016C616.459,613.537,675.292,506.482,667.72,413.729z"/>
<g id="XMLID_7_">
	<g id="XMLID_6_">
		<path id="XMLID_112_" style="fill:#FFFFFF;" d="M340.557,356.357c4.57,0.396,7.569,0.704,8.998,0.924
			c1.428,0.22,3.943,0.483,7.548,0.791c3.603,0.308,5.998,0.934,7.185,1.878c1.187,0.945,1.23,1.824,0.132,2.637
			c-1.099,0.813-2.561,1.22-4.383,1.22c-1.824,0-3.527-0.088-5.109-0.264c-1.582-0.175-2.801-0.285-3.658-0.33
			c-0.856-0.043-3.241-0.197-7.152-0.461s-6.581-0.373-8.009-0.33c-1.429,0.045-2.538,0.506-3.329,1.385
			c-0.791,0.88-1.802,2-3.032,3.361c-1.23,1.363-2.89,3.473-4.977,6.328c-2.088,2.857-4.208,6.064-6.361,9.625
			c-2.153,3.559-4.186,6.954-6.097,10.184c-1.912,3.23-2.868,5.746-2.868,7.548c0,1.803,0.429,3.021,1.286,3.658
			c0.856,0.638,1.966,0.671,3.328,0.099c1.362-0.57,2.428-0.955,3.197-1.153c0.769-0.197,1.867-0.692,3.296-1.483
			c1.428-0.791,2.955-1.801,4.581-3.031s1.55-0.891-0.23,1.021c-1.779,1.911-3.131,3.526-4.054,4.845s-2.659,2.999-5.208,5.043
			c-2.549,2.043-4.68,3.109-6.394,3.196c-1.714,0.089-3.241-0.317-4.581-1.219c-1.342-0.9-2.154-2.317-2.439-4.252
			c-0.286-1.934-0.429-3.669-0.429-5.207s0.352-3.23,1.055-5.076s1.626-3.768,2.769-5.768c1.143-1.999,3.296-5.416,6.46-10.25
			s6.108-9.394,8.833-13.679c2.725-4.284,2.934-6.371,0.627-6.262c-2.308,0.11-5.647,0.197-10.02,0.264
			c-4.374,0.065-7.658,0.176-9.855,0.329c-2.197,0.154-4.011,0.561-5.438,1.22c-1.429,0.659-2.9,0.616-4.417-0.132
			c-1.516-0.747-2.396-1.352-2.637-1.813c-0.242-0.462-0.264-0.78-0.065-0.956c0.197-0.175,0.955-0.779,2.273-1.813
			c1.318-1.032,2.691-1.9,4.12-2.604c1.428-0.702,6.316-0.988,14.667-0.856c8.349,0.132,13.392,0.242,15.128,0.329
			c1.735,0.089,3.57,0.188,5.504,0.297C332.735,355.709,335.987,355.962,340.557,356.357z"/>
	</g>
	<path id="XMLID_114_" style="fill:#FFFFFF;" d="M357.103,375.605c2.943-0.219,4.734,0.275,5.372,1.483
		c0.637,1.209,0.934,2.747,0.89,4.614c-0.044,1.868-0.923,3.45-2.637,4.746c-1.714,1.297-3.978,2.582-6.789,3.856
		c-0.791,0.308-1.506,0.473-2.143,0.494c-0.638,0.022-1.165,0-1.582-0.065c-0.418-0.066-0.748-0.132-0.989-0.198
		c-0.241-0.065-0.385-0.032-0.428,0.099c-0.791,1.275-1.198,2.55-1.22,3.824c-0.022,1.274,0.396,2.45,1.252,3.526
		c0.857,1.077,1.813,1.703,2.868,1.878c1.055,0.177,2.152,0.144,3.296-0.099c1.142-0.241,3.251-0.999,6.328-2.274
		c3.075-1.273,5.218-2.472,6.427-3.592c1.208-1.121,2.361-2.209,3.461-3.264c1.098-1.055,1.252-1.055,0.461,0
		s-1.77,2.33-2.934,3.824s-2.614,2.978-4.351,4.449c-1.736,1.473-3.153,2.604-4.251,3.395c-1.1,0.791-2.561,1.506-4.384,2.143
		c-1.824,0.638-3.615,0.835-5.372,0.593c-1.759-0.241-3.077-0.647-3.955-1.22c-0.88-0.57-1.692-1.252-2.439-2.043
		s-1.362-1.725-1.846-2.802c-0.482-1.076-0.735-2.548-0.758-4.416c-0.021-1.867,0.417-3.899,1.318-6.098
		c0.9-2.197,1.922-4.021,3.065-5.472c1.142-1.449,2.691-2.91,4.646-4.383C352.367,377.133,354.598,376.132,357.103,375.605z
		 M357.168,381.538c-0.308-0.308-1.065-0.154-2.274,0.461c-1.209,0.616-2.087,1.308-2.637,2.076c-0.55,0.77-0.648,1.33-0.296,1.682
		c0.351,0.352,1.098,0.209,2.241-0.429c1.142-0.637,2.054-1.274,2.735-1.912C357.618,382.78,357.696,382.154,357.168,381.538z"/>
	<path id="XMLID_117_" style="fill:#FFFFFF;" d="M392.237,376.001c1.011-0.264,2.12-0.308,3.329-0.133
		c1.208,0.177,2.176,0.551,2.9,1.121c0.726,0.571,1.417,1.692,2.076,3.361c0.659,1.671,0.363,2.792-0.89,3.362
		c-1.252,0.571-2.385,0.374-3.395-0.593c-1.012-0.967-2.066-1.164-3.164-0.594c-1.1,0.571-2.187,1.153-3.263,1.747
		c-1.078,0.593-2.406,1.527-3.988,2.802s-3.209,2.9-4.878,4.877c-1.671,1.979-2.594,3.242-2.769,3.791
		c-0.177,0.55,0.252,0.473,1.285-0.23c1.032-0.703,2.614-1.769,4.746-3.197c2.131-1.428,4.813-2.89,8.042-4.384
		c3.23-1.493,5.273-2.076,6.131-1.747c0.856,0.33,1.592,0.935,2.208,1.813c0.614,0.88,0.966,1.638,1.055,2.274
		c0.087,0.638-0.012,1.144-0.297,1.517c-0.286,0.374-0.616,1.219-0.988,2.537c-0.374,1.318-0.342,2.594,0.099,3.824
		c0.438,1.23,0.999,2.076,1.681,2.537c0.681,0.462,1.615,0.594,2.802,0.396c1.187-0.197,2.646-1.098,4.384-2.702
		c1.735-1.604,1.658-1.23-0.231,1.12c-1.89,2.352-3.384,3.846-4.482,4.482c-1.099,0.638-1.956,0.945-2.57,0.923
		c-0.616-0.021-1.417-0.219-2.406-0.593c-0.988-0.373-1.923-0.956-2.802-1.747s-1.571-1.757-2.076-2.9
		c-0.506-1.143-0.847-1.988-1.021-2.538c-0.177-0.549-0.583-1.153-1.22-1.813c-0.638-0.659-1.417-0.802-2.34-0.429
		c-0.923,0.374-2.538,1.396-4.845,3.065c-2.308,1.671-4.461,3.044-6.46,4.12c-2.001,1.077-3.791,1.824-5.373,2.241
		c-1.582,0.418-2.604,0.56-3.064,0.429c-0.462-0.133-0.968-0.627-1.517-1.483c-0.549-0.857-0.867-1.79-0.956-2.802
		c-0.087-1.011,0.056-2.032,0.429-3.065c0.374-1.032,1.78-3.098,4.219-6.196c2.439-3.098,4.789-5.636,7.054-7.613
		c2.263-1.978,4.668-3.658,7.218-5.043C389.446,377.155,391.226,376.309,392.237,376.001z"/>
	<path id="XMLID_119_" style="fill:#FFFFFF;" d="M416.561,377.187c1.669-2.284,3.032-3.383,4.087-3.295s1.735,0.527,2.043,1.318
		s0.571,1.527,0.791,2.208c0.22,0.682,0.439,1.67,0.659,2.966c0.22,1.297-0.67,3.813-2.67,7.548c-2,3.735-1.856,4.208,0.429,1.417
		c2.285-2.79,4.24-4.525,5.867-5.207c1.625-0.681,3.119-0.681,4.482,0c1.361,0.682,2.219,1.506,2.57,2.472
		c0.352,0.967,0.571,2.066,0.659,3.296c0.088,1.23,0.264,1.935,0.527,2.109c0.264,0.176,1.714-1.143,4.351-3.955
		c2.637-2.812,4.954-4.669,6.954-5.57c2-0.9,3.659-1.088,4.978-0.561s2.472,1.561,3.46,3.099c0.989,1.539,2.274,3.78,3.856,6.724
		c1.582,2.944,3.219,5.108,4.911,6.493c1.691,1.384,3.197,2.208,4.516,2.472s3.603-0.45,6.855-2.143
		c3.251-1.691,3.977-2.01,2.175-0.955s-3.615,1.967-5.438,2.735c-1.823,0.77-3.109,1.362-3.855,1.779
		c-0.748,0.418-1.77,0.781-3.065,1.088c-1.297,0.308-2.517,0.176-3.658-0.396c-1.144-0.57-2.241-1.307-3.296-2.208
		c-1.055-0.9-2.373-2.395-3.955-4.482c-1.582-2.087-2.714-3.636-3.396-4.647c-0.682-1.011-1.527-1.428-2.537-1.252
		c-1.012,0.176-2.066,0.736-3.164,1.681c-1.1,0.945-2.604,2.297-4.516,4.054c-1.912,1.758-3.406,3.604-4.482,5.537
		c-1.077,1.935-1.726,3.176-1.944,3.725c-0.221,0.55-0.791,1.318-1.714,2.307c-0.923,0.989-1.803,1.363-2.637,1.121
		c-0.836-0.241-1.44-0.681-1.813-1.318c-0.373-0.637-0.406-1.769-0.099-3.395s0.561-3.187,0.758-4.681
		c0.198-1.493,0.352-3.12,0.462-4.878c0.109-1.757-0.407-2.691-1.549-2.802c-1.144-0.109-3.044,1.144-5.702,3.758
		c-2.659,2.615-4.34,4.647-5.043,6.097c-0.703,1.451-1.264,2.483-1.681,3.099c-0.418,0.616-0.857,1.099-1.318,1.45
		c-0.462,0.353-1.385,0.308-2.769-0.132c-1.385-0.438-2.165-1.011-2.34-1.714c-0.177-0.702,0.153-2.131,0.988-4.285
		c0.835-2.152,1.934-5.471,3.296-9.953s2.308-7.316,2.835-8.504c0.527-1.186-3.132,0.968-10.976,6.461
		c-7.845,5.493-10.041,6.833-6.592,4.021c3.45-2.812,6.845-5.394,10.185-7.745C412.385,381.791,414.89,379.473,416.561,377.187z"/>
</g>
<circle id="XMLID_99_" style="fill:#00A69C;" cx="201.382" cy="89" r="48.618"/>
<circle id="XMLID_94_" style="fill:#00A69C;" cx="138.51" cy="145.538" r="22.705"/>
<circle id="XMLID_74_" style="fill:#00A69C;" cx="351.755" cy="650.582" r="16.418"/>
</svg>
