<?xml version="1.0" encoding="iso-8859-1"?>
<!-- Generator: Adobe Illustrator 19.2.1, SVG Export Plug-In . SVG Version: 6.00 Build 0)  -->
<svg version="1.1" id="Layer_1" xmlns="http://www.w3.org/2000/svg" xmlns:xlink="http://www.w3.org/1999/xlink" x="0px" y="0px"
	 viewBox="0 0 768 768" style="enable-background:new 0 0 768 768;" xml:space="preserve">
<path id="XMLID_58_" style="fill:#00BD9C;" d="M664.948,305.436c7.924-42.233-3.512-84.072-32.188-117.807
	c-26.425-31.09-64.982-48.215-108.57-48.215c-35.275,0-70.849,10.965-100.765,29.881c-30.537-35.791-81.233-54.226-129.936-54.226
	c-26.766,0-52.279,5.38-73.776,15.564c-54,25.579-97.268,77.898-112.912,136.549c-13.079,49.052-5.31,97.633,21.902,136.8
	c16.174,23.279,44.063,42.993,74.557,54.564c-5.965,36.456,1.143,72.114,21.17,103.577c35.108,55.156,106.033,90.8,180.688,90.807
	c0.007,0,0.014,0,0.014,0c18.808,0,37.08-2.359,54.299-7.003c68.104-18.369,122.48-64.672,145.448-123.87
	c15.31-39.466,14.348-80.783-0.808-114.32C635.673,379.714,657.882,343.14,664.948,305.436z"/>
<g id="XMLID_8_">
	<path id="XMLID_121_" style="fill:#FFFFFF;" d="M342.977,337.329c1.229-1.274,2.383-1.867,3.461-1.78
		c1.076,0.089,1.855,0.462,2.34,1.121c0.482,0.659,0.801,1.429,0.956,2.307c0.153,0.88,0.108,1.726-0.132,2.538
		c-0.242,0.813-0.671,1.944-1.286,3.396c-0.615,1.449-0.682,2.417-0.197,2.9c0.482,0.483,1.131,0.604,1.944,0.362
		c0.813-0.241,2.076-0.429,3.79-0.561s3.405,0.188,5.076,0.956c1.669,0.77,3.186,2.076,4.548,3.922s2.153,3.999,2.373,6.46
		c0.22,2.462,0.076,4.538-0.428,6.229c-0.506,1.692-1.474,3.417-2.9,5.174c-1.429,1.759-2.066,2.726-1.912,2.9
		c0.153,0.177,0.846,0.583,2.076,1.22c1.23,0.638,2.439,1.671,3.626,3.099c1.187,1.429,1.79,2.813,1.813,4.152
		c0.021,1.341-0.11,2.9-0.396,4.681c-0.286,1.779-1.659,4.076-4.12,6.888c-2.461,2.813-5.603,5.153-9.426,7.021
		c-3.823,1.868-6.438,3.088-7.845,3.659s-3.011,1.099-4.812,1.582c-1.803,0.483-3.187,0.637-4.153,0.461
		c-0.967-0.175-1.824-0.417-2.57-0.725c-0.748-0.308-1.198-0.747-1.352-1.318c-0.154-0.571,0.043-1.296,0.594-2.176
		c0.549-0.879,1.516-1.516,2.9-1.912c1.384-0.395,3.493-1.087,6.328-2.076c2.834-0.988,5.559-2.196,8.174-3.625
		c2.613-1.428,5.031-3.142,7.251-5.142c2.218-1.999,3.164-3.955,2.834-5.867c-0.329-1.911-1.604-3.098-3.823-3.56
		c-2.22-0.461-5.405,0.144-9.558,1.813c-4.153,1.671-6.802,2.77-7.943,3.297c-1.144,0.527-2.022,0.461-2.637-0.198
		c-0.616-0.659-1.165-0.702-1.648-0.132c-0.483,0.571-1.143,2.165-1.978,4.779c-0.835,2.615-1.824,5.889-2.966,9.821
		c-1.144,3.934-2.1,6.987-2.867,9.163c-0.77,2.175-1.692,3.461-2.769,3.855c-1.078,0.396-1.824,0.474-2.241,0.231
		c-0.418-0.241-0.67-0.681-0.759-1.318c-0.087-0.637-0.142-1.604-0.164-2.9c-0.022-1.296,0.615-4.153,1.911-8.569
		c1.296-4.417,2.757-9.262,4.384-14.535c1.625-5.273,4.021-13.14,7.185-23.599c3.164-10.458,4.867-16.754,5.109-18.886
		C341.009,340.306,341.745,338.604,342.977,337.329z M357.215,355.39c-1.275-0.879-2.802-1.373-4.581-1.483
		c-1.78-0.109-3.593,0.11-5.438,0.659c-1.846,0.55-3.658,3.658-5.438,9.328c-1.779,5.668-2.824,9.283-3.131,10.843
		c-0.309,1.561,1.032,2.109,4.021,1.648c2.988-0.462,5.472-1.274,7.449-2.439c1.978-1.164,3.603-2.361,4.878-3.593
		c1.273-1.229,2.196-2.373,2.769-3.428c0.57-1.055,1.064-2.307,1.483-3.757c0.417-1.45,0.504-2.889,0.264-4.317
		C359.247,357.423,358.489,356.27,357.215,355.39z"/>
	<path id="XMLID_124_" style="fill:#FFFFFF;" d="M385.824,353.281c1.757-2.769,3.219-3.889,4.384-3.361
		c1.163,0.527,1.79,1.209,1.878,2.043c0.088,0.835-1.813,5.12-5.701,12.854c-3.89,7.735-6.702,14.931-8.438,21.589
		c-1.737,6.657-2.341,10.404-1.813,11.239s1.472,1.077,2.835,0.725c1.361-0.352,4.833-2.252,10.415-5.702
		c5.58-3.449,9.008-5.712,10.283-6.789c1.273-1.076,0.461-0.264-2.439,2.438c-2.9,2.703-5.087,4.725-6.559,6.064
		c-1.473,1.341-2.934,2.791-4.384,4.351c-1.45,1.561-3.22,2.912-5.306,4.054c-2.088,1.144-3.912,1.77-5.472,1.879
		c-1.561,0.11-2.702-0.252-3.428-1.088c-0.725-0.834-1.417-1.846-2.076-3.031c-0.659-1.188-0.715-3.373-0.165-6.56
		c0.549-3.186,2.076-8.382,4.581-15.589s4.592-12.514,6.263-15.92C382.351,359.071,384.065,356.006,385.824,353.281z"/>
	<path id="XMLID_126_" style="fill:#FFFFFF;" d="M399.336,375.626c0.835-0.791,1.856-1.295,3.065-1.516
		c1.208-0.22,2.208-0.153,2.999,0.197c0.791,0.353,1.461,0.979,2.011,1.879c0.549,0.901,1.922,1.33,4.12,1.285
		c2.196-0.043,4.933-0.032,8.206,0.033c3.273,0.066,2.582,0.165-2.076,0.297s-7.307,0.319-7.943,0.561
		c-0.637,0.242-0.9,1.021-0.791,2.34s0.198,2.714,0.264,4.186c0.066,1.473,0.077,3.109,0.033,4.911
		c-0.044,1.803-0.176,3.143-0.396,4.021c-0.22,0.88-0.55,1.803-0.988,2.77c-0.44,0.967-1.088,1.988-1.945,3.064
		c-0.856,1.077-1.911,2.076-3.164,3c-1.252,0.922-2.405,1.614-3.46,2.076c-1.055,0.461-2.198,0.483-3.428,0.065
		c-1.231-0.417-2.231-1.076-3-1.978c-0.769-0.9-1.384-1.834-1.846-2.801c-0.461-0.967-0.659-2.659-0.593-5.076
		c0.065-2.416,0.329-4.361,0.791-5.834c0.461-1.472,1.175-3.01,2.143-4.614c0.966-1.604,1.252-2.351,0.856-2.241
		c-0.396,0.11-0.494,0.056-0.297-0.164c0.198-0.22,0.956-1.164,2.274-2.835C397.491,377.583,398.545,376.375,399.336,375.626z
		 M402.632,385.976c-0.967-1.187-2.175-0.857-3.625,0.988s-2.318,3.802-2.604,5.867c-0.286,2.066-0.176,3.517,0.33,4.351
		c0.505,0.835,1.032,1.318,1.582,1.45c0.549,0.132,1.329-0.23,2.34-1.088c1.011-0.856,1.835-2.713,2.472-5.57
		C403.763,389.119,403.599,387.12,402.632,385.976z"/>
	<path id="XMLID_129_" style="fill:#FFFFFF;" d="M441.787,373.517c3.252,0.221,4.537,1.033,3.856,2.439
		c-0.682,1.407-1.374,3.867-2.076,7.383c-0.704,3.517-1.363,6.493-1.978,8.932c-0.616,2.439-1.495,5.01-2.637,7.713
		c-1.144,2.702-2.033,4.79-2.67,6.262c-0.638,1.473-1.429,3.131-2.373,4.977c-0.945,1.846-2.505,4.461-4.681,7.845
		c-2.175,3.385-4.68,6.295-7.515,8.734c-2.834,2.438-5.142,3.9-6.921,4.384c-1.78,0.483-3.779,0.329-5.999-0.462
		c-2.218-0.791-3.416-2.505-3.592-5.142s2.923-6.943,9.294-12.92c6.372-5.976,6.757-6.196,1.153-0.659
		c-5.603,5.537-8.447,9.339-8.536,11.403c-0.087,2.066,0.386,3.253,1.417,3.561c1.033,0.308,2.066,0.264,3.099-0.133
		c1.033-0.395,2.438-1.328,4.219-2.801c1.779-1.472,3.273-2.845,4.482-4.12c1.208-1.274,2.67-3.229,4.384-5.866
		s3.263-5.449,4.646-8.438c1.385-2.988,2.329-5.064,2.835-6.229c0.505-1.164,1.417-3.593,2.735-7.284s1.121-4.636-0.593-2.834
		s-3.967,3.769-6.757,5.899c-2.791,2.132-5.087,3.483-6.889,4.054c-1.802,0.571-3.175,0.725-4.12,0.461s-1.779-0.801-2.505-1.614
		c-0.725-0.813-0.856-2.417-0.396-4.813c0.462-2.395,1.615-5.251,3.461-8.569c1.846-3.317,3.999-5.866,6.46-7.646
		c2.461-1.779,4.658-3.042,6.592-3.79c1.934-0.747,3.449-1.098,4.549-1.055c1.098,0.044,2.34,0.362,3.724,0.956
		C439.843,374.737,440.952,374.529,441.787,373.517z M434.735,380.505c-0.748-0.747-1.868-0.67-3.362,0.23
		c-1.494,0.901-3.164,2.264-5.01,4.087c-1.846,1.824-3.384,3.769-4.614,5.833c-1.23,2.066-0.638,2.373,1.78,0.924
		c2.416-1.451,4.592-3.033,6.525-4.746c1.934-1.715,3.362-3.12,4.285-4.219S435.394,380.813,434.735,380.505z"/>
</g>
<circle id="XMLID_107_" style="fill:#00BD9C;" cx="145" cy="632.473" r="57.814"/>
<circle id="XMLID_101_" style="fill:#00BD9C;" cx="110.609" cy="548.865" r="18.679"/>
</svg>
