<?xml version="1.0" encoding="iso-8859-1"?>
<!-- Generator: Adobe Illustrator 19.2.1, SVG Export Plug-In . SVG Version: 6.00 Build 0)  -->
<svg version="1.1" id="Layer_1" xmlns="http://www.w3.org/2000/svg" xmlns:xlink="http://www.w3.org/1999/xlink" x="0px" y="0px"
	 viewBox="0 0 768 768" style="enable-background:new 0 0 768 768;" xml:space="preserve">
<path id="XMLID_58_" style="fill:#00BD9C;" d="M664.948,305.436c7.924-42.233-3.512-84.072-32.188-117.807
	c-26.425-31.09-64.982-48.215-108.57-48.215c-35.275,0-70.849,10.965-100.765,29.881c-30.537-35.791-81.233-54.226-129.936-54.226
	c-26.766,0-52.279,5.38-73.776,15.564c-54,25.579-97.268,77.898-112.912,136.549c-13.079,49.052-5.31,97.633,21.902,136.8
	c16.174,23.279,44.063,42.993,74.557,54.564c-5.965,36.456,1.143,72.114,21.17,103.577c35.108,55.156,106.033,90.8,180.688,90.807
	c0.007,0,0.014,0,0.014,0c18.808,0,37.08-2.359,54.299-7.003c68.104-18.369,122.48-64.672,145.448-123.87
	c15.31-39.466,14.348-80.783-0.808-114.32C635.673,379.714,657.882,343.14,664.948,305.436z"/>
<circle id="XMLID_107_" style="fill:#00BD9C;" cx="145" cy="632.473" r="57.814"/>
<circle id="XMLID_101_" style="fill:#00BD9C;" cx="110.609" cy="548.865" r="18.679"/>
<g id="XMLID_3_">
	<path id="XMLID_5_" style="fill:#FFFFFF;" d="M271.222,390.792c-0.118-1.024-0.867-2.167-2.245-3.428
		c-1.104-0.866-1.773-2.363-2.01-4.491c-0.079-1.063-0.118-2.018-0.118-2.865s0.079-1.605,0.236-2.275l2.187-5.496
		c0.354-1.142,0.374-3.19,0.06-6.145c-0.158-1.457-0.306-2.768-0.443-3.93c-0.139-1.162-0.266-2.196-0.384-3.104
		c-0.198-1.063-0.336-2.038-0.414-2.925c-0.079-0.886-0.139-1.664-0.178-2.334c0-1.378-0.236-3.407-0.709-6.086
		c-0.394-2.324-1.043-3.703-1.949-4.137c-0.906-0.433-0.866-2.521,0.118-6.264l1.949-4.55c0.157-0.275,0.267-0.473,0.325-0.591
		c0.06-0.118,0.068-0.138,0.029-0.059c0.474-0.827,1.005-1.556,1.596-2.187c0.591-0.629,1.221-1.191,1.892-1.684
		c0.669-0.492,1.378-0.965,2.127-1.418c0.748-0.453,1.516-0.916,2.305-1.389c0.905-0.551,1.654-0.965,2.245-1.241l2.482-1.063
		c3.466-1.457,4.964-2.166,4.491-2.127c-0.513,0,1.536-0.473,6.146-1.418c4.688-0.946,8.805-1.143,12.35-0.591
		c1.773,0.276,3.644,0.641,5.614,1.093c1.97,0.454,4.077,1.015,6.323,1.684c1.378,0.473,2.629,1.064,3.752,1.773
		s2.334,1.438,3.635,2.187l0.531,0.354c0.434,0.316,0.68,0.483,0.739,0.502c0.059,0.02-0.089-0.089-0.443-0.325
		c-0.316-0.236-0.454-0.344-0.414-0.325c0.039,0.021,0.275,0.188,0.709,0.502c0.275,0.236,0.482,0.414,0.621,0.532
		c0.137,0.118,0.187,0.158,0.147,0.118c0.118,0.08,0.266,0.188,0.443,0.325c0.177,0.139,0.384,0.306,0.62,0.502
		c0.196,0.236,0.345,0.394,0.443,0.473c0.098,0.079,0.266,0.236,0.502,0.473l3.191,3.841c1.654,2.68,2.777,4.807,3.368,6.382
		c0.63,1.498,1.005,3.841,1.123,7.032l0.118,2.718c-0.236,4.019-1.38,8.037-3.428,12.055c-2.049,4.019-4.609,7.289-7.682,9.81
		c-0.08,0.04-0.139,0.089-0.178,0.147c-0.04,0.06-0.079,0.089-0.118,0.089c-0.354,0.276-0.709,0.532-1.063,0.769
		c-0.709,0.473-1.063,0.748-1.063,0.827c0.038,0.079-0.316,0.198-1.063,0.354v0.945c2.166,0.513,3.938,1.241,5.317,2.187
		c0.67,0.435,1.389,0.937,2.157,1.507c0.769,0.572,1.604,1.192,2.512,1.861l1.418,1.418l1.123,1.241
		c0.905,1.024,1.684,1.971,2.334,2.837c0.65,0.867,1.271,1.99,1.861,3.368c1.261,3.31,1.852,6.599,1.772,9.868
		c-0.197,7.644-2.856,14.359-7.978,20.15l-0.886,1.005c-0.08,0.04-0.139,0.089-0.178,0.147c-0.039,0.06-0.079,0.089-0.118,0.089
		c-1.222,1.144-2.187,1.989-2.896,2.541c-0.631,0.473-1.753,1.144-3.368,2.009l-2.896,1.478c-0.591,0.276-1.616,0.611-3.073,1.005
		c-7.327,2.205-14.063,3.132-20.209,2.777c-3.112-0.158-6.294-0.67-9.544-1.537c-3.25-0.865-6.608-2.087-10.075-3.663l-7.209-4.137
		c-0.827-0.591-1.241-1.418-1.241-2.481c0.039-1.103,1.123-1.95,3.25-2.541c1.575-0.394,2.935-0.592,4.077-0.592l-2.777-23.104
		C272.522,390.989,271.892,390.832,271.222,390.792z M286.763,365.322c0.946-0.038,1.822-0.373,2.63-1.004
		c0.808-0.63,1.763-1.26,2.866-1.891l6.678-3.25c1.182-0.512,2.098-1.014,2.747-1.507c0.65-0.492,1.408-0.975,2.275-1.448
		l5.791-5.082c0.984-1.969,1.418-3.388,1.3-4.254c-0.118-0.866-1.398-1.693-3.841-2.482l-2.187-0.532
		c-0.157,0-0.236-0.039-0.236-0.118l-1.891-0.65c-1.853-0.433-4.944-0.236-9.277,0.591c-4.373,0.789-6.678,2.502-6.914,5.141
		c-0.079,0.946-0.089,1.971-0.029,3.073c0.059,1.104,0.068,2.127,0.029,3.073L286.763,365.322z M288.182,390.318l-0.236,20.92
		c-0.04,0.315-0.069,0.611-0.089,0.886c-0.021,0.276-0.029,0.532-0.029,0.769c-0.04,0.315-0.069,0.641-0.089,0.975
		c-0.021,0.336-0.029,0.66-0.029,0.975c0.551-0.236,1.851-0.274,3.899-0.117c2.048,0.117,4.019,0.059,5.909-0.178l6.383-0.768
		c1.418-0.197,3.624-1.182,6.618-2.955c2.048-1.26,3.486-2.423,4.313-3.486c0.866-1.103,1.575-2.855,2.127-5.26
		c0.355-1.852-0.945-3.545-3.899-5.082c-1.222-0.59-3.054-1.26-5.496-2.009c-1.143-0.354-2.177-0.649-3.103-0.886
		s-1.724-0.434-2.393-0.592L288.182,390.318z"/>
	<path id="XMLID_9_" style="fill:#FFFFFF;" d="M363.821,411.651c0,1.694-0.336,3.841-1.005,6.441
		c-0.67,2.521-1.517,4.649-2.541,6.382l-0.236,0.414c-0.552,0.945-1.241,1.693-2.068,2.245s-1.764,0.876-2.807,0.976
		c-1.044,0.098-2.138-0.011-3.279-0.326c-1.144-0.314-2.305-0.846-3.487-1.595c-0.197-0.118-0.502-0.345-0.916-0.68
		c-0.413-0.335-0.679-0.581-0.797-0.739c-0.236-0.196-0.435-0.451-0.592-0.768l-6.382-23.4l-0.886-7.269
		c-0.315-2.128-0.434-4.609-0.354-7.446l0.768-10.4v-1.24l1.3-38.529c0.079-0.591,0.128-1.063,0.148-1.418
		c0.02-0.354,0.049-0.591,0.088-0.709l0.296-2.009c0.394-2.757,0.925-5.475,1.596-8.155c0.63-2.6,2.146-4.806,4.55-6.618l0.769-0.65
		l1.536-1.359l0.118-0.118l0.473-0.414c0.434-0.157,0.532-0.216,0.296-0.177c-0.158,0.04-0.207,0.069-0.148,0.088
		c0.06,0.021,0.207,0.03,0.443,0.03c0.591,0.079,0.65,0.177,0.178,0.295c-0.513,0.079-0.257,0.02,0.768-0.177
		c0.63-0.039,0.808-0.039,0.532,0c-0.395,0.079-0.315-0.02,0.236-0.295c0.827-0.355,1.063-0.532,0.709-0.532
		c-0.315,0,0.118-0.059,1.3-0.177c0.197,0.749,0.355,1.182,0.474,1.3l1.418-0.828c0.473-0.275,1.556,0.217,3.25,1.478
		c1.063,0.827,1.438,1.281,1.123,1.359c-0.236,0.04,0.216,0.118,1.358,0.237c0.118,2.049,0.236,2.955,0.354,2.718
		c0.118-0.275,0.335-0.315,0.65-0.118c1.812,0.985,2.601,2.363,2.363,4.136c-0.197,1.773-0.236,2.857-0.118,3.25
		c0.118,0.552,0.187,0.867,0.207,0.946c0.02,0.079-0.01-0.039-0.089-0.355c-0.118-0.669,0-0.629,0.355,0.118
		c0.473,1.143,0.511,2.167,0.118,3.073c-0.354,0.867-0.592,1.793-0.71,2.777c-0.394,2.718-0.66,4.963-0.797,6.736
		c-0.139,1.773-0.129,3.053,0.029,3.841c0.157,0.788,0.207,1.891,0.147,3.309c-0.059,1.418-0.188,3.132-0.384,5.141l-2.955,24.405
		c-0.039,0.197-0.089,0.473-0.147,0.828c-0.06,0.354-0.147,0.748-0.266,1.182l-0.591,2.541l-0.237,0.709
		c-0.039,0.118-0.059,0.197-0.059,0.236c0-0.039-0.01,0.059-0.029,0.295c-0.021,0.236-0.05,0.572-0.089,1.005
		c-0.118,0.945-0.257,1.772-0.414,2.481s-0.275,1.399-0.354,2.068l-1.713,21.806c0,0.276-0.03,0.848-0.089,1.714
		c-0.06,0.867-0.089,1.753-0.089,2.658c0.394-0.274,0.669-0.502,0.827-0.679c0.157-0.178,0.452-0.423,0.887-0.739l3.841-2.363
		C363.446,410.549,363.821,410.904,363.821,411.651z M362.875,321.771c0,0.04,0.019,0.059,0.059,0.059
		c0.039,0,0.078,0.021,0.118,0.059L362.875,321.771z"/>
	<path id="XMLID_12_" style="fill:#FFFFFF;" d="M396.912,427.843c-1.301,0-2.03-0.079-2.187-0.236
		c-0.118-0.118-1.32-0.217-3.604-0.296c-1.498,0-3.152-0.531-4.964-1.596c-3.743-1.969-6.836-4.037-9.278-6.204
		c-2.363-2.128-4.472-5.259-6.322-9.396c-2.207-5.082-3.546-11.109-4.019-18.082c-0.473-7.092,0.414-13.275,2.659-18.556
		c0.551-1.261,1.054-2.452,1.507-3.575c0.452-1.123,0.856-2.156,1.212-3.102c0.393-0.945,0.915-1.98,1.565-3.104
		c0.65-1.122,1.448-2.313,2.394-3.574l1.95-2.068l0.236-0.236l5.318-3.959c2.521-1.733,6.264-2.698,11.228-2.896
		c4.924-0.157,8.706,0.217,11.346,1.123c3.427,1.3,5.042,2.009,4.846,2.127c-0.198,0.08,0.433,0.473,1.891,1.182
		c0.275,0.158,0.452,0.256,0.532,0.295c0.078,0.04,0.038,0.02-0.118-0.059c-0.198-0.118-0.021-0.079,0.531,0.118
		c0.236,0.236,0.452,0.375,0.65,0.414l2.896,2.895c0.433,0.435,0.798,0.818,1.093,1.152c0.296,0.336,0.541,0.641,0.739,0.916
		c0.473,0.553,0.984,1.399,1.536,2.541l4.904,8.924c2.088,3.349,3.289,6.48,3.604,9.395c0.157,1.459,0.305,2.955,0.443,4.492
		c0.138,1.536,0.267,3.152,0.385,4.846l-0.65,10.341c-0.354,2.206-1.32,4.786-2.896,7.741c-1.576,3.112-3.172,5.613-4.786,7.504
		c-1.694,1.932-4.354,3.861-7.978,5.791c-1.813,0.986-3.468,1.794-4.964,2.424c-1.498,0.631-2.817,1.084-3.959,1.359
		c-1.813,0.394-2.955,0.729-3.428,1.004C400.792,427.724,399.354,427.843,396.912,427.843z M396.38,412.183
		c0.275-0.592,0.847-1.339,1.714-2.246l6.5-10.932l0.769-1.478c0.196-0.315,0.314-0.925,0.354-1.832
		c0.118-1.378,0.187-2.619,0.206-3.723c0.02-1.103-0.01-2.087-0.088-2.954c-0.198-1.813-0.887-3.605-2.068-5.378
		c-0.553-0.827-1.063-1.674-1.536-2.541c-0.474-0.866-0.867-1.753-1.183-2.659c-0.63-1.773-1.358-2.855-2.187-3.25l-2.481-0.236
		h-0.354c-0.827-0.039-1.724-0.068-2.688-0.089c-0.966-0.019-1.743,0.108-2.334,0.384c-0.474,0.276-1.576,1.576-3.31,3.9
		c-1.694,2.285-2.719,3.9-3.073,4.846c-0.434,1.025-0.808,2.266-1.122,3.723c-0.316,1.458-0.572,3.191-0.769,5.2
		c-0.354,3.861-0.197,7.032,0.473,9.515l3.428,11.641l3.486-0.768c0.314-0.079,0.433,0,0.354,0.236
		c-0.04,0.157,0.138,0.354,0.532,0.59c0.393,0.198,1.752,0.336,4.077,0.414L396.38,412.183z"/>
	<path id="XMLID_16_" style="fill:#FFFFFF;" d="M492.702,338.554c0.63,0,0.748,0.04,0.354,0.118c-0.198,0.04-0.04,0.177,0.473,0.414
		c0.787,0.394,1.526,0.759,2.216,1.093c0.688,0.335,1.31,0.66,1.861,0.975c1.103,0.513,2.048,1.675,2.837,3.487
		c0.156,0.394,0.423,0.739,0.798,1.034c0.373,0.295,0.679,0.797,0.915,1.507l0.532,2.777c0.236,1.931,0.216,2.6-0.059,2.009
		c-0.316-0.629-0.435-0.334-0.355,0.887c0,0.236,0.079,0.375,0.236,0.414l0.119-0.059c0.078,0,0.137-0.02,0.177-0.059l0.591-0.354
		c0,2.876-0.217,5.338-0.649,7.386c-0.395,1.931-0.572,4.255-0.532,6.973c0.039,1.734,0.009,3.508-0.089,5.318
		c-0.099,1.813-0.266,3.685-0.502,5.614l-1.063,10.637l-0.887,13.591c-0.04,0.513-0.069,0.956-0.089,1.33
		c-0.021,0.375-0.069,0.699-0.147,0.975l-0.414,2.188c-0.236,1.654-0.473,3.299-0.709,4.934s-0.502,3.26-0.798,4.875
		c-0.295,1.615-0.66,3.201-1.093,4.757c-0.434,1.558-1.005,3.103-1.714,4.64l-2.777,6.086c-0.236,0.591-0.375,0.984-0.414,1.182
		s-0.177,0.591-0.413,1.182l-3.9,7.623c-2.167,3.664-4.964,6.796-8.391,9.396c-3.271,2.441-5.575,3.486-6.914,3.131
		c-0.671-0.157-1.616-0.334-2.837-0.531c-1.222-0.197-2.718-0.414-4.49-0.65l-13.65-4.137c-0.276-0.117-0.493-0.236-0.65-0.354
		c-0.158-0.119-0.296-0.228-0.414-0.326c-0.118-0.098-0.256-0.206-0.413-0.324c-0.158-0.118-0.375-0.276-0.65-0.473
		c-0.827-0.553-1.625-0.966-2.394-1.241c-0.768-0.276-1.546-0.649-2.334-1.122c-2.127-1.34-3.526-2.777-4.195-4.314l-1.3-4.846
		c0-0.118,0.098-0.375,0.295-0.768c0.394-0.789,0.591-1.005,0.591-0.65c0,0.393-0.059-0.118-0.177-1.537
		c0.591,0,0.975,0.039,1.152,0.119c0.177,0.078,0.541,0.177,1.093,0.295c-0.236-0.945-0.335-1.398-0.295-1.359
		c0.078,0.119,0.354-0.117,0.827-0.709c0-0.158,0.078-0.236,0.236-0.236c0.196-0.275,0.374-0.552,0.532-0.827l5.909-0.118
		c0.551,0.118,0.916,0.197,1.093,0.236c0.178,0.039,0.187,0.039,0.029,0c-0.236-0.039-0.099,0.118,0.414,0.473
		c0.669,0.434,1.142,0.729,1.418,0.887c0.275,0.156,0.374,0.197,0.296,0.118c-0.118-0.158,0.413-0.177,1.596-0.06
		c1.772,0.157,3.427,1.951,4.963,5.378c1.537,3.427,4.767,5.142,9.691,5.142c0.866,0,1.753-0.77,2.659-2.305
		c0.866-1.498,1.457-2.66,1.773-3.486l1.772-4.905c0.078-0.276,0.167-0.62,0.266-1.034c0.098-0.414,0.227-0.896,0.384-1.447
		c0.157-0.986,0.364-1.941,0.621-2.867c0.256-0.924,0.423-1.802,0.502-2.629c-0.434,0.316-0.729,0.562-0.886,0.738
		c-0.158,0.178-0.435,0.404-0.828,0.68c-3.389,2.442-7.131,3.546-11.228,3.31c-4.098-0.237-8.057-1.104-11.877-2.601
		c-0.435-0.156-0.631-0.216-0.591-0.177c0.078,0.04,0.067,0.029-0.03-0.03c-0.099-0.059-0.266-0.127-0.502-0.207l-5.909-2.777
		c-1.536-0.747-2.699-1.516-3.486-2.304l-2.719-2.601c-1.024-0.827-1.901-1.811-2.63-2.954c-0.729-1.143-1.408-2.305-2.038-3.487
		c-0.04-0.117-0.099-0.215-0.178-0.295c-1.378-2.521-2.205-5.534-2.481-9.041c-0.236-3.072-0.197-5.396,0.118-6.973
		c0.158-0.748,0.335-1.645,0.531-2.689c0.198-1.043,0.454-2.254,0.769-3.634l0.65-2.954c0.591-1.655,1.112-3.369,1.565-5.142
		s1.094-3.486,1.921-5.142c0.275-0.551,0.591-1.122,0.945-1.713c0.354-0.592,0.788-1.201,1.3-1.832
		c3.467-4.333,5.298-6.539,5.496-6.619c0.196-0.038,2.324-1.438,6.382-4.195c1.063-0.709,2.284-1.438,3.664-2.186
		c1.378-0.748,2.718-1.32,4.018-1.714c7.17-2.206,11.956-2.127,14.36,0.237c2.441,2.325,4.411,3.663,5.909,4.019
		c0-2.049,0.078-3.467,0.236-4.255c0.078-0.433,0.167-0.975,0.266-1.625c0.098-0.65,0.207-1.389,0.325-2.216l1.182-7.209
		c0.196-0.788,0.492-1.349,0.887-1.684c0.393-0.334,0.886-0.777,1.477-1.33c0.157-0.157,0.286-0.285,0.385-0.384
		c0.098-0.098,0.177-0.177,0.236-0.236c0.059-0.059,0.147-0.127,0.266-0.207c0.118-0.079,0.296-0.216,0.532-0.414l2.777-2.187
		c0.354-0.236,0.669-0.403,0.945-0.502c0.275-0.098,0.551-0.157,0.827-0.177c0.275-0.019,0.57-0.049,0.887-0.088
		c0.314-0.039,0.688-0.118,1.122-0.236c0.473-0.118,0.709-0.216,0.709-0.295C491.519,338.594,491.912,338.554,492.702,338.554z
		 M441.054,434.639c-0.039,0-0.05,0.01-0.029,0.029c0.02,0.02,0.049,0.029,0.089,0.029l0.059,0.06L441.054,434.639z M478.46,402.67
		c-0.08-1.182-0.158-1.892-0.236-2.128c-0.08-0.354-0.06-1.083,0.059-2.187v-3.604c-0.118-1.261-0.197-2.305-0.236-3.132
		c-0.04-0.827-0.04-1.398,0-1.714c0.118-0.669-0.532-1.87-1.95-3.604c-1.971-2.246-3.054-3.801-3.25-4.668
		c-0.118-0.828-1.458-2.188-4.019-4.078c-1.418-1.063-2.64-1.596-3.663-1.596c-0.946-0.038-2.325,0.532-4.137,1.715
		c-0.789,0.512-1.547,1.033-2.275,1.565c-0.729,0.532-1.468,1.073-2.216,1.625c-1.497,1.063-2.502,2.541-3.014,4.433
		c-0.473,1.457-0.926,2.768-1.359,3.93s-0.808,2.59-1.122,4.283c-0.749,3.586-0.848,6.363-0.296,8.332
		c0.591,1.853,2.6,3.566,6.027,5.142c4.294,1.97,6.775,2.581,7.445,1.831c0.748-0.826,3.349-1.91,7.801-3.25
		c1.497-0.433,2.521-0.729,3.072-0.886s0.65-0.196,0.296-0.118c-0.315,0.079-0.228-0.039,0.266-0.354
		C476.145,403.89,477.08,403.379,478.46,402.67z M491.933,339.618c0-0.197-0.04-0.256-0.118-0.177L491.933,339.618z"/>
</g>
</svg>
