<svg version="1.1" id="Layer_1" xmlns="http://www.w3.org/2000/svg" xmlns:xlink="http://www.w3.org/1999/xlink" x="0px" y="0px"
	 width="300px" height="300px" viewBox="0 0 300 300" enable-background="new 0 0 300 300" xml:space="preserve">
<g>
	<defs>
		<path id="SVGID_1_" d="M54.74,121.404c-15.738,4.349-27.297,18.764-27.297,35.885c0,20.563,16.671,37.235,37.237,37.235
			c3.239,0,6.382-0.415,9.377-1.19c6.504,10.863,18.384,18.14,31.968,18.14c6.968,0,13.485-1.916,19.061-5.247
			c4.165,6.039,10.948,10.133,18.713,10.643c4.442,12.174,16.122,20.862,29.828,20.862c17.536,0,31.75-14.211,31.75-31.744
			c0-2.442-0.283-4.814-0.807-7.097c10.608-4.181,18.269-16.093,18.269-30.143c0-17.533-11.922-31.747-26.626-31.747
			c-14.707,0-26.628,14.213-26.628,31.747c0,1.946,0.154,3.849,0.438,5.701c-2.116,0.237-4.165,0.683-6.133,1.315
			c-3.294-3.69-7.675-6.382-12.645-7.578c2.792-6.497,4.344-13.651,4.344-21.171c0-29.642-24.029-53.673-53.672-53.673
			C81.549,93.342,63.833,104.69,54.74,121.404"/>
	</defs>
	<clipPath id="SVGID_2_">
		<use xlink:href="#SVGID_1_"  overflow="visible"/>
	</clipPath>
	<path clip-path="url(#SVGID_2_)" fill="#5D2D7B" d="M156.57,232.894c9.651,12.604,27.691,14.997,40.294,5.345
		c12.604-9.65,14.997-27.689,5.347-40.292c-9.65-12.604-27.69-14.997-40.294-5.347C149.313,202.252,146.921,220.291,156.57,232.894"
		/>
	<path clip-path="url(#SVGID_2_)" fill="#5D2D7B" d="M-2.561,174.882c0,25.268,20.487,45.755,45.757,45.755
		c25.271,0,45.757-20.487,45.757-45.755c0-25.272-20.485-45.759-45.757-45.759C17.926,129.123-2.561,149.609-2.561,174.882"/>
	<path clip-path="url(#SVGID_2_)" fill="#5D2D7B" d="M183.159,198.524c10.471,13.674,30.042,16.27,43.714,5.799
		c13.673-10.47,16.271-30.041,5.799-43.712c-10.468-13.674-30.042-16.27-43.711-5.8
		C175.285,165.281,172.689,184.852,183.159,198.524"/>
	<path clip-path="url(#SVGID_2_)" fill="#6F3B91" d="M138.039,203.646c0,15.033,12.187,27.222,27.22,27.222
		c15.034,0,27.223-12.188,27.223-27.222c0-15.035-12.188-27.222-27.223-27.222C150.226,176.424,138.039,188.61,138.039,203.646"/>
	<path clip-path="url(#SVGID_2_)" fill="#6F3B91" d="M71.35,192.65c0,23.998,19.453,43.452,43.449,43.452
		s43.451-19.454,43.451-43.452c0-23.996-19.454-43.45-43.451-43.45S71.35,168.654,71.35,192.65"/>
	<path clip-path="url(#SVGID_2_)" fill="#6F3B91" d="M-18.099,109.99c0,23.997,19.454,43.45,43.45,43.45
		c23.997,0,43.45-19.453,43.45-43.45c0-23.996-19.453-43.449-43.45-43.449C1.355,66.541-18.099,85.994-18.099,109.99"/>
	<path clip-path="url(#SVGID_2_)" fill="#5D2D7B" d="M49.569,99.412c0,9.076,7.358,16.436,16.437,16.436
		c9.076,0,16.435-7.36,16.435-16.436c0-9.078-7.358-16.438-16.435-16.438C56.927,82.974,49.569,90.333,49.569,99.412"/>
	<path clip-path="url(#SVGID_2_)" fill="#6F3B91" d="M66.006,82.974c0,9.078,7.357,16.438,16.436,16.438
		c9.076,0,16.435-7.36,16.435-16.438c0-9.075-7.358-16.435-16.435-16.435C73.363,66.539,66.006,73.898,66.006,82.974"/>
	<path clip-path="url(#SVGID_2_)" fill="#5D2D7B" d="M95.382,96.972c0,10.723,8.692,19.416,19.416,19.416
		c10.725,0,19.418-8.693,19.418-19.416c0-10.725-8.693-19.418-19.418-19.418C104.074,77.553,95.382,86.247,95.382,96.972"/>
</g>
<g>
	<path fill="#D52147" d="M254.608,87.232c0,2.129-1.726,3.854-3.854,3.854c-2.125,0-3.851-1.726-3.851-3.854
		c0-2.126,1.726-3.851,3.851-3.851C252.883,83.381,254.608,85.105,254.608,87.232"/>
	<path fill="#D02F3A" d="M272.939,133.971c0,3.476-2.816,6.292-6.292,6.292c-3.473,0-6.29-2.816-6.29-6.292
		c0-3.476,2.817-6.292,6.29-6.292C270.123,127.68,272.939,130.496,272.939,133.971"/>
	<path fill="#00A69C" d="M250.757,136.539c0,4.894-3.968,8.86-8.862,8.86c-4.894,0-8.857-3.966-8.857-8.86s3.964-8.859,8.857-8.859
		C246.789,127.68,250.757,131.646,250.757,136.539"/>
	<path fill="#D52147" d="M211.206,75.163c0,5.176-4.194,9.375-9.372,9.375c-5.176,0-9.374-4.198-9.374-9.375
		c0-5.177,4.198-9.372,9.374-9.372C207.012,65.791,211.206,69.986,211.206,75.163"/>
	<path fill="#00A69C" d="M204.916,59.111c0,1.704-1.381,3.083-3.082,3.083c-1.703,0-3.082-1.379-3.082-3.083
		c0-1.701,1.379-3.08,3.082-3.08C203.535,56.031,204.916,57.411,204.916,59.111"/>
	<path fill="#6F3B91" d="M226.423,70.412c0,1.489-1.205,2.697-2.695,2.697c-1.489,0-2.694-1.208-2.694-2.697
		c0-1.49,1.205-2.696,2.694-2.696C225.218,67.716,226.423,68.922,226.423,70.412"/>
	<path fill="#00A69C" d="M161.899,65.791c0,1.062-0.859,1.925-1.927,1.925c-1.061,0-1.925-0.864-1.925-1.925
		c0-1.063,0.864-1.928,1.925-1.928C161.04,63.863,161.899,64.728,161.899,65.791"/>
	<path fill="#ECE0DB" d="M181.43,75.504c0,4.965-4.023,8.99-8.986,8.99s-8.988-4.025-8.988-8.99c0-4.963,4.025-8.987,8.988-8.987
		S181.43,70.541,181.43,75.504"/>
	<path fill="#6F3B91" d="M235.25,110.152c0,2.075-1.681,3.757-3.757,3.757c-2.074,0-3.756-1.682-3.756-3.757
		s1.682-3.756,3.756-3.756C233.569,106.396,235.25,108.077,235.25,110.152"/>
	<path fill="#00A69C" d="M159.973,82.481c0,4.611-3.733,8.345-8.345,8.345c-4.607,0-8.348-3.734-8.348-8.345
		c0-4.608,3.74-8.345,8.348-8.345C156.239,74.136,159.973,77.873,159.973,82.481"/>
	<path fill="#ECE0DB" d="M197.653,127.262c0,7.377-5.978,13.353-13.353,13.353c-7.374,0-13.354-5.976-13.354-13.353
		c0-7.375,5.979-13.354,13.354-13.354C191.676,113.909,197.653,119.887,197.653,127.262"/>
	<path fill="#6F3B91" d="M171.661,115.995c0,2.341-1.898,4.238-4.239,4.238c-2.34,0-4.239-1.897-4.239-4.238
		c0-2.341,1.899-4.237,4.239-4.237C169.763,111.758,171.661,113.653,171.661,115.995"/>
	<path fill="#D52147" d="M146.813,94.808c0,3.865-3.132,6.999-6.996,6.999s-6.999-3.134-6.999-6.999
		c0-3.864,3.135-6.996,6.999-6.996S146.813,90.943,146.813,94.808"/>
	<path id="efta" fill="#00A69C" d="M169.348,164.533c0-3.336,2.702-6.035,6.035-6.035c3.332,0,6.035,2.699,6.035,6.035
		c0,3.329-2.703,6.031-6.035,6.031C172.05,170.564,169.348,167.862,169.348,164.533"/>
	<path id="pente" fill="#ECE0DB" d="M110.634,158.498c0-7.092,5.75-12.842,12.839-12.842c7.092,0,12.841,5.75,12.841,12.842
		c0,7.089-5.749,12.838-12.841,12.838C116.384,171.336,110.634,165.587,110.634,158.498"/>
	<path id="tria" fill="#00A69C" d="M77.815,175.498c0-9.391,7.608-17.004,17-17.004c9.39,0,17,7.613,17,17.004
		c0,9.389-7.61,16.998-17,16.998C85.423,192.496,77.815,184.887,77.815,175.498"/>
	<path id="ena" fill="#5D2D7B" d="M151.662,133.971c0,3.758-3.047,6.806-6.803,6.806c-3.759,0-6.807-3.048-6.807-6.806
		c0-3.759,3.048-6.807,6.807-6.807C148.615,127.165,151.662,130.212,151.662,133.971"/>
	<path fill="#ECE0DB" d="M137.153,159.262c0,7.377-5.978,13.354-13.353,13.354c-7.374,0-13.354-5.977-13.354-13.354
		c0-7.375,5.979-13.354,13.354-13.354C131.176,145.908,137.153,151.887,137.153,159.262"/>
</g>
<g id="na_dw">
	<circle fill="#5D2D7B" cx="135.25" cy="91.25" r="12.25">
    <animate attributeName="r" from="0" to="12.25" dur="1.5s" repeatCount="indefinite"/>
  </circle>
	<circle fill="#5D2D7B" cx="181.25" cy="97.25" r="12.25">
  <animate attributeName="r" from="0" to="12.25" dur="1.6s" repeatCount="indefinite"/>
  </circle>
	<circle fill="#D52147" cx="250.75" cy="110.75" r="11.75">
  <animate attributeName="r" from="0" to="11.75" dur="1.3s" repeatCount="indefinite"/>
  </circle>
	<circle fill="#D52147" cx="202.5" cy="102" r="15.5">
<animate attributeName="r" from="0" to="15.5" dur="1s" repeatCount="indefinite"/>
  </circle>
	<circle fill="#D52147" cx="202.25" cy="74.25" r="8.25">
<animate attributeName="r" from="0" to="8.25" dur="2s" repeatCount="indefinite"/>
  </circle>
	<circle fill="#D52147" cx="229.25" cy="82.25" r="8.25">
<animate attributeName="r" from="0" to="8.25" dur="1.61s" repeatCount="indefinite"/>
  </circle>
	<path fill="#ECE0DB" d="M198.153,126.762c0,7.377-5.978,13.354-13.353,13.354c-7.374,0-13.354-5.977-13.354-13.354
		c0-7.375,5.979-13.354,13.354-13.354C192.176,113.408,198.153,119.387,198.153,126.762"/>
	<circle fill="#5D2D7B" cx="145.5" cy="172" r="13.5">
<animate attributeName="r" from="0" to="13.5" dur="1.5s" repeatCount="indefinite"/>
  </circle>
	<circle fill="#ECE0DB" cx="184.5" cy="127" r="13.5">
<animate attributeName="r" from="0" to="13.5" dur="2s" repeatCount="indefinite"/>
  </circle>
	<circle fill="#ECE0DB" cx="210.5" cy="118" r="13.5">
<animate attributeName="r" from="0" to="13.5" dur="1.5s" repeatCount="indefinite"/>
  </circle>
	<circle fill="#ECE0DB" cx="280.53" cy="93.97" r="5.53">
<animate attributeName="r" from="0" to="5.53" dur="2s" repeatCount="indefinite"/>
  </circle>
	<path fill="#D52147" d="M152,200.72c0,10.369,8.411,18.78,18.78,18.78s18.78-8.411,18.78-18.78s-8.411-18.78-18.78-18.78
		S152,190.351,152,200.72z"/>
	<path fill="#D52147" d="M136,147.72c0,10.369,8.411,18.78,18.78,18.78s18.78-8.411,18.78-18.78s-8.411-18.78-18.78-18.78
		S136,137.351,136,147.72z"/>
	<path fill="#00A69C" d="M80,121.97c0,12.992,10.539,23.53,23.53,23.53s23.53-10.539,23.53-23.53s-10.539-23.53-23.53-23.53
		S80,108.978,80,121.97z"/>
	<circle fill="#5D2D7B" cx="181.53" cy="96.97" r="12.53">
<animate attributeName="r" from="0" to="12.53" dur="1s" repeatCount="indefinite"/>
  </circle>
	<circle fill="#D52147" cx="134.78" cy="119.72" r="12.78">
<animate attributeName="r" from="0" to="12.78" dur="1s" repeatCount="indefinite">
  </circle>
	<circle fill="#D52147" cx="214.78" cy="142.72" r="12.78">
<animate attributeName="r" from="0" to="12.78" dur="1s" repeatCount="indefinite">
  </circle>
	<circle id="ante" fill="#ECE0DB" cx="210.28" cy="118.22" r="13.28">
<animate attributeName="r" from="0" to="13.28" repeatCount="indefinite"  dur="1.5s"/>
  </circle>
</g>
</svg>
