<svg xmlns="http://www.w3.org/2000/svg" xmlns:xlink="http://www.w3.org/1999/xlink" viewBox="0 0 338.77 262.54"><defs><style>.cls-1{fill:none;}.cls-2{fill:#5d2d7a;}.cls-3{clip-path:url(#clip-path);}.cls-4{fill:#6f3b92;}.cls-5{fill:#ede0dc;}.cls-6{fill:#d62247;}.cls-7{fill:#d12f3a;}.cls-8{fill:#00a79d;}.cls-9{fill:#008d84;}</style><clipPath id="clip-path"><path id="_Clipping_Path_" data-name="&lt;Clipping Path&gt;" class="cls-1" d="M257.17,109.09c0-18.71-12.72-33.89-28.42-33.89s-28.42,15.17-28.42,33.89a40.42,40.42,0,0,0,.47,6.08,33.69,33.69,0,0,0-6.54,1.41,26.36,26.36,0,0,0-13.5-8.09,57.3,57.3,0,0,0-103-49.93,39.75,39.75,0,0,0,20.62,76.77,39.75,39.75,0,0,0,54.47,13.76,26.35,26.35,0,0,0,20,11.36,33.89,33.89,0,0,0,64.87-19.19C249,136.8,257.17,124.09,257.17,109.09Z"/></clipPath></defs><title>Asset 2</title><g id="Layer_2" data-name="Layer 2"><g id="Layer_1-2" data-name="Layer 1"><g id="_Group_" data-name="&lt;Group&gt;"><path id="_Compound_Path_" data-name="&lt;Compound Path&gt;" class="cls-2" d="M66.12,204.16a13.47,13.47,0,0,1,3.49-.28,6.63,6.63,0,0,1,2.17.55,10,10,0,0,1,1.68,1,17.69,17.69,0,0,1,1.95,1.77,4.61,4.61,0,0,1,1.38,2.37,3.24,3.24,0,0,1,0,1.64q-.2.47-.71,1.54t-1.28.14q-.77-.94-1.76-2.25a5.26,5.26,0,0,0-2.92-1.85,8.12,8.12,0,0,0-3.61-.22,13.23,13.23,0,0,0-3.9,1.52,19.49,19.49,0,0,0-5.09,4.71,52.66,52.66,0,0,0-4.16,5.58A20.53,20.53,0,0,0,51.19,226a9.37,9.37,0,0,0,.43,6.39,8.52,8.52,0,0,0,3.73,4.14q2.41,1.28,5.19-1.32A43.24,43.24,0,0,0,66,228.93q2.66-3.67,4.81-3.23t1.5,2.42a39.6,39.6,0,0,0-1.26,5.8q-.61,3.84-1.16,7T66.95,244q-2.37,0-.81-5.11t-.06-3.29a26.69,26.69,0,0,1-3.47,3.21,8.59,8.59,0,0,1-3.49,1.74,12.24,12.24,0,0,1-4.52-.24q-2.88-.57-5.66-4a10.1,10.1,0,0,1-2.31-7.69,25,25,0,0,1,1.79-7.24,36.39,36.39,0,0,1,3.83-6.53,39.64,39.64,0,0,1,5.05-5.88,19.67,19.67,0,0,1,4.56-3.37A16.32,16.32,0,0,1,66.12,204.16Z"/><path id="_Compound_Path_2" data-name="&lt;Compound Path&gt;" class="cls-2" d="M76.1,227.65q1.46-5.64,2.82-5.52a2.56,2.56,0,0,1,2,1.22,2.61,2.61,0,0,1-.14,2.7q-.83,1.6-.16,1.5a5,5,0,0,0,1.76-.81,14,14,0,0,1,2.09-1.13,8.67,8.67,0,0,1,1.6-.55,6,6,0,0,1,2.33.41,14,14,0,0,1,3.27,1.48,4.84,4.84,0,0,0,4.08.16q2.54-.79-.55.53a14.9,14.9,0,0,1-6.31,1.24,11.07,11.07,0,0,0-5,.77,13.88,13.88,0,0,0-3,1.89,9.32,9.32,0,0,0-2.25,3.41q-1,2.38-1.58,4t-1,2.66a1.79,1.79,0,0,1-1.74,1.1,1.61,1.61,0,0,1-1.75-1q-.43-1-.2-1.32a27,27,0,0,0,1.22-3.71Q74.68,233.29,76.1,227.65Z"/><path id="_Compound_Path_3" data-name="&lt;Compound Path&gt;" class="cls-2" d="M105.36,222.17a5.15,5.15,0,0,1,2-.08,3.71,3.71,0,0,1,1.79.69,5,5,0,0,1,1.28,2.07q.61,1.54-.55,2.07a1.75,1.75,0,0,1-2.09-.37,1.57,1.57,0,0,0-1.95-.36q-1,.53-2,1.08a17.77,17.77,0,0,0-2.45,1.73,22.32,22.32,0,0,0-3,3,11.08,11.08,0,0,0-1.7,2.33c-.11.34.16.29.79-.14l2.92-2a36.65,36.65,0,0,1,5-2.7q3-1.38,3.77-1.08a3,3,0,0,1,1.36,1.12,3.42,3.42,0,0,1,.65,1.4,1.22,1.22,0,0,1-.18.93,5.46,5.46,0,0,0-.61,1.56,3.79,3.79,0,0,0,.06,2.35,3.07,3.07,0,0,0,1,1.56,2.33,2.33,0,0,0,1.72.24,5.9,5.9,0,0,0,2.7-1.66q1.6-1.48-.14.69A12.18,12.18,0,0,1,113,239.4a3.26,3.26,0,0,1-1.58.57,4.88,4.88,0,0,1-1.48-.36,5.47,5.47,0,0,1-1.72-1.08,5.18,5.18,0,0,1-1.28-1.78q-.47-1.06-.63-1.56a3,3,0,0,0-.75-1.12,1.21,1.21,0,0,0-1.44-.26,17.65,17.65,0,0,0-3,1.89,36.13,36.13,0,0,1-4,2.53,15.39,15.39,0,0,1-3.31,1.38,4.73,4.73,0,0,1-1.89.26A2,2,0,0,1,91,239a3.75,3.75,0,0,1-.59-1.73,4.39,4.39,0,0,1,.26-1.89,19.57,19.57,0,0,1,2.6-3.81,34.79,34.79,0,0,1,4.34-4.69,24.57,24.57,0,0,1,4.44-3.1A21.8,21.8,0,0,1,105.36,222.17Z"/><path id="_Compound_Path_4" data-name="&lt;Compound Path&gt;" class="cls-2" d="M131,223.55a1.59,1.59,0,0,1,1.1-.35,1.68,1.68,0,0,1,1.14.49l1.22,1.2a3.66,3.66,0,0,0,2,1,14.08,14.08,0,0,0,4.38-.37q3.08-.59,0,.22t-5.17,1.3a6.31,6.31,0,0,0-3.12,1.58q-1.08,1.09-2.46,2.8t-3.17,4.38q-1.78,2.68-2.35,3.65A5.24,5.24,0,0,1,123,241a1.8,1.8,0,0,1-1.95.16,3.11,3.11,0,0,1-1.54-1.46,5.85,5.85,0,0,1-.57-2.27,13.68,13.68,0,0,0-.81-3.41,28.51,28.51,0,0,0-1.76-4.06q-1-1.95-.49-2.92a2.19,2.19,0,0,1,1.68-1.14,2,2,0,0,1,1.95.81,10.13,10.13,0,0,1,1.54,3.07A24.19,24.19,0,0,1,122,233q.2,1.07.81.67a35,35,0,0,0,3.77-4.71q3.17-4.3,3.53-4.69A5.84,5.84,0,0,1,131,223.55Z"/><path id="_Compound_Path_5" data-name="&lt;Compound Path&gt;" class="cls-2" d="M141.1,221.77a4.17,4.17,0,0,1,2,.12q1.16.32.41,2.35t-1.64,5.28q-.89,3.25-1.68,5.28a18.78,18.78,0,0,1-1.76,3.51q-1,1.48-1.87,1.6a2.26,2.26,0,0,1-1.24-.06q-.34-.18-.06-1.89t1.2-5.21q.91-3.51,1.73-6.11c.54-1.73.55-2.62,0-2.66s-.32-.39.61-1A7.4,7.4,0,0,1,141.1,221.77Zm6.49-12.29q.89.73,1.08,3.19a10.18,10.18,0,0,0,1.68,4.79,12.73,12.73,0,0,0,3.53,3.71,15.75,15.75,0,0,0,3.71,1.95q1.68.57-.1.26a9.73,9.73,0,0,1-3.55-1.42,19.38,19.38,0,0,1-3.79-3.33l-3-3.24a4.41,4.41,0,0,0-1.32-1.16l-.65-.18a5,5,0,0,1-1.22-.81,1.7,1.7,0,0,1-.69-1.85,4,4,0,0,1,.71-1.62,2.88,2.88,0,0,1,1.56-.79A2.17,2.17,0,0,1,147.6,209.47Z"/><path id="_Compound_Path_6" data-name="&lt;Compound Path&gt;" class="cls-2" d="M154.78,213.25a1.74,1.74,0,0,1,1.54-.49,2.17,2.17,0,0,1,1.54.65,4.92,4.92,0,0,1,.81,1.38,2,2,0,0,1-.12,1.7,13.47,13.47,0,0,0-.85,2.33q-.41,1.44-1.06,4t.08,2.92a12.32,12.32,0,0,0,2.52.65,31.82,31.82,0,0,0,5.7.24q3.92-.08-.43.57t-6.43,1.18q-2.09.53-2.76.75t-2.27,4.5q-1.6,4.28-2.11,5.7a4.62,4.62,0,0,1-1.08,1.91,3.71,3.71,0,0,1-1.46.73,2.35,2.35,0,0,1-1.62-.08q-.73-.32,0-2.64t2-5.48a27,27,0,0,0,1.42-3.94q.12-.77-1.06-.57a14.15,14.15,0,0,1-2.09.22c-.61,0-.91-.36-.89-1.14a2.21,2.21,0,0,1,1.48-1.89,6.24,6.24,0,0,1,2.6-.75q1.14,0,2-3.17t1.06-4.18c.11-.69.28-1.63.53-2.82A5.72,5.72,0,0,1,154.78,213.25Z"/><path id="_Compound_Path_7" data-name="&lt;Compound Path&gt;" class="cls-2" d="M175.19,225.13a1.73,1.73,0,0,1,1.83-.53,2.53,2.53,0,0,1,1.5.93,1.69,1.69,0,0,1,.3,1.34,12.2,12.2,0,0,0-.06,2.54,36.82,36.82,0,0,1-.3,5.29q-.39,3.45-.75,5.76a23,23,0,0,1-1.66,5.33,25,25,0,0,1-3.41,5.68,22.82,22.82,0,0,1-5,4.63,30.32,30.32,0,0,1-5.09,2.92,15.85,15.85,0,0,1-3.53,1.16,7.8,7.8,0,0,1-2.52,0,3.14,3.14,0,0,1-2.11-1.76q-.89-1.56.85-4.54t.59-.31q-1.16,2.68,1.34,3a7,7,0,0,0,4.24-.63,25.77,25.77,0,0,0,4.06-2.84,32,32,0,0,0,3.55-3.31,23,23,0,0,0,2.72-4.12A24.1,24.1,0,0,0,174,239.5a35.05,35.05,0,0,0,.89-5.11,12.17,12.17,0,0,0,0-1.93q-.06-.26-.75.22a9.3,9.3,0,0,0-1.44,1.3,19.74,19.74,0,0,1-1.62,1.56q-.87.75-2.7,2.11a5.93,5.93,0,0,1-3,1.4,5.61,5.61,0,0,1-2.37-.45,3.34,3.34,0,0,1-1.7-1.5,4.82,4.82,0,0,1-.55-2.33,6.39,6.39,0,0,1,.2-1.91q.2-.59,1.1-3.87t2-3.75a4,4,0,0,1,1.7-.43,1.2,1.2,0,0,1,1,.71,1.79,1.79,0,0,1-.08,1.64,28,28,0,0,0-1.14,3.29A9.65,9.65,0,0,0,165,234c.09.84.47,1.13,1.14.87a7.89,7.89,0,0,0,1.89-1.06,11.42,11.42,0,0,0,1.64-1.5q.75-.83,2.78-3.61T175.19,225.13Z"/><path id="_Compound_Path_8" data-name="&lt;Compound Path&gt;" class="cls-2" d="M183.73,211.48a2.13,2.13,0,0,1,1.1-.54,1.85,1.85,0,0,1,1.08.07,1.64,1.64,0,0,1,.72.67c.2.32.69.48,1.48.46s1.77,0,2.94,0,.93.06-.74.11a16.61,16.61,0,0,0-2.85.2q-.34.13-.28.84t.09,1.5q0,.79,0,1.76a7.06,7.06,0,0,1-.14,1.44,5.74,5.74,0,0,1-.35,1,5.33,5.33,0,0,1-.7,1.1,5.88,5.88,0,0,1-1.13,1.08,6.57,6.57,0,0,1-1.24.74,1.65,1.65,0,0,1-1.23,0,2.41,2.41,0,0,1-1.08-.71,4.61,4.61,0,0,1-.66-1,4.39,4.39,0,0,1-.21-1.82,7.93,7.93,0,0,1,.28-2.09,7.69,7.69,0,0,1,.77-1.66c.35-.58.45-.84.31-.81s-.18,0-.11-.06.34-.42.82-1A13.15,13.15,0,0,1,183.73,211.48Zm1.18,3.71q-.52-.64-1.3.35a4.36,4.36,0,0,0-.93,2.11,2.54,2.54,0,0,0,.12,1.56,1,1,0,0,0,.57.52c.2,0,.48-.08.84-.39a3.77,3.77,0,0,0,.89-2A2.52,2.52,0,0,0,184.91,215.19Z"/><path id="_Compound_Path_9" data-name="&lt;Compound Path&gt;" class="cls-2" d="M198.72,199.48a2.13,2.13,0,0,1,1.83-.38,3.63,3.63,0,0,1,1.23.78,3.75,3.75,0,0,1,.78,1.07,1.28,1.28,0,0,1-.13,1.25q-.4.69-.78.35a3.91,3.91,0,0,0-1-.61,1.1,1.1,0,0,0-1.18.12,5.69,5.69,0,0,0-1.22,1.51,31,31,0,0,0-1.61,3.1,23.48,23.48,0,0,0-1.18,2.89q-.26.9.95.88t2.74,0q1.54,0,6-.08t.85,0a31.65,31.65,0,0,0-5.68.53q-2.08.45-2.82.64t-1.54.45a2.6,2.6,0,0,0-1,.52,7.72,7.72,0,0,0-.57.73,58.71,58.71,0,0,0-2.22,6.1q-1.89,5.63-2.34,6.91a4.43,4.43,0,0,1-1.06,1.83,1.91,1.91,0,0,1-1.5.49,1.61,1.61,0,0,1-1.35-1.05q-.46-1-.31-1.25c.1-.18.21-.14.33.12a.89.89,0,0,0,.52.51.64.64,0,0,0,.69-.25,65.8,65.8,0,0,0,2.83-7.29q2.48-6.92,1-6.28t-1.36-.78c.09-.94.54-1.44,1.36-1.47a3.19,3.19,0,0,0,1.55-.3,11.26,11.26,0,0,0,1.32-2.78q1-2.53,1.64-3.8a24.44,24.44,0,0,1,1.45-2.5A7,7,0,0,1,198.72,199.48Z"/></g><g id="_Group_2" data-name="&lt;Group&gt;"><path id="_Compound_Path_10" data-name="&lt;Compound Path&gt;" class="cls-2" d="M201.85,216.76a1.74,1.74,0,0,1,1.54-.49,2.17,2.17,0,0,1,1.54.65,4.92,4.92,0,0,1,.81,1.38,2,2,0,0,1-.12,1.7,13.46,13.46,0,0,0-.85,2.33q-.41,1.44-1.06,4t.08,2.92a12.39,12.39,0,0,0,2.52.65,31.84,31.84,0,0,0,5.7.24q3.92-.08-.43.57t-6.43,1.18q-2.09.53-2.76.75t-2.27,4.5q-1.6,4.28-2.11,5.7a4.61,4.61,0,0,1-1.08,1.91,3.7,3.7,0,0,1-1.46.73,2.35,2.35,0,0,1-1.62-.08q-.73-.32,0-2.64t2-5.48a26.55,26.55,0,0,0,1.42-3.94q.12-.77-1.06-.57a14.12,14.12,0,0,1-2.09.22c-.61,0-.91-.36-.89-1.14a2.21,2.21,0,0,1,1.48-1.89,6.23,6.23,0,0,1,2.6-.75q1.14,0,2-3.17t1.06-4.18c.11-.69.28-1.63.53-2.82A5.7,5.7,0,0,1,201.85,216.76Z"/><path id="_Compound_Path_11" data-name="&lt;Compound Path&gt;" class="cls-2" d="M220.39,202.44a4,4,0,0,1,3.45.53q1.34,1-.53,3.57t-5.23,10.77q-3.37,8.22-4.38,11.67t-.16,2.51q.85-.93,1.68-1.68t1.85-1.54a8.89,8.89,0,0,1,1.85-1.16,8.26,8.26,0,0,1,1.85-.55,2.69,2.69,0,0,1,1.85.28,3.57,3.57,0,0,1,1.3,1.2,5.89,5.89,0,0,1,.57,2.64,19.44,19.44,0,0,1-.22,4,8.11,8.11,0,0,0,0,3.14,4.36,4.36,0,0,0,1,1.87q.75.81,2.57.39a5.5,5.5,0,0,0,2.84-1.5q1-1.07.47.14a6.42,6.42,0,0,1-1.63,2.17,10.68,10.68,0,0,1-2.62,1.66,6.74,6.74,0,0,1-2.52.73,3.05,3.05,0,0,1-2-.81,4.23,4.23,0,0,1-1.38-2.4,18.25,18.25,0,0,1-.16-4.85q.2-3.29-.47-3.92t-3.45,1.44a14.6,14.6,0,0,0-4.2,4.67,37.23,37.23,0,0,0-2.11,4.4q-.69,1.81-1.7,1.52a3.16,3.16,0,0,1-1.58-.93,2.71,2.71,0,0,1-.57-1.85q0-1.2,2.44-9.27t5.56-15.78q3.12-7.71,3.65-9.37A13.49,13.49,0,0,1,220.39,202.44Z"/><path id="_Compound_Path_12" data-name="&lt;Compound Path&gt;" class="cls-2" d="M236.54,227.55a3.63,3.63,0,0,1,1.89-.93,3.14,3.14,0,0,1,1.85.12,2.81,2.81,0,0,1,1.24,1.16q.51.83,2.54.79t5.05,0q3,.06-1.28.18a28.67,28.67,0,0,0-4.89.34q-.59.22-.49,1.44t.16,2.58q.06,1.36,0,3a12.33,12.33,0,0,1-.24,2.47,10.15,10.15,0,0,1-.61,1.7,9.37,9.37,0,0,1-1.2,1.89,10.34,10.34,0,0,1-1.95,1.85,11.4,11.4,0,0,1-2.13,1.28,2.83,2.83,0,0,1-2.11,0,4.09,4.09,0,0,1-1.85-1.22,8,8,0,0,1-1.14-1.72,7.54,7.54,0,0,1-.36-3.13,13.56,13.56,0,0,1,.49-3.59,13.13,13.13,0,0,1,1.32-2.84c.59-1,.77-1.45.53-1.38s-.31,0-.18-.1.59-.72,1.4-1.74A22.09,22.09,0,0,1,236.54,227.55Zm2,6.37q-.89-1.1-2.23.61a7.43,7.43,0,0,0-1.6,3.61,4.33,4.33,0,0,0,.2,2.68,1.75,1.75,0,0,0,1,.89c.34.08.82-.14,1.44-.67a6.49,6.49,0,0,0,1.52-3.43Q239.46,235,238.57,233.92Z"/><path id="_Compound_Path_13" data-name="&lt;Compound Path&gt;" class="cls-2" d="M261.94,229a2.31,2.31,0,0,1,1.48-.32,1.16,1.16,0,0,1,.87.59q.24.47-.49,3.53a45.19,45.19,0,0,0-1,5.21,4.4,4.4,0,0,0,.41,3,2.19,2.19,0,0,0,2.25.63,6.59,6.59,0,0,0,3.47-2.15q1.86-1.91.43-.18t-2.68,3.1a6.4,6.4,0,0,1-2.17,1.75,4.07,4.07,0,0,1-2.17.16,3.58,3.58,0,0,1-2-1,5.58,5.58,0,0,1-1.22-1.85,4.28,4.28,0,0,1-.08-2.64,20.06,20.06,0,0,0,.47-2.7q.1-1.14-.91.12a34.29,34.29,0,0,1-2.5,2.74,22,22,0,0,1-3.14,2.62,12.09,12.09,0,0,1-2.62,1.46,11,11,0,0,1-1.91.47,2.58,2.58,0,0,1-1.77-.35,2.16,2.16,0,0,1-1-1.52,7,7,0,0,1,.41-3.08q.61-2,2-5.58t-.83-3.77a7.78,7.78,0,0,1-3.41-1q-1.14-.75,1.38.2t3.49-.18a3.82,3.82,0,0,1,1.81-1.34,2.61,2.61,0,0,1,1.58.08,1.51,1.51,0,0,1,1,1,2.81,2.81,0,0,1-.08,1.68q-.3,1-2.07,5.11t-.1,3.65q1.66-.49,6-4.79A41.63,41.63,0,0,1,261.94,229Z"/><path id="_Compound_Path_14" data-name="&lt;Compound Path&gt;" class="cls-2" d="M283.24,226.26q3,.2,2.37,1.5a21.19,21.19,0,0,0-1.28,4.55q-.65,3.25-1.22,5.5a32.77,32.77,0,0,1-1.62,4.75q-1.06,2.5-1.64,3.85t-1.46,3.07q-.87,1.7-2.88,4.83a24.52,24.52,0,0,1-4.63,5.38,12.4,12.4,0,0,1-4.26,2.7,6.11,6.11,0,0,1-3.69-.28,3.27,3.27,0,0,1-2.21-3.17q-.16-2.43,5.72-8t.71-.41q-5.18,5.11-5.25,7t.87,2.19a2.9,2.9,0,0,0,1.91-.08,10.65,10.65,0,0,0,2.6-1.73,31.28,31.28,0,0,0,2.76-2.54,26.39,26.39,0,0,0,2.7-3.61,41.46,41.46,0,0,0,2.86-5.19q1.28-2.76,1.75-3.84t1.68-4.48q1.22-3.41-.36-1.75a35.71,35.71,0,0,1-4.16,3.63,15.32,15.32,0,0,1-4.24,2.5,4.76,4.76,0,0,1-2.54.28,3.22,3.22,0,0,1-1.54-1q-.67-.75-.24-3a18.53,18.53,0,0,1,2.13-5.27,14.2,14.2,0,0,1,4-4.71,18.71,18.71,0,0,1,4.06-2.33,7.52,7.52,0,0,1,2.8-.65,6.52,6.52,0,0,1,2.29.59A1.6,1.6,0,0,0,283.24,226.26Zm-4.34,4.3c-.46-.46-1.15-.41-2.07.14a17.38,17.38,0,0,0-3.08,2.52,18.13,18.13,0,0,0-2.84,3.59q-1.14,1.91,1.1.57a26.72,26.72,0,0,0,4-2.92,27.18,27.18,0,0,0,2.64-2.6C279.23,231.18,279.31,230.75,278.9,230.56Z"/><path id="_Compound_Path_15" data-name="&lt;Compound Path&gt;" class="cls-2" d="M300.28,202.44a4,4,0,0,1,3.45.53q1.34,1-.53,3.57T298,217.31q-3.37,8.22-4.38,11.67t-.16,2.51q.85-.93,1.68-1.68t1.85-1.54a8.89,8.89,0,0,1,1.85-1.16,8.26,8.26,0,0,1,1.85-.55,2.69,2.69,0,0,1,1.85.28,3.57,3.57,0,0,1,1.3,1.2,5.89,5.89,0,0,1,.57,2.64,19.44,19.44,0,0,1-.22,4,8.11,8.11,0,0,0,0,3.14,4.36,4.36,0,0,0,1,1.87q.75.81,2.57.39a5.5,5.5,0,0,0,2.84-1.5q1-1.07.47.14a6.42,6.42,0,0,1-1.63,2.17,10.68,10.68,0,0,1-2.62,1.66,6.74,6.74,0,0,1-2.52.73,3.05,3.05,0,0,1-2-.81,4.23,4.23,0,0,1-1.38-2.4,18.25,18.25,0,0,1-.16-4.85q.2-3.29-.47-3.92t-3.45,1.44a14.6,14.6,0,0,0-4.2,4.67,37.23,37.23,0,0,0-2.11,4.4q-.69,1.81-1.7,1.52a3.16,3.16,0,0,1-1.58-.93,2.71,2.71,0,0,1-.57-1.85q0-1.2,2.44-9.27t5.56-15.78q3.12-7.71,3.65-9.37A13.49,13.49,0,0,1,300.28,202.44Z"/><path id="_Compound_Path_16" data-name="&lt;Compound Path&gt;" class="cls-2" d="M319.6,216.76a1.74,1.74,0,0,1,1.54-.49,2.17,2.17,0,0,1,1.54.65,4.92,4.92,0,0,1,.81,1.38,2,2,0,0,1-.12,1.7,13.46,13.46,0,0,0-.85,2.33q-.41,1.44-1.06,4t.08,2.92a12.39,12.39,0,0,0,2.52.65,31.84,31.84,0,0,0,5.7.24q3.92-.08-.43.57t-6.43,1.18q-2.09.53-2.76.75t-2.27,4.5q-1.6,4.28-2.11,5.7a4.61,4.61,0,0,1-1.08,1.91,3.7,3.7,0,0,1-1.46.73,2.35,2.35,0,0,1-1.62-.08q-.73-.32,0-2.64t2-5.48a26.55,26.55,0,0,0,1.42-3.94q.12-.77-1.06-.57a14.12,14.12,0,0,1-2.09.22c-.61,0-.91-.36-.89-1.14a2.21,2.21,0,0,1,1.48-1.89,6.23,6.23,0,0,1,2.6-.75q1.14,0,2-3.17t1.06-4.18c.11-.69.28-1.63.53-2.82A5.7,5.7,0,0,1,319.6,216.76Z"/><path id="_Compound_Path_17" data-name="&lt;Compound Path&gt;" class="cls-2" d="M333.44,226a10.78,10.78,0,0,1,3.24-1.06q1.62-.24,2,.61a1.56,1.56,0,0,1-.33,1.66,2.54,2.54,0,0,1-1.83.91,4.08,4.08,0,0,0-2.5,1.66,6.48,6.48,0,0,0-1.54,3.69,7.52,7.52,0,0,0,.1,2.94,19,19,0,0,1,.67,3.17,6.56,6.56,0,0,1-.49,4,7.3,7.3,0,0,1-1.83,2.45,6.33,6.33,0,0,1-2.42,1.13,10.26,10.26,0,0,1-2.45.37,5.64,5.64,0,0,1-2.17-.49,2.44,2.44,0,0,1-1.42-2q-.26-1.52,4.26-5.64t.71-.24q-3.81,3.87-3,4.81a1.65,1.65,0,0,0,2,.49,4.6,4.6,0,0,0,1.83-1.2,4.8,4.8,0,0,0,1-1.83,6,6,0,0,0,.28-2,38.4,38.4,0,0,0-.63-4.06,9.38,9.38,0,0,1,0-4.73,7.57,7.57,0,0,1,1.75-2.74A10.58,10.58,0,0,1,333.44,226Z"/></g><g id="_Group_3" data-name="&lt;Group&gt;"><g id="_Clip_Group_" data-name="&lt;Clip Group&gt;"><g class="cls-3"><circle id="_Path_" data-name="&lt;Path&gt;" class="cls-2" cx="210.79" cy="158.91" r="30.68" transform="translate(-53.18 160.9) rotate(-37.44)"/><circle id="_Path_2" data-name="&lt;Path&gt;" class="cls-2" cx="65.42" cy="115.64" r="48.84"/><circle id="_Path_3" data-name="&lt;Path&gt;" class="cls-2" cx="241.24" cy="120.64" r="33.28" transform="translate(-23.64 171.52) rotate(-37.44)"/><circle id="_Path_4" data-name="&lt;Path&gt;" class="cls-4" cx="195.71" cy="146.34" r="29.06"/><circle id="_Path_5" data-name="&lt;Path&gt;" class="cls-4" cx="141.85" cy="134.61" r="46.38"/><circle id="_Path_6" data-name="&lt;Path&gt;" class="cls-4" cx="46.38" cy="46.38" r="46.38"/><circle id="_Path_7" data-name="&lt;Path&gt;" class="cls-2" cx="89.77" cy="35.09" r="17.54"/><circle id="_Path_8" data-name="&lt;Path&gt;" class="cls-4" cx="107.31" cy="17.54" r="17.54"/><circle id="_Path_9" data-name="&lt;Path&gt;" class="cls-2" cx="141.85" cy="32.48" r="20.73"/></g></g><circle id="_Path_10" data-name="&lt;Path&gt;" class="cls-5" cx="308.59" cy="44.38" r="3.84"/><circle id="_Path_11" data-name="&lt;Path&gt;" class="cls-6" cx="276.24" cy="36.29" r="4.11"/><circle id="_Path_12" data-name="&lt;Path&gt;" class="cls-6" cx="252.69" cy="31.22" r="8.91"/><circle id="_Path_13" data-name="&lt;Path&gt;" class="cls-6" cx="275.2" cy="60.76" r="11.29"/><circle id="_Path_14" data-name="&lt;Path&gt;" class="cls-7" cx="293.21" cy="86.18" r="6.72"/><circle id="_Path_15" data-name="&lt;Path&gt;" class="cls-8" cx="266.79" cy="88.92" r="9.46"/><circle id="_Path_16" data-name="&lt;Path&gt;" class="cls-6" cx="224.03" cy="23.41" r="10"/><circle id="_Path_17" data-name="&lt;Path&gt;" class="cls-8" cx="224.03" cy="6.28" r="3.29"/><circle id="_Path_18" data-name="&lt;Path&gt;" class="cls-4" cx="247.39" cy="18.34" r="2.88"/><circle id="_Path_19" data-name="&lt;Path&gt;" class="cls-8" cx="179.35" cy="13.4" r="2.06"/><circle id="_Path_20" data-name="&lt;Path&gt;" class="cls-5" cx="192.66" cy="23.77" r="9.59"/><circle id="_Path_21" data-name="&lt;Path&gt;" class="cls-6" cx="224.03" cy="53.42" r="17.13"/><circle id="_Path_22" data-name="&lt;Path&gt;" class="cls-4" cx="201.55" cy="46.98" r="12.47"/><circle id="_Path_23" data-name="&lt;Path&gt;" class="cls-5" cx="234.03" cy="70.56" r="13.36" transform="translate(136.48 294.68) rotate(-83.26)"/><circle id="_Path_24" data-name="&lt;Path&gt;" class="cls-4" cx="255.68" cy="60.76" r="4.01"/><circle id="_Path_25" data-name="&lt;Path&gt;" class="cls-8" cx="170.44" cy="31.22" r="8.91"/><circle id="_Path_26" data-name="&lt;Path&gt;" class="cls-2" cx="152.89" cy="40.54" r="12.5"/><circle id="_Path_27" data-name="&lt;Path&gt;" class="cls-6" cx="152.89" cy="70.08" r="13.84"/><circle id="_Path_28" data-name="&lt;Path&gt;" class="cls-5" cx="205.31" cy="79.02" r="14.25"/><circle id="_Path_29" data-name="&lt;Path&gt;" class="cls-4" cx="187.3" cy="66.99" r="4.52"/><circle id="_Path_30" data-name="&lt;Path&gt;" class="cls-6" cx="157.83" cy="44.38" r="7.47"/><circle id="_Path_31" data-name="&lt;Path&gt;" class="cls-8" cx="237.66" cy="98.65" r="16.99"/><circle id="_Path_32" data-name="&lt;Path&gt;" class="cls-8" cx="195.79" cy="118.8" r="6.44"/><circle id="_Path_33" data-name="&lt;Path&gt;" class="cls-6" cx="173.4" cy="101.78" r="19.76"/><circle id="_Path_34" data-name="&lt;Path&gt;" class="cls-5" cx="140.39" cy="112.36" r="13.71"/><circle id="_Path_35" data-name="&lt;Path&gt;" class="cls-6" cx="191.06" cy="157.78" r="20.42"/><circle id="_Path_36" data-name="&lt;Path&gt;" class="cls-8" cx="109.8" cy="130.5" r="18.15"/><circle id="_Path_37" data-name="&lt;Path&gt;" class="cls-9" cx="118.33" cy="72.05" r="24.26"/><circle id="_Path_38" data-name="&lt;Path&gt;" class="cls-2" cx="163.21" cy="86.18" r="7.26"/></g></g></g></svg>