<?xml version="1.0" encoding="iso-8859-1"?>
<!-- Generator: Adobe Illustrator 19.2.1, SVG Export Plug-In . SVG Version: 6.00 Build 0)  -->
<svg version="1.1" id="Layer_1" xmlns="http://www.w3.org/2000/svg" xmlns:xlink="http://www.w3.org/1999/xlink" x="0px" y="0px"
	 viewBox="0 0 80 30" style="enable-background:new 0 0 80 30;" xml:space="preserve">
<g id="XMLID_5_">
	<path id="XMLID_94_" style="fill:#008F9C;" d="M8.818,0.174c0.274-0.213,0.589-0.231,0.945-0.053
		c0.356,0.178,0.617,0.445,0.781,0.801c0.164,0.356,0.205,0.667,0.123,0.934c-0.082,0.266-0.178,0.614-0.288,1.04
		c-0.11,0.427-0.178,0.801-0.205,1.121c-0.028,0.32,0,0.533,0.082,0.64s0.74,0.551,1.972,1.334c1.233,0.783,2.068,1.494,2.507,2.134
		c0.438,0.64,0.74,1.138,0.904,1.494c0.164,0.356,0.301,0.783,0.411,1.281c0.109,0.498,0.178,0.978,0.205,1.441
		c0.027,0.463,0,1.05-0.082,1.761c-0.082,0.711-0.521,1.601-1.315,2.668c-0.795,1.067-1.479,1.832-2.055,2.294
		c-0.575,0.463-1.192,0.854-1.849,1.174c-0.658,0.32-1.52,0.676-2.589,1.067c-1.069,0.391-1.822,0.605-2.26,0.64
		c-0.439,0.036-0.904,0.071-1.397,0.107c-0.493,0.036-0.809,0.267-0.945,0.694c-0.137,0.427-0.357,1.032-0.657,1.814
		c-0.302,0.783-0.569,1.699-0.801,2.748c-0.233,1.05-0.469,1.761-0.709,2.134c-0.24,0.374-0.534,0.547-0.884,0.52
		c-0.349-0.027-0.579-0.16-0.688-0.4c-0.11-0.24,0.164-1.738,0.822-4.495c0.657-2.756,1.37-5.309,2.137-7.656
		c0.767-2.348,1.192-3.77,1.274-4.268c0.082-0.497,0.164-0.801,0.247-0.907s0.236-0.84,0.462-2.201
		c0.226-1.36,0.103-2.036-0.37-2.028C4.122,8.014,4.16,7.574,4.708,6.684c0.548-0.889,1.054-1.618,1.52-2.187
		c0.465-0.569,0.794-1.049,0.986-1.441c0.191-0.391,0.356-0.72,0.493-0.987C7.844,1.802,7.995,1.473,8.16,1.082
		C8.325,0.691,8.543,0.388,8.818,0.174z M9.681,8.658C9.379,8.587,9.023,8.783,8.612,9.245c-0.411,0.463-0.85,1.37-1.315,2.721
		c-0.466,1.352-0.918,2.641-1.356,3.869c-0.439,1.227-0.754,2.107-0.945,2.641c-0.192,0.533,0.191,0.711,1.151,0.533
		c0.958-0.177,2.147-0.582,3.565-1.214c1.418-0.631,2.431-1.423,3.041-2.374c0.609-0.951,0.928-1.623,0.955-2.014
		c0.027-0.391,0.013-0.783-0.041-1.174c-0.055-0.391-0.247-0.871-0.575-1.441c-0.329-0.569-0.904-1.049-1.726-1.441
		C10.544,8.961,9.982,8.729,9.681,8.658z"/>
	<path id="XMLID_97_" style="fill:#008F9C;" d="M22.111,15.621c0.315-0.107,0.661-0.125,1.038-0.054
		c0.377,0.072,0.678,0.223,0.904,0.454c0.226,0.231,0.442,0.685,0.647,1.36c0.205,0.676,0.113,1.13-0.277,1.361
		c-0.39,0.231-0.743,0.151-1.058-0.24c-0.315-0.391-0.644-0.471-0.986-0.24c-0.343,0.231-0.682,0.467-1.017,0.707
		c-0.336,0.24-0.75,0.618-1.243,1.134c-0.493,0.516-1,1.174-1.52,1.974c-0.521,0.801-0.809,1.312-0.863,1.534
		c-0.055,0.223,0.079,0.191,0.401-0.093c0.322-0.285,0.815-0.716,1.479-1.294c0.664-0.578,1.5-1.17,2.507-1.774
		c1.007-0.604,1.644-0.84,1.911-0.707c0.267,0.134,0.496,0.378,0.688,0.734c0.191,0.356,0.301,0.663,0.329,0.92
		c0.027,0.258-0.004,0.463-0.093,0.614c-0.089,0.151-0.192,0.493-0.308,1.027c-0.117,0.533-0.107,1.05,0.031,1.548
		c0.137,0.498,0.311,0.84,0.524,1.027c0.212,0.187,0.503,0.24,0.873,0.16c0.37-0.08,0.825-0.444,1.367-1.094
		c0.541-0.649,0.517-0.498-0.072,0.453c-0.589,0.952-1.055,1.557-1.397,1.814c-0.343,0.258-0.61,0.382-0.801,0.374
		c-0.192-0.008-0.442-0.089-0.75-0.24c-0.308-0.151-0.599-0.387-0.873-0.707c-0.274-0.32-0.49-0.711-0.647-1.174
		c-0.158-0.463-0.264-0.805-0.318-1.027c-0.055-0.222-0.182-0.467-0.38-0.734c-0.199-0.267-0.442-0.325-0.729-0.174
		c-0.288,0.151-0.791,0.565-1.51,1.24c-0.719,0.676-1.391,1.232-2.014,1.667c-0.624,0.436-1.182,0.738-1.675,0.907
		c-0.493,0.169-0.812,0.227-0.955,0.174c-0.144-0.054-0.302-0.254-0.473-0.6c-0.171-0.347-0.27-0.724-0.298-1.134
		c-0.027-0.409,0.017-0.822,0.134-1.24c0.117-0.418,0.555-1.254,1.315-2.508c0.76-1.254,1.493-2.281,2.199-3.081
		c0.705-0.801,1.455-1.48,2.25-2.041C21.241,16.088,21.796,15.746,22.111,15.621z"/>
	<path id="XMLID_99_" style="fill:#008F9C;" d="M28.543,19.223c0.493-2.472,0.969-3.682,1.428-3.628
		c0.459,0.053,0.805,0.32,1.038,0.801c0.233,0.48,0.209,1.072-0.072,1.774c-0.281,0.703-0.308,1.032-0.082,0.987
		c0.226-0.044,0.524-0.222,0.894-0.533c0.37-0.311,0.722-0.56,1.058-0.747c0.335-0.187,0.606-0.307,0.812-0.36
		c0.206-0.053,0.599,0.036,1.181,0.267c0.582,0.231,1.134,0.556,1.654,0.974c0.521,0.418,1.209,0.453,2.065,0.107
		c0.856-0.347,0.763-0.231-0.277,0.346c-1.041,0.578-2.106,0.85-3.195,0.814c-1.089-0.036-1.931,0.133-2.527,0.507
		c-0.596,0.373-1.099,0.787-1.51,1.24c-0.411,0.454-0.791,1.201-1.141,2.241c-0.349,1.041-0.617,1.917-0.801,2.628
		c-0.185,0.711-0.349,1.294-0.493,1.747c-0.144,0.454-0.439,0.694-0.884,0.72c-0.445,0.026-0.74-0.182-0.883-0.627
		c-0.144-0.444-0.178-0.734-0.103-0.867c0.075-0.134,0.281-0.947,0.617-2.441C27.656,23.678,28.063,21.695,28.543,19.223z"/>
	<path id="XMLID_101_" style="fill:#008F9C;" d="M40.789,9.752c0.164-0.249,0.424-0.356,0.781-0.32
		c0.356,0.036,0.617,0.178,0.781,0.427c0.164,0.249,0.301,0.551,0.411,0.907c0.109,0.356,0.089,0.73-0.062,1.121
		c-0.151,0.391-0.295,0.903-0.431,1.534c-0.137,0.632-0.315,1.516-0.534,2.655c-0.219,1.138-0.205,1.779,0.041,1.921
		c0.247,0.143,0.671,0.285,1.274,0.427c0.603,0.143,1.565,0.196,2.887,0.16c1.322-0.036,1.25,0.089-0.216,0.374
		c-1.466,0.285-2.552,0.543-3.257,0.773c-0.706,0.231-1.171,0.396-1.397,0.494c-0.226,0.098-0.61,1.085-1.151,2.961
		c-0.541,1.877-0.897,3.126-1.069,3.748c-0.171,0.622-0.353,1.04-0.545,1.254c-0.192,0.214-0.438,0.374-0.74,0.48
		c-0.301,0.107-0.575,0.089-0.822-0.053c-0.247-0.142-0.243-0.72,0.01-1.734c0.253-1.013,0.599-2.214,1.038-3.601
		c0.438-1.387,0.678-2.25,0.719-2.588c0.041-0.338-0.137-0.462-0.534-0.373c-0.397,0.089-0.75,0.138-1.058,0.147
		c-0.308,0.009-0.459-0.24-0.452-0.747c0.007-0.507,0.257-0.92,0.75-1.24c0.493-0.32,0.931-0.484,1.315-0.494
		c0.383-0.008,0.726-0.702,1.027-2.081c0.301-1.378,0.479-2.294,0.534-2.748c0.055-0.454,0.144-1.071,0.267-1.854
		C40.48,10.517,40.624,10.001,40.789,9.752z"/>
	<path id="XMLID_103_" style="fill:#008F9C;" d="M46.316,16.021c0.288-0.177,0.654-0.142,1.099,0.107
		c0.445,0.249,0.541,0.711,0.288,1.387c-0.253,0.676-0.668,1.792-1.243,3.348c-0.575,1.557-0.634,1.983-0.175,1.281
		c0.459-0.702,1.014-1.418,1.664-2.147s1.12-1.201,1.408-1.414s0.599-0.374,0.935-0.48c0.336-0.107,0.716-0.08,1.141,0.08
		c0.424,0.16,0.787,0.609,1.089,1.347c0.301,0.738,0.462,1.957,0.483,3.655c0.021,1.699,0.343,2.53,0.966,2.494
		c0.623-0.036,1.229-0.333,1.818-0.894c0.589-0.561,1.027-1.129,1.315-1.707c0.288-0.578,0.411-0.734,0.37-0.467
		c-0.041,0.267-0.199,0.658-0.473,1.174c-0.274,0.516-0.856,1.317-1.746,2.402c-0.891,1.085-1.661,1.636-2.312,1.654
		c-0.651,0.018-1.123-0.32-1.418-1.013c-0.295-0.694-0.486-1.801-0.575-3.321c-0.089-1.521-0.243-2.294-0.462-2.321
		c-0.219-0.026-0.699,0.258-1.438,0.854c-0.74,0.596-1.418,1.374-2.034,2.335c-0.616,0.96-1.12,1.774-1.51,2.441
		c-0.391,0.667-0.743,1.071-1.058,1.214c-0.315,0.143-0.572,0.036-0.771-0.32c-0.199-0.356-0.267-0.791-0.205-1.307
		c0.062-0.516,0.181-1.307,0.36-2.374c0.178-1.067,0.431-2.192,0.76-3.375c0.329-1.183,0.253-1.569-0.226-1.16
		c-0.48,0.41-1.065,1.027-1.757,1.854c-0.691,0.827-0.445,0.436,0.74-1.174c1.185-1.61,1.842-2.548,1.972-2.814
		c0.13-0.267,0.257-0.511,0.38-0.734C45.823,16.399,46.028,16.199,46.316,16.021z"/>
	<path id="XMLID_105_" style="fill:#008F9C;" d="M59.939,15.461c0.917-0.089,1.476,0.111,1.674,0.6
		c0.199,0.489,0.291,1.112,0.277,1.867c-0.014,0.756-0.288,1.396-0.822,1.921c-0.534,0.525-1.24,1.045-2.116,1.561
		c-0.247,0.125-0.469,0.191-0.668,0.2c-0.199,0.009-0.363,0-0.493-0.026c-0.13-0.027-0.233-0.053-0.308-0.08
		c-0.075-0.026-0.12-0.013-0.133,0.04c-0.247,0.516-0.373,1.032-0.38,1.548c-0.007,0.516,0.123,0.992,0.39,1.427
		c0.267,0.436,0.565,0.689,0.894,0.76c0.329,0.072,0.671,0.058,1.027-0.04c0.356-0.098,1.013-0.404,1.972-0.92
		c0.958-0.515,1.626-1,2.003-1.454c0.377-0.454,0.736-0.894,1.079-1.321c0.342-0.427,0.39-0.427,0.144,0
		c-0.247,0.427-0.552,0.943-0.915,1.548s-0.815,1.205-1.356,1.801c-0.541,0.596-0.983,1.054-1.325,1.374
		c-0.343,0.32-0.798,0.61-1.367,0.867c-0.569,0.258-1.127,0.338-1.674,0.24c-0.548-0.098-0.959-0.262-1.233-0.494
		c-0.274-0.231-0.527-0.507-0.76-0.827c-0.233-0.32-0.425-0.698-0.575-1.134c-0.15-0.435-0.229-1.031-0.236-1.787
		c-0.007-0.756,0.13-1.578,0.411-2.468c0.281-0.889,0.599-1.627,0.955-2.215c0.356-0.586,0.839-1.178,1.448-1.774
		C58.462,16.079,59.158,15.674,59.939,15.461z M59.959,17.862c-0.096-0.125-0.332-0.062-0.709,0.187
		c-0.377,0.249-0.651,0.529-0.822,0.84c-0.171,0.312-0.202,0.538-0.092,0.681c0.109,0.142,0.342,0.085,0.699-0.174
		c0.356-0.258,0.64-0.516,0.853-0.774C60.099,18.365,60.123,18.111,59.959,17.862z"/>
	<path id="XMLID_108_" style="fill:#008F9C;" d="M65.137,19.223c0.493-2.472,0.969-3.682,1.428-3.628
		c0.459,0.053,0.805,0.32,1.037,0.801c0.233,0.48,0.209,1.072-0.072,1.774c-0.281,0.703-0.308,1.032-0.082,0.987
		c0.226-0.044,0.524-0.222,0.894-0.533c0.37-0.311,0.722-0.56,1.059-0.747c0.335-0.187,0.606-0.307,0.812-0.36
		c0.206-0.053,0.599,0.036,1.181,0.267c0.582,0.231,1.133,0.556,1.654,0.974c0.52,0.418,1.209,0.453,2.065,0.107
		c0.856-0.347,0.763-0.231-0.278,0.346c-1.041,0.578-2.106,0.85-3.195,0.814c-1.089-0.036-1.931,0.133-2.527,0.507
		c-0.596,0.373-1.099,0.787-1.511,1.24c-0.411,0.454-0.791,1.201-1.14,2.241c-0.349,1.041-0.617,1.917-0.801,2.628
		c-0.185,0.711-0.349,1.294-0.493,1.747c-0.144,0.454-0.439,0.694-0.884,0.72c-0.445,0.026-0.74-0.182-0.883-0.627
		c-0.144-0.444-0.178-0.734-0.103-0.867c0.075-0.134,0.281-0.947,0.617-2.441S64.657,21.695,65.137,19.223z"/>
	<path id="XMLID_110_" style="fill:#008F9C;" d="M77.301,15.808c0.548-0.356,1.096-0.587,1.644-0.694
		c0.548-0.107,0.88,0.026,0.997,0.4c0.116,0.373,0.061,0.738-0.164,1.094c-0.226,0.356-0.534,0.556-0.925,0.6
		c-0.39,0.045-0.812,0.409-1.264,1.094c-0.452,0.685-0.712,1.494-0.781,2.428c-0.069,0.934-0.051,1.578,0.051,1.934
		c0.103,0.356,0.216,1.049,0.339,2.081c0.123,1.032,0.041,1.917-0.247,2.655c-0.288,0.738-0.596,1.276-0.925,1.614
		c-0.329,0.338-0.736,0.587-1.223,0.747C74.317,29.92,73.903,30,73.561,30c-0.342,0-0.709-0.107-1.099-0.32
		c-0.391-0.213-0.63-0.654-0.719-1.321c-0.089-0.667,0.63-1.903,2.158-3.708c1.527-1.805,1.647-1.858,0.359-0.16
		c-1.288,1.699-1.791,2.752-1.51,3.162c0.281,0.41,0.617,0.516,1.006,0.32c0.391-0.195,0.699-0.458,0.925-0.787
		c0.226-0.329,0.394-0.729,0.503-1.201c0.109-0.471,0.157-0.907,0.144-1.307c-0.014-0.4-0.12-1.289-0.318-2.668
		c-0.199-1.378-0.199-2.415,0-3.108c0.199-0.694,0.493-1.294,0.883-1.801C76.284,16.595,76.753,16.164,77.301,15.808z"/>
</g>
</svg>
