<?xml version="1.0" encoding="utf-8"?>
<!-- Generator: Adobe Illustrator 16.0.0, SVG Export Plug-In . SVG Version: 6.00 Build 0)  -->
<!DOCTYPE svg PUBLIC "-//W3C//DTD SVG 1.1//EN" "http://www.w3.org/Graphics/SVG/1.1/DTD/svg11.dtd">
<svg version="1.1" id="Layer_1" xmlns="http://www.w3.org/2000/svg" xmlns:xlink="http://www.w3.org/1999/xlink" x="0px" y="0px"
	 width="273.649px" height="331.081px" viewBox="0 0 273.649 331.081" enable-background="new 0 0 273.649 331.081"
	 xml:space="preserve">
<rect x="-3.378" y="65.54" fill="none" width="243.92" height="300.676"/>
<text transform="matrix(1 0 0 1 64.4077 95.9609)"><tspan x="0" y="0" font-family="'ADAM.CGPRO'" font-size="41">Gravity</tspan><tspan x="119.473" y="49.2" font-family="'ADAM.CGPRO'" font-size="41">Of </tspan><tspan x="-41.657" y="98.4" font-family="'ADAM.CGPRO'" font-size="41">Thoughts</tspan></text>
<g id="Balls">
	<path id="_x33_9" fill="#00A69C" d="M217.91,208.511c-9.208,0-16.67-7.462-16.67-16.668c0-9.208,7.462-16.671,16.67-16.671
		c9.206,0,16.668,7.463,16.668,16.671C234.578,201.049,227.116,208.511,217.91,208.511"/>
	<path id="_x33_8" fill="#00A69C" d="M165.229,151.194c10.115,0,18.314,8.2,18.314,18.315c0,10.114-8.199,18.315-18.314,18.315
		c-10.116,0-18.316-8.201-18.316-18.315C146.913,159.394,155.113,151.194,165.229,151.194"/>
	<path id="_x33_7" fill="#6F3B91" d="M99.768,197.281c-10.801,0-19.555-8.754-19.555-19.555c0-10.798,8.754-19.554,19.555-19.554
		c10.799,0,19.554,8.755,19.554,19.554C119.321,188.527,110.566,197.281,99.768,197.281"/>
	<path id="_x33_6" fill="#D52147" d="M194.754,146.1c10.205,0,18.478,8.272,18.478,18.477c0,10.205-8.272,18.478-18.478,18.478
		s-18.478-8.272-18.478-18.478C176.277,154.372,184.549,146.1,194.754,146.1"/>
	<path id="_x33_5" fill="#6F3B91" d="M38.281,197.957c-11.921,0-21.582-9.51-21.582-21.245c0-11.731,9.661-21.243,21.582-21.243
		c11.918,0,21.581,9.512,21.581,21.243C59.861,188.447,50.199,197.957,38.281,197.957"/>
	<path id="_x33_4" fill="#D52147" d="M147.885,99.437c-8.662,0-15.686-7.021-15.686-15.686c0-8.662,7.023-15.687,15.686-15.687
		c8.664,0,15.686,7.025,15.686,15.687C163.571,92.415,156.549,99.437,147.885,99.437"/>
	<path id="_x33_3" fill="#ECE0DB" d="M227.045,99.284c-11.293,0-20.448-9.155-20.448-20.448c0-11.293,9.155-20.447,20.448-20.447
		c11.289,0,20.445,9.154,20.445,20.447C247.491,90.129,238.334,99.284,227.045,99.284"/>
	<path id="_x33_2" fill="#ECE0DB" d="M160.153,108.068c-8.307,0-15.042-6.734-15.042-15.042c0-8.308,6.735-15.042,15.042-15.042
		c8.305,0,15.041,6.734,15.041,15.042C175.194,101.333,168.458,108.068,160.153,108.068"/>
	<path id="_x33_1" fill="#D52147" d="M85.27,245.01c-17.683,0-32.017-14.334-32.017-32.019c0-17.681,14.334-32.014,32.017-32.014
		s32.018,14.333,32.018,32.014C117.288,230.676,102.953,245.01,85.27,245.01"/>
	<path id="_x33_0" fill="#ECE0DB" d="M153.971,196.464c-2.119,0-3.837-1.719-3.837-3.837c0-2.12,1.718-3.839,3.837-3.839
		s3.837,1.719,3.837,3.839C157.808,194.746,156.09,196.464,153.971,196.464"/>
	<path id="_x32_9" fill="#D52147" d="M109.228,113.417c-3.561,0-6.448-2.885-6.448-6.447c0-3.559,2.888-6.443,6.448-6.443
		s6.446,2.885,6.446,6.443C115.674,110.532,112.789,113.417,109.228,113.417"/>
	<path id="_x32_8" fill="#D52147" d="M224.95,143.477c-9.021,0-16.332-7.311-16.332-16.332c0-9.019,7.311-16.333,16.332-16.333
		c9.02,0,16.33,7.314,16.33,16.333C241.28,136.166,233.969,143.477,224.95,143.477"/>
	<path id="_x32_7" fill="#D52147" d="M127.629,282.499c-9.777,0-17.704-7.926-17.704-17.705s7.927-17.703,17.704-17.703
		c9.776,0,17.704,7.924,17.704,17.703S137.405,282.499,127.629,282.499"/>
	<path id="_x32_6" fill="#D02F3A" d="M66.487,187.34c-6.375,0-11.545-5.169-11.545-11.543s5.17-11.541,11.545-11.541
		c6.375,0,11.543,5.167,11.543,11.541S72.861,187.34,66.487,187.34"/>
	<path id="_x32_5" fill="#00A69C" d="M115.905,306.296c-8.19,0-14.827-6.641-14.827-14.828s6.637-14.824,14.827-14.824
		c8.189,0,14.827,6.637,14.827,14.824S124.094,306.296,115.905,306.296"/>
	<path id="_x32_4" fill="#D52147" d="M193.616,248.896c-8.662,0-15.686-7.021-15.686-15.686c0-8.662,7.023-15.687,15.686-15.687
		c8.664,0,15.686,7.024,15.686,15.687C209.301,241.875,202.28,248.896,193.616,248.896"/>
	<path id="_x32_3" fill="#00A69C" d="M239.394,189.044c-2.849,0-5.156-2.309-5.156-5.157c0-2.848,2.308-5.156,5.156-5.156
		s5.157,2.309,5.157,5.156C244.551,186.735,242.243,189.044,239.394,189.044"/>
	<path id="_x32_2" fill="#6F3B91" d="M189.865,172.537c-2.493,0-4.512-2.021-4.512-4.512c0-2.492,2.019-4.512,4.512-4.512
		s4.513,2.02,4.513,4.512C194.377,170.515,192.358,172.537,189.865,172.537"/>
	<path id="_x32_1" fill="#00A69C" d="M239.24,119.729c-1.778,0-3.223-1.445-3.223-3.224s1.444-3.225,3.223-3.225
		c1.779,0,3.225,1.445,3.225,3.225S241.019,119.729,239.24,119.729"/>
	<path id="_x32_0" fill="#ECE0DB" d="M220.073,190.284c-9.428,0-17.07-7.642-17.07-17.07c0-9.427,7.643-17.068,17.07-17.068
		c9.424,0,17.066,7.641,17.066,17.068C237.139,182.643,229.497,190.284,220.073,190.284"/>
	<path id="_x31_9" fill="#D52147" d="M181.693,226.285c-14.833,0-26.86-12.025-26.86-26.859c0-14.834,12.027-26.859,26.86-26.859
		s26.859,12.024,26.859,26.859C208.552,214.26,196.526,226.285,181.693,226.285"/>
	<path id="_x31_8" fill="#6F3B91" d="M167.47,155.362c-10.801,0-19.555-8.754-19.555-19.555c0-10.798,8.754-19.554,19.555-19.554
		c10.799,0,19.554,8.755,19.554,19.554C187.024,146.608,178.269,155.362,167.47,155.362"/>
	<path id="_x31_7" fill="#ECE0DB" d="M142.238,260.919c-11.49-1.359-19.705-11.776-18.346-23.266
		c1.36-11.491,11.776-19.706,23.267-18.346c11.491,1.359,19.705,11.773,18.344,23.266
		C164.145,254.063,153.729,262.278,142.238,260.919"/>
	<path id="_x31_6" fill="#6F3B91" d="M160.062,280.349c-3.471,0-6.285-2.813-6.285-6.283c0-3.475,2.814-6.289,6.285-6.289
		c3.472,0,6.286,2.814,6.286,6.289C166.348,277.536,163.534,280.349,160.062,280.349"/>
	<path id="_x31_5" fill="#00A69C" d="M206.369,154.376c-7.715,0-13.967-6.253-13.967-13.966c0-7.715,6.252-13.968,13.967-13.968
		c7.714,0,13.966,6.253,13.966,13.968C220.334,148.124,214.083,154.376,206.369,154.376"/>
	<path id="_x31_4" fill="#5D2D7B" d="M187.704,140.605c-13.067,0-23.657-10.591-23.657-23.656c0-13.063,10.59-23.654,23.654-23.654
		c13.066,0,23.657,10.591,23.657,23.654C211.358,130.014,200.767,140.605,187.704,140.605"/>
	<path id="_x31_3" fill="#D52147" d="M140.718,132.57c-11.986,0-21.701-9.716-21.701-21.702c0-11.985,9.715-21.701,21.701-21.701
		c11.987,0,21.704,9.716,21.704,21.701C162.421,122.854,152.705,132.57,140.718,132.57"/>
	<path id="_x31_2" fill="#ECE0DB" d="M132.78,202.566c-12.342,0-22.347-10.004-22.347-22.346c0-12.344,10.004-22.349,22.347-22.349
		c12.342,0,22.345,10.004,22.345,22.349C155.125,192.563,145.122,202.566,132.78,202.566"/>
	<path id="_x31_1" fill="#6F3B91" d="M150.285,173.931c-3.917,0-7.091-3.175-7.091-7.092c0-3.916,3.175-7.092,7.091-7.092
		c3.917,0,7.092,3.176,7.092,7.092C157.376,170.756,154.202,173.931,150.285,173.931"/>
	<path id="_x31_0" fill="#D52147" d="M185.741,132.35c-6.469,0-11.712-5.242-11.712-11.71c0-6.467,5.243-11.71,11.712-11.71
		c6.466,0,11.71,5.243,11.71,11.71C197.451,127.108,192.207,132.35,185.741,132.35"/>
	<path id="_x39_" fill="#00A69C" d="M100.649,219.161c14.715,0,26.644,11.928,26.644,26.643c0,14.717-11.928,26.646-26.644,26.646
		c-14.716,0-26.645-11.93-26.645-26.646C74.004,231.089,85.933,219.161,100.649,219.161"/>
	<path id="_x38_" fill="#00A69C" d="M58.25,176.817c5.579,0,10.099,4.524,10.099,10.099c0,5.58-4.52,10.103-10.099,10.103
		c-5.576,0-10.098-4.522-10.098-10.103C48.152,181.341,52.674,176.817,58.25,176.817"/>
	<path id="_x37_" fill="#D52147" d="M97.093,113.399c17.109,0,30.979,13.868,30.979,30.977s-13.87,30.978-30.979,30.978
		c-17.108,0-30.977-13.869-30.977-30.978S79.984,113.399,97.093,113.399"/>
	<path id="_x36_" fill="#00A69C" d="M116.392,41.248c15.712,0,28.45,12.737,28.45,28.451c0,15.711-12.737,28.451-28.45,28.451
		c-15.714,0-28.451-12.74-28.451-28.451C87.94,53.985,100.678,41.248,116.392,41.248"/>
	<path id="_x35_" fill="#008C83" d="M185.792,96.743c-21.004,0-38.033-17.029-38.033-38.033c0-21.007,17.029-38.033,38.033-38.033
		c21.005,0,38.034,17.026,38.034,38.033C223.826,79.713,206.796,96.743,185.792,96.743"/>
	<path id="_x34_" fill="#5D2D7B" d="M120.203,140.468c-6.29,0-11.389-5.098-11.389-11.388c0-6.291,5.099-11.389,11.389-11.389
		c6.29,0,11.388,5.099,11.388,11.389C131.591,135.37,126.492,140.468,120.203,140.468"/>
	<path id="_x33_" fill="#ECE0DB" d="M81.863,65.05c11.869,0,21.487,9.618,21.487,21.487c0,11.866-9.618,21.487-21.487,21.487
		c-11.866,0-21.486-9.621-21.486-21.487C60.376,74.668,69.997,65.05,81.863,65.05"/>
	<path id="_x32_" fill="#6F3B91" d="M204.988,86.877c-3.917,0-7.091-3.175-7.091-7.091c0-3.916,3.174-7.092,7.091-7.092
		s7.092,3.176,7.092,7.092C212.08,83.702,208.905,86.877,204.988,86.877"/>
	<path id="_x31_" fill="#6F3B91" d="M177.96,222.688c-3.917,0-7.091-3.175-7.091-7.091s3.174-7.092,7.091-7.092
		s7.092,3.176,7.092,7.092S181.877,222.688,177.96,222.688"/>
</g>
</svg>
