<?xml version="1.0" encoding="iso-8859-1"?>
<!-- Generator: Adobe Illustrator 19.2.1, SVG Export Plug-In . SVG Version: 6.00 Build 0)  -->
<svg version="1.1" id="Layer_1" xmlns="http://www.w3.org/2000/svg" xmlns:xlink="http://www.w3.org/1999/xlink" x="0px" y="0px"
	 viewBox="0 0 80 30" style="enable-background:new 0 0 80 30;" xml:space="preserve">
<g id="XMLID_24_">
	<path id="XMLID_142_" style="fill:#7F467A;" d="M11.174,0.182c0.517-0.157,1.001-0.22,1.388-0.157
		c0.387,0.063,0.775,0.157,1.098,0.283c0.323,0.126,0.581,0.315,0.775,0.598c0.194,0.283,0.291,0.63,0.355,0.976
		c0.065,0.346,0,0.693-0.161,1.008s-0.355,0.598-0.549,0.819c-0.194,0.22-0.42,0.504-0.581,0.787s-0.42,0.472-0.775,0.567
		c-0.323,0.094-0.581,0.094-0.71,0c-0.161-0.094-0.065-0.535,0.258-1.323c0.323-0.756,0.323-1.197,0.032-1.323
		c-0.291-0.126-0.646-0.126-1.033-0.031c-0.387,0.094-0.936,0.472-1.679,1.134C8.85,4.181,8.269,4.937,7.785,5.819
		S7.01,7.393,6.913,7.929C6.816,8.464,6.784,9.031,6.849,9.535c0.065,0.535,0.129,1.197,0.291,1.984
		c0.129,0.787,0.291,1.512,0.42,2.141c0.161,0.63,0.161,1.449,0.065,2.488c-0.097,1.039-0.355,1.858-0.775,2.519
		c-0.42,0.661-0.807,1.228-1.162,1.701c-0.355,0.472-0.775,0.85-1.227,1.134c-0.452,0.283-0.968,0.441-1.55,0.472
		s-1.033,0-1.356-0.126s-0.646-0.409-1.001-0.882c-0.355-0.472-0.517-0.913-0.549-1.323c-0.032-0.409,0.097-0.85,0.387-1.386
		c0.291-0.504,0.742-1.102,1.356-1.701c0.613-0.63,1.13-1.008,1.55-1.134c0.42-0.126,0.807-0.378,1.162-0.724
		c0.323-0.346,0.323-1.291-0.032-2.866c-0.355-1.575-0.452-2.897-0.258-4.031s0.42-1.984,0.742-2.614s0.807-1.323,1.485-2.047
		s1.291-1.26,1.808-1.575s1.001-0.598,1.485-0.882C10.141,0.528,10.626,0.339,11.174,0.182z M4.557,15.581
		c-0.226-0.346-0.775,0.031-1.646,1.102s-1.291,1.827-1.227,2.236c0.065,0.409,0.194,0.63,0.42,0.693
		c0.194,0.063,0.42,0.063,0.613,0c0.226-0.063,0.42-0.157,0.581-0.346c0.161-0.157,0.42-0.378,0.71-0.661
		c0.291-0.283,0.517-0.598,0.71-1.008s0.258-0.756,0.226-1.071C4.912,16.243,4.783,15.928,4.557,15.581z"/>
	<path id="XMLID_145_" style="fill:#7F467A;" d="M11.981,11.424c1.259-0.819,2.034-1.291,2.324-1.386
		c0.291-0.094,0.517-0.063,0.71,0.094c0.194,0.157,0.291,0.378,0.355,0.598c0.032,0.252-0.032,0.787-0.226,1.575
		c-0.194,0.819-0.194,1.134,0,1.008c0.194-0.157,0.452-0.315,0.775-0.441s0.775-0.315,1.291-0.504s1.001-0.252,1.453-0.22
		c0.452,0.031,0.807,0.126,1.033,0.315s0.387,0.346,0.452,0.472c0.065,0.126,0.161,0.283,0.258,0.504s0.161,0.346,0.161,0.409
		c0,0.063,0,0.157,0.032,0.315s0,0.409-0.032,0.787c-0.065,0.378-0.194,0.819-0.452,1.323c-0.258,0.504-0.613,1.008-1.13,1.449
		c-0.484,0.441-0.936,0.787-1.291,0.976c-0.355,0.189-0.742,0.378-1.13,0.504c-0.42,0.157-0.807,0.252-1.259,0.315
		c-0.42,0.063-0.775,0-1.033-0.189c-0.258-0.189-0.387-0.378-0.387-0.598c0-0.22,0.065-0.472,0.226-0.787
		c0.161-0.315,0.323-0.535,0.484-0.787c0.161-0.22,0.452-0.504,0.807-0.819c0.387-0.315,0.775-0.567,1.194-0.724
		c0.42-0.189,0.742-0.283,1.001-0.346c0.226-0.063,0.097,0.126-0.484,0.472c-0.549,0.378-1.065,0.756-1.453,1.102
		c-0.42,0.346-0.549,0.63-0.42,0.787c0.161,0.157,0.42,0.189,0.807,0.031c0.387-0.157,0.968-0.567,1.711-1.291
		c0.742-0.724,1.001-1.354,0.71-1.858c-0.258-0.504-0.775-0.63-1.517-0.378c-0.742,0.283-1.42,0.661-2.001,1.165
		c-0.581,0.504-1.194,1.512-1.84,3.023c-0.646,1.512-1.098,2.645-1.356,3.37c-0.258,0.724-0.613,1.732-1.065,2.992
		c-0.452,1.26-0.968,2.519-1.55,3.716s-1.098,1.732-1.453,1.575c-0.387-0.157-0.613-0.346-0.678-0.598
		c-0.065-0.252-0.097-0.504-0.065-0.787c0.032-0.283,0.161-0.63,0.355-1.039c0.194-0.409,0.484-1.134,0.807-2.11
		c0.355-0.976,1.065-2.866,2.163-5.669c1.098-2.803,1.743-4.472,1.969-4.976c0.194-0.504,0.484-1.291,0.807-2.299
		c0.323-1.008,0.355-1.48,0.097-1.386c-0.258,0.094-0.839,0.378-1.711,0.819C10.529,12.432,10.722,12.243,11.981,11.424z"/>
	<path id="XMLID_147_" style="fill:#7F467A;" d="M25.669,10.448c0.936-0.063,1.517,0.094,1.743,0.472
		c0.194,0.378,0.291,0.85,0.291,1.449c0,0.598-0.291,1.102-0.839,1.48c-0.549,0.409-1.291,0.819-2.195,1.228
		c-0.258,0.094-0.484,0.157-0.678,0.157c-0.194,0-0.387,0-0.517-0.031c-0.129-0.031-0.226-0.031-0.323-0.063
		c-0.065-0.031-0.129,0-0.129,0.031c-0.258,0.409-0.387,0.787-0.387,1.197c0,0.409,0.129,0.787,0.42,1.102
		c0.291,0.346,0.581,0.535,0.936,0.598c0.355,0.063,0.71,0.031,1.065-0.031c0.355-0.063,1.065-0.315,2.034-0.724
		c1.001-0.409,1.679-0.787,2.066-1.134c0.387-0.346,0.775-0.693,1.13-1.039c0.355-0.346,0.42-0.346,0.161,0
		s-0.581,0.724-0.936,1.197c-0.355,0.472-0.839,0.945-1.42,1.386c-0.549,0.472-1.033,0.819-1.388,1.071
		c-0.355,0.252-0.839,0.472-1.42,0.661c-0.581,0.189-1.162,0.252-1.743,0.189c-0.581-0.063-1.001-0.189-1.291-0.378
		c-0.291-0.189-0.549-0.409-0.775-0.63c-0.226-0.22-0.452-0.535-0.581-0.882c-0.161-0.346-0.226-0.787-0.258-1.386
		c0-0.598,0.129-1.228,0.42-1.921c0.291-0.693,0.613-1.26,1.001-1.732c0.355-0.441,0.872-0.913,1.485-1.386
		C24.119,10.92,24.862,10.605,25.669,10.448z M25.669,12.306c-0.097-0.094-0.355-0.063-0.742,0.157
		c-0.387,0.189-0.678,0.409-0.839,0.661c-0.161,0.252-0.194,0.409-0.097,0.535c0.129,0.126,0.355,0.063,0.71-0.126
		c0.355-0.189,0.678-0.409,0.872-0.598C25.83,12.684,25.862,12.495,25.669,12.306z"/>
	<path id="XMLID_150_" style="fill:#7F467A;" d="M37,10.574c0.323-0.094,0.678-0.094,1.065-0.031
		c0.387,0.063,0.71,0.189,0.936,0.346c0.226,0.189,0.452,0.535,0.678,1.071c0.226,0.535,0.129,0.882-0.291,1.071
		c-0.42,0.189-0.775,0.126-1.098-0.189c-0.323-0.315-0.678-0.378-1.033-0.189c-0.355,0.189-0.71,0.378-1.065,0.535
		c-0.355,0.189-0.775,0.472-1.291,0.882c-0.517,0.409-1.033,0.913-1.582,1.543c-0.549,0.63-0.839,1.008-0.904,1.197
		c-0.065,0.157,0.097,0.157,0.42-0.063c0.323-0.22,0.839-0.567,1.517-1.008c0.678-0.441,1.55-0.913,2.583-1.386
		c1.033-0.472,1.711-0.661,1.969-0.535c0.291,0.094,0.517,0.283,0.71,0.567c0.194,0.283,0.323,0.504,0.355,0.724
		c0.032,0.189,0,0.346-0.097,0.472c-0.097,0.126-0.194,0.378-0.323,0.787c-0.129,0.409-0.097,0.819,0.032,1.197
		c0.129,0.378,0.323,0.661,0.549,0.787c0.226,0.157,0.517,0.189,0.904,0.126c0.387-0.063,0.839-0.346,1.42-0.85
		c0.549-0.504,0.549-0.378-0.065,0.346c-0.613,0.756-1.098,1.197-1.453,1.417c-0.355,0.189-0.646,0.283-0.839,0.283
		s-0.452-0.063-0.775-0.189c-0.323-0.126-0.613-0.315-0.904-0.535c-0.291-0.22-0.517-0.567-0.678-0.913s-0.258-0.63-0.323-0.787
		c-0.065-0.157-0.194-0.378-0.387-0.567c-0.194-0.22-0.452-0.252-0.742-0.126c-0.291,0.126-0.807,0.441-1.55,0.976
		c-0.742,0.535-1.453,0.945-2.098,1.291c-0.646,0.346-1.227,0.567-1.743,0.693c-0.517,0.126-0.839,0.189-1.001,0.126
		c-0.161-0.031-0.323-0.189-0.484-0.472c-0.161-0.283-0.291-0.567-0.323-0.882c-0.032-0.315,0.032-0.63,0.129-0.976
		c0.129-0.315,0.581-0.976,1.356-1.953c0.775-0.976,1.55-1.764,2.292-2.393c0.742-0.63,1.517-1.165,2.324-1.575
		C36.096,10.92,36.677,10.668,37,10.574z"/>
	<path id="XMLID_152_" style="fill:#7F467A;" d="M47.879,1.945c0.291-0.283,0.71-0.346,1.227-0.126
		c0.516,0.22,0.613,1.102,0.291,2.677s-0.71,3.149-1.098,4.724c-0.387,1.575-0.323,2.33,0.258,2.299
		c0.581-0.063,1.098-0.252,1.582-0.661c0.484-0.378,1.033-0.787,1.614-1.228c0.581-0.441,1.162-0.819,1.679-1.134
		c0.517-0.315,0.839-0.22,0.968,0.283c0.129,0.504,0.065,0.913-0.097,1.26c-0.194,0.346-0.936,0.945-2.26,1.795
		c-1.324,0.85-1.937,1.386-1.872,1.606s0.129,0.441,0.194,0.63c0.065,0.22,0.355,0.693,0.872,1.417
		c0.517,0.724,1.194,1.48,2.034,2.267c0.839,0.787,1.227,1.26,1.13,1.449s-0.226,0.315-0.452,0.378
		c-0.226,0.063-0.484,0.126-0.807,0.157c-0.323,0.063-0.807-0.189-1.453-0.756c-0.646-0.535-1.291-1.228-1.872-2.015
		c-0.613-0.787-1.13-1.449-1.517-1.921c-0.42-0.472-0.71-0.787-0.872-0.882c-0.161-0.126-0.484,0.535-0.904,1.921
		c-0.452,1.417-0.839,2.456-1.194,3.181s-0.71,1.008-1.13,0.913c-0.42-0.094-0.678-0.22-0.775-0.315
		c-0.129-0.126-0.129-0.346-0.065-0.661c0.065-0.346,0.323-0.945,0.775-1.858c0.452-0.913,0.936-2.677,1.517-5.291
		c0.581-2.614,0.936-4.472,1.098-5.543s0-1.197-0.452-0.378c-0.452,0.819-1.194,1.953-2.227,3.37
		c-1.033,1.417-1.162,1.543-0.355,0.315s1.388-2.141,1.711-2.74c0.355-0.598,0.742-1.543,1.259-2.803
		C47.201,3.016,47.588,2.229,47.879,1.945z"/>
	<path id="XMLID_154_" style="fill:#7F467A;" d="M59.209,10.448c0.936-0.063,1.517,0.094,1.743,0.472
		c0.194,0.378,0.291,0.85,0.291,1.449c0,0.598-0.291,1.102-0.839,1.48c-0.549,0.409-1.291,0.819-2.195,1.228
		c-0.258,0.094-0.484,0.157-0.678,0.157c-0.194,0-0.387,0-0.517-0.031s-0.226-0.031-0.323-0.063c-0.065-0.031-0.129,0-0.129,0.031
		c-0.258,0.409-0.387,0.787-0.387,1.197c0,0.409,0.129,0.787,0.42,1.102c0.291,0.346,0.581,0.535,0.936,0.598
		c0.355,0.063,0.71,0.031,1.065-0.031c0.355-0.063,1.065-0.315,2.034-0.724c1.001-0.409,1.679-0.787,2.066-1.134
		c0.387-0.346,0.775-0.693,1.13-1.039s0.42-0.346,0.161,0c-0.258,0.346-0.581,0.724-0.936,1.197
		c-0.387,0.472-0.839,0.945-1.42,1.386c-0.549,0.472-1.033,0.819-1.388,1.071s-0.839,0.472-1.42,0.661
		c-0.581,0.189-1.162,0.252-1.743,0.189c-0.581-0.063-1.001-0.189-1.291-0.378c-0.291-0.189-0.549-0.409-0.775-0.63
		c-0.226-0.252-0.452-0.535-0.581-0.882c-0.161-0.346-0.226-0.787-0.258-1.386c0-0.598,0.129-1.228,0.42-1.921
		c0.291-0.693,0.613-1.26,1.001-1.732c0.355-0.441,0.872-0.913,1.485-1.386C57.692,10.92,58.402,10.605,59.209,10.448z
		 M59.242,12.306c-0.097-0.094-0.355-0.063-0.742,0.157c-0.387,0.189-0.678,0.409-0.839,0.661c-0.161,0.252-0.194,0.409-0.097,0.535
		c0.097,0.126,0.355,0.063,0.71-0.126c0.355-0.189,0.678-0.409,0.872-0.598C59.371,12.684,59.403,12.495,59.242,12.306z"/>
	<path id="XMLID_157_" style="fill:#7F467A;" d="M64.6,13.377c0.517-1.921,1.001-2.866,1.485-2.834s0.839,0.252,1.065,0.63
		c0.226,0.378,0.226,0.819-0.065,1.386c-0.291,0.535-0.323,0.787-0.097,0.756c0.226-0.031,0.549-0.157,0.936-0.409
		c0.387-0.252,0.742-0.441,1.098-0.567c0.355-0.157,0.613-0.252,0.839-0.283c0.226-0.031,0.613,0.031,1.227,0.22
		s1.162,0.441,1.711,0.756c0.549,0.315,1.259,0.346,2.131,0.094c0.872-0.283,0.775-0.189-0.291,0.283
		c-1.065,0.441-2.195,0.661-3.325,0.63c-1.13-0.031-2.001,0.094-2.615,0.409c-0.613,0.283-1.13,0.598-1.55,0.976
		c-0.42,0.346-0.807,0.945-1.194,1.732c-0.355,0.819-0.646,1.48-0.839,2.047c-0.194,0.567-0.355,1.008-0.517,1.354
		c-0.161,0.346-0.452,0.535-0.904,0.567c-0.452,0.031-0.775-0.157-0.904-0.472c-0.161-0.346-0.194-0.567-0.097-0.661
		c0.065-0.094,0.291-0.724,0.646-1.89C63.664,16.841,64.116,15.298,64.6,13.377z"/>
	<path id="XMLID_159_" style="fill:#7F467A;" d="M77.19,10.7c0.581-0.283,1.13-0.472,1.711-0.535
		c0.581-0.094,0.904,0.031,1.033,0.315c0.129,0.283,0.065,0.567-0.161,0.85c-0.226,0.283-0.549,0.441-0.968,0.472
		c-0.42,0.031-0.839,0.315-1.324,0.85s-0.742,1.165-0.807,1.89s-0.065,1.228,0.065,1.512c0.097,0.283,0.226,0.819,0.355,1.606
		c0.129,0.787,0.032,1.48-0.258,2.078c-0.291,0.567-0.613,1.008-0.968,1.26c-0.355,0.252-0.775,0.472-1.259,0.567
		c-0.517,0.126-0.936,0.189-1.291,0.189c-0.355,0-0.742-0.094-1.13-0.252c-0.42-0.157-0.646-0.504-0.742-1.039
		c-0.097-0.504,0.646-1.48,2.227-2.897c1.582-1.417,1.711-1.449,0.387-0.126c-1.324,1.323-1.84,2.141-1.55,2.456
		c0.291,0.315,0.646,0.409,1.033,0.252c0.42-0.157,0.71-0.346,0.968-0.598c0.226-0.252,0.42-0.567,0.517-0.945
		c0.129-0.378,0.161-0.693,0.161-1.008s-0.129-1.008-0.323-2.078c-0.194-1.071-0.194-1.89,0-2.425
		c0.194-0.535,0.517-1.008,0.904-1.386C76.157,11.33,76.641,10.983,77.19,10.7z"/>
</g>
</svg>
