<?xml version="1.0" encoding="iso-8859-1"?>
<!-- Generator: Adobe Illustrator 19.2.1, SVG Export Plug-In . SVG Version: 6.00 Build 0)  -->
<svg version="1.1" id="Layer_1" xmlns="http://www.w3.org/2000/svg" xmlns:xlink="http://www.w3.org/1999/xlink" x="0px" y="0px"
	 viewBox="0 0 48 48" style="enable-background:new 0 0 48 48;" xml:space="preserve">
<path style="fill:#231F20;" d="M44,0H4C1.8,0,0,1.8,0,4v40c0,2.2,1.8,4,4,4h40c2.2,0,4-1.8,4-4V4C48,1.8,46.2,0,44,0z"/>
<g id="Ted">
	<path id="D_1_" style="fill:#FFFFFF;" d="M34,17.5c3.6,0,5,3.6,5,6.3c0,3.3-1.2,6.7-5,6.7h-5v-13H34z M32,27.5h1c2.1,0,3-0.7,3-3.7
		s-1-3.3-3-3.3h-1V27.5z"/>
	<path id="E_1_" style="fill:#FFFFFF;" d="M19,17.5h9v3h-6v2h6v3h-6v2h6v3h-9V17.5z"/>
	<path id="T_1_" style="fill:#FFFFFF;" d="M12,20.5H9v-3h9v3h-3v10h-3V20.5z"/>
</g>
</svg>
