<?xml version="1.0" encoding="iso-8859-1"?>
<!-- Generator: Adobe Illustrator 19.2.1, SVG Export Plug-In . SVG Version: 6.00 Build 0)  -->
<svg version="1.1" id="Layer_1" xmlns="http://www.w3.org/2000/svg" xmlns:xlink="http://www.w3.org/1999/xlink" x="0px" y="0px"
	 viewBox="0 0 80 30" style="enable-background:new 0 0 80 30;" xml:space="preserve">
<g id="XMLID_3_">
	<path id="XMLID_82_" style="fill:#D52147;" d="M24.605,3.286c2.213-2.242,3.625-3.337,4.236-3.284
		c0.61,0.053,1.078,0.497,1.402,1.333c0.324,0.836,0.462,1.407,0.415,1.714c-0.048,0.307-0.406,0.481-1.074,0.524
		c-0.668,0.042-1.722,0.952-3.162,2.729c-1.441,1.777-2.538,3.189-3.292,4.237c-0.754,1.047-1.717,2.301-2.89,3.76
		c-1.174,1.46-1.927,2.476-2.261,3.046c-0.334,0.572-2.285,2.655-5.853,6.251c-3.568,3.597-5.634,5.548-6.196,5.855
		c-0.563,0.307-1.245,0.487-2.047,0.539c-0.801,0.053-1.459-0.1-1.975-0.46c-0.515-0.359-0.912-0.856-1.187-1.491
		c-0.277-0.634-0.487-1.835-0.63-3.601c-0.143-1.766-0.119-3.432,0.071-4.998c0.191-1.566,0.31-2.687,0.358-3.364
		c0.047-0.676,0.138-1.401,0.272-2.174c0.134-0.772,0.224-2.073,0.272-3.903c0.047-1.83,0.023-3.11-0.072-3.84
		c-0.096-0.73,0-1.433,0.286-2.11C1.566,3.371,1.966,2.985,2.482,2.89C2.997,2.795,3.35,2.774,3.54,2.826
		c0.191,0.053,0.472,0.339,0.844,0.857c0.372,0.518,0.606,1.142,0.701,1.872c0.096,0.73,0.119,2.211,0.072,4.443
		C5.11,12.23,4.923,14.441,4.599,16.63c-0.325,2.189-0.463,4.067-0.415,5.632c0.047,1.566,0.186,2.401,0.415,2.507
		c0.229,0.106,0.601-0.052,1.116-0.476c0.515-0.423,1.245-1.052,2.19-1.888c0.945-0.835,1.626-1.486,2.046-1.952
		s1.217-1.401,2.39-2.809c1.173-1.407,2.604-3.046,4.293-4.919c1.689-1.872,2.886-3.353,3.592-4.443
		C20.932,7.194,22.392,5.528,24.605,3.286z"/>
	<path id="XMLID_84_" style="fill:#D52147;" d="M30.472,13.662c1.278-0.105,2.055,0.132,2.332,0.714
		c0.277,0.582,0.406,1.322,0.386,2.221c-0.019,0.899-0.401,1.661-1.145,2.285c-0.744,0.624-1.727,1.243-2.948,1.856
		c-0.343,0.148-0.654,0.228-0.93,0.238c-0.277,0.011-0.506,0-0.687-0.031c-0.181-0.032-0.325-0.064-0.429-0.095
		c-0.105-0.031-0.167-0.015-0.186,0.048c-0.343,0.614-0.52,1.228-0.53,1.841c-0.01,0.613,0.172,1.179,0.544,1.697
		c0.372,0.518,0.787,0.82,1.245,0.904c0.458,0.085,0.934,0.069,1.431-0.048c0.496-0.116,1.412-0.481,2.747-1.095
		c1.335-0.613,2.266-1.19,2.79-1.729c0.524-0.54,1.025-1.063,1.503-1.571c0.477-0.508,0.544-0.508,0.2,0
		c-0.343,0.508-0.768,1.122-1.274,1.841c-0.505,0.719-1.135,1.434-1.889,2.142c-0.754,0.709-1.369,1.254-1.846,1.634
		c-0.478,0.381-1.112,0.725-1.903,1.032c-0.792,0.307-1.57,0.402-2.332,0.285c-0.764-0.116-1.336-0.311-1.717-0.587
		c-0.382-0.274-0.735-0.603-1.059-0.984c-0.324-0.381-0.591-0.83-0.801-1.349c-0.209-0.518-0.319-1.227-0.329-2.126
		c-0.009-0.899,0.181-1.877,0.572-2.936c0.391-1.058,0.834-1.936,1.331-2.634c0.496-0.698,1.168-1.401,2.017-2.11
		C28.416,14.398,29.385,13.916,30.472,13.662z M30.501,16.519c-0.134-0.148-0.462-0.074-0.987,0.222
		c-0.525,0.297-0.906,0.63-1.145,0.999c-0.239,0.371-0.281,0.64-0.129,0.81c0.152,0.169,0.477,0.101,0.973-0.207
		c0.496-0.307,0.892-0.613,1.187-0.92C30.696,17.116,30.73,16.815,30.501,16.519z"/>
	<path id="XMLID_87_" style="fill:#D52147;" d="M39.974,14.329c0.401-0.211,0.911-0.169,1.531,0.127
		c0.62,0.297,0.753,0.846,0.401,1.65c-0.353,0.804-0.93,2.132-1.732,3.982c-0.801,1.851-0.883,2.359-0.243,1.523
		c0.639-0.835,1.412-1.687,2.318-2.554c0.906-0.867,1.56-1.428,1.961-1.682c0.401-0.254,0.834-0.444,1.302-0.571
		c0.467-0.127,0.997-0.095,1.588,0.095c0.591,0.19,1.097,0.725,1.517,1.602c0.419,0.878,0.644,2.328,0.673,4.348
		c0.029,2.02,0.477,3.01,1.346,2.967c0.868-0.042,1.712-0.397,2.533-1.063c0.821-0.667,1.431-1.343,1.832-2.031
		c0.401-0.687,0.572-0.873,0.515-0.556c-0.057,0.318-0.277,0.783-0.658,1.396c-0.382,0.614-1.193,1.566-2.433,2.857
		c-1.24,1.291-2.314,1.946-3.219,1.967c-0.907,0.022-1.565-0.381-1.975-1.205c-0.41-0.826-0.678-2.142-0.801-3.951
		c-0.124-1.809-0.339-2.729-0.644-2.761c-0.305-0.031-0.973,0.307-2.003,1.015c-1.03,0.709-1.975,1.635-2.833,2.777
		s-1.56,2.11-2.104,2.903c-0.544,0.793-1.036,1.274-1.474,1.444c-0.439,0.17-0.797,0.043-1.073-0.381
		c-0.277-0.423-0.372-0.941-0.286-1.554c0.086-0.613,0.253-1.555,0.501-2.824c0.248-1.269,0.601-2.607,1.059-4.014
		c0.458-1.407,0.353-1.867-0.315-1.38c-0.668,0.487-1.484,1.222-2.447,2.205c-0.963,0.984-0.62,0.518,1.03-1.396
		s2.566-3.03,2.747-3.348c0.181-0.317,0.358-0.608,0.53-0.873C39.287,14.779,39.574,14.54,39.974,14.329z"/>
	<path id="XMLID_89_" style="fill:#D52147;" d="M64.187,16.455c0.401-0.232,0.749-0.317,1.045-0.254
		c0.296,0.064,0.501,0.217,0.615,0.46c0.115,0.244,0,1.164-0.343,2.761c-0.343,1.597-0.572,2.957-0.687,4.078
		c-0.115,1.121-0.02,1.909,0.286,2.364c0.305,0.455,0.834,0.619,1.588,0.492c0.753-0.127,1.569-0.687,2.447-1.682
		c0.877-0.994,0.978-1.042,0.3-0.143c-0.678,0.899-1.307,1.709-1.889,2.428c-0.582,0.719-1.093,1.174-1.531,1.365
		c-0.439,0.19-0.95,0.233-1.531,0.127c-0.583-0.106-1.055-0.36-1.417-0.762s-0.649-0.883-0.859-1.444
		c-0.21-0.56-0.229-1.248-0.057-2.062c0.172-0.814,0.281-1.518,0.33-2.11c0.047-0.592-0.168-0.56-0.644,0.095
		c-0.478,0.656-1.064,1.371-1.76,2.142c-0.697,0.772-1.436,1.454-2.218,2.046c-0.782,0.593-1.398,0.973-1.846,1.142
		c-0.449,0.17-0.897,0.291-1.346,0.365c-0.449,0.074-0.864-0.016-1.245-0.27c-0.382-0.254-0.62-0.651-0.716-1.19
		c-0.096-0.54,0-1.343,0.286-2.412c0.286-1.068,0.768-2.523,1.445-4.363c0.677-1.84,0.482-2.824-0.587-2.951
		c-1.069-0.127-1.87-0.386-2.404-0.777c-0.534-0.391-0.209-0.338,0.973,0.159c1.183,0.497,2.003,0.45,2.461-0.143
		c0.458-0.592,0.882-0.941,1.274-1.047c0.391-0.106,0.763-0.085,1.116,0.063c0.353,0.149,0.582,0.408,0.687,0.777
		c0.104,0.371,0.086,0.81-0.057,1.317c-0.143,0.508-0.63,1.84-1.46,3.998c-0.83,2.158-0.854,3.11-0.072,2.857
		c0.782-0.254,2.184-1.502,4.207-3.745C62.603,17.894,63.805,16.667,64.187,16.455z"/>
	<path id="XMLID_91_" style="fill:#D52147;" d="M73.46,13.662c1.278-0.105,2.055,0.132,2.332,0.714
		c0.277,0.582,0.406,1.322,0.386,2.221c-0.019,0.899-0.401,1.661-1.145,2.285c-0.744,0.624-1.727,1.243-2.948,1.856
		c-0.343,0.148-0.654,0.228-0.93,0.238c-0.277,0.011-0.506,0-0.687-0.031c-0.181-0.032-0.325-0.064-0.429-0.095
		c-0.105-0.031-0.167-0.015-0.186,0.048c-0.343,0.614-0.52,1.228-0.53,1.841c-0.01,0.613,0.172,1.179,0.544,1.697
		c0.372,0.518,0.787,0.82,1.245,0.904c0.458,0.085,0.934,0.069,1.431-0.048c0.496-0.116,1.412-0.481,2.747-1.095
		c1.335-0.613,2.266-1.19,2.79-1.729c0.524-0.54,1.025-1.063,1.503-1.571c0.477-0.508,0.544-0.508,0.2,0
		c-0.343,0.508-0.768,1.122-1.274,1.841s-1.135,1.434-1.889,2.142c-0.754,0.709-1.369,1.254-1.846,1.634
		c-0.478,0.381-1.112,0.725-1.903,1.032c-0.792,0.307-1.57,0.402-2.332,0.285c-0.764-0.116-1.336-0.311-1.717-0.587
		c-0.382-0.274-0.735-0.603-1.059-0.984c-0.324-0.381-0.591-0.83-0.801-1.349c-0.209-0.518-0.319-1.227-0.329-2.126
		c-0.009-0.899,0.181-1.877,0.572-2.936c0.391-1.058,0.834-1.936,1.331-2.634c0.496-0.698,1.168-1.401,2.017-2.11
		C71.403,14.398,72.372,13.916,73.46,13.662z M73.488,16.519c-0.134-0.148-0.462-0.074-0.987,0.222
		c-0.525,0.297-0.906,0.63-1.145,0.999c-0.239,0.371-0.281,0.64-0.129,0.81c0.152,0.169,0.477,0.101,0.973-0.207
		c0.496-0.307,0.892-0.613,1.187-0.92C73.684,17.116,73.717,16.815,73.488,16.519z"/>
</g>
</svg>
