<?xml version="1.0" encoding="utf-8"?>
<!-- Generator: Adobe Illustrator 19.0.0, SVG Export Plug-In . SVG Version: 6.00 Build 0)  -->
<svg version="1.1" id="Layer_1" xmlns="http://www.w3.org/2000/svg" xmlns:xlink="http://www.w3.org/1999/xlink" x="0px" y="0px"
	 viewBox="529 17.5 1200 106.2" style="enable-background:new 529 17.5 1200 106.2;" xml:space="preserve">
<metadata><?xpacket begin="﻿" id="W5M0MpCehiHzreSzNTczkc9d"?>
<x:xmpmeta xmlns:x="adobe:ns:meta/" x:xmptk="Adobe XMP Core 5.6-c067 79.157747, 2015/03/30-23:40:42        ">
   <rdf:RDF xmlns:rdf="http://www.w3.org/1999/02/22-rdf-syntax-ns#">
      <rdf:Description rdf:about=""/>
   </rdf:RDF>
</x:xmpmeta>
                                                                                                    
                                                                                                    
                                                                                                    
                                                                                                    
                                                                                                    
                                                                                                    
                                                                                                    
                                                                                                    
                                                                                                    
                                                                                                    
                                                                                                    
                                                                                                    
                                                                                                    
                                                                                                    
                                                                                                    
                                                                                                    
                                                                                                    
                                                                                                    
                                                                                                    
                                                                                                    
                           
<?xpacket end="w"?></metadata>
<style type="text/css">
	.st0{fill:#5d2d7a;}
</style>
<g>
	<path class="st0" d="M562.4,51.7c0.4-0.1,0.7-0.1,1-0.1c0.3,0,0.8,0,1.3-0.1c0.5,0,1.2-0.1,2.1-0.3c0.4-0.1,0.8-0.2,1.2-0.2
		c0.3-0.1,0.6-0.1,0.9-0.2c0.7-0.1,1.4-0.3,2.1-0.5s1.4-0.4,2-0.5l4-0.9c0.6-0.1,1-0.1,1-0.2c0.1-0.1,0.4-0.2,1-0.3
		c0.4,0,0.8-0.1,1.2,0c0.3,0,0.8,0,1.2-0.1c1.3-0.1,2.4-0.1,3.2,0c0.8,0.2,1.4,0.3,1.7,0.4c0.3,0.1,0.4,0.1,0.2,0.1
		c-0.4,0,0,0.1,1.1,0.6c0.4,0.1,0.5,0.2,0.4,0c-0.1-0.2,0-0.1,0.3,0.3s0.4,0.6,0.3,0.6c0,0,0.2,0.2,0.6,0.6c0.9,0.8,1.2,1.8,0.8,3
		l-0.4,1.1l-0.1,0.2c-0.1,0.4-0.1,0.6,0,0.7c0.1,0.1,0.1,0.4,0,0.8c-0.1,0.3-0.3,0.6-0.5,0.8s-0.4,0.4-0.5,0.7
		c-0.1,0.2-0.2,0.3-0.2,0.3s-0.1,0.1-0.2,0.3c-0.7,1-1.9,1.5-3.4,1.7c-0.8,0.1-1.4,0.3-1.7,0.4c-0.2,0.1-0.4,0.2-0.7,0.2
		c-0.3,0.1-0.7,0.1-1.1,0.1c-0.9,0.1-1.8,0.2-2.7,0.4s-1.9,0.4-2.8,0.6c-0.9,0.2-1.9,0.4-2.8,0.7c-0.9,0.2-1.8,0.4-2.7,0.6l-3.2,0.7
		c0.4,0.5,0.9,1,1.6,1.4c0.2,0.2,0.3,0.3,0.2,0.2c0,0,0-0.1,0,0c0,0,0.1,0.1,0.2,0.1s0.1,0.1,0.2,0.1l0.3,0.2
		c0.1,0.1,0.1,0.1,0.2,0.2c0.2,0.1,0.3,0.1,0.3,0.1l3.8,4.3c0,0,0,0.1,0.1,0.2l1.1,1.7c0.9,1.8,1.2,2.8,0.9,3
		c-0.3,0.2-0.4,0.7-0.3,1.5v0.1c0,0,0,0,0,0.1c0.1,0.9-0.5,2.2-1.7,3.8c-0.6,0.8-1.1,1.5-1.5,2.1c-0.4,0.6-0.7,1-1,1.4l-1.4,1.7
		c-0.4,0.6-1.2,1.4-2.1,2.5c-1,1.1-1.5,1.9-1.5,2.5c0.4-0.1,1-0.1,1.9,0c0.4,0.1,0.8,0.1,1.2,0.2c0.4,0,0.7,0.1,1,0.1
		c2.6,0.2,4.5,0.5,5.5,0.7c1.1,0.2,2.9,0.9,5.5,2c0.4,0.2,0.7,0.3,0.9,0.4c0.2,0.1,0.5,0.2,0.8,0.4l2.5,1c0,0,0,0,0.1,0.1h0.1
		l0.2,0.1l1.3,0.7c0.6,0.5,0.7,1.2,0.1,2c-1.3,2-3.4,2.7-6.3,2.1c-2.9-0.6-5-0.9-6.4-0.9l-7.1,0.2c-0.7,0.1-1.4,0.2-2.1,0.2
		c-0.8,0-1.5,0-2.3-0.1c-0.9-0.1-1.6-0.1-2.4-0.1c-0.8,0-1.5,0.1-2.2,0.2c-0.4,0.1-0.8,0.2-1,0.3c-0.2,0.1-0.5,0.3-0.8,0.5l-1.9,0.7
		c0,0-0.1,0-0.1,0.1l-1.3-0.1c-0.2,0.4-0.2,0.5,0,0.4c0.2-0.2,0.2-0.1,0,0.2l0,0l0,0c0,0,0,0-0.1,0s-0.2,0-0.4,0
		c-0.3-0.8-0.6-0.9-1-0.3c-0.4,0.6-1.3-0.1-2.7-1.9c-0.5-0.6-0.8-1-0.9-1.3l0.1-4.8c0.3-0.9,0.7-1.7,1.2-2.3
		c0.5-0.7,1.1-1.3,1.6-1.9l9.7-11.8c0.2-0.3,0.3-0.5,0.4-0.7c0.1-0.2,0.3-0.3,0.7-0.4c-0.3-0.9-0.9-1.6-1.8-2.2
		c-0.5-0.3-0.9-0.6-1.3-0.8c-0.4-0.3-0.8-0.6-1.1-0.9c-1-0.9-2-1.8-3-2.8s-1.8-2.1-2.5-3.3l-0.4-0.6c-0.2-0.2-0.3-0.4-0.4-0.7
		c-0.1-0.2-0.2-0.4-0.3-0.6l-1.5-2.6c-0.2-0.3-0.3-0.5-0.3-0.7c-0.1-0.2-0.2-0.4-0.3-0.7c-0.6-1-0.9-2.1-0.9-3.1
		c0-0.4,0.1-1,0.4-1.7s0.6-1.2,0.9-1.6l0.6-0.6l0.1-0.1c0.1-0.3,0.4-0.5,0.6-0.7c0.3-0.2,0.6-0.4,0.9-0.6c0.3-0.2,0.7-0.3,1-0.4
		c0.3-0.1,0.7-0.2,1-0.3c1-0.2,2.1-0.4,3.3-0.4c1.2-0.1,2.3-0.1,3.3-0.1L562.4,51.7z"/>
	<path class="st0" d="M625.2,65.7c-0.3,0.8-0.4,1-0.3,0.4c0-0.3,0-0.4,0-0.3c0,0.1-0.1,0.3-0.2,0.7c0.3,0.1,0.6,0.3,0.8,0.5
		c-0.3,0.5-0.5,1.9-0.7,4s-0.4,3.7-0.7,4.8c-0.2,0.8-0.4,1.6-0.5,2.3c-0.1,0.7-0.3,1.5-0.5,2.3c-0.5,2.1-0.7,4-0.7,5.8
		c0,0.9,0.1,1.9,0.2,2.8c0.1,1,0.1,2,0.3,3.1c0.3,4,0.8,6.1,1.5,6.4c0.7,0.3,1.3,0.7,1.9,1.3c0.5,0.5,0.8,1,1,1.5l-0.4,0.6l-0.7,0.8
		c-0.5,0.6-1,1-1.4,1.1c-0.4,0.1-1.1,0.2-2.1,0.2c-1.7,0-3.1-0.6-4.3-1.9c-1.2-1.2-2.1-2.5-2.8-3.9c-0.7-1.1-1.1-2.1-1.3-2.8
		c-0.5,0.6-1,1.1-1.4,1.6c-0.5,0.5-0.9,0.9-1.3,1.3c-0.4,0.4-0.9,0.7-1.4,1.1s-1.2,0.8-1.9,1.1c-2.5,1.3-5,1.5-7.4,0.7
		c-1-0.3-1.8-0.8-2.6-1.3c-0.8-0.6-1.5-1.2-2.2-1.9c-0.7-0.7-1.3-1.5-1.8-2.3s-1-1.7-1.4-2.6c-1-2.1-1.5-4.7-1.6-7.8
		c-0.1-3.2,0.1-5.8,0.7-8c0.3-1,0.8-2.3,1.5-4.1c0.8-1.7,1.5-3.1,2.2-4l3.5-3.1c0.5-0.3,0.8-0.5,1-0.5s0.5-0.1,1-0.3
		c1.6-0.6,3.4-0.9,5.6-0.8l2.1,0.2c0.4,0,1,0.2,1.9,0.5c0.1,0,0.3,0.1,0.5,0.2c0.2,0.1,0.3,0.1,0.4,0.1l0.9,0.4
		c0.2,0.1,0.3,0.1,0.3,0.1s0.1,0,0.2,0.1c0.1,0,0.1,0.1,0.2,0.1c0.1,0,0.2,0.1,0.3,0.1c-0.2-0.6-0.2-1.2,0-1.8
		c0.4-2.1,0.9-3,1.4-2.9s0.8-0.4,0.9-1.4c1.1-0.1,1.3-0.2,0.6-0.2c-0.6-0.1-0.5-0.1,0.4-0.2c0.4,0,0.6,0,0.7,0.1
		c0.1,0.1,0.2-0.1,0.3-0.7c0.2,0,0.4,0,0.5,0c0.1,0,0.2,0,0.2,0.1c0.1,0,0.1,0,0.1,0.1c0,0,0.1,0,0.2,0l0.6,0.1l1.4,0.1
		c0.3,0,0.6,0.2,1,0.6c0.5,0.6,0.8,0.9,0.9,1.1c0.1,0.2,0.1,0.5,0.1,1c0.5-0.1,0.8-0.2,0.8-0.1l0.2,0.1c0.2,0.1,0.3,0.3,0.4,0.5
		c0.1,0.2,0.2,0.4,0.2,0.6c0.1,0.2,0.1,0.4,0.1,0.7c0,0.2,0,0.4,0.1,0.5c0.1,0.8,0.1,1.1,0,1C624.6,65.5,624.7,65.5,625.2,65.7z
		 M612.3,83.2v-3.3c-0.4,0-0.9-0.1-1.2-0.3c-0.3-0.1-0.5-0.2-0.6-0.2s-0.1-0.1-0.1,0c0.1,0,0.1-0.1-0.2-0.3c-0.5-0.5-1.4-1-2.8-1.6
		c-1.2-0.5-2.1-0.4-2.8,0.4c-0.8,1.1-1.3,2.1-1.6,2.9c-0.1,0.4-0.3,0.9-0.4,1.4c-0.1,0.5-0.3,1-0.4,1.6c-0.2,0.8-0.3,2.1-0.4,3.6
		c0,1.5,0.3,2.7,0.8,3.5c0.4,0.7,0.9,1.2,1.3,1.7c0.5,0.5,1.1,0.6,2,0.3c0.4-0.1,0.8-0.3,1.3-0.6c0.5-0.2,1-0.5,1.6-0.9
		c1.1-0.7,1.9-1.4,2.5-2l0.6-0.8c0.3-0.4,0.4-0.7,0.4-1C612.3,87.6,612.3,83.2,612.3,83.2z M605.1,53.6c0-0.8,0.2-2,0.7-3.5
		c0.3-0.7,0.5-1.4,0.7-2c0.2-0.6,0.4-1.1,0.6-1.5c0.3-0.6,0.5-1.1,0.7-1.5c0.2-0.4,0.4-0.9,0.6-1.5c0.2-0.8,0.6-1.9,1.2-3.1
		c0.3-0.6,0.6-1.1,0.9-1.6c0.3-0.5,0.7-0.8,1-1.1c0.3-0.3,0.8-0.5,1.4-0.8c0.6-0.3,1.2-0.4,1.7-0.4l2.4-0.1c0.2,0,0.4,0.1,0.5,0.1
		s0.1,0,0,0c-0.2,0-0.2,0-0.1,0.1c0.3,0.3,0.5,0.5,0.5,0.5s-0.1,0-0.4-0.3c-0.6-0.4-0.5-0.4,0.2,0c1.2,0.8,1.6,1.1,1,0.9
		c-0.6-0.2-0.3-0.1,0.8,0.5c-0.1,0.3-0.2,0.5-0.2,0.6c0,0.1-0.1,0,0-0.1c0-0.2-0.1-0.1-0.2,0.5c1,0.1,1.5,0.4,1.5,1l-0.1,1.9v0.1
		v0.1c-0.1,1-0.1,1.5,0.1,1.4c0.1-0.1-0.1,0.2-0.5,0.8c-0.7,0.9-0.9,1.3-0.7,1.2c0.3-0.1,0,0.5-0.9,1.9c-0.6,0.9-1.1,1.7-1.5,2.4
		c-0.5,0.7-0.9,1.3-1.3,1.9c-0.8,1-1.6,2.2-2.4,3.6l-1,2.1c-0.8,1.5-1.3,2.2-1.6,2.3s-0.7,0.3-1.2,0.6s-1.2-0.1-2.2-1.4
		C605.7,57.5,605.1,55.7,605.1,53.6z M625.4,66.5L625.4,66.5C625.4,66.4,625.4,66.4,625.4,66.5L625.4,66.5z"/>
	<path class="st0" d="M636.3,111c-0.4,0-0.8,0-1.1-0.1s-0.5-0.2-0.8-0.3c-0.2-0.1-0.4-0.3-0.6-0.5s-0.3-0.4-0.5-0.7l-1.5-3
		c-0.3-1-0.6-2.3-0.9-3.8c-0.3-1.5-0.4-2.8-0.5-3.9l-2.2-28.2c-0.1-2-0.2-4-0.2-6c0-2,0.1-4,0.2-6.1c0.3-4.9,2.1-9.2,5.4-12.8
		l0.6-0.7c0.1-0.1,0.2-0.2,0.3-0.2c0.1-0.1,0.2-0.2,0.3-0.2c0.2-0.2,0.4-0.3,0.6-0.5c0.2-0.1,0.4-0.3,0.7-0.5l2.9-1.7
		c0.8-0.4,1.7-0.7,2.6-0.9c0.9-0.2,1.8-0.3,2.7-0.3c0.9,0,1.8,0,2.7,0.1c0.9,0.1,1.8,0.2,2.6,0.4c0.7,0.2,1.2,0.4,1.6,0.6
		c0.2,0.1,0.4,0.2,0.6,0.4s0.5,0.3,0.8,0.5c1.9,1.3,3.3,2.9,4.3,4.8c1.6,3.1,2,6.5,1.3,10s-2,6.7-3.9,9.6c0.5,0.1,1.4,0.3,2.6,0.8
		c0.6,0.2,1.1,0.4,1.6,0.6s0.8,0.3,1,0.4l3.1,2.2c0,0.1,0,0.1,0.1,0.1l2.2,3.1c0.1,0.2,0.2,0.4,0.2,0.6c0.1,0.2,0.1,0.3,0.2,0.5
		c0.1,0.2,0.1,0.3,0.2,0.5c0.1,0.2,0.1,0.4,0.2,0.7c0.3,1.4,0.4,2.1,0.3,2c0,0,0,0.3-0.1,1.2c0,0.4-0.1,0.8-0.1,1.1
		c0,0.3,0,0.4,0,0.5c0,0.2-0.2,0.8-0.6,1.8l-0.1,0.4c-0.4,1-0.7,1.7-1,2.1l-1.2,1.8l-0.9,1.2l-0.6,0.6c-0.6,0.7-1,1.1-1,1.2
		c-0.1,0.1-0.5,0.6-1.4,1.4l-0.1,0.1c0,0,0,0-0.1,0l-0.9,0.9l-0.3,0.3l-6.2,4.4c-0.5,0.3-1,0.5-1.4,0.6c-0.7,0.2-1.4,0.5-2.1,0.7
		s-1.4,0.5-2,0.8c-1.3,0.5-3,0.9-4.9,1.1c-1.4,0.2-2.1,0.2-2.3,0.2c-0.1,0-0.2,0.2-0.3,0.8c-0.1,0.2-0.1,0.5-0.1,0.8
		s-0.1,0.7-0.1,0.9l-0.6,3.2c-0.1,0.3-0.1,0.6-0.2,0.9c-0.1,0.3-0.1,0.6-0.2,0.8c-0.4,1.5-0.6,2.1-0.7,2
		C636.6,110.1,636.5,110.3,636.3,111z M639.3,64.5c0.5-0.3,1-0.7,1.6-1c0.5-0.3,1.1-0.7,1.6-1.1l1.4-1.4c0.5-0.5,0.8-0.8,0.8-1
		c0-0.1,0.2-0.4,0.6-1l0.3-0.4c0.2-0.3,0.3-0.4,0.3-0.3c0,0.1,0-0.1,0.2-0.6c0.1-0.2,0.1-0.6,0.2-1c0.1-0.4,0.2-1,0.3-1.6
		c0.3-1.2,0.1-2.1-0.3-2.5c-0.3-0.3-0.8-0.3-1.7-0.2c-0.8,0.2-1.4,0.4-1.7,0.6c-1.6,1.2-2.5,3-2.9,5.2
		C639.5,60.5,639.3,62.6,639.3,64.5z M639.3,77.4c0,0.4,0,0.8,0,1c0,0.3,0,0.5,0,0.6c0.1,0.2,0.1,0.6,0,1.1l0.2,8L641,88
		c1.2-0.1,2.4-0.3,3.4-0.6c1.1-0.3,2.2-0.6,3.3-0.9c1.6-0.5,3.1-1.5,4.4-2.9l0.3-0.3c0.3-0.3,0.6-0.6,0.9-1c0.3-0.3,0.6-0.7,1-1.2
		c0.7-0.9,1.1-1.7,1.3-2.4c-1-0.5-2.1-1-3.1-1.2c-1-0.3-2-0.5-3.1-0.7c-0.3,0-0.4-0.1-0.5-0.1s-0.1,0,0,0s0.1,0,0,0s-0.3,0-0.5,0
		c-0.1,0-0.2,0-0.4,0s-0.3,0-0.5,0c-0.6,0-1,0.1-1.5,0.1c-0.4,0-0.8,0-1.2,0c-0.4,0-0.7,0-1.1,0.1c-0.3,0-0.7,0.1-1.1,0.2
		c-1,0.2-1.4,0.2-1.2,0.1C641.9,76.9,641.1,77,639.3,77.4z"/>
	<path class="st0" d="M675.4,111c-0.4,0-0.8,0-1.1-0.1s-0.5-0.2-0.8-0.3c-0.2-0.1-0.4-0.3-0.6-0.5s-0.3-0.4-0.5-0.7l-1.5-3
		c-0.3-1-0.6-2.3-0.9-3.8c-0.3-1.5-0.4-2.8-0.5-3.9l-2.2-28.2c-0.1-2.1-0.2-4.1-0.2-6c0-2,0.1-4,0.2-6.1c0.3-4.9,2.1-9.2,5.4-12.8
		l0.6-0.7c0.1-0.1,0.2-0.2,0.3-0.2c0.1-0.1,0.2-0.2,0.3-0.2c0.2-0.2,0.4-0.3,0.6-0.5c0.2-0.1,0.4-0.3,0.7-0.5l2.9-1.7
		c0.8-0.4,1.7-0.7,2.6-0.9c0.9-0.2,1.8-0.3,2.7-0.3c0.9,0,1.8,0,2.7,0.1c0.9,0.1,1.8,0.2,2.6,0.4c0.7,0.2,1.2,0.4,1.6,0.6
		c0.2,0.1,0.4,0.2,0.6,0.4s0.5,0.3,0.8,0.5c1.9,1.3,3.3,2.9,4.3,4.8c1.6,3.1,2,6.5,1.3,10c-0.7,3.5-2,6.7-3.9,9.6
		c0.5,0.1,1.4,0.3,2.6,0.8c0.6,0.2,1.1,0.4,1.6,0.6s0.8,0.3,1,0.4l3.1,2.2c0,0.1,0,0.1,0.1,0.1l2.2,3.1c0.1,0.2,0.2,0.4,0.2,0.6
		c0.1,0.2,0.1,0.3,0.2,0.5c0.1,0.2,0.1,0.3,0.2,0.5c0.1,0.2,0.1,0.4,0.2,0.7c0.3,1.4,0.4,2.1,0.3,2c0,0,0,0.3-0.1,1.2
		c0,0.4-0.1,0.8-0.1,1.1c0,0.3,0,0.4,0,0.5c0,0.2-0.2,0.8-0.6,1.8l-0.1,0.4c-0.4,1-0.7,1.7-1,2.1l-1.2,1.8l-0.9,1.2l-0.6,0.6
		c-0.6,0.7-1,1.1-1,1.2c-0.1,0.1-0.5,0.6-1.4,1.4l-0.1,0.1c0,0,0,0-0.1,0l-0.9,0.9l-0.3,0.3l-6.2,4.4c-0.5,0.3-1,0.5-1.4,0.6
		c-0.7,0.2-1.4,0.5-2.1,0.7c-0.7,0.2-1.4,0.5-2,0.8c-1.3,0.5-3,0.9-4.9,1.1c-1.4,0.2-2.1,0.2-2.3,0.2c-0.1,0-0.2,0.2-0.3,0.8
		c-0.1,0.2-0.1,0.5-0.1,0.8s-0.1,0.7-0.1,0.9l-0.6,3.2c-0.1,0.3-0.1,0.6-0.2,0.9s-0.1,0.6-0.2,0.8c-0.4,1.5-0.6,2.1-0.7,2
		C675.7,110.1,675.6,110.3,675.4,111z M678.4,64.5c0.5-0.3,1-0.7,1.6-1c0.5-0.3,1.1-0.7,1.6-1.1L683,61c0.5-0.5,0.8-0.8,0.8-1
		c0-0.1,0.2-0.4,0.6-1l0.3-0.4c0.2-0.3,0.3-0.4,0.3-0.3c0,0.1,0-0.1,0.2-0.6c0.1-0.2,0.1-0.6,0.2-1s0.2-1,0.3-1.6
		c0.3-1.2,0.1-2.1-0.3-2.5c-0.3-0.3-0.8-0.3-1.7-0.2c-0.8,0.2-1.4,0.4-1.7,0.6c-1.6,1.2-2.5,3-2.9,5.2
		C678.6,60.5,678.4,62.6,678.4,64.5z M678.4,77.4c0,0.4,0,0.8,0,1c0,0.3,0,0.5,0,0.6c0.1,0.2,0.1,0.6,0,1.1l0.2,8l1.5-0.1
		c1.2-0.1,2.4-0.3,3.4-0.6c1.1-0.3,2.2-0.6,3.3-0.9c1.6-0.5,3.1-1.5,4.4-2.9l0.3-0.3c0.3-0.3,0.6-0.6,0.9-1c0.3-0.3,0.6-0.7,1-1.2
		c0.7-0.9,1.1-1.7,1.3-2.4c-1-0.5-2.1-1-3.1-1.2c-1-0.3-2-0.5-3.1-0.7c-0.3,0-0.4-0.1-0.5-0.1c-0.1,0-0.1,0,0,0c0.1,0,0.1,0,0,0
		c-0.1,0-0.3,0-0.5,0c-0.1,0-0.2,0-0.4,0s-0.3,0-0.5,0c-0.6,0-1,0.1-1.5,0.1c-0.4,0-0.8,0-1.2,0c-0.4,0-0.7,0-1.1,0.1
		c-0.3,0-0.7,0.1-1.1,0.2c-1,0.2-1.4,0.2-1.2,0.1C681,76.9,680.2,77,678.4,77.4z"/>
	<path class="st0" d="M739.6,65.7c-0.3,0.8-0.4,1-0.3,0.4c0-0.3,0-0.4,0-0.3c0,0.1-0.1,0.3-0.2,0.7c0.3,0.1,0.6,0.3,0.8,0.5
		c-0.3,0.5-0.5,1.9-0.7,4s-0.4,3.7-0.7,4.8c-0.2,0.8-0.4,1.6-0.5,2.3c-0.1,0.7-0.3,1.5-0.5,2.3c-0.5,2.1-0.7,4-0.7,5.8
		c0,0.9,0.1,1.9,0.2,2.8c0.1,1,0.1,2,0.3,3.1c0.3,4,0.8,6.1,1.5,6.4c0.7,0.3,1.3,0.7,1.9,1.3c0.5,0.5,0.8,1,1,1.5l-0.4,0.6l-0.7,0.8
		c-0.5,0.6-1,1-1.4,1.1c-0.4,0.1-1.1,0.2-2.1,0.2c-1.7,0-3.1-0.6-4.3-1.9c-1.2-1.2-2.1-2.5-2.8-3.9c-0.7-1.1-1.1-2.1-1.3-2.8
		c-0.5,0.6-1,1.1-1.4,1.6c-0.5,0.5-0.9,0.9-1.3,1.3c-0.4,0.4-0.9,0.7-1.4,1.1s-1.2,0.8-1.9,1.1c-2.5,1.3-5,1.5-7.4,0.7
		c-1-0.3-1.8-0.8-2.6-1.3c-0.8-0.6-1.5-1.2-2.2-1.9c-0.7-0.7-1.3-1.5-1.8-2.3s-1-1.7-1.4-2.6c-1-2.1-1.5-4.7-1.6-7.8
		c-0.1-3.2,0.1-5.8,0.7-8c0.3-1,0.8-2.3,1.5-4.1c0.8-1.7,1.5-3.1,2.2-4l3.5-3.1c0.5-0.3,0.8-0.5,1-0.5s0.5-0.1,1-0.3
		c1.6-0.6,3.4-0.9,5.6-0.8l2.1,0.2c0.4,0,1,0.2,1.9,0.5c0.1,0,0.3,0.1,0.5,0.2c0.2,0.1,0.3,0.1,0.4,0.1l0.9,0.4
		c0.2,0.1,0.3,0.1,0.3,0.1s0.1,0,0.2,0.1c0.1,0,0.1,0.1,0.2,0.1c0.1,0,0.2,0.1,0.3,0.1c-0.2-0.6-0.2-1.2,0-1.8
		c0.4-2.1,0.9-3,1.4-2.9s0.8-0.4,0.9-1.4c1.1-0.1,1.3-0.2,0.6-0.2c-0.6-0.1-0.5-0.1,0.4-0.2c0.4,0,0.6,0,0.7,0.1s0.2-0.1,0.3-0.7
		c0.2,0,0.4,0,0.5,0c0.1,0,0.2,0,0.2,0.1c0.1,0,0.1,0,0.1,0.1c0,0,0.1,0,0.2,0l0.6,0.1l1.4,0.1c0.3,0,0.6,0.2,1,0.6
		c0.5,0.6,0.8,0.9,0.9,1.1c0.1,0.2,0.1,0.5,0.1,1c0.5-0.1,0.8-0.2,0.8-0.1l0.2,0.1c0.2,0.1,0.3,0.3,0.4,0.5c0.1,0.2,0.2,0.4,0.2,0.6
		c0.1,0.2,0.1,0.4,0.1,0.7c0,0.2,0,0.4,0.1,0.5c0.1,0.8,0.1,1.1,0,1C739,65.5,739.2,65.5,739.6,65.7z M726.8,83.2v-3.3
		c-0.4,0-0.9-0.1-1.2-0.3c-0.3-0.1-0.5-0.2-0.6-0.2s-0.1-0.1-0.1,0c0.1,0,0.1-0.1-0.2-0.3c-0.5-0.5-1.4-1-2.8-1.6
		c-1.2-0.5-2.1-0.4-2.8,0.4c-0.8,1.1-1.3,2.1-1.6,2.9c-0.1,0.4-0.3,0.9-0.4,1.4s-0.3,1-0.4,1.6c-0.2,0.8-0.3,2.1-0.4,3.6
		c0,1.5,0.3,2.7,0.8,3.5c0.4,0.7,0.9,1.2,1.3,1.7c0.5,0.5,1.1,0.6,2,0.3c0.4-0.1,0.8-0.3,1.3-0.6c0.5-0.2,1-0.5,1.6-0.9
		c1.1-0.7,1.9-1.4,2.5-2l0.6-0.8c0.3-0.4,0.4-0.7,0.4-1L726.8,83.2L726.8,83.2z M739.9,66.5L739.9,66.5
		C739.9,66.4,739.9,66.4,739.9,66.5L739.9,66.5z"/>
	<path class="st0" d="M746.4,70.6c-0.3,0-0.6,0-1,0c-0.4,0-0.8-0.1-1.2-0.1c-0.8-0.1-1.5-0.3-2-0.6c-0.8-0.5-1.3-0.8-1.4-0.8
		c-0.1,0-0.4-0.3-0.7-0.9L740,68c0,0,0,0,0-0.1l-0.1-0.1c-0.2-0.3-0.3-0.4-0.4-0.4s-0.1-0.2-0.3-0.5c0,0,0,0,0-0.1v-0.1
		c-0.2-1.4,0.5-2.4,2.1-3.1l3.7-1.7c0.4-0.2,0.7-0.3,1-0.5s0.7-0.3,1.1-0.5l4.7-1.4c2.5-0.6,4.6-1.1,6.2-1.4
		c1.6-0.3,3.9-0.5,6.9-0.5c1.1,0,2.3,0,3.3,0c1.1,0,2.2,0,3.3,0c2.2,0,4.1,1,5.6,3.1c0,0.1,0.1,0.1,0.1,0.2l0.6,2.1
		c0.1,0.6,0.3,0.8,0.3,0.6c0.1-0.2,0.1,0-0.1,0.7c0,0.2-0.1,0.5-0.3,0.9c-0.2,0.5-0.3,0.7-0.3,0.8s-0.1,0.3-0.1,0.4
		c0,0.1,0,0.2,0,0.3s0,0.2,0,0.4c0,0.1,0,0.3-0.1,0.6h-0.1h-0.3l0,0l0,0l0,0c-0.2,0.1-0.3,0.2-0.4,0.3c-0.3,0.3-0.3,0.5-0.3,0.5
		c0.1,0,0,0.2-0.1,0.6h-0.8c-0.1-0.7-0.1-1,0-0.8c0.1,0.2-0.1,0.2-0.5,0c0.1,0.4-0.1,0.8-0.7,1.1c-0.9,0.5-1.4,0.8-1.6,0.7
		s-0.5-0.2-1.1-0.4c-0.2,0-0.3-0.1-0.4-0.1c-0.1,0-0.3,0-0.6-0.1c-0.1,0.2-0.2,0.2-0.2,0.1s0-0.1,0,0.1c0,0.1,0.1,0.3,0.2,0.6
		l-4.5-0.3H764c-0.5,2.2-1.2,4.3-2.2,6.4c-1,2.2-1.4,4.2-1.5,6c-0.1,1.7-0.2,3.6-0.4,5.6c-0.2,1.9,0.5,3.6,2.1,4.9l0.3,0.2l0.2,0.1
		c0.8,0.6,1.9,1,3.2,1.2c0.7,0.1,1.3,0.2,1.9,0.2c0.6,0.1,1.2,0.1,1.7,0.1c1.9,0.1,2.9,0.3,2.9,0.5c0.1,0.2,0.5,0.4,1.1,0.5
		c-0.1,2-1.9,3.8-5.4,5.2c-3.5,1.5-7.3,0.9-11.3-1.8c-0.3-0.2-0.5-0.3-0.7-0.4s-0.4-0.3-0.6-0.4s-0.3-0.3-0.5-0.4s-0.3-0.3-0.5-0.6
		c-2.3-2.8-3.6-4.8-3.7-6.2c-0.1-1.3-0.4-3.6-1-6.9c-0.2-1.3-0.2-2.8-0.1-4.5c0.1-1.7,0.4-3.2,0.8-4.6l0.9-5.1L746.4,70.6z"/>
	<path class="st0" d="M773.5,82.3c0-2.1,0.6-4,1.8-5.7c0.6-0.9,1.2-1.7,1.7-2.4c0.6-0.7,1.1-1.4,1.7-2.1l0.5-0.5
		c1-1.2,2.4-2.3,4.2-3.4c1.8-1.1,3.3-1.7,4.5-1.9c0.5-0.1,1-0.1,1.4-0.1s0.7,0,0.9-0.1c1.5,0,2.2-0.1,2-0.1c-0.1,0,0.1-0.1,0.6,0
		c0.5,0,1.4,0,2.7,0.1h0.4c2.1,0.1,4,0.8,5.7,2.3c1.7,1.3,3.1,2.9,4.2,4.6c0.1,0.1,0.1,0.2,0.1,0.2l0.7,1.6c0.1,0.4,0.3,0.8,0.4,1.3
		c0.1,0.5,0.3,0.9,0.4,1.4s0.2,1,0.3,1.5s0.1,1,0.1,1.5l-0.2,2.8c0,0.7-0.1,1.2-0.1,1.6s0,0.8,0,1c0,1.4,0,2.6,0,3.5
		c-0.1,0.9-0.2,1.6-0.3,2c-0.3,0.8-0.9,2.3-2,4.4c-0.3,0.6-0.6,1-0.7,1.2c-0.1,0.1-0.2,0.2-0.3,0.4c-0.1,0.1-0.3,0.3-0.6,0.6
		l-0.3,0.3l-0.1,0.1c-0.8,0.8-1.9,1.4-3.2,1.7c-0.6,0.1-1.2,0.3-1.8,0.4c-0.6,0.1-1.2,0.2-1.8,0.2c-1.9,0.2-3.2,0.7-4.1,1.3
		c-0.8,0.7-2.7,0.4-5.6-0.8l-3-1.5c-0.4-0.2-0.7-0.3-0.9-0.5c-0.3-0.2-0.5-0.4-0.8-0.6c-0.3-0.2-0.5-0.5-0.8-0.7s-0.6-0.5-0.9-0.8
		l-0.7-0.6c-0.1,0-0.1,0-0.1-0.1l-1.2-1.1c-1.5-1.4-2.6-3.3-3.4-5.9C773.9,86.2,773.5,84.1,773.5,82.3z M796.5,95.2
		c0.3,0,0.7-0.3,1.2-0.9c1.5-1.8,2.2-3.3,2.1-4.3c-0.1-1-0.1-2-0.2-2.9c0-0.6-0.1-1.2-0.1-1.8c0-0.6,0-1.1-0.1-1.5
		c-0.3-2.5-0.8-3.9-1.5-4.4c-0.6-0.5-1.5-0.9-2.7-1.3c-0.7-0.3-1.7-0.4-3-0.3c-0.7,0-1.2,0.1-1.6,0.1c-0.4,0.1-0.8,0.2-1,0.3
		l-2.8,2.3c-0.3,0.2-0.4,0.3-0.6,0.4c-0.1,0.1-0.3,0.3-0.5,0.5c-1.1,1.2-1.5,2.6-1.2,4.2c0.3,1.6,0.9,2.9,1.7,4l2.4,2.4
		c0,0.1,0,0.1,0.1,0.1l0.3,0.2c0.7,0.6,1.3,1.2,1.8,1.9c0.6,0.7,1,1,1.3,1L796.5,95.2L796.5,95.2z"/>
	<path class="st0" d="M813,89.1c0.8,0,1.3,0.1,1.5,0.3c0.1,0.2,0.5,0.3,1.2,0.3c0,0,0.1,0,0.2,0s0.1,0,0.2,0s0.2,0,0.4-0.1
		c0.5-0.1,1,0,1.5,0.4c0.1,0.1,0.2,0.2,0.3,0.3l0,0c-0.1-0.1-0.1,0,0,0.2c0,0.1-0.1,0.1-0.2,0.1c-0.1,0,0.1,0.2,0.6,0.6l1.3,1
		c0.4,0.2,0.6,0.2,0.5,0.2c-0.1-0.1-0.2-0.2-0.2-0.2c0.3-0.2,0.5-0.3,0.5-0.3s-0.1,0-0.4,0.1c-0.3,0.1-0.4,0.2-0.4,0.1
		c0,0,0.2-0.1,0.6-0.2c0.1,0.8,0.2,1.2,0.3,1c0.2-0.2,0.2,0.1,0,1c-0.3,1.2-0.1,1.7,0.3,1.7c0.5,0,0.1,1.7-1.1,5.1l-4,8.6
		c-0.5,0.7-0.9,1.4-1.3,2.1c-0.2,0.3-0.4,0.7-0.7,1.1c-0.3,0.4-0.6,0.8-0.9,1.3c-0.1,0.2-0.3,0.3-0.3,0.4c-0.1,0.1-0.2,0.2-0.3,0.4
		c-1,1.4-1.8,2.2-2.6,2.3c-0.8,0.2-1.1-0.9-1.1-3.2c0-2.7,0.2-4.9,0.5-6.7c0.3-1.7,0.5-3.7,0.5-5.8c0-1.2-0.1-2.1-0.3-2.5
		c-0.1-0.2-0.2-0.5-0.3-0.8c-0.1-0.3-0.3-0.8-0.4-1.2l0.1-2.2c0.3-0.6,0.3-0.9,0.2-0.9c-0.2,0-0.1-0.3,0.3-0.8l2.6-2.7
		c0.3-0.1,0.6-0.2,0.7-0.1C812.8,89.8,812.9,89.6,813,89.1z M820.5,95.2C820.4,95.2,820.5,95.3,820.5,95.2L820.5,95.2z M820.5,95.7
		C820.4,95.7,820.5,95.7,820.5,95.7L820.5,95.7z"/>
	<path class="st0" d="M881.1,54.4c0.4,0.8,0.5,1.5,0.4,2.2c-0.1,0.5-0.2,0.7-0.2,0.7c0-0.1-0.2,0-0.4,0.3l-1.2,1.6
		c-0.4,0.5-0.9,0.8-1.6,1l-0.4,0.2v0.1h-1.5c-0.2,0.4-0.3,0.6-0.4,0.6l-9.2,0.2h-0.1c0,0,0,0-0.1,0l-6.9-0.5l-0.3,4.5
		c0,0.3-0.1,0.5-0.1,0.7c0,0.2-0.1,0.6-0.1,1.1c0,0.2,0,0.4,0,0.6c0,0.1,0,0.3,0,0.3c0,0.1,0,0.4-0.1,0.9c0.7,0,1.4,0.1,2.1,0.2
		c0.7,0.1,1.4,0.3,2.2,0.4c0.7,0.2,1.4,0.3,2.1,0.5c0.7,0.2,1.4,0.4,2.1,0.5l1.7,0.7l0.6,0.2l2.9,1.7c1.8,1.5,3.3,3.1,4.4,4.8
		c1.1,1.6,1.5,3.8,1.3,6.5c-0.1,1.5-0.5,3-1.2,4.8s-1.3,3.1-1.9,4c-1.7,2.2-3.8,4.1-6.4,5.7c-2.9,1.7-5.9,2.8-8.9,3.2
		c-2.8,0.4-5.2,0-7.5-1.1c-0.7-0.3-1.3-0.6-1.9-1c-0.3-0.2-0.6-0.5-0.9-0.8l-2.4-1.9c-0.3-0.2-0.6-0.4-0.9-0.6
		c-0.3-0.2-0.6-0.4-0.8-0.7c-0.2-0.2-0.5-0.5-0.7-0.8c-0.2-0.3-0.3-0.6-0.4-1c0.9-0.5,2.1-0.7,3.5-0.7s2.6,0.2,3.6,0.6
		c2.1,0.8,4.4,1,6.8,0.5c2.5-0.5,4.6-1.4,6.2-2.5l0.4-0.3l0.4-0.3c1-0.8,2-2.2,3-4.3c1.1-2.1,0.8-3.5-0.8-4.4
		c-0.3-0.1-0.6-0.3-1-0.4c-0.4-0.1-0.7-0.3-1.1-0.4c-0.3-0.1-0.6-0.2-1-0.3c-0.4-0.1-0.9-0.2-1.4-0.4c-1-0.3-1.9-0.4-2.5-0.4
		c-3.4,0-5.1,0.1-5.3,0.3c-0.1,0.2-1.1,0.6-2.9,1.4c-0.5,0.2-0.9,0.4-1.2,0.5s-0.5,0.2-0.6,0.2c-0.1,0-0.7-0.1-1.6-0.3
		c-0.2,0.6-0.2,0.9,0.2,0.9c0.4,0,0.2,0-0.7,0.1c-0.1-0.2-0.2-0.4-0.2-0.5s0-0.1,0,0c0.1,0.1-0.2,0.1-0.9-0.2
		c-0.7-0.2-1.4-0.8-1.9-1.7l-0.9-1.5c-0.1-0.3-0.3-0.9-0.4-1.8l-0.1-0.6c-0.3-1.4-0.1-2.6,0.6-3.7s1.1-2.4,1.3-4l0.2-0.9
		c0.2-0.9,0.3-2.7,0.4-5.2c0-1.3,0.1-2.4,0-3.4c0-1,0-1.8-0.1-2.4c0-0.3-0.1-0.6-0.1-1c0-0.3-0.1-0.7-0.2-1
		c-0.1-0.7-0.2-1.3-0.1-1.7c0.1-0.6,0.1-0.9-0.1-0.9c-0.2,0-0.1-0.6,0.5-1.6c0.3-0.5,0.4-0.8,0.3-0.8c-0.1,0,0.2,0,0.7-0.1
		c0-0.3,0.1-0.5,0.1-0.7c0-0.1,0-0.1,0,0c0,0.2,0.1,0.1,0.3-0.2c0.4-0.5,0.8-0.8,1.3-1s0.9-0.4,1.3-0.7c0.9-0.5,2.4-0.7,4.4-0.5
		c1,0.1,2,0.2,2.8,0.2c0.9,0.1,1.7,0.1,2.5,0.1c0.5,0,1.1,0,1.7,0c0.6,0,1.4,0,2.3,0.1l6.8,0.4c0,0,0,0,0.1,0h0.1l2.1-0.1h0.7
		c0.7,0,1.4,0,2.3,0.1c0.8,0.1,1.6,0.3,2.2,0.7l1,0.7l1.2,1c0.5,0.5,0.9,1.2,1.1,2l0.3,0.7c0,0.1,0,0.2,0.1,0.1c0,0,0.1,0.1,0.1,0.4
		C881.7,54,881.4,54.1,881.1,54.4z"/>
	<path class="st0" d="M905.9,59.8c0-1,0.1-1.7,0.4-2.2s0.2-1.2-0.2-2.3c0,0,0,0,0-0.1l0,0l0,0c0-0.2-0.1-0.4-0.1-0.7s0-0.6,0-1.1
		c0-0.8,0.1-1.4,0.2-1.9c0-0.2,0.1-0.3,0.1-0.4c0-0.1,0-0.1,0,0c0.1,0,0.1,0,0.1-0.1c0,0,0,0,0.1-0.2l0.3-0.6
		c0.1-0.2,0.2-0.3,0.3-0.4c0.1-0.1,0.2-0.2,0.3-0.3l2.8-1.6c0.4-0.1,0.8-0.2,1.1-0.2c0.1,0,0.3,0,0.4,0.1c0.1,0.1,0.3,0.1,0.6,0.1
		c1.6,0.1,2.3,0.1,2.1,0c-0.1,0,0,0,0.3,0.2s0.9,0.5,1.7,1l0.8,0.8c0.2,0.3,0.2,0.3,0,0.1c-0.1-0.1-0.1-0.2-0.1-0.1
		c0,0,0.1,0.1,0.3,0.2l1.1,1.6c0.4,0.6,0.7,1.2,0.9,1.6c0.1,0.4,0.4,0.8,0.7,1.2c0.2,0.2,0.3,0.4,0.4,0.6c0.1,0.2,0.2,0.3,0.2,0.3
		c0.1,0.1,0.2,0.4,0.4,1c0.2,0.5,0.4,1.1,0.7,1.7c0.3,0.6,0.7,1.3,1.1,2c0.9,1.4,1.7,2.5,2.5,3.3c0.8,0.9,1.4,1.8,1.9,2.8
		s1.1,1.9,1.8,2.8l2.4,4l0.3,0.4c0,0,0,0.1,0.1,0.2c0,0.1,0.1,0.1,0.1,0.1l1,2.1c0,0.1,0,0.1,0.1,0.2c0,0.1,0.1,0.1,0.1,0.2
		c0,0,0,0.1,0.1,0.2c0.1,0.1,0.1,0.2,0.1,0.3l5.3,10.5c0.1,0.3,0.2,0.4,0.2,0.5s0.1,0.3,0.2,0.5l0.4,0.8c0-0.8,0-1.7-0.1-2.5
		s-0.1-1.6-0.2-2.4s-0.2-1.6-0.3-2.3c-0.1-0.8-0.1-1.6-0.2-2.4v-7.9c0-0.2,0-0.4-0.1-0.6c0-0.2,0-0.4,0-0.5V53.8
		c0.1-0.5,0.2-0.8,0.3-0.8c0.1,0,0.2-0.1,0.3-0.4c0.2-0.5,0.3-0.9,0.2-1.2c0-0.3,0.3-0.7,1.1-1.3l0.9-0.8c0.6-0.9,1-1.1,1.3-0.8
		c0.3,0.3,0.6,0.1,0.8-0.7c0.5,0,0.8,0.1,0.9,0.2c0,0,0.1,0.1,0.1,0.3c0.1,0.1,0.1,0.3,0.2,0.5l1.6-0.2c0.4,0,0.5-0.1,0.3-0.2
		c-0.2-0.1,0-0.1,0.6,0.1c0.4,0.2,0.9,0.5,1.4,1.1c0.4,0.4,0.6,0.7,0.7,0.8s0.1,0.1,0,0c-0.1-0.2-0.1-0.2,0-0.2s0.3,0.2,0.6,0.4
		c0.7,0.6,1,1.3,0.9,2.1V55c0.2,0.1,0.3,0,0.3-0.3s0.1-0.3,0.5,0c0.2,0.2,0.1,0.9-0.1,2.3c-0.2,1.3-0.3,2-0.3,2.1s0,0.3,0,0.4
		c0,0.1,0,0.2,0,0.2l-2.7,23.5c-0.1,0.7-0.3,1.7-0.6,3c-0.3,1.3-0.6,2.8-1,4.6c-0.4,1.8-0.8,3.3-1.1,4.6c-0.3,1.2-0.6,2.2-0.9,3
		l-1.2,2.4c-0.4-0.3-0.8-0.5-1-0.8s-0.5-0.6-0.8-1c-0.4-0.4-0.5-0.6-0.5-0.5s-0.1,0-0.5-0.2c-1.5-0.8-2.9-1.8-4.4-3.2
		c-0.7-0.7-1.4-1.4-2-2c-0.6-0.7-1.1-1.3-1.6-2c-0.2-0.2-0.3-0.4-0.4-0.5c-0.1-0.1-0.2-0.3-0.3-0.4c-0.1-0.1-0.2-0.3-0.3-0.4
		s-0.3-0.3-0.4-0.5c-0.1-0.1-0.2-0.3-0.3-0.4c0-0.1-0.1-0.1-0.1-0.1l-0.3-0.4l-4.2-4.4c-0.5-0.5-1-1-1.4-1.6
		c-0.4-0.5-0.8-1.1-1.2-1.7c-0.4-0.6-0.8-1.1-1.2-1.7s-0.8-1.1-1.3-1.7c-0.2-0.3-0.4-0.4-0.4-0.4s0.1,0.1,0.3,0.3
		c0.2,0.2,0.3,0.3,0.3,0.3s-0.1-0.2-0.4-0.4l-3.7-4.2c0,0.6,0,0.9,0,1c0,0.2,0.1,0.4,0.1,0.8v1.7L918,81c0,0.3,0,0.5,0.1,0.7
		c0,0.2,0.1,0.6,0.1,1c0,0.8-0.1,1.7-0.2,2.7c-0.1,1-0.2,2.2-0.4,3.5l-0.9,6.2l-1.2,6c-0.1,0.3-0.3,0.6-0.4,0.7
		c-0.1,0.2-0.2,0.4-0.3,0.7c-0.6-0.1-1-0.2-1.2-0.5s-0.4-0.6-0.6-1.1c-1.1-2.5-1.9-5.2-2.3-8.2c-0.4-2.9-0.8-5.7-1-8.5
		c0-0.3-0.1-0.7-0.2-1.1c-0.1-0.4-0.1-0.9-0.2-1.4c0-0.4-0.1-0.6-0.1-0.8c0-0.2,0-0.3,0-0.4c0-0.1,0-0.2,0-0.4
		c0-0.2-0.1-0.5-0.1-0.8l-1-8.4c0-0.4,0-0.8-0.1-1.3s-0.1-1-0.2-1.5s-0.1-1-0.2-1.5s-0.1-1-0.1-1.5L905.9,59.8z M907.6,49.9
		C907.6,49.8,907.6,49.8,907.6,49.9L907.6,49.9z M912.5,47.7L912.5,47.7L912.5,47.7L912.5,47.7z M945.3,49.3L945.3,49.3
		C945.3,49.4,945.3,49.4,945.3,49.3L945.3,49.3L945.3,49.3z"/>
	<path class="st0" d="M952.3,82.3c0-2.1,0.6-4,1.8-5.7c0.6-0.9,1.2-1.7,1.7-2.4c0.6-0.7,1.1-1.4,1.7-2.1l0.5-0.5
		c1-1.2,2.4-2.3,4.2-3.4c1.8-1.1,3.3-1.7,4.5-1.9c0.5-0.1,1-0.1,1.4-0.1c0.4,0,0.7,0,0.9-0.1c1.5,0,2.2-0.1,2-0.1
		c-0.1,0,0.1-0.1,0.6,0c0.5,0,1.4,0,2.7,0.1h0.4c2.1,0.1,4,0.8,5.7,2.3c1.7,1.3,3.1,2.9,4.2,4.6c0.1,0.1,0.1,0.2,0.1,0.2l0.7,1.6
		c0.1,0.4,0.3,0.8,0.4,1.3s0.3,0.9,0.4,1.4c0.1,0.5,0.2,1,0.3,1.5s0.1,1,0.1,1.5l-0.2,2.8c0,0.7-0.1,1.2-0.1,1.6s0,0.8,0,1
		c0,1.4,0,2.6,0,3.5c-0.1,0.9-0.2,1.6-0.3,2c-0.3,0.8-0.9,2.3-2,4.4c-0.3,0.6-0.6,1-0.7,1.2c-0.1,0.1-0.2,0.2-0.3,0.4
		c-0.1,0.1-0.3,0.3-0.6,0.6l-0.3,0.3l-0.1,0.1c-0.8,0.8-1.9,1.4-3.2,1.7c-0.6,0.1-1.2,0.3-1.8,0.4s-1.2,0.2-1.8,0.2
		c-1.9,0.2-3.2,0.7-4.1,1.3c-0.8,0.7-2.7,0.4-5.6-0.8l-3-1.5c-0.4-0.2-0.7-0.3-0.9-0.5c-0.3-0.2-0.5-0.4-0.8-0.6s-0.5-0.5-0.8-0.7
		s-0.6-0.5-0.9-0.8l-0.7-0.6c-0.1,0-0.1,0-0.1-0.1l-1.2-1.1c-1.5-1.4-2.6-3.3-3.4-5.9C952.6,86.2,952.3,84.1,952.3,82.3z
		 M975.2,95.2c0.3,0,0.7-0.3,1.2-0.9c1.5-1.8,2.2-3.3,2.1-4.3c-0.1-1-0.1-2-0.2-2.9c0-0.6-0.1-1.2-0.1-1.8c0-0.6,0-1.1-0.1-1.5
		c-0.3-2.5-0.8-3.9-1.5-4.4c-0.6-0.5-1.5-0.9-2.7-1.3c-0.7-0.3-1.7-0.4-3-0.3c-0.7,0-1.2,0.1-1.6,0.1c-0.4,0.1-0.8,0.2-1,0.3
		l-2.8,2.3c-0.3,0.2-0.4,0.3-0.6,0.4c-0.1,0.1-0.3,0.3-0.5,0.5c-1.1,1.2-1.5,2.6-1.2,4.2c0.3,1.6,0.9,2.9,1.7,4l2.4,2.4
		c0,0.1,0,0.1,0.1,0.1l0.3,0.2c0.7,0.6,1.3,1.2,1.8,1.9c0.6,0.7,1,1,1.3,1L975.2,95.2L975.2,95.2z"/>
	<path class="st0" d="M1016,82.9c0,0.4-0.1,0.8-0.4,0.9c-0.3,0.1-0.5,0.5-0.7,0.9c-0.1,0.2-0.1,0.3-0.2,0.5c0,0.1-0.1,0.3-0.1,0.4
		c-0.1,0.1-0.1,0.3-0.2,0.5s-0.2,0.3-0.4,0.5l-1.4,0.7c-0.4,0.1-0.6,0.2-0.5,0.1l-0.4,0.4c-0.2,0.3-0.3,0.4-0.2,0.3
		c0.1,0,0,0.1-0.4,0.3c-0.3,0.2-1,0.2-2.1,0.2c-1.1-0.1-1.9-0.1-2.4,0.1c-0.4,0.1-0.7,0.2-1.1,0.4c-0.4,0.1-0.7,0.3-1.1,0.4
		s-0.7,0.3-1.1,0.3c-0.4,0.1-0.7,0.1-1,0.1c0.1,0.6,0.7,1.5,1.6,2.6c1,1.1,1.7,1.7,2.2,1.7c3.3,0,5.6-0.3,7.2-0.8
		c1.5-0.5,3.5-0.7,6-0.5c-0.1,1.9-0.8,3.6-2.2,4.9c-1.3,1.3-3,2.2-4.9,2.9c-1,0.3-1.9,0.6-2.9,0.7c-1,0.2-2,0.2-3,0.3
		c-2,0-3.7-0.2-4.9-0.8c-0.8-0.4-1.6-0.8-2.4-1.4c-0.8-0.5-1.5-1.1-2.1-1.8c-0.1,0-0.1,0-0.1-0.1l-0.1-0.2l-3.3-3.8
		c-0.8,0.1-1.3,0.2-1.5,0.3c-0.1,0.1-0.7,0.1-1.6,0c-1.3-0.1-2-0.3-1.9-0.5c0.1-0.2-0.2-0.3-1-0.3c0-0.2,0-0.4,0-0.5
		s-0.1-0.3-0.1-0.4s-0.1-0.3-0.1-0.4c0-0.2,0-0.4,0-0.6c0.1-0.4,0.3-0.8,0.6-1.2c0.3-0.4,0.6-0.8,1-1.2l0.5-0.6l0.4-0.5
		c0.1-0.3,0-1.5-0.3-3.6c-0.3-2.1-0.3-4.1-0.1-6.2c0.2-1.8,0.7-3.5,1.3-4.9c0.4-0.8,1.2-2.1,2.6-3.6c1.4-1.7,2.4-2.8,3.1-3.3
		s1.2-0.9,1.6-1.2c0.4-0.3,0.6-0.4,0.6-0.5l2.3-1.2l2.2-0.9c0.7-0.2,1.4-0.4,2.2-0.5s1.6-0.3,2.4-0.4c1.7-0.2,3.2-0.3,4.5-0.1
		c0.2,0,0.4,0.1,0.7,0.1c0.3,0,0.5,0,0.8,0.1c0.3,0,0.6,0.1,0.8,0.1c0.3,0,0.5,0.1,0.7,0.1c2.1,0.7,3.6,2.1,4.5,4.2
		c0.9,2.1,0.6,4-1,5.9l-0.3,0.4l-0.1,0.1l-0.6,0.5c-0.1,0.1-0.3,0.1-0.3,0.1c-0.1,0-0.1,0-0.2,0.1c0,0-0.1,0.1-0.1,0.2
		c0,0.1,0,0.2-0.1,0.4c-0.5,0-1,0-1.5-0.1c-0.5,0-0.8-0.1-1-0.1c-1.4,0-1.9-0.1-1.6-0.2c0.3-0.1,0.2-0.2-0.5-0.2
		c-0.5,0-0.7,0-0.7,0.1c0.1,0-0.1,0.1-0.5,0.1l-3.3-0.2c-1.2,0-2.8,0.5-5,1.6c-2.1,1.1-3.3,2.2-3.8,3.4c-0.2,0.6-0.3,1.1-0.3,1.7
		c0,0.4,0,0.6,0,0.6s0,0.1,0,0.2c0,0.1,0,0.3,0,0.6c0.6,0,1.2-0.2,1.7-0.6c0.6-0.4,1.7-0.9,3.3-1.6c1.6-0.6,2.9-1.2,3.9-1.8l0.5-0.3
		l0.7-0.2h0.1l0,0l0,0h1.1c-0.2,0.6-0.3,0.9-0.3,0.8c-0.1-0.1-0.1-0.1,0,0.2l1.1-1.2c0.5,0.2,1.1,0.4,1.7,0.8
		c0.8,0.6,1.3,0.9,1.5,0.7c0.1-0.1,0.3,0,0.6,0.3c0.1,0.2,0.2,0.3,0.1,0.3c0,0-0.1,0,0,0c0,0.1,0.1,0.2,0.2,0.3l0.1,0.3
		c0.2,0.3,0.3,0.4,0.3,0.3c0.1-0.1,0.3,0.1,0.6,0.5c-0.3,0.4-0.4,0.6-0.3,0.5c0.1,0-0.1-0.1-0.7,0c0.3,0.5,0.5,0.7,0.5,0.7
		s0,0.1,0,0.3c0.1,0.6,0.2,0.8,0.4,0.8C1015.9,82.1,1016,82.4,1016,82.9z M1010.7,87.7L1010.7,87.7L1010.7,87.7L1010.7,87.7z
		 M1013.3,87.1C1013.3,87.2,1013.3,87.2,1013.3,87.1L1013.3,87.1z M1014.9,78.5C1014.9,78.6,1014.8,78.6,1014.9,78.5L1014.9,78.5z"
		/>
	<path class="st0" d="M1056.9,101.7C1056.9,101.7,1056.9,101.7,1056.9,101.7c0.4,0.1,0.5,0,0.4-0.1c0-0.1,0,0,0,0.3
		c0,0.1-0.2,0.3-0.5,0.6c-0.8,0.6-1.9,0.9-3.1,0.7c-1.2-0.1-2.2-0.5-3.1-1c-0.6-0.4-0.9-0.5-0.7-0.5s0.3,0,0.3,0l-0.2-0.5
		c-0.1-0.1-0.1-0.1-0.1-0.1c-1-1.4-1.5-2.3-1.6-2.8c-0.1-0.4-0.4-1.2-0.9-2.1c-0.3,0.3-0.6,0.5-0.7,0.9c-0.2,0.3-0.4,0.7-0.6,1.1
		c-1,1.3-2.2,2.3-3.7,3s-3.1,0.9-4.8,0.6c-1.2-0.3-2.3-0.8-3.2-1.5c-0.8-0.7-1.8-1.2-2.8-1.5l-1,15.4c-0.2,1.2-0.5,1.9-0.8,2.3
		s-0.5,0.9-0.7,1.5c-1,0-1.7-0.3-2.2-0.8c-0.1-0.1-0.3-0.4-0.5-0.7c-0.2-0.3-0.4-0.7-0.7-1.1c-0.7-1.1-1.2-2.6-1.5-4.5
		c-0.3-1.9-0.5-3.5-0.6-4.8l-0.7-11.2c0-0.3-0.1-0.6-0.1-1s0-0.6,0-1l-0.8-11.4c0-1.1-0.1-2.2-0.3-3.3s-0.3-2.3-0.4-3.6v-3.3
		c0-0.8-0.4-2.7-1.1-5.6c-0.7-2.9-0.6-4.7,0.3-5.6l0.2-0.2l0.3-0.3c0.1-0.2,0.2-0.3,0.2-0.3s0,0,0,0.1c-0.1,0.3-0.1,0.1,0-0.3
		l0.2-0.4l1.4-1.1c0.4-0.1,0.7-0.3,0.7-0.4c0-0.1,0.1-0.2,0.4-0.3c0.6-0.3,1.4-0.5,2.4-0.4c1,0,1.8,0.2,2.4,0.6l0.8,0.8
		c0.5,0.6,1.1,1,1.7,1.3c0.5,0.3,0.7,0.3,0.6,0.2c-0.1-0.1-0.1-0.1,0,0c0.1,0.1,0.2,0.2,0.4,0.4c0.4,0.6,0.5,0.8,0.2,0.9
		c-0.3,0-0.3,0.3-0.2,1c0.1,0.3,0.1,0.4,0.1,0.4l0.1,0.1c0.5,1.1,0.7,2.4,0.7,3.8c0,0.7,0,1.5,0,2.3c0,0.8,0,1.7,0,2.6l-0.1,5.3v0.6
		c0.1,1.3,0.4,3.1,1.1,5.5c0.4,1.2,0.7,2.2,0.9,3c0.3,0.8,0.5,1.5,0.7,2.1c0.1,0.3,0.2,0.6,0.4,0.9l2.3,2.3c0.4,0.3,0.6,0.5,0.8,0.7
		c0.2,0.2,0.4,0.4,0.8,0.7c1-0.7,1.9-2.1,2.7-4.1l2-5.1c0.2-0.5,0.3-1,0.2-1.6c0-0.6-0.1-1.2-0.2-2l-0.9-9.9
		c-0.1-1.1-0.2-2.1-0.5-3.1c-0.3-0.9-0.4-1.9-0.4-3c0-0.5,0.3-1.2,1-2.1c0.7-1,1.2-1.6,1.6-1.8c0.5-0.3,0.8-0.5,0.9-0.5
		c0,0,0.4-0.4,1-1.4c0.8,0.2,1.3,0.2,1.5,0.1c0.1-0.1,0.5-0.2,1.1-0.1c0.4,0.1,0.9,0.3,1.4,0.6l1,0.5c0,0.1,0,0.1,0.1,0.1
		c0.1,0.1,0.1,0.1,0.2,0.1c1.5,1.5,2.3,2.5,2.3,2.8c0.1,0.4,0.3,1.3,0.6,2.7l0.3,0.7c0.1,0.6-0.1,2.5-0.7,5.7
		c-0.6,3.3-0.9,6.3-0.9,9l0.6,11.3c0.1,1,0.2,1.9,0.2,2.7c0,0.8,0.1,1.4,0,2c0,1.1,0.5,1.9,1.7,2.4c1.1,0.6,1.5,1.2,1.3,1.9
		c-0.2,0.7-0.8,1.3-1.7,1.9h0.5V101.7z M1047.7,57.7c0.2,0.2,0.4,0.3,0.8,0.5c-0.2-0.4-0.2-0.5,0-0.5c0.1,0,0.1,0-0.1,0
		S1048,57.7,1047.7,57.7z"/>
	<path class="st0" d="M1068,111c-0.4,0-0.8,0-1.1-0.1s-0.5-0.2-0.8-0.3c-0.2-0.1-0.4-0.3-0.6-0.5s-0.3-0.4-0.5-0.7l-1.5-3
		c-0.3-1-0.6-2.3-0.9-3.8s-0.4-2.8-0.5-3.9l-2.2-28.2c-0.1-2.1-0.2-4.1-0.2-6c0-2,0.1-4,0.2-6.1c0.3-4.9,2.1-9.2,5.4-12.8l0.6-0.7
		c0.1-0.1,0.2-0.2,0.3-0.2c0.1-0.1,0.2-0.2,0.3-0.2c0.2-0.2,0.4-0.3,0.6-0.5c0.2-0.1,0.4-0.3,0.7-0.5l2.9-1.7
		c0.8-0.4,1.7-0.7,2.6-0.9c0.9-0.2,1.8-0.3,2.7-0.3s1.8,0,2.7,0.1c0.9,0.1,1.8,0.2,2.6,0.4c0.7,0.2,1.2,0.4,1.6,0.6
		c0.2,0.1,0.4,0.2,0.6,0.4s0.5,0.3,0.8,0.5c1.9,1.3,3.3,2.9,4.3,4.8c1.6,3.1,2,6.5,1.3,10s-2,6.7-3.9,9.6c0.5,0.1,1.4,0.3,2.6,0.8
		c0.6,0.2,1.1,0.4,1.6,0.6s0.8,0.3,1,0.4l3.1,2.2c0,0.1,0,0.1,0.1,0.1l2.2,3.1c0.1,0.2,0.2,0.4,0.2,0.6c0.1,0.2,0.1,0.3,0.2,0.5
		c0.1,0.2,0.1,0.3,0.2,0.5c0.1,0.2,0.1,0.4,0.2,0.7c0.3,1.4,0.4,2.1,0.3,2c0,0,0,0.3-0.1,1.2c0,0.4-0.1,0.8-0.1,1.1
		c0,0.3,0,0.4,0,0.5c0,0.2-0.2,0.8-0.6,1.8l-0.1,0.4c-0.4,1-0.7,1.7-1,2.1l-1.2,1.8l-0.9,1.2l-0.6,0.6c-0.6,0.7-1,1.1-1,1.2
		c-0.1,0.1-0.5,0.6-1.4,1.4l-0.1,0.1c0,0,0,0-0.1,0l-0.9,0.9l-0.3,0.3l-6.2,4.4c-0.5,0.3-1,0.5-1.4,0.6c-0.7,0.2-1.4,0.5-2.1,0.7
		s-1.4,0.5-2,0.8c-1.3,0.5-3,0.9-4.9,1.1c-1.4,0.2-2.1,0.2-2.3,0.2c-0.1,0-0.2,0.2-0.3,0.8c-0.1,0.2-0.1,0.5-0.1,0.8
		s-0.1,0.7-0.1,0.9l-0.6,3.2c-0.1,0.3-0.1,0.6-0.2,0.9s-0.1,0.6-0.2,0.8c-0.4,1.5-0.6,2.1-0.7,2C1068.3,110.1,1068.1,110.3,1068,111
		z M1071,64.5c0.5-0.3,1-0.7,1.6-1c0.5-0.3,1.1-0.7,1.6-1.1l1.4-1.4c0.5-0.5,0.8-0.8,0.8-1c0-0.1,0.2-0.4,0.6-1l0.3-0.4
		c0.2-0.3,0.3-0.4,0.3-0.3c0,0.1,0-0.1,0.2-0.6c0.1-0.2,0.1-0.6,0.2-1c0.1-0.4,0.2-1,0.3-1.6c0.3-1.2,0.1-2.1-0.3-2.5
		c-0.3-0.3-0.8-0.3-1.7-0.2c-0.8,0.2-1.4,0.4-1.7,0.6c-1.6,1.2-2.5,3-2.9,5.2C1071.2,60.5,1071,62.6,1071,64.5z M1071,77.4
		c0,0.4,0,0.8,0,1c0,0.3,0,0.5,0,0.6c0.1,0.2,0.1,0.6,0,1.1l0.2,8l1.5-0.1c1.2-0.1,2.4-0.3,3.4-0.6c1.1-0.3,2.2-0.6,3.3-0.9
		c1.6-0.5,3.1-1.5,4.4-2.9l0.3-0.3c0.3-0.3,0.6-0.6,0.9-1c0.3-0.3,0.6-0.7,1-1.2c0.7-0.9,1.1-1.7,1.3-2.4c-1-0.5-2.1-1-3.1-1.2
		c-1-0.3-2-0.5-3.1-0.7c-0.3,0-0.4-0.1-0.5-0.1s-0.1,0,0,0s0.1,0,0,0s-0.3,0-0.5,0c-0.1,0-0.2,0-0.4,0s-0.3,0-0.5,0
		c-0.6,0-1,0.1-1.5,0.1c-0.4,0-0.8,0-1.2,0c-0.4,0-0.7,0-1.1,0.1c-0.3,0-0.7,0.1-1.1,0.2c-1,0.2-1.4,0.2-1.2,0.1
		C1073.5,76.9,1072.7,77,1071,77.4z"/>
	<path class="st0" d="M1106.4,115.7c-0.7-0.1-1.3-0.4-1.7-0.9l-1.2-1.5c-0.4-0.5-0.8-1.1-1.1-1.7s-0.6-1.2-0.8-1.8
		c-0.2-0.6-0.4-1.2-0.6-1.9c-0.2-0.7-0.3-1.4-0.5-2.2l-1.5-12.9c-0.2-2.2-0.2-4.5-0.2-6.7s0.1-4.5,0.3-6.8c0.3-4.5,1.6-8.8,3.8-12.8
		l1.5-2.3c0.8-1,1.8-1.9,3-2.8c1.3-0.9,2.5-1.5,3.7-1.7l0.9-0.2c2.3-0.6,4.5-0.4,6.6,0.5c2.1,1,3.9,2.3,5.4,3.9c0,0,0.1,0.1,0.2,0.3
		l0.2,0.2l2.4,3.6l0.6,1c1.4,2.9,2.1,5.3,2.3,7.3c0.1,1,0.2,2.1,0.2,3.3c0,1.2,0,2.5-0.1,4c-0.1,1.4-0.4,2.6-0.7,3.6
		c-0.4,1-0.8,2-1.3,3.1c-0.4,1-0.9,2-1.5,3s-1.3,1.9-2.1,2.8c-1.6,1.8-3.4,3.2-5.4,4c-2.2,0.9-4,1.3-5.4,1.3c-1.5,0-2.6-0.1-3.5-0.3
		c-0.9-0.2-1.5-0.2-1.9-0.2c-0.4,0.1-0.6,0.6-0.5,1.7l-0.4,7.6c-0.1,0.6-0.1,1.1-0.1,1.6s0,0.9,0.1,1.3
		C1107,113.9,1106.9,114.7,1106.4,115.7z M1118.2,78.4c0-0.7,0-1.1-0.1-1.3c0,0-0.1-0.2-0.1-0.4c-0.1-0.3-0.2-0.6-0.4-1l-1-2.3
		c-0.1-0.2-0.3-0.5-0.6-0.8c-0.2-0.3-0.5-0.7-0.8-1.1c-0.6-0.8-1.2-1.1-1.8-0.8c-0.7,0.4-1.6,1.5-2.5,3.3c-1,1.9-1.6,3.2-1.8,4
		l-0.8,3.6c-0.3,1.6-0.4,2.3-0.4,2.2c0.1-0.1,0.1,0.6,0,2.2c0,0.2,0,0.4,0,0.6s0,0.3,0,0.4c0.7,0.2,1,0.3,0.9,0.5
		c-0.1,0.1,0.4,0.3,1.4,0.5c1.3,0.3,1.8,0.5,1.5,0.6c-0.3,0.1,0.5,0.1,2.6,0.1c0.6,0,1.3-0.7,2.1-2c0.4-0.7,0.7-1.2,1-1.7
		c0.2-0.5,0.4-0.8,0.5-1.1c0.3-0.8,0.4-1.6,0.4-2.3s0-1.5,0-2.3L1118.2,78.4z"/>
	<path class="st0" d="M1134.9,58.3c0.2,0.1,0.2,0.2,0.1,0.3l0,0c0.1,0,0.2-0.1,0.3-0.1c0.3-0.1,0.5-0.4,0.6-0.8h1.2
		c0.1,0.3,0.1,0.4,0,0.3c0,0,0.2-0.1,0.6-0.2c1-0.2,1.9,0.2,2.7,1l0.5,0.5l0.2,0.1c0.2,0.2,0.6,0.6,1.1,1.1s0.8,0.9,0.9,1.2
		c0,0.2,0,0.3,0,0.3s0,0-0.1-0.1c0-0.3,0-0.2,0,0.3c0,0.3,0.1,0.5,0.2,0.8c0.1,0.3,0.2,0.5,0.3,0.8s0.2,0.5,0.3,0.7
		c0.1,0.2,0.1,0.5,0.1,0.7l-0.7,6.2c-0.5,1.9-0.8,4.7-1,8.4c-0.1,1.9-0.2,3.5-0.2,4.9c0,1.3,0,2.4,0,3.2l0.4,7
		c0.7,0.1,1.1,0.2,1.4,0.5c0.2,0.2,0.6,0.4,1.1,0.5c0,0.4-0.1,0.8-0.1,1.2c-0.1,0.4-0.2,0.9-0.3,1.3c-0.3,0.9-0.6,1.6-1,2.1
		l-0.5,0.5c-0.3,0.2-0.6,0.4-0.8,0.5c-0.2,0.1-0.5,0.2-0.6,0.3c-0.4,0.1-0.8,0.2-1.1,0.2c-0.3,0-0.6,0-0.9,0s-0.6-0.1-0.8-0.2
		c-0.3-0.1-0.6-0.2-0.9-0.3c-2.5-1-3.9-2.5-4.3-4.4c-0.3-1.9-0.8-3.8-1.2-5.8c-0.2-0.7-0.3-1.6-0.5-2.7s-0.4-2.5-0.6-4.1
		c-0.4-3.2-0.6-5.4-0.7-6.6c0-0.8,0-1.5,0-2.2c0-0.6-0.1-1.2-0.1-1.7s-0.1-1.1-0.1-1.8c0-0.7,0-1.5,0.1-2.5l0.5-3.9
		c0-0.6,0-1.1,0-1.6s0-0.8,0-1.1c0-0.8,0.3-1.5,0.9-2c0.5-0.5,1.1-1.1,1.7-1.8c0.3-0.3,0.4-0.6,0.4-0.7c0.1-0.1,0.3-0.3,0.6-0.6
		L1134.9,58.3z M1134.3,49c0-0.8,0.2-2,0.7-3.5c0.2-0.7,0.5-1.4,0.7-2c0.2-0.6,0.4-1.1,0.6-1.5c0.2-0.6,0.5-1.1,0.7-1.5
		c0.2-0.4,0.5-0.9,0.6-1.5c0.2-0.9,0.6-2,1.2-3.1c0.3-0.6,0.6-1.1,0.9-1.6s0.7-0.8,1-1.1c1-0.7,2-1.1,3.1-1.2l2.3-0.1
		c0.2,0,0.4,0.1,0.5,0.1s0.1,0,0,0c-0.2,0-0.2,0-0.1,0.1c0.3,0.3,0.5,0.5,0.5,0.5s-0.1,0-0.4-0.3c-0.6-0.4-0.5-0.4,0.2,0
		c1.2,0.8,1.6,1.1,1,0.9c-0.3-0.1-0.3-0.1-0.2,0c0.1,0.1,0.5,0.2,1,0.5c-0.2,0.6-0.3,0.8-0.3,0.5c0-0.1,0-0.2,0-0.1
		c0,0.1-0.1,0.3-0.2,0.6c1,0.1,1.5,0.4,1.5,1l-0.1,1.9v0.1v0.1c-0.1,1-0.1,1.5,0.1,1.4c0.1-0.1,0,0.2-0.5,0.8
		c-0.7,0.9-1,1.3-0.7,1.2c0.3-0.1,0,0.5-0.9,1.9c-1,1.7-2,3.2-2.8,4.3c-0.4,0.5-0.8,1.1-1.2,1.7c-0.4,0.6-0.8,1.2-1.2,1.9l-1,2.1
		c-0.3,0.5-0.6,1-0.8,1.5c-0.2,0.5-0.5,0.7-0.8,0.8s-0.7,0.3-1.2,0.6s-1.2-0.1-2.2-1.3C1135,53,1134.3,51.1,1134.3,49z M1141.3,59.1
		C1141.2,59.2,1141.2,59.2,1141.3,59.1C1141.2,59.2,1141.2,59.2,1141.3,59.1z"/>
	<path class="st0" d="M1149,82.3c0-2.1,0.6-4,1.8-5.7c0.6-0.9,1.2-1.7,1.7-2.4c0.6-0.7,1.1-1.4,1.7-2.1l0.5-0.5
		c1-1.2,2.4-2.3,4.2-3.4c1.8-1.1,3.3-1.7,4.5-1.9c0.5-0.1,1-0.1,1.4-0.1s0.7,0,0.9-0.1c1.5,0,2.2-0.1,2-0.1c-0.1,0,0.1-0.1,0.6,0
		c0.5,0,1.4,0,2.7,0.1h0.4c2.1,0.1,4,0.8,5.7,2.3c1.7,1.3,3.1,2.9,4.2,4.6c0.1,0.1,0.1,0.2,0.1,0.2l0.7,1.6c0.1,0.4,0.3,0.8,0.4,1.3
		s0.3,0.9,0.4,1.4s0.2,1,0.3,1.5c0.1,0.5,0.1,1,0.1,1.5l-0.2,2.8c0,0.7-0.1,1.2-0.1,1.6s0,0.8,0,1c0,1.4,0,2.6,0,3.5
		c-0.1,0.9-0.2,1.6-0.3,2c-0.3,0.8-0.9,2.3-2,4.4c-0.3,0.6-0.6,1-0.7,1.2c-0.1,0.1-0.2,0.2-0.3,0.4c-0.1,0.1-0.3,0.3-0.6,0.6
		l-0.3,0.3l-0.1,0.1c-0.8,0.8-1.9,1.4-3.2,1.7c-0.6,0.1-1.2,0.3-1.8,0.4s-1.2,0.2-1.8,0.2c-1.9,0.2-3.2,0.7-4.1,1.3
		c-0.8,0.7-2.7,0.4-5.6-0.8l-3-1.5c-0.4-0.2-0.7-0.3-0.9-0.5c-0.3-0.2-0.5-0.4-0.8-0.6s-0.5-0.5-0.8-0.7c-0.3-0.2-0.6-0.5-0.9-0.8
		l-0.7-0.6c-0.1,0-0.1,0-0.1-0.1l-1.2-1.1c-1.5-1.4-2.6-3.3-3.4-5.9C1149.4,86.2,1149,84.1,1149,82.3z M1172,95.2
		c0.3,0,0.7-0.3,1.2-0.9c1.5-1.8,2.2-3.3,2.1-4.3c-0.1-1-0.1-2-0.2-2.9c0-0.6-0.1-1.2-0.1-1.8c0-0.6,0-1.1-0.1-1.5
		c-0.3-2.5-0.8-3.9-1.5-4.4c-0.6-0.5-1.5-0.9-2.7-1.3c-0.7-0.3-1.7-0.4-3-0.3c-0.7,0-1.2,0.1-1.6,0.1c-0.4,0.1-0.8,0.2-1,0.3
		l-2.8,2.3c-0.3,0.2-0.4,0.3-0.6,0.4c-0.1,0.1-0.3,0.3-0.5,0.5c-1.1,1.2-1.5,2.6-1.2,4.2c0.3,1.6,0.9,2.9,1.7,4l2.4,2.4
		c0,0.1,0,0.1,0.1,0.1l0.3,0.2c0.7,0.6,1.3,1.2,1.8,1.9c0.6,0.7,1,1,1.3,1L1172,95.2L1172,95.2z"/>
	<path class="st0" d="M1190.6,60.1c0.3,0,0.9,0.1,1.7,0.4c0.4,0.2,0.7,0.3,0.6,0.3c0,0,0.1,0.1,0.5,0.3l1.1,0.7
		c0.2,0.1,0.5,0.5,1,1.2l0.1,0.2l0.6,0.9c0.6,0.9,0.9,1.5,0.8,2s-0.1,1,0.1,1.6c0.1,0.9,0.2,1.4,0.2,1.4s-0.1,0.5-0.4,1.3
		c-0.2,0.6-0.4,1-0.6,1.5c-0.2,0.4-0.4,0.8-0.5,1.2c-0.3,0.7-0.5,1.5-0.4,2.6c0,1,0,2.1,0,3.4s-0.1,2.7-0.2,4.3
		c-0.2,3.2,0,5.4,0.6,6.9c0.8,2.1,2,3.4,3.7,4.1c1.7,0.7,3.6,1,5.6,1l1.7-3.6c0.4-0.9,0.5-1.7,0.6-2.4c0-0.6,0-1.3,0-1.8
		c0-0.8,0-1.3,0.1-1.5s0.1-0.5,0.1-0.8l-0.3-2.8c-0.1-1.4-0.2-2.7-0.4-3.9c-0.2-1.3-0.5-2.5-0.8-3.7c-0.7-2.4-1-4.5-1.1-6.2
		c0-0.3,0-0.5,0-0.7c0-0.2,0-0.4,0-0.5s0-0.3,0-0.5c0-0.2-0.1-0.5-0.1-0.8c-0.1-0.7-0.1-1.1-0.1-1.3c0.1-0.2,0.1-0.7,0.1-1.6
		c0.5,0,0.7-0.1,0.7-0.2c0-0.1,0-0.3,0.1-0.6l0.2-0.7c0-0.1,0.4-0.5,1.1-1l0.4-0.3l0.1-0.1l0.2-0.3c0.1-0.1,0.1-0.1,0.1-0.2
		c0,0,0.1-0.1,0.2-0.3c0.4-0.6,1.4-0.9,2.9-1.1c1.6-0.2,3,0.5,4.4,1.9c0,0.1,0,0.1,0.1,0.1l0.4,0.4c1.5,1.4,2.3,3.2,2.3,5.5
		c0,0.4,0,0.5,0,0.5v0.3l0.8,11.5c0.2,1.4,0.2,2.9,0,4.5c-0.2,1.7-0.4,3.1-0.6,4.4c-0.7,4-2.7,7.6-5.9,10.8
		c-1.3,1.3-2.5,2.3-3.7,3.1c-1.2,0.9-2.9,1.1-5,0.8c-2.1-0.3-3.4-0.4-4.1-0.2c-0.7,0.2-2.2-0.1-4.5-1c-1.7-0.7-3.1-1.4-4-2.3
		c-1.9-1.6-3.2-3.2-3.7-4.9c-0.3-0.8-0.6-1.7-0.8-2.7c-0.2-1-0.5-2-0.7-3.2c-0.5-3.2-0.9-5.9-1.2-8.2c-0.1-1.1-0.3-2.3-0.3-3.7
		c-0.1-1.4-0.1-2.9-0.1-4.6c0-0.4,0-0.9,0.1-1.3c0.1-0.4,0.1-0.8,0.2-1.1c0.1-0.4,0.1-0.7,0.2-1.1c0.1-0.3,0.1-0.7,0.1-1.1v-1.4
		c0,0.2,0.2,0,0.5-0.6c0.2-0.3,0.3-0.5,0.4-0.8c0.1-0.3,0.3-0.5,0.4-0.8c0.5-0.8,1-1.3,1.4-1.4c0.4-0.2,0.9-0.6,1.6-1.3
		c-0.1,0-0.1-0.1-0.1-0.1s0-0.1,0.1-0.1s0.2-0.1,0.5-0.1l0.5,0.1c0.6,0.1,0.9,0,0.7-0.1C1190.2,60.1,1190.2,60.1,1190.6,60.1z
		 M1196.7,67.9C1196.6,67.9,1196.7,67.9,1196.7,67.9L1196.7,67.9L1196.7,67.9z M1197.4,67.6C1197.4,67.7,1197.3,67.7,1197.4,67.6
		L1197.4,67.6C1197.4,67.7,1197.4,67.7,1197.4,67.6z"/>
	<path class="st0" d="M1254.8,73.7c-0.6,0-1.1-0.1-1.5-0.2c-0.5-0.1-0.9-0.3-1.3-0.6c-0.4-0.2-0.8-0.5-1.2-0.8
		c-0.4-0.3-0.8-0.6-1.2-0.9c-1.5-1.1-2.1-2.8-2-5.1c0.2-2.3,0.5-4.3,0.9-5.7c0.1-0.5,0.4-1.1,0.6-1.6c0.3-0.5,0.5-1,0.8-1.6
		c0.4-0.8,1-1.6,1.9-2.4c1.8-1.6,3.5-2.8,5.2-3.5c0.6-0.3,1.2-0.5,1.8-0.6c0.2,0,0.4-0.1,0.7-0.2c0.3-0.1,0.6-0.2,0.9-0.2
		c1-0.2,2.4-0.2,4.1-0.1c1.8,0.2,3.2,0.5,4.3,0.9l0.3,0.1c0.1,0,0.1,0,0.2,0.1l1.8,0.9c1.9,1,3.5,2.4,4.8,4.1
		c0.1,0.1,0.2,0.2,0.2,0.3c0.1,0.1,0.1,0.2,0.2,0.2c0.1,0.1,0.1,0.1,0.1,0.2l1.7,3.4c0.2,0.6,0.4,1.4,0.7,2.5c0.2,1.1,0.3,2,0.3,2.8
		c0,1.4-0.4,3.2-1.3,5.4c-0.8,2.1-1.7,3.7-2.5,4.8l-2.4,3.4c-0.6,1-1.2,1.8-1.7,2.4c-0.5,0.7-1,1.2-1.4,1.5
		c-0.4,0.4-0.8,0.8-1.3,1.3s-1,1.1-1.6,1.8c-0.7,0.9-1.5,1.7-2.4,2.4c-0.9,0.7-1.8,1.5-2.6,2.2l-0.9,0.8l-0.1,0.1c0,0,0,0-0.1,0
		c-0.1,0.1-0.3,0.3-0.4,0.4c-0.1,0.1-0.2,0.2-0.2,0.3c1.7,0.1,3.2,0.4,4.7,1.1s3,1.2,4.5,1.6c0.7,0.2,1.4,0.4,2.2,0.7
		c0.7,0.3,1.4,0.5,2.1,0.9l3.6,2.3c-0.1,0.2-0.2,0.4-0.3,0.6c-0.1,0.1-0.1,0.3-0.2,0.4s-0.2,0.3-0.3,0.4c-0.1,0.1-0.2,0.3-0.4,0.4
		c-2.2,1.9-5,2.6-8.4,2.1l-9-1.3c-0.5-0.1-0.9-0.1-1.4-0.2c-0.4,0-0.8-0.1-1.1-0.1c-0.3,0-0.7,0-1.2,0c-0.4,0-0.9,0-1.5,0l-4.9-0.2
		v0.1l-0.1,0.2c0,0,0,0-0.1,0l0,0c-0.1,0-0.3,0.1-0.5,0.1c-0.1-0.7-0.1-0.9-0.1-0.7c0,0.2-0.2,0.3-0.3,0.3c-0.5,0-0.6,0.1-0.3,0.2
		c0.1,0.1,0.2,0.1,0.1,0s-0.3-0.2-0.6-0.3l-1.5-1.2l-0.5-0.9c-1-1.7-1.3-2.6-1-2.7s0.3-0.4,0.3-1c0-0.3-0.1-0.5-0.1-0.5
		c0-0.1-0.1,0-0.1,0.2s-0.1,0.2,0,0.1c0-0.1,0.1-0.3,0.2-0.6l0.5-1.9c0.5-0.1,0.7-0.1,0.6-0.1s0.1-0.2,0.5-0.7l8.2-7.6
		c0.7-0.5,1.4-1.1,2-1.6c0.6-0.5,1.2-1.1,1.8-1.6c1.1-1,2.3-2.2,3.6-3.5c0.1-0.1,0.2-0.2,0.3-0.3c0.1-0.1,0.3-0.3,0.5-0.6l0.1-0.1
		l2.8-3.9c0.2-0.3,0.3-0.4,0.3-0.5c0.1-0.1,0.2-0.3,0.3-0.5c0.3-0.3,0.5-0.7,0.7-1.1c0.2-0.4,0.4-0.8,0.7-1.2c0.6-1,0.8-1.7,0.6-2.3
		c-0.1-0.5-0.5-1.2-1.1-1.9c-1.7-1.9-3.3-2.2-4.8-1.1c-0.3,0.2-0.4,0.3-0.3,0.3c0,0,0,0.1,0,0.2l-0.1,0.3c-0.2,0.7-0.2,1.6,0,2.5
		l0.5,2.5c0.2,1.1,0.1,2-0.4,2.5c-0.3,0.4-0.5,0.6-0.5,0.5c0,0,0,0,0,0.1s0.1,0.3,0.1,0.5c-0.4-0.1-0.6-0.2-0.6-0.2
		s-0.2-0.1-0.6-0.3c-0.2,0.5-0.4,0.8-0.6,0.9l-1.3,0.2L1254.8,73.7z"/>
	<path class="st0" d="M1279.2,74l0.8-4.8c0.6-1.7,1.3-3.4,2-5s1.6-3.2,2.7-4.8l2.5-3.3c0.1-0.2,0.3-0.5,0.6-0.8
		c0.2-0.3,0.5-0.6,0.7-0.8c0.1-0.1,0.2-0.1,0.2-0.1c0.1,0,0.1,0,0.2-0.1c0.1,0,0.1-0.1,0.2-0.1c0.1,0,0.2-0.1,0.3-0.3
		c0.6-0.5,1.1-0.9,1.6-1.2s0.9-0.6,1.3-0.9c0.8-0.5,2.1-0.9,4-1.2c1.3-0.2,2.6-0.3,3.9-0.3s2.5,0.1,3.8,0.3c1.2,0.3,2.4,0.6,3.5,1.2
		c1.1,0.5,2.2,1.2,3.2,2.1l0.7,0.8l0.7,0.8l2.2,2.2c0.6,0.7,1.1,1.6,1.6,2.8c0.5,1.1,0.8,2.2,1.1,3.1c0.7,2.2,1,3.7,1.1,4.7
		c0,0.5,0,1.1,0,1.8c0,0.7,0,1.5-0.1,2.5c-0.1,0.8-0.1,1.5-0.2,2.3c-0.1,0.8-0.2,1.6-0.5,2.4l-0.8,2.4c-0.1,0.3-0.3,0.7-0.5,1
		c-0.2,0.3-0.3,0.7-0.5,1c-0.4,0.9-0.8,1.9-1.3,3c-0.5,1.2-1.2,2.5-1.9,4c-1.5,3-2.6,5.1-3.5,6.5c-0.2,0.3-0.4,0.6-0.6,0.9
		s-0.4,0.6-0.6,0.9l-1.3,1.6c-0.5,0.5-0.9,0.8-1.3,1c-0.4,0.2-0.9,0.4-1.5,0.6l-3.3,1c-1.5,0.4-2.3,0.5-2.4,0.3
		c-0.1-0.2-0.8-0.1-2,0.1c-2.1,0.4-3.9,0.2-5.3-0.6c-1.4-0.8-2.8-1.9-4.1-3.4l-1.5-1.5c-1.3-1.6-2.1-2.8-2.5-3.5
		c-0.2-0.4-0.4-0.9-0.7-1.5s-0.7-1.4-1.1-2.3c-0.1-0.3-0.3-0.7-0.4-1c-0.1-0.4-0.2-0.8-0.3-1.2c-0.1-0.4-0.1-0.8-0.2-1.1
		c-0.1-0.3-0.2-0.7-0.3-1.3L1279.2,74z M1305.8,78.9C1305.8,78.9,1305.8,78.8,1305.8,78.9c0-0.1,0-0.1,0-0.2l0.1-3.6
		c0,0-0.1,0-0.1-0.1c-0.3-0.8-0.4-2.1-0.5-3.9c-0.1-1.8-0.4-3.5-0.9-4.9c0,0-0.1,0-0.1-0.1l-1.5-2c-1-1.1-2.2-1.7-3.6-1.7
		c-1.4-0.1-2.4,0.3-3.2,1.1c-0.3,0.4-0.6,0.7-0.8,1c-0.2,0.3-0.4,0.5-0.5,0.7c-0.2,0.3-0.5,0.9-1,1.6l-0.5,0.7
		c-0.1,0.1-0.2,0.3-0.3,0.6c-0.9,2.1-1.6,3.3-2.1,3.6c-0.5,0.4-0.8,2.1-1,5.1c0,0.3-0.1,0.7-0.1,1.2c-0.1,0.5-0.1,0.9-0.1,1.3v2.3
		v2.1c0,1,0.1,1.8,0.4,2.4c0.8,2,1.3,2.8,1.6,2.6c0.3-0.3,1.2,0.4,3,2.1c0,0.1,0,0.1,0.1,0.1l1.8,1.9c0.4,0.4,1.3,0.6,2.7,0.6
		c1.2,0,2.1-0.4,2.5-1.2c0.2-0.4,0.5-0.8,0.7-1.2c0.2-0.3,0.4-0.7,0.6-0.9c0.8-1.1,1.2-1.9,1.2-2.3c0-0.2,0.1-0.5,0.3-1
		c0.2-0.4,0.4-0.9,0.7-1.5c0.5-1.1,0.8-2.3,0.7-3.5C1305.8,80.9,1305.8,79.9,1305.8,78.9z"/>
	<path class="st0" d="M1326.8,69.6c-0.3,0.1-0.5,0.2-0.6,0.3c-0.1,0.1-0.3,0.1-0.5,0.3l-2.6,0.8c-1.1,0.2-1.8,0.3-2.2,0.3
		c-0.3,0-0.8-0.1-1.4-0.4l-0.3-0.2c0,0-0.1,0-0.1-0.1c-0.1,0-0.2-0.1-0.4-0.2v-0.1c0-0.5,0-1,0-1.3c0-0.4,0.1-0.7,0.1-1
		c0.1-0.5,0.3-1.1,0.6-1.9c0.4-0.9,0.8-1.6,1.2-2c0.2-0.2,0.4-0.5,0.7-0.7c0.2-0.3,0.5-0.6,0.7-0.9l5.9-7.2c0.8-1,1.3-1.8,1.6-2.4
		c0.3-0.5,0.9-1.2,2-2c0.2-0.1,0.3-0.2,0.3-0.3l0.1-0.1c1.2-1.1,1.8-1.6,1.6-1.3c-0.1,0.2,0.1,0.2,0.8,0c0.5-0.1,0.7-0.2,0.7-0.4
		c0-0.1,0.2-0.3,0.9-0.5l0.4,0.5l1-0.5l3.9,2.4l-0.6,0.9c-0.1-0.1-0.2-0.1-0.2,0.2l0.3,0.2c0.2-0.1,0.4-0.1,0.6-0.1
		c0.1,0.1,0.4,0.5,0.9,1.3s0.6,1.6,0.4,2.5l-0.7,2.1c-0.2,0.5-0.3,0.6-0.4,0.5c-0.1-0.1-0.2,0.1-0.2,0.7c0,1.2-0.1,1.8-0.2,1.9
		c-0.1,0-0.2,0.6-0.4,1.8c-0.1,0.3-0.1,0.5-0.1,0.7s0,0.5-0.1,0.9l-0.3,1.6c-0.1,0.9-0.2,1.6-0.3,2.1l-0.3,1.6c0,0.1,0,0.2,0,0.3
		s0,0.2,0,0.3c-0.1,0.9-0.2,1.7-0.3,2.4c-0.1,0.7-0.3,1.4-0.3,1.9c-0.1,0.5-0.1,1.2-0.2,1.9c0,0.7-0.1,1.5-0.1,2.4l-0.4,3.7
		c-0.1,0.6-0.2,1.2-0.3,1.8c-0.2,0.6-0.3,1.2-0.4,1.9l-1.2,5.1c-0.2,0.9-0.4,1.8-0.7,2.6c-0.3,0.9-0.6,1.7-0.7,2.4
		c-0.1,0.5-0.3,1-0.4,1.5c-0.2,0.5-0.4,1.1-0.6,1.6c-0.4,1.1-1,1.9-1.8,2.4c-1.1-0.5-1.9-1.5-2.5-2.8s-1-2.5-1.1-3.7
		c-0.1-0.5-0.2-1-0.2-1.5s-0.1-1.1,0-1.7c0-0.6,0-1.1,0-1.6s0-0.9-0.1-1.4c0-0.2,0-0.3-0.1-0.4c0-0.1,0-0.2,0-0.5l-0.1-16.6
		c0-1.1,0-1.7,0.1-2c0.1-0.3,0-0.5-0.1-0.7L1326.8,69.6z M1318.7,70.4c0.3,0.1,0.5,0.2,0.5,0.2c0.1,0,0.1,0,0,0L1318.7,70.4
		L1318.7,70.4z"/>
	<path class="st0" d="M1360.2,101.8c-1.5,0-3.3-0.2-5.3-0.7c-1.8-0.4-3.3-1-4.7-1.8c-1.3-0.7-2.5-1.8-3.5-3.1
		c-1.1-1.4-1.9-2.7-2.4-4c0-0.1-0.1-0.3-0.2-0.5s-0.2-0.5-0.3-0.8c-0.1-0.3-0.2-0.5-0.3-0.6s-0.1-0.3-0.2-0.6l-0.5-3.1
		c0,0.1,0,0.1,0,0s-0.1-0.3-0.1-0.6l-0.3-3.5c-0.2-1.9-0.1-3.7,0.5-5.4c0.1-0.4,0.3-0.8,0.4-1.2c0.1-0.4,0.3-0.8,0.4-1.1l5.2-11
		c0.4-0.5,0.8-1.1,1.2-1.7c0.5-0.6,1-1.2,1.5-1.9c1.1-1.3,2.2-2.4,3.3-3.3c0.2-0.1,0.3-0.3,0.4-0.4c0.1-0.1,0.3-0.2,0.5-0.4
		c0.1-0.1,0.3-0.3,0.4-0.4c0.1-0.1,0.3-0.3,0.4-0.4l7.9-4.3h0.1l0,0l0,0l0.8-0.3c0.1,0,0.2-0.1,0.3-0.1l0,0l0,0
		c0.1,0,0.1-0.1,0.3-0.1c0.2-0.1,0.4-0.1,0.5-0.2c0.2,0,0.3-0.1,0.4-0.1c0.7-0.1,1.3-0.3,1.7-0.6c0.4-0.3,1-0.4,1.5-0.6l2.3-0.1
		c0.1,0,0.1,0,0.2,0c0.1,0,0.2,0,0.3,0l2.1,0.7c0.2,0.1,0.3,0.2,0.3,0.2s0.1,0.1,0.3,0.2l0.5,0.3c1,0.6,1.6,1.2,1.6,1.7
		s0.2,1,0.5,1.5c0.1,0.2,0.1,0.2,0.1,0.1c0-0.1,0,0,0.3,0.3c-0.3,0.5-0.5,0.8-0.6,0.9c-0.1,0.2-0.1,0.2,0,0c0.2-0.3,0.3,0.1,0.2,1.1
		c-0.1,0.9-0.3,1.5-0.7,1.9c-0.1,0.1-0.2,0.2-0.3,0.2c0,0-0.1,0.1-0.3,0.2l-0.3,0.3c-0.4,0.5-0.7,0.9-0.7,1s-0.5,0.5-1.4,1.1
		l-0.1-0.8c0,0,0,0-0.1-0.2c-0.1,0.4-0.5,0.7-1.2,0.7c-0.1,0.5-0.1,0.7-0.1,0.7c0-0.1-0.1,0-0.2,0.1c-0.2,0.1-0.8,0.3-2,0.4
		c-0.6,0.1-1.1,0.2-1.5,0.2c-0.4,0-0.7,0.1-0.9,0.2c-1,0.4-1.8,0.8-2.7,1.3s-1.6,1.1-2.4,1.7c-0.8,0.6-1.5,1.3-2.2,2
		c-0.7,0.7-1.3,1.4-2,2.2l-0.6,0.8c-0.6,0.7-1.4,1.9-2.3,3.6c-0.5,0.8-0.8,1.5-1.1,2.1s-0.4,1.1-0.6,1.5l3.3-1.3l1.5-0.6
		c0.3-0.1,0.9-0.3,1.9-0.4c0.6-0.1,1.2-0.1,1.7-0.2s1-0.1,1.3-0.1c0,0,0.1,0,0.3,0c0.1,0,0.3,0,0.5,0.1c0.4,0.1,0.7,0.1,0.8,0.1
		c0.8,0.1,1.6,0.3,2.5,0.6c0.9,0.3,1.8,0.6,2.6,0.7c0.9,0.3,1.6,0.6,2.1,1.2c0.5,0.5,1,1.1,1.6,1.7c0.2,0.3,0.3,0.4,0.3,0.4
		c0.9,1.6,1.5,3.6,1.7,5.9c0.2,2.3,0,4.4-0.7,6.2c-0.1,0.3-0.2,0.6-0.4,0.8c-0.1,0.2-0.2,0.4-0.4,0.6c-0.2,0.3-0.3,0.5-0.4,0.7
		c-0.1,0.2-0.2,0.4-0.4,0.7c-1.2,1.7-1.8,2.6-1.9,2.7l-2.2,2c-1,1-2.5,1.7-4.3,2.2L1360.2,101.8z M1362.4,92.8c1.3,0,2.3-0.3,3.1-1
		c0.5-0.4,1.1-1,1.7-1.9c0.7-0.9,1-1.7,1-2.3c0.1-2.1-0.1-3.2-0.4-3.5c-0.1-0.1-0.4-0.4-0.8-0.6c-0.4-0.3-0.9-0.6-1.6-1
		c-0.1,0-0.1-0.1-0.2-0.1c0,0-0.1-0.1-0.2-0.1c0,0,0,0-0.2-0.1l-0.7-0.3c-0.5-0.2-1.9-0.4-4-0.4c-1.1,0-2-0.1-2.6-0.1s-1,0-1.2,0
		c-1.5,0-2.4,0-2.8-0.1c-0.4-0.1-0.6,0.1-0.6,0.6c0,0.7,0,1.4,0,2s0,1.3,0,1.9c0,1.2,0.2,2.2,0.8,3.2c0.3,0.6,0.6,1.1,0.8,1.7
		c0.2,0.5,0.6,1,1,1.3c1,0.7,2,1.1,3.2,1.1c0.6,0,1.2,0,1.8,0C1361.3,92.8,1361.9,92.8,1362.4,92.8z"/>
	<path class="st0" d="M1479.9,59.8c0-1,0.1-1.7,0.4-2.2s0.2-1.2-0.2-2.3c0,0,0,0,0-0.1l0,0l0,0c0-0.2-0.1-0.4-0.1-0.7s0-0.6,0-1.1
		c0-0.8,0.1-1.4,0.2-1.9c0-0.2,0.1-0.3,0.1-0.4c0-0.1,0-0.1,0,0c0.1,0,0.1,0,0.1-0.1c0,0,0,0,0.1-0.2l0.3-0.6
		c0.1-0.2,0.2-0.3,0.3-0.4c0.1-0.1,0.2-0.2,0.3-0.3l2.8-1.6c0.4-0.1,0.8-0.2,1.1-0.2c0.1,0,0.3,0,0.4,0.1c0.1,0.1,0.3,0.1,0.6,0.1
		c1.6,0.1,2.3,0.1,2.1,0c-0.1,0,0,0,0.3,0.2c0.3,0.2,0.9,0.5,1.7,1l0.8,0.8c0.2,0.3,0.2,0.3,0,0.1c-0.1-0.1-0.1-0.2-0.1-0.1
		c0,0,0.1,0.1,0.3,0.2l1.1,1.6c0.4,0.6,0.7,1.2,0.9,1.6c0.1,0.4,0.4,0.8,0.7,1.2c0.2,0.2,0.3,0.4,0.4,0.6c0.1,0.2,0.2,0.3,0.2,0.3
		c0.1,0.1,0.2,0.4,0.4,1c0.2,0.5,0.4,1.1,0.7,1.7c0.3,0.6,0.7,1.3,1.1,2c0.9,1.4,1.7,2.5,2.5,3.3c0.8,0.9,1.4,1.8,1.9,2.8
		s1.1,1.9,1.8,2.8l2.4,4l0.3,0.4c0,0,0,0.1,0.1,0.2c0,0.1,0.1,0.1,0.1,0.1l1,2.1c0,0.1,0,0.1,0.1,0.2c0,0.1,0.1,0.1,0.1,0.2
		c0,0,0,0.1,0.1,0.2c0.1,0.1,0.1,0.2,0.1,0.3l5.3,10.5c0.1,0.3,0.2,0.4,0.2,0.5s0.1,0.3,0.2,0.5l0.4,0.8c0-0.8,0-1.7-0.1-2.5
		s-0.1-1.6-0.2-2.4c-0.1-0.8-0.2-1.6-0.3-2.3c-0.1-0.8-0.1-1.6-0.2-2.4v-7.9c0-0.2,0-0.4-0.1-0.6c0-0.2,0-0.4,0-0.5V53.8
		c0.1-0.5,0.2-0.8,0.3-0.8s0.2-0.1,0.3-0.4c0.2-0.5,0.3-0.9,0.2-1.2c0-0.3,0.3-0.7,1.1-1.3l0.9-0.8c0.6-0.9,1-1.1,1.3-0.8
		c0.3,0.3,0.6,0.1,0.8-0.7c0.5,0,0.8,0.1,0.9,0.2c0,0,0.1,0.1,0.1,0.3c0.1,0.1,0.1,0.3,0.2,0.5l1.6-0.2c0.4,0,0.5-0.1,0.3-0.2
		c-0.2-0.1,0-0.1,0.6,0.1c0.4,0.2,0.9,0.5,1.4,1.1c0.4,0.4,0.6,0.7,0.7,0.8c0.1,0.1,0.1,0.1,0,0c-0.1-0.2-0.1-0.2,0-0.2
		c0.1,0,0.3,0.2,0.6,0.4c0.7,0.6,1,1.3,0.9,2.1V55c0.2,0.1,0.3,0,0.3-0.3s0.1-0.3,0.5,0c0.2,0.2,0.1,0.9-0.1,2.3
		c-0.2,1.3-0.3,2-0.3,2.1s0,0.3,0,0.4c0,0.1,0,0.2,0,0.2l-2.7,23.5c-0.1,0.7-0.3,1.7-0.6,3s-0.6,2.8-1,4.6c-0.4,1.8-0.8,3.3-1.1,4.6
		c-0.3,1.2-0.6,2.2-0.9,3l-1.2,2.4c-0.4-0.3-0.8-0.5-1-0.8c-0.2-0.3-0.5-0.6-0.8-1c-0.4-0.4-0.5-0.6-0.5-0.5s-0.1,0-0.5-0.2
		c-1.5-0.8-2.9-1.8-4.4-3.2c-0.7-0.7-1.4-1.4-2-2c-0.6-0.7-1.1-1.3-1.6-2c-0.2-0.2-0.3-0.4-0.4-0.5s-0.2-0.3-0.3-0.4
		c-0.1-0.1-0.2-0.3-0.3-0.4s-0.3-0.3-0.4-0.5c-0.1-0.1-0.2-0.3-0.3-0.4c0-0.1-0.1-0.1-0.1-0.1l-0.3-0.4l-4.2-4.4
		c-0.5-0.5-1-1-1.4-1.6c-0.4-0.5-0.8-1.1-1.2-1.7c-0.4-0.6-0.8-1.1-1.2-1.7c-0.4-0.6-0.8-1.1-1.3-1.7c-0.2-0.3-0.4-0.4-0.4-0.4
		s0.1,0.1,0.3,0.3c0.2,0.2,0.3,0.3,0.3,0.3s-0.1-0.2-0.4-0.4l-3.7-4.2c0,0.6,0,0.9,0,1c0,0.2,0.1,0.4,0.1,0.8v1.7l0.3,4.6
		c0,0.3,0,0.5,0.1,0.7c0,0.2,0.1,0.6,0.1,1c0,0.8-0.1,1.7-0.2,2.7c-0.1,1-0.2,2.2-0.4,3.5l-0.9,6.2l-1.2,6c-0.1,0.3-0.3,0.6-0.4,0.7
		c-0.1,0.2-0.2,0.4-0.3,0.7c-0.6-0.1-1-0.2-1.2-0.5s-0.4-0.6-0.6-1.1c-1.1-2.5-1.9-5.2-2.3-8.2c-0.4-2.9-0.8-5.7-1-8.5
		c0-0.3-0.1-0.7-0.2-1.1s-0.5-1-0.5-1.6c0-0.4-0.1-0.6-0.1-0.8c0-0.2,0-0.3,0-0.4c0-0.1,0-0.2,0-0.4c0-0.2-0.1-0.5-0.1-0.8l-1-8.4
		c0-0.4,0-0.8-0.1-1.3s-0.1-1-0.2-1.5c-0.1-0.5-0.1-1-0.2-1.5c-0.1-0.5-0.1-1-0.1-1.5L1479.9,59.8z M1481.6,49.9
		C1481.6,49.8,1481.6,49.8,1481.6,49.9L1481.6,49.9z M1486.5,47.7L1486.5,47.7L1486.5,47.7L1486.5,47.7z M1519.3,49.3L1519.3,49.3
		C1519.3,49.4,1519.3,49.4,1519.3,49.3L1519.3,49.3L1519.3,49.3z"/>
	<path class="st0" d="M1549.5,46.1h0.2l3.9,0.5c1.6,0.4,2.4,0.7,2.3,0.8c0,0.1,0.7,0.4,2.2,1.1l4.3,2.5c1.7,1,3,2,3.9,3
		s1.8,2.3,2.8,3.8c0.2,0.4,0.4,0.8,0.6,1.1c0.1,0.4,0.3,0.7,0.5,1.1c0.2,0.4,0.4,0.7,0.6,1s0.4,0.6,0.6,1c0.9,2.3,1.4,4.8,1.5,7.5
		c0.1,1.3,0.1,2.6,0,3.9c0,1.2-0.1,2.5-0.2,3.7c-0.1,0.6-0.1,1.1-0.1,1.6s0,1-0.1,1.4c-0.2,1-0.4,2-0.7,3s-0.7,2-1.2,3.1
		c-0.9,2.1-2,3.8-3.5,5.3c-0.9,0.9-1.6,1.5-2.2,1.8c-0.5,0.3-1.1,0.6-1.7,1.1l-3.6,3c-1.1,0.8-2.6,1.7-4.3,2.6
		c-0.6,0.3-1.2,0.6-2,0.8c-0.7,0.3-1.5,0.5-2.3,0.6c-1.7,0.4-3.2,0.5-4.5,0.4h-0.1h-0.1c-2.1-0.1-4-0.6-5.7-1.4s-3.3-1.9-4.8-3.1
		l-6.3-7.2c-0.4-0.5-0.8-1-1.2-1.7c-0.4-0.7-0.8-1.5-1.2-2.5c-0.3-0.6-0.5-1.4-0.9-2.6c-0.3-1.1-0.6-2-0.7-2.7
		c-0.1-0.5-0.1-1-0.1-1.5s0-1.1-0.1-1.6l-0.2-6c-0.2-2.2,0.1-4.4,1-6.8c0.4-1.2,0.9-2.3,1.5-3.3c0.5-1,1.1-1.9,1.8-2.8l2.9-3.7
		c2.2-2.9,5-5.2,8.5-6.7c3-1.3,4.6-1.9,4.9-1.7c0.3,0.2,1.2,0.1,2.5-0.2L1549.5,46.1z M1536.5,75.4c0,3.2,0.7,5.9,2.2,8.2l1.1,1.5
		c0.5,0.6,1.1,1.3,1.8,2s1.5,1.5,2.5,2.3c1.9,1.6,3.6,2.5,5.1,2.5c3.2,0.1,5,0,5.3-0.1c0.2-0.1,0.6-0.3,1.2-0.6
		c0.6-0.3,1.4-0.7,2.4-1.3c1.1-0.6,1.7-1.2,2-1.9c0.3-0.7,0.6-1.7,0.8-2.9c0.3-2.1,0.7-3.2,1-3.4c0.4-0.2,0.5-1.9,0.4-5.3
		c0-0.4-0.1-1-0.1-1.7c-0.1-0.7-0.2-1.4-0.3-2.3c-0.3-1.8-0.5-3.1-0.8-3.9c-0.2-0.8-0.4-1.3-0.5-1.7c-0.1-0.3-0.1-0.5-0.1-0.3
		c0,0.2-0.3-0.5-1.1-1.9c-0.6-1.2-1.1-2-1.5-2.3c-0.4-0.4-1.1-1-2.2-1.7L1551,58c-1-0.4-2.4-0.3-4.1,0.1c-1.7,0.5-2.9,1-3.6,1.7
		l-0.1,0.1l-6.4,8c-0.2,0.4-0.3,0.7-0.3,1.1s0,0.7,0,1L1536.5,75.4z"/>
	<path class="st0" d="M1587.1,101.4c-0.4,0-0.8,0-1.3-0.1c-0.5,0-1-0.1-1.7-0.2c-0.6-0.1-1.1-0.2-1.6-0.2c-0.4-0.1-0.8-0.1-1.1-0.2
		l-1.8-1.3c-0.5-0.6-1-1.2-1.3-1.9c-0.4-0.7-0.6-1.4-0.6-2.3c0-0.7,0-0.9,0-0.7c0,0.3,0.1,0.3,0.2,0l0.6-1.4c0.5-1.4,0.6-3.4,0.4-6
		c-0.2-2.7-0.3-4.7-0.3-6c-0.3-0.1-0.7-0.2-1.1-0.3s-0.8-0.2-1.2-0.2c-0.9-0.1-1.7-0.5-2.4-1.3c-0.5-0.5-0.7-1-0.7-1.4
		c0.1-0.7,0.7-1.5,2-2.5c0.6-0.5,1.1-0.9,1.6-1.3c0.4-0.3,0.8-0.6,1.1-0.8c-0.5-1.1-0.8-2.7-0.7-4.8c0.1-2.1,0-3.7-0.3-4.8l-0.2-1.3
		c-0.2-2.1-0.4-4.2-0.8-6.3c-0.3-2.1-0.5-4.3-0.7-6.4l0.3-1.8c0.3-0.6,0.7-1.1,1.2-1.7c0.5-0.5,1-1,1.5-1.5c0.1-0.1,0.3-0.2,0.6-0.3
		c0.3,0,0.4,0,0.2,0.2c-0.2,0.1,0.2-0.2,1.2-1c1,0.3,1.6,0.3,1.9,0.2s1-0.2,2.2-0.2c5.3,0,10.7-0.4,16.3-1.3l2.1-0.3
		c0.6-0.1,1.1-0.1,1.4-0.1c0.4,0,0.6,0,0.8,0c0.6,0.1,1.1,0.2,1.7,0.3c0.5,0.1,1,0.3,1.4,0.4c0.4,0.2,0.8,0.3,1.1,0.5
		c0.3,0.2,0.5,0.3,0.6,0.4c0.4,0.4,0.5,0.6,0.3,0.6c-0.1,0,0,0,0.1,0c0.2,0,0.5-0.1,0.9-0.2c0.2,0.8,0.3,1.2,0.4,1.4
		c0.6,0.9,0.8,1.5,0.6,2c-0.1,0.2-0.2,0.4-0.3,0.6c-0.1,0.2-0.1,0.3-0.2,0.4c-0.1,0.2-0.1,0.3-0.1,0.2c0-0.1,0.1-0.1,0.1,0.3
		c0,0.4,0.1,0.6,0.1,0.7s0-0.1,0-0.4s0-0.4,0-0.4s0,0.2-0.1,0.6c0,0,0,0.1-0.1,0.2c0,0.1,0,0.1,0,0.1c0,0.1-0.1,0.3-0.3,0.7
		l-1.8,2.5c-0.3,0.3-0.5,0.4-0.7,0.6c-0.5,0.4-1.4,0.7-2.8,0.9s-2.3,0.3-2.9,0.3c-2,0-4.2,0.2-6.5,0.7c-2.4,0.4-4.6,0.7-6.8,0.6
		c-0.3,0-0.7,0-1.2,0.1c-0.5,0-0.9,0-1.3-0.2c-0.1,0.3-0.2,0.6-0.1,0.9l0.4,6.4c0.1,1.4,0.2,2.4,0.1,3l-0.2,2.3
		c1.5-0.8,3.5-1.5,6.2-2.2c2.6-0.7,4.8-1.2,6.5-1.5c1.6-0.3,2.4-0.5,2.5-0.7c0.1-0.2,0.4-0.4,1-0.6c-0.1,0.8,0,1,0.3,0.5l0.2-0.3
		c1.5,0,2.7,0.6,3.6,1.7c0.3,0.3,0.5,0.6,0.8,1s0.5,0.8,0.7,1.1c0.2,0.4,0.4,0.8,0.6,1.2s0.3,0.8,0.3,1.2v0.7c0,0.1,0,0.2,0,0.3
		s0,0.1,0,0.2l-0.2,0.5c-0.2,0.5-0.3,0.9-0.4,1.2c-0.1,0.3-0.3,0.7-0.6,1.1c-0.3,0.3-0.6,0.7-0.9,1.1c-0.4,0.4-0.7,0.7-1.1,0.8
		c-0.2,0.1-0.5,0.2-0.9,0.5c-0.4,0.2-0.8,0.4-1.3,0.4c-1.3,0.1-1.9,0-1.8-0.2c0.1-0.2-0.4-0.4-1.4-0.4c-1-0.1-2,0-3.1,0.2
		c-1,0.2-2,0.4-3.1,0.6l-1.6,0.3c-0.4,0.1-0.8,0.2-1.1,0.2c-0.3,0-0.7,0.1-1,0.2c-0.5,0.1-1.1,0.3-1.9,0.7c-0.8,0.3-1.5,0.5-2,0.5
		v2.5c0,1.7-0.1,3.8-0.4,6.4c-0.1,1.3-0.2,2.4-0.3,3.3c-0.1,0.9-0.1,1.6-0.1,2.2c1.2,0,2.4-0.1,3.5-0.2s2.2-0.2,3.4-0.3
		c1.2,0,2.4-0.1,3.4-0.2c1.1-0.1,2-0.2,2.9-0.3c1.8-0.3,3.9,0.1,6.4,1.1c0.5,0.2,1,0.5,1.3,0.7c0.4,0.2,0.7,0.5,0.9,0.7
		c0.4,0.5,0.8,0.7,1.1,0.8c0,0.9-0.5,1.6-1.4,2.2c-1.5,1-3,1.5-4.2,1.6c-0.6,0-1.3,0.1-2,0.2s-1.5,0.2-2.3,0.3
		c-1,0.2-1.9,0.3-2.9,0.5s-2,0.4-3.1,0.5c-1.1,0.2-2.2,0.3-3.4,0.5C1589.6,101.4,1588.4,101.4,1587.1,101.4z M1609.6,43L1609.6,43
		L1609.6,43L1609.6,43z"/>
	<path class="st0" d="M1635.5,90.7c-0.1-0.3-0.3-0.7-0.6-1.2c-0.3-0.4-0.5-0.8-0.7-1.1c-0.7-1.1-1.8-1.9-3.1-2.5
		c-0.7-0.3-1.2-0.6-1.8-0.9c-0.5-0.3-1-0.5-1.4-0.8c-0.9-0.5-1.8-1.1-2.8-1.6c-0.9-0.5-1.9-1-2.8-1.5c-1-0.5-1.9-1-2.7-1.6
		c-0.8-0.6-1.7-1.3-2.4-2c-0.2-0.2-0.4-0.3-0.6-0.5c-0.2-0.1-0.3-0.3-0.5-0.4c-1.5-1.3-2.5-3-3-5.1c-0.4-2.1-0.6-4.1-0.3-6.1
		c0-0.3,0.1-0.6,0.2-0.8l0.1-0.3l0.3-0.6c0-0.1,0-0.1,0.1-0.2c0.5-1.2,1.1-2.2,1.7-3.1s1.4-1.8,2.3-2.7l0.5-0.6
		c0.7-0.8,1.6-1.5,2.6-2.2c1.1-0.7,2.1-1.3,3-1.6l2.4-1c0.5-0.2,1.1-0.3,1.7-0.5s1.3-0.2,1.9-0.3s1.3-0.1,1.9-0.1s1.2,0,1.8,0.1
		c0.5,0.1,1.2,0.2,1.9,0.3c0.7,0.1,1.5,0.3,2.3,0.6c1.7,0.4,3,1.1,3.7,1.9c0.6,0.7,1.1,1.3,1.6,2.1c0.5,0.7,0.9,1.5,1.2,2.3
		c0.7,1.5,0.8,3.2,0.3,5.1c-0.2,0.7-0.3,1.2-0.3,1.6c0,0.3-0.3,0.5-0.9,0.5c0,1-0.1,1.7-0.4,2.4c-0.3,0.7-0.6,0.9-0.8,0.8
		c-0.2-0.1-0.4,0.1-0.6,0.6c-0.1-0.1-0.1-0.1-0.1-0.1c-0.3-0.3-0.7-0.5-1.3-0.3c-0.2-0.9-0.4-1.3-0.6-1.2s-0.3-0.2-0.4-0.8
		c-0.1-0.5-0.1-0.8-0.1-0.9c0.1-0.1-0.3-0.4-1.2-0.8c-0.7-0.3-1.1-0.5-1.2-0.5s-0.3-0.3-0.8-0.9c-0.5-0.7-1.2-0.9-2-0.6
		c-0.2,0.1-0.4,0.2-0.7,0.2c-0.3,0-0.6,0-1,0s-0.7,0-1.2,0c-0.4,0-0.8,0.1-1.3,0.2l-0.5,0.2c0,0-0.2,0.1-0.4,0.3l-1,0.7l-0.9,0.8
		l-1.6,1.8c0.6,0.9,1.4,1.6,2.5,2.3c0.5,0.3,1.1,0.6,1.5,0.8c0.5,0.2,0.9,0.5,1.3,0.7c1.7,1,3.3,1.9,4.7,2.7
		c1.4,0.8,2.6,1.5,3.6,2.2c2.1,1.3,4.1,4,5.9,7.9l0.8,1.7c0.6,1.3,0.8,2.8,0.8,4.5c0,0.8-0.2,1.6-0.4,2.3c-0.2,0.7-0.5,1.3-0.8,1.9
		s-0.7,1.2-1.2,1.7s-1,1.1-1.6,1.7s-1.3,1-2,1.4c-0.8,0.3-1.5,0.7-2.3,1c-1,0.4-2.3,0.7-4,0.9c-0.8,0.1-1.6,0.2-2.3,0.2
		c-0.7,0.1-1.3,0.1-1.8,0c-0.8-0.1-1.5-0.1-2.2-0.2s-1.2-0.2-1.7-0.2c-1-0.2-2.2-0.6-3.7-1.3c-0.6-0.3-1-0.5-1.2-0.7
		c-0.1,0-0.1,0-0.1-0.1l-2.8-3c-0.5-0.8-1.1-2.3-1.9-4.4c-0.8-2.2-0.6-3.3,0.5-3.3c0.6,0,1.7,0.7,3.2,2.1s3.5,2.4,6.2,2.9
		c1.3,0.3,3.1,0.2,5.2-0.2C1633.3,92.7,1634.7,91.9,1635.5,90.7z"/>
	<path class="st0" d="M1656.3,102.1c-1-0.2-1.7-0.7-2.2-1.3c-0.5-0.6-1-1.3-1.4-2.1c-0.7-1.3-1.3-3.7-1.7-7.1
		c-0.4-3.5-0.7-6.1-0.9-7.8c0-0.3-0.1-0.7-0.1-1.4s0-1.2-0.1-1.7c-0.1-1.1-0.2-2.1-0.3-3.1c-0.1-1-0.2-1.9-0.3-2.8
		c-0.1-0.9-0.2-1.9-0.3-2.9s-0.1-2.1-0.2-3.2c0-0.4-0.1-0.8-0.1-1.3s-0.1-1-0.1-1.7c0-0.6-0.1-1.2-0.1-1.7c0-0.5,0-0.9-0.1-1.2
		l-0.4-7.5c-0.1-3,0.1-5.1,0.7-6.4c0.1-0.2,0.1-0.3,0.2-0.3c0,0,0,0,0-0.1l0,0l0,0l1.6-1.9c0.7-0.5,1-0.7,1.1-0.5s0.4,0.1,0.9-0.1
		s0.6-0.3,0.3-0.4c-0.3-0.1,0-0.1,0.9,0c0.2,0,0.4,0.1,0.7,0.1c0.3,0.1,0.7,0.1,1.2,0.2c0.9,0.1,1.5,0.3,1.8,0.5c0,0,0,0.1,0.1,0.1
		l0.1,0.1l1.1,0.6c0.7,0.3,1.2,1.1,1.5,2.3c0.1,0.5,0.1,0.7,0.1,0.7s0,0.1,0,0.5c0,0.5,0.1,0.8,0.2,0.8s0.2,0.2,0.3,0.4
		c0.3,0.7,0.4,1,0.3,0.9c-0.1,0-0.1,0.6-0.1,1.9l-1.6,35.4c-0.1,1.1-0.3,2.2-0.5,3.3c-0.2,1.1-0.3,2.3-0.5,3.3
		c-0.2,1.3-0.4,2.3-0.6,3C1657.8,100.5,1657.2,101.3,1656.3,102.1z M1660.4,52L1660.4,52C1660.5,52,1660.5,52,1660.4,52L1660.4,52z"
		/>
	<path class="st0" d="M1684.1,90.7c-0.1-0.3-0.3-0.7-0.6-1.2c-0.3-0.4-0.5-0.8-0.7-1.1c-0.7-1.1-1.8-1.9-3.1-2.5
		c-0.7-0.3-1.2-0.6-1.8-0.9c-0.5-0.3-1-0.5-1.4-0.8c-0.9-0.5-1.8-1.1-2.8-1.6c-0.9-0.5-1.9-1-2.8-1.5c-1-0.5-1.9-1-2.7-1.6
		c-0.8-0.6-1.7-1.3-2.4-2c-0.2-0.2-0.4-0.3-0.6-0.5c-0.2-0.1-0.3-0.3-0.5-0.4c-1.5-1.3-2.5-3-3-5.1c-0.4-2.1-0.6-4.1-0.3-6.1
		c0-0.3,0.1-0.6,0.2-0.8l0.1-0.3l0.3-0.6c0-0.1,0-0.1,0.1-0.2c0.5-1.2,1.1-2.2,1.7-3.1s1.4-1.8,2.3-2.7l0.5-0.6
		c0.7-0.8,1.6-1.5,2.6-2.2c1.1-0.7,2.1-1.3,3-1.6l2.4-1c0.5-0.2,1.1-0.3,1.7-0.5s1.3-0.2,1.9-0.3s1.3-0.1,1.9-0.1s1.2,0,1.8,0.1
		c0.5,0.1,1.2,0.2,1.9,0.3c0.7,0.1,1.5,0.3,2.3,0.6c1.7,0.4,3,1.1,3.7,1.9c0.6,0.7,1.1,1.3,1.6,2.1c0.5,0.7,0.9,1.5,1.2,2.3
		c0.7,1.5,0.8,3.2,0.3,5.1c-0.2,0.7-0.3,1.2-0.3,1.6c0,0.3-0.3,0.5-0.9,0.5c0,1-0.1,1.7-0.4,2.4c-0.3,0.7-0.6,0.9-0.8,0.8
		c-0.2-0.1-0.4,0.1-0.6,0.6c-0.1-0.1-0.1-0.1-0.1-0.1c-0.3-0.3-0.7-0.5-1.3-0.3c-0.2-0.9-0.4-1.3-0.6-1.2s-0.3-0.2-0.4-0.8
		c-0.1-0.5-0.1-0.8-0.1-0.9c0.1-0.1-0.3-0.4-1.2-0.8c-0.7-0.3-1.1-0.5-1.2-0.5s-0.3-0.3-0.8-0.9c-0.5-0.7-1.2-0.9-2-0.6
		c-0.2,0.1-0.4,0.2-0.7,0.2c-0.3,0-0.6,0-1,0s-0.7,0-1.2,0c-0.4,0-0.8,0.1-1.3,0.2l-0.5,0.2c0,0-0.2,0.1-0.4,0.3l-1,0.7l-0.9,0.8
		l-1.6,1.8c0.6,0.9,1.4,1.6,2.5,2.3c0.5,0.3,1.1,0.6,1.5,0.8c0.5,0.2,0.9,0.5,1.3,0.7c1.7,1,3.3,1.9,4.7,2.7
		c1.4,0.8,2.6,1.5,3.6,2.2c2.1,1.3,4.1,4,5.9,7.9l0.8,1.7c0.6,1.3,0.8,2.8,0.8,4.5c0,0.8-0.2,1.6-0.4,2.3c-0.2,0.7-0.5,1.3-0.8,1.9
		s-0.7,1.2-1.2,1.7s-1,1.1-1.6,1.7s-1.3,1-2,1.4c-0.8,0.3-1.5,0.7-2.3,1c-1,0.4-2.3,0.7-4,0.9c-0.8,0.1-1.6,0.2-2.3,0.2
		c-0.7,0.1-1.3,0.1-1.8,0c-0.8-0.1-1.5-0.1-2.2-0.2s-1.2-0.2-1.7-0.2c-1-0.2-2.2-0.6-3.7-1.3c-0.6-0.3-1-0.5-1.2-0.7
		c-0.1,0-0.1,0-0.1-0.1l-2.8-3c-0.5-0.8-1.1-2.3-1.9-4.4c-0.8-2.2-0.6-3.3,0.5-3.3c0.6,0,1.7,0.7,3.2,2.1s3.5,2.4,6.2,2.9
		c1.3,0.3,3.1,0.2,5.2-0.2C1681.8,92.7,1683.3,91.9,1684.1,90.7z"/>
</g>
<g>
	<path class="st0" d="M1449.5,78.1c-0.6,0.2-0.9,0.3-0.8,0.3c0.1-0.1,0,0.1-0.5,0.5l-0.4,0.4l-0.1,0.1l-0.4,0.9
		c-0.3,0.8-0.8,1.3-1.6,1.6c-0.8,0.3-1.4,0.5-1.8,0.4l-0.3-0.1c-0.4,0-0.6,0-0.5,0c0.1,0.1-0.2,0.2-0.7,0.5c-1.4,0.8-2.9,1.1-4.3,1
		c-1.4-0.1-3-0.1-4.7,0c-1.6,0.1-4.5,0-8.5-0.3c-2-0.1-3.8-0.4-5.2-0.8c-1.5-0.4-2.6-0.8-3.6-1.3c-0.6-0.3-1-0.5-1.2-0.5
		c-0.2-0.1-0.6-0.3-1-0.7c-1.6-1.2-2.6-2.6-3.1-4.1c0.3-0.4,0.6-0.8,0.9-1c0.3-0.3,0.6-0.5,1-0.7c0.4-0.2,0.8-0.3,1.2-0.4
		c0.4-0.1,1-0.2,1.6-0.4c0.8-0.2,1.7-0.4,2.7-0.8c0.9-0.3,1.9-0.6,2.9-0.9c0.5-0.1,1.1-0.2,1.6-0.2c0.5-0.1,1.1-0.1,1.7-0.3
		l11.4-2.7c0.5-0.1,0.8-0.2,1.1-0.3c0.3-0.1,0.8-0.3,1.4-0.4l6.6,0.4c0.1,0,0.1,0.1,0.2,0.1c0.1,0,0.2,0.1,0.3,0.1l2.7,2.2
		c0.6,0.5,0.9,0.9,0.9,1.2c0,0.2,0.1,0.6,0.2,1.2c0.2,0.7,0.3,0.9,0.4,0.6c0.1-0.4,0.1-0.1,0.1,0.6c0,0.8-0.1,1.1-0.4,0.8
		c-0.2-0.3-0.1,0,0.4,0.9c-0.8,0.1-1.2,0.2-1.2,0.4c0.1,0.1,0,0-0.1-0.4c0,0,0,0,0,0c-0.1,0-0.1,0-0.1,0l-0.3,0.4
		c0.4,0.2,0.6,0.3,0.7,0.2c0.1-0.1,0.4,0,1,0.1V78.1z M1440.9,82.2C1440.8,82.2,1440.8,82.2,1440.9,82.2
		C1440.9,82.2,1440.9,82.2,1440.9,82.2L1440.9,82.2L1440.9,82.2z M1449.5,75.2C1449.5,75.3,1449.5,75.3,1449.5,75.2L1449.5,75.2
		L1449.5,75.2z"/>
</g>
</svg>
