<?xml version="1.0" encoding="iso-8859-1"?>
<!-- Generator: Adobe Illustrator 19.2.1, SVG Export Plug-In . SVG Version: 6.00 Build 0)  -->
<svg version="1.1" id="Layer_1" xmlns="http://www.w3.org/2000/svg" xmlns:xlink="http://www.w3.org/1999/xlink" x="0px" y="0px"
	 viewBox="0 0 30 30" style="enable-background:new 0 0 30 30;" xml:space="preserve">
<path style="fill:#6F3B91;" d="M30,15c0,8.284-6.717,15-15.001,15C6.715,30,0,23.284,0,15C0,6.716,6.715,0,14.999,0
	C23.283,0,30,6.716,30,15"/>
<path style="fill:#ECE0DB;" d="M24.225,12.429c0,0.475-4.13,0.861-9.225,0.861c-5.095,0-9.225-0.385-9.225-0.861
	c0-0.475,4.13-0.861,9.225-0.861C20.095,11.569,24.225,11.954,24.225,12.429"/>
<path style="fill:#ECE0DB;" d="M24.225,15.728c0,0.475-4.13,0.861-9.225,0.861c-5.095,0-9.225-0.385-9.225-0.861
	c0-0.475,4.13-0.861,9.225-0.861C20.095,14.867,24.225,15.252,24.225,15.728"/>
<path style="fill:#ECE0DB;" d="M24.225,19.026c0,0.475-4.13,0.861-9.225,0.861c-5.095,0-9.225-0.385-9.225-0.861
	c0-0.475,4.13-0.861,9.225-0.861C20.095,18.165,24.225,18.551,24.225,19.026"/>
</svg>
