<?xml version="1.0" encoding="utf-8"?>
<!-- Generator: Adobe Illustrator 19.2.1, SVG Export Plug-In . SVG Version: 6.00 Build 0)  -->
<svg version="1.1" id="Layer_1" xmlns="http://www.w3.org/2000/svg" xmlns:xlink="http://www.w3.org/1999/xlink" x="0px" y="0px"
	 viewBox="0 0 594.6 154.5" style="enable-background:new 0 0 594.6 154.5;" xml:space="preserve">
<style type="text/css">
	.st0{fill:#5d2d7a;}
</style>
<g id="XMLID_382_">
	<path id="XMLID_383_" class="st0" d="M208.1,54.5c0.2-0.8,0.2-1.4-0.1-1.8c-0.2-0.2-0.3-0.4-0.4-0.6s-0.2-0.3-0.2-0.4
		c-0.1-0.3,0-0.9,0.3-1.8c2-7.2,7.3-11.5,15.8-12.6c4.3-0.6,8.2-1.2,11.8-1.7s6.9-1,9.8-1.4c2.2-0.3,4.6-0.5,6.9-0.7
		c2.4-0.1,4.9-0.2,7.4-0.1c5.1,0.1,10.3,0.1,15.4,0c0.8,0,1.6,0,2.4-0.1s1.6-0.2,2.4-0.3c1.7-0.3,3.6,0,5.7,0.7l6.2,5.1
		c0.7,1,0.9,1.4,0.4,1.2s0.1,0.9,1.8,3.3l-1.2,0.9c0,0-0.1,0.1-0.2,0.1c0.3,1.3,0.6,1.8,0.8,1.6c0.3-0.2,0.2,0.4-0.2,1.8
		c-0.4,1.1-1,2-1.9,2.9s-1.7,1.6-2.5,2.3l-2,2.3c-0.9,0-1.6,0-2.1,0s-0.9,0-1.1,0.1c-0.4,0-1.1,0.3-2,0.9c-0.5,0.3-0.9,0.5-1.1,0.7
		c-0.2,0.1-0.2,0.2-0.1,0.1c0.2-0.1-0.1-0.2-0.9-0.2l-17.3-0.6l-2.2,30.7l-3,22.9c-1.3,9.8-3.2,16.8-5.7,21.2
		c-0.4,0.7-0.8,1.3-1.2,1.7c-0.7,0.8-1,1-0.9,0.6c0.1-0.2,0.1-0.2,0.1-0.1c0,0.2-0.2,0.5-0.4,0.9c-1.8-0.1-3.2-1.1-4.3-3.1
		c-1.1-2.1-2.1-4.5-2.8-7.1c-0.7-2.7-1.2-5.3-1.6-7.9l-0.7-5.4l-1.5-54.1h-8.9c-2.1,0-5,0.1-8.5,0.5c-0.4,0-0.6,0.1-0.8,0.1
		s-0.3,0.1-0.5,0.1c-0.1,0-0.3,0-0.4,0.1s-0.3,0-0.6,0c-3.2,0.4-5.4,0-6.7-1.1l-2-1.6c-0.6-0.3-0.7-0.5-0.6-0.4
		C209.5,54.3,209.1,54.4,208.1,54.5z M288.2,51.7C288.2,51.8,288.2,51.8,288.2,51.7c0.1,0.1,0.1,0.1,0.1,0.1L288.2,51.7z"/>
	<path id="XMLID_386_" class="st0" d="M298.8,42.6c0-0.4,0-0.7-0.1-0.9s-0.1-0.5-0.1-0.9c0-0.3,0-0.5,0-0.7s0-0.4,0-0.5
		c0.1-3-0.2-6.4-0.7-10.2c-0.6-3.9-0.7-6.4-0.5-7.4l1.1-4.2l0.3-0.5l0.2-0.7c0.1-0.1,0.1-0.2,0.1-0.2l1.2-1.2c0,0,0-0.1,0.1-0.1
		l0.1-0.1c0.4-0.4,0.5-0.6,0.2-0.6c-0.2,0-0.1,0,0.1-0.1s0.6-0.3,1.2-0.5l3.4-0.8c0.6-0.2,1-0.4,1.3-0.5s0.6-0.2,0.7-0.3
		c0.2-0.1,0.9,0,2.1,0.3c3.2,1,4.9,1.5,5.1,1.4c0.2,0,1.4,1.2,3.8,3.7l0.5,0.4l0.2,0.2c1.8,1.8,2.4,5,1.8,9.6
		c-0.5,4.5-0.8,8-0.9,10.4l-1.2,17.4c-0.1,1.1-0.2,2.2-0.3,3.2c-0.1,1-0.3,1.9-0.4,2.7c-0.2,0.8-0.3,1.7-0.4,2.7
		c-0.1,1-0.2,2.1-0.3,3.3c-0.2,2.6-0.5,4.4-0.9,5.3c0.9-0.2,2.2-1.4,4.1-3.6c0.9-1.1,1.8-2,2.6-2.8c0.8-0.8,1.4-1.4,2-1.9l1.7-1.4
		c0.7-0.6,1.7-1.3,3-1.9l2.8-1.4c3.5-1.1,6.4-1.6,8.9-1.5c2.6,0.1,5.4,1.1,8.4,3.2c2,1.4,3.8,3.4,5.6,6.1c1,1.6,1.8,3.3,2.4,5.3
		c0.6,1.9,1.2,3.7,1.6,5.4c0,0.3,0.1,0.6,0.2,0.8c0,0.1,0.1,0.2,0.1,0.2s0.1,0.4,0.2,1.2c0.2,1.1,0.3,2.2,0.3,3.4s0,2.4,0,3.5
		s0,2.4-0.1,3.5c0,1.2,0,2.3,0,3.4c0,0.4,0,0.6,0,0.7s0,0,0.1-0.2s0.1-0.2,0.1-0.1s0,0.4,0,0.9l-3.3,23c-0.1,0.3-0.1,0.7-0.2,1.2
		c0,0.5-0.1,1.1-0.1,1.8c-0.1,1.4-0.2,2.4-0.4,3c-0.3,0.8-0.5,1.3-0.7,1.3s-0.3,0.3-0.5,0.9s-0.3,0.9-0.2,1.1
		c0.1,0.2-0.1,0.6-0.5,1.1l-2.5,2.4l-0.2,0.2l-0.4,0.5c-1.4,2-2.4,2.6-2.8,1.8s-0.8-0.4-1.2,1.2c-1.3-0.1-1.9-0.3-1.8-0.6
		s-0.2-0.6-0.9-0.7c-0.7-0.2-0.8-0.2-0.5-0.2c0.5,0.1,0.5,0.2-0.1,0.3l-1.4-0.2c-1.2-0.2-2-0.1-2.4,0.2s-1.1-0.4-2.3-2
		c-0.2-0.3-0.3-0.5-0.4-0.5c0-0.1,0,0,0.1,0.1s0.1,0.1,0.1,0.1c-0.1-0.1-0.2-0.3-0.4-0.5c-0.3-0.3-0.5-0.4-0.5-0.5
		c-0.1-0.1-0.1,0,0.1,0.1c0.1,0.1,0.1,0.1,0.1,0.1c-0.1-0.1-0.2-0.2-0.5-0.4c-1.6-1.2-2.5-2.7-2.7-4.6c-0.2-1.3-0.1-2.3,0.3-3
		c-0.3-0.1-0.4-0.2-0.2-0.2c0.2,0,0.1,0-0.1,0s-0.6,0.1-1.1,0.2c0-0.8,0-1.4-0.1-1.7c-0.1-0.4-0.1-0.8-0.1-1.3l1.1-8.6
		c0.7-4.6,1.6-9.8,2.8-15.7c1.3-6,1.7-10.8,1.4-14.2c-0.1-1.1-0.1-1.9,0.1-2.3s0-1.1-0.6-2c-0.9,0.1-1.6,0.3-2.1,0.6
		c-0.5,0.3-1,0.7-1.7,1c-1.8,1.2-3.4,2.5-4.7,3.8c-1.3,1.4-2.7,2.8-4.1,4.2l-5,6.2c-0.5,0.7-0.8,1.3-1.1,1.8s-0.7,1.1-1.1,1.8
		c-0.2,0.4-0.4,0.6-0.6,0.9c-0.2,0.2-0.3,0.5-0.5,0.7c-1.5,2.7-2.8,5.8-4,9.3c-0.6,1.8-1.1,3.5-1.4,5.1s-0.5,3.1-0.5,4.6
		c0,3.9-0.4,7.2-1.2,9.9c-0.2,0.7-0.3,1.3-0.4,1.8s-0.2,1-0.4,1.5s-0.3,0.9-0.5,1.4s-0.5,1-0.9,1.5l-0.1,0.1c0,0,0,0.1-0.1,0.2
		c-0.9-0.2-1.7-0.7-2.2-1.3l-3.8-6.5c-1.3-2.8-2.2-7-2.6-12.6l-0.9-13.9l0.5-19.5c0.5-4.1,0.7-8.2,0.6-12.3
		c-0.1-4.1-0.1-8.2-0.1-12.1v-6.7c0-0.8,0-1.5,0-2c0-0.6,0-1.1-0.1-1.5c0-0.3-0.1-0.6-0.1-0.8s0-0.4,0-0.6c0-0.1,0-0.2,0.1-0.4
		c0-0.1,0-0.2,0-0.3C298.8,42.7,298.8,42.6,298.8,42.6z M298.7,16.8c0-0.2,0-0.2,0.1-0.1L298.7,16.8z M309.9,12.2
		C309.9,12.3,309.9,12.3,309.9,12.2L309.9,12.2l-0.1-0.1L309.9,12.2z M318.9,18.9c0,0,0,0.1,0.1,0.1l0.1,0.1L318.9,18.9z
		 M337.1,129.3c0,0,0,0.1,0.1,0.1l0.1,0.1L337.1,129.3z"/>
	<path id="XMLID_392_" class="st0" d="M390.1,134.3c-4.3,0-8.6-1.8-12.9-5.3c-4.2-3.6-7.3-7.4-9.2-11.3c-1.3-2.7-2.4-3.9-3.5-3.6
		s-1.8-0.2-2-1.5l0.1-0.9c0.2-2.3,0.6-3.3,1.2-3.1c0.6,0.2,0.7-0.7,0.3-2.8l-0.5-9.6c0-1.4,0.3-3.1,0.8-5c0.3-1,0.5-1.9,0.7-2.7
		c0.2-0.8,0.4-1.6,0.6-2.2c1.5-4.6,3.9-8.9,7.3-12.7c1.7-2,3.4-3.8,5.2-5.5c1.8-1.7,3.6-3.3,5.4-4.8l2.4-1.6c1-0.7,2.1-1.4,3.3-2.1
		c1.2-0.7,2.5-1.3,3.6-1.6c1.7-0.4,3.4-0.8,5.3-1.1s3.8-0.5,5.9-0.6c4.1-0.2,7.6,0.7,10.3,2.7l2.5,1.9c3,2.4,5,5.8,5.8,10.1
		c0.8,4.3,0.7,8.2-0.5,11.8c-1.1,3.5-2.7,6.4-4.8,8.5c-0.4,0.4-0.8,0.8-1.1,1.2c-0.3,0.4-0.6,0.7-0.8,0.9c-1.7,2.2-4,4.3-6.8,6
		l-7.8,4.7l-8.4,4.5c-0.8,0.5-2.3,1.2-4.4,2.3c-2,1-3.4,1.5-4.2,1.6c0.7,3.1,2.9,5.4,6.4,7c5.5,2.5,11,2.1,16.4-1.4s8.5-6.7,9.3-9.6
		c1,0,1.5,0,1.5,0s0.3,0.3,0.7,0.9c0.6,1.1,0.7,3.4,0.1,7c-0.5,3.5-2.1,6.6-4.7,9.2c-1.5,1.5-3.5,2.9-6,4.2s-4.7,2.2-6.7,2.8
		c-0.7,0.2-1.4,0.4-2.3,0.6s-1.8,0.4-2.8,0.6s-2,0.3-3,0.4S390.9,134.3,390.1,134.3z M400.3,85.3c0-0.8,0.1-1.2,0.2-1.1
		c0,0.1,0.3-0.1,0.8-0.6l4.1-3.6c0.8-0.7,1.2-2.9,1.2-6.7c-2.5-0.6-4.8-0.5-6.8,0.3l-4,1.8c-0.4,0.3-1,0.6-1.6,1.1
		c-0.6,0.4-1.3,1-2.1,1.6c-0.1,0-0.4,0.3-0.9,0.8l-5,5.3c-2.8,3.3-4.4,5.6-4.7,6.9c-0.2,0.6-0.4,1.2-0.7,2c-0.3,0.8-0.6,1.6-1.1,2.6
		c1-0.1,2.4-0.6,4-1.4c0.8-0.4,1.6-0.8,2.3-1.2c0.7-0.4,1.4-0.7,2-1s1.4-0.8,2.5-1.4c1-0.6,2.3-1.4,3.8-2.3
		C397.5,86.4,399.5,85.5,400.3,85.3z"/>
	<path id="XMLID_395_" class="st0" d="M425.7,52.1c0-1.9,0.5-3.5,1.4-4.7l2.7-2.8c0.4-0.4,0.7-0.8,0.9-1.2c0.3-0.5,0.6-0.8,1.1-1.1
		c0,0,0.3-0.1,0.8-0.2c1.1-0.1,1.4-0.1,0.9,0.2c-0.2,0.1-0.2,0.1,0-0.1c0.2-0.1,0.5-0.4,1.1-0.7c0.5-0.3,0.7-0.5,0.6-0.5
		c-0.1-0.1,0.3-0.2,1.1-0.5c0.2,0.2,0.4,0.3,0.5,0.4s0.1,0.2,0.2,0.3c0,0.1,0.1,0.2,0.1,0.3s0.1,0.2,0.2,0.4c0.8-0.6,1.5-0.9,2-1.1
		s1.4,0.2,2.6,0.9c1,0.7,1.4,1.1,1.1,1.1s-0.2,0.2,0.4,0.7c0.5,0.5,0.7,0.6,0.6,0.2c-0.1-0.5,0.3-0.1,1.1,1.1l1.4,2.2
		c2.4,2.8,3.1,4.8,2,6.1s0.6,1.2,5-0.4c2.8-1,5.6-1.6,8.4-1.7c2.9-0.2,5.7,0.5,8.3,1.9c2.3,1.3,3.6,2.5,3.8,3.5
		c0.4,1.1,1.1,2.1,2,3.1l1.2,1.9c0.6,1.7,0.9,3.3,0.9,4.8h1.3c0.2-0.5,0.9-1.3,2.2-2.2l3-2.4c0.1-0.1,0.2-0.1,0.3-0.2l7.1-4.9
		c2.8-1.5,5.6-2.2,8.3-2.1c3.6,0.2,6.8,1.4,9.6,3.5c2.8,2.2,4.7,4.3,5.7,6.4c0.3,0.8,0.6,1.4,0.7,2c0.2,0.5,0.3,0.9,0.3,1.2
		c0,0.2,0,0.3,0,0.4s0,0.2,0,0.2c0,0.1,0,0.2,0,0.3c0,0.1,0,0.4,0.1,0.7c0.1,1.7,0,4.6-0.4,8.7c-0.4,4.3-0.6,7.1-0.9,8.6
		c-0.9,6.3-2.1,12.6-3.5,18.8c-1.5,6.2-3.2,12.4-5.3,18.7l-1.9,5.7c-0.7,2.2-2.1,3.3-4.3,3.3c-0.2-0.6-0.4-1.1-0.6-1.4
		s-0.5-0.9-0.8-1.6c-1.9-4.5-2.4-9.8-1.7-16.1c0.8-6.2,1.4-11.6,1.6-16.2l-0.3-17.7L497,81c-0.9,0.6-1.8,1.2-2.5,2s-1.6,1.4-2.3,2.2
		c-0.8,0.7-1.5,1.4-2.3,2.2c-0.8,0.7-1.6,1.4-2.4,2c0,0-0.1,0.1-0.3,0.2l-1.2,0.9c-3.4,3-5.3,4.5-5.8,4.7c-0.5,0.1-1,2-1.7,5.7
		c-0.4,1.7-0.6,3.1-0.9,4.4s-0.5,2.7-0.9,4.1l-4.6,15.8c-0.5,1.3-1,2.5-1.6,3.7c-0.6,1.2-1.6,1.8-3,1.9c-0.2-0.7-0.5-1.6-0.9-2.5
		s-0.9-1.9-1.5-3c-1.2-2.2-1.9-5.4-2-9.7l-0.1-3.3l-0.2-4.4c0-0.5-0.1-0.9-0.1-1.2c0-0.4,0-0.6,0-0.8c0-3.2-0.3-8.3-0.9-15.1
		c-0.6-6.9-1.4-11.7-2.7-14.3c-0.4,0.2-0.7,0.4-1,0.5s-0.5,0.3-0.7,0.4l-0.8,0.5c-1.3,0.8-2.4,1.8-3.3,2.8s-1.9,2.1-2.8,3.1
		c-0.5,0.5-0.9,0.9-1.2,1.3c-0.3,0.4-0.7,0.8-1.2,1.2c-1.6,1.6-2.6,2.4-3.1,2.6c-0.4,0.1-0.8,1.2-1.1,3.4l-1.6,8.6l-1.5,6.9
		c-0.4,1.7-0.7,3.3-1.2,5c-0.4,1.7-0.8,3.4-1.3,5.2c-0.4,1.8-0.9,3.5-1.3,5.1c-0.5,1.6-0.9,3.2-1.4,4.6c-0.9,2.9-1.8,4.6-2.7,5.1
		c-1-0.2-1.7-1-2.2-2.2l-1.3-3.1c-0.4-0.9-0.7-1.9-1.1-3c-0.3-1.1-0.6-2.3-0.8-3.7L426,74.4c0-0.1,0.1-0.5,0.1-1.1
		c0-0.1,0-0.2,0-0.4c0-0.2,0-0.5,0.1-0.8l0.4-7.7c0-0.8,0-1.8,0-2.8s-0.1-2.1-0.2-3.1c-0.1-1.3-0.2-2.4-0.4-3.3
		C425.8,54.5,425.7,53.4,425.7,52.1z M444.3,46.3L444.3,46.3l0.1,0.1L444.3,46.3z M509.8,58.7C509.8,58.8,509.8,58.8,509.8,58.7
		c0.1,0.1,0.1,0.1,0.1,0.1L509.8,58.7z"/>
	<path id="XMLID_399_" class="st0" d="M543.8,134.3c-4.3,0-8.6-1.8-12.9-5.3c-4.2-3.6-7.3-7.4-9.2-11.3c-1.3-2.7-2.4-3.9-3.5-3.6
		s-1.8-0.2-2-1.5l0.1-0.9c0.2-2.3,0.6-3.3,1.2-3.1c0.6,0.2,0.7-0.7,0.3-2.8l-0.5-9.6c0-1.4,0.3-3.1,0.8-5c0.3-1,0.5-1.9,0.7-2.7
		c0.2-0.8,0.4-1.6,0.6-2.2c1.5-4.6,3.9-8.9,7.3-12.7c1.7-2,3.4-3.8,5.2-5.5s3.6-3.3,5.4-4.8l2.4-1.6c1-0.7,2.1-1.4,3.3-2.1
		s2.5-1.3,3.6-1.6c1.7-0.4,3.4-0.8,5.3-1.1c1.9-0.3,3.8-0.5,5.8-0.6c4.1-0.2,7.6,0.7,10.3,2.7l2.5,1.9c3,2.4,5,5.8,5.8,10.1
		c0.8,4.3,0.7,8.2-0.5,11.8c-1.1,3.5-2.7,6.4-4.8,8.5c-0.4,0.4-0.8,0.8-1.1,1.2c-0.3,0.4-0.6,0.7-0.8,0.9c-1.7,2.2-4,4.3-6.8,6
		l-7.8,4.7l-8.4,4.5c-0.8,0.5-2.3,1.2-4.4,2.3c-2,1-3.4,1.5-4.2,1.6c0.7,3.1,2.9,5.4,6.4,7c5.5,2.5,11,2.1,16.4-1.4s8.5-6.7,9.3-9.6
		c1,0,1.5,0,1.5,0s0.3,0.3,0.7,0.9c0.6,1.1,0.7,3.4,0.1,7c-0.5,3.5-2.1,6.6-4.7,9.2c-1.5,1.5-3.5,2.9-6,4.2s-4.7,2.2-6.7,2.8
		c-0.7,0.2-1.4,0.4-2.3,0.6c-0.9,0.2-1.8,0.4-2.8,0.6s-2,0.3-3,0.4C545.4,134.2,544.6,134.3,543.8,134.3z M554,85.3
		c0-0.8,0.1-1.2,0.2-1.1c0,0.1,0.3-0.1,0.8-0.6l4.1-3.6c0.8-0.7,1.2-2.9,1.2-6.7c-2.5-0.6-4.8-0.5-6.8,0.3l-4,1.8
		c-0.4,0.3-1,0.6-1.6,1.1c-0.6,0.4-1.3,1-2.1,1.6c-0.1,0-0.4,0.3-0.9,0.8l-5,5.3c-2.8,3.3-4.4,5.6-4.7,6.9c-0.2,0.6-0.4,1.2-0.6,2
		c-0.3,0.8-0.6,1.6-1.1,2.6c1-0.1,2.4-0.6,4-1.4c0.8-0.4,1.6-0.8,2.3-1.2c0.7-0.4,1.4-0.7,2-1s1.4-0.8,2.5-1.4
		c1-0.6,2.3-1.4,3.8-2.3C551.2,86.4,553.2,85.5,554,85.3z"/>
</g>
</svg>
