<?xml version="1.0" encoding="iso-8859-1"?>
<!-- Generator: Adobe Illustrator 19.2.1, SVG Export Plug-In . SVG Version: 6.00 Build 0)  -->
<svg version="1.1" id="Layer_1" xmlns="http://www.w3.org/2000/svg" xmlns:xlink="http://www.w3.org/1999/xlink" x="0px" y="0px"
	 viewBox="0 0 70 20" style="enable-background:new 0 0 70 20;" xml:space="preserve">
<g>
	<path d="M30.756,0.062c0.092-0.08,0.269-0.083,0.528-0.008c0.26,0.076,0.442,0.3,0.546,0.673c0.104,0.373,0.124,0.589,0.061,0.65
		c-0.064,0.06-0.139,0.192-0.225,0.393c-0.086,0.202-0.257,0.595-0.511,1.179c-0.254,0.584-0.748,1.708-1.481,3.37
		c-0.733,1.662-1.212,2.733-1.438,3.212c-0.225,0.478-0.214,0.675,0.035,0.589c0.248-0.085,0.511-0.146,0.788-0.181
		c0.277-0.035,0.696-0.1,1.256-0.196c0.56-0.096,1.256-0.247,2.087-0.453c0.831-0.206,1.313-0.355,1.446-0.446
		c0.133-0.091,0.286-0.352,0.459-0.786c0.174-0.433,0.529-1.416,1.065-2.947c0.537-1.531,0.817-2.355,0.84-2.471
		c0.023-0.116,0.109-0.154,0.26-0.113c0.15,0.04,0.32,0.116,0.511,0.227c0.19,0.111,0.306,0.259,0.346,0.446
		c0.04,0.187,0.072,0.355,0.095,0.506c0.023,0.151-0.092,0.658-0.346,1.519c-0.254,0.862-0.436,1.537-0.545,2.025
		c-0.11,0.489-0.133,0.768-0.069,0.839c0.063,0.071,0.343,0.05,0.84-0.06c0.496-0.111,0.754,0.068,0.771,0.537
		c0.018,0.468-0.274,0.778-0.875,0.929c-0.601,0.151-0.987,0.257-1.161,0.317c-0.173,0.06-0.335,0.29-0.485,0.688
		c-0.15,0.398-0.485,1.224-1.004,2.478c-0.52,1.254-0.887,2.111-1.1,2.569c-0.214,0.459-0.525,0.937-0.935,1.436
		c-0.41,0.499-0.517,0.328-0.32-0.514c0.196-0.841,0.335-1.365,0.416-1.572c0.081-0.206,0.164-0.544,0.251-1.012
		c0.086-0.469,0.196-0.965,0.329-1.489c0.133-0.524,0.231-0.982,0.295-1.375c0.063-0.393-0.462-0.446-1.576-0.159
		c-1.114,0.287-2.182,0.562-3.204,0.824c-1.022,0.262-1.64,0.589-1.853,0.982c-0.214,0.393-0.618,1.378-1.212,2.954
		c-0.595,1.577-0.973,2.587-1.134,3.03c-0.162,0.443-0.37,0.758-0.624,0.945c-0.254,0.186-0.476,0.186-0.667,0
		c-0.19-0.186-0.341-0.32-0.45-0.401c-0.11-0.08,0.136-0.942,0.736-2.584c0.601-1.642,1.005-2.708,1.213-3.196
		c0.208-0.489,0.153-0.788-0.165-0.899c-0.318-0.111-0.497-0.277-0.537-0.499c-0.04-0.222-0.029-0.436,0.035-0.642
		c0.063-0.206,0.3-0.413,0.71-0.62c0.41-0.206,0.71-0.375,0.901-0.506c0.19-0.131,0.384-0.393,0.58-0.786
		c0.196-0.393,0.39-0.803,0.58-1.232c0.191-0.428,0.557-1.269,1.1-2.524c0.543-1.254,1.08-2.471,1.611-3.65
		c0.531-1.179,0.846-1.788,0.944-1.829C30.568,0.188,30.663,0.133,30.756,0.062z"/>
	<path d="M39.485,9.175c0.219-0.181,0.488-0.297,0.805-0.348c0.318-0.05,0.58-0.035,0.788,0.045
		c0.208,0.081,0.384,0.224,0.528,0.431c0.144,0.207,0.505,0.305,1.082,0.295c0.578-0.01,1.296-0.007,2.157,0.007
		c0.86,0.015,0.678,0.038-0.546,0.068c-1.224,0.03-1.92,0.073-2.087,0.129c-0.168,0.055-0.237,0.234-0.208,0.536
		c0.029,0.302,0.052,0.622,0.069,0.96c0.017,0.338,0.02,0.713,0.009,1.126c-0.012,0.413-0.046,0.721-0.104,0.922
		c-0.058,0.202-0.144,0.413-0.26,0.635c-0.115,0.222-0.286,0.456-0.511,0.703c-0.225,0.247-0.503,0.476-0.831,0.688
		c-0.329,0.212-0.632,0.37-0.909,0.476c-0.277,0.106-0.578,0.111-0.901,0.015c-0.323-0.096-0.586-0.247-0.788-0.453
		c-0.202-0.206-0.364-0.42-0.485-0.642c-0.121-0.222-0.173-0.609-0.156-1.164c0.018-0.554,0.087-1,0.208-1.338
		c0.121-0.337,0.309-0.69,0.563-1.058c0.254-0.368,0.329-0.539,0.225-0.514c-0.104,0.025-0.13,0.013-0.078-0.038
		c0.052-0.05,0.251-0.267,0.597-0.65C39,9.624,39.277,9.347,39.485,9.175z M40.351,11.548c-0.254-0.272-0.572-0.196-0.952,0.227
		c-0.381,0.423-0.61,0.872-0.684,1.345c-0.075,0.474-0.046,0.806,0.086,0.997c0.133,0.192,0.271,0.302,0.416,0.333
		c0.144,0.03,0.349-0.053,0.615-0.249c0.265-0.196,0.482-0.622,0.65-1.277C40.649,12.269,40.605,11.81,40.351,11.548z"/>
	<path d="M45.357,8.752c0.439-0.524,0.796-0.776,1.073-0.756c0.277,0.02,0.456,0.121,0.537,0.302c0.081,0.181,0.15,0.35,0.208,0.506
		c0.058,0.156,0.115,0.383,0.173,0.68c0.058,0.297-0.176,0.874-0.701,1.731c-0.525,0.856-0.488,0.965,0.112,0.325
		c0.6-0.64,1.114-1.038,1.541-1.194c0.427-0.156,0.82-0.156,1.178,0c0.358,0.156,0.583,0.345,0.676,0.567
		c0.092,0.222,0.15,0.474,0.173,0.756c0.023,0.282,0.069,0.443,0.139,0.484c0.069,0.04,0.45-0.262,1.143-0.907
		c0.693-0.645,1.302-1.07,1.827-1.277c0.525-0.206,0.961-0.249,1.307-0.128c0.346,0.121,0.65,0.358,0.91,0.71
		c0.26,0.353,0.597,0.867,1.013,1.541c0.416,0.675,0.846,1.171,1.29,1.489c0.444,0.317,0.84,0.506,1.187,0.567
		c0.346,0.06,0.947-0.103,1.801-0.491c0.854-0.388,1.045-0.461,0.571-0.219c-0.474,0.242-0.95,0.451-1.429,0.627
		c-0.48,0.176-0.817,0.312-1.013,0.408c-0.197,0.096-0.465,0.179-0.806,0.249c-0.341,0.071-0.661,0.04-0.961-0.091
		c-0.3-0.131-0.588-0.3-0.866-0.506c-0.277-0.206-0.624-0.549-1.039-1.028c-0.416-0.478-0.714-0.834-0.892-1.066
		c-0.179-0.232-0.401-0.327-0.667-0.287c-0.265,0.04-0.543,0.169-0.831,0.385c-0.288,0.217-0.684,0.526-1.186,0.929
		c-0.502,0.403-0.895,0.826-1.178,1.269c-0.283,0.443-0.453,0.728-0.511,0.854c-0.058,0.126-0.208,0.302-0.451,0.529
		c-0.242,0.227-0.473,0.312-0.693,0.257c-0.219-0.055-0.378-0.156-0.476-0.302c-0.098-0.146-0.107-0.405-0.026-0.778
		c0.081-0.373,0.147-0.73,0.199-1.073c0.052-0.343,0.092-0.715,0.121-1.118c0.029-0.403-0.107-0.617-0.407-0.642
		c-0.3-0.025-0.8,0.262-1.499,0.862c-0.699,0.599-1.14,1.065-1.325,1.398c-0.185,0.332-0.332,0.569-0.442,0.71
		c-0.11,0.141-0.225,0.252-0.346,0.332c-0.121,0.081-0.364,0.071-0.727-0.03c-0.364-0.101-0.569-0.232-0.615-0.393
		c-0.046-0.161,0.04-0.489,0.26-0.982c0.219-0.494,0.508-1.254,0.866-2.282c0.358-1.028,0.606-1.678,0.745-1.95
		c0.139-0.272-0.822,0.222-2.884,1.481c-2.061,1.259-2.638,1.567-1.732,0.922c0.907-0.645,1.799-1.237,2.676-1.776
		C44.26,9.808,44.918,9.276,45.357,8.752z"/>
	<path d="M62.798,8.389c0.774-0.05,1.244,0.063,1.412,0.34c0.167,0.277,0.245,0.63,0.234,1.058
		c-0.012,0.428-0.242,0.791-0.693,1.088c-0.45,0.297-1.045,0.592-1.784,0.884c-0.208,0.071-0.395,0.108-0.563,0.113
		c-0.167,0.005-0.306,0-0.416-0.015c-0.11-0.015-0.196-0.03-0.26-0.046c-0.064-0.015-0.101-0.007-0.112,0.023
		c-0.208,0.292-0.315,0.584-0.321,0.877c-0.006,0.292,0.104,0.562,0.329,0.809c0.225,0.247,0.476,0.39,0.754,0.431
		c0.277,0.04,0.565,0.033,0.866-0.023c0.3-0.055,0.855-0.229,1.663-0.521c0.808-0.292,1.371-0.567,1.689-0.824
		c0.318-0.257,0.621-0.506,0.91-0.748c0.288-0.242,0.329-0.242,0.121,0c-0.208,0.242-0.465,0.534-0.771,0.877
		c-0.306,0.343-0.687,0.683-1.143,1.02c-0.456,0.338-0.829,0.597-1.117,0.778c-0.289,0.181-0.673,0.345-1.152,0.491
		c-0.479,0.146-0.95,0.191-1.411,0.136c-0.462-0.055-0.808-0.148-1.039-0.279c-0.231-0.131-0.445-0.287-0.641-0.468
		c-0.197-0.181-0.358-0.395-0.485-0.642c-0.127-0.247-0.193-0.584-0.199-1.012c-0.005-0.428,0.11-0.894,0.346-1.398
		c0.237-0.504,0.505-0.922,0.805-1.254c0.3-0.332,0.707-0.667,1.221-1.005C61.554,8.74,62.14,8.51,62.798,8.389z M62.815,9.75
		c-0.081-0.07-0.28-0.035-0.597,0.106c-0.318,0.141-0.549,0.3-0.693,0.476c-0.144,0.176-0.17,0.305-0.078,0.385
		c0.092,0.081,0.288,0.048,0.588-0.098c0.3-0.146,0.54-0.292,0.719-0.438C62.934,10.034,62.954,9.891,62.815,9.75z"/>
</g>
<path id="fr1" style="fill:#00A69C;" d="M21.167,10c0,5.377-4.359,9.735-9.737,9.735c-5.378,0-9.738-4.358-9.738-9.735
	c0-5.378,4.36-9.736,9.738-9.736C16.808,0.264,21.167,4.623,21.167,10"/>
</svg>
