<?xml version="1.0" encoding="utf-8"?>
<!-- Generator: Adobe Illustrator 19.2.1, SVG Export Plug-In . SVG Version: 6.00 Build 0)  -->
<svg version="1.1" id="Layer_1" xmlns="http://www.w3.org/2000/svg" xmlns:xlink="http://www.w3.org/1999/xlink" x="0px" y="0px"
	 viewBox="0 0 768 148.5" style="enable-background:new 0 0 768 148.5;" xml:space="preserve">
<style type="text/css">
	.st0{fill:#5D2D7A;}
</style>
<g id="XMLID_320_">
	<path id="XMLID_321_" class="st0" d="M67.5,128.9c-3.1-2-5.2-6.2-6.5-12.8c-1.2-6.6-1.8-11.6-2-15.1c-0.1-2.4-0.3-4.9-0.6-7.5
		s-0.8-5.4-1.4-8.2c-0.6-2.9-1.2-5.6-1.8-8.2c-0.6-2.5-1.1-4.9-1.7-7.2c-1.1-4.2-1.7-6.9-1.7-8.2c-0.1-1.5-0.4-3.7-0.9-6.9
		c-0.8-4.6-1.1-7.3-0.7-8.2c0.4-0.9-0.4-1.6-2.5-2.2c-1.6-0.4-2.4-0.5-2.6-0.1c-0.2,0.4-1,0.4-2.3,0.2L41.6,44
		c-0.4-0.3-0.6-0.5-0.7-0.8s-0.2-0.5-0.2-0.7s0-0.4,0-0.6s0-0.5,0-0.7c-0.2-1.4-0.7-2.4-1.6-3c-0.9-0.5-1.2-1.6-1-3.2l0.2-0.8
		c0.2-1.1-0.1-2-0.7-2.5c-0.7-0.6-0.7-1.8,0-3.5c0.4-0.7,0.7-1.2,1.2-1.4c0.4-0.2,1.1-1,2.1-2.4l0.1-0.1c0.4-0.6,0.7-1.1,1-1.6
		s0.9-1.2,1.9-2l1.4-0.9c1-0.6,2-1.2,3-1.8c1-0.6,2-1.1,3-1.6c1.5-0.7,2.6-1.2,3.5-1.4c0.6-0.2,1.1-0.3,1.6-0.4s1.1-0.3,1.8-0.6
		l6.6-1.8l0.9-0.1c0,0,0.4,0,0.9-0.1c1.3-0.1,2.7-0.1,4.2-0.1s3.2,0,5,0.1c3.5,0.1,6.6,0.5,9.3,1.2c0.7,0.2,1.4,0.4,2.1,0.5
		s1.3,0.3,1.9,0.4l5,2.1c2.2,1,4.4,2.1,6.5,3.3c2.1,1.2,4.1,2.5,6,3.9l6,4.7c0,0.2,0.1,0.2,0.2,0.2l1.4,1.3c1.1,1.1,2.3,2.2,3.5,3.3
		s2.2,2.3,3,3.6c1,1.5,1.9,2.7,2.5,3.8c0.6,1,1.1,1.8,1.4,2.3s0.6,1.3,0.9,2.4s0.8,2.5,1.3,4.2c1.2,4.3,1.3,8.7,0.3,13.5l-0.8,4
		c-0.3,1.4-0.5,2.4-0.7,3c-0.9,2.6-2.3,5.2-4.2,7.7c-2,2.6-3.9,4.7-5.7,6.4l-5.1,3.8l-10.3,3.5c-7.1,1.5-11.4,1.7-13.2,0.6
		c-1.6-1.1-4.5-2.1-8.7-2.9c-1.9-0.4-2.7-0.2-2.5,0.5c0.1,0.4,0.1,1.2,0.1,2.6s0,3.3-0.1,5.7c-0.1,1.9-0.2,4.1-0.4,6.4
		c-0.2,2.3-0.4,4.8-0.6,7.6c-0.6,5.5-1.6,9.8-3.2,12.7c-0.3,0.6-0.6,1.2-0.9,1.6s-0.5,0.8-0.6,1.1C69.6,127.2,68.8,128,67.5,128.9z
		 M72.4,37.7C72.3,37.8,72.3,37.8,72.4,37.7C72.5,37.8,72.5,37.8,72.4,37.7L72.4,37.7z M73.7,35.9c0,0.3,0,0.6,0.1,0.9
		c0,0.3,0.1,0.5,0.1,0.7l0.4,10c0,1,0,1.5,0.1,1.7s0.1,0.6,0.1,1.2v14.2c0.1,1,0.2,1.9,0.3,2.9c0.1,0.9,0.2,1.6,0.3,2.1l0.6,5.3
		c0.3,2.5,0.3,4.2-0.1,5.1c4.5,0,9.4-0.6,14.7-1.8c5.5-1.3,9.7-3.3,12.5-6.1c2-2,3.3-3.4,3.8-4.4c0.6-0.9,1-2.5,1.3-4.7
		c0.4-3,0.3-5.4-0.1-7.3s-1.6-3.7-3.8-5.5c-0.7-0.5-1.1-0.8-1.1-0.8s-0.2-0.4-0.7-1c-0.7-0.8-1.5-1.3-2.2-1.5
		c-0.6-0.2-1.3-0.6-2.2-1.3l-2.5-1.8c-0.9-0.6-1.4-0.9-1.7-0.9c-0.2,0-0.8-0.5-1.6-1.2c-0.8-0.7-1.1-1-1.1-0.9c0.1,0,0.1,0-0.1,0
		c-0.1,0-0.3-0.1-0.7-0.2l-4.9-1.9l-1.1-0.5l-1.5-0.5l-2.8-0.8c-0.9-0.2-2-0.3-3-0.5C75.9,36,74.8,35.9,73.7,35.9z"/>
	<path id="XMLID_325_" class="st0" d="M154.8,128.1c-4.3,0-8.6-1.8-12.9-5.3c-4.2-3.6-7.3-7.4-9.2-11.3c-1.3-2.7-2.4-3.9-3.5-3.6
		s-1.8-0.2-2-1.5l0.1-0.9c0.2-2.3,0.6-3.3,1.2-3.1c0.6,0.2,0.7-0.7,0.3-2.8l-0.5-9.6c0-1.4,0.3-3.1,0.8-5c0.3-1,0.5-1.9,0.7-2.7
		c0.2-0.8,0.4-1.6,0.6-2.2c1.5-4.6,3.9-8.9,7.3-12.7c1.7-2,3.4-3.8,5.2-5.5s3.6-3.3,5.4-4.8l2.4-1.6c1-0.7,2.1-1.4,3.3-2.1
		s2.5-1.3,3.6-1.6c1.7-0.4,3.4-0.8,5.3-1.1c1.9-0.3,3.8-0.5,5.8-0.6c4.1-0.2,7.6,0.7,10.3,2.7l2.5,1.9c3,2.4,5,5.8,5.8,10.1
		s0.7,8.2-0.5,11.8c-1.1,3.5-2.7,6.4-4.8,8.5c-0.4,0.4-0.8,0.8-1.1,1.2c-0.3,0.4-0.6,0.7-0.8,0.9c-1.7,2.2-4,4.3-6.8,6l-7.8,4.7
		l-8.4,4.5c-0.8,0.5-2.3,1.2-4.4,2.3c-2,1-3.4,1.5-4.2,1.6c0.7,3.1,2.9,5.4,6.4,7c5.5,2.5,11,2.1,16.4-1.4s8.5-6.7,9.3-9.6
		c1,0,1.5,0,1.5,0s0.3,0.3,0.7,0.9c0.6,1.1,0.7,3.4,0.1,7c-0.5,3.5-2.1,6.6-4.7,9.2c-1.5,1.5-3.5,2.9-6,4.2
		c-2.5,1.3-4.7,2.2-6.7,2.8c-0.7,0.2-1.4,0.4-2.3,0.6c-0.9,0.2-1.8,0.4-2.8,0.6s-2,0.3-3,0.4C156.4,128.1,155.6,128.1,154.8,128.1z
		 M165,79.2c0-0.8,0.1-1.2,0.2-1.1c0,0.1,0.3-0.1,0.8-0.6l4.1-3.6c0.8-0.7,1.2-2.9,1.2-6.7c-2.5-0.6-4.8-0.5-6.8,0.3l-4,1.8
		c-0.4,0.3-1,0.6-1.6,1.1c-0.6,0.4-1.3,1-2.1,1.6c-0.1,0-0.4,0.3-0.9,0.8l-5,5.3c-2.8,3.3-4.4,5.6-4.7,6.9c-0.2,0.6-0.4,1.2-0.6,2
		c-0.3,0.8-0.6,1.6-1.1,2.6c1-0.1,2.4-0.6,4-1.4c0.8-0.4,1.6-0.8,2.3-1.2c0.7-0.4,1.4-0.7,2-1s1.4-0.8,2.5-1.4
		c1-0.6,2.3-1.4,3.8-2.3C162.2,80.3,164.2,79.3,165,79.2z"/>
	<path id="XMLID_328_" class="st0" d="M195.2,31.3c1-0.4,1.4-0.5,1.2-0.2c-0.1,0.2,0.1,0.1,0.8-0.2c0.9-0.4,1.1-0.6,0.7-0.8
		c-0.4-0.2,1.1-0.1,4.5,0.4c0.1,1.3,0.3,1.8,0.6,1.2s1.2-0.3,2.8,0.7c1.3,0.9,2.1,1.7,2.3,2.5c0.1,0.4,0.1,0.8,0.1,1.3
		c0.6-0.6,1.1-0.6,1.7,0.1c0.4,0.5,0.8,1.2,1.1,2.1c0.3,1.1,0.4,1.6,0.2,1.5c-0.2,0-0.3,0.2-0.3,0.6c-0.1,0.4,0,1,0.5,1.8
		c0.4,0.9,0.7,1.8,0.7,2.6c0,1.2-0.1,2-0.3,2.2c-0.1,0.2-0.2,1.7-0.2,4.6l-0.6,9.4c2.4-1.6,3.9-2.8,4.5-3.8c0.6-0.9,3-2.3,7.1-4.2
		l4.1-2.1c0.8-0.5,1.7-0.8,2.7-0.9s1.9-0.1,2.8-0.1c0.8,0.1,1.6,0.3,2.4,0.5c0.8,0.3,1.5,0.6,2.3,1c0.7,0.4,1.5,0.9,2.4,1.4l2.3,2.1
		c0.6,0.8,0.7,1.2,0.3,1s0.1-0.1,1.2,0.5c-0.6,1-0.7,1.4-0.5,1.2s-0.1-0.1-0.8,0.1c0.4,0.7,0.6,1,0.5,0.9c-0.2-0.1,0.3-0.1,1.4-0.1
		c-0.1,1.3-0.3,1.9-0.5,1.7s-0.7-0.2-1.4,0.1c0.3,1.2,0.6,1.7,0.9,1.5c0.3-0.2,0.3,0.4,0.1,1.8l-0.1,0.6c-0.4,2.2-0.6,3-0.7,2.2
		c-0.1-0.7-0.8-0.3-1.9,1.3c-0.3,0.4-0.5,0.7-0.6,1s-0.3,0.6-0.6,1c-0.5,0.7-1.1,1.1-1.7,1.3c-0.5,0.2-0.8,0.3-1,0.3
		c-0.2,0.1-0.1,0.1,0.1,0c0.3-0.2,0.3-0.3,0-0.3c-1,0-1.5,0-1.5,0.1c0,0.2-0.5,0.3-1.7,0.3c0.4,0.4,0.6,0.7,0.6,0.9
		c0,0.3-0.1,0.5-0.4,0.6c-0.6,0.3-1.8,0.4-3.5,0.2c-1.7-0.2-3.2-0.2-4.3,0.1c-1.3,0.3-2.8,1-4.4,2.2c-0.8,0.6-1.5,1.1-2.1,1.6
		s-1.2,1-1.7,1.4c-1.6,1.4-3.1,3.4-4.5,5.9c-0.7,1.3-1.2,2.4-1.6,3.5c-0.4,1.1-0.6,2.1-0.6,3.1c-0.1,1.8-0.1,3.6-0.1,5.6
		c0.1,1.9,0.1,3.8,0.1,5.6c0,2.3-0.2,5.5-0.5,9.4s-0.8,6.8-1.7,8.8c-0.3,0.6-0.5,1.2-0.8,1.9s-0.5,1.3-0.8,1.9
		c-0.4,0.8-0.8,1.4-1.2,1.8c-0.3,0.4-0.6,0.9-0.8,1.6l-1.9-0.9c-0.4-0.1-1.1-1.1-2.1-3c-0.5-0.9-0.9-1.9-1.2-2.9s-0.6-2-1-3
		c-0.7-1.8-1.2-4-1.4-6.6s-0.5-4.8-0.7-6.6c-0.2-1.6-0.5-3.1-0.8-4.4c-0.3-1.4-0.5-2.7-0.8-4s-0.5-2.5-0.8-3.7s-0.5-2.5-0.8-3.8
		l-2.6-28.6c0-1.9,0-3.9-0.1-6.1s-0.4-4.6-0.7-7.2c-0.7-5.2,0.2-9.3,2.7-12.1l0.4-0.5l0.2-0.2c0.4-0.5,0.7-0.8,1.1-1.1l1.2-1.6v-0.2
		c0,0-0.1,0-0.1-0.1v0.3C195.4,31.3,195.2,31.3,195.2,31.3z M210.8,42.9C210.8,43,210.8,43,210.8,42.9c0.1,0.1,0.1,0.1,0.1,0.1
		C210.9,42.9,210.9,42.8,210.8,42.9z"/>
	<path id="XMLID_331_" class="st0" d="M277.1,49.1l14.2-1.4c0.6-0.1,1.2-0.2,1.8-0.2c1.2,0.1,1.9,0.2,2.2,0.4l1.5,0.8
		c0.3,0.2,0.4,0.2,0.5,0.3s0,0-0.2-0.1s-0.2-0.1-0.1-0.1s0.2,0.1,0.6,0.1c0.4,0.2,0.7,0.3,0.8,0.4c0.1,0.1,0.1,0.1,0,0
		c3.3,1.4,5.4,3.8,6.3,7c0.6,2.3,0.6,4.8-0.2,7.7l-0.2,0.8c0,0.1,0,0.2-0.1,0.2c-0.5,1.4-1.9,2.9-4.3,4.6s-4.4,2.3-6,2.2
		c-0.7,0-1-0.1-0.9-0.1c0.1-0.1-0.3-0.2-1-0.3c-0.4-0.1-0.9-0.1-1.3-0.1s-0.8,0-1.3-0.1c-1.7-0.2-4.4-0.3-8.2-0.4
		c-3.8-0.1-6.4,0.1-7.9,0.4c-0.2,0.9-0.4,3.9-0.4,8.7c0,2.4,0.1,4.6,0.2,6.6s0.3,3.7,0.5,5.3c0.2,1.2,0.3,2.4,0.3,3.5s0,2.3-0.1,3.4
		c-0.1,2.1,0.1,4.3,0.5,6.6c0.3,1.5,0.5,3.1,0.7,4.8s0.4,3.6,0.6,5.6c0.4,3.9,0.3,7.3-0.3,10.2c-0.2,0.6-0.3,0.8-0.4,0.8
		c-0.1-0.1-0.2,0.3-0.4,1.1c-1.3-0.1-2.2-0.7-2.9-1.9c-0.3-0.6-0.7-1.2-1.1-1.9s-0.9-1.5-1.4-2.3c-3.2-5-5.7-12.3-7.6-21.9
		c-1.8-9.6-2.9-17.5-3.4-23.6c-0.2-3-1.1-3.6-2.8-2c-1.6,1.6-4.5,1.8-8.7,0.6l-3.7-1.7c0-0.7,0-1.2,0-1.6s0-0.7-0.1-0.8
		c-0.1-0.3,0-0.9,0.2-1.9c0.4-1.5,0.9-2.7,1.5-3.8c0.6-0.9,1.1-1.8,1.7-2.8c0.6-1,1.3-1.8,2.2-2.5c1.6-1.3,2.8-2.1,3.8-2.5
		c1.1-0.4,2.3-1.1,3.8-2c1-0.5,1.5-0.9,1.5-1.2s0.1-1,0.4-2.3c0.7-3.7,1.2-5.9,1.4-6.5c0.1-0.3,0.3-0.9,0.6-2c0.3-1,0.7-2.5,1.2-4.3
		c0.4-1.5,1.5-4,3.2-7.4s3.1-5.7,4.1-6.8l1.3-1.8c0.9-1.3,2.2-2.4,4-3.5s3.3-2.1,4.6-3c2-1.3,4.8-2.3,8.5-3.1
		c3.8-0.8,6.9-0.8,9.3,0.1c1.8,0.7,3.2,1.3,4.3,1.8c1.1,0.6,2.3,1.7,3.7,3.5c1.8,2.4,2.7,5.2,2.5,8.2c0,0.2,0,0.4,0,0.6s0,0.4,0,0.5
		v0.3l-0.1,0.7c-0.1,1.1-0.5,2.3-1.2,3.6c-0.4,0.7-0.8,1.3-1.1,1.9c-0.3,0.6-0.7,1.1-1,1.5l-1.5,2c0,0-0.5,0.2-1.3,0.5
		c-1.2,0.5-2.4,1.2-3.7,1.9c-1.3,0.8-2,0.4-2.1-1.1c-2.9,0-3.9-0.5-3.1-1.5c0.8-1.1-1-0.7-5.4,1c-2.2,0.9-4,2.3-5.4,4.4L277.1,49.1z
		 M298,71.3c-0.1-0.1,0-0.3,0.2-0.5c0.3-0.2,0.5-0.2,0.7-0.1c0.5,0.4,0.5,0.6-0.1,0.6C298.3,71.4,298.1,71.4,298,71.3z"/>
	<path id="XMLID_334_" class="st0" d="M328.6,127.2c-1.3,0-2-0.1-2.2-0.2c-0.1-0.1-1.3-0.2-3.6-0.3c-1.5,0-3.2-0.5-5-1.6
		c-3.7-2-6.8-4-9.3-6.2c-2.4-2.1-4.5-5.3-6.3-9.4c-2.2-5.1-3.5-11.1-4-18.1c-0.5-7.1,0.4-13.3,2.7-18.6c0.6-1.3,1.1-2.5,1.5-3.6
		c0.5-1.1,0.9-2.2,1.2-3.1c0.4-0.9,0.9-2,1.6-3.1c0.6-1.1,1.4-2.3,2.4-3.6l1.9-2.1l0.2-0.2l5.3-4c2.5-1.7,6.3-2.7,11.2-2.9
		c4.9-0.2,8.7,0.2,11.3,1.1c3.4,1.3,5,2,4.8,2.1s0.4,0.5,1.9,1.2c0.3,0.2,0.5,0.3,0.5,0.3c0.1,0,0,0-0.1-0.1c-0.2-0.1,0-0.1,0.5,0.1
		c0.2,0.2,0.5,0.4,0.7,0.4l2.9,2.9c0.4,0.4,0.8,0.8,1.1,1.2s0.5,0.6,0.7,0.9c0.5,0.6,1,1.4,1.5,2.5l4.9,8.9c2.1,3.3,3.3,6.5,3.6,9.4
		c0.2,1.5,0.3,3,0.4,4.5s0.3,3.2,0.4,4.8l-0.6,10.3c-0.4,2.2-1.3,4.8-2.9,7.7c-1.6,3.1-3.2,5.6-4.8,7.5c-1.7,1.9-4.4,3.9-8,5.8
		c-1.8,1-3.5,1.8-5,2.4s-2.8,1.1-4,1.4c-1.8,0.4-3,0.7-3.4,1C332.5,127.1,331.1,127.2,328.6,127.2z M328.1,111.5
		c0.3-0.6,0.8-1.3,1.7-2.2l6.5-10.9l0.8-1.5c0.2-0.3,0.3-0.9,0.4-1.8c0.1-1.4,0.2-2.6,0.2-3.7s0-2.1-0.1-3c-0.2-1.8-0.9-3.6-2.1-5.4
		c-0.6-0.8-1.1-1.7-1.5-2.5c-0.5-0.9-0.9-1.8-1.2-2.7c-0.6-1.8-1.4-2.9-2.2-3.2l-2.5-0.2h-0.4c-0.8,0-1.7-0.1-2.7-0.1
		s-1.7,0.1-2.3,0.4c-0.5,0.3-1.6,1.6-3.3,3.9c-1.7,2.3-2.7,3.9-3.1,4.8c-0.4,1-0.8,2.3-1.1,3.7c-0.3,1.5-0.6,3.2-0.8,5.2
		c-0.4,3.9-0.2,7,0.5,9.5l3.4,11.6l3.5-0.8c0.3-0.1,0.4,0,0.4,0.2s0.1,0.4,0.5,0.6s1.8,0.3,4.1,0.4L328.1,111.5z"/>
	<path id="XMLID_337_" class="st0" d="M368.5,31.3c1-0.4,1.4-0.5,1.2-0.2c-0.1,0.2,0.1,0.1,0.8-0.2c0.9-0.4,1.1-0.6,0.7-0.8
		c-0.4-0.2,1.1-0.1,4.5,0.4c0.1,1.3,0.3,1.8,0.6,1.2c0.3-0.6,1.2-0.3,2.8,0.7c1.3,0.9,2.1,1.7,2.3,2.5c0.1,0.4,0.1,0.8,0.1,1.3
		c0.6-0.6,1.1-0.6,1.7,0.1c0.4,0.5,0.8,1.2,1.1,2.1c0.3,1.1,0.4,1.6,0.2,1.5c-0.2,0-0.3,0.2-0.3,0.6c-0.1,0.4,0,1,0.5,1.8
		c0.4,0.9,0.7,1.8,0.7,2.6c0,1.2-0.1,2-0.3,2.2c-0.1,0.2-0.2,1.7-0.2,4.6l-0.6,9.4c2.4-1.6,3.9-2.8,4.5-3.8c0.6-0.9,3-2.3,7.1-4.2
		L400,51c0.8-0.5,1.7-0.8,2.7-0.9s1.9-0.1,2.8-0.1c0.8,0.1,1.6,0.3,2.4,0.5c0.8,0.3,1.5,0.6,2.3,1c0.7,0.4,1.5,0.9,2.4,1.4l2.3,2.1
		c0.6,0.8,0.7,1.2,0.3,1c-0.4-0.2,0.1-0.1,1.2,0.5c-0.6,1-0.7,1.4-0.5,1.2s-0.1-0.1-0.8,0.1c0.4,0.7,0.6,1,0.5,0.9
		c-0.2-0.1,0.3-0.1,1.4-0.1c-0.1,1.3-0.3,1.9-0.5,1.7s-0.7-0.2-1.4,0.1c0.3,1.2,0.6,1.7,0.9,1.5s0.3,0.4,0.1,1.8l-0.1,0.6
		c-0.4,2.2-0.6,3-0.7,2.2c-0.1-0.7-0.8-0.3-1.9,1.3c-0.3,0.4-0.5,0.7-0.6,1s-0.3,0.6-0.6,1c-0.5,0.7-1.1,1.1-1.7,1.3
		c-0.5,0.2-0.8,0.3-1,0.3c-0.2,0.1-0.1,0.1,0.1,0c0.3-0.2,0.3-0.3,0-0.3c-1,0-1.5,0-1.5,0.1c0,0.2-0.5,0.3-1.7,0.3
		c0.4,0.4,0.6,0.7,0.6,0.9c0,0.3-0.1,0.5-0.4,0.6c-0.6,0.3-1.8,0.4-3.5,0.2c-1.7-0.2-3.2-0.2-4.3,0.1c-1.3,0.3-2.8,1-4.4,2.2
		c-0.8,0.6-1.5,1.1-2.1,1.6s-1.2,1-1.7,1.4c-1.6,1.4-3.1,3.4-4.5,5.9c-0.7,1.3-1.2,2.4-1.6,3.5s-0.6,2.1-0.6,3.1
		c-0.1,1.8-0.1,3.6-0.1,5.6c0.1,1.9,0.1,3.8,0.1,5.6c0,2.3-0.2,5.5-0.5,9.4s-0.8,6.8-1.7,8.8c-0.3,0.6-0.5,1.2-0.8,1.9
		s-0.5,1.3-0.8,1.9c-0.4,0.8-0.8,1.4-1.2,1.8c-0.3,0.4-0.6,0.9-0.8,1.6l-1.9-0.9c-0.4-0.1-1.1-1.1-2.1-3c-0.5-0.9-0.9-1.9-1.2-2.9
		c-0.3-1-0.6-2-1-3c-0.7-1.8-1.2-4-1.4-6.6c-0.2-2.6-0.5-4.8-0.7-6.6c-0.2-1.6-0.5-3.1-0.8-4.4c-0.3-1.4-0.5-2.7-0.8-4
		s-0.5-2.5-0.8-3.7s-0.5-2.5-0.8-3.8L364,60.1c0-1.9,0-3.9-0.1-6.1s-0.4-4.6-0.7-7.2c-0.7-5.2,0.2-9.3,2.7-12.1l0.4-0.5l0.2-0.2
		c0.4-0.5,0.7-0.8,1.1-1.1l1.2-1.6v-0.2c0,0-0.1,0-0.1-0.1v0.3C368.7,31.3,368.5,31.3,368.5,31.3z M384.1,42.9
		C384.1,43,384.1,43,384.1,42.9c0.1,0.1,0.1,0.1,0.1,0.1C384.2,42.9,384.2,42.8,384.1,42.9z"/>
	<path id="XMLID_340_" class="st0" d="M418.2,45.9c0-1.9,0.5-3.5,1.4-4.7l2.7-2.8c0.4-0.4,0.7-0.8,0.9-1.2s0.6-0.8,1.1-1.1
		c0,0,0.3-0.1,0.8-0.2c1.1-0.1,1.4-0.1,0.9,0.2c-0.2,0.1-0.2,0.1,0-0.1s0.5-0.4,1.1-0.7c0.5-0.3,0.7-0.5,0.6-0.5
		c-0.1-0.1,0.3-0.2,1.1-0.5c0.2,0.2,0.4,0.3,0.5,0.4s0.1,0.2,0.2,0.3c0,0.1,0.1,0.2,0.1,0.3s0.1,0.2,0.2,0.4c0.8-0.6,1.5-0.9,2-1.1
		s1.4,0.2,2.6,0.9c1,0.7,1.4,1.1,1.1,1.1s-0.2,0.2,0.4,0.7c0.5,0.5,0.7,0.6,0.6,0.2c-0.1-0.5,0.3-0.1,1.1,1.1l1.4,2.2
		c2.4,2.8,3.1,4.8,2,6.1s0.6,1.2,5-0.4c2.8-1,5.6-1.6,8.5-1.7c2.9-0.2,5.7,0.5,8.3,1.9c2.3,1.3,3.6,2.5,3.8,3.5
		c0.4,1.1,1.1,2.1,2,3.1l1.2,1.9c0.6,1.7,0.9,3.3,0.9,4.8h1.3c0.2-0.5,0.9-1.3,2.2-2.2l3-2.4c0.1-0.1,0.2-0.1,0.3-0.2l7.1-4.9
		c2.8-1.5,5.6-2.2,8.3-2.1c3.6,0.2,6.8,1.4,9.6,3.5c2.8,2.2,4.7,4.3,5.7,6.4c0.3,0.8,0.6,1.4,0.7,2s0.3,0.9,0.3,1.2
		c0,0.2,0,0.3,0,0.4s0,0.2,0,0.2c0,0.1,0,0.2,0,0.3s0,0.4,0.1,0.7c0.1,1.7,0,4.6-0.4,8.7c-0.4,4.3-0.7,7.1-0.9,8.6
		c-0.9,6.3-2.1,12.6-3.5,18.8c-1.5,6.2-3.2,12.4-5.3,18.7l-1.9,5.7c-0.7,2.2-2.1,3.3-4.3,3.3c-0.2-0.6-0.4-1.1-0.6-1.4
		s-0.5-0.9-0.8-1.6c-1.9-4.5-2.4-9.8-1.7-16.1c0.8-6.2,1.4-11.6,1.6-16.2l-0.3-17.7l-1.6,1.1c-0.9,0.6-1.8,1.2-2.5,2
		c-0.8,0.7-1.6,1.4-2.3,2.2c-0.8,0.7-1.5,1.4-2.3,2.2c-0.8,0.7-1.6,1.4-2.4,2c0,0-0.1,0.1-0.3,0.2l-1.2,0.9c-3.4,3-5.3,4.5-5.8,4.7
		c-0.5,0.1-1,2-1.7,5.7c-0.4,1.7-0.6,3.1-0.9,4.4c-0.2,1.3-0.5,2.7-0.9,4.1l-4.6,15.8c-0.5,1.3-1,2.5-1.6,3.7s-1.6,1.8-3,1.9
		c-0.2-0.7-0.5-1.6-0.9-2.5s-0.9-1.9-1.5-3c-1.2-2.2-1.9-5.4-2-9.7l-0.1-3.3l-0.2-4.4c0-0.5-0.1-0.9-0.1-1.2c0-0.4,0-0.6,0-0.8
		c0-3.2-0.3-8.3-0.9-15.1c-0.6-6.9-1.4-11.7-2.7-14.3c-0.4,0.2-0.7,0.4-1,0.5s-0.5,0.3-0.7,0.4l-1,0.7c-1.3,0.8-2.4,1.8-3.3,2.8
		s-1.9,2.1-2.8,3.1c-0.5,0.5-0.9,0.9-1.2,1.3c-0.3,0.4-0.7,0.8-1.2,1.2c-1.6,1.6-2.6,2.4-3.1,2.6c-0.4,0.1-0.8,1.2-1.1,3.4l-1.6,8.6
		l-1.5,6.9c-0.4,1.7-0.7,3.3-1.2,5c-0.4,1.7-0.8,3.4-1.3,5.2c-0.4,1.8-0.9,3.5-1.3,5.1c-0.5,1.6-0.9,3.2-1.4,4.6
		c-0.9,2.9-1.8,4.6-2.7,5.1c-1-0.2-1.7-1-2.2-2.2l-1.3-3.1c-0.4-0.9-0.7-1.9-1.1-3c-0.3-1.1-0.6-2.3-0.8-3.7l-1.5-46.4
		c0-0.1,0.1-0.5,0.1-1.1c0-0.1,0-0.2,0-0.4c0-0.2,0-0.5,0.1-0.8l0.4-7.7c0-0.8,0-1.8,0-2.8s-0.1-2.1-0.2-3.1
		c-0.1-1.3-0.2-2.4-0.4-3.3S418.2,47.2,418.2,45.9z M436.8,40.1C436.8,40.2,436.9,40.2,436.8,40.1l0.1,0.1L436.8,40.1z M502.3,52.6
		C502.3,52.7,502.3,52.7,502.3,52.6c0.1,0.1,0.1,0.1,0.1,0.1L502.3,52.6z"/>
	<path id="XMLID_344_" class="st0" d="M532,55.2c2-0.2,4.4-0.3,7.3-0.5c2.9-0.2,5.6-0.2,8.2,0c1.1,0.1,2.1,0.2,2.9,0.3
		c0.8,0.1,1.5,0.2,2,0.3c0.6,0.1,1.2,0.2,1.9,0.4s1.6,0.5,2.7,0.8c1.1,0.4,2.2,0.9,3.4,1.4c1.2,0.6,2.2,1.3,3,2.2
		c0,0.1,0.2,0.3,0.4,0.5c2.3,2.9,3.4,6.2,3.1,10l-1,2.9c-0.2,0.4-0.4,0.6-0.4,0.5s-0.1,0.2-0.4,0.9l-2.4,8.7
		c-0.4,1.3-0.7,2.5-1.1,3.7c-0.4,1.1-0.7,2.3-0.9,3.6l-4.3,26.9c-0.1,0.7-0.1,1.4-0.1,2.1s0.1,1.5,0.1,2.2c0,0.8,0,1.5-0.1,2.2
		s-0.2,1.3-0.4,1.8c-0.9,2.3-2.1,3-3.4,2.1c-1.3-0.9-2.5-2-3.7-3.4c-0.3-0.3-0.5-0.6-0.7-0.7c-0.2-0.2-0.3-0.3-0.4-0.3
		c-0.1-0.1-0.2-0.6-0.5-1.5c-0.2-0.6-0.3-0.9-0.2-1s0-0.5-0.2-1.4c-0.7,0.6-1.1,1-1.1,1.1s-0.5,0.6-1.7,1.5l-3.2,2.1
		c-1.3,0.7-2.5,1.3-3.7,1.8c-1.1,0.4-2.6,0.6-4.6,0.6c-1.5,0-2.9-0.2-4.4-0.5s-2.9-0.8-4.2-1.4s-2.7-1.3-3.9-2s-2.3-1.6-3.4-2.5
		l-3.1-3.1c-2.8-3.3-4.6-7.1-5.5-11.4c-0.3-1.7-0.3-3.6,0-5.7c0.5-2.6,1.7-5.1,3.5-7.4c0.9-1.2,1.9-2.2,2.8-3.2
		c0.9-0.9,1.9-1.8,2.9-2.4c2.6-1.9,5.2-3.2,7.7-4.1c2.4-0.9,5.1-1.6,8.2-2.3c2-0.4,3.7-0.8,5.1-1c1.4-0.2,2.6-0.3,3.6-0.4
		c1.9-0.1,4.7,0.2,8.5,1.1c0.1-0.3,0.2-0.6,0.2-1.1s0-0.9,0.1-1.4c0-0.5,0.1-1,0.1-1.4c0.1-0.5,0.2-1,0.4-1.4c-2,0-3.8,0-5.3,0
		s-2.9,0-4,0.1c-2.2,0-5.2,0.5-9,1.4c-0.1,0-0.3,0-0.5,0.1c-1.9,0.5-3.6,1.2-5.3,2c-0.5,0.5-1,0.8-1.4,0.8l-2.2,0.5
		c-0.4,0.1-0.6,0.1-0.7,0.2c-0.1,0.1,0,0.1,0.2,0.1h-0.7l-7.4-2.3c-0.2-0.1-0.5-0.5-0.8-1c-0.2-0.4-0.4-0.6-0.5-0.8
		c-0.1-0.2-0.2-0.3-0.3-0.3c-0.1-0.1-0.2-0.1-0.2-0.1c-0.1,0-0.1-0.1-0.3-0.1c-0.1-0.1-0.2-0.2-0.3-0.3c-0.1-0.1-0.1-0.1-0.2-0.2
		c0-0.1-0.1-0.3-0.1-0.5s-0.1-0.6-0.1-1.1c0-1,0.3-1.8,0.8-2.4c-0.8-0.2-1.2-0.3-1.1-0.4s-0.3-0.2-1.1-0.5c0.2-1.9,0.4-3.4,0.8-4.4
		c0.3-0.9,1-2.2,2.1-3.7c0.7-0.9,1.8-1.5,3.1-1.9s2-0.8,2-1.1c-0.2-0.7-0.3-0.7-0.4,0c0,0.7-0.2,0.4-0.5-0.8L532,55.2z M512.2,67.7
		L512.2,67.7c-0.1-0.2-0.1-0.3-0.2-0.2L512.2,67.7z M522.3,104.8c0,0.1,0.1,0.2,0.2,0.4c0.1,0.1,0.1,0.2,0.1,0.2
		c0,0.1,0.1,0.2,0.1,0.2c0.4,0.8,0.7,1.5,1.1,2c0.3,0.6,0.8,1.1,1.4,1.7l1,0.8c3,2.3,5.4,3.4,7.3,3.2c1.9-0.2,4.1-0.7,6.6-1.8
		c4.1-1.6,6.5-2.7,7-3.2c0.6-0.6,0.8-2.9,0.8-7.2c-1.3-0.1-1.7-0.2-1.3-0.2s0.1-0.5-1-1.5l-1.8-1.3c-1.2-0.7-2.9-0.9-4.9-0.7
		l-4.5,0.4c-3.5,0.4-6,0.9-7.6,1.4c-1.6,0.6-3.3,1.9-5.1,4L522.3,104.8z"/>
	<path id="XMLID_348_" class="st0" d="M591.9,52.1l1.2,0.1c0.2,0.7,0.2,1.3,0.1,1.7c-0.1,0.4-0.1,1.1-0.1,2.2l1.9-0.5h0.1h0.1
		c0,0,0,0,0.1,0l0.2-0.1l1.9-0.8c3.5-1.5,7.3-1.8,11.6-0.9c1.3,0.3,2.4,0.6,3.4,0.9s1.9,0.6,2.6,0.9c1.5,0.7,3.3,1.9,5.1,3.5
		c1.7,1.5,2.9,3.6,3.7,6.1l0.3,0.7c0.8,2.5,1.2,4.6,1.2,6.3c0,0.9,0,1.8,0,2.8c0.1,1,0.1,2,0.2,3c0.2,3-0.1,7.6-0.9,13.7
		c-0.7,6.1-1.8,10.9-3.2,14.4c-1,2.5-1.5,5.5-1.5,8.9c0,3.3-0.7,6.3-1.9,9c-0.2,0.4-0.3,0.6-0.4,0.7s-0.1,0.2-0.2,0.5
		c-0.2,0.3-0.3,0.5-0.3,0.7s-0.1,0.4-0.2,0.6c-0.7-0.5-1.3-1.2-1.9-2.1s-1-1.8-1.5-2.6c-1.8-3.5-2.6-8-2.4-13.5
		c0.1-2.7,0.2-5.2,0.3-7.6s0.1-4.5,0-6.4l-1.1-12.9l-0.6-3.3c-0.2-1-0.6-1.5-1.2-1.5c-1.7,0-3.3,0.5-4.8,1.5c-0.7,0.5-1.3,1-2,1.4
		s-1.4,0.8-2,1.2l-3.1,1.8c-1,0.5-1.8,1-2.5,1.6s-1.4,1.2-2.2,1.8l-1.2,1.7c-0.5,0.6-0.8,0.8-0.9,0.7c-0.1-0.2-0.3,0.1-0.5,1.1
		l-0.2,0.7c0,0-0.1,0.2-0.1,0.4l-6,26.9c-0.5,1.9-0.9,4.2-1.2,7c-0.4,2.8-1.1,4.8-2.3,6.3l-0.9,0.9c-0.1,0-0.3,0.2-0.7,0.6
		c-1.9-1-3.4-2.8-4.6-5.2c-0.3-0.6-0.6-1.2-0.7-1.7c-0.2-0.6-0.3-1.1-0.4-1.7c-0.1-0.6-0.2-1.2-0.3-1.8c-0.1-0.7-0.2-1.4-0.3-2.2
		c-0.7-3.7-0.9-6.5-0.8-8.3v-2c0-0.2,0-0.4,0.1-0.8c0-0.4,0.1-0.7,0.1-1l0.1-19.4c-0.1-0.9-0.1-1.7-0.1-2.3c0.1-0.6,0.1-1.2,0.1-1.8
		c-0.2-4.9-0.2-9.9-0.1-14.9c0.1-5.1-0.1-10.1-0.6-15c-0.4-4,0.6-7.2,3.1-9.5c0.2-0.2,0.4-0.3,0.6-0.4s0.4-0.3,0.6-0.5l1.3-1.8
		c0.8-0.9,2.1-1.4,4-1.7c0.9,0,1.5,0,1.7,0.1c0.5,0.1,0.9,0.1,1,0.2c0.2,0.1,0.2,0.1,0.1,0.1c-0.1,0,0.2,0.1,0.9,0.4
		c1.1,0.5,1.6,0.6,1.2,0.2c-0.3-0.4,0.1-0.4,1.1,0c0.7,0.3,1.3,0.8,1.6,1.7c0.4,0.8,1,1.4,2,1.8c0.1,0.1,0.2,0.2,0.2,0.1l0.1,0.1
		L590,45l0.4,0.4c1.1,1,1.6,1.7,1.7,2c0.1,0.3,0.1,1,0,2.2c-0.2,1.5,0,2,0.4,1.7c0.5-0.5,0.4-0.1-0.2,1.2L591.9,52.1z M587.8,42.8
		c-0.1,0-0.1-0.1-0.1-0.2L587.8,42.8z M587.9,43.1C587.9,43.1,587.9,43.2,587.9,43.1L587.9,43.1L587.9,43.1z M591.8,53
		C591.7,53,591.7,53,591.8,53C591.8,53.1,591.8,53.1,591.8,53L591.8,53C591.9,53,591.9,52.9,591.8,53z M604.7,54.3
		c0,0.7,0,0.9,0.1,0.5c0-0.1,0.1-0.1,0.1-0.2s0-0.1,0.1-0.1c0,0,0-0.1,0.1-0.1c0.2,0,0.2-0.1,0-0.4
		C604.8,53.6,604.7,53.7,604.7,54.3z"/>
	<path id="XMLID_354_" class="st0" d="M678.9,106.3c0.2,0,0.6,0.3,1.3,0.9c0.6,0.5,1,0.9,1.1,1.2c0.6,1.4,0.3,3.3-0.9,5.7
		c-0.6,1.2-1.1,2.3-1.7,3.3c-0.6,0.9-1.2,1.8-1.8,2.5c-2.5,2.8-4.8,4.8-7,5.9c-1.1,0.5-2.2,0.9-3.3,1.1s-2.3,0.5-3.5,1
		c-2,0.7-4.5,1-7.6,1c-3.1-0.1-5.5-0.5-7.3-1.1l-1.5-0.8c-0.9-0.5-1.7-0.9-2.5-1.3c-0.7-0.4-1.4-0.8-2-1.2c-0.6-0.4-1.2-0.8-1.9-1.3
		s-1.4-1.2-2.1-1.9l-1.5-1.5c-1.1-1.2-1.7-1.9-1.9-2.1l-4.7-6.4c0.1,0.1,0,0-0.1-0.2s-0.4-0.6-0.7-1.2c-0.6-1.1-1.1-2.1-1.4-2.8
		s-0.6-1.2-0.8-1.6l-1.8-4.5c-1.1-3-1.9-6.8-2.1-11.5c-0.3-4.6,0.3-8.3,1.7-11.2l1.5-2.9c0.4-0.7,1-1.5,1.7-2.5
		c0.7-0.9,1.4-1.7,2-2.3c0.7-0.9,1.4-1.7,2-2.4c0.6-0.7,1.3-1.4,2.2-2.3l4.5-4c0.5-0.4,1.2-1,2.3-1.7s2.5-1.5,4.3-2.4
		s3.3-1.7,4.5-2.2s2.3-1,3.1-1.2l4.5-1.2l4.1-0.6c2-0.3,3.4-0.4,4.1-0.2c1,0.2,2,0.4,2.8,0.5s1.6,0.2,2.3,0.3s1.4,0.2,2.2,0.5
		s1.6,0.6,2.4,1c2.1,1.1,3.8,2.4,5.1,3.8c2,2.4,3.7,5,5,7.8c1.3,2.8,1.1,6.1-0.5,9.8c-0.2,0.3-0.5,0.8-0.9,1.4
		c-0.5,0.6-1.1,1.4-1.9,2.4c-1.5,1.9-2.5,2.9-3,3c-0.4,0.1-0.7,0.1-0.8,0.1s0,0,0.2-0.1c0.5-0.1,0.5-0.2-0.1-0.2
		c-0.6,0.1-0.9,0.4-1.1,0.9h-1.8l-0.4-0.9c0,0-0.3-0.1-1.1-0.2c-1.1-0.1-2-0.1-2.4,0.2s-1.2-0.1-2.1-1.1l-1.9-2.1
		c-0.2,0-0.2-0.1-0.2-0.2c-0.1-0.1-0.2-0.1-0.3-0.2l-2.8-3.1c-0.2-0.3-0.3-0.6-0.2-0.8c0-0.3-0.3-0.4-1.1-0.4c-2.4,0-4,0.1-5,0.2
		c-0.9,0.1-2.4,0.6-4.6,1.4c-0.7,0.4-1.2,0.6-1.6,0.7c-0.4,0.1-0.8,0.4-1.4,0.7c-5.9,4.1-9.4,7.5-10.5,10.1c-1,2.7,0,7.1,3,13.2
		c0.7,1.4,1.4,2.7,2.2,3.9c0.8,1.2,1.6,2.4,2.5,3.5c1.9,2.1,3.8,3.5,5.9,4.2c2.2,0.8,5.5,0.8,9.8-0.1s7.5-2,9.7-3.2
		c1.5-0.8,2.3-1.4,2.3-1.7c0.1-0.3,0.6-0.7,1.7-1.1C677.8,106.4,678.3,106.3,678.9,106.3z"/>
	<path id="XMLID_356_" class="st0" d="M712.8,128.1c-4.3,0-8.6-1.8-12.9-5.3c-4.2-3.6-7.3-7.4-9.2-11.3c-1.3-2.7-2.4-3.9-3.5-3.6
		s-1.8-0.2-2-1.5l0.1-0.9c0.2-2.3,0.6-3.3,1.2-3.1c0.6,0.2,0.7-0.7,0.3-2.8l-0.5-9.6c0-1.4,0.3-3.1,0.8-5c0.3-1,0.5-1.9,0.7-2.7
		c0.2-0.8,0.4-1.6,0.6-2.2c1.5-4.6,3.9-8.9,7.3-12.7c1.7-2,3.4-3.8,5.2-5.5s3.6-3.3,5.4-4.8l2.4-1.6c1-0.7,2.1-1.4,3.3-2.1
		s2.5-1.3,3.6-1.6c1.7-0.4,3.4-0.8,5.3-1.1c1.9-0.3,3.8-0.5,5.8-0.6c4.1-0.2,7.6,0.7,10.3,2.7l2.5,1.9c3,2.4,5,5.8,5.8,10.1
		s0.7,8.2-0.5,11.8c-1.1,3.5-2.7,6.4-4.8,8.5c-0.4,0.4-0.8,0.8-1.1,1.2c-0.3,0.4-0.6,0.7-0.8,0.9c-1.7,2.2-4,4.3-6.8,6l-7.8,4.7
		l-8.4,4.5c-0.8,0.5-2.3,1.2-4.4,2.3c-2,1-3.4,1.5-4.2,1.6c0.7,3.1,2.9,5.4,6.4,7c5.5,2.5,11,2.1,16.4-1.4s8.5-6.7,9.3-9.6
		c1,0,1.5,0,1.5,0s0.3,0.3,0.7,0.9c0.6,1.1,0.7,3.4,0.1,7c-0.5,3.5-2.1,6.6-4.7,9.2c-1.5,1.5-3.5,2.9-6,4.2
		c-2.5,1.3-4.7,2.2-6.7,2.8c-0.7,0.2-1.4,0.4-2.3,0.6c-0.9,0.2-1.8,0.4-2.8,0.6s-2,0.3-3,0.4C714.5,128.1,713.6,128.1,712.8,128.1z
		 M723,79.2c0-0.8,0.1-1.2,0.2-1.1c0,0.1,0.3-0.1,0.8-0.6l4.1-3.6c0.8-0.7,1.2-2.9,1.2-6.7c-2.5-0.6-4.8-0.5-6.8,0.3l-4,1.8
		c-0.4,0.3-1,0.6-1.6,1.1c-0.6,0.4-1.3,1-2.1,1.6c-0.1,0-0.4,0.3-0.9,0.8l-5,5.3c-2.8,3.3-4.4,5.6-4.7,6.9c-0.2,0.6-0.4,1.2-0.6,2
		c-0.3,0.8-0.6,1.6-1.1,2.6c1-0.1,2.4-0.6,4-1.4c0.8-0.4,1.6-0.8,2.3-1.2c0.7-0.4,1.4-0.7,2-1s1.4-0.8,2.5-1.4
		c1-0.6,2.3-1.4,3.8-2.3C720.2,80.3,722.2,79.3,723,79.2z"/>
</g>
</svg>
