<?xml version="1.0" encoding="iso-8859-1"?>
<!-- Generator: Adobe Illustrator 19.2.1, SVG Export Plug-In . SVG Version: 6.00 Build 0)  -->
<svg version="1.1" id="Layer_1" xmlns="http://www.w3.org/2000/svg" xmlns:xlink="http://www.w3.org/1999/xlink" x="0px" y="0px"
	 viewBox="0 0 70 20" style="enable-background:new 0 0 70 20;" xml:space="preserve">
<g>
	<path d="M22.769,4.162c0.137-0.084,0.294-0.091,0.472-0.021c0.178,0.07,0.308,0.175,0.39,0.315c0.082,0.14,0.103,0.263,0.062,0.368
		c-0.041,0.105-0.089,0.242-0.144,0.41c-0.055,0.168-0.089,0.315-0.103,0.441c-0.014,0.126,0,0.21,0.041,0.252
		c0.041,0.042,0.369,0.217,0.985,0.525c0.616,0.308,1.033,0.588,1.252,0.84c0.219,0.252,0.369,0.448,0.452,0.588
		c0.082,0.14,0.15,0.308,0.205,0.504c0.055,0.196,0.089,0.385,0.103,0.567c0.014,0.182,0,0.413-0.041,0.693
		c-0.041,0.281-0.26,0.63-0.657,1.051c-0.397,0.42-0.739,0.721-1.026,0.904c-0.287,0.182-0.595,0.336-0.924,0.462
		c-0.328,0.126-0.759,0.266-1.293,0.42c-0.534,0.154-0.91,0.238-1.129,0.252c-0.219,0.014-0.452,0.028-0.698,0.042
		c-0.246,0.014-0.404,0.105-0.472,0.273c-0.069,0.168-0.178,0.407-0.328,0.714c-0.151,0.308-0.284,0.669-0.4,1.082
		c-0.116,0.413-0.235,0.693-0.354,0.84c-0.12,0.147-0.267,0.215-0.441,0.205c-0.175-0.011-0.289-0.063-0.344-0.158
		c-0.055-0.094,0.082-0.685,0.41-1.77c0.328-1.086,0.684-2.091,1.067-3.015c0.383-0.925,0.595-1.484,0.636-1.681
		c0.041-0.196,0.082-0.315,0.123-0.357c0.041-0.042,0.118-0.331,0.231-0.867c0.113-0.536,0.051-0.802-0.185-0.798
		c-0.236,0.004-0.217-0.17,0.057-0.52c0.273-0.35,0.527-0.637,0.759-0.861c0.232-0.224,0.397-0.413,0.493-0.567
		c0.096-0.154,0.178-0.284,0.246-0.389c0.068-0.105,0.144-0.235,0.226-0.389C22.523,4.366,22.632,4.246,22.769,4.162z M23.2,7.503
		c-0.151-0.028-0.328,0.049-0.534,0.231c-0.205,0.182-0.424,0.539-0.657,1.072c-0.233,0.533-0.458,1.04-0.677,1.523
		c-0.219,0.483-0.376,0.83-0.472,1.04c-0.096,0.21,0.096,0.281,0.575,0.21c0.479-0.07,1.072-0.229,1.781-0.478
		c0.708-0.249,1.214-0.56,1.519-0.935c0.304-0.374,0.463-0.639,0.477-0.793c0.014-0.154,0.007-0.308-0.021-0.462
		c-0.027-0.154-0.123-0.343-0.287-0.567c-0.164-0.224-0.452-0.413-0.862-0.567C23.631,7.622,23.351,7.531,23.2,7.503z"/>
	<path d="M28.178,10.182c0.458-0.035,0.737,0.044,0.836,0.236c0.099,0.193,0.145,0.438,0.139,0.735
		c-0.007,0.298-0.144,0.55-0.41,0.756c-0.267,0.207-0.619,0.412-1.057,0.615c-0.123,0.049-0.235,0.075-0.334,0.079
		c-0.099,0.004-0.181,0-0.246-0.01c-0.065-0.011-0.116-0.021-0.154-0.032c-0.038-0.01-0.06-0.005-0.067,0.016
		c-0.123,0.203-0.186,0.406-0.19,0.609c-0.003,0.203,0.062,0.391,0.195,0.562c0.133,0.172,0.282,0.271,0.446,0.299
		c0.164,0.028,0.335,0.023,0.513-0.016c0.178-0.038,0.506-0.159,0.985-0.362c0.479-0.203,0.812-0.394,1-0.572
		c0.188-0.179,0.368-0.352,0.539-0.52c0.171-0.168,0.195-0.168,0.072,0c-0.123,0.168-0.275,0.371-0.457,0.609
		c-0.182,0.238-0.407,0.475-0.677,0.709c-0.27,0.235-0.491,0.415-0.662,0.541c-0.171,0.126-0.398,0.24-0.682,0.342
		c-0.284,0.102-0.563,0.133-0.836,0.094c-0.273-0.038-0.479-0.103-0.616-0.194c-0.137-0.091-0.263-0.2-0.38-0.326
		c-0.116-0.126-0.212-0.275-0.287-0.446c-0.075-0.171-0.115-0.406-0.118-0.704c-0.003-0.298,0.065-0.622,0.205-0.972
		c0.14-0.35,0.299-0.641,0.477-0.872c0.178-0.231,0.419-0.464,0.723-0.699C27.44,10.426,27.787,10.266,28.178,10.182z
		 M28.188,11.128c-0.048-0.049-0.166-0.024-0.354,0.073c-0.188,0.098-0.325,0.208-0.41,0.331c-0.086,0.123-0.101,0.212-0.046,0.268
		c0.055,0.056,0.171,0.033,0.349-0.068c0.178-0.102,0.32-0.203,0.426-0.305C28.258,11.326,28.27,11.226,28.188,11.128z"/>
	<path d="M30.774,11.663c0.246-0.973,0.484-1.45,0.713-1.429c0.229,0.021,0.402,0.126,0.518,0.315
		c0.116,0.189,0.104,0.422-0.036,0.699c-0.14,0.277-0.154,0.406-0.041,0.389c0.113-0.017,0.262-0.087,0.446-0.21
		c0.185-0.122,0.361-0.22,0.529-0.294c0.168-0.073,0.303-0.121,0.405-0.142c0.103-0.021,0.299,0.014,0.59,0.105
		c0.291,0.091,0.566,0.219,0.826,0.383c0.26,0.165,0.604,0.178,1.031,0.042c0.428-0.137,0.381-0.091-0.139,0.136
		c-0.52,0.228-1.052,0.335-1.596,0.321c-0.544-0.014-0.965,0.052-1.262,0.199c-0.297,0.147-0.549,0.31-0.754,0.488
		c-0.205,0.179-0.395,0.473-0.569,0.882c-0.175,0.41-0.308,0.755-0.4,1.035c-0.092,0.28-0.174,0.509-0.246,0.688
		c-0.072,0.179-0.219,0.273-0.441,0.284c-0.223,0.01-0.369-0.072-0.441-0.247c-0.072-0.175-0.089-0.289-0.051-0.341
		c0.038-0.053,0.14-0.373,0.308-0.961C30.331,13.418,30.535,12.637,30.774,11.663z"/>
	<path d="M38.902,5.402c0.321-0.196,0.587-0.252,0.795-0.168c0.208,0.084,0.386,0.2,0.534,0.347c0.147,0.147,0.26,0.305,0.339,0.473
		c0.079,0.168,0.06,0.354-0.057,0.557c-0.116,0.203-0.229,0.256-0.339,0.158c-0.11-0.098-0.258-0.189-0.446-0.273
		c-0.188-0.084-0.359-0.066-0.513,0.053c-0.154,0.119-0.33,0.343-0.528,0.672c-0.199,0.329-0.431,0.788-0.698,1.376
		c-0.267,0.588-0.438,1.016-0.513,1.282c-0.075,0.266,0.062,0.396,0.41,0.389c0.349-0.007,0.746-0.007,1.19,0
		c0.445,0.007,1.31-0.005,2.596-0.037c1.286-0.031,1.409-0.035,0.369-0.01c-1.04,0.025-1.861,0.103-2.463,0.236
		c-0.602,0.133-1.009,0.228-1.221,0.284c-0.212,0.056-0.435,0.123-0.667,0.2c-0.233,0.077-0.383,0.154-0.452,0.231
		c-0.069,0.077-0.151,0.186-0.246,0.326c-0.096,0.14-0.417,1.044-0.965,2.711c-0.547,1.667-0.886,2.69-1.016,3.068
		c-0.13,0.378-0.284,0.649-0.462,0.814c-0.178,0.165-0.395,0.237-0.652,0.215c-0.256-0.021-0.452-0.177-0.585-0.467
		c-0.134-0.291-0.178-0.476-0.134-0.557c0.044-0.081,0.092-0.063,0.144,0.052c0.051,0.116,0.127,0.191,0.226,0.226
		c0.099,0.035,0.199-0.002,0.298-0.11c0.099-0.109,0.508-1.187,1.226-3.236c0.718-2.049,0.862-2.978,0.431-2.789
		c-0.431,0.189-0.628,0.073-0.59-0.347c0.038-0.42,0.234-0.637,0.59-0.651c0.356-0.014,0.58-0.058,0.672-0.132
		c0.092-0.073,0.284-0.485,0.575-1.234c0.291-0.749,0.529-1.311,0.713-1.686c0.185-0.375,0.395-0.744,0.631-1.108
		C38.332,5.899,38.6,5.612,38.902,5.402z"/>
	<path d="M40.42,10.729c0.13-0.126,0.289-0.207,0.477-0.242c0.188-0.035,0.344-0.024,0.467,0.032
		c0.123,0.056,0.227,0.156,0.313,0.299c0.086,0.144,0.299,0.212,0.641,0.205c0.342-0.007,0.768-0.005,1.278,0.005
		c0.51,0.011,0.402,0.026-0.323,0.047c-0.725,0.021-1.137,0.051-1.237,0.09c-0.099,0.038-0.14,0.163-0.123,0.373
		c0.017,0.21,0.031,0.433,0.041,0.667c0.01,0.235,0.012,0.496,0.005,0.783c-0.007,0.287-0.027,0.501-0.062,0.641
		c-0.034,0.14-0.086,0.287-0.154,0.441c-0.068,0.154-0.169,0.317-0.303,0.488c-0.134,0.172-0.298,0.331-0.493,0.478
		c-0.195,0.147-0.375,0.257-0.539,0.331c-0.164,0.073-0.342,0.077-0.534,0.01c-0.192-0.067-0.347-0.171-0.467-0.315
		c-0.12-0.143-0.216-0.292-0.287-0.446c-0.072-0.154-0.103-0.424-0.093-0.809c0.01-0.385,0.051-0.695,0.123-0.93
		c0.072-0.234,0.183-0.479,0.333-0.735c0.151-0.255,0.195-0.374,0.134-0.357c-0.062,0.018-0.077,0.009-0.046-0.026
		c0.031-0.035,0.149-0.186,0.354-0.452C40.133,11.04,40.297,10.848,40.42,10.729z M40.933,12.378
		c-0.151-0.189-0.339-0.136-0.564,0.158c-0.226,0.294-0.361,0.606-0.405,0.935c-0.045,0.329-0.027,0.561,0.051,0.694
		c0.079,0.133,0.161,0.21,0.246,0.231c0.086,0.021,0.207-0.037,0.364-0.173c0.157-0.136,0.285-0.433,0.385-0.888
		C41.11,12.879,41.084,12.56,40.933,12.378z"/>
	<path d="M43.325,11.663c0.246-0.973,0.484-1.45,0.713-1.429c0.229,0.021,0.402,0.126,0.518,0.315
		c0.116,0.189,0.104,0.422-0.036,0.699c-0.14,0.277-0.154,0.406-0.041,0.389c0.113-0.017,0.261-0.087,0.446-0.21
		c0.184-0.122,0.361-0.22,0.528-0.294c0.168-0.073,0.303-0.121,0.405-0.142c0.103-0.021,0.299,0.014,0.59,0.105
		c0.291,0.091,0.566,0.219,0.826,0.383c0.26,0.165,0.604,0.178,1.031,0.042c0.428-0.137,0.381-0.091-0.138,0.136
		c-0.52,0.228-1.052,0.335-1.596,0.321c-0.544-0.014-0.965,0.052-1.262,0.199c-0.297,0.147-0.549,0.31-0.754,0.488
		c-0.205,0.179-0.395,0.473-0.57,0.882c-0.175,0.41-0.308,0.755-0.4,1.035c-0.092,0.28-0.174,0.509-0.246,0.688
		c-0.072,0.179-0.219,0.273-0.441,0.284c-0.223,0.01-0.369-0.072-0.441-0.247c-0.072-0.175-0.089-0.289-0.051-0.341
		c0.038-0.053,0.14-0.373,0.308-0.961C42.881,13.418,43.085,12.637,43.325,11.663z"/>
	<path d="M48.425,10.434c0.26-0.364,0.472-0.539,0.637-0.525c0.164,0.014,0.27,0.084,0.318,0.21
		c0.048,0.126,0.089,0.243,0.123,0.352c0.034,0.109,0.068,0.266,0.103,0.473c0.034,0.207-0.104,0.608-0.416,1.203
		c-0.311,0.595-0.289,0.671,0.067,0.226c0.356-0.445,0.66-0.721,0.913-0.83c0.253-0.109,0.486-0.109,0.698,0
		c0.212,0.109,0.345,0.24,0.4,0.394c0.055,0.154,0.089,0.329,0.103,0.525c0.014,0.196,0.041,0.308,0.082,0.336
		c0.041,0.028,0.267-0.182,0.677-0.63c0.41-0.448,0.771-0.744,1.083-0.888c0.311-0.143,0.57-0.173,0.775-0.089
		c0.205,0.084,0.385,0.249,0.539,0.494c0.154,0.245,0.354,0.602,0.6,1.071c0.246,0.469,0.501,0.814,0.764,1.035
		c0.263,0.22,0.498,0.352,0.703,0.394c0.205,0.042,0.561-0.071,1.067-0.341c0.506-0.269,0.619-0.32,0.339-0.152
		c-0.281,0.168-0.563,0.314-0.847,0.436c-0.284,0.123-0.484,0.217-0.601,0.284c-0.116,0.067-0.275,0.124-0.477,0.174
		c-0.202,0.049-0.392,0.028-0.569-0.063c-0.178-0.091-0.349-0.208-0.513-0.352c-0.164-0.144-0.369-0.382-0.616-0.714
		c-0.246-0.333-0.422-0.58-0.528-0.741c-0.106-0.161-0.238-0.228-0.395-0.199c-0.158,0.028-0.322,0.117-0.493,0.268
		c-0.171,0.151-0.405,0.366-0.703,0.646c-0.297,0.281-0.53,0.575-0.698,0.882c-0.168,0.308-0.268,0.506-0.303,0.594
		c-0.034,0.088-0.123,0.21-0.267,0.368c-0.144,0.158-0.281,0.217-0.41,0.179c-0.13-0.038-0.224-0.109-0.282-0.21
		c-0.058-0.101-0.063-0.282-0.015-0.541c0.048-0.259,0.087-0.508,0.118-0.746c0.031-0.238,0.055-0.497,0.072-0.778
		c0.017-0.28-0.063-0.429-0.241-0.446c-0.178-0.017-0.474,0.182-0.888,0.599c-0.414,0.417-0.676,0.741-0.785,0.972
		c-0.11,0.231-0.197,0.396-0.262,0.494c-0.065,0.098-0.133,0.175-0.205,0.231c-0.072,0.056-0.215,0.049-0.431-0.021
		c-0.215-0.07-0.337-0.161-0.364-0.273c-0.027-0.112,0.024-0.339,0.154-0.683c0.13-0.343,0.301-0.872,0.513-1.587
		c0.212-0.714,0.359-1.166,0.441-1.355c0.082-0.189-0.488,0.154-1.709,1.03c-1.221,0.876-1.563,1.089-1.026,0.641
		c0.537-0.448,1.066-0.86,1.586-1.234C47.775,11.168,48.165,10.799,48.425,10.434z"/>
	<path d="M58.759,10.182c0.458-0.035,0.737,0.044,0.836,0.236c0.099,0.193,0.145,0.438,0.139,0.735
		c-0.007,0.298-0.144,0.55-0.41,0.756c-0.267,0.207-0.619,0.412-1.057,0.615c-0.123,0.049-0.234,0.075-0.333,0.079
		c-0.099,0.004-0.181,0-0.246-0.01c-0.065-0.011-0.116-0.021-0.154-0.032c-0.038-0.01-0.06-0.005-0.067,0.016
		c-0.123,0.203-0.187,0.406-0.19,0.609c-0.003,0.203,0.062,0.391,0.195,0.562c0.133,0.172,0.282,0.271,0.446,0.299
		c0.164,0.028,0.335,0.023,0.513-0.016c0.178-0.038,0.506-0.159,0.985-0.362c0.479-0.203,0.812-0.394,1.001-0.572
		c0.188-0.179,0.368-0.352,0.539-0.52c0.171-0.168,0.195-0.168,0.072,0c-0.123,0.168-0.275,0.371-0.457,0.609
		c-0.182,0.238-0.407,0.475-0.677,0.709c-0.27,0.235-0.491,0.415-0.662,0.541c-0.171,0.126-0.399,0.24-0.683,0.342
		c-0.284,0.102-0.563,0.133-0.836,0.094c-0.274-0.038-0.479-0.103-0.616-0.194c-0.137-0.091-0.264-0.2-0.38-0.326
		c-0.116-0.126-0.212-0.275-0.287-0.446c-0.075-0.171-0.115-0.406-0.118-0.704c-0.003-0.298,0.065-0.622,0.205-0.972
		c0.14-0.35,0.299-0.641,0.477-0.872c0.178-0.231,0.419-0.464,0.724-0.699C58.022,10.426,58.369,10.266,58.759,10.182z
		 M58.769,11.128c-0.048-0.049-0.166-0.024-0.354,0.073c-0.188,0.098-0.325,0.208-0.411,0.331c-0.086,0.123-0.101,0.212-0.046,0.268
		c0.055,0.056,0.171,0.033,0.349-0.068c0.178-0.102,0.32-0.203,0.426-0.305C58.839,11.326,58.851,11.226,58.769,11.128z"/>
	<path d="M61.355,11.663c0.246-0.973,0.484-1.45,0.713-1.429c0.229,0.021,0.402,0.126,0.518,0.315
		c0.116,0.189,0.104,0.422-0.036,0.699c-0.14,0.277-0.154,0.406-0.041,0.389c0.113-0.017,0.262-0.087,0.446-0.21
		c0.185-0.122,0.361-0.22,0.529-0.294c0.168-0.073,0.303-0.121,0.405-0.142c0.103-0.021,0.299,0.014,0.59,0.105
		c0.291,0.091,0.566,0.219,0.826,0.383c0.26,0.165,0.604,0.178,1.031,0.042c0.428-0.137,0.381-0.091-0.139,0.136
		c-0.52,0.228-1.052,0.335-1.596,0.321c-0.544-0.014-0.965,0.052-1.262,0.199c-0.297,0.147-0.549,0.31-0.754,0.488
		c-0.205,0.179-0.395,0.473-0.569,0.882c-0.175,0.41-0.308,0.755-0.4,1.035c-0.092,0.28-0.174,0.509-0.246,0.688
		c-0.072,0.179-0.219,0.273-0.441,0.284c-0.223,0.01-0.369-0.072-0.441-0.247c-0.072-0.175-0.089-0.289-0.051-0.341
		c0.038-0.053,0.14-0.373,0.308-0.961C60.912,13.418,61.116,12.637,61.355,11.663z"/>
	<path d="M67.43,10.319c0.273-0.14,0.547-0.231,0.821-0.273c0.273-0.042,0.44,0.01,0.498,0.157c0.058,0.147,0.031,0.291-0.082,0.431
		c-0.113,0.14-0.267,0.219-0.462,0.236c-0.195,0.017-0.405,0.161-0.631,0.431c-0.226,0.27-0.356,0.588-0.39,0.956
		c-0.034,0.368-0.026,0.622,0.026,0.762c0.051,0.14,0.108,0.413,0.17,0.819c0.061,0.406,0.02,0.755-0.123,1.045
		c-0.144,0.291-0.298,0.502-0.462,0.636c-0.164,0.133-0.368,0.231-0.611,0.294c-0.243,0.063-0.45,0.094-0.621,0.094
		c-0.171,0-0.354-0.042-0.549-0.126c-0.195-0.084-0.315-0.257-0.359-0.52c-0.045-0.263,0.315-0.75,1.077-1.46
		c0.763-0.711,0.823-0.732,0.18-0.063c-0.643,0.669-0.895,1.084-0.754,1.245c0.14,0.161,0.308,0.203,0.503,0.126
		c0.195-0.077,0.349-0.18,0.462-0.31c0.113-0.13,0.197-0.287,0.251-0.473c0.055-0.186,0.079-0.357,0.072-0.515
		c-0.007-0.158-0.06-0.508-0.159-1.051s-0.099-0.951,0-1.224c0.099-0.273,0.246-0.509,0.441-0.709
		C66.922,10.629,67.157,10.459,67.43,10.319z"/>
</g>
<path id="fr10" style="fill:#ECE0DB;" d="M2.712,9.416c0-3.408,3.618-6.171,8.081-6.171c4.464,0,8.081,2.763,8.081,6.171
	c0,3.409-3.618,6.172-8.081,6.172C6.33,15.588,2.712,12.825,2.712,9.416"/>
</svg>
