<?xml version="1.0" encoding="iso-8859-1"?>
<!-- Generator: Adobe Illustrator 19.2.1, SVG Export Plug-In . SVG Version: 6.00 Build 0)  -->
<svg version="1.1" id="Layer_1" xmlns="http://www.w3.org/2000/svg" xmlns:xlink="http://www.w3.org/1999/xlink" x="0px" y="0px"
	 viewBox="0 0 75 25" style="enable-background:new 0 0 75 25;" xml:space="preserve">
<g>
	<path d="M21.356,0.121c0.16-0.148,0.342-0.159,0.551-0.037c0.208,0.123,0.359,0.307,0.455,0.554
		c0.096,0.247,0.12,0.462,0.072,0.647c-0.048,0.185-0.104,0.426-0.168,0.72c-0.064,0.296-0.104,0.554-0.12,0.775
		c-0.016,0.221,0,0.369,0.048,0.443c0.048,0.073,0.431,0.382,1.148,0.923c0.717,0.541,1.205,1.034,1.46,1.478
		c0.255,0.443,0.431,0.788,0.527,1.034c0.096,0.247,0.174,0.541,0.239,0.887c0.064,0.344,0.104,0.677,0.12,0.997
		c0.016,0.32,0,0.726-0.048,1.218c-0.048,0.494-0.303,1.108-0.766,1.848c-0.463,0.739-0.861,1.268-1.196,1.59
		c-0.335,0.32-0.693,0.591-1.077,0.812c-0.383,0.221-0.885,0.468-1.508,0.739c-0.622,0.271-1.061,0.419-1.316,0.443
		c-0.255,0.024-0.527,0.049-0.813,0.073c-0.287,0.024-0.471,0.185-0.551,0.48c-0.081,0.296-0.207,0.716-0.383,1.255
		c-0.176,0.541-0.331,1.176-0.467,1.903c-0.135,0.726-0.274,1.218-0.413,1.478c-0.14,0.258-0.312,0.379-0.515,0.36
		c-0.204-0.02-0.337-0.111-0.401-0.278c-0.064-0.165,0.096-1.205,0.477-3.112c0.383-1.91,0.798-3.677,1.244-5.302
		c0.447-1.627,0.693-2.61,0.741-2.956c0.048-0.344,0.096-0.554,0.144-0.627s0.137-0.582,0.269-1.525s0.06-1.41-0.216-1.403
		c-0.275,0.007-0.253-0.299,0.067-0.914c0.318-0.616,0.615-1.12,0.885-1.514c0.27-0.393,0.463-0.726,0.575-0.997
		c0.111-0.271,0.207-0.499,0.287-0.684c0.08-0.185,0.168-0.413,0.264-0.684C21.069,0.48,21.197,0.269,21.356,0.121z M21.858,5.996
		c-0.176-0.049-0.383,0.086-0.622,0.406c-0.239,0.32-0.494,0.948-0.766,1.885c-0.271,0.937-0.534,1.829-0.789,2.679
		c-0.255,0.849-0.438,1.459-0.551,1.829c-0.112,0.369,0.112,0.494,0.67,0.369c0.558-0.123,1.249-0.403,2.077-0.841
		c0.825-0.438,1.415-0.984,1.772-1.644c0.354-0.657,0.54-1.124,0.556-1.395c0.016-0.271,0.008-0.541-0.024-0.812
		c-0.032-0.271-0.144-0.603-0.335-0.997c-0.191-0.393-0.527-0.726-1.005-0.997C22.361,6.205,22.035,6.045,21.858,5.996z"/>
	<path d="M27.663,10.707c0.534-0.062,0.859,0.077,0.975,0.415c0.116,0.34,0.169,0.77,0.162,1.293
		c-0.008,0.524-0.168,0.967-0.477,1.33c-0.312,0.364-0.722,0.725-1.232,1.082c-0.144,0.086-0.274,0.132-0.389,0.139
		c-0.116,0.007-0.211,0-0.287-0.017c-0.076-0.02-0.135-0.037-0.18-0.056c-0.045-0.017-0.07-0.009-0.078,0.029
		c-0.144,0.357-0.217,0.714-0.221,1.071c-0.003,0.357,0.072,0.687,0.228,0.988c0.155,0.303,0.329,0.476,0.52,0.525
		c0.191,0.049,0.39,0.04,0.599-0.029c0.207-0.067,0.59-0.28,1.148-0.637c0.558-0.357,0.946-0.693,1.165-1.006
		c0.219-0.314,0.43-0.619,0.628-0.914s0.228-0.296,0.084,0s-0.321,0.653-0.533,1.071c-0.213,0.419-0.474,0.835-0.789,1.247
		c-0.315,0.413-0.572,0.73-0.772,0.951s-0.464,0.422-0.795,0.601c-0.331,0.179-0.656,0.234-0.975,0.165
		c-0.318-0.067-0.558-0.181-0.718-0.341c-0.16-0.159-0.306-0.352-0.443-0.574c-0.135-0.221-0.247-0.484-0.335-0.785
		c-0.087-0.301-0.134-0.714-0.137-1.238c-0.003-0.524,0.076-1.093,0.239-1.709c0.164-0.616,0.349-1.128,0.556-1.534
		c0.207-0.406,0.488-0.816,0.843-1.229C26.802,11.136,27.207,10.855,27.663,10.707z M27.675,12.37
		c-0.056-0.086-0.194-0.042-0.413,0.128c-0.219,0.172-0.379,0.366-0.477,0.582c-0.1,0.217-0.118,0.373-0.053,0.471
		c0.064,0.099,0.2,0.059,0.407-0.119c0.207-0.179,0.373-0.357,0.497-0.537C27.755,12.719,27.769,12.542,27.675,12.37z"/>
	<path d="M30.689,13.311c0.287-1.71,0.565-2.55,0.832-2.512c0.267,0.037,0.469,0.221,0.604,0.554
		c0.135,0.333,0.121,0.742-0.041,1.229c-0.164,0.488-0.18,0.714-0.048,0.684c0.132-0.03,0.305-0.153,0.52-0.369
		c0.216-0.215,0.421-0.387,0.617-0.517c0.196-0.128,0.353-0.212,0.472-0.25c0.12-0.037,0.349,0.024,0.688,0.185
		c0.339,0.159,0.66,0.385,0.963,0.673c0.303,0.29,0.704,0.313,1.202,0.073c0.499-0.241,0.444-0.159-0.162,0.239
		c-0.606,0.4-1.226,0.59-1.861,0.564c-0.634-0.024-1.125,0.092-1.472,0.35s-0.64,0.545-0.879,0.858
		c-0.239,0.314-0.46,0.832-0.664,1.551c-0.204,0.72-0.359,1.327-0.467,1.821s-0.203,0.895-0.287,1.21
		c-0.084,0.315-0.255,0.48-0.515,0.499c-0.259,0.017-0.431-0.126-0.515-0.435c-0.084-0.307-0.104-0.508-0.06-0.6
		c0.045-0.093,0.164-0.656,0.359-1.69C30.172,16.398,30.411,15.023,30.689,13.311z"/>
	<path d="M40.166,2.301c0.374-0.344,0.685-0.443,0.927-0.296c0.242,0.148,0.45,0.352,0.622,0.61
		c0.171,0.258,0.303,0.537,0.396,0.832c0.093,0.295,0.07,0.623-0.067,0.98c-0.135,0.357-0.267,0.451-0.396,0.278
		c-0.129-0.172-0.301-0.333-0.52-0.48c-0.219-0.148-0.419-0.116-0.599,0.093c-0.18,0.209-0.385,0.603-0.616,1.182
		c-0.232,0.578-0.503,1.386-0.813,2.419c-0.312,1.034-0.51,1.786-0.599,2.254s0.072,0.696,0.477,0.684
		c0.407-0.013,0.87-0.013,1.388,0c0.519,0.013,1.527-0.009,3.026-0.065c1.499-0.055,1.643-0.062,0.431-0.017
		c-1.212,0.044-2.169,0.181-2.872,0.415c-0.702,0.234-1.176,0.4-1.424,0.499s-0.507,0.217-0.777,0.352
		c-0.271,0.135-0.447,0.271-0.527,0.406c-0.081,0.135-0.176,0.327-0.287,0.574c-0.112,0.247-0.486,1.835-1.125,4.768
		c-0.638,2.931-1.033,4.73-1.185,5.395s-0.331,1.141-0.539,1.432c-0.207,0.29-0.46,0.416-0.76,0.379
		c-0.299-0.037-0.527-0.311-0.682-0.821c-0.156-0.512-0.207-0.837-0.156-0.98c0.051-0.142,0.107-0.111,0.168,0.092
		c0.06,0.204,0.148,0.336,0.264,0.397c0.116,0.062,0.232-0.003,0.348-0.194c0.116-0.192,0.592-2.088,1.429-5.69
		c0.837-3.603,1.005-5.237,0.503-4.904c-0.503,0.333-0.733,0.128-0.688-0.61c0.045-0.739,0.273-1.12,0.688-1.145
		s0.676-0.102,0.784-0.232c0.107-0.128,0.331-0.852,0.67-2.17c0.339-1.317,0.617-2.306,0.832-2.964
		c0.216-0.66,0.46-1.308,0.736-1.948C39.501,3.176,39.814,2.671,40.166,2.301z"/>
	<path d="M41.935,11.669c0.152-0.221,0.337-0.364,0.556-0.426c0.219-0.062,0.401-0.042,0.544,0.056
		c0.143,0.099,0.265,0.274,0.365,0.525c0.1,0.254,0.349,0.373,0.748,0.36c0.399-0.013,0.895-0.009,1.49,0.009
		c0.594,0.02,0.469,0.046-0.376,0.083c-0.845,0.037-1.326,0.089-1.442,0.158c-0.116,0.067-0.164,0.287-0.144,0.656
		c0.02,0.369,0.036,0.762,0.048,1.172c0.012,0.413,0.014,0.872,0.005,1.377c-0.008,0.505-0.032,0.881-0.072,1.128
		c-0.039,0.247-0.1,0.505-0.18,0.775c-0.08,0.271-0.197,0.558-0.353,0.858c-0.156,0.303-0.348,0.582-0.575,0.841
		c-0.228,0.258-0.437,0.452-0.628,0.582c-0.191,0.128-0.399,0.135-0.622,0.017s-0.404-0.301-0.544-0.554
		c-0.14-0.251-0.252-0.514-0.335-0.785c-0.084-0.271-0.12-0.746-0.108-1.422c0.012-0.677,0.06-1.222,0.144-1.636
		c0.084-0.412,0.214-0.842,0.388-1.293c0.176-0.449,0.228-0.657,0.156-0.627c-0.072,0.032-0.089,0.016-0.053-0.046
		c0.036-0.062,0.173-0.327,0.413-0.795C41.601,12.215,41.792,11.878,41.935,11.669z M42.534,14.568
		c-0.176-0.333-0.396-0.239-0.657,0.278c-0.264,0.517-0.421,1.066-0.472,1.644c-0.052,0.578-0.032,0.987,0.06,1.221
		c0.092,0.234,0.188,0.369,0.287,0.406c0.1,0.037,0.241-0.065,0.424-0.304c0.183-0.239,0.333-0.762,0.449-1.561
		C42.74,15.449,42.71,14.888,42.534,14.568z"/>
	<path d="M45.322,13.311c0.287-1.71,0.565-2.55,0.832-2.512s0.469,0.221,0.604,0.554s0.121,0.742-0.041,1.229
		c-0.162,0.486-0.18,0.714-0.048,0.684c0.132-0.03,0.304-0.153,0.52-0.369c0.215-0.215,0.421-0.387,0.616-0.517
		c0.196-0.128,0.353-0.212,0.472-0.25c0.12-0.037,0.349,0.024,0.688,0.185c0.339,0.159,0.66,0.385,0.963,0.673
		c0.303,0.29,0.704,0.313,1.202,0.073c0.499-0.241,0.444-0.159-0.161,0.239c-0.606,0.4-1.226,0.59-1.861,0.564
		c-0.634-0.024-1.125,0.092-1.472,0.35s-0.64,0.545-0.879,0.858c-0.239,0.314-0.46,0.832-0.665,1.551
		c-0.204,0.72-0.359,1.327-0.467,1.821c-0.108,0.493-0.203,0.895-0.287,1.21c-0.084,0.315-0.255,0.48-0.515,0.499
		c-0.259,0.017-0.431-0.126-0.515-0.435c-0.084-0.307-0.104-0.508-0.06-0.6c0.045-0.093,0.164-0.656,0.359-1.69
		C44.805,16.398,45.043,15.023,45.322,13.311z"/>
	<path d="M51.269,11.149c0.303-0.64,0.551-0.948,0.742-0.923c0.191,0.024,0.315,0.148,0.371,0.369
		c0.056,0.221,0.104,0.427,0.144,0.619c0.039,0.192,0.08,0.468,0.12,0.832c0.039,0.364-0.121,1.069-0.485,2.115
		c-0.363,1.046-0.337,1.18,0.078,0.397c0.415-0.782,0.77-1.268,1.064-1.459c0.295-0.192,0.567-0.192,0.813,0
		c0.247,0.192,0.402,0.422,0.467,0.693c0.064,0.271,0.104,0.578,0.12,0.923c0.016,0.344,0.048,0.541,0.096,0.591
		c0.048,0.049,0.312-0.32,0.789-1.108c0.478-0.788,0.899-1.308,1.262-1.561c0.363-0.251,0.665-0.304,0.904-0.156
		c0.239,0.148,0.449,0.438,0.628,0.868c0.18,0.431,0.413,1.059,0.7,1.884c0.287,0.825,0.584,1.432,0.891,1.821
		c0.306,0.387,0.581,0.619,0.82,0.693s0.654-0.125,1.244-0.6c0.59-0.473,0.722-0.563,0.396-0.267
		c-0.328,0.296-0.656,0.552-0.988,0.766c-0.331,0.217-0.565,0.382-0.701,0.499c-0.135,0.118-0.321,0.218-0.556,0.306
		c-0.235,0.086-0.457,0.049-0.664-0.111c-0.207-0.159-0.407-0.366-0.599-0.619c-0.191-0.254-0.431-0.672-0.718-1.255
		c-0.287-0.585-0.492-1.02-0.616-1.303c-0.123-0.283-0.278-0.4-0.46-0.35c-0.184,0.049-0.375,0.205-0.575,0.471
		c-0.2,0.265-0.472,0.644-0.82,1.136c-0.347,0.494-0.618,1.011-0.813,1.551c-0.196,0.541-0.313,0.89-0.353,1.045
		c-0.039,0.155-0.144,0.369-0.312,0.647c-0.168,0.278-0.328,0.382-0.477,0.314c-0.152-0.067-0.262-0.192-0.329-0.369
		c-0.068-0.178-0.073-0.496-0.017-0.951c0.056-0.455,0.101-0.894,0.137-1.312c0.036-0.419,0.064-0.874,0.084-1.369
		c0.02-0.492-0.073-0.755-0.281-0.785s-0.553,0.32-1.036,1.053c-0.483,0.733-0.788,1.303-0.916,1.709
		c-0.129,0.406-0.23,0.696-0.305,0.868c-0.076,0.172-0.155,0.307-0.239,0.406c-0.084,0.099-0.251,0.086-0.503-0.037
		c-0.251-0.123-0.392-0.283-0.424-0.48c-0.032-0.197,0.028-0.597,0.18-1.201c0.152-0.603,0.351-1.534,0.599-2.791
		c0.247-1.255,0.419-2.05,0.515-2.383s-0.569,0.271-1.993,1.811s-1.823,1.915-1.196,1.128c0.626-0.788,1.243-1.512,1.849-2.17
		C50.511,12.441,50.966,11.792,51.269,11.149z"/>
	<path d="M63.318,10.707c0.534-0.062,0.859,0.077,0.975,0.415c0.116,0.34,0.169,0.77,0.162,1.293
		c-0.008,0.524-0.168,0.967-0.477,1.33c-0.312,0.364-0.722,0.725-1.232,1.082c-0.144,0.086-0.273,0.132-0.388,0.139
		c-0.116,0.007-0.211,0-0.287-0.017c-0.076-0.02-0.135-0.037-0.18-0.056c-0.045-0.017-0.07-0.009-0.078,0.029
		c-0.144,0.357-0.218,0.714-0.221,1.071c-0.003,0.357,0.072,0.687,0.228,0.988c0.155,0.303,0.329,0.476,0.52,0.525
		c0.191,0.049,0.39,0.04,0.599-0.029c0.207-0.067,0.59-0.28,1.148-0.637c0.558-0.357,0.946-0.693,1.168-1.006
		c0.219-0.314,0.43-0.619,0.628-0.914c0.2-0.296,0.228-0.296,0.084,0c-0.144,0.296-0.321,0.653-0.533,1.071
		s-0.474,0.835-0.789,1.247c-0.315,0.413-0.572,0.73-0.772,0.951s-0.466,0.422-0.796,0.601c-0.331,0.179-0.656,0.234-0.975,0.165
		c-0.319-0.067-0.558-0.181-0.718-0.341c-0.16-0.159-0.307-0.352-0.443-0.574s-0.247-0.484-0.335-0.785
		c-0.087-0.301-0.134-0.714-0.137-1.238c-0.003-0.524,0.076-1.093,0.239-1.709c0.164-0.616,0.349-1.128,0.556-1.534
		s0.488-0.816,0.844-1.229C62.458,11.136,62.862,10.855,63.318,10.707z M63.329,12.37c-0.056-0.086-0.194-0.042-0.413,0.128
		c-0.219,0.172-0.379,0.366-0.48,0.582c-0.1,0.217-0.118,0.373-0.053,0.471c0.064,0.099,0.2,0.059,0.407-0.119
		c0.207-0.179,0.373-0.357,0.497-0.537C63.411,12.719,63.425,12.542,63.329,12.37z"/>
	<path d="M66.344,13.311c0.287-1.71,0.565-2.55,0.832-2.512s0.469,0.221,0.604,0.554c0.135,0.333,0.121,0.742-0.041,1.229
		c-0.164,0.488-0.18,0.714-0.048,0.684c0.132-0.03,0.305-0.153,0.52-0.369c0.216-0.215,0.421-0.387,0.617-0.517
		c0.196-0.128,0.353-0.212,0.472-0.25c0.12-0.037,0.349,0.024,0.688,0.185c0.339,0.159,0.66,0.385,0.963,0.673
		c0.303,0.29,0.704,0.313,1.202,0.073c0.499-0.241,0.444-0.159-0.162,0.239c-0.606,0.4-1.226,0.59-1.861,0.564
		c-0.634-0.024-1.125,0.092-1.472,0.35s-0.64,0.545-0.879,0.858c-0.239,0.314-0.46,0.832-0.664,1.551
		c-0.204,0.72-0.359,1.327-0.467,1.821c-0.108,0.493-0.203,0.895-0.287,1.21c-0.084,0.314-0.255,0.48-0.515,0.499
		c-0.259,0.017-0.431-0.126-0.515-0.435c-0.084-0.307-0.104-0.508-0.06-0.6c0.045-0.093,0.164-0.656,0.359-1.69
		C65.828,16.398,66.065,15.023,66.344,13.311z"/>
	<path d="M73.427,10.948c0.318-0.247,0.638-0.406,0.957-0.48c0.318-0.073,0.513,0.017,0.581,0.276
		c0.068,0.258,0.036,0.512-0.096,0.758c-0.132,0.247-0.312,0.385-0.539,0.415c-0.228,0.03-0.472,0.283-0.736,0.758
		c-0.264,0.475-0.415,1.034-0.455,1.681s-0.031,1.093,0.031,1.34c0.06,0.247,0.126,0.726,0.198,1.44
		c0.071,0.714,0.023,1.327-0.144,1.838c-0.168,0.512-0.348,0.883-0.539,1.118c-0.191,0.234-0.43,0.406-0.712,0.517
		c-0.282,0.111-0.524,0.165-0.724,0.165s-0.413-0.073-0.64-0.221c-0.228-0.148-0.367-0.452-0.419-0.914
		c-0.052-0.462,0.367-1.319,1.256-2.567c0.89-1.25,0.959-1.287,0.21-0.111c-0.75,1.176-1.043,1.907-0.879,2.189
		c0.164,0.283,0.359,0.357,0.587,0.221c0.228-0.135,0.407-0.317,0.539-0.545c0.132-0.228,0.23-0.505,0.292-0.832
		c0.064-0.327,0.092-0.627,0.084-0.905c-0.008-0.278-0.07-0.894-0.185-1.848c-0.116-0.954-0.116-1.673,0-2.152
		s0.287-0.895,0.515-1.247C72.835,11.492,73.109,11.194,73.427,10.948z"/>
</g>
<path id="fr10" style="fill:#DAC3BA;" d="M0.818,12.745c0-3.408,3.618-6.171,8.081-6.171c4.464,0,8.081,2.763,8.081,6.171
	c0,3.409-3.618,6.172-8.081,6.172S0.818,16.154,0.818,12.745"/>
</svg>
