<?xml version="1.0" encoding="iso-8859-1"?>
<!-- Generator: Adobe Illustrator 19.2.1, SVG Export Plug-In . SVG Version: 6.00 Build 0)  -->
<svg version="1.1" id="Layer_1" xmlns="http://www.w3.org/2000/svg" xmlns:xlink="http://www.w3.org/1999/xlink" x="0px" y="0px"
	 viewBox="0 0 80 30" style="enable-background:new 0 0 80 30;" xml:space="preserve">
<g>
	<path d="M21.745,2.371c0.174-0.157,0.372-0.168,0.599-0.039c0.226,0.13,0.39,0.325,0.495,0.586c0.104,0.261,0.13,0.489,0.078,0.685
		c-0.052,0.196-0.113,0.451-0.183,0.762c-0.07,0.313-0.113,0.586-0.13,0.82c-0.017,0.234,0,0.39,0.052,0.469
		c0.052,0.077,0.469,0.404,1.248,0.977c0.779,0.572,1.31,1.094,1.587,1.564c0.277,0.469,0.469,0.834,0.573,1.094
		c0.104,0.261,0.189,0.572,0.26,0.939c0.07,0.364,0.113,0.716,0.13,1.055c0.017,0.339,0,0.768-0.052,1.289
		c-0.052,0.523-0.329,1.172-0.833,1.955c-0.503,0.782-0.936,1.342-1.3,1.682c-0.364,0.339-0.753,0.625-1.171,0.859
		c-0.416,0.234-0.962,0.495-1.639,0.782c-0.676,0.287-1.153,0.443-1.431,0.469c-0.277,0.025-0.573,0.052-0.884,0.077
		c-0.312,0.025-0.512,0.196-0.599,0.508c-0.088,0.313-0.225,0.758-0.416,1.328c-0.191,0.572-0.36,1.244-0.508,2.014
		c-0.147,0.768-0.298,1.289-0.449,1.564c-0.152,0.273-0.339,0.401-0.56,0.381c-0.222-0.021-0.366-0.117-0.436-0.294
		c-0.07-0.175,0.104-1.275,0.519-3.293c0.416-2.021,0.867-3.891,1.352-5.61c0.486-1.722,0.753-2.762,0.806-3.128
		c0.052-0.364,0.104-0.586,0.157-0.663c0.052-0.077,0.149-0.616,0.292-1.614s0.065-1.492-0.235-1.485
		c-0.299,0.007-0.275-0.316,0.073-0.967c0.346-0.652,0.669-1.185,0.962-1.602c0.294-0.416,0.503-0.768,0.625-1.055
		c0.121-0.287,0.225-0.528,0.312-0.724c0.087-0.196,0.183-0.437,0.287-0.724C21.433,2.75,21.572,2.527,21.745,2.371z M22.29,8.587
		c-0.191-0.052-0.416,0.091-0.676,0.43c-0.26,0.339-0.537,1.003-0.833,1.995c-0.295,0.991-0.58,1.935-0.858,2.835
		c-0.277,0.898-0.476,1.544-0.599,1.935c-0.122,0.39,0.122,0.523,0.728,0.39c0.607-0.13,1.358-0.426,2.258-0.89
		c0.897-0.463,1.538-1.041,1.926-1.74c0.385-0.695,0.587-1.189,0.604-1.476c0.017-0.287,0.009-0.572-0.026-0.859
		s-0.157-0.638-0.364-1.055c-0.208-0.416-0.573-0.768-1.092-1.055C22.837,8.808,22.483,8.639,22.29,8.587z"/>
	<path d="M28.601,13.572c0.58-0.066,0.934,0.081,1.06,0.439c0.126,0.36,0.184,0.815,0.176,1.368
		c-0.009,0.554-0.183,1.023-0.519,1.407c-0.339,0.385-0.785,0.767-1.339,1.145c-0.157,0.091-0.298,0.14-0.423,0.147
		c-0.126,0.007-0.229,0-0.312-0.018c-0.083-0.021-0.147-0.039-0.196-0.059c-0.049-0.018-0.076-0.01-0.085,0.031
		c-0.157,0.378-0.236,0.756-0.24,1.133c-0.003,0.378,0.078,0.727,0.248,1.045c0.168,0.321,0.358,0.504,0.565,0.556
		c0.208,0.052,0.424,0.042,0.651-0.031c0.225-0.071,0.641-0.296,1.248-0.674c0.607-0.378,1.028-0.733,1.266-1.064
		c0.238-0.332,0.467-0.655,0.683-0.967c0.215-0.312,0.248-0.313,0.091,0c-0.157,0.313-0.349,0.691-0.579,1.133
		c-0.232,0.443-0.515,0.884-0.858,1.319c-0.342,0.437-0.622,0.772-0.839,1.006s-0.504,0.447-0.864,0.636
		c-0.36,0.189-0.713,0.248-1.06,0.175c-0.346-0.071-0.607-0.192-0.781-0.361c-0.174-0.168-0.333-0.372-0.482-0.607
		c-0.147-0.234-0.269-0.512-0.364-0.831c-0.095-0.319-0.146-0.756-0.149-1.31c-0.003-0.554,0.083-1.157,0.26-1.808
		c0.178-0.652,0.379-1.194,0.604-1.623c0.225-0.43,0.53-0.863,0.916-1.3C27.665,14.026,28.105,13.729,28.601,13.572z M28.614,15.332
		c-0.061-0.091-0.211-0.044-0.449,0.135c-0.238,0.182-0.412,0.387-0.519,0.616c-0.109,0.23-0.128,0.395-0.058,0.498
		c0.07,0.105,0.217,0.062,0.442-0.126c0.225-0.189,0.405-0.378,0.54-0.568C28.701,15.701,28.716,15.514,28.614,15.332z"/>
	<path d="M31.89,16.327c0.312-1.809,0.614-2.698,0.904-2.658c0.29,0.039,0.51,0.234,0.657,0.586c0.147,0.352,0.132,0.785-0.045,1.3
		c-0.178,0.516-0.196,0.756-0.052,0.724s0.332-0.162,0.565-0.39c0.235-0.227,0.458-0.41,0.671-0.547
		c0.213-0.135,0.384-0.224,0.513-0.265c0.13-0.039,0.379,0.025,0.748,0.196c0.369,0.168,0.717,0.407,1.047,0.712
		c0.329,0.307,0.765,0.331,1.307,0.077c0.542-0.255,0.483-0.168-0.176,0.253c-0.659,0.423-1.333,0.624-2.023,0.597
		c-0.689-0.025-1.223,0.097-1.6,0.37c-0.377,0.273-0.696,0.577-0.956,0.908c-0.26,0.332-0.5,0.88-0.722,1.641
		c-0.222,0.762-0.39,1.404-0.508,1.927s-0.221,0.947-0.312,1.28c-0.091,0.333-0.277,0.508-0.56,0.528
		c-0.282,0.018-0.469-0.133-0.56-0.46c-0.091-0.325-0.113-0.538-0.065-0.635c0.049-0.098,0.178-0.694,0.39-1.788
		C31.328,19.594,31.588,18.139,31.89,16.327z"/>
	<path d="M42.192,4.677c0.407-0.364,0.745-0.469,1.008-0.313c0.263,0.157,0.489,0.372,0.676,0.645
		c0.186,0.273,0.329,0.568,0.43,0.88c0.101,0.312,0.076,0.659-0.073,1.037c-0.147,0.378-0.29,0.477-0.43,0.294
		c-0.14-0.182-0.327-0.352-0.565-0.508C43,6.557,42.782,6.59,42.587,6.812c-0.196,0.221-0.419,0.638-0.67,1.251
		c-0.252,0.612-0.547,1.467-0.884,2.56c-0.339,1.094-0.554,1.89-0.651,2.385c-0.097,0.495,0.078,0.736,0.519,0.724
		c0.442-0.014,0.946-0.014,1.509,0c0.564,0.014,1.66-0.01,3.289-0.069c1.629-0.058,1.786-0.066,0.469-0.018
		c-1.318,0.047-2.358,0.192-3.122,0.439c-0.763,0.248-1.278,0.423-1.548,0.528c-0.27,0.105-0.551,0.23-0.845,0.372
		c-0.295,0.143-0.486,0.287-0.573,0.43c-0.088,0.143-0.191,0.346-0.312,0.607c-0.122,0.261-0.528,1.942-1.223,5.045
		c-0.694,3.101-1.123,5.005-1.288,5.709c-0.165,0.704-0.36,1.207-0.586,1.515c-0.225,0.307-0.5,0.44-0.826,0.401
		c-0.325-0.039-0.573-0.329-0.741-0.869c-0.17-0.542-0.225-0.886-0.17-1.037c0.055-0.15,0.116-0.117,0.183,0.097
		c0.065,0.216,0.161,0.356,0.287,0.42c0.126,0.066,0.252-0.003,0.378-0.205c0.126-0.203,0.644-2.209,1.553-6.021
		c0.91-3.812,1.092-5.541,0.547-5.189c-0.547,0.352-0.797,0.135-0.748-0.645c0.049-0.782,0.297-1.185,0.748-1.212
		c0.451-0.026,0.735-0.108,0.852-0.245c0.116-0.135,0.36-0.902,0.728-2.296c0.369-1.394,0.671-2.44,0.904-3.136
		c0.235-0.698,0.5-1.384,0.8-2.061C41.469,5.603,41.81,5.069,42.192,4.677z"/>
	<path d="M44.115,14.59c0.165-0.234,0.366-0.385,0.604-0.451c0.238-0.066,0.436-0.044,0.591,0.059
		c0.155,0.105,0.288,0.29,0.397,0.556c0.109,0.269,0.379,0.395,0.813,0.381c0.434-0.014,0.973-0.01,1.62,0.01
		c0.646,0.021,0.51,0.049-0.409,0.088c-0.919,0.039-1.441,0.094-1.568,0.167c-0.126,0.071-0.178,0.304-0.157,0.694
		c0.022,0.39,0.039,0.806,0.052,1.24c0.013,0.437,0.015,0.923,0.005,1.457c-0.009,0.534-0.035,0.932-0.078,1.194
		c-0.042,0.261-0.109,0.534-0.196,0.82c-0.087,0.287-0.214,0.59-0.384,0.908c-0.17,0.321-0.378,0.616-0.625,0.89
		c-0.248,0.273-0.475,0.478-0.683,0.616c-0.208,0.135-0.434,0.143-0.676,0.018s-0.439-0.319-0.591-0.586
		c-0.152-0.266-0.274-0.544-0.364-0.831c-0.091-0.287-0.13-0.789-0.117-1.505c0.013-0.716,0.065-1.293,0.157-1.731
		c0.091-0.436,0.233-0.891,0.422-1.368c0.191-0.475,0.248-0.695,0.17-0.663c-0.078,0.034-0.097,0.017-0.058-0.049
		c0.039-0.066,0.188-0.346,0.449-0.841C43.752,15.168,43.96,14.811,44.115,14.59z M44.766,17.658
		c-0.191-0.352-0.43-0.253-0.714,0.294c-0.287,0.547-0.458,1.128-0.513,1.74c-0.057,0.612-0.035,1.044,0.065,1.292
		c0.1,0.248,0.204,0.39,0.312,0.43c0.109,0.039,0.262-0.069,0.461-0.322s0.362-0.806,0.488-1.652
		C44.99,18.59,44.958,17.996,44.766,17.658z"/>
	<path d="M47.797,16.327c0.312-1.809,0.614-2.698,0.904-2.658s0.51,0.234,0.657,0.586c0.147,0.352,0.132,0.785-0.045,1.3
		c-0.176,0.514-0.196,0.756-0.052,0.724s0.33-0.162,0.565-0.39c0.234-0.227,0.458-0.41,0.67-0.547
		c0.213-0.135,0.384-0.224,0.513-0.265c0.13-0.039,0.379,0.025,0.748,0.196c0.369,0.168,0.717,0.407,1.047,0.712
		c0.329,0.307,0.765,0.331,1.307,0.077c0.542-0.255,0.483-0.168-0.175,0.253c-0.659,0.423-1.333,0.624-2.023,0.597
		c-0.689-0.025-1.223,0.097-1.6,0.37c-0.377,0.273-0.696,0.577-0.956,0.908c-0.26,0.332-0.5,0.88-0.723,1.641
		c-0.222,0.762-0.39,1.404-0.508,1.927c-0.117,0.522-0.221,0.947-0.312,1.28c-0.091,0.333-0.277,0.508-0.56,0.528
		c-0.282,0.018-0.469-0.133-0.56-0.46c-0.091-0.325-0.113-0.538-0.065-0.635c0.049-0.098,0.178-0.694,0.39-1.788
		C47.235,19.594,47.494,18.139,47.797,16.327z"/>
	<path d="M54.262,14.04c0.329-0.677,0.599-1.003,0.807-0.977c0.208,0.025,0.342,0.157,0.403,0.39
		c0.061,0.234,0.113,0.452,0.157,0.655c0.042,0.203,0.087,0.495,0.13,0.88c0.042,0.385-0.132,1.131-0.527,2.238
		c-0.395,1.107-0.366,1.249,0.085,0.42c0.451-0.827,0.837-1.342,1.157-1.544c0.321-0.203,0.616-0.203,0.884,0
		c0.269,0.203,0.437,0.447,0.508,0.733c0.07,0.287,0.113,0.612,0.13,0.977c0.017,0.364,0.052,0.572,0.104,0.625
		c0.052,0.052,0.339-0.339,0.858-1.172c0.52-0.834,0.977-1.384,1.372-1.652c0.395-0.266,0.723-0.322,0.983-0.165
		c0.26,0.157,0.488,0.463,0.683,0.918c0.196,0.456,0.449,1.121,0.761,1.994c0.312,0.873,0.635,1.515,0.969,1.927
		c0.333,0.41,0.632,0.655,0.891,0.733c0.26,0.078,0.711-0.132,1.352-0.635c0.641-0.5,0.785-0.596,0.43-0.283
		c-0.357,0.313-0.713,0.584-1.074,0.811c-0.36,0.23-0.614,0.404-0.762,0.528c-0.147,0.125-0.349,0.231-0.604,0.324
		c-0.255,0.091-0.497,0.052-0.722-0.117c-0.225-0.168-0.442-0.387-0.651-0.655c-0.208-0.269-0.469-0.711-0.781-1.328
		c-0.312-0.619-0.535-1.079-0.67-1.379c-0.134-0.299-0.302-0.423-0.5-0.37c-0.2,0.052-0.408,0.217-0.625,0.498
		c-0.217,0.28-0.513,0.681-0.891,1.202c-0.377,0.523-0.672,1.07-0.884,1.641c-0.213,0.572-0.34,0.942-0.384,1.106
		c-0.042,0.164-0.157,0.39-0.339,0.685c-0.183,0.294-0.357,0.404-0.519,0.332c-0.165-0.071-0.285-0.203-0.358-0.39
		c-0.074-0.188-0.079-0.525-0.018-1.006c0.061-0.481,0.11-0.946,0.149-1.388c0.039-0.443,0.07-0.925,0.091-1.449
		c0.022-0.521-0.079-0.799-0.305-0.831c-0.226-0.032-0.601,0.339-1.126,1.114c-0.525,0.776-0.857,1.379-0.996,1.808
		c-0.14,0.43-0.25,0.736-0.332,0.918c-0.083,0.182-0.168,0.325-0.26,0.43c-0.091,0.105-0.273,0.091-0.547-0.039
		c-0.273-0.13-0.426-0.299-0.461-0.508c-0.035-0.208,0.03-0.632,0.196-1.271c0.165-0.638,0.382-1.623,0.651-2.953
		c0.269-1.328,0.455-2.169,0.56-2.522c0.104-0.352-0.619,0.287-2.166,1.916c-1.548,1.63-1.982,2.026-1.3,1.194
		c0.68-0.834,1.351-1.6,2.01-2.296C53.438,15.407,53.932,14.72,54.262,14.04z"/>
	<path d="M67.36,13.572c0.58-0.066,0.934,0.081,1.06,0.439c0.126,0.36,0.184,0.815,0.176,1.368
		c-0.009,0.554-0.183,1.023-0.519,1.407c-0.339,0.385-0.785,0.767-1.339,1.145c-0.157,0.091-0.297,0.14-0.422,0.147
		c-0.126,0.007-0.229,0-0.312-0.018c-0.083-0.021-0.147-0.039-0.196-0.059c-0.049-0.018-0.076-0.01-0.085,0.031
		c-0.157,0.378-0.237,0.756-0.24,1.133c-0.003,0.378,0.078,0.727,0.248,1.045c0.168,0.321,0.358,0.504,0.565,0.556
		c0.208,0.052,0.424,0.042,0.651-0.031c0.225-0.071,0.641-0.296,1.248-0.674s1.028-0.733,1.27-1.064
		c0.238-0.332,0.467-0.655,0.683-0.967c0.217-0.313,0.248-0.313,0.091,0c-0.157,0.313-0.349,0.691-0.579,1.133
		c-0.23,0.442-0.515,0.884-0.858,1.319c-0.342,0.437-0.622,0.772-0.839,1.006c-0.217,0.234-0.507,0.447-0.865,0.636
		c-0.36,0.189-0.713,0.248-1.06,0.175c-0.347-0.071-0.607-0.192-0.781-0.361c-0.174-0.168-0.334-0.372-0.482-0.607
		c-0.148-0.235-0.269-0.512-0.364-0.831c-0.095-0.319-0.146-0.756-0.149-1.31c-0.003-0.554,0.083-1.157,0.26-1.808
		c0.178-0.652,0.379-1.194,0.604-1.623c0.225-0.43,0.53-0.863,0.917-1.3C66.425,14.026,66.864,13.729,67.36,13.572z M67.372,15.332
		c-0.061-0.091-0.211-0.044-0.449,0.135c-0.238,0.182-0.412,0.387-0.522,0.616c-0.109,0.23-0.128,0.395-0.058,0.498
		c0.07,0.105,0.217,0.062,0.442-0.126c0.225-0.189,0.405-0.378,0.54-0.568C67.461,15.701,67.476,15.514,67.372,15.332z"/>
	<path d="M70.649,16.327c0.312-1.809,0.614-2.698,0.904-2.658c0.29,0.04,0.51,0.234,0.657,0.586c0.147,0.352,0.132,0.785-0.045,1.3
		c-0.178,0.516-0.196,0.756-0.052,0.724c0.143-0.032,0.332-0.162,0.565-0.39c0.235-0.227,0.458-0.41,0.671-0.547
		c0.213-0.135,0.384-0.224,0.513-0.265c0.13-0.039,0.379,0.025,0.748,0.196c0.369,0.168,0.717,0.407,1.047,0.712
		c0.329,0.307,0.765,0.331,1.307,0.077c0.542-0.255,0.483-0.168-0.176,0.253c-0.659,0.423-1.333,0.624-2.023,0.597
		c-0.689-0.025-1.223,0.097-1.6,0.37s-0.696,0.577-0.956,0.908c-0.26,0.332-0.5,0.88-0.722,1.641
		c-0.222,0.762-0.39,1.404-0.508,1.927c-0.117,0.522-0.221,0.947-0.312,1.28c-0.091,0.332-0.277,0.508-0.56,0.528
		c-0.282,0.018-0.469-0.133-0.56-0.46c-0.091-0.325-0.113-0.538-0.065-0.635c0.049-0.098,0.178-0.694,0.39-1.788
		C70.088,19.594,70.346,18.139,70.649,16.327z"/>
	<path d="M78.349,13.827c0.346-0.261,0.694-0.43,1.04-0.508c0.346-0.077,0.558,0.018,0.632,0.292
		c0.074,0.273,0.039,0.542-0.104,0.802c-0.143,0.261-0.339,0.407-0.586,0.439c-0.248,0.032-0.513,0.299-0.8,0.802
		c-0.287,0.503-0.451,1.094-0.495,1.779c-0.043,0.685-0.034,1.157,0.034,1.418c0.065,0.261,0.137,0.768,0.215,1.524
		c0.077,0.756,0.025,1.404-0.157,1.945c-0.183,0.542-0.378,0.934-0.586,1.183c-0.208,0.248-0.467,0.43-0.774,0.547
		c-0.307,0.117-0.57,0.175-0.787,0.175s-0.449-0.077-0.696-0.234c-0.248-0.157-0.399-0.478-0.455-0.967s0.399-1.396,1.365-2.716
		c0.967-1.323,1.042-1.362,0.228-0.117c-0.815,1.244-1.134,2.018-0.956,2.316c0.178,0.299,0.39,0.378,0.638,0.234
		c0.248-0.143,0.442-0.335,0.586-0.577c0.143-0.241,0.25-0.534,0.317-0.88c0.07-0.346,0.1-0.663,0.091-0.958
		c-0.009-0.294-0.076-0.946-0.201-1.955c-0.126-1.009-0.126-1.77,0-2.277c0.126-0.507,0.312-0.947,0.56-1.319
		C77.705,14.403,78.003,14.087,78.349,13.827z"/>
</g>
<path id="fr10" style="fill:#DAC3BA;" d="M0,15.47c0-4.487,3.618-8.125,8.081-8.125c4.464,0,8.081,3.638,8.081,8.125
	c0,4.488-3.618,8.126-8.081,8.126S0,19.958,0,15.47"/>
</svg>
