<?xml version="1.0" encoding="utf-8"?>
<!-- Generator: Adobe Illustrator 19.2.1, SVG Export Plug-In . SVG Version: 6.00 Build 0)  -->
<svg version="1.1" id="Layer_1" xmlns="http://www.w3.org/2000/svg" xmlns:xlink="http://www.w3.org/1999/xlink" x="0px" y="0px"
	 viewBox="0 0 584.1 144" style="enable-background:new 0 0 584.1 144;" xml:space="preserve">
<style type="text/css">
	.st0{fill:#5D2D7A;}
</style>
<g id="XMLID_177_">
	<path id="XMLID_178_" class="st0" d="M300.9,98.3c0,0.4,0.3,1.2,0.9,2.4c0.3,0.6,0.6,1.2,0.8,1.6s0.4,0.7,0.4,0.9
		c1.1,2.6,2.3,5,3.7,7.1c1.5,2,2.2,4.7,2.4,7.9c0,0.8-0.1,1.6-0.4,2.2s-0.6,1.3-0.9,2.1l-0.4,1.2c-0.3,1.1-0.6,1.9-0.9,2.2
		c-0.6,0.6-0.8,0.7-0.7,0.4c0.2-0.4,0-0.3-0.7,0.2s-0.9,0.6-0.7,0.5c0.2-0.1,0.2,0.1-0.1,0.4c-0.6,0.7-0.7,1-0.5,0.9
		c0.1,0,0,0-0.3,0.1s-0.8,0.1-1.4,0.2c-0.5,0-0.9,0-1.3,0c-0.4-0.1-0.6-0.1-0.8,0l-0.9,0.2c0.4-0.1,0.1,0.3-0.9,1l-3.2-0.9
		c-0.5-0.2-0.8-0.3-1-0.4s-0.3-0.1-0.2-0.1c0.1,0-0.3,0.2-1.4,0.5c-0.3-0.5-0.4-0.8-0.4-0.9c0,0-0.2-0.3-0.6-0.7l-1.5-0.8
		c-1.2-0.4-1.7-1-1.4-1.7s-0.1-1.5-1.1-2.4l-1.4-0.8c-1.1-0.7-1.9-1.8-2.4-3.1c-0.5-1.3-1.1-2.4-1.7-3.5c-0.9-1.6-1.8-3.3-2.6-5.2
		c-0.8-1.9-1.6-3.7-2.5-5.3h-16.5c-1.5,0-2.9,0-4.2-0.1c-1.3-0.1-2.5-0.2-3.6-0.4c-1.1-0.2-2.3-0.3-3.5-0.4s-2.5-0.1-3.9-0.1
		c-0.7,1.1-1.3,2.2-1.7,3.3c-0.5,1.1-1,2.2-1.6,3.3c-2.4,4.4-2.9,7-1.5,7.9c1.4,0.8,2.1,2.4,2.1,4.7c0,0.5-0.4,0.8-1.1,0.9
		c-0.7,0.1-1.2,0.2-1.7,0.4c-0.9,0.3-1.4,0.5-1.5,0.5c0,0,0,0.5,0.2,1.3c-2.4,0-3.9-0.2-4.4-0.7c-0.2-0.2-0.6-0.5-1-0.9
		s-1-1-1.6-1.6c-1.3-1.3-2.1-2.2-2.3-2.8c-0.2-0.6-0.3-1.6-0.2-3.2c0.3-5.6,0.8-9.4,1.5-11.3s1.2-3.6,1.3-5.3
		c-0.4-0.2-0.8-0.3-1.2-0.4s-0.7-0.3-1.1-0.4c-3.7-1.7-4.8-3.3-3.4-5c1.5-1.7,4.4-2.6,8.7-2.6c0.8-1.2,1.3-2.3,1.6-3.2
		c0.2-0.5,0.3-1.1,0.6-1.7c0.2-0.6,0.5-1.2,0.8-1.9L256,42.6c0.4-1.5,0.5-2.9,0.3-4.4s-0.1-3.1,0.4-4.7l0.6-2.5
		c0.1-0.2,0.6,0,1.5,0.6c0-1.5,0.9-3.1,2.7-4.8c0.6-0.6,1-1.3,1.2-1.9c0.9,0.7,1.2,1,0.9,0.9c-0.2,0-0.2,0,0,0.1s0.5,0.2,0.9,0.4
		c-0.4-1.1-0.5-1.5-0.3-1.2c0.2,0.2,0.6,0.2,1.1,0s0.7-0.1,0.8,0.4c0.1,0.4,0.1-0.3,0.2-1.8c1.2,0.1,1.7,0.2,1.3,0.3
		c-0.3,0.1-0.2,0.1,0.4,0.2c0.9,0.2,1.7,0.1,2.3-0.3c0.6-0.4,1.9,0.3,3.7,2l1.8,1.8c0.2,0.4,0.4,0.6,0.4,0.8c0,0.2,0.1,0.3,0.2,0.4
		c0.2,0.4,0.4,0.8,0.7,1.3c0.3,0.5,0.7,1.1,1.1,1.7c0.9,1.3,1.5,3.3,1.7,6c0.3,5.3,0.6,8.5,0.9,9.6c0.3,1,0.9,3.9,1.8,8.7l1.2,4.1
		c0.1,0.4,0.1,0.6,0.2,0.8s0.1,0.4,0.2,0.6c1.2,4.8,2.9,9.2,5,13.2l3.5,7.1c0.8,1.6,1.2,2.4,1,2.6c-0.2,0.1,0.6,0.7,2.2,1.8l1.3,0.9
		l0.5,0.9c0.6,1.1,1.1,1.6,1.8,1.5c0.7-0.1,1.1,0.6,1.4,2l0.1,0.6c0.1,0.7,0.3,1.3,0.5,1.8c0.2,0.4,0.2,1.2-0.1,2.3l-0.3,1
		c-0.2,0.7-0.4,0.8-0.4,0.4v0.5C300.7,98.3,300.9,98.3,300.9,98.3z M253.3,91.2l0.5-0.2l6.7-0.5c1.5,0,2.8-0.2,3.7-0.4
		c0.5-0.1,1.2-0.1,2-0.2s1.9-0.1,3.1-0.1c0-0.5,0-1-0.1-1.3c-0.1-0.4-0.2-0.7-0.4-1c-0.1-0.3-0.3-0.6-0.5-0.9s-0.3-0.7-0.5-1.1
		l-4.3-12.1c-1,0.3-1.5,0.5-1.4,0.6c0.2,0.1,0,0.6-0.5,1.6l-4.8,8c0,0.1,0,0.2-0.1,0.2l-3.8,6.7l-0.1,0.1l-0.1,0.1
		c0,0,0,0.1-0.1,0.1L253.3,91.2z M299.5,126.8L299.5,126.8L299.5,126.8l0.1,0.1L299.5,126.8z M299.9,90.8
		C299.9,90.8,300,90.8,299.9,90.8c0.1,0.1,0.1,0.1,0.2,0.1L299.9,90.8z M305.3,127.2c0,0,0,0,0.1-0.1l0.1-0.1L305.3,127.2z"/>
	<path id="XMLID_184_" class="st0" d="M305.5,37.9c0.7,0.3,1.1,0.4,1,0.4s0-0.2,0.4-0.4c-1.4-1-1.5-1.9-0.2-2.8s2-1.9,2.3-2.9
		c0.2-0.6,0-0.9-0.4-0.8c-0.2,0-0.1-0.1,0.3-0.3c0.4-0.3,1.2-0.6,2.4-1.2L313,29c0.9-0.4,1.3-0.5,1.2-0.3c-0.1,0.1,0.5-0.4,1.7-1.5
		l0.9,0.4l-0.8-0.3c-0.6-0.2-0.8-0.3-0.6-0.2c0.1,0.1,0.6,0.4,1.4,0.8c0.5,0.3,0.6,0.4,0.2,0.4c-0.3,0-0.1-0.1,0.4-0.2
		c0.7,0,0.9-0.1,0.6-0.2c-0.3-0.2,0.2-0.2,1.4-0.2c0.5,0,0.8,0,0.9,0s0.1,0-0.1,0.1c-0.4,0-0.3,0.2,0.4,0.5l2.7,1.8
		c2,1.8,2.7,2.8,2.2,3s0.2,0.4,2,0.4l-0.4,0.8c-0.1,0.4-0.2,0.4-0.4,0.2c-0.1-0.1,0-0.1,0.1,0.1c0.2,0.1,0.5,0.4,1,0.8
		c0,0,0.1,0.1,0.2,0.2c0.2,0.1,0.3,0.2,0.4,0.2c-0.4,1.3-0.6,1.8-0.7,1.5c-0.1-0.2-0.1-0.2,0,0s0.3,0.6,0.6,1.1
		c0.4,0.9,0.6,2.6,0.6,5.1c0,2.4,0.1,3.9,0.2,4.5c0,0.7,0,1.4,0,2.3s-0.1,1.9-0.2,2.9s-0.2,2.1-0.4,3.2c-0.2,1.1-0.4,2.2-0.6,3.3
		c2.2,0,3.1-0.3,2.9-0.7s1.9-0.6,6.4-0.6c1.4,0,2.7,0.1,3.9,0.2c1.2,0.1,2.3,0.2,3.3,0.4c2,0.3,4.4,1,7.3,2.2l4.7,3.3
		c2.2,2,4,4.7,5.4,8l0.1,0.4c0.8,2,1.3,3.8,1.5,5.3c0.2,1.6,0.5,3,0.8,4.3c1.7,6.2,2,11.7,1.1,16.5c-0.9,4.9-2.5,10-4.6,15.4
		s-5.4,9.4-9.9,12c-0.9,0.5-1.7,0.9-2.4,1.2c-0.7,0.3-1.2,0.5-1.7,0.6c-0.9,0.2-2.2,0.5-3.9,0.9c-5.6,1.1-10.9,0.1-16-3.1l-5.5-4.2
		c0,0-0.1-0.1-0.3-0.2c-0.4,0.9-0.4,1.2-0.2,1c0.2-0.3,0.2,0.2-0.1,1.4c-0.2,1-0.4,1.4-0.5,1.4c-0.1-0.1-0.3,0.3-0.5,1.1
		c-2.1,0-3.7-0.5-4.7-1.4l-0.2-0.2c-2.4-2.5-4-7.2-4.8-14.2c-0.4-3.5-0.7-6.6-1-9.3c-0.3-2.6-0.5-4.9-0.6-6.8l0.9-44.4
		c0-0.2-0.1-1-0.4-2.7c-0.3-1.6-0.5-2.3-0.6-2.2c-0.2,0.1-0.5-0.4-0.9-1.6c-0.2-0.5-0.3-1-0.4-1.5s-0.1-0.9-0.2-1.4
		s-0.2-0.9-0.4-1.4C306.1,38.9,305.9,38.4,305.5,37.9z M307.7,33c0,0-0.1,0.2-0.3,0.5C307.2,33.9,307.3,33.6,307.7,33
		c0-0.3,0.1-0.4,0.2-0.5c0.1-0.1,0.2-0.1,0.3-0.1s0.1,0,0,0.1S308,32.8,307.7,33z M324.1,100.2c0,0.8-0.2,1.6-0.4,2.5
		c-0.2,0.8-0.3,1.6-0.3,2.2c0.1,1.1,1.3,2.6,3.6,4.3c1.2,0.9,2.3,1.6,3.4,2.2c1,0.6,2,1,2.9,1.3c4.5,1.5,7.8,1.3,9.9-0.5
		c2.2-1.9,3.6-4.4,4.1-7.6c0.6-3.3,0.6-6.8-0.1-10.5c-0.7-3.8-1.5-6.9-2.5-9.3c-0.8-1.5-1.8-2.5-3-2.8c-4.1-1.1-7.5-0.6-10.1,1.5
		c-2.6,2-4.9,2.8-7,2.3L324.1,100.2z"/>
	<path id="XMLID_188_" class="st0" d="M398.6,126.6c-1.3,0-2-0.1-2.2-0.2c-0.1-0.1-1.3-0.2-3.6-0.3c-1.5,0-3.2-0.5-5-1.6
		c-3.7-2-6.8-4-9.3-6.2c-2.4-2.1-4.5-5.3-6.3-9.4c-2.2-5.1-3.5-11.1-4-18.1c-0.5-7.1,0.4-13.3,2.7-18.6c0.6-1.3,1.1-2.5,1.5-3.6
		c0.5-1.1,0.9-2.2,1.2-3.1c0.4-0.9,0.9-2,1.6-3.1s1.4-2.3,2.4-3.6l2-2.1l0.2-0.2l5.3-4c2.5-1.7,6.3-2.7,11.2-2.9
		c4.9-0.2,8.7,0.2,11.3,1.1c3.4,1.3,5,2,4.8,2.1s0.4,0.5,1.9,1.2c0.3,0.2,0.5,0.3,0.5,0.3c0.1,0,0,0-0.1-0.1c-0.2-0.1,0-0.1,0.5,0.1
		c0.2,0.2,0.5,0.4,0.6,0.4l2.9,2.9c0.4,0.4,0.8,0.8,1.1,1.2s0.5,0.6,0.7,0.9c0.5,0.6,1,1.4,1.5,2.5l4.9,8.9c2.1,3.3,3.3,6.5,3.6,9.4
		c0.2,1.5,0.3,3,0.4,4.5s0.3,3.2,0.4,4.8l-0.7,10.3c-0.4,2.2-1.3,4.8-2.9,7.7c-1.6,3.1-3.2,5.6-4.8,7.5c-1.7,1.9-4.4,3.9-8,5.8
		c-1.8,1-3.5,1.8-5,2.4s-2.8,1.1-4,1.4c-1.8,0.4-3,0.7-3.4,1C402.4,126.5,401,126.6,398.6,126.6z M398,110.9
		c0.3-0.6,0.8-1.3,1.7-2.2l6.5-10.9l0.8-1.5c0.2-0.3,0.3-0.9,0.4-1.8c0.1-1.4,0.2-2.6,0.2-3.7s0-2.1-0.1-3c-0.2-1.8-0.9-3.6-2.1-5.4
		c-0.6-0.8-1.1-1.7-1.5-2.5s-0.9-1.8-1.2-2.7c-0.6-1.8-1.4-2.9-2.2-3.2l-2.5-0.2h-0.4c-0.8,0-1.7-0.1-2.7-0.1s-1.7,0.1-2.3,0.4
		c-0.5,0.3-1.6,1.6-3.3,3.9c-1.7,2.3-2.7,3.9-3.1,4.8c-0.4,1-0.8,2.3-1.1,3.7c-0.3,1.5-0.6,3.2-0.8,5.2c-0.4,3.9-0.2,7,0.5,9.5
		l3.4,11.6l3.5-0.8c0.3-0.1,0.4,0,0.4,0.2s0.1,0.4,0.5,0.6s1.8,0.3,4.1,0.4L398,110.9z"/>
	<path id="XMLID_191_" class="st0" d="M442.4,41.1c0.5-0.1,0.9-0.1,1.4-0.2s0.7-0.1,0.8-0.1c0.7-0.2,1-0.5,0.9-0.6
		c-0.1-0.2,0.2-0.4,0.9-0.4c1.2,0,2.2,0.1,3,0.4s1.6,0.5,2.4,0.8c1.9,0.7,3.2,1.4,3.8,2.3c0.3,0.4,0.7,0.9,1.1,1.5s0.9,1.2,1.4,1.9
		c1.3,1.9,2,3.9,2,6l-3.2,22.2c-0.4,1.3-0.7,2.4-0.9,3.5s-0.4,2-0.5,2.9c-0.1,0.8-0.1,1.8-0.2,2.9s-0.1,2.3-0.2,3.7
		c0,0.4-0.1,0.8-0.1,1s0,0.3,0,0.4c0,1.9,0,3.9-0.2,6s-0.2,4,0.1,5.9l0.2,1.1c0.2,1.2,0.4,2.3,0.8,3.4s0.9,2,1.6,2.9
		c0.7,0.8,1.5,1.6,2.4,2.1c0.9,0.6,2.1,1,3.4,1.2c2.1,0.4,3.5,0.4,4.1-0.2c0.8-0.7,1.5-1.4,2.2-2.3s1.3-1.7,1.9-2.5
		c0.4-0.6,0.6-1,0.9-1.3c0.2-0.3,0.4-0.6,0.5-0.7c0.2-0.3,0.3-1.1,0.1-2.5c-0.2-1.7-0.4-3.5-0.5-5.6s-0.2-4.4-0.3-7
		c-0.1-3-0.3-6-0.8-9.2c-0.4-3.2-0.8-6.3-1.1-9.4L469.9,60c0.2-3.4,0.9-5.4,1.9-6.1c1.1-0.7,2-1.7,3-2.9c0.7-1.1,1.3-1.8,1.8-1.9
		l2.2,0.2v-1.4c1.1,0,1.8,0.3,2.2,0.8c0.4,0.4,1.1,0.7,2.1,0.8c1,0.2,1.8,0.1,2.2-0.3c0.4-0.4,1.2-0.2,2.3,0.6l4,4.5
		c0.8,1.1,1.1,2,0.7,2.8c-0.3,0.7,0.2,2,1.4,3.6c0.7,1.1,1,1.5,0.7,1.2c-0.3-0.2-0.4,0.3-0.4,1.5l0.2,5.3l-5.9,36.6
		c-0.3,1.4-0.5,2.8-0.7,4.3c-0.1,1.4-0.3,2.9-0.5,4.3c-0.4,2.3-0.9,4.3-1.6,5.9c-0.6,1.6-1.1,3.5-1.6,5.6c-0.2,1.1-0.5,1.7-0.6,1.9
		c-0.2,0.2-0.4,0.9-0.4,1.9c-1.2,0.1-1.7,0.1-1.4,0c0.3-0.1,0.3,0.2,0.1,0.9c-1.7-0.2-2.8-1.2-3.2-3c-0.2-0.9-0.4-1.7-0.6-2.5
		c-0.2-0.7-0.4-1.5-0.6-2.1s-0.4-1.1-0.5-1.5s-0.3-0.9-0.4-1.6c-1,0.3-3.3,2-6.9,5.1c-3.4,3.1-8.7,3.3-15.7,0.6
		c-0.9-0.4-1.8-0.8-2.8-1.3s-1.9-1.1-2.9-1.8c-0.9-0.6-1.8-1.3-2.7-2c-0.8-0.7-1.6-1.4-2.2-2.1l-3-3.7c-2.5-3.2-4.2-6.9-5.3-11.2
		c-0.5-2.2-0.9-4.3-1.2-6.4c-0.3-2.1-0.5-4.3-0.6-6.4c0-1.3-0.1-2.5-0.1-3.6s-0.1-2.1-0.1-3c-0.1-0.9-0.1-2,0-3.2s0.2-2.5,0.3-3.9
		c0.2-1.3,0.3-2.4,0.5-3.2c0.2-0.9,0.3-2.1,0.3-3.5c0-1.5,0.2-2.6,0.4-3.5c0.1-0.4,0.2-0.9,0.3-1.5s0.2-1.2,0.3-2l0.7-8.3
		c0.1-0.6,0.2-1.2,0.2-1.9c0.1-0.7,0.2-1.4,0.4-2.2c0.3-1.5,0.9-2.8,1.9-3.8l1.4-1.3c1.5-1.8,3.2-2.8,5.1-3L442.4,41.1z M484.2,47.8
		v1.4h-0.9v-1.4H484.2z M489.2,52.9c0-0.2,0-0.3-0.1-0.2L489.2,52.9z M492.6,61.2c0,0.7,0,0.9,0.1,0.5c0-0.1,0.1-0.1,0.1-0.2
		s0-0.1,0.1-0.1c0,0,0-0.1,0.1-0.1c0.2,0,0.2-0.1,0-0.4C492.7,60.4,492.6,60.6,492.6,61.2z"/>
	<path id="XMLID_199_" class="st0" d="M516.8,35.2c0-0.9-0.1-1.2-0.2-0.8c-0.1,0.3-0.2-0.1-0.2-1.3l-0.1-5.4
		c-0.1-1.3-0.1-2.4-0.2-3.3c0-0.9-0.1-1.6-0.1-2.1c0.1-1.1,0.9-2.4,2.4-4l3.3-3.8c0.3-0.4,0.8-0.8,1.4-1.1c0.5-0.2,0.8-0.3,0.9-0.3
		s0,0.1-0.3,0.2c-0.3,0.2-0.4,0.2-0.2,0.2c0.1,0,0.5-0.1,1-0.3c0.3-0.1,0.5-0.1,0.6-0.2c0.1,0,0,0-0.1,0.1c-0.3,0.1-0.2,0,0.3-0.3
		c0.4-0.3,0.4-0.4,0.2-0.2c-0.2,0,0-0.1,0.5-0.4c0.3-0.2,0.5-0.3,0.6-0.4s0.1-0.1,0.1-0.1s0.3,0,1.1-0.1l0.9,1.4
		c0.2-0.4,0.5-0.7,0.9-0.9c0.2-0.2,0.6-0.2,1.1-0.1c1.4,0.3,2.3,0.8,2.8,1.5c0.5,0.8,0.8,1.2,0.9,1.2c0.2,0.2,0.5,0.3,0.9,0.4
		s0.9,0.6,1.4,1.4l2.1,2.9c0.2,0.4,0.4,0.8,0.5,1.2c0.1,0.3,0.1,0.7,0.2,1c0.1,0.3,0.1,0.7,0.2,1.1c0.1,0.4,0.2,0.8,0.4,1.3
		c0.6,1.6,0.7,3.5,0.5,5.6c-0.1,1-0.1,2.1-0.1,3.1c0,1,0,2.1,0,3.1c0,0.7-0.1,1.6-0.3,2.6s-0.3,2-0.4,3.1c-0.1,0.6-0.1,1.1-0.2,1.5
		s-0.1,0.9-0.1,1.4s-0.1,1-0.1,1.5s0,1.2,0,1.9l6.4-0.7c2.3,0,4.5,0.5,6.5,1.6c0.1,0,0.2,0.1,0.3,0.2c0.8,0.6,1.5,1.2,2.1,1.9
		s1.3,1.3,2.1,1.9c0.1,0.1,0.2,0.2,0.3,0.2l1,0.7c-0.2,0.6-0.5,1.3-0.9,2.2c0.4,0,0.8,0.1,1,0.1s0.3,0,0.4,0c0,0,0.2,0.4,0.4,1.2
		c-0.5,0.7-0.7,1-0.6,1c0,0-0.5-0.1-1.5-0.1l0.9,1.3c-0.1,1-0.1,1.5-0.1,1.4c0.1-0.1-0.4-0.3-1.3-0.5c0.2,0.3,0.3,0.6,0.4,0.7
		c0.1,0.2,0.3,0.3,0.4,0.5c0.1,0.2,0.3,0.3,0.4,0.6c0.1,0.2,0.3,0.5,0.5,0.9l-0.7,1.1c-0.3,0.4-0.5,0.6-0.7,0.7
		c-1.1,0.8-1.8,1.1-2.1,0.9s-0.5,0.2-0.6,1.1c-0.3,2-1.8,3-4.4,3c-1.3,0-2.2,0-2.5-0.1s-0.5,0.4-0.5,1.4c-3,0.1-5.4-0.2-7.3-0.8
		c-0.8-0.2-1.5-0.5-2.1-0.7c-0.6-0.3-1.3-0.3-2-0.1c-0.6,0.1-0.6,0-0.1-0.2c0.3-0.2,0.4-0.2,0.3-0.1c-0.1,0.1-0.3,0.3-0.7,0.5
		c-0.6,0.4-0.8,0.5-0.6,0.3s0.1,0.2-0.1,1l-2.3,10.6c-0.2,2.8-0.4,4.7-0.5,5.7c-0.1,0.9-0.2,3.1-0.2,6.6l0.1,6.1
		c-0.1,1.8,0,3.4,0.1,4.9s0.4,2.9,0.7,4.2c0.7,2.6,1.2,5,1.4,7.1c1.4,0.3,2.6,0.5,3.7,0.6c1.1,0.1,2,0.1,2.8,0
		c1.6-0.2,1.5,1.7-0.3,5.6c-1.7,3.4-4,5.2-7,5.6s-5.6-0.3-7.8-1.8c0,0-0.3-0.2-0.8-0.7s-0.8-0.7-0.8-0.8c-0.2,0-0.2-0.1-0.2-0.2
		l-2.6-3.6c-1.3-2-2.3-4.1-3.1-6.3s-1.5-4.4-2-6.7c-0.2-0.3-0.2-0.6-0.2-0.8c-0.6-2.2-1.1-4.7-1.5-7.3c-0.4-2.6-0.6-5.3-0.6-8
		c0-1.5-0.1-3.2-0.2-5.1c-0.1-1.9-0.3-4-0.6-6.3c-0.5-4.5-0.1-8.1,1.2-10.8c-1.8,0-3.4,0-4.8-0.1c-1.5-0.1-2.8-0.2-4.1-0.3
		c-2.4-0.3-5.1-1.2-7.9-2.7c-0.1-0.1-0.2-0.1-0.2-0.1l-1.5-1.4c-0.1-0.2-0.2-0.3-0.3-0.4s-0.2-0.2-0.3-0.4c0.6-2.2,2.1-4,4.7-5.4
		c2.6-1.5,4.9-2.8,6.9-3.7c0.5-0.2,0.9-0.4,1.3-0.6s0.8-0.4,1.1-0.6c0.9-0.4,1.6-0.7,2.2-0.9c3.3-1.1,5.1-2,5.4-2.6
		c0.3-0.6,0.5-4.6,0.6-12.1c0-0.9,0.1-1.4,0.2-1.2C516.7,36.6,516.8,36.1,516.8,35.2z M536,17.5c0-0.1,0-0.2-0.1-0.2L536,17.5z"/>
</g>
</svg>
