<?xml version="1.0" encoding="iso-8859-1"?>
<!-- Generator: Adobe Illustrator 19.2.1, SVG Export Plug-In . SVG Version: 6.00 Build 0)  -->
<svg version="1.1" id="Layer_1" xmlns="http://www.w3.org/2000/svg" xmlns:xlink="http://www.w3.org/1999/xlink" x="0px" y="0px"
	 viewBox="0 0 70 20" style="enable-background:new 0 0 70 20;" xml:space="preserve">
<g>
	<path d="M32.935,5.161c0.501-0.479,0.84-0.698,1.014-0.657c0.174,0.041,0.338,0.122,0.491,0.245
		c0.153,0.122,0.24,0.265,0.262,0.428c0.022,0.163,0.035,0.433,0.041,0.81c0.006,0.377,0.041,0.637,0.106,0.779
		c0.065,0.143,0.164,0.601,0.295,1.375c0.131,0.774,0.201,1.245,0.212,1.414c0.011,0.168,0.06,0.42,0.147,0.756
		c0.088,0.336,0.554,0.418,1.399,0.244c0.845-0.173,1.68-0.367,2.503-0.581c0.823-0.214,1.432-0.379,1.824-0.497
		c0.393-0.117-0.022,0.061-1.243,0.535c-1.222,0.474-2.072,0.848-2.552,1.123c-0.48,0.275-0.914,0.55-1.301,0.825
		c-0.388,0.275-0.584,0.604-0.589,0.986c-0.005,0.382-0.052,0.909-0.139,1.582c-0.088,0.672-0.175,1.263-0.262,1.773
		c-0.088,0.509-0.153,0.927-0.196,1.253c-0.044,0.326-0.164,0.642-0.36,0.947c-0.196,0.306-0.414,0.479-0.654,0.52
		c-0.24,0.041-0.436-0.031-0.589-0.214c-0.153-0.183-0.174-0.634-0.065-1.353c0.109-0.718,0.218-1.36,0.327-1.926
		c0.109-0.565,0.213-1.179,0.311-1.841c0.098-0.662-0.131-0.958-0.687-0.886c-0.556,0.071-1.14,0.148-1.75,0.229
		c-0.611,0.082-1.222,0.158-1.832,0.229c-0.611,0.071-1.121,0.201-1.53,0.39c-0.409,0.189-1.129,0.937-2.159,2.246
		c-1.031,1.309-1.704,2.168-2.021,2.575c-0.317,0.408-0.6,0.611-0.851,0.611c-0.251,0-0.431-0.089-0.54-0.267
		c-0.109-0.178-0.111-0.441-0.008-0.787c0.104-0.346,0.486-0.991,1.145-1.933c0.66-0.942,1.426-1.913,2.299-2.911
		c0.872-0.998,1.597-1.806,2.176-2.422c0.578-0.616,1.099-1.223,1.562-1.818c0.463-0.596,0.99-1.256,1.579-1.979
		C31.888,6.242,32.433,5.64,32.935,5.161z M33.557,8.34c-0.109-0.713-0.319-0.889-0.63-0.527c-0.311,0.362-0.597,0.708-0.859,1.039
		c-0.262,0.331-0.796,0.912-1.604,1.742c-0.807,0.83-0.878,1.172-0.212,1.024c0.665-0.147,1.469-0.267,2.413-0.359
		c0.943-0.092,1.398-0.28,1.366-0.565c-0.033-0.285-0.09-0.57-0.172-0.856C33.778,9.553,33.677,9.053,33.557,8.34z"/>
	<path d="M43.52,1.998c0.109-0.081,0.294-0.102,0.556-0.061C44.338,1.978,44.6,2.1,44.862,2.304
		c0.262,0.204,0.229,0.507-0.098,0.909c-0.327,0.403-0.698,0.945-1.112,1.628c-0.415,0.683-0.903,1.618-1.464,2.804
		c-0.562,1.187-0.799,1.949-0.711,2.285c0.087,0.336,0.27,0.619,0.548,0.848c0.278,0.229,0.739,0.336,1.382,0.321
		c0.644-0.015,1.849-0.066,3.616-0.153c1.767-0.086,1.898-0.066,0.393,0.061c-1.505,0.128-2.631,0.245-3.378,0.352
		c-0.747,0.107-1.006,0.456-0.777,1.047c0.229,0.591,0.374,1.042,0.433,1.352c0.06,0.311,0.063,0.642,0.008,0.994
		c-0.055,0.351-0.224,0.721-0.507,1.108c-0.284,0.387-0.586,0.721-0.908,1.001c-0.322,0.28-0.649,0.464-0.982,0.55
		c-0.333,0.087-0.706,0.082-1.121-0.015c-0.415-0.097-0.769-0.29-1.063-0.581c-0.295-0.29-0.507-0.718-0.638-1.284
		c-0.131-0.565-0.183-1.128-0.156-1.689c0.027-0.56,0.289-1.452,0.785-2.674c0.496-1.223,0.925-2.201,1.284-2.934
		c0.36-0.734,0.856-1.793,1.489-3.179c0.632-1.386,1.003-2.18,1.112-2.384C43.105,2.467,43.28,2.243,43.52,1.998z M41.295,12.527
		c-0.306-0.367-0.586-0.377-0.843-0.031c-0.256,0.347-0.409,0.693-0.458,1.039c-0.049,0.347-0.063,0.665-0.041,0.955
		c0.022,0.291,0.114,0.583,0.278,0.879c0.163,0.295,0.393,0.438,0.687,0.428c0.295-0.01,0.546-0.125,0.753-0.344
		c0.207-0.219,0.351-0.484,0.433-0.795c0.082-0.311,0.043-0.655-0.115-1.032C41.832,13.251,41.6,12.884,41.295,12.527z"/>
	<path d="M47.61,11.549c0.207-0.183,0.461-0.3,0.761-0.352c0.3-0.051,0.548-0.036,0.744,0.046c0.196,0.082,0.363,0.227,0.499,0.435
		c0.136,0.209,0.477,0.308,1.023,0.298c0.545-0.01,1.224-0.008,2.037,0.008c0.812,0.015,0.64,0.038-0.515,0.069
		c-1.156,0.031-1.813,0.074-1.971,0.13c-0.158,0.056-0.224,0.237-0.196,0.542c0.027,0.306,0.049,0.629,0.065,0.97
		c0.016,0.342,0.019,0.721,0.008,1.139c-0.011,0.418-0.044,0.729-0.098,0.932c-0.055,0.204-0.136,0.418-0.245,0.642
		c-0.109,0.224-0.27,0.461-0.483,0.711c-0.213,0.25-0.475,0.481-0.785,0.695c-0.311,0.214-0.597,0.374-0.859,0.481
		c-0.262,0.107-0.545,0.112-0.851,0.015c-0.305-0.097-0.553-0.249-0.744-0.458c-0.191-0.209-0.344-0.425-0.458-0.649
		c-0.115-0.224-0.164-0.616-0.147-1.177c0.017-0.56,0.082-1.011,0.196-1.353c0.115-0.341,0.292-0.698,0.532-1.07
		c0.24-0.372,0.311-0.545,0.212-0.52c-0.098,0.026-0.123,0.013-0.073-0.038c0.049-0.051,0.237-0.27,0.564-0.657
		C47.152,12.003,47.414,11.723,47.61,11.549z M48.428,13.949c-0.24-0.275-0.54-0.199-0.9,0.229c-0.36,0.428-0.575,0.881-0.646,1.36
		c-0.071,0.479-0.044,0.815,0.082,1.009c0.125,0.194,0.256,0.306,0.393,0.336c0.136,0.031,0.33-0.053,0.581-0.252
		c0.251-0.198,0.455-0.629,0.614-1.291C48.709,14.677,48.668,14.214,48.428,13.949z"/>
	<path d="M57.851,12.099c0.229-0.112,0.428-0.153,0.597-0.122c0.169,0.031,0.286,0.105,0.352,0.221c0.065,0.117,0,0.56-0.196,1.33
		s-0.327,1.424-0.393,1.964c-0.065,0.54-0.011,0.919,0.164,1.138c0.174,0.219,0.477,0.298,0.908,0.237
		c0.43-0.061,0.897-0.331,1.398-0.81c0.502-0.479,0.559-0.502,0.172-0.069c-0.388,0.433-0.747,0.823-1.08,1.169
		c-0.333,0.347-0.625,0.565-0.875,0.657c-0.251,0.092-0.543,0.112-0.875,0.061c-0.333-0.051-0.603-0.173-0.81-0.367
		c-0.207-0.193-0.371-0.425-0.49-0.695c-0.12-0.27-0.131-0.601-0.033-0.993c0.099-0.392,0.161-0.731,0.188-1.016
		c0.027-0.285-0.096-0.27-0.368,0.046c-0.273,0.316-0.608,0.66-1.006,1.032c-0.398,0.372-0.821,0.7-1.268,0.986
		c-0.447,0.285-0.799,0.469-1.056,0.55c-0.256,0.082-0.512,0.14-0.769,0.176c-0.257,0.036-0.494-0.008-0.712-0.13
		c-0.218-0.122-0.354-0.313-0.409-0.573c-0.055-0.26,0-0.647,0.163-1.161c0.164-0.514,0.439-1.215,0.826-2.101
		c0.387-0.886,0.275-1.36-0.335-1.421c-0.611-0.061-1.069-0.186-1.374-0.375c-0.306-0.188-0.12-0.163,0.556,0.077
		c0.676,0.239,1.146,0.217,1.407-0.069c0.262-0.285,0.504-0.453,0.728-0.504c0.224-0.051,0.436-0.041,0.638,0.031
		c0.202,0.071,0.333,0.196,0.393,0.374c0.06,0.178,0.049,0.39-0.033,0.634c-0.082,0.245-0.36,0.886-0.834,1.926
		c-0.475,1.039-0.488,1.498-0.041,1.375c0.447-0.122,1.248-0.723,2.405-1.803C56.946,12.792,57.633,12.202,57.851,12.099z"/>
	<path d="M63.07,7.484c0.131-0.143,0.338-0.204,0.622-0.183c0.283,0.02,0.491,0.102,0.622,0.245c0.131,0.143,0.24,0.316,0.327,0.52
		c0.087,0.204,0.071,0.418-0.049,0.642c-0.12,0.224-0.235,0.517-0.343,0.879c-0.109,0.362-0.251,0.868-0.425,1.52
		c-0.175,0.652-0.164,1.019,0.033,1.1c0.196,0.082,0.534,0.163,1.014,0.244c0.48,0.082,1.246,0.112,2.298,0.092
		c1.053-0.02,0.995,0.051-0.172,0.214c-1.167,0.163-2.032,0.311-2.593,0.443c-0.562,0.133-0.933,0.227-1.112,0.283
		c-0.18,0.056-0.486,0.622-0.916,1.697c-0.431,1.075-0.715,1.791-0.851,2.147c-0.136,0.357-0.281,0.596-0.433,0.718
		c-0.153,0.122-0.349,0.214-0.589,0.275c-0.24,0.061-0.458,0.051-0.654-0.031c-0.196-0.081-0.194-0.413,0.008-0.993
		c0.201-0.581,0.477-1.268,0.826-2.063c0.349-0.795,0.54-1.289,0.572-1.482c0.033-0.193-0.109-0.265-0.425-0.214
		c-0.317,0.051-0.597,0.079-0.843,0.084c-0.246,0.005-0.365-0.138-0.36-0.428c0.005-0.291,0.204-0.527,0.597-0.711
		c0.393-0.183,0.741-0.277,1.047-0.283c0.305-0.005,0.578-0.402,0.818-1.192c0.24-0.789,0.382-1.314,0.425-1.574
		c0.043-0.26,0.114-0.614,0.213-1.062C62.824,7.923,62.939,7.627,63.07,7.484z"/>
</g>
<path id="fr2" style="fill:#D52147;" d="M20.583,10c0,5.216-4.169,9.445-9.311,9.445c-5.144,0-9.313-4.229-9.313-9.445
	s4.169-9.444,9.313-9.444C16.414,0.556,20.583,4.784,20.583,10"/>
</svg>
