<?xml version="1.0" encoding="utf-8"?>
<!-- Generator: Adobe Illustrator 19.2.1, SVG Export Plug-In . SVG Version: 6.00 Build 0)  -->
<svg version="1.1" id="Layer_1" xmlns="http://www.w3.org/2000/svg" xmlns:xlink="http://www.w3.org/1999/xlink" x="0px" y="0px"
	 viewBox="0 0 564.6 136.5" style="enable-background:new 0 0 564.6 136.5;" xml:space="preserve">
<style type="text/css">
	.st0{fill:#5D2D7A;}
</style>
<g id="XMLID_402_">
	<path id="XMLID_403_" class="st0" d="M282.2,91c0-2.1,0.3-4.2,0.7-6.1c0.4-2,0.9-4,1.3-6.1l3.4-15.4c0.9-2.9,1.7-5.9,2.5-9
		s1.7-6,2.8-8.8l6.1-15.2c0.4-1.9,0.4-3.3,0.1-4.3c-0.3-0.9-0.4-1.7-0.3-2.3c0-0.3,0.2-0.6,0.5-0.9c0.4-0.4,0.7-0.6,0.8-0.6
		s0,0-0.3,0.3c-0.2,0.2-0.3,0.3-0.2,0.3c0.1,0,0.3-0.1,0.7-0.4c0.1,0,0.4-0.3,0.8-0.8c0,0,0.1-0.1,0.2-0.2c0,0,0-0.1,0.1-0.1
		l0.1-0.1l1.4-1.3c0.3-0.4,0.7-0.8,1-1.4s0.9-0.9,1.6-1l0.7,0.1l0.2,0.1l1.9-0.8c0,0,0.1-0.1,0.2-0.1c0,0,0.1-0.1,0.2-0.1l0.9-0.3
		l2.7,0.4c1.2,0.2,2.1,0.5,2.7,0.9c0.7,0.5,1,0.8,0.9,1l-0.3,1.4c1-0.2,1.5-0.1,1.5,0.3c0.2,0.4,0.4,0.9,0.8,1.4
		c1,1.5,1.5,2.4,1.5,3c0,0.2,0.1,0.5,0.2,1s0.2,1,0.4,1.7l0.3,3.4l-0.4,1.6c-0.4,1.3-1,2.6-1.7,3.9s-1.4,2.5-1.9,3.8l-3.8,7.3
		c-1.1,1.8-2,3.5-2.9,5.2c-0.8,1.7-1.6,3.3-2.2,5s-1.3,3.3-2,5c-0.7,1.7-1.5,3.4-2.3,5.3l-0.7,1.5c-0.1,0.2-0.3,0.8-0.5,1.7
		c-1,3.3-2.1,6.5-3.5,9.7c-1.3,3.1-2.6,6.3-3.7,9.5c-0.7,1.9-1.8,4.5-3.4,7.8c-0.8,1.7-1.5,3.1-2.2,4.2c-0.7,1.2-1.3,2.1-1.8,2.9
		c-1.3,1.9-1.8,3-1.6,3.5s0.2,1.7-0.2,3.6c-0.2,0.8-0.4,1.3-0.7,1.4c-0.2,0.1-0.4,0.5-0.6,1.3c-1.3-0.1-2.7-0.8-4-2.2
		s-2.3-2.6-3-3.7l-0.8-1.5l-1.8-3.1L267.8,92c-1.2-2.5-2.5-4.8-4-7.1c-1.5-2.2-2.9-4.6-4.2-7c-0.3-0.8-0.6-1.3-0.7-1.5l-3.3-6.4
		c-2.7-4.8-5.1-10.6-7.3-17.2l-8.7-19.7l-0.2-0.2c-1.2-1.8-1.7-3-1.6-3.7c0.1-0.7,0-1.9-0.4-3.7c-0.2-1.3,0-2.4,0.7-3.2
		c0.7-0.9,1.2-1.9,1.4-3.1c0.2-1,0.6-1.7,1.2-2c0.7-0.4,1.2-0.5,1.4-0.4s0.3-0.4,0.2-1.6h2.7c0.1,1.1,0.1,1.6,0,1.4s0.2-0.1,0.9,0.4
		l-0.5-1.8c1.1,0.2,1.7,0.3,1.9,0.2s0.6-0.6,1.2-1.5c0.9,0.5,1.8,0.8,2.6,1.1c0.8,0.2,1.4,0.9,1.9,2.1l2.4-0.3
		c1.2,0.6,2,1.5,2.3,2.6c0.1,0.5,0.1,0.6,0,0.4s-0.1-0.2,0,0c0.1,0.1,0.2,0.4,0.3,0.8c0.8,2.1,1.3,2.9,1.3,2.3s0.3-0.7,0.9-0.4
		c0.6,0.4,1,1.5,1.4,3.2c0.2,0.8,0.3,1.5,0.4,2.1s0.2,1.1,0.3,1.4l1.2,4.5c0.2,0.9,0.4,1.7,0.6,2.3s0.4,1.3,0.7,2.1
		c0.2,0.5,0.3,0.9,0.4,1.2s0.3,0.6,0.4,1l4.7,15.9c0.2,0.9,0.4,1.7,0.5,2.5s0.3,1.6,0.7,2.6c0.2,0.5,0.4,1.1,0.6,1.8
		c0.3,0.7,0.6,1.5,0.9,2.5l8.4,24.9c0.1,0.2,0.2,0.4,0.2,0.5C282.1,90.8,282.1,90.9,282.2,91z M247,14.9c-0.1,0.1-0.1,0-0.1-0.1
		C247,14.8,247,14.8,247,14.9L247,14.9z M298.4,25.2c-0.2,0-0.3,0-0.2-0.1L298.4,25.2z"/>
	<path id="XMLID_407_" class="st0" d="M331.6,116.1c-4.3,0-8.6-1.8-12.9-5.3c-4.2-3.6-7.3-7.4-9.2-11.3c-1.3-2.7-2.4-3.9-3.5-3.6
		s-1.8-0.2-2-1.5l0.1-0.9c0.2-2.3,0.6-3.3,1.2-3.1s0.6-0.7,0.3-2.8l-0.5-9.6c0-1.4,0.3-3.1,0.8-5c0.3-1,0.5-1.9,0.7-2.7
		c0.2-0.8,0.4-1.6,0.6-2.2c1.5-4.6,3.9-8.9,7.3-12.7c1.7-2,3.4-3.8,5.2-5.5c1.8-1.7,3.6-3.3,5.4-4.8l2.4-1.6c1-0.7,2.1-1.4,3.3-2.1
		c1.2-0.7,2.5-1.3,3.6-1.6c1.7-0.4,3.4-0.8,5.3-1.1s3.8-0.5,5.8-0.6c4.1-0.2,7.6,0.7,10.3,2.7l2.5,1.9c3,2.4,5,5.8,5.8,10.1
		s0.7,8.2-0.5,11.8c-1.1,3.5-2.7,6.4-4.8,8.5c-0.4,0.4-0.8,0.8-1.1,1.2c-0.3,0.4-0.6,0.7-0.8,0.9c-1.7,2.2-4,4.3-6.8,6l-7.8,4.7
		l-8.4,4.5c-0.8,0.5-2.3,1.2-4.4,2.3c-2,1-3.4,1.5-4.2,1.6c0.7,3.1,2.9,5.4,6.4,7c5.5,2.5,11,2.1,16.4-1.4s8.5-6.7,9.3-9.6
		c1,0,1.5,0,1.5,0s0.3,0.3,0.7,0.9c0.6,1.1,0.6,3.4,0.1,7c-0.5,3.5-2.1,6.6-4.7,9.2c-1.5,1.5-3.5,2.9-6,4.2
		c-2.5,1.3-4.7,2.2-6.7,2.8c-0.7,0.2-1.4,0.4-2.3,0.6s-1.8,0.4-2.8,0.6s-2,0.3-3,0.4C333.2,116.1,332.3,116.1,331.6,116.1z
		 M341.8,67.2c0-0.8,0.1-1.2,0.2-1.1c0,0.1,0.3-0.1,0.8-0.6l4.1-3.6c0.8-0.7,1.2-2.9,1.2-6.7c-2.5-0.6-4.8-0.5-6.8,0.3l-4,1.8
		c-0.4,0.3-1,0.6-1.6,1.1c-0.6,0.4-1.3,1-2.1,1.6c-0.1,0-0.4,0.3-0.9,0.8l-5,5.3c-2.8,3.3-4.4,5.6-4.7,6.9c-0.2,0.6-0.4,1.2-0.7,2
		c-0.3,0.8-0.6,1.6-1.1,2.6c1-0.1,2.4-0.6,4-1.4c0.8-0.4,1.6-0.8,2.3-1.2s1.4-0.7,2-1s1.4-0.8,2.5-1.4c1-0.6,2.3-1.4,3.8-2.3
		C339,68.3,340.9,67.3,341.8,67.2z"/>
	<path id="XMLID_410_" class="st0" d="M390.1,40.1l1.2,0.1c0.2,0.7,0.2,1.3,0.1,1.7s-0.1,1.1-0.1,2.2l1.9-0.5h0.1h0.1c0,0,0,0,0.1,0
		l0.2-0.1l1.9-0.8c3.5-1.5,7.3-1.8,11.6-0.9c1.3,0.3,2.4,0.6,3.4,0.9s1.9,0.6,2.6,0.9c1.5,0.7,3.2,1.9,5.1,3.5
		c1.7,1.5,2.9,3.6,3.7,6.1l0.3,0.7c0.8,2.5,1.2,4.6,1.2,6.3c0,0.9,0,1.8,0,2.8c0.1,1,0.1,2,0.2,3c0.2,3-0.1,7.6-0.9,13.7
		c-0.7,6.1-1.8,10.9-3.2,14.4c-1,2.5-1.5,5.5-1.5,8.9c0,3.3-0.7,6.3-1.9,9c-0.2,0.4-0.3,0.6-0.4,0.7c0,0-0.1,0.2-0.2,0.5
		c-0.2,0.3-0.3,0.5-0.3,0.7s-0.1,0.4-0.2,0.6c-0.7-0.5-1.3-1.2-1.9-2.1s-1-1.8-1.5-2.6c-1.8-3.5-2.6-8-2.4-13.5
		c0.1-2.7,0.2-5.2,0.3-7.6c0.1-2.3,0.1-4.5,0-6.4l-1.1-12.9l-0.6-3.3c-0.2-1-0.7-1.5-1.2-1.5c-1.7,0-3.3,0.5-4.8,1.5
		c-0.7,0.5-1.3,1-2,1.4s-1.4,0.8-2,1.2l-3.1,1.8c-1,0.5-1.8,1-2.5,1.6s-1.4,1.2-2.2,1.8l-1.2,1.7c-0.5,0.6-0.8,0.8-0.9,0.7
		c-0.1-0.2-0.3,0.1-0.5,1.1l-0.2,0.7c0,0-0.1,0.2-0.1,0.4l-6,26.9c-0.5,1.9-0.9,4.2-1.2,7c-0.4,2.8-1.1,4.8-2.3,6.3l-0.9,0.9
		c-0.1,0-0.3,0.2-0.7,0.6c-1.9-1-3.4-2.8-4.6-5.2c-0.3-0.6-0.6-1.2-0.7-1.7c-0.2-0.6-0.3-1.1-0.4-1.7s-0.2-1.2-0.3-1.8
		c-0.1-0.7-0.2-1.4-0.3-2.2c-0.7-3.7-0.9-6.5-0.8-8.3v-2c0-0.2,0-0.4,0.1-0.8c0-0.4,0.1-0.7,0.1-1l0.1-19.4
		c-0.1-0.9-0.1-1.7-0.1-2.3c0.1-0.6,0.1-1.2,0.1-1.8c-0.2-4.9-0.2-9.9-0.1-14.9c0.1-5.1-0.1-10.1-0.6-15c-0.4-4,0.6-7.2,3.1-9.5
		c0.2-0.2,0.4-0.3,0.6-0.4s0.4-0.3,0.6-0.5l1.3-1.8c0.8-0.9,2.1-1.4,4-1.7c0.9,0,1.5,0,1.7,0.1c0.5,0.1,0.9,0.1,1,0.2
		c0.2,0.1,0.2,0.1,0.1,0.1s0.2,0.1,0.9,0.4c1.1,0.5,1.6,0.6,1.2,0.2c-0.3-0.4,0.1-0.4,1.1,0c0.7,0.3,1.3,0.8,1.6,1.7
		c0.4,0.8,1,1.4,2,1.8c0.1,0.1,0.2,0.2,0.2,0.1l0.1,0.1l0.1,0.1l0.4,0.4c1.1,1,1.6,1.7,1.7,2s0.1,1,0,2.2c-0.2,1.5,0,2,0.4,1.7
		c0.5-0.5,0.4-0.1-0.2,1.2L390.1,40.1z M385.9,30.8c-0.1,0-0.1-0.1-0.1-0.2L385.9,30.8z M386,31.1L386,31.1l-0.1,0.1L386,31.1z
		 M389.9,41L389.9,41C389.9,41.1,390,41.1,389.9,41l0.1,0.1C390.1,41,390,40.9,389.9,41z M402.8,42.3c0,0.7,0,0.9,0.1,0.5
		c0-0.1,0.1-0.1,0.1-0.2s0-0.1,0.1-0.1c0,0,0-0.1,0.1-0.1c0.2,0,0.2-0.1,0-0.4C402.9,41.6,402.8,41.7,402.8,42.3z"/>
	<path id="XMLID_416_" class="st0" d="M434.4,29.7c0.5-0.1,0.9-0.1,1.4-0.2c0.4,0,0.7-0.1,0.8-0.1c0.7-0.2,1-0.5,0.9-0.6
		c-0.1-0.2,0.2-0.4,0.9-0.4c1.2,0,2.2,0.1,3,0.4s1.6,0.5,2.4,0.8c1.9,0.7,3.2,1.4,3.8,2.3c0.3,0.4,0.7,0.9,1.1,1.5s0.9,1.2,1.4,1.9
		c1.3,1.9,2,3.9,2,6l-3.2,22.2c-0.4,1.3-0.7,2.4-0.9,3.5s-0.4,2-0.5,2.9c-0.1,0.8-0.1,1.8-0.2,2.9s-0.1,2.3-0.2,3.7
		c0,0.4-0.1,0.8-0.1,1s0,0.3,0,0.4c0,1.9,0,3.9-0.2,6s-0.2,4,0.1,5.9l0.2,1.1c0.2,1.2,0.4,2.3,0.8,3.4s0.9,2,1.6,2.9
		c0.7,0.8,1.5,1.6,2.4,2.1c0.9,0.6,2.1,1,3.4,1.2c2.1,0.4,3.5,0.4,4.1-0.2c0.8-0.7,1.5-1.4,2.2-2.3s1.3-1.7,1.9-2.5
		c0.4-0.6,0.7-1,0.9-1.3c0.2-0.3,0.4-0.6,0.5-0.7c0.2-0.3,0.3-1.1,0.1-2.5c-0.2-1.7-0.4-3.5-0.5-5.6s-0.2-4.4-0.3-7
		c-0.1-3-0.3-6-0.8-9.2s-0.8-6.3-1.1-9.4l-0.4-11.2c0.2-3.4,0.9-5.4,1.9-6.1c1.1-0.7,2-1.7,3-2.9c0.7-1.1,1.3-1.8,1.8-1.9l2.2,0.2
		v-1.4c1.1,0,1.8,0.3,2.2,0.8c0.4,0.4,1.1,0.7,2.1,0.8c1,0.2,1.8,0.1,2.2-0.3c0.4-0.4,1.2-0.2,2.3,0.6l4,4.5c0.8,1.1,1.1,2,0.7,2.8
		c-0.3,0.7,0.2,2,1.4,3.6c0.7,1.1,1,1.5,0.7,1.2c-0.3-0.2-0.4,0.3-0.4,1.5l0.2,5.3l-5.9,36.6c-0.3,1.4-0.5,2.8-0.7,4.3
		c-0.1,1.4-0.3,2.9-0.5,4.3c-0.4,2.3-0.9,4.3-1.6,5.9c-0.6,1.6-1.1,3.5-1.6,5.6c-0.2,1.1-0.5,1.7-0.7,1.9c-0.2,0.2-0.4,0.9-0.4,1.9
		c-1.2,0.1-1.7,0.1-1.4,0c0.3-0.1,0.3,0.2,0.1,0.9c-1.7-0.2-2.8-1.2-3.2-3c-0.2-0.9-0.4-1.7-0.6-2.5s-0.4-1.5-0.6-2.1
		s-0.4-1.1-0.5-1.5c-0.2-0.4-0.3-0.9-0.4-1.6c-1,0.3-3.3,2-6.9,5.1c-3.4,3.1-8.7,3.3-15.7,0.6c-0.9-0.4-1.8-0.8-2.8-1.3
		s-1.9-1.1-2.9-1.8s-1.8-1.3-2.7-2s-1.6-1.4-2.2-2.1l-3-3.7c-2.5-3.2-4.2-6.9-5.3-11.2c-0.5-2.2-0.9-4.3-1.2-6.4
		c-0.3-2.1-0.5-4.3-0.6-6.4c0-1.3-0.1-2.5-0.1-3.6s-0.1-2.1-0.1-3c-0.1-0.9-0.1-2,0-3.2s0.2-2.5,0.3-3.9c0.2-1.3,0.3-2.4,0.5-3.2
		c0.2-0.9,0.3-2.1,0.3-3.5c0-1.5,0.2-2.6,0.4-3.5c0.1-0.4,0.2-0.9,0.3-1.5c0.1-0.6,0.2-1.2,0.3-2l0.7-8.3c0.1-0.6,0.2-1.2,0.2-1.9
		c0.1-0.7,0.2-1.4,0.4-2.2c0.3-1.5,0.9-2.8,2-3.8l1.4-1.3c1.5-1.8,3.2-2.8,5.1-3L434.4,29.7z M476.2,36.4v1.4h-0.9v-1.4H476.2z
		 M481.2,41.5c0-0.2,0-0.3-0.1-0.2L481.2,41.5z M484.7,49.8c0,0.7,0,0.9,0.1,0.5c0-0.1,0.1-0.1,0.1-0.2s0-0.1,0.1-0.1
		c0,0,0-0.1,0.1-0.1c0.2,0,0.2-0.1,0-0.4C484.8,49,484.7,49.2,484.7,49.8z"/>
	<path id="XMLID_421_" class="st0" d="M512.3,116.1c-4.3,0-8.6-1.8-12.9-5.3c-4.2-3.6-7.3-7.4-9.2-11.3c-1.3-2.7-2.4-3.9-3.5-3.6
		s-1.8-0.2-2-1.5l0.1-0.9c0.2-2.3,0.6-3.3,1.2-3.1s0.6-0.7,0.3-2.8l-0.5-9.6c0-1.4,0.3-3.1,0.8-5c0.3-1,0.5-1.9,0.7-2.7
		c0.2-0.8,0.4-1.6,0.6-2.2c1.5-4.6,3.9-8.9,7.3-12.7c1.7-2,3.4-3.8,5.2-5.5c1.8-1.7,3.6-3.3,5.4-4.8l2.4-1.6c1-0.7,2.1-1.4,3.3-2.1
		s2.5-1.3,3.6-1.6c1.7-0.4,3.4-0.8,5.3-1.1c1.9-0.3,3.8-0.5,5.8-0.6c4.1-0.2,7.6,0.7,10.3,2.7l2.5,1.9c3,2.4,5,5.8,5.8,10.1
		s0.7,8.2-0.5,11.8c-1.1,3.5-2.7,6.4-4.8,8.5c-0.4,0.4-0.8,0.8-1.1,1.2c-0.3,0.4-0.6,0.7-0.8,0.9c-1.7,2.2-4,4.3-6.8,6l-7.8,4.7
		l-8.4,4.5c-0.8,0.5-2.3,1.2-4.4,2.3c-2,1-3.4,1.5-4.2,1.6c0.7,3.1,2.9,5.4,6.4,7c5.5,2.5,11,2.1,16.4-1.4s8.5-6.7,9.3-9.6
		c1,0,1.5,0,1.5,0s0.3,0.3,0.7,0.9c0.6,1.1,0.6,3.4,0.1,7c-0.5,3.5-2.1,6.6-4.7,9.2c-1.5,1.5-3.5,2.9-6,4.2
		c-2.5,1.3-4.7,2.2-6.7,2.8c-0.7,0.2-1.4,0.4-2.3,0.6c-0.9,0.2-1.8,0.4-2.8,0.6s-2,0.3-3,0.4C513.9,116.1,513,116.1,512.3,116.1z
		 M522.5,67.2c0-0.8,0.1-1.2,0.2-1.1c0,0.1,0.3-0.1,0.8-0.6l4.1-3.6c0.8-0.7,1.2-2.9,1.2-6.7c-2.5-0.6-4.8-0.5-6.8,0.3l-4,1.8
		c-0.4,0.3-1,0.6-1.6,1.1c-0.6,0.4-1.3,1-2.1,1.6c-0.1,0-0.4,0.3-0.9,0.8l-5,5.3c-2.8,3.3-4.4,5.6-4.7,6.9c-0.2,0.6-0.4,1.2-0.7,2
		c-0.3,0.8-0.6,1.6-1.1,2.6c1-0.1,2.4-0.6,4-1.4c0.8-0.4,1.6-0.8,2.3-1.2s1.4-0.7,2-1s1.4-0.8,2.5-1.4c1-0.6,2.3-1.4,3.8-2.3
		C519.7,68.3,521.7,67.3,522.5,67.2z"/>
</g>
</svg>
