<?xml version="1.0" encoding="iso-8859-1"?>
<!-- Generator: Adobe Illustrator 19.2.1, SVG Export Plug-In . SVG Version: 6.00 Build 0)  -->
<svg version="1.1" id="Layer_1" xmlns="http://www.w3.org/2000/svg" xmlns:xlink="http://www.w3.org/1999/xlink" x="0px" y="0px"
	 viewBox="0 0 70 20" style="enable-background:new 0 0 70 20;" xml:space="preserve">
<g>
	<path d="M36.091,3.949c1.14-1.159,1.867-1.724,2.181-1.698c0.314,0.027,0.555,0.257,0.722,0.689
		c0.167,0.432,0.238,0.727,0.214,0.884c-0.024,0.159-0.209,0.249-0.553,0.27c-0.343,0.022-0.887,0.491-1.628,1.41
		s-1.307,1.648-1.695,2.189c-0.389,0.541-0.884,1.189-1.489,1.943c-0.604,0.756-0.992,1.279-1.164,1.574
		c-0.172,0.296-1.177,1.372-3.014,3.23c-1.838,1.858-2.901,2.866-3.191,3.025c-0.29,0.159-0.641,0.252-1.053,0.279
		c-0.412,0.028-0.751-0.051-1.018-0.238c-0.266-0.186-0.469-0.443-0.611-0.77c-0.142-0.329-0.25-0.948-0.324-1.861
		c-0.073-0.913-0.061-1.775,0.038-2.582c0.099-0.809,0.16-1.388,0.185-1.738c0.024-0.349,0.072-0.725,0.141-1.123
		c0.069-0.4,0.115-1.072,0.14-2.017c0.024-0.946,0.012-1.607-0.038-1.983c-0.049-0.377,0-0.74,0.148-1.09
		c0.148-0.35,0.354-0.549,0.618-0.598c0.266-0.05,0.447-0.06,0.545-0.033c0.098,0.028,0.244,0.175,0.435,0.443
		s0.312,0.59,0.362,0.968c0.049,0.377,0.061,1.142,0.038,2.296c-0.025,1.154-0.121,2.296-0.287,3.426
		c-0.167,1.131-0.238,2.102-0.214,2.911c0.024,0.809,0.096,1.242,0.214,1.295c0.118,0.053,0.309-0.027,0.575-0.246
		c0.265-0.218,0.641-0.544,1.127-0.975c0.486-0.432,0.838-0.769,1.053-1.008c0.216-0.241,0.626-0.725,1.23-1.452
		c0.604-0.727,1.342-1.574,2.21-2.542c0.869-0.966,1.487-1.733,1.849-2.296C34.198,5.968,34.951,5.108,36.091,3.949z"/>
	<path d="M39.111,9.31c0.659-0.053,1.059,0.069,1.201,0.369c0.142,0.301,0.209,0.684,0.199,1.149
		c-0.01,0.464-0.206,0.858-0.59,1.181c-0.383,0.322-0.889,0.642-1.518,0.959c-0.176,0.077-0.336,0.117-0.479,0.122
		c-0.142,0.005-0.26,0-0.354-0.016c-0.093-0.016-0.167-0.033-0.221-0.05c-0.055-0.016-0.086-0.008-0.096,0.024
		c-0.176,0.318-0.267,0.634-0.273,0.952c-0.004,0.316,0.088,0.608,0.28,0.878c0.191,0.268,0.405,0.422,0.641,0.467
		c0.236,0.044,0.481,0.036,0.736-0.024c0.255-0.059,0.728-0.248,1.415-0.566c0.687-0.316,1.167-0.615,1.437-0.894
		s0.528-0.549,0.774-0.812c0.245-0.263,0.28-0.263,0.103,0c-0.176,0.263-0.396,0.58-0.656,0.952
		c-0.261,0.371-0.585,0.74-0.972,1.107c-0.389,0.367-0.705,0.648-0.95,0.844s-0.572,0.374-0.98,0.533
		c-0.408,0.159-0.808,0.208-1.201,0.146c-0.393-0.059-0.687-0.161-0.884-0.303c-0.197-0.141-0.378-0.311-0.545-0.508
		c-0.167-0.197-0.305-0.429-0.412-0.698c-0.107-0.268-0.164-0.634-0.17-1.099c-0.004-0.464,0.093-0.971,0.294-1.517
		c0.202-0.546,0.43-1.001,0.686-1.361c0.255-0.361,0.602-0.725,1.04-1.09C38.054,9.691,38.552,9.442,39.111,9.31z M39.126,10.787
		c-0.069-0.077-0.238-0.038-0.508,0.115c-0.27,0.153-0.467,0.326-0.59,0.517s-0.145,0.33-0.066,0.419
		c0.078,0.088,0.245,0.053,0.501-0.106s0.459-0.318,0.611-0.477C39.228,11.095,39.244,10.939,39.126,10.787z"/>
	<path d="M44.004,9.654c0.206-0.109,0.469-0.088,0.789,0.066c0.32,0.153,0.387,0.438,0.206,0.853
		c-0.182,0.415-0.479,1.101-0.892,2.057c-0.412,0.957-0.454,1.22-0.126,0.787c0.328-0.431,0.727-0.871,1.194-1.319
		c0.466-0.448,0.803-0.738,1.01-0.87c0.206-0.131,0.43-0.229,0.671-0.295c0.24-0.066,0.514-0.05,0.818,0.05
		c0.305,0.098,0.565,0.374,0.781,0.828c0.216,0.453,0.332,1.202,0.347,2.246c0.015,1.045,0.245,1.555,0.692,1.534
		c0.447-0.022,0.881-0.205,1.304-0.549c0.423-0.345,0.737-0.694,0.943-1.049c0.206-0.356,0.294-0.451,0.266-0.287
		c-0.03,0.164-0.143,0.404-0.339,0.722c-0.197,0.318-0.614,0.809-1.253,1.476c-0.639,0.667-1.192,1.006-1.658,1.017
		c-0.466,0.011-0.805-0.197-1.016-0.622c-0.211-0.427-0.349-1.107-0.412-2.041c-0.064-0.935-0.175-1.41-0.332-1.427
		c-0.157-0.016-0.501,0.159-1.033,0.525c-0.53,0.367-1.016,0.846-1.459,1.435c-0.442,0.59-0.803,1.09-1.083,1.5
		c-0.28,0.409-0.533,0.658-0.759,0.746c-0.225,0.088-0.41,0.022-0.553-0.197c-0.143-0.218-0.191-0.486-0.148-0.804
		c0.044-0.316,0.13-0.804,0.259-1.459c0.128-0.656,0.309-1.348,0.545-2.075c0.236-0.727,0.182-0.964-0.162-0.714
		c-0.343,0.252-0.763,0.632-1.26,1.139c-0.496,0.509-0.32,0.268,0.53-0.722s1.321-1.566,1.415-1.73
		c0.093-0.164,0.184-0.314,0.273-0.451C43.65,9.888,43.798,9.764,44.004,9.654z"/>
	<path d="M56.471,10.753c0.206-0.12,0.385-0.163,0.538-0.131c0.152,0.033,0.259,0.113,0.317,0.238c0.059,0.126,0,0.602-0.176,1.427
		c-0.176,0.825-0.294,1.528-0.354,2.107c-0.059,0.579-0.01,0.987,0.148,1.221c0.157,0.236,0.43,0.319,0.819,0.254
		c0.387-0.066,0.808-0.356,1.26-0.868c0.452-0.513,0.503-0.539,0.155-0.074c-0.349,0.464-0.674,0.884-0.972,1.255
		c-0.301,0.371-0.563,0.606-0.789,0.705c-0.225,0.098-0.488,0.12-0.789,0.066c-0.3-0.053-0.542-0.186-0.729-0.393
		c-0.187-0.207-0.335-0.456-0.442-0.746c-0.107-0.289-0.118-0.645-0.029-1.065c0.088-0.422,0.145-0.785,0.169-1.09
		s-0.086-0.289-0.332,0.049c-0.246,0.339-0.548,0.708-0.907,1.107c-0.359,0.398-0.74,0.751-1.143,1.057
		c-0.402,0.307-0.72,0.504-0.95,0.59c-0.231,0.088-0.462,0.151-0.692,0.188c-0.231,0.038-0.445-0.008-0.641-0.14
		c-0.197-0.131-0.32-0.336-0.369-0.615c-0.049-0.279,0-0.694,0.148-1.247c0.147-0.552,0.395-1.304,0.744-2.255
		c0.349-0.95,0.248-1.459-0.302-1.524c-0.55-0.066-0.963-0.199-1.239-0.402c-0.275-0.202-0.107-0.175,0.501,0.082
		c0.61,0.256,1.031,0.232,1.268-0.074c0.236-0.305,0.454-0.486,0.656-0.541c0.202-0.053,0.393-0.044,0.574,0.033
		c0.182,0.077,0.301,0.212,0.354,0.402c0.053,0.191,0.045,0.419-0.03,0.681c-0.073,0.263-0.324,0.95-0.751,2.065
		c-0.427,1.115-0.439,1.607-0.038,1.476c0.404-0.131,1.125-0.776,2.166-1.934C55.656,11.496,56.275,10.863,56.471,10.753z"/>
	<path d="M61.246,9.31c0.659-0.053,1.059,0.069,1.201,0.369c0.142,0.301,0.209,0.684,0.199,1.149
		c-0.01,0.464-0.206,0.858-0.59,1.181c-0.383,0.322-0.889,0.642-1.518,0.959c-0.176,0.077-0.336,0.117-0.479,0.122
		c-0.142,0.005-0.26,0-0.354-0.016c-0.093-0.016-0.167-0.033-0.221-0.05c-0.055-0.016-0.086-0.008-0.096,0.024
		c-0.176,0.318-0.267,0.634-0.273,0.952c-0.004,0.316,0.088,0.608,0.28,0.878c0.191,0.268,0.405,0.422,0.641,0.467
		c0.236,0.044,0.481,0.036,0.736-0.024c0.255-0.059,0.728-0.248,1.415-0.566c0.687-0.316,1.167-0.615,1.437-0.894
		c0.27-0.279,0.528-0.549,0.774-0.812c0.245-0.263,0.28-0.263,0.103,0c-0.176,0.263-0.396,0.58-0.656,0.952
		c-0.261,0.371-0.585,0.74-0.972,1.107c-0.389,0.367-0.705,0.648-0.95,0.844c-0.246,0.197-0.572,0.374-0.98,0.533
		s-0.808,0.208-1.201,0.146c-0.393-0.059-0.687-0.161-0.884-0.303c-0.197-0.141-0.378-0.311-0.545-0.508
		c-0.167-0.197-0.305-0.429-0.412-0.698c-0.107-0.268-0.164-0.634-0.17-1.099c-0.004-0.464,0.093-0.971,0.294-1.517
		c0.202-0.546,0.43-1.001,0.686-1.361s0.602-0.725,1.04-1.09C60.187,9.691,60.686,9.442,61.246,9.31z M61.261,10.787
		c-0.069-0.077-0.238-0.038-0.508,0.115c-0.27,0.153-0.467,0.326-0.59,0.517s-0.145,0.33-0.066,0.419
		c0.078,0.088,0.245,0.053,0.501-0.106s0.459-0.318,0.611-0.477C61.362,11.095,61.379,10.939,61.261,10.787z"/>
</g>
<path id="fr3" style="fill:#DAC3BA;" d="M20.875,10c0,5.246-4.365,9.5-9.751,9.5c-5.384,0-9.749-4.254-9.749-9.5
	s4.365-9.5,9.749-9.5C16.51,0.5,20.875,4.754,20.875,10"/>
</svg>
