<?xml version="1.0" encoding="iso-8859-1"?>
<!-- Generator: Adobe Illustrator 19.2.1, SVG Export Plug-In . SVG Version: 6.00 Build 0)  -->
<svg version="1.1" id="Layer_1" xmlns="http://www.w3.org/2000/svg" xmlns:xlink="http://www.w3.org/1999/xlink" x="0px" y="0px"
	 viewBox="0 0 70 20" style="enable-background:new 0 0 70 20;" xml:space="preserve">
<g>
	<path d="M25.957,0.353c0.17-0.139,0.365-0.15,0.585-0.035c0.22,0.116,0.381,0.29,0.483,0.521c0.102,0.232,0.127,0.435,0.076,0.607
		s-0.11,0.4-0.178,0.678s-0.11,0.521-0.127,0.728c-0.017,0.208,0,0.347,0.051,0.417c0.051,0.069,0.458,0.359,1.221,0.868
		c0.763,0.51,1.279,0.973,1.551,1.388c0.271,0.417,0.458,0.741,0.56,0.973c0.102,0.232,0.187,0.51,0.255,0.834
		c0.068,0.325,0.11,0.637,0.127,0.938c0.017,0.3,0,0.683-0.051,1.146c-0.051,0.463-0.323,1.041-0.814,1.737
		c-0.491,0.695-0.916,1.191-1.271,1.494c-0.356,0.3-0.738,0.556-1.144,0.763c-0.407,0.208-0.941,0.44-1.602,0.695
		s-1.127,0.393-1.399,0.417c-0.271,0.023-0.56,0.047-0.864,0.069c-0.305,0.023-0.5,0.174-0.585,0.451
		c-0.085,0.278-0.221,0.671-0.407,1.181c-0.187,0.51-0.352,1.106-0.496,1.787c-0.145,0.683-0.29,1.146-0.439,1.388
		c-0.149,0.243-0.33,0.356-0.547,0.339c-0.216-0.018-0.358-0.104-0.426-0.26s0.102-1.132,0.508-2.925
		c0.406-1.793,0.848-3.455,1.322-4.982c0.475-1.527,0.738-2.453,0.788-2.778c0.051-0.325,0.102-0.521,0.153-0.59
		s0.147-0.547,0.286-1.432c0.14-0.885,0.064-1.324-0.228-1.319c-0.292,0.006-0.269-0.281,0.07-0.859
		c0.338-0.578,0.653-1.053,0.941-1.424s0.491-0.683,0.61-0.938c0.118-0.254,0.22-0.468,0.305-0.643
		c0.085-0.174,0.178-0.388,0.28-0.643C25.651,0.689,25.787,0.492,25.957,0.353z M26.49,5.872c-0.187-0.047-0.407,0.081-0.661,0.382
		c-0.254,0.301-0.526,0.891-0.813,1.77c-0.288,0.88-0.568,1.719-0.839,2.518c-0.271,0.799-0.466,1.372-0.585,1.719
		c-0.119,0.347,0.118,0.463,0.711,0.347c0.593-0.115,1.329-0.379,2.206-0.79c0.877-0.41,1.504-0.926,1.882-1.544
		c0.377-0.618,0.574-1.055,0.591-1.31c0.017-0.254,0.008-0.51-0.025-0.763c-0.034-0.254-0.153-0.567-0.356-0.938
		c-0.203-0.371-0.56-0.683-1.068-0.938C27.025,6.07,26.677,5.92,26.49,5.872z"/>
	<path d="M34.183,10.404c0.195-0.069,0.409-0.081,0.642-0.035c0.233,0.047,0.419,0.145,0.56,0.295c0.139,0.15,0.273,0.446,0.4,0.885
		c0.128,0.44,0.07,0.735-0.172,0.885s-0.46,0.098-0.655-0.156s-0.398-0.307-0.61-0.156s-0.421,0.304-0.63,0.46
		c-0.207,0.156-0.464,0.402-0.769,0.737c-0.305,0.335-0.619,0.763-0.941,1.284c-0.323,0.521-0.5,0.854-0.534,0.997
		c-0.034,0.145,0.048,0.124,0.248-0.061c0.199-0.185,0.504-0.466,0.916-0.841c0.411-0.375,0.928-0.761,1.551-1.154
		c0.622-0.393,1.017-0.547,1.182-0.46c0.166,0.088,0.307,0.247,0.426,0.477c0.118,0.232,0.187,0.432,0.203,0.599
		c0.017,0.168-0.002,0.301-0.058,0.4c-0.056,0.098-0.118,0.321-0.191,0.669c-0.072,0.347-0.066,0.683,0.019,1.006
		c0.085,0.325,0.193,0.547,0.324,0.669s0.311,0.156,0.541,0.104c0.228-0.052,0.51-0.29,0.846-0.711
		c0.335-0.423,0.32-0.325-0.044,0.295c-0.365,0.62-0.653,1.013-0.864,1.181c-0.212,0.168-0.377,0.249-0.496,0.243
		c-0.118-0.005-0.273-0.058-0.464-0.156c-0.191-0.098-0.371-0.252-0.541-0.46c-0.17-0.208-0.303-0.463-0.4-0.763
		s-0.163-0.524-0.197-0.669c-0.034-0.144-0.112-0.304-0.235-0.477c-0.124-0.174-0.273-0.212-0.452-0.113
		c-0.178,0.098-0.489,0.368-0.935,0.807c-0.445,0.44-0.86,0.801-1.246,1.085s-0.73,0.481-1.036,0.59
		c-0.305,0.11-0.502,0.147-0.591,0.113c-0.089-0.035-0.187-0.165-0.292-0.391s-0.168-0.472-0.184-0.737
		c-0.017-0.265,0.01-0.535,0.083-0.807c0.072-0.272,0.343-0.816,0.813-1.632s0.923-1.485,1.36-2.006
		c0.437-0.521,0.9-0.964,1.393-1.328C33.644,10.708,33.987,10.485,34.183,10.404z"/>
	<path d="M38.161,12.747c0.305-1.609,0.599-2.396,0.883-2.361c0.284,0.035,0.498,0.208,0.642,0.521
		c0.145,0.313,0.13,0.697-0.044,1.154c-0.174,0.457-0.191,0.671-0.051,0.643c0.139-0.029,0.324-0.144,0.553-0.347
		s0.447-0.365,0.655-0.486c0.207-0.122,0.375-0.199,0.502-0.234c0.127-0.035,0.371,0.023,0.731,0.174
		c0.359,0.15,0.701,0.362,1.024,0.634c0.322,0.272,0.748,0.295,1.277,0.069c0.53-0.225,0.473-0.15-0.172,0.225
		c-0.644,0.376-1.304,0.553-1.976,0.529c-0.674-0.022-1.195,0.087-1.563,0.33c-0.369,0.243-0.68,0.512-0.935,0.807
		s-0.489,0.781-0.705,1.459c-0.216,0.678-0.381,1.247-0.496,1.71c-0.115,0.463-0.216,0.842-0.305,1.137
		c-0.089,0.295-0.271,0.451-0.547,0.469s-0.458-0.119-0.547-0.409c-0.089-0.29-0.11-0.477-0.064-0.565
		c0.046-0.088,0.174-0.616,0.381-1.588C37.612,15.647,37.865,14.356,38.161,12.747z"/>
	<path d="M45.738,6.585c0.102-0.162,0.263-0.232,0.483-0.208c0.22,0.023,0.381,0.116,0.483,0.278
		c0.102,0.162,0.187,0.359,0.255,0.59c0.068,0.232,0.056,0.475-0.039,0.728c-0.093,0.255-0.182,0.587-0.267,0.997
		c-0.085,0.41-0.195,0.987-0.33,1.728c-0.136,0.741-0.127,1.158,0.025,1.249c0.153,0.093,0.415,0.185,0.788,0.278
		c0.373,0.093,0.968,0.128,1.787,0.104c0.818-0.022,0.773,0.058-0.133,0.243c-0.907,0.185-1.579,0.353-2.015,0.503
		c-0.437,0.15-0.725,0.257-0.864,0.321c-0.14,0.063-0.377,0.706-0.711,1.927c-0.335,1.221-0.555,2.034-0.661,2.439
		c-0.106,0.406-0.218,0.678-0.336,0.816c-0.118,0.139-0.271,0.243-0.458,0.313c-0.187,0.069-0.356,0.058-0.508-0.035
		c-0.153-0.093-0.151-0.468,0.006-1.128c0.156-0.66,0.371-1.441,0.642-2.343c0.271-0.903,0.42-1.464,0.444-1.684
		c0.026-0.22-0.085-0.3-0.33-0.243c-0.246,0.058-0.464,0.09-0.655,0.096c-0.191,0.006-0.284-0.156-0.28-0.486
		c0.004-0.331,0.159-0.6,0.464-0.807s0.576-0.316,0.813-0.322s0.45-0.457,0.636-1.354c0.187-0.896,0.297-1.494,0.33-1.787
		c0.034-0.293,0.088-0.695,0.166-1.204C45.547,7.083,45.636,6.747,45.738,6.585z"/>
	<path d="M49.158,10.664c0.178-0.115,0.404-0.093,0.68,0.069s0.334,0.463,0.178,0.903c-0.157,0.44-0.413,1.165-0.769,2.178
		c-0.356,1.013-0.392,1.291-0.108,0.834c0.284-0.457,0.627-0.922,1.03-1.397c0.402-0.475,0.693-0.781,0.871-0.92
		c0.178-0.139,0.371-0.243,0.578-0.313c0.207-0.069,0.443-0.053,0.705,0.053c0.263,0.104,0.487,0.397,0.674,0.877
		c0.187,0.481,0.286,1.273,0.299,2.378c0.013,1.106,0.212,1.646,0.597,1.622c0.386-0.022,0.761-0.216,1.125-0.581
		s0.636-0.735,0.813-1.111c0.178-0.375,0.255-0.477,0.229-0.304c-0.026,0.174-0.124,0.428-0.292,0.763
		c-0.17,0.335-0.529,0.856-1.08,1.562c-0.551,0.706-1.028,1.066-1.43,1.076c-0.402,0.012-0.695-0.208-0.877-0.66
		c-0.182-0.451-0.301-1.172-0.356-2.161c-0.056-0.991-0.151-1.494-0.286-1.511c-0.136-0.018-0.433,0.168-0.891,0.556
		c-0.458,0.388-0.877,0.894-1.258,1.518c-0.381,0.625-0.693,1.154-0.935,1.588c-0.241,0.433-0.46,0.697-0.655,0.79
		s-0.354,0.023-0.477-0.208c-0.124-0.232-0.166-0.515-0.127-0.85c0.038-0.335,0.112-0.85,0.222-1.544
		c0.11-0.695,0.267-1.425,0.47-2.196c0.203-0.77,0.157-1.022-0.14-0.755c-0.297,0.266-0.659,0.669-1.087,1.207
		c-0.428,0.538-0.276,0.284,0.458-0.763c0.733-1.048,1.14-1.658,1.221-1.831s0.159-0.333,0.235-0.477
		C48.853,10.91,48.98,10.779,49.158,10.664z"/>
	<path d="M57.587,10.3c0.568-0.058,0.913,0.072,1.036,0.391c0.123,0.318,0.18,0.723,0.172,1.216
		c-0.008,0.492-0.178,0.909-0.508,1.249c-0.33,0.341-0.767,0.68-1.309,1.015c-0.153,0.081-0.29,0.124-0.414,0.131
		c-0.123,0.006-0.224,0-0.305-0.018c-0.081-0.018-0.144-0.035-0.191-0.053c-0.047-0.018-0.074-0.009-0.083,0.026
		c-0.153,0.335-0.231,0.671-0.235,1.006c-0.004,0.335,0.076,0.644,0.242,0.929c0.166,0.284,0.349,0.449,0.553,0.494
		c0.203,0.047,0.415,0.038,0.636-0.026c0.22-0.063,0.627-0.263,1.221-0.599c0.593-0.335,1.006-0.651,1.24-0.947
		c0.234-0.295,0.456-0.582,0.667-0.86s0.242-0.278,0.089,0s-0.342,0.613-0.566,1.006c-0.225,0.393-0.505,0.784-0.839,1.172
		c-0.335,0.388-0.609,0.686-0.82,0.894c-0.212,0.208-0.494,0.397-0.846,0.565s-0.697,0.22-1.036,0.156
		c-0.338-0.063-0.593-0.171-0.763-0.321c-0.17-0.15-0.326-0.33-0.47-0.538c-0.145-0.208-0.263-0.454-0.356-0.737
		c-0.093-0.283-0.143-0.671-0.147-1.163c-0.004-0.492,0.081-1.028,0.255-1.606s0.371-1.059,0.591-1.441
		c0.22-0.382,0.519-0.766,0.896-1.154C56.673,10.702,57.104,10.438,57.587,10.3z M57.6,11.863c-0.06-0.081-0.205-0.04-0.439,0.122
		c-0.233,0.162-0.402,0.344-0.508,0.547s-0.125,0.35-0.058,0.443c0.068,0.093,0.212,0.055,0.433-0.113
		c0.22-0.168,0.396-0.335,0.527-0.503C57.687,12.189,57.701,12.024,57.6,11.863z"/>
	<path d="M60.803,12.747c0.305-1.609,0.599-2.396,0.883-2.361c0.284,0.035,0.498,0.208,0.642,0.521
		c0.145,0.313,0.13,0.697-0.044,1.154c-0.174,0.457-0.191,0.671-0.051,0.643c0.139-0.029,0.324-0.144,0.553-0.347
		s0.447-0.365,0.655-0.486c0.207-0.122,0.375-0.199,0.502-0.234c0.127-0.035,0.371,0.023,0.731,0.174
		c0.36,0.15,0.701,0.362,1.024,0.634c0.322,0.272,0.748,0.295,1.277,0.069c0.529-0.225,0.473-0.15-0.172,0.225
		c-0.644,0.376-1.304,0.553-1.976,0.529c-0.674-0.022-1.195,0.087-1.563,0.33c-0.369,0.243-0.68,0.512-0.935,0.807
		s-0.489,0.781-0.705,1.459c-0.216,0.678-0.381,1.247-0.496,1.71c-0.115,0.463-0.216,0.842-0.305,1.137
		c-0.089,0.295-0.271,0.451-0.547,0.469s-0.458-0.119-0.547-0.409c-0.089-0.29-0.11-0.477-0.064-0.565
		c0.046-0.088,0.174-0.616,0.381-1.588C60.255,15.647,60.506,14.356,60.803,12.747z"/>
	<path d="M68.329,10.526c0.338-0.232,0.678-0.382,1.017-0.451c0.338-0.069,0.545,0.018,0.616,0.26
		c0.072,0.243,0.039,0.481-0.102,0.713c-0.139,0.232-0.33,0.362-0.572,0.391c-0.242,0.029-0.502,0.266-0.782,0.711
		c-0.28,0.446-0.441,0.973-0.483,1.58c-0.043,0.607-0.031,1.028,0.031,1.258c0.064,0.232,0.133,0.683,0.21,1.354
		c0.075,0.671,0.025,1.247-0.153,1.728s-0.369,0.83-0.572,1.05c-0.203,0.22-0.456,0.382-0.757,0.486
		c-0.301,0.104-0.557,0.156-0.769,0.156s-0.439-0.069-0.68-0.208c-0.241-0.139-0.39-0.426-0.444-0.859
		c-0.056-0.435,0.39-1.238,1.335-2.413c0.945-1.174,1.02-1.209,0.222-0.104c-0.796,1.106-1.109,1.791-0.935,2.056
		c0.174,0.266,0.381,0.335,0.623,0.208c0.241-0.128,0.433-0.298,0.572-0.512c0.14-0.215,0.244-0.475,0.311-0.781
		c0.068-0.307,0.097-0.591,0.089-0.85c-0.008-0.26-0.074-0.839-0.197-1.737c-0.123-0.896-0.123-1.571,0-2.023
		s0.305-0.842,0.547-1.172C67.7,11.038,67.99,10.757,68.329,10.526z"/>
</g>
<path id="fr4" style="fill:#D52147;" d="M20.085,10.051c0,5.209-4.179,9.434-9.334,9.434c-5.153-0.001-9.334-4.225-9.334-9.434
	c0-5.212,4.18-9.434,9.334-9.434C15.907,0.617,20.085,4.84,20.085,10.051"/>
</svg>
