<?xml version="1.0" encoding="iso-8859-1"?>
<!-- Generator: Adobe Illustrator 19.2.1, SVG Export Plug-In . SVG Version: 6.00 Build 0)  -->
<svg version="1.1" id="Layer_1" xmlns="http://www.w3.org/2000/svg" xmlns:xlink="http://www.w3.org/1999/xlink" x="0px" y="0px"
	 viewBox="0 0 70 20" style="enable-background:new 0 0 70 20;" xml:space="preserve">
<g>
	<path d="M26.602,1.711c0.162-0.111,0.348-0.12,0.558-0.028c0.21,0.093,0.364,0.231,0.461,0.416
		c0.097,0.185,0.121,0.347,0.073,0.485s-0.105,0.319-0.17,0.541c-0.065,0.222-0.105,0.416-0.121,0.582
		c-0.016,0.166,0,0.277,0.049,0.333c0.049,0.055,0.437,0.287,1.165,0.693c0.728,0.407,1.221,0.777,1.48,1.109
		c0.259,0.333,0.437,0.592,0.534,0.777c0.097,0.185,0.178,0.407,0.243,0.666c0.065,0.259,0.105,0.509,0.121,0.749
		c0.016,0.24,0,0.546-0.049,0.915c-0.049,0.37-0.308,0.832-0.777,1.387c-0.469,0.555-0.874,0.952-1.213,1.193
		c-0.34,0.24-0.704,0.444-1.092,0.61c-0.388,0.166-0.898,0.351-1.529,0.555c-0.631,0.204-1.076,0.314-1.335,0.333
		c-0.259,0.019-0.534,0.037-0.825,0.055c-0.291,0.019-0.477,0.139-0.558,0.361c-0.081,0.222-0.211,0.536-0.388,0.943
		c-0.178,0.407-0.336,0.883-0.473,1.428c-0.138,0.546-0.277,0.915-0.419,1.109c-0.142,0.194-0.315,0.284-0.522,0.271
		c-0.206-0.014-0.342-0.083-0.407-0.208c-0.065-0.125,0.097-0.904,0.485-2.337c0.388-1.433,0.809-2.76,1.262-3.98
		c0.453-1.22,0.704-1.96,0.752-2.219c0.049-0.259,0.097-0.416,0.146-0.471c0.049-0.055,0.14-0.437,0.273-1.144
		c0.134-0.707,0.061-1.058-0.218-1.054c-0.279,0.005-0.257-0.224,0.067-0.686c0.323-0.462,0.623-0.841,0.898-1.137
		c0.275-0.296,0.469-0.545,0.582-0.749c0.113-0.203,0.21-0.374,0.291-0.513c0.081-0.139,0.17-0.31,0.267-0.513
		C26.31,1.979,26.44,1.822,26.602,1.711z M27.111,6.12c-0.178-0.037-0.388,0.065-0.631,0.305c-0.243,0.24-0.502,0.712-0.776,1.414
		c-0.275,0.703-0.542,1.373-0.801,2.011c-0.259,0.638-0.445,1.096-0.558,1.373c-0.113,0.277,0.113,0.37,0.679,0.277
		c0.566-0.092,1.268-0.303,2.105-0.631c0.837-0.328,1.435-0.74,1.796-1.234c0.36-0.494,0.548-0.843,0.564-1.047
		c0.016-0.203,0.008-0.407-0.024-0.61c-0.032-0.203-0.146-0.453-0.34-0.749c-0.194-0.296-0.534-0.545-1.019-0.749
		C27.621,6.278,27.289,6.158,27.111,6.12z"/>
	<path d="M34.452,9.74c0.186-0.055,0.39-0.065,0.613-0.028c0.222,0.037,0.4,0.116,0.534,0.236c0.133,0.12,0.261,0.356,0.382,0.707
		c0.122,0.351,0.067,0.587-0.164,0.707c-0.231,0.12-0.439,0.079-0.625-0.125c-0.186-0.203-0.38-0.245-0.582-0.125
		c-0.202,0.12-0.402,0.243-0.601,0.368c-0.198,0.125-0.443,0.321-0.734,0.589c-0.291,0.268-0.591,0.61-0.898,1.026
		c-0.308,0.416-0.477,0.682-0.51,0.797c-0.032,0.116,0.046,0.099,0.237-0.049c0.19-0.148,0.481-0.372,0.874-0.672
		c0.392-0.3,0.886-0.608,1.48-0.922c0.594-0.314,0.971-0.437,1.128-0.368c0.158,0.07,0.293,0.197,0.407,0.381
		c0.113,0.185,0.178,0.345,0.194,0.478c0.016,0.134-0.002,0.241-0.055,0.319c-0.053,0.079-0.113,0.256-0.182,0.534
		c-0.069,0.277-0.063,0.546,0.018,0.804c0.081,0.259,0.184,0.437,0.309,0.534c0.125,0.097,0.297,0.125,0.516,0.083
		c0.218-0.041,0.487-0.231,0.807-0.568c0.32-0.338,0.305-0.259-0.042,0.236c-0.348,0.495-0.623,0.809-0.825,0.943
		c-0.202,0.134-0.36,0.199-0.473,0.194c-0.113-0.004-0.261-0.046-0.443-0.125c-0.182-0.078-0.354-0.201-0.516-0.368
		c-0.162-0.166-0.289-0.37-0.382-0.61c-0.093-0.24-0.156-0.418-0.188-0.534c-0.032-0.115-0.107-0.243-0.224-0.381
		c-0.118-0.139-0.261-0.169-0.431-0.09c-0.17,0.079-0.467,0.294-0.892,0.645c-0.425,0.351-0.821,0.64-1.189,0.867
		c-0.368,0.227-0.697,0.384-0.989,0.471c-0.291,0.088-0.479,0.118-0.564,0.09c-0.085-0.028-0.178-0.132-0.279-0.312
		c-0.101-0.18-0.16-0.377-0.176-0.589c-0.016-0.212,0.01-0.428,0.079-0.645c0.069-0.217,0.327-0.652,0.776-1.304
		c0.449-0.652,0.881-1.186,1.298-1.602c0.417-0.416,0.859-0.77,1.329-1.061C33.938,9.983,34.265,9.805,34.452,9.74z"/>
	<path d="M38.249,11.612c0.291-1.285,0.572-1.914,0.843-1.886c0.271,0.028,0.475,0.166,0.613,0.416
		c0.138,0.25,0.124,0.557-0.042,0.922c-0.166,0.365-0.182,0.536-0.049,0.513c0.133-0.023,0.309-0.115,0.528-0.277
		c0.219-0.162,0.427-0.291,0.625-0.388c0.198-0.097,0.358-0.159,0.479-0.187c0.121-0.028,0.354,0.019,0.698,0.139
		c0.343,0.12,0.669,0.289,0.977,0.506c0.307,0.217,0.714,0.236,1.219,0.055c0.506-0.18,0.451-0.12-0.164,0.18
		c-0.615,0.301-1.244,0.442-1.886,0.423c-0.643-0.018-1.14,0.069-1.492,0.263c-0.352,0.194-0.649,0.409-0.892,0.645
		c-0.243,0.236-0.467,0.624-0.673,1.165c-0.206,0.541-0.364,0.996-0.473,1.366c-0.109,0.37-0.206,0.673-0.291,0.908
		c-0.085,0.236-0.259,0.361-0.522,0.375c-0.263,0.014-0.437-0.095-0.522-0.326c-0.085-0.231-0.105-0.381-0.061-0.451
		c0.044-0.07,0.166-0.492,0.364-1.269C37.725,13.928,37.966,12.897,38.249,11.612z"/>
	<path d="M45.48,6.689c0.097-0.129,0.251-0.185,0.461-0.166c0.21,0.019,0.364,0.093,0.461,0.222
		c0.097,0.129,0.178,0.287,0.243,0.471c0.065,0.185,0.053,0.379-0.037,0.582c-0.089,0.204-0.174,0.469-0.255,0.797
		c-0.081,0.328-0.186,0.788-0.315,1.38c-0.13,0.592-0.121,0.925,0.024,0.998c0.146,0.074,0.396,0.148,0.752,0.222
		c0.356,0.074,0.924,0.102,1.705,0.083c0.781-0.018,0.738,0.046-0.127,0.194c-0.866,0.148-1.507,0.282-1.923,0.402
		c-0.417,0.12-0.692,0.206-0.825,0.256c-0.134,0.051-0.36,0.564-0.679,1.539c-0.32,0.975-0.53,1.625-0.631,1.948
		c-0.101,0.324-0.208,0.541-0.321,0.652c-0.113,0.111-0.259,0.194-0.437,0.25c-0.178,0.055-0.34,0.046-0.485-0.028
		c-0.146-0.074-0.144-0.374,0.006-0.901c0.149-0.527,0.354-1.151,0.613-1.872c0.259-0.721,0.401-1.169,0.424-1.345
		c0.025-0.176-0.081-0.24-0.315-0.194c-0.235,0.046-0.443,0.072-0.625,0.076c-0.182,0.005-0.271-0.125-0.267-0.388
		c0.004-0.264,0.152-0.479,0.443-0.645c0.291-0.166,0.55-0.252,0.776-0.257c0.226-0.005,0.429-0.365,0.607-1.082
		c0.178-0.716,0.283-1.193,0.315-1.428C45.1,8.221,45.152,7.9,45.226,7.493C45.298,7.087,45.383,6.818,45.48,6.689z"/>
	<path d="M48.744,9.948c0.17-0.092,0.386-0.074,0.649,0.055c0.263,0.129,0.319,0.37,0.17,0.721c-0.15,0.351-0.394,0.931-0.734,1.74
		c-0.34,0.809-0.374,1.031-0.103,0.666c0.271-0.365,0.598-0.737,0.983-1.116c0.384-0.379,0.661-0.624,0.831-0.735
		c0.17-0.111,0.354-0.194,0.552-0.25c0.198-0.055,0.423-0.042,0.673,0.042c0.251,0.083,0.465,0.317,0.643,0.7
		c0.178,0.384,0.273,1.017,0.285,1.9c0.012,0.883,0.202,1.315,0.57,1.296c0.368-0.018,0.726-0.173,1.074-0.464
		c0.348-0.291,0.607-0.587,0.776-0.887c0.17-0.3,0.243-0.381,0.219-0.243c-0.025,0.139-0.118,0.342-0.279,0.61
		c-0.162,0.268-0.505,0.684-1.031,1.248c-0.526,0.564-0.981,0.851-1.365,0.86c-0.384,0.009-0.663-0.166-0.837-0.527
		c-0.174-0.361-0.287-0.936-0.34-1.726c-0.053-0.791-0.144-1.193-0.273-1.207c-0.13-0.014-0.413,0.134-0.85,0.444
		c-0.437,0.31-0.837,0.714-1.201,1.213c-0.364,0.499-0.661,0.922-0.892,1.269c-0.23,0.346-0.439,0.557-0.625,0.631
		c-0.186,0.074-0.338,0.019-0.455-0.166c-0.118-0.185-0.158-0.411-0.121-0.679c0.036-0.268,0.107-0.679,0.212-1.234
		c0.105-0.555,0.255-1.139,0.449-1.754c0.194-0.615,0.15-0.816-0.134-0.603c-0.283,0.213-0.629,0.534-1.037,0.964
		c-0.408,0.43-0.263,0.227,0.437-0.61c0.7-0.837,1.088-1.324,1.165-1.463c0.077-0.139,0.152-0.266,0.224-0.381
		C48.453,10.144,48.574,10.04,48.744,9.948z"/>
	<path d="M56.788,9.657c0.542-0.046,0.871,0.058,0.989,0.312c0.117,0.254,0.172,0.578,0.164,0.971
		c-0.008,0.393-0.17,0.726-0.485,0.998c-0.315,0.273-0.732,0.543-1.249,0.811c-0.146,0.065-0.277,0.099-0.395,0.104
		c-0.117,0.005-0.214,0-0.291-0.014c-0.077-0.014-0.137-0.028-0.182-0.042c-0.045-0.014-0.071-0.007-0.079,0.021
		c-0.146,0.268-0.22,0.536-0.224,0.804c-0.004,0.268,0.073,0.515,0.231,0.742c0.158,0.227,0.333,0.358,0.528,0.395
		c0.194,0.037,0.396,0.03,0.607-0.021c0.21-0.051,0.598-0.21,1.165-0.478c0.566-0.268,0.96-0.52,1.183-0.756
		c0.223-0.236,0.435-0.465,0.637-0.687c0.202-0.222,0.231-0.222,0.085,0c-0.146,0.222-0.326,0.49-0.54,0.804
		c-0.215,0.314-0.482,0.626-0.801,0.936c-0.32,0.31-0.581,0.548-0.783,0.714c-0.202,0.166-0.471,0.317-0.807,0.451
		c-0.336,0.134-0.665,0.176-0.989,0.125c-0.323-0.051-0.566-0.136-0.728-0.256c-0.162-0.12-0.311-0.263-0.449-0.43
		c-0.138-0.166-0.251-0.363-0.34-0.589c-0.089-0.226-0.136-0.536-0.14-0.929c-0.004-0.393,0.077-0.821,0.243-1.283
		c0.166-0.462,0.354-0.846,0.564-1.151c0.21-0.305,0.495-0.612,0.855-0.922C55.916,9.978,56.327,9.767,56.788,9.657z M56.8,10.905
		c-0.057-0.065-0.196-0.032-0.419,0.097c-0.222,0.129-0.384,0.275-0.485,0.437c-0.101,0.162-0.119,0.28-0.055,0.354
		c0.065,0.074,0.202,0.044,0.413-0.09c0.21-0.134,0.378-0.268,0.503-0.402C56.883,11.166,56.897,11.034,56.8,10.905z"/>
	<path d="M59.857,11.612c0.291-1.285,0.572-1.914,0.843-1.886c0.271,0.028,0.475,0.166,0.613,0.416
		c0.138,0.25,0.124,0.557-0.042,0.922c-0.166,0.365-0.182,0.536-0.049,0.513c0.133-0.023,0.309-0.115,0.528-0.277
		c0.219-0.162,0.427-0.291,0.625-0.388c0.198-0.097,0.358-0.159,0.479-0.187c0.121-0.028,0.354,0.019,0.698,0.139
		c0.344,0.12,0.669,0.289,0.977,0.506c0.307,0.217,0.714,0.236,1.219,0.055c0.505-0.18,0.451-0.12-0.164,0.18
		c-0.615,0.301-1.244,0.442-1.886,0.423c-0.643-0.018-1.14,0.069-1.492,0.263c-0.352,0.194-0.649,0.409-0.892,0.645
		c-0.243,0.236-0.467,0.624-0.673,1.165c-0.206,0.541-0.364,0.996-0.473,1.366c-0.109,0.37-0.206,0.673-0.291,0.908
		c-0.085,0.236-0.259,0.361-0.522,0.375c-0.263,0.014-0.437-0.095-0.522-0.326c-0.085-0.231-0.105-0.381-0.061-0.451
		c0.044-0.07,0.166-0.492,0.364-1.269C59.334,13.928,59.574,12.897,59.857,11.612z"/>
	<path d="M67.04,9.837c0.323-0.185,0.647-0.305,0.971-0.361c0.323-0.055,0.52,0.014,0.588,0.208
		c0.069,0.194,0.037,0.384-0.097,0.569c-0.133,0.185-0.315,0.289-0.546,0.312c-0.231,0.023-0.479,0.213-0.746,0.568
		c-0.267,0.356-0.421,0.777-0.461,1.262c-0.041,0.485-0.03,0.821,0.03,1.005c0.061,0.185,0.127,0.546,0.2,1.082
		c0.072,0.536,0.024,0.996-0.146,1.38c-0.17,0.384-0.352,0.663-0.546,0.839c-0.194,0.176-0.435,0.305-0.722,0.388
		c-0.287,0.083-0.532,0.125-0.734,0.125c-0.202,0-0.419-0.055-0.649-0.166c-0.23-0.111-0.372-0.34-0.424-0.686
		c-0.053-0.347,0.372-0.989,1.274-1.928c0.902-0.938,0.973-0.966,0.212-0.083c-0.76,0.883-1.058,1.431-0.892,1.643
		c0.166,0.213,0.364,0.268,0.595,0.166c0.23-0.102,0.413-0.238,0.546-0.409c0.134-0.171,0.233-0.379,0.297-0.624
		c0.065-0.245,0.093-0.472,0.085-0.679c-0.008-0.208-0.071-0.67-0.188-1.387c-0.117-0.716-0.117-1.255,0-1.616
		c0.117-0.361,0.291-0.673,0.522-0.936C66.439,10.246,66.716,10.022,67.04,9.837z"/>
</g>
<path id="fr4" style="fill:#D52147;" d="M21.927,10.304c0,4.795-4.908,8.684-10.964,8.684C4.91,18.987,0,15.099,0,10.304
	C0,5.507,4.91,1.62,10.964,1.62C17.02,1.62,21.927,5.507,21.927,10.304"/>
</svg>
