<?xml version="1.0" encoding="iso-8859-1"?>
<!-- Generator: Adobe Illustrator 19.2.1, SVG Export Plug-In . SVG Version: 6.00 Build 0)  -->
<svg version="1.1" id="Layer_1" xmlns="http://www.w3.org/2000/svg" xmlns:xlink="http://www.w3.org/1999/xlink" x="0px" y="0px"
	 viewBox="0 0 70 20" style="enable-background:new 0 0 70 20;" xml:space="preserve">
<g>
	<path d="M25.957,0.117c0.17-0.143,0.365-0.154,0.585-0.036c0.22,0.119,0.381,0.297,0.483,0.534
		c0.102,0.238,0.127,0.446,0.076,0.623s-0.11,0.41-0.178,0.695s-0.11,0.534-0.127,0.747c-0.017,0.213,0,0.356,0.051,0.428
		c0.051,0.071,0.458,0.368,1.221,0.89c0.763,0.523,1.279,0.998,1.551,1.424c0.271,0.428,0.458,0.76,0.56,0.998
		c0.102,0.238,0.187,0.523,0.255,0.855c0.068,0.333,0.11,0.653,0.127,0.962c0.017,0.308,0,0.701-0.051,1.175
		c-0.051,0.475-0.323,1.068-0.814,1.781c-0.491,0.713-0.916,1.222-1.271,1.532c-0.356,0.308-0.738,0.57-1.144,0.783
		c-0.407,0.213-0.941,0.451-1.602,0.713c-0.661,0.262-1.127,0.403-1.399,0.428c-0.271,0.024-0.56,0.048-0.864,0.071
		c-0.305,0.024-0.5,0.178-0.585,0.463c-0.085,0.285-0.221,0.688-0.407,1.211c-0.187,0.523-0.352,1.134-0.496,1.833
		c-0.145,0.701-0.29,1.175-0.439,1.424c-0.149,0.249-0.33,0.365-0.547,0.348c-0.216-0.018-0.358-0.107-0.426-0.267
		c-0.068-0.16,0.102-1.161,0.508-3s0.848-3.544,1.322-5.11c0.475-1.566,0.738-2.516,0.788-2.849
		c0.051-0.333,0.102-0.534,0.153-0.605s0.147-0.561,0.286-1.469c0.14-0.908,0.064-1.358-0.228-1.353
		c-0.292,0.006-0.269-0.288,0.07-0.881c0.338-0.593,0.653-1.08,0.941-1.46c0.288-0.38,0.491-0.7,0.61-0.962
		c0.118-0.261,0.22-0.48,0.305-0.659c0.085-0.178,0.178-0.398,0.28-0.659C25.651,0.461,25.787,0.259,25.957,0.117z M26.49,5.777
		c-0.187-0.048-0.407,0.083-0.661,0.392s-0.526,0.914-0.813,1.815c-0.288,0.903-0.568,1.763-0.839,2.582
		c-0.271,0.819-0.466,1.407-0.585,1.763s0.118,0.475,0.711,0.356c0.593-0.118,1.329-0.389,2.206-0.81
		c0.877-0.421,1.504-0.95,1.882-1.584c0.377-0.634,0.574-1.082,0.591-1.344c0.017-0.261,0.008-0.523-0.025-0.783
		c-0.034-0.261-0.153-0.582-0.356-0.962c-0.203-0.38-0.56-0.7-1.068-0.962C27.025,5.98,26.677,5.826,26.49,5.777z"/>
	<path d="M34.183,10.425c0.195-0.071,0.409-0.083,0.642-0.036c0.233,0.048,0.419,0.149,0.56,0.303
		c0.139,0.154,0.273,0.457,0.4,0.908c0.128,0.451,0.07,0.754-0.172,0.908s-0.46,0.101-0.655-0.16
		c-0.195-0.261-0.398-0.315-0.61-0.16s-0.421,0.312-0.63,0.472c-0.207,0.16-0.464,0.412-0.769,0.756
		c-0.305,0.344-0.619,0.783-0.941,1.317c-0.323,0.534-0.5,0.876-0.534,1.023c-0.034,0.149,0.048,0.127,0.248-0.063
		c0.199-0.19,0.504-0.478,0.916-0.863c0.411-0.385,0.928-0.781,1.551-1.184c0.622-0.403,1.017-0.561,1.182-0.472
		c0.166,0.09,0.307,0.253,0.426,0.489c0.118,0.238,0.187,0.443,0.203,0.614c0.017,0.172-0.002,0.309-0.058,0.41
		c-0.056,0.101-0.118,0.329-0.191,0.686c-0.072,0.356-0.066,0.701,0.019,1.032c0.085,0.333,0.193,0.561,0.324,0.686
		c0.131,0.125,0.311,0.16,0.541,0.107c0.228-0.053,0.51-0.297,0.846-0.729c0.335-0.434,0.32-0.333-0.044,0.303
		c-0.365,0.636-0.653,1.039-0.864,1.211c-0.212,0.172-0.377,0.255-0.496,0.249c-0.118-0.005-0.273-0.059-0.464-0.16
		c-0.191-0.1-0.371-0.258-0.541-0.472c-0.17-0.213-0.303-0.475-0.4-0.783s-0.163-0.537-0.197-0.686
		c-0.034-0.148-0.112-0.312-0.235-0.489c-0.124-0.178-0.273-0.217-0.452-0.116c-0.178,0.101-0.489,0.377-0.935,0.828
		c-0.445,0.451-0.86,0.822-1.246,1.113c-0.386,0.291-0.73,0.493-1.036,0.605c-0.305,0.113-0.502,0.151-0.591,0.116
		c-0.089-0.036-0.187-0.169-0.292-0.401s-0.168-0.484-0.184-0.756c-0.017-0.272,0.01-0.549,0.083-0.828
		c0.072-0.279,0.343-0.837,0.813-1.674c0.47-0.837,0.923-1.523,1.36-2.057c0.437-0.534,0.9-0.989,1.393-1.362
		C33.644,10.737,33.987,10.508,34.183,10.425z"/>
	<path d="M38.161,12.828c0.305-1.65,0.599-2.457,0.883-2.421c0.284,0.036,0.498,0.213,0.642,0.534
		c0.145,0.321,0.13,0.715-0.044,1.184c-0.174,0.469-0.191,0.688-0.051,0.659c0.139-0.03,0.324-0.148,0.553-0.356
		c0.229-0.208,0.447-0.374,0.655-0.498c0.207-0.125,0.375-0.204,0.502-0.24c0.127-0.036,0.371,0.024,0.731,0.178
		c0.359,0.154,0.701,0.371,1.024,0.65c0.322,0.279,0.748,0.303,1.277,0.071c0.53-0.231,0.473-0.154-0.172,0.231
		c-0.644,0.386-1.304,0.567-1.976,0.543c-0.674-0.023-1.195,0.089-1.563,0.338c-0.369,0.249-0.68,0.525-0.935,0.828
		c-0.255,0.303-0.489,0.801-0.705,1.496c-0.216,0.695-0.381,1.279-0.496,1.754s-0.216,0.864-0.305,1.166
		c-0.089,0.303-0.271,0.463-0.547,0.481c-0.276,0.018-0.458-0.122-0.547-0.419c-0.089-0.297-0.11-0.489-0.064-0.579
		c0.046-0.09,0.174-0.632,0.381-1.629C37.612,15.802,37.865,14.478,38.161,12.828z"/>
	<path d="M45.738,6.508c0.102-0.166,0.263-0.238,0.483-0.213c0.22,0.024,0.381,0.119,0.483,0.285
		c0.102,0.166,0.187,0.368,0.255,0.605c0.068,0.238,0.056,0.487-0.039,0.747c-0.093,0.262-0.182,0.602-0.267,1.023
		s-0.195,1.012-0.33,1.772c-0.136,0.76-0.127,1.188,0.025,1.281c0.153,0.095,0.415,0.19,0.788,0.285
		c0.373,0.095,0.968,0.131,1.787,0.107c0.818-0.023,0.773,0.059-0.133,0.249c-0.907,0.19-1.579,0.362-2.015,0.516
		c-0.437,0.154-0.725,0.264-0.864,0.329c-0.14,0.065-0.377,0.724-0.711,1.976c-0.335,1.252-0.555,2.086-0.661,2.501
		c-0.106,0.416-0.218,0.695-0.336,0.837c-0.118,0.143-0.271,0.249-0.458,0.321c-0.187,0.071-0.356,0.059-0.508-0.036
		c-0.153-0.095-0.151-0.48,0.006-1.157c0.156-0.677,0.371-1.478,0.642-2.403c0.271-0.926,0.42-1.501,0.444-1.727
		c0.026-0.226-0.085-0.308-0.33-0.249c-0.246,0.059-0.464,0.092-0.655,0.098c-0.191,0.006-0.284-0.16-0.28-0.498
		c0.004-0.339,0.159-0.615,0.464-0.828s0.576-0.324,0.813-0.33c0.237-0.006,0.45-0.469,0.636-1.389
		c0.187-0.919,0.297-1.532,0.33-1.833c0.034-0.3,0.088-0.713,0.166-1.235C45.547,7.019,45.636,6.674,45.738,6.508z"/>
	<path d="M49.158,10.692c0.178-0.118,0.404-0.095,0.68,0.071c0.276,0.166,0.334,0.475,0.178,0.926
		c-0.157,0.451-0.413,1.195-0.769,2.234c-0.356,1.039-0.392,1.324-0.108,0.855c0.284-0.469,0.627-0.946,1.03-1.433
		c0.402-0.487,0.693-0.801,0.871-0.944c0.178-0.143,0.371-0.249,0.578-0.321c0.207-0.071,0.443-0.054,0.705,0.054
		c0.263,0.107,0.487,0.407,0.674,0.899c0.187,0.493,0.286,1.306,0.299,2.439c0.013,1.134,0.212,1.688,0.597,1.664
		c0.386-0.023,0.761-0.222,1.125-0.596s0.636-0.754,0.813-1.139c0.178-0.385,0.255-0.489,0.229-0.312
		c-0.026,0.178-0.124,0.439-0.292,0.783c-0.17,0.344-0.529,0.878-1.08,1.602c-0.551,0.724-1.028,1.093-1.43,1.104
		c-0.402,0.012-0.695-0.213-0.877-0.677c-0.182-0.463-0.301-1.202-0.356-2.216c-0.056-1.016-0.151-1.532-0.286-1.55
		c-0.136-0.018-0.433,0.172-0.891,0.57c-0.458,0.398-0.877,0.917-1.258,1.557c-0.381,0.641-0.693,1.184-0.935,1.629
		c-0.241,0.444-0.46,0.715-0.655,0.81c-0.195,0.095-0.354,0.024-0.477-0.213c-0.124-0.238-0.166-0.528-0.127-0.872
		c0.038-0.344,0.112-0.872,0.222-1.584c0.11-0.713,0.267-1.462,0.47-2.252c0.203-0.79,0.157-1.048-0.14-0.774
		c-0.297,0.273-0.659,0.686-1.087,1.238c-0.428,0.552-0.276,0.291,0.458-0.783c0.733-1.075,1.14-1.7,1.221-1.878
		c0.081-0.178,0.159-0.342,0.235-0.489C48.853,10.944,48.98,10.81,49.158,10.692z"/>
	<path d="M57.587,10.318c0.568-0.059,0.913,0.074,1.036,0.401c0.123,0.326,0.18,0.742,0.172,1.247
		c-0.008,0.505-0.178,0.932-0.508,1.281c-0.33,0.35-0.767,0.697-1.309,1.041c-0.153,0.083-0.29,0.127-0.414,0.134
		c-0.123,0.006-0.224,0-0.305-0.018c-0.081-0.018-0.144-0.036-0.191-0.054c-0.047-0.018-0.074-0.009-0.083,0.027
		c-0.153,0.344-0.231,0.688-0.235,1.032c-0.004,0.344,0.076,0.661,0.242,0.953c0.166,0.291,0.349,0.46,0.553,0.507
		c0.203,0.048,0.415,0.039,0.636-0.027c0.22-0.065,0.627-0.27,1.221-0.614c0.593-0.344,1.006-0.668,1.24-0.971
		c0.234-0.303,0.456-0.597,0.667-0.882s0.242-0.285,0.089,0c-0.153,0.285-0.342,0.629-0.566,1.032
		c-0.225,0.403-0.505,0.804-0.839,1.202c-0.335,0.398-0.609,0.704-0.82,0.917c-0.212,0.213-0.494,0.407-0.846,0.579
		c-0.352,0.172-0.697,0.226-1.036,0.16c-0.338-0.065-0.593-0.175-0.763-0.329c-0.17-0.154-0.326-0.338-0.47-0.552
		c-0.145-0.213-0.263-0.466-0.356-0.756c-0.093-0.29-0.143-0.688-0.147-1.193c-0.004-0.505,0.081-1.054,0.255-1.647
		c0.174-0.593,0.371-1.086,0.591-1.478c0.22-0.392,0.519-0.786,0.896-1.184C56.673,10.731,57.104,10.46,57.587,10.318z M57.6,11.921
		c-0.06-0.083-0.205-0.041-0.439,0.125c-0.233,0.166-0.402,0.353-0.508,0.561c-0.106,0.208-0.125,0.359-0.058,0.454
		c0.068,0.095,0.212,0.056,0.433-0.116c0.22-0.172,0.396-0.344,0.527-0.516C57.687,12.256,57.701,12.086,57.6,11.921z"/>
	<path d="M60.803,12.828c0.305-1.65,0.599-2.457,0.883-2.421c0.284,0.036,0.498,0.213,0.642,0.534
		c0.145,0.321,0.13,0.715-0.044,1.184c-0.174,0.469-0.191,0.688-0.051,0.659c0.139-0.03,0.324-0.148,0.553-0.356
		c0.229-0.208,0.447-0.374,0.655-0.498c0.207-0.125,0.375-0.204,0.502-0.24c0.127-0.036,0.371,0.024,0.731,0.178
		c0.36,0.154,0.701,0.371,1.024,0.65c0.322,0.279,0.748,0.303,1.277,0.071c0.529-0.231,0.473-0.154-0.172,0.231
		c-0.644,0.386-1.304,0.567-1.976,0.543c-0.674-0.023-1.195,0.089-1.563,0.338c-0.369,0.249-0.68,0.525-0.935,0.828
		c-0.255,0.303-0.489,0.801-0.705,1.496c-0.216,0.695-0.381,1.279-0.496,1.754s-0.216,0.864-0.305,1.166
		c-0.089,0.303-0.271,0.463-0.547,0.481c-0.276,0.018-0.458-0.122-0.547-0.419c-0.089-0.297-0.11-0.489-0.064-0.579
		c0.046-0.09,0.174-0.632,0.381-1.629C60.255,15.802,60.506,14.478,60.803,12.828z"/>
	<path d="M68.329,10.55c0.338-0.238,0.678-0.392,1.017-0.463c0.338-0.071,0.545,0.018,0.616,0.267
		c0.072,0.249,0.039,0.493-0.102,0.731c-0.139,0.238-0.33,0.371-0.572,0.401c-0.242,0.03-0.502,0.273-0.782,0.729
		c-0.28,0.457-0.441,0.998-0.483,1.62c-0.043,0.623-0.031,1.054,0.031,1.29c0.064,0.238,0.133,0.701,0.21,1.389
		c0.075,0.688,0.025,1.279-0.153,1.772c-0.178,0.493-0.369,0.851-0.572,1.077c-0.203,0.226-0.456,0.392-0.757,0.498
		c-0.301,0.107-0.557,0.16-0.769,0.16c-0.212,0-0.439-0.071-0.68-0.213c-0.241-0.143-0.39-0.437-0.444-0.881
		c-0.056-0.446,0.39-1.27,1.335-2.475c0.945-1.204,1.02-1.24,0.222-0.107c-0.796,1.134-1.109,1.837-0.935,2.109
		c0.174,0.273,0.381,0.344,0.623,0.213c0.241-0.131,0.433-0.306,0.572-0.525c0.14-0.22,0.244-0.487,0.311-0.801
		c0.068-0.315,0.097-0.606,0.089-0.872c-0.008-0.267-0.074-0.86-0.197-1.781c-0.123-0.919-0.123-1.611,0-2.075
		s0.305-0.864,0.547-1.202C67.7,11.075,67.99,10.787,68.329,10.55z"/>
</g>
<path id="fr4" style="fill:#D52147;" d="M21.927,10.304c0,4.795-4.908,8.684-10.964,8.684C4.91,18.987,0,15.099,0,10.304
	C0,5.507,4.91,1.62,10.964,1.62C17.02,1.62,21.927,5.507,21.927,10.304"/>
</svg>
