<?xml version="1.0" encoding="iso-8859-1"?>
<!-- Generator: Adobe Illustrator 19.2.1, SVG Export Plug-In . SVG Version: 6.00 Build 0)  -->
<svg version="1.1" id="Layer_1" xmlns="http://www.w3.org/2000/svg" xmlns:xlink="http://www.w3.org/1999/xlink" x="0px" y="0px"
	 viewBox="0 0 70 20" style="enable-background:new 0 0 70 20;" xml:space="preserve">
<g>
	<path d="M32.85,2.397c1.028,0.111,1.702,0.198,2.024,0.259c0.322,0.062,0.887,0.136,1.698,0.223
		c0.811,0.086,1.349,0.262,1.616,0.528c0.266,0.266,0.276,0.513,0.029,0.74c-0.247,0.228-0.576,0.342-0.986,0.342
		c-0.41,0-0.794-0.025-1.15-0.074c-0.356-0.049-0.631-0.08-0.823-0.092C35.066,4.31,34.53,4.267,33.65,4.194
		c-0.88-0.075-1.48-0.105-1.802-0.092c-0.322,0.013-0.572,0.142-0.749,0.388c-0.178,0.247-0.405,0.562-0.682,0.944
		c-0.277,0.382-0.651,0.975-1.12,1.777c-0.47,0.802-0.947,1.703-1.431,2.703c-0.485,0.999-0.942,1.953-1.372,2.861
		s-0.645,1.614-0.645,2.12c0,0.506,0.096,0.849,0.289,1.028c0.193,0.179,0.443,0.188,0.749,0.027
		c0.306-0.161,0.546-0.269,0.719-0.325c0.173-0.055,0.419-0.194,0.741-0.417s0.665-0.506,1.03-0.851
		c0.366-0.345,0.349-0.25-0.052,0.287c-0.4,0.536-0.705,0.99-0.912,1.361c-0.207,0.371-0.598,0.842-1.172,1.416
		c-0.574,0.574-1.053,0.873-1.439,0.898c-0.386,0.025-0.729-0.089-1.031-0.342c-0.302-0.253-0.485-0.651-0.548-1.194
		c-0.064-0.543-0.096-1.031-0.096-1.462c0-0.431,0.079-0.907,0.237-1.426c0.158-0.519,0.366-1.058,0.622-1.62
		c0.257-0.562,0.742-1.521,1.454-2.879c0.712-1.357,1.374-2.638,1.987-3.842c0.613-1.203,0.66-1.79,0.141-1.758
		c-0.519,0.03-1.27,0.055-2.254,0.075c-0.984,0.019-1.722,0.049-2.217,0.092c-0.495,0.043-0.902,0.158-1.223,0.342
		c-0.322,0.185-0.652,0.173-0.993-0.037c-0.342-0.21-0.539-0.38-0.593-0.509c-0.054-0.129-0.059-0.219-0.015-0.269
		c0.044-0.049,0.215-0.219,0.512-0.509c0.296-0.29,0.605-0.533,0.927-0.732c0.322-0.197,1.421-0.278,3.3-0.24
		c1.878,0.037,3.013,0.068,3.404,0.092c0.391,0.025,0.803,0.053,1.239,0.083C31.09,2.215,31.822,2.286,32.85,2.397z"/>
	<path d="M36.572,7.804c0.662-0.062,1.065,0.077,1.209,0.417c0.143,0.339,0.21,0.772,0.2,1.296c-0.01,0.525-0.207,0.969-0.593,1.333
		c-0.386,0.364-0.895,0.726-1.528,1.084c-0.178,0.086-0.339,0.132-0.482,0.138c-0.143,0.007-0.262,0-0.356-0.019
		c-0.094-0.019-0.168-0.037-0.222-0.056c-0.054-0.019-0.087-0.009-0.096,0.027c-0.178,0.358-0.27,0.716-0.275,1.074
		c-0.005,0.358,0.089,0.688,0.282,0.99c0.193,0.302,0.408,0.479,0.645,0.528c0.237,0.05,0.484,0.04,0.741-0.027
		c0.257-0.068,0.732-0.28,1.423-0.638c0.692-0.358,1.174-0.694,1.446-1.009c0.272-0.315,0.532-0.621,0.779-0.917
		c0.247-0.296,0.282-0.296,0.103,0c-0.178,0.296-0.398,0.654-0.66,1.074c-0.263,0.42-0.589,0.836-0.979,1.249
		c-0.391,0.414-0.709,0.732-0.957,0.953c-0.247,0.223-0.576,0.423-0.987,0.602c-0.41,0.178-0.814,0.234-1.209,0.167
		c-0.396-0.068-0.692-0.181-0.89-0.342c-0.198-0.161-0.381-0.352-0.549-0.574c-0.169-0.223-0.306-0.484-0.415-0.786
		s-0.166-0.716-0.17-1.241c-0.005-0.525,0.094-1.095,0.296-1.712c0.203-0.617,0.432-1.13,0.689-1.537
		c0.257-0.407,0.605-0.818,1.046-1.231C35.506,8.232,36.008,7.952,36.572,7.804z M36.586,9.47c-0.07-0.086-0.24-0.043-0.512,0.129
		s-0.47,0.368-0.593,0.583c-0.123,0.216-0.146,0.374-0.067,0.473c0.079,0.099,0.247,0.059,0.504-0.121
		c0.257-0.178,0.462-0.358,0.615-0.537C36.688,9.819,36.705,9.642,36.586,9.47z"/>
	<path d="M44.476,7.914c0.227-0.075,0.477-0.086,0.749-0.037c0.272,0.05,0.489,0.154,0.652,0.315
		c0.163,0.161,0.319,0.476,0.468,0.944c0.148,0.469,0.082,0.784-0.2,0.944s-0.536,0.105-0.764-0.167
		c-0.227-0.272-0.465-0.327-0.712-0.167c-0.247,0.161-0.492,0.324-0.734,0.49c-0.242,0.167-0.541,0.429-0.897,0.786
		c-0.356,0.358-0.722,0.815-1.097,1.37c-0.376,0.555-0.583,0.91-0.622,1.065c-0.04,0.154,0.056,0.132,0.289-0.065
		c0.232-0.197,0.588-0.497,1.068-0.898c0.479-0.401,1.083-0.812,1.809-1.232c0.727-0.42,1.187-0.583,1.379-0.49
		c0.193,0.093,0.358,0.263,0.497,0.509c0.139,0.247,0.217,0.46,0.237,0.638c0.02,0.179-0.003,0.322-0.067,0.426
		c-0.064,0.105-0.139,0.342-0.223,0.713s-0.077,0.729,0.023,1.074c0.099,0.346,0.225,0.583,0.379,0.713
		c0.153,0.129,0.363,0.167,0.631,0.111c0.267-0.055,0.595-0.308,0.986-0.759c0.39-0.451,0.373-0.345-0.052,0.315
		c-0.425,0.661-0.761,1.081-1.008,1.259c-0.246,0.179-0.44,0.266-0.578,0.259c-0.139-0.006-0.319-0.062-0.541-0.167
		c-0.223-0.105-0.432-0.269-0.631-0.49c-0.198-0.223-0.353-0.493-0.468-0.815c-0.114-0.321-0.19-0.558-0.23-0.713
		c-0.04-0.154-0.131-0.324-0.275-0.509c-0.144-0.185-0.319-0.225-0.526-0.121c-0.207,0.105-0.571,0.392-1.09,0.861
		c-0.519,0.469-1.004,0.855-1.453,1.157c-0.45,0.302-0.853,0.512-1.209,0.63c-0.356,0.118-0.585,0.157-0.689,0.121
		c-0.103-0.037-0.217-0.176-0.341-0.417c-0.123-0.241-0.196-0.503-0.216-0.787c-0.02-0.283,0.013-0.571,0.097-0.861
		c0.084-0.289,0.4-0.87,0.95-1.741c0.548-0.87,1.077-1.583,1.586-2.138c0.509-0.555,1.05-1.028,1.625-1.416
		C43.848,8.238,44.249,8.001,44.476,7.914z"/>
	<path d="M49.949,8.248c0.376-0.641,0.682-0.95,0.92-0.926c0.237,0.025,0.391,0.148,0.459,0.371s0.129,0.429,0.178,0.621
		c0.049,0.191,0.099,0.469,0.149,0.833c0.049,0.364-0.151,1.071-0.601,2.12c-0.45,1.049-0.418,1.182,0.096,0.398
		c0.514-0.784,0.954-1.271,1.32-1.462c0.366-0.191,0.702-0.191,1.008,0c0.306,0.191,0.499,0.423,0.578,0.694
		c0.079,0.272,0.129,0.581,0.149,0.926c0.02,0.346,0.059,0.543,0.119,0.592c0.059,0.05,0.386-0.321,0.979-1.111
		c0.593-0.789,1.114-1.311,1.565-1.564c0.449-0.253,0.824-0.305,1.12-0.157s0.556,0.438,0.778,0.87
		c0.222,0.432,0.512,1.062,0.867,1.889c0.356,0.827,0.724,1.435,1.104,1.824c0.381,0.388,0.719,0.62,1.016,0.694
		c0.296,0.075,0.811-0.127,1.542-0.602c0.732-0.475,0.895-0.565,0.489-0.269c-0.406,0.296-0.814,0.552-1.223,0.769
		c-0.41,0.216-0.699,0.382-0.868,0.499c-0.168,0.118-0.398,0.22-0.689,0.306c-0.292,0.086-0.566,0.05-0.823-0.111
		c-0.257-0.161-0.505-0.367-0.742-0.62s-0.534-0.673-0.89-1.259c-0.356-0.586-0.611-1.022-0.764-1.305
		c-0.153-0.283-0.343-0.401-0.571-0.352c-0.227,0.05-0.465,0.207-0.712,0.473s-0.586,0.645-1.017,1.139
		c-0.429,0.494-0.767,1.012-1.008,1.555c-0.242,0.543-0.388,0.891-0.438,1.046c-0.049,0.154-0.178,0.371-0.385,0.648
		c-0.208,0.278-0.406,0.382-0.593,0.315c-0.188-0.068-0.324-0.191-0.408-0.371c-0.084-0.178-0.092-0.497-0.023-0.953
		c0.069-0.457,0.126-0.894,0.17-1.314c0.044-0.42,0.079-0.876,0.103-1.37c0.024-0.493-0.092-0.756-0.349-0.787
		c-0.257-0.03-0.685,0.322-1.283,1.055c-0.598,0.735-0.977,1.305-1.134,1.712c-0.159,0.407-0.284,0.697-0.379,0.87
		c-0.094,0.173-0.193,0.309-0.296,0.407c-0.103,0.099-0.312,0.086-0.623-0.037c-0.312-0.124-0.487-0.283-0.526-0.482
		c-0.04-0.197,0.034-0.598,0.222-1.203c0.188-0.605,0.435-1.537,0.741-2.796c0.306-1.259,0.519-2.055,0.638-2.388
		c0.119-0.333-0.705,0.272-2.47,1.814s-2.259,1.919-1.483,1.13c0.776-0.789,1.54-1.515,2.291-2.175
		C49.01,9.54,49.574,8.889,49.949,8.248z"/>
</g>
<path id="fr5" style="fill:#D52147;" d="M21.5,10.553c0,5.114-4.215,9.259-9.417,9.259c-5.2,0-9.417-4.145-9.417-9.259
	s4.216-9.259,9.417-9.259C17.285,1.294,21.5,5.439,21.5,10.553"/>
</svg>
