<?xml version="1.0" encoding="iso-8859-1"?>
<!-- Generator: Adobe Illustrator 19.2.1, SVG Export Plug-In . SVG Version: 6.00 Build 0)  -->
<svg version="1.1" id="Layer_1" xmlns="http://www.w3.org/2000/svg" xmlns:xlink="http://www.w3.org/1999/xlink" x="0px" y="0px"
	 viewBox="0 0 70 20" style="enable-background:new 0 0 70 20;" xml:space="preserve">
<g>
	<path d="M35.616,2.083c1.135,0.113,1.879,0.202,2.234,0.264c0.355,0.063,0.979,0.139,1.874,0.227
		c0.895,0.088,1.489,0.267,1.784,0.538c0.294,0.271,0.305,0.523,0.032,0.755c-0.273,0.233-0.636,0.349-1.088,0.349
		c-0.453,0-0.876-0.025-1.269-0.075c-0.393-0.05-0.696-0.082-0.908-0.094c-0.213-0.013-0.805-0.057-1.776-0.132
		c-0.971-0.076-1.634-0.107-1.989-0.094c-0.355,0.013-0.631,0.145-0.827,0.396c-0.196,0.252-0.447,0.573-0.753,0.963
		c-0.306,0.39-0.718,0.994-1.236,1.812c-0.519,0.818-1.045,1.737-1.579,2.756c-0.535,1.019-1.04,1.992-1.514,2.917
		c-0.474,0.925-0.712,1.646-0.712,2.162c0,0.516,0.106,0.866,0.319,1.048c0.213,0.183,0.489,0.192,0.827,0.028
		c0.338-0.164,0.603-0.274,0.794-0.331c0.191-0.056,0.463-0.198,0.818-0.425c0.355-0.227,0.734-0.516,1.137-0.868
		c0.404-0.352,0.385-0.255-0.057,0.293c-0.442,0.547-0.778,1.01-1.007,1.388c-0.229,0.378-0.66,0.859-1.293,1.444
		c-0.633,0.585-1.162,0.89-1.588,0.916c-0.426,0.025-0.805-0.091-1.138-0.349c-0.333-0.258-0.535-0.664-0.605-1.218
		c-0.071-0.554-0.106-1.051-0.106-1.491c0-0.44,0.087-0.925,0.262-1.454c0.174-0.529,0.404-1.079,0.687-1.652
		c0.284-0.573,0.819-1.551,1.605-2.936c0.786-1.384,1.517-2.69,2.193-3.918c0.677-1.227,0.729-1.825,0.156-1.793
		c-0.573,0.031-1.402,0.056-2.488,0.076c-1.086,0.019-1.901,0.05-2.447,0.094c-0.546,0.044-0.996,0.161-1.35,0.349
		c-0.355,0.189-0.72,0.176-1.096-0.038c-0.377-0.214-0.595-0.387-0.655-0.519c-0.06-0.132-0.065-0.223-0.017-0.274
		c0.049-0.05,0.237-0.223,0.565-0.519c0.327-0.296,0.668-0.544,1.023-0.746c0.355-0.201,1.568-0.283,3.642-0.245
		c2.073,0.038,3.326,0.069,3.757,0.094c0.431,0.025,0.886,0.054,1.367,0.085C33.673,1.897,34.481,1.97,35.616,2.083z"/>
	<path d="M39.724,7.596c0.731-0.063,1.176,0.079,1.334,0.425c0.158,0.346,0.232,0.787,0.221,1.322
		c-0.011,0.535-0.229,0.988-0.655,1.359c-0.426,0.371-0.988,0.74-1.686,1.105c-0.196,0.088-0.374,0.135-0.532,0.141
		c-0.158,0.007-0.289,0-0.393-0.019c-0.104-0.019-0.185-0.038-0.245-0.057c-0.06-0.019-0.096-0.009-0.106,0.028
		c-0.196,0.365-0.298,0.73-0.303,1.095c-0.006,0.365,0.098,0.702,0.311,1.01c0.213,0.308,0.45,0.488,0.712,0.538
		c0.262,0.051,0.534,0.041,0.818-0.028c0.284-0.069,0.808-0.286,1.571-0.651c0.764-0.365,1.296-0.708,1.596-1.029
		c0.3-0.321,0.587-0.633,0.86-0.935c0.273-0.302,0.311-0.302,0.114,0c-0.196,0.302-0.439,0.667-0.728,1.095
		c-0.29,0.428-0.65,0.853-1.08,1.274c-0.431,0.422-0.783,0.746-1.056,0.972c-0.273,0.227-0.636,0.431-1.089,0.614
		c-0.453,0.182-0.898,0.239-1.334,0.17c-0.437-0.069-0.764-0.185-0.982-0.349c-0.219-0.164-0.42-0.359-0.606-0.585
		c-0.186-0.227-0.338-0.494-0.458-0.802c-0.12-0.308-0.183-0.73-0.188-1.265c-0.005-0.535,0.104-1.117,0.327-1.746
		c0.224-0.629,0.477-1.152,0.761-1.567c0.284-0.415,0.668-0.834,1.154-1.255C38.548,8.033,39.102,7.747,39.724,7.596z M39.74,9.295
		c-0.077-0.088-0.265-0.044-0.565,0.132c-0.3,0.176-0.519,0.375-0.655,0.595c-0.136,0.22-0.161,0.381-0.074,0.482
		c0.087,0.101,0.273,0.06,0.556-0.123c0.284-0.182,0.51-0.365,0.679-0.548C39.852,9.651,39.871,9.471,39.74,9.295z"/>
	<path d="M48.448,7.709c0.251-0.076,0.527-0.088,0.827-0.038c0.3,0.051,0.54,0.157,0.72,0.321c0.18,0.164,0.352,0.485,0.516,0.963
		c0.163,0.478,0.09,0.799-0.221,0.963c-0.311,0.164-0.592,0.107-0.843-0.17c-0.251-0.277-0.513-0.333-0.786-0.17
		c-0.273,0.164-0.543,0.33-0.81,0.5c-0.267,0.17-0.597,0.437-0.99,0.802c-0.393,0.365-0.797,0.831-1.211,1.397
		c-0.415,0.566-0.644,0.928-0.687,1.086c-0.044,0.157,0.062,0.135,0.319-0.066c0.256-0.201,0.649-0.507,1.179-0.916
		c0.529-0.409,1.195-0.828,1.997-1.256c0.802-0.428,1.31-0.595,1.522-0.5c0.213,0.095,0.395,0.268,0.548,0.519
		c0.153,0.252,0.24,0.469,0.262,0.651c0.022,0.183-0.003,0.328-0.074,0.434c-0.071,0.107-0.153,0.349-0.246,0.727
		c-0.093,0.378-0.085,0.743,0.025,1.095c0.109,0.353,0.248,0.595,0.418,0.727c0.169,0.132,0.401,0.17,0.696,0.113
		c0.295-0.056,0.657-0.314,1.088-0.774c0.431-0.46,0.412-0.352-0.057,0.321c-0.469,0.674-0.84,1.102-1.113,1.284
		c-0.272,0.183-0.486,0.271-0.638,0.264c-0.153-0.006-0.352-0.063-0.597-0.17c-0.246-0.107-0.477-0.274-0.696-0.5
		c-0.219-0.227-0.39-0.503-0.516-0.831c-0.126-0.327-0.21-0.569-0.254-0.727c-0.044-0.157-0.145-0.33-0.303-0.519
		c-0.159-0.189-0.352-0.229-0.581-0.123c-0.229,0.107-0.63,0.4-1.203,0.878c-0.573,0.478-1.108,0.872-1.604,1.18
		c-0.497,0.308-0.941,0.522-1.334,0.642c-0.393,0.12-0.646,0.16-0.761,0.123c-0.114-0.038-0.24-0.179-0.376-0.425
		c-0.136-0.246-0.216-0.513-0.238-0.803c-0.022-0.289,0.014-0.582,0.107-0.878c0.093-0.295,0.442-0.887,1.048-1.775
		c0.605-0.887,1.189-1.614,1.751-2.18c0.562-0.566,1.159-1.048,1.793-1.444C47.755,8.039,48.197,7.797,48.448,7.709z"/>
	<path d="M54.488,8.049c0.415-0.654,0.753-0.969,1.015-0.944c0.262,0.025,0.431,0.151,0.507,0.378
		c0.076,0.227,0.142,0.437,0.196,0.633c0.054,0.195,0.109,0.478,0.164,0.849c0.054,0.371-0.167,1.092-0.663,2.162
		c-0.497,1.07-0.461,1.205,0.106,0.406c0.567-0.799,1.053-1.296,1.457-1.491c0.404-0.195,0.775-0.195,1.113,0
		c0.338,0.195,0.551,0.431,0.638,0.708c0.087,0.277,0.142,0.592,0.164,0.944c0.022,0.353,0.065,0.554,0.131,0.604
		c0.065,0.051,0.426-0.327,1.08-1.133c0.655-0.805,1.23-1.337,1.727-1.595c0.496-0.258,0.909-0.311,1.236-0.16
		c0.327,0.151,0.614,0.447,0.859,0.887c0.245,0.441,0.565,1.083,0.957,1.926c0.393,0.843,0.799,1.463,1.219,1.86
		c0.42,0.396,0.794,0.632,1.121,0.708c0.327,0.076,0.895-0.129,1.702-0.614c0.808-0.484,0.988-0.576,0.54-0.274
		c-0.448,0.302-0.898,0.563-1.35,0.784c-0.453,0.22-0.772,0.39-0.958,0.509c-0.185,0.12-0.439,0.224-0.761,0.312
		c-0.322,0.088-0.625,0.051-0.908-0.113c-0.284-0.164-0.557-0.374-0.819-0.632c-0.262-0.258-0.589-0.686-0.982-1.284
		c-0.393-0.598-0.674-1.042-0.843-1.331c-0.169-0.289-0.379-0.409-0.63-0.359c-0.251,0.051-0.513,0.211-0.786,0.482
		c-0.273,0.271-0.647,0.658-1.122,1.161c-0.474,0.504-0.846,1.032-1.113,1.586c-0.267,0.554-0.428,0.909-0.483,1.067
		c-0.054,0.157-0.196,0.378-0.425,0.661c-0.23,0.283-0.448,0.39-0.655,0.321c-0.207-0.069-0.358-0.195-0.45-0.378
		c-0.093-0.182-0.101-0.507-0.025-0.972c0.076-0.466,0.139-0.912,0.188-1.34c0.049-0.428,0.087-0.893,0.114-1.397
		c0.027-0.503-0.101-0.771-0.385-0.803c-0.284-0.031-0.756,0.328-1.416,1.076c-0.66,0.749-1.078,1.331-1.252,1.746
		c-0.175,0.415-0.314,0.711-0.418,0.887c-0.104,0.176-0.213,0.315-0.327,0.415c-0.114,0.101-0.344,0.088-0.688-0.038
		c-0.344-0.126-0.537-0.289-0.581-0.491c-0.044-0.201,0.038-0.61,0.245-1.227c0.207-0.617,0.48-1.567,0.818-2.851
		c0.338-1.284,0.573-2.096,0.704-2.435c0.131-0.34-0.778,0.277-2.726,1.85c-1.948,1.573-2.493,1.957-1.637,1.152
		c0.857-0.805,1.7-1.545,2.529-2.218C53.452,9.367,54.074,8.703,54.488,8.049z"/>
</g>
<path id="fr5" style="fill:#D52147;" d="M21.5,10.553c0,5.114-4.215,9.259-9.417,9.259c-5.2,0-9.417-4.145-9.417-9.259
	c0-5.114,4.216-9.259,9.417-9.259C17.285,1.294,21.5,5.439,21.5,10.553"/>
</svg>
