<?xml version="1.0" encoding="utf-8"?>
<!-- Generator: Adobe Illustrator 19.2.1, SVG Export Plug-In . SVG Version: 6.00 Build 0)  -->
<svg version="1.1" id="Layer_1" xmlns="http://www.w3.org/2000/svg" xmlns:xlink="http://www.w3.org/1999/xlink" x="0px" y="0px"
	 viewBox="0 0 530.1 162" style="enable-background:new 0 0 530.1 162;" xml:space="preserve">
<style type="text/css">
	.st0{fill:#00BD9C;}
</style>
<g id="XMLID_270_">
	<path id="XMLID_271_" class="st0" d="M279.4,92.2c-0.1-1-0.9-2.2-2.2-3.4c-1.1-0.9-1.8-2.4-2-4.5c-0.1-1.1-0.1-2-0.1-2.9
		c0-0.8,0.1-1.6,0.2-2.3l2.2-5.5c0.4-1.1,0.4-3.2,0.1-6.1c-0.2-1.5-0.3-2.8-0.4-3.9c-0.1-1.2-0.3-2.2-0.4-3.1
		c-0.2-1.1-0.3-2-0.4-2.9s-0.1-1.7-0.2-2.3c0-1.4-0.2-3.4-0.7-6.1c-0.4-2.3-1-3.7-2-4.1s-0.9-2.5,0.1-6.3l1.9-4.6
		c0.2-0.3,0.3-0.5,0.3-0.6c0.1-0.1,0.1-0.1,0-0.1c0.5-0.8,1-1.6,1.6-2.2s1.2-1.2,1.9-1.7c0.7-0.5,1.4-1,2.1-1.4
		c0.7-0.5,1.5-0.9,2.3-1.4c0.9-0.6,1.7-1,2.2-1.2l2.5-1.1c3.5-1.5,5-2.2,4.5-2.1c-0.5,0,1.5-0.5,6.1-1.4c4.7-0.9,8.8-1.1,12.4-0.6
		c1.8,0.3,3.6,0.6,5.6,1.1s4.1,1,6.3,1.7c1.4,0.5,2.6,1.1,3.8,1.8c1.1,0.7,2.3,1.4,3.6,2.2l0.5,0.4c0.4,0.3,0.7,0.5,0.7,0.5
		c0.1,0-0.1-0.1-0.4-0.3c-0.3-0.2-0.5-0.3-0.4-0.3c0,0,0.3,0.2,0.7,0.5c0.3,0.2,0.5,0.4,0.6,0.5s0.2,0.2,0.1,0.1
		c0.1,0.1,0.3,0.2,0.4,0.3c0.2,0.1,0.4,0.3,0.6,0.5s0.3,0.4,0.4,0.5s0.3,0.2,0.5,0.5l3.2,3.8c1.7,2.7,2.8,4.8,3.4,6.4
		c0.6,1.5,1,3.8,1.1,7l0.1,2.7c-0.2,4-1.4,8-3.4,12.1c-2,4-4.6,7.3-7.7,9.8c-0.1,0-0.1,0.1-0.2,0.1c0,0.1-0.1,0.1-0.1,0.1
		c-0.4,0.3-0.7,0.5-1.1,0.8c-0.7,0.5-1.1,0.7-1.1,0.8c0,0.1-0.3,0.2-1.1,0.4v0.9c2.2,0.5,3.9,1.2,5.3,2.2c0.7,0.4,1.4,0.9,2.2,1.5
		c0.8,0.6,1.6,1.2,2.5,1.9l1.4,1.4l1.1,1.2c0.9,1,1.7,2,2.3,2.8c0.7,0.9,1.3,2,1.9,3.4c1.3,3.3,1.9,6.6,1.8,9.9
		c-0.2,7.6-2.9,14.4-8,20.2l-0.9,1c-0.1,0-0.1,0.1-0.2,0.1c0,0.1-0.1,0.1-0.1,0.1c-1.2,1.1-2.2,2-2.9,2.5c-0.6,0.5-1.8,1.1-3.4,2
		l-2.9,1.5c-0.6,0.3-1.6,0.6-3.1,1c-7.3,2.2-14.1,3.1-20.2,2.8c-3.1-0.2-6.3-0.7-9.5-1.5s-6.6-2.1-10.1-3.7l-6.7-4.2
		c-0.8-0.6-1.2-1.4-1.2-2.5s1.1-2,3.2-2.5c1.6-0.4,2.9-0.6,4.1-0.6l-2.8-23.1C280.7,92.4,280.1,92.2,279.4,92.2z M294.9,66.7
		c0.9,0,1.8-0.4,2.6-1c0.8-0.6,1.8-1.3,2.9-1.9l6.7-3.2c1.2-0.5,2.1-1,2.7-1.5c0.7-0.5,1.4-1,2.3-1.4l5.8-5.1c1-2,1.4-3.4,1.3-4.3
		s-1.4-1.7-3.8-2.5l-2.2-0.5c-0.2,0-0.2,0-0.2-0.1l-1.9-0.7c-1.9-0.4-4.9-0.2-9.3,0.6c-4.4,0.8-6.7,2.5-6.9,5.1
		c-0.1,0.9-0.1,2,0,3.1s0.1,2.1,0,3.1V66.7z M296.3,91.7l-0.2,20.9c0,0.3-0.1,0.6-0.1,0.9s0,0.5,0,0.8s-0.1,0.6-0.1,1
		c0,0.3,0,0.7,0,1c0.6-0.2,1.9-0.3,3.9-0.1c2,0.1,4,0.1,5.9-0.2l6.4-0.8c1.4-0.2,3.6-1.2,6.6-3c2-1.3,3.5-2.4,4.3-3.5
		c0.9-1.1,1.6-2.9,2.1-5.3c0.4-1.9-0.9-3.5-3.9-5.1c-1.2-0.6-3.1-1.3-5.5-2c-1.1-0.4-2.2-0.6-3.1-0.9c-0.9-0.2-1.7-0.4-2.4-0.6
		L296.3,91.7z"/>
	<path id="XMLID_275_" class="st0" d="M372,113c0,1.7-0.3,3.8-1,6.4c-0.7,2.5-1.5,4.6-2.5,6.4l-0.2,0.4c-0.6,0.9-1.2,1.7-2.1,2.2
		c-0.8,0.6-1.8,0.9-2.8,1s-2.1,0-3.3-0.3c-1.1-0.3-2.3-0.8-3.5-1.6c-0.2-0.1-0.5-0.3-0.9-0.7c-0.4-0.3-0.7-0.6-0.8-0.7
		c-0.2-0.2-0.4-0.5-0.6-0.8l-6.4-23.4l-0.9-7.3c-0.3-2.1-0.4-4.6-0.4-7.4l0.8-10.4v-1.2l1.3-38.5c0.1-0.6,0.1-1.1,0.1-1.4
		s0-0.6,0.1-0.7l0.3-2c0.4-2.8,0.9-5.5,1.6-8.2c0.6-2.6,2.1-4.8,4.5-6.6l0.8-0.7l1.5-1.4l0.1-0.1l0.5-0.4c0.4-0.2,0.5-0.2,0.3-0.2
		s-0.2,0.1-0.1,0.1s0.2,0,0.4,0c0.6,0.1,0.6,0.2,0.2,0.3c-0.5,0.1-0.3,0,0.8-0.2c0.6,0,0.8,0,0.5,0c-0.4,0.1-0.3,0,0.2-0.3
		c0.8-0.4,1.1-0.5,0.7-0.5c-0.3,0,0.1-0.1,1.3-0.2c0.2,0.8,0.4,1.2,0.5,1.3l1.4-0.8c0.5-0.3,1.6,0.2,3.2,1.5
		c1.1,0.8,1.4,1.3,1.1,1.4c-0.2,0,0.2,0.1,1.4,0.2c0.1,2,0.2,3,0.4,2.7c0.1-0.3,0.3-0.3,0.7-0.1c1.8,1,2.6,2.4,2.4,4.1
		c-0.2,1.8-0.2,2.9-0.1,3.2c0.1,0.6,0.2,0.9,0.2,0.9c0,0.1,0,0-0.1-0.4c-0.1-0.7,0-0.6,0.4,0.1c0.5,1.1,0.5,2.2,0.1,3.1
		c-0.4,0.9-0.6,1.8-0.7,2.8c-0.4,2.7-0.7,5-0.8,6.7c-0.1,1.8-0.1,3.1,0,3.8c0.2,0.8,0.2,1.9,0.1,3.3s-0.2,3.1-0.4,5.1l-3,24.4
		c0,0.2-0.1,0.5-0.1,0.8c-0.1,0.4-0.1,0.7-0.3,1.2l-0.6,2.5l-0.2,0.7c0,0.1-0.1,0.2-0.1,0.2s0,0.1,0,0.3s0,0.6-0.1,1
		c-0.1,0.9-0.3,1.8-0.4,2.5c-0.2,0.7-0.3,1.4-0.4,2.1l-1.7,21.8c0,0.3,0,0.8-0.1,1.7c-0.1,0.9-0.1,1.8-0.1,2.7
		c0.4-0.3,0.7-0.5,0.8-0.7c0.2-0.2,0.5-0.4,0.9-0.7l3.8-2.4C371.6,111.9,372,112.3,372,113z M371,23.2C371,23.2,371.1,23.2,371,23.2
		c0.1,0.1,0.1,0.1,0.2,0.1L371,23.2z"/>
	<path id="XMLID_278_" class="st0" d="M405.1,129.2c-1.3,0-2-0.1-2.2-0.2c-0.1-0.1-1.3-0.2-3.6-0.3c-1.5,0-3.2-0.5-5-1.6
		c-3.7-2-6.8-4-9.3-6.2c-2.4-2.1-4.5-5.3-6.3-9.4c-2.2-5.1-3.5-11.1-4-18.1c-0.5-7.1,0.4-13.3,2.7-18.6c0.6-1.3,1.1-2.5,1.5-3.6
		c0.5-1.1,0.9-2.2,1.2-3.1c0.4-0.9,0.9-2,1.6-3.1s1.4-2.3,2.4-3.6l2-2.1l0.2-0.2l5.3-4c2.5-1.7,6.3-2.7,11.2-2.9
		c4.9-0.2,8.7,0.2,11.3,1.1c3.4,1.3,5,2,4.8,2.1s0.4,0.5,1.9,1.2c0.3,0.2,0.5,0.3,0.5,0.3c0.1,0,0,0-0.1-0.1c-0.2-0.1,0-0.1,0.5,0.1
		c0.2,0.2,0.5,0.4,0.6,0.4l2.9,2.9c0.4,0.4,0.8,0.8,1.1,1.2c0.3,0.3,0.5,0.6,0.7,0.9c0.5,0.6,1,1.4,1.5,2.5l4.9,8.9
		c2.1,3.3,3.3,6.5,3.6,9.4c0.2,1.5,0.3,3,0.4,4.5s0.3,3.2,0.4,4.8l-0.7,10.3c-0.4,2.2-1.3,4.8-2.9,7.7c-1.6,3.1-3.2,5.6-4.8,7.5
		c-1.7,1.9-4.4,3.9-8,5.8c-1.8,1-3.5,1.8-5,2.4s-2.8,1.1-4,1.4c-1.8,0.4-3,0.7-3.4,1C409,129.1,407.5,129.2,405.1,129.2z
		 M404.5,113.6c0.3-0.6,0.8-1.3,1.7-2.2l6.5-10.9l0.8-1.5c0.2-0.3,0.3-0.9,0.4-1.8c0.1-1.4,0.2-2.6,0.2-3.7s0-2.1-0.1-3
		c-0.2-1.8-0.9-3.6-2.1-5.4c-0.6-0.8-1.1-1.7-1.5-2.5c-0.5-0.9-0.9-1.8-1.2-2.7c-0.6-1.8-1.4-2.9-2.2-3.2l-2.5-0.2h-0.4
		c-0.8,0-1.7-0.1-2.7-0.1s-1.7,0.1-2.3,0.4c-0.5,0.3-1.6,1.6-3.3,3.9c-1.7,2.3-2.7,3.9-3.1,4.8c-0.4,1-0.8,2.3-1.1,3.7
		s-0.6,3.2-0.8,5.2c-0.4,3.9-0.2,7,0.5,9.5l3.4,11.6l3.5-0.8c0.3-0.1,0.4,0,0.4,0.2s0.1,0.4,0.5,0.6s1.8,0.3,4.1,0.4L404.5,113.6z"
		/>
	<path id="XMLID_281_" class="st0" d="M500.9,39.9c0.6,0,0.7,0,0.4,0.1c-0.2,0,0,0.2,0.5,0.4c0.8,0.4,1.5,0.8,2.2,1.1
		c0.7,0.3,1.3,0.7,1.9,1c1.1,0.5,2,1.7,2.8,3.5c0.2,0.4,0.4,0.7,0.8,1s0.7,0.8,0.9,1.5l0.5,2.8c0.2,1.9,0.2,2.6-0.1,2
		c-0.3-0.6-0.4-0.3-0.4,0.9c0,0.2,0.1,0.4,0.2,0.4l0.1-0.1c0.1,0,0.1,0,0.2-0.1l0.6-0.4c0,2.9-0.2,5.3-0.6,7.4
		c-0.4,1.9-0.6,4.3-0.5,7c0,1.7,0,3.5-0.1,5.3s-0.3,3.7-0.5,5.6l-1.1,10.6l-0.9,13.6c0,0.5-0.1,1-0.1,1.3c0,0.4-0.1,0.7-0.1,1
		l-0.4,2.2c-0.2,1.7-0.5,3.3-0.7,4.9s-0.5,3.3-0.8,4.9s-0.7,3.2-1.1,4.8c-0.4,1.6-1,3.1-1.7,4.6l-2.8,6.1c-0.2,0.6-0.4,1-0.4,1.2
		s-0.2,0.6-0.4,1.2l-3.9,7.6c-2.2,3.7-5,6.8-8.4,9.4c-3.3,2.4-5.6,3.5-6.9,3.1c-0.7-0.2-1.6-0.3-2.8-0.5c-1.2-0.2-2.7-0.4-4.5-0.7
		l-13.7-4.1c-0.3-0.1-0.5-0.2-0.7-0.4c-0.2-0.1-0.3-0.2-0.4-0.3c-0.1-0.1-0.3-0.2-0.4-0.3c-0.2-0.1-0.4-0.3-0.6-0.5
		c-0.8-0.6-1.6-1-2.4-1.2c-0.8-0.3-1.5-0.6-2.3-1.1c-2.1-1.3-3.5-2.8-4.2-4.3l-1.3-4.8c0-0.1,0.1-0.4,0.3-0.8c0.4-0.8,0.6-1,0.6-0.6
		s-0.1-0.1-0.2-1.5c0.6,0,1,0,1.2,0.1s0.5,0.2,1.1,0.3c-0.2-0.9-0.3-1.4-0.3-1.4c0.1,0.1,0.4-0.1,0.8-0.7c0-0.2,0.1-0.2,0.2-0.2
		c0.2-0.3,0.4-0.6,0.5-0.8l5.9-0.1c0.6,0.1,0.9,0.2,1.1,0.2s0.2,0,0,0s-0.1,0.1,0.4,0.5c0.7,0.4,1.1,0.7,1.4,0.9
		c0.3,0.2,0.4,0.2,0.3,0.1c-0.1-0.2,0.4-0.2,1.6-0.1c1.8,0.2,3.4,2,5,5.4c1.5,3.4,4.8,5.1,9.7,5.1c0.9,0,1.8-0.8,2.7-2.3
		c0.9-1.5,1.5-2.7,1.8-3.5l1.8-4.9c0.1-0.3,0.2-0.6,0.3-1c0.1-0.4,0.2-0.9,0.4-1.4c0.2-1,0.4-1.9,0.6-2.9c0.3-0.9,0.4-1.8,0.5-2.6
		c-0.4,0.3-0.7,0.6-0.9,0.7c-0.2,0.2-0.4,0.4-0.8,0.7c-3.4,2.4-7.1,3.5-11.2,3.3s-8.1-1.1-11.9-2.6c-0.4-0.2-0.6-0.2-0.6-0.2
		c0.1,0,0.1,0,0,0c-0.1-0.1-0.3-0.1-0.5-0.2l-5.9-2.8c-1.5-0.7-2.7-1.5-3.5-2.3l-2.7-2.6c-1-0.8-1.9-1.8-2.6-3
		c-0.7-1.1-1.4-2.3-2-3.5c0-0.1-0.1-0.2-0.2-0.3c-1.4-2.5-2.2-5.5-2.5-9c-0.2-3.1-0.2-5.4,0.1-7c0.2-0.7,0.3-1.6,0.5-2.7
		c0.2-1,0.5-2.3,0.8-3.6l0.7-3c0.6-1.7,1.1-3.4,1.6-5.1c0.5-1.8,1.1-3.5,1.9-5.1c0.3-0.6,0.6-1.1,0.9-1.7c0.4-0.6,0.8-1.2,1.3-1.8
		c3.5-4.3,5.3-6.5,5.5-6.6c0.2,0,2.3-1.4,6.4-4.2c1.1-0.7,2.3-1.4,3.7-2.2c1.4-0.7,2.7-1.3,4-1.7c7.2-2.2,12-2.1,14.4,0.2
		c2.4,2.3,4.4,3.7,5.9,4c0-2,0.1-3.5,0.2-4.3c0.1-0.4,0.2-1,0.3-1.6c0.1-0.7,0.2-1.4,0.3-2.2l1.2-7.2c0.2-0.8,0.5-1.3,0.9-1.7
		c0.4-0.3,0.9-0.8,1.5-1.3c0.2-0.2,0.3-0.3,0.4-0.4s0.2-0.2,0.2-0.2c0.1-0.1,0.1-0.1,0.3-0.2s0.3-0.2,0.5-0.4l2.8-2.2
		c0.4-0.2,0.7-0.4,0.9-0.5c0.3-0.1,0.6-0.2,0.8-0.2c0.3,0,0.6,0,0.9-0.1c0.3,0,0.7-0.1,1.1-0.2c0.5-0.1,0.7-0.2,0.7-0.3
		C499.7,40,500.1,39.9,500.9,39.9z M449.2,136L449.2,136C449.2,136.1,449.2,136.1,449.2,136l0.1,0.1L449.2,136z M486.6,104.1
		c-0.1-1.2-0.2-1.9-0.2-2.1c-0.1-0.4-0.1-1.1,0.1-2.2v-3.6c-0.1-1.3-0.2-2.3-0.2-3.1c0-0.8,0-1.4,0-1.7c0.1-0.7-0.5-1.9-2-3.6
		c-2-2.2-3.1-3.8-3.2-4.7c-0.1-0.8-1.5-2.2-4-4.1c-1.4-1.1-2.6-1.6-3.7-1.6c-0.9,0-2.3,0.5-4.1,1.7c-0.8,0.5-1.5,1-2.3,1.6
		c-0.7,0.5-1.5,1.1-2.2,1.6c-1.5,1.1-2.5,2.5-3,4.4c-0.5,1.5-0.9,2.8-1.4,3.9c-0.4,1.2-0.8,2.6-1.1,4.3c-0.7,3.6-0.8,6.4-0.3,8.3
		c0.6,1.9,2.6,3.6,6,5.1c4.3,2,6.8,2.6,7.4,1.8c0.7-0.8,3.3-1.9,7.8-3.2c1.5-0.4,2.5-0.7,3.1-0.9c0.6-0.2,0.7-0.2,0.3-0.1
		c-0.3,0.1-0.2,0,0.3-0.4C484.3,105.3,485.2,104.8,486.6,104.1z M500.1,41c0-0.2,0-0.3-0.1-0.2L500.1,41z"/>
</g>
</svg>
