<?xml version="1.0" encoding="iso-8859-1"?>
<!-- Generator: Adobe Illustrator 19.2.1, SVG Export Plug-In . SVG Version: 6.00 Build 0)  -->
<svg version="1.1" id="Layer_1" xmlns="http://www.w3.org/2000/svg" xmlns:xlink="http://www.w3.org/1999/xlink" x="0px" y="0px"
	 viewBox="0 0 70 20" style="enable-background:new 0 0 70 20;" xml:space="preserve">
<path id="fr6" style="fill:#D52147;" d="M20.083,10.01c-0.005,5.2-4.244,9.414-9.467,9.408c-5.224-0.005-9.453-4.227-9.448-9.428
	c0.005-5.201,4.244-9.414,9.466-9.408C15.858,0.587,20.088,4.808,20.083,10.01"/>
<g>
	<path d="M28.083,3.607c0.348-0.25,0.678-0.374,0.988-0.373c0.311,0.001,0.538,0.058,0.681,0.172
		c0.142,0.113,0.238,0.25,0.287,0.407c0.049,0.158,0.04,0.313-0.025,0.465C29.949,4.43,29.83,4.642,29.66,4.915
		c-0.17,0.274-0.185,0.45-0.043,0.532c0.141,0.082,0.329,0.094,0.563,0.039c0.232-0.056,0.597-0.108,1.091-0.155
		c0.492-0.048,0.982-0.013,1.468,0.103c0.485,0.117,0.929,0.334,1.33,0.652c0.402,0.318,0.641,0.699,0.716,1.145
		c0.075,0.446,0.045,0.826-0.093,1.142c-0.137,0.316-0.408,0.644-0.811,0.984c-0.403,0.341-0.582,0.525-0.536,0.556
		c0.045,0.03,0.246,0.094,0.604,0.193c0.358,0.099,0.712,0.271,1.061,0.515c0.349,0.244,0.53,0.488,0.543,0.732
		c0.013,0.244-0.018,0.53-0.091,0.859c-0.074,0.329-0.459,0.767-1.154,1.314c-0.696,0.547-1.591,1.018-2.684,1.412
		c-1.094,0.394-1.841,0.653-2.244,0.776c-0.402,0.124-0.862,0.242-1.38,0.356c-0.518,0.114-0.916,0.161-1.195,0.142
		c-0.279-0.019-0.528-0.05-0.745-0.096c-0.218-0.046-0.349-0.119-0.395-0.222c-0.047-0.102,0.006-0.237,0.16-0.405
		c0.154-0.168,0.43-0.298,0.827-0.389s1.002-0.247,1.814-0.467c0.813-0.22,1.593-0.478,2.339-0.775
		c0.746-0.297,1.436-0.643,2.065-1.039c0.63-0.395,0.893-0.765,0.789-1.11c-0.104-0.344-0.478-0.542-1.12-0.595
		c-0.643-0.053-1.558,0.102-2.747,0.464c-1.189,0.362-1.948,0.6-2.274,0.712c-0.327,0.112-0.581,0.112-0.761,0.001
		c-0.181-0.112-0.339-0.112-0.475-0.001c-0.137,0.111-0.319,0.411-0.547,0.899s-0.497,1.099-0.806,1.832
		c-0.31,0.733-0.571,1.303-0.783,1.711c-0.211,0.407-0.471,0.655-0.779,0.742c-0.308,0.087-0.523,0.112-0.645,0.073
		c-0.121-0.038-0.197-0.115-0.226-0.23c-0.028-0.115-0.049-0.29-0.061-0.527s0.158-0.766,0.509-1.589
		c0.352-0.824,0.75-1.728,1.192-2.712c0.443-0.985,1.095-2.452,1.956-4.404c0.861-1.951,1.321-3.123,1.38-3.516
		C27.53,4.177,27.735,3.857,28.083,3.607z M32.279,6.701c-0.372-0.143-0.814-0.212-1.328-0.207s-1.035,0.071-1.565,0.196
		c-0.53,0.126-1.037,0.718-1.522,1.777c-0.485,1.059-0.769,1.733-0.85,2.021c-0.081,0.289,0.307,0.371,1.168,0.244
		c0.86-0.126,1.571-0.309,2.136-0.549c0.564-0.24,1.027-0.481,1.389-0.724c0.361-0.242,0.622-0.464,0.781-0.664
		c0.16-0.2,0.296-0.436,0.409-0.706c0.113-0.27,0.132-0.534,0.054-0.791C32.874,7.044,32.65,6.844,32.279,6.701z"/>
	<path d="M40.517,5.917c0.493-0.529,0.909-0.754,1.247-0.674c0.338,0.08,0.522,0.195,0.553,0.346
		c0.029,0.151-0.498,0.959-1.581,2.424c-1.082,1.465-1.859,2.816-2.326,4.054c-0.468,1.238-0.624,1.93-0.468,2.075
		s0.43,0.176,0.821,0.092c0.391-0.083,1.383-0.478,2.975-1.185c1.592-0.707,2.569-1.167,2.931-1.381s0.131-0.055-0.692,0.479
		c-0.823,0.534-1.444,0.933-1.861,1.197c-0.418,0.265-0.832,0.55-1.243,0.855c-0.411,0.305-0.914,0.576-1.511,0.813
		c-0.596,0.238-1.119,0.378-1.568,0.419c-0.45,0.042-0.781-0.008-0.994-0.151c-0.213-0.142-0.418-0.317-0.614-0.524
		c-0.196-0.207-0.223-0.605-0.079-1.194c0.142-0.588,0.557-1.557,1.244-2.907c0.687-1.349,1.262-2.346,1.727-2.99
		C39.544,7.022,40.024,6.439,40.517,5.917z"/>
	<path d="M44.523,9.804c0.237-0.156,0.529-0.262,0.876-0.32c0.348-0.057,0.636-0.059,0.865-0.006
		c0.229,0.053,0.426,0.158,0.589,0.314c0.164,0.156,0.561,0.215,1.194,0.177c0.633-0.039,1.422-0.074,2.366-0.109
		c0.945-0.033,0.744-0.006-0.598,0.083c-1.341,0.09-2.103,0.162-2.286,0.215c-0.183,0.053-0.255,0.198-0.217,0.438
		c0.037,0.239,0.07,0.492,0.096,0.759c0.026,0.268,0.037,0.566,0.033,0.895c-0.005,0.329-0.036,0.575-0.094,0.739
		c-0.06,0.163-0.149,0.336-0.271,0.518c-0.122,0.182-0.304,0.378-0.546,0.586c-0.243,0.208-0.541,0.405-0.897,0.591
		c-0.357,0.186-0.687,0.328-0.988,0.427c-0.301,0.098-0.631,0.119-0.988,0.06c-0.357-0.059-0.649-0.165-0.874-0.319
		c-0.226-0.153-0.409-0.315-0.546-0.485c-0.138-0.17-0.203-0.476-0.196-0.918c0.007-0.441,0.074-0.8,0.2-1.075
		c0.126-0.274,0.324-0.565,0.596-0.871c0.271-0.306,0.35-0.446,0.235-0.421c-0.113,0.026-0.143,0.017-0.086-0.026
		c0.056-0.043,0.27-0.226,0.642-0.549C44.001,10.186,44.3,9.951,44.523,9.804z M45.525,11.645c-0.285-0.203-0.631-0.126-1.041,0.231
		c-0.409,0.356-0.65,0.726-0.722,1.107c-0.072,0.381-0.033,0.643,0.116,0.789c0.15,0.145,0.304,0.226,0.463,0.243
		c0.159,0.016,0.382-0.061,0.669-0.231s0.515-0.521,0.685-1.05C45.867,12.202,45.809,11.84,45.525,11.645z"/>
	<path d="M56.754,8.826c0.939-0.005,1.314,0.125,1.124,0.391c-0.189,0.266-0.377,0.724-0.562,1.375
		c-0.185,0.651-0.36,1.203-0.526,1.656s-0.406,0.934-0.723,1.444c-0.317,0.509-0.563,0.902-0.74,1.179
		c-0.176,0.278-0.396,0.591-0.66,0.941c-0.263,0.35-0.701,0.849-1.311,1.496c-0.611,0.648-1.319,1.213-2.123,1.698
		c-0.806,0.484-1.463,0.783-1.974,0.896c-0.511,0.113-1.088,0.113-1.731-0.001c-0.643-0.114-0.998-0.409-1.061-0.887
		c-0.064-0.478,0.809-1.306,2.616-2.486c1.807-1.179,1.918-1.224,0.33-0.136c-1.589,1.088-2.39,1.821-2.405,2.198
		c-0.015,0.378,0.126,0.587,0.427,0.629c0.299,0.042,0.597,0.019,0.893-0.067c0.297-0.086,0.698-0.276,1.203-0.57
		c0.506-0.293,0.93-0.565,1.272-0.814c0.342-0.249,0.754-0.626,1.235-1.131c0.481-0.504,0.914-1.039,1.298-1.604
		c0.384-0.564,0.647-0.956,0.786-1.175c0.14-0.219,0.391-0.675,0.753-1.367c0.362-0.692,0.3-0.861-0.185-0.509
		c-0.485,0.352-1.125,0.743-1.919,1.17c-0.794,0.427-1.449,0.706-1.966,0.835c-0.517,0.13-0.913,0.177-1.185,0.142
		c-0.275-0.035-0.518-0.121-0.73-0.26c-0.213-0.138-0.259-0.429-0.138-0.872c0.121-0.443,0.439-0.98,0.955-1.611
		c0.516-0.631,1.123-1.125,1.825-1.485c0.7-0.359,1.328-0.619,1.882-0.783c0.554-0.163,0.989-0.248,1.307-0.255
		c0.317-0.007,0.676,0.034,1.079,0.122C56.199,9.076,56.518,9.023,56.754,8.826z M54.755,10.199
		c-0.22-0.126-0.542-0.096-0.968,0.089c-0.427,0.185-0.901,0.457-1.425,0.815c-0.523,0.359-0.958,0.735-1.302,1.128
		c-0.345,0.394-0.172,0.442,0.517,0.144c0.69-0.299,1.31-0.617,1.859-0.957c0.549-0.339,0.954-0.615,1.214-0.829
		C54.912,10.376,54.946,10.246,54.755,10.199z"/>
</g>
</svg>
