<?xml version="1.0" encoding="iso-8859-1"?>
<!-- Generator: Adobe Illustrator 19.2.1, SVG Export Plug-In . SVG Version: 6.00 Build 0)  -->
<svg version="1.1" id="Layer_1" xmlns="http://www.w3.org/2000/svg" xmlns:xlink="http://www.w3.org/1999/xlink" x="0px" y="0px"
	 viewBox="0 0 70 20" style="enable-background:new 0 0 70 20;" xml:space="preserve">
<path id="fr6" style="fill:#D52147;" d="M20.668,10.009c-0.005,4.879-4.113,8.832-9.176,8.827C6.429,18.831,2.33,14.87,2.335,9.991
	c0.005-4.88,4.113-8.832,9.175-8.827C16.573,1.169,20.673,5.129,20.668,10.009"/>
<g>
	<path d="M26.678,1.192c0.383-0.29,0.748-0.438,1.094-0.444c0.347-0.006,0.601,0.054,0.763,0.179
		c0.161,0.125,0.271,0.277,0.329,0.454c0.058,0.178,0.051,0.353-0.018,0.526s-0.197,0.416-0.38,0.728
		c-0.184,0.313-0.196,0.513-0.036,0.602c0.159,0.089,0.369,0.099,0.629,0.032c0.258-0.068,0.663-0.135,1.213-0.2
		c0.548-0.065,1.095-0.037,1.64,0.084c0.544,0.121,1.044,0.357,1.498,0.707c0.455,0.35,0.73,0.776,0.824,1.278
		s0.068,0.933-0.078,1.293c-0.146,0.36-0.441,0.737-0.883,1.131c-0.442,0.394-0.638,0.607-0.586,0.64
		c0.051,0.033,0.277,0.101,0.678,0.205s0.8,0.29,1.195,0.558c0.395,0.268,0.602,0.54,0.622,0.815c0.02,0.276-0.008,0.6-0.083,0.973
		c-0.075,0.373-0.495,0.877-1.258,1.511c-0.764,0.634-1.752,1.186-2.962,1.656c-1.211,0.47-2.039,0.779-2.486,0.928
		c-0.446,0.149-0.956,0.293-1.531,0.433c-0.575,0.14-1.018,0.202-1.33,0.187c-0.312-0.015-0.59-0.045-0.833-0.092
		c-0.244-0.047-0.392-0.127-0.446-0.242c-0.055-0.114,0.002-0.268,0.17-0.461c0.168-0.193,0.473-0.346,0.914-0.458
		c0.441-0.112,1.112-0.302,2.013-0.569c0.902-0.267,1.766-0.576,2.592-0.929c0.826-0.352,1.587-0.759,2.28-1.221
		c0.694-0.461,0.979-0.885,0.855-1.272c-0.124-0.386-0.545-0.602-1.262-0.648c-0.718-0.046-1.735,0.15-3.054,0.586
		c-1.318,0.436-2.159,0.722-2.521,0.856c-0.362,0.134-0.646,0.14-0.849,0.018c-0.204-0.122-0.381-0.119-0.53,0.009
		c-0.15,0.129-0.347,0.472-0.59,1.029c-0.243,0.557-0.53,1.254-0.859,2.089c-0.33,0.836-0.608,1.486-0.835,1.952
		c-0.226,0.465-0.511,0.751-0.853,0.856c-0.342,0.105-0.581,0.138-0.718,0.097c-0.136-0.04-0.222-0.126-0.257-0.255
		c-0.034-0.129-0.061-0.327-0.08-0.594c-0.019-0.267,0.159-0.869,0.533-1.808c0.374-0.939,0.798-1.97,1.27-3.092
		c0.472-1.123,1.167-2.796,2.084-5.022c0.917-2.225,1.404-3.56,1.461-4.005C26.074,1.849,26.295,1.482,26.678,1.192z M31.426,4.596
		c-0.418-0.153-0.913-0.221-1.486-0.204c-0.573,0.017-1.153,0.103-1.741,0.257c-0.588,0.154-1.141,0.835-1.658,2.043
		c-0.518,1.208-0.819,1.976-0.903,2.304s0.351,0.412,1.308,0.25c0.956-0.162,1.746-0.384,2.37-0.668
		c0.624-0.284,1.135-0.567,1.533-0.849c0.397-0.282,0.683-0.538,0.857-0.768s0.32-0.499,0.441-0.807
		c0.12-0.308,0.135-0.607,0.043-0.895C32.097,4.97,31.843,4.749,31.426,4.596z"/>
	<path d="M40.597,3.525c0.538-0.609,0.997-0.873,1.376-0.79c0.379,0.083,0.587,0.209,0.624,0.379c0.036,0.17-0.534,1.095-1.71,2.775
		c-1.175,1.68-2.011,3.225-2.505,4.635c-0.495,1.41-0.653,2.196-0.476,2.356c0.177,0.16,0.483,0.189,0.918,0.086
		c0.434-0.103,1.532-0.571,3.292-1.406c1.76-0.835,2.84-1.377,3.239-1.627c0.399-0.25,0.145-0.065-0.761,0.557
		c-0.906,0.622-1.59,1.087-2.049,1.395c-0.46,0.309-0.916,0.64-1.367,0.994c-0.452,0.354-1.007,0.672-1.667,0.953
		c-0.66,0.282-1.24,0.452-1.74,0.509c-0.501,0.057-0.871,0.008-1.112-0.148c-0.241-0.156-0.473-0.349-0.696-0.579
		c-0.223-0.23-0.262-0.679-0.115-1.348c0.145-0.668,0.587-1.773,1.323-3.314c0.736-1.54,1.356-2.68,1.86-3.419
		C39.537,4.796,40.059,4.126,40.597,3.525z"/>
	<path d="M45.152,7.829c0.261-0.182,0.584-0.308,0.97-0.381c0.387-0.072,0.708-0.081,0.965-0.026
		c0.257,0.055,0.479,0.169,0.664,0.342c0.186,0.173,0.63,0.231,1.336,0.173c0.705-0.058,1.584-0.116,2.637-0.176
		c1.053-0.059,0.83-0.023-0.665,0.107C49.565,8,48.717,8.098,48.514,8.162c-0.203,0.064-0.28,0.23-0.232,0.5
		c0.047,0.269,0.089,0.555,0.124,0.856c0.035,0.302,0.054,0.639,0.057,1.011c0.002,0.372-0.027,0.651-0.089,0.837
		c-0.063,0.186-0.159,0.383-0.291,0.592c-0.132,0.209-0.331,0.434-0.596,0.675c-0.266,0.241-0.595,0.47-0.988,0.688
		c-0.394,0.218-0.759,0.386-1.093,0.505c-0.334,0.118-0.701,0.149-1.101,0.09c-0.399-0.059-0.727-0.172-0.982-0.341
		c-0.256-0.168-0.463-0.347-0.62-0.536c-0.158-0.189-0.237-0.533-0.239-1.033c-0.002-0.499,0.065-0.906,0.199-1.22
		c0.135-0.313,0.349-0.646,0.645-0.998c0.295-0.352,0.38-0.512,0.253-0.481c-0.126,0.032-0.159,0.022-0.096-0.027
		c0.061-0.05,0.296-0.261,0.704-0.635C44.578,8.273,44.906,8,45.152,7.829z M46.31,9.888c-0.322-0.223-0.707-0.128-1.156,0.284
		c-0.448,0.412-0.709,0.835-0.781,1.267c-0.072,0.432-0.023,0.728,0.147,0.889c0.17,0.161,0.344,0.249,0.522,0.264
		s0.425-0.077,0.741-0.276c0.316-0.199,0.563-0.6,0.741-1.202C46.704,10.51,46.631,10.102,46.31,9.888z"/>
	<path d="M58.772,6.45c1.047-0.027,1.468,0.112,1.262,0.417c-0.205,0.305-0.405,0.827-0.597,1.567
		c-0.192,0.74-0.375,1.368-0.55,1.884c-0.175,0.516-0.432,1.065-0.774,1.648c-0.342,0.582-0.608,1.032-0.799,1.349
		c-0.19,0.318-0.429,0.677-0.715,1.078c-0.286,0.401-0.763,0.975-1.429,1.72c-0.667,0.746-1.444,1.401-2.331,1.967
		c-0.888,0.565-1.615,0.918-2.182,1.057c-0.567,0.139-1.211,0.152-1.931,0.038c-0.72-0.114-1.122-0.44-1.203-0.979
		c-0.082-0.539,0.873-1.495,2.863-2.869c1.99-1.373,2.112-1.427,0.365-0.161c-1.748,1.265-2.625,2.112-2.634,2.539
		c-0.008,0.428,0.154,0.661,0.49,0.702c0.334,0.041,0.666,0.008,0.994-0.096c0.329-0.104,0.772-0.328,1.329-0.671
		c0.558-0.343,1.025-0.659,1.401-0.949c0.376-0.289,0.827-0.725,1.353-1.306c0.525-0.581,0.996-1.195,1.412-1.842
		c0.416-0.646,0.7-1.095,0.851-1.346c0.151-0.251,0.421-0.772,0.81-1.562c0.388-0.79,0.316-0.98-0.218-0.571
		c-0.533,0.409-1.238,0.865-2.115,1.366c-0.876,0.501-1.601,0.831-2.174,0.988c-0.574,0.158-1.014,0.22-1.319,0.187
		c-0.307-0.033-0.58-0.125-0.82-0.277c-0.241-0.151-0.298-0.479-0.173-0.983s0.468-1.118,1.03-1.842
		c0.562-0.725,1.228-1.297,2.003-1.719c0.773-0.421,1.467-0.73,2.082-0.927c0.614-0.197,1.098-0.303,1.452-0.318
		c0.353-0.015,0.755,0.023,1.206,0.114C58.159,6.744,58.513,6.677,58.772,6.45z M56.573,8.046c-0.248-0.137-0.607-0.096-1.078,0.122
		c-0.472,0.219-0.995,0.537-1.571,0.953c-0.575,0.417-1.052,0.852-1.427,1.304c-0.376,0.453-0.182,0.503,0.58,0.151
		c0.763-0.353,1.447-0.727,2.052-1.123c0.605-0.396,1.051-0.717,1.336-0.964C56.752,8.243,56.787,8.095,56.573,8.046z"/>
</g>
</svg>
