<?xml version="1.0" encoding="iso-8859-1"?>
<!-- Generator: Adobe Illustrator 19.2.1, SVG Export Plug-In . SVG Version: 6.00 Build 0)  -->
<svg version="1.1" id="Layer_1" xmlns="http://www.w3.org/2000/svg" xmlns:xlink="http://www.w3.org/1999/xlink" x="0px" y="0px"
	 viewBox="0 0 70 20" style="enable-background:new 0 0 70 20;" xml:space="preserve">
<path id="fr6" style="fill:#D52147;" d="M20.668,10.009c-0.005,4.879-4.113,8.832-9.176,8.827C6.429,18.831,2.33,14.87,2.335,9.991
	c0.005-4.88,4.113-8.832,9.175-8.827C16.573,1.169,20.673,5.129,20.668,10.009"/>
<g>
	<path d="M28.021,1.192c0.468-0.29,0.915-0.438,1.339-0.444c0.424-0.006,0.735,0.054,0.933,0.179
		c0.197,0.125,0.332,0.277,0.403,0.454c0.071,0.178,0.063,0.353-0.022,0.526c-0.085,0.173-0.241,0.416-0.465,0.728
		c-0.225,0.313-0.24,0.513-0.044,0.602c0.195,0.089,0.452,0.099,0.769,0.032c0.316-0.068,0.811-0.135,1.484-0.2
		c0.671-0.065,1.34-0.037,2.006,0.084c0.665,0.121,1.277,0.357,1.833,0.707c0.557,0.35,0.893,0.776,1.008,1.278
		c0.115,0.502,0.083,0.933-0.096,1.293c-0.179,0.36-0.539,0.737-1.08,1.131c-0.541,0.394-0.78,0.607-0.717,0.64
		c0.062,0.033,0.339,0.101,0.83,0.205c0.491,0.104,0.979,0.29,1.462,0.558c0.483,0.268,0.737,0.54,0.761,0.815
		c0.024,0.276-0.01,0.6-0.101,0.973c-0.092,0.373-0.605,0.877-1.539,1.511c-0.935,0.634-2.143,1.186-3.624,1.656
		c-1.481,0.47-2.495,0.779-3.041,0.928c-0.546,0.149-1.17,0.293-1.873,0.433c-0.703,0.14-1.245,0.202-1.627,0.187
		c-0.382-0.015-0.722-0.045-1.019-0.092c-0.298-0.047-0.48-0.127-0.546-0.242c-0.067-0.114,0.002-0.268,0.208-0.461
		c0.206-0.193,0.579-0.346,1.118-0.458c0.54-0.112,1.361-0.302,2.463-0.569c1.103-0.267,2.16-0.576,3.171-0.929
		c1.011-0.352,1.941-0.759,2.79-1.221c0.849-0.461,1.198-0.885,1.046-1.272c-0.152-0.386-0.667-0.602-1.544-0.648
		c-0.878-0.046-2.123,0.15-3.737,0.586c-1.613,0.436-2.641,0.722-3.084,0.856c-0.443,0.134-0.79,0.14-1.039,0.018
		c-0.25-0.122-0.466-0.119-0.649,0.009c-0.184,0.129-0.424,0.472-0.722,1.029c-0.297,0.557-0.648,1.254-1.051,2.089
		c-0.404,0.836-0.744,1.486-1.021,1.952c-0.277,0.465-0.625,0.751-1.043,0.856c-0.419,0.105-0.711,0.138-0.878,0.097
		c-0.166-0.04-0.271-0.126-0.314-0.255c-0.042-0.129-0.075-0.327-0.098-0.594c-0.023-0.267,0.194-0.869,0.652-1.808
		c0.458-0.939,0.976-1.97,1.554-3.092c0.577-1.123,1.428-2.796,2.55-5.022c1.122-2.225,1.718-3.56,1.788-4.005
		C27.282,1.849,27.552,1.482,28.021,1.192z M33.829,4.596c-0.512-0.153-1.117-0.221-1.818-0.204
		c-0.701,0.017-1.411,0.103-2.13,0.257c-0.719,0.154-1.396,0.835-2.029,2.043c-0.634,1.208-1.002,1.976-1.105,2.304
		c-0.103,0.328,0.43,0.412,1.6,0.25c1.17-0.162,2.136-0.384,2.9-0.668c0.764-0.284,1.389-0.567,1.876-0.849
		c0.486-0.282,0.836-0.538,1.048-0.768c0.212-0.23,0.392-0.499,0.539-0.807c0.147-0.308,0.165-0.607,0.053-0.895
		C34.651,4.97,34.34,4.749,33.829,4.596z"/>
	<path d="M45.05,3.525c0.658-0.609,1.22-0.873,1.684-0.79c0.464,0.083,0.718,0.209,0.763,0.379c0.044,0.17-0.653,1.095-2.092,2.775
		c-1.438,1.68-2.46,3.225-3.065,4.635c-0.605,1.41-0.799,2.196-0.582,2.356c0.217,0.16,0.591,0.189,1.123,0.086
		c0.531-0.103,1.874-0.571,4.028-1.406c2.153-0.835,3.474-1.377,3.963-1.627c0.488-0.25,0.178-0.065-0.931,0.557
		c-1.109,0.622-1.945,1.087-2.507,1.395c-0.563,0.309-1.121,0.64-1.672,0.994c-0.553,0.354-1.232,0.672-2.039,0.953
		c-0.807,0.282-1.517,0.452-2.129,0.509c-0.613,0.057-1.066,0.008-1.36-0.148c-0.295-0.156-0.579-0.349-0.852-0.579
		c-0.273-0.23-0.32-0.679-0.141-1.348c0.178-0.668,0.718-1.773,1.619-3.314c0.9-1.54,1.659-2.68,2.276-3.419
		C43.753,4.796,44.391,4.126,45.05,3.525z"/>
	<path d="M50.623,7.829c0.319-0.182,0.714-0.308,1.187-0.381c0.473-0.072,0.866-0.081,1.181-0.026
		c0.315,0.055,0.586,0.169,0.812,0.342c0.227,0.173,0.771,0.231,1.635,0.173c0.863-0.058,1.938-0.116,3.226-0.176
		c1.288-0.059,1.016-0.023-0.813,0.107C56.022,8,54.984,8.098,54.736,8.162c-0.248,0.064-0.343,0.23-0.284,0.5
		c0.058,0.269,0.109,0.555,0.152,0.856c0.043,0.302,0.066,0.639,0.07,1.011c0.003,0.372-0.033,0.651-0.109,0.837
		c-0.077,0.186-0.195,0.383-0.356,0.592c-0.162,0.209-0.405,0.434-0.729,0.675c-0.325,0.241-0.728,0.47-1.209,0.688
		c-0.482,0.218-0.928,0.386-1.337,0.505c-0.409,0.118-0.858,0.149-1.347,0.09c-0.488-0.059-0.889-0.172-1.202-0.341
		c-0.313-0.168-0.566-0.347-0.758-0.536c-0.193-0.189-0.29-0.533-0.293-1.033c-0.002-0.499,0.079-0.906,0.243-1.22
		c0.165-0.313,0.427-0.646,0.789-0.998c0.361-0.352,0.465-0.512,0.31-0.481c-0.154,0.032-0.194,0.022-0.118-0.027
		c0.075-0.05,0.362-0.261,0.861-0.635C49.92,8.273,50.321,8,50.623,7.829z M52.039,9.888c-0.394-0.223-0.865-0.128-1.414,0.284
		c-0.548,0.412-0.867,0.835-0.955,1.267c-0.088,0.432-0.028,0.728,0.18,0.889c0.208,0.161,0.421,0.249,0.639,0.264
		c0.218,0.015,0.52-0.077,0.907-0.276c0.387-0.199,0.689-0.6,0.907-1.202C52.521,10.51,52.432,10.102,52.039,9.888z"/>
	<path d="M67.286,6.45c1.281-0.027,1.796,0.112,1.544,0.417c-0.251,0.305-0.495,0.827-0.73,1.567
		c-0.235,0.74-0.459,1.368-0.673,1.884c-0.214,0.516-0.529,1.065-0.947,1.648c-0.418,0.582-0.744,1.032-0.977,1.349
		c-0.233,0.318-0.525,0.677-0.875,1.078c-0.35,0.401-0.933,0.975-1.748,1.72c-0.816,0.746-1.767,1.401-2.852,1.967
		c-1.086,0.565-1.976,0.918-2.67,1.057c-0.694,0.139-1.482,0.152-2.363,0.038c-0.881-0.114-1.373-0.44-1.472-0.979
		c-0.1-0.539,1.068-1.495,3.503-2.869c2.435-1.373,2.584-1.427,0.446-0.161c-2.138,1.265-3.212,2.112-3.223,2.539
		c-0.01,0.428,0.189,0.661,0.599,0.702c0.409,0.041,0.815,0.008,1.216-0.096c0.402-0.104,0.944-0.328,1.626-0.671
		c0.683-0.343,1.254-0.659,1.714-0.949c0.46-0.289,1.012-0.725,1.655-1.306c0.642-0.581,1.219-1.195,1.728-1.842
		c0.509-0.646,0.856-1.095,1.041-1.346c0.185-0.251,0.515-0.772,0.991-1.562c0.475-0.79,0.387-0.98-0.267-0.571
		c-0.652,0.409-1.515,0.865-2.587,1.366c-1.072,0.501-1.959,0.831-2.66,0.988c-0.702,0.158-1.24,0.22-1.614,0.187
		c-0.375-0.033-0.709-0.125-1.003-0.277c-0.295-0.151-0.365-0.479-0.212-0.983c0.153-0.504,0.573-1.118,1.26-1.842
		c0.687-0.725,1.503-1.297,2.45-1.719c0.946-0.421,1.795-0.73,2.547-0.927c0.751-0.197,1.343-0.303,1.776-0.318
		c0.432-0.015,0.924,0.023,1.475,0.114C66.536,6.744,66.969,6.677,67.286,6.45z M64.595,8.046c-0.303-0.137-0.743-0.096-1.319,0.122
		c-0.577,0.219-1.217,0.537-1.922,0.953c-0.704,0.417-1.287,0.852-1.746,1.304c-0.46,0.453-0.223,0.503,0.71,0.151
		c0.933-0.353,1.77-0.727,2.51-1.123c0.74-0.396,1.286-0.717,1.635-0.964C64.814,8.243,64.857,8.095,64.595,8.046z"/>
</g>
</svg>
