<?xml version="1.0" encoding="iso-8859-1"?>
<!-- Generator: Adobe Illustrator 19.2.1, SVG Export Plug-In . SVG Version: 6.00 Build 0)  -->
<svg version="1.1" id="Layer_1" xmlns="http://www.w3.org/2000/svg" xmlns:xlink="http://www.w3.org/1999/xlink" x="0px" y="0px"
	 viewBox="0 0 70 20" style="enable-background:new 0 0 70 20;" xml:space="preserve">
<path id="fr7" style="fill:#00A69C;" d="M20.5,10c0,4.475-4.337,8.104-9.687,8.104c-5.351,0-9.688-3.628-9.688-8.104
	s4.337-8.104,9.688-8.104C16.163,1.896,20.5,5.524,20.5,10"/>
<g>
	<path d="M28.548,0.506c0.491-0.439,0.91-0.592,1.252-0.461c0.342,0.133,0.6,0.369,0.774,0.713c0.174,0.344,0.209,0.731,0.109,1.161
		C30.58,2.35,30.405,2.618,30.154,2.72s-0.555,0.244-0.913,0.427c-0.358,0.184-0.751,0.49-1.18,0.921
		c-0.429,0.43-0.976,1.063-1.643,1.897c-0.665,0.832-1.332,1.78-1.997,2.839c-0.666,1.059-1.127,2.126-1.382,3.201
		c-0.256,1.075-0.397,1.831-0.419,2.27c-0.024,0.439,0.01,0.914,0.102,1.426c0.091,0.512,0.246,0.914,0.463,1.206
		c0.217,0.292,0.485,0.501,0.802,0.625c0.32,0.124,0.653,0.165,1.006,0.121c0.352-0.043,0.801-0.102,1.345-0.175
		s1.256-0.292,2.134-0.657c0.877-0.365,1.77-0.914,2.678-1.644c0.907-0.731,1.501-1.316,1.78-1.754
		c0.279-0.439,0.265-0.366-0.043,0.218c-0.31,0.586-0.748,1.155-1.317,1.711c-0.569,0.555-1.414,1.313-2.532,2.269
		c-1.119,0.958-1.944,1.568-2.475,1.831c-0.531,0.263-1.055,0.431-1.571,0.504c-0.516,0.074-0.994,0.054-1.432-0.054
		c-0.439-0.11-0.804-0.314-1.093-0.614c-0.289-0.3-0.599-0.793-0.926-1.48c-0.328-0.687-0.526-1.491-0.593-2.412
		c-0.067-0.92-0.018-1.856,0.143-2.806c0.164-0.95,0.403-1.8,0.717-2.553s0.714-1.627,1.202-2.621
		c0.488-0.993,1.185-2.035,2.091-3.125c0.907-1.089,1.588-1.882,2.041-2.378C27.598,1.412,28.065,0.945,28.548,0.506z"/>
	<path d="M31.283,9.606c0.184-0.263,0.408-0.43,0.674-0.504c0.265-0.073,0.485-0.051,0.659,0.065
		c0.174,0.117,0.321,0.326,0.441,0.626s0.423,0.442,0.904,0.427c0.483-0.014,1.082-0.01,1.802,0.011
		c0.718,0.022,0.566,0.054-0.456,0.099c-1.023,0.043-1.604,0.106-1.743,0.186c-0.14,0.08-0.198,0.34-0.174,0.779
		s0.043,0.903,0.059,1.393c0.015,0.49,0.016,1.034,0.007,1.633c-0.01,0.599-0.038,1.045-0.087,1.338
		c-0.049,0.292-0.121,0.6-0.217,0.921c-0.097,0.322-0.239,0.662-0.428,1.019c-0.189,0.359-0.419,0.69-0.696,0.997
		c-0.276,0.306-0.528,0.537-0.761,0.69c-0.233,0.154-0.483,0.161-0.752,0.022c-0.271-0.138-0.489-0.357-0.659-0.657
		s-0.304-0.611-0.404-0.932c-0.102-0.322-0.146-0.884-0.13-1.688c0.015-0.804,0.072-1.45,0.174-1.941
		c0.102-0.49,0.258-1.001,0.472-1.535c0.212-0.533,0.274-0.781,0.187-0.745c-0.087,0.037-0.109,0.018-0.065-0.054
		c0.043-0.073,0.211-0.387,0.5-0.943C30.878,10.257,31.11,9.855,31.283,9.606z M32.007,13.049c-0.212-0.394-0.478-0.286-0.796,0.328
		c-0.317,0.614-0.51,1.265-0.572,1.951c-0.062,0.688-0.038,1.169,0.072,1.447c0.111,0.278,0.227,0.439,0.348,0.482
		c0.121,0.043,0.292-0.077,0.513-0.362c0.222-0.285,0.403-0.903,0.543-1.854C32.255,14.093,32.22,13.428,32.007,13.049z"/>
	<path d="M36.524,8.927c0.202-0.147,0.461-0.116,0.774,0.088c0.314,0.204,0.38,0.585,0.202,1.14
		c-0.178,0.555-0.469,1.473-0.876,2.751c-0.404,1.28-0.447,1.631-0.124,1.053c0.323-0.577,0.714-1.165,1.172-1.764
		c0.458-0.599,0.789-0.987,0.991-1.163c0.202-0.175,0.423-0.307,0.659-0.394c0.236-0.088,0.504-0.066,0.802,0.066
		c0.299,0.131,0.555,0.501,0.767,1.107s0.326,1.608,0.341,3.003c0.015,1.396,0.24,2.08,0.68,2.05
		c0.439-0.029,0.866-0.275,1.28-0.734c0.415-0.461,0.724-0.928,0.926-1.404c0.203-0.475,0.289-0.603,0.261-0.384
		c-0.029,0.219-0.14,0.541-0.333,0.965c-0.192,0.425-0.603,1.082-1.23,1.974s-1.17,1.345-1.628,1.359
		c-0.458,0.015-0.791-0.263-0.998-0.832c-0.208-0.57-0.342-1.481-0.404-2.73s-0.171-1.885-0.326-1.908
		c-0.154-0.022-0.493,0.213-1.013,0.702c-0.522,0.49-0.998,1.13-1.432,1.919c-0.435,0.79-0.789,1.458-1.063,2.006
		s-0.523,0.881-0.746,0.997c-0.222,0.117-0.403,0.029-0.542-0.263c-0.14-0.292-0.189-0.651-0.146-1.075
		c0.043-0.424,0.127-1.075,0.254-1.951c0.125-0.877,0.304-1.801,0.535-2.774c0.233-0.971,0.179-1.29-0.159-0.953
		c-0.338,0.336-0.75,0.844-1.237,1.524c-0.488,0.68-0.314,0.359,0.522-0.965c0.835-1.323,1.298-2.094,1.389-2.313
		s0.18-0.42,0.267-0.603C36.176,9.236,36.32,9.072,36.524,8.927z"/>
	<path d="M46.046,3.773c0.115-0.205,0.299-0.292,0.55-0.263c0.251,0.029,0.435,0.146,0.55,0.351
		c0.115,0.204,0.212,0.453,0.289,0.745c0.077,0.292,0.062,0.6-0.043,0.921c-0.105,0.322-0.208,0.741-0.304,1.261
		c-0.097,0.518-0.223,1.246-0.376,2.182c-0.154,0.935-0.146,1.462,0.028,1.579c0.174,0.117,0.473,0.234,0.898,0.351
		c0.425,0.117,1.103,0.161,2.032,0.131c0.931-0.029,0.88,0.074-0.152,0.306c-1.032,0.234-1.797,0.445-2.293,0.636
		c-0.497,0.19-0.826,0.326-0.985,0.405c-0.159,0.08-0.429,0.892-0.811,2.434c-0.381,1.542-0.632,2.57-0.752,3.081
		c-0.121,0.512-0.249,0.855-0.385,1.03c-0.135,0.175-0.309,0.307-0.522,0.394c-0.212,0.088-0.404,0.073-0.578-0.043
		s-0.171-0.592,0.008-1.426c0.178-0.832,0.423-1.82,0.73-2.96c0.309-1.14,0.478-1.849,0.506-2.127
		c0.028-0.277-0.097-0.379-0.376-0.306s-0.528,0.113-0.746,0.121c-0.217,0.007-0.323-0.198-0.32-0.614
		c0.004-0.417,0.18-0.757,0.528-1.02c0.348-0.263,0.655-0.398,0.926-0.406c0.271-0.007,0.512-0.577,0.724-1.71
		s0.338-1.886,0.376-2.259s0.102-0.88,0.187-1.524C45.829,4.402,45.931,3.979,46.046,3.773z"/>
	<path d="M52.849,8.597c0.223-0.088,0.466-0.102,0.73-0.045c0.265,0.06,0.478,0.184,0.637,0.373c0.159,0.19,0.311,0.563,0.456,1.118
		c0.143,0.556,0.078,0.928-0.196,1.118c-0.276,0.19-0.524,0.124-0.746-0.197c-0.223-0.322-0.453-0.387-0.696-0.198
		c-0.241,0.19-0.48,0.384-0.717,0.581c-0.236,0.197-0.528,0.508-0.876,0.932c-0.348,0.424-0.704,0.965-1.072,1.622
		c-0.366,0.658-0.569,1.079-0.609,1.261c-0.039,0.184,0.055,0.158,0.283-0.076s0.575-0.589,1.041-1.064
		c0.467-0.475,1.056-0.96,1.765-1.458c0.709-0.497,1.158-0.69,1.345-0.581c0.189,0.11,0.349,0.311,0.485,0.603
		c0.135,0.292,0.212,0.545,0.233,0.756c0.018,0.212-0.002,0.38-0.065,0.504c-0.062,0.124-0.136,0.405-0.217,0.844
		s-0.075,0.863,0.022,1.272c0.097,0.409,0.22,0.69,0.369,0.844c0.15,0.154,0.354,0.197,0.615,0.131
		c0.261-0.065,0.581-0.364,0.963-0.899c0.381-0.533,0.364-0.409-0.05,0.373c-0.414,0.782-0.742,1.28-0.985,1.491
		c-0.24,0.213-0.429,0.315-0.565,0.307c-0.136-0.008-0.311-0.073-0.528-0.197c-0.217-0.124-0.423-0.318-0.615-0.581
		c-0.192-0.263-0.345-0.585-0.456-0.965c-0.111-0.38-0.186-0.662-0.224-0.844c-0.038-0.183-0.127-0.384-0.267-0.603
		s-0.311-0.266-0.513-0.142s-0.556,0.464-1.063,1.019c-0.506,0.556-0.979,1.013-1.419,1.37c-0.439,0.359-0.832,0.607-1.18,0.746
		c-0.348,0.139-0.572,0.186-0.674,0.142c-0.1-0.045-0.212-0.209-0.333-0.493c-0.121-0.286-0.19-0.595-0.211-0.932
		c-0.018-0.336,0.012-0.676,0.093-1.02c0.082-0.343,0.391-1.03,0.926-2.06c0.535-1.031,1.051-1.875,1.548-2.533
		c0.497-0.657,1.025-1.217,1.584-1.678C52.236,8.981,52.627,8.701,52.849,8.597z"/>
	<path d="M59.478,9.036c0.936-0.556,1.573-0.694,1.911-0.417c0.338,0.278,0.504,0.694,0.5,1.249c-0.005,0.556-0.341,0.855-1.006,0.9
		c-0.666,0.043-1.24,0.311-1.724,0.8c-0.483,0.49-0.796,1.206-0.941,2.149c-0.146,0.942-0.024,1.655,0.361,2.137
		c0.386,0.482,0.777,0.705,1.172,0.669c0.397-0.037,0.746-0.128,1.05-0.275c0.304-0.146,0.659-0.387,1.063-0.724
		c0.404-0.336,0.861-0.822,1.367-1.458c0.506-0.637,0.494-0.552-0.037,0.252c-0.531,0.804-1.013,1.48-1.448,2.029
		c-0.435,0.548-0.821,0.95-1.158,1.205c-0.338,0.256-0.671,0.435-1,0.538c-0.328,0.102-0.721,0.131-1.18,0.088
		c-0.458-0.043-0.892-0.391-1.302-1.041c-0.41-0.651-0.613-1.421-0.609-2.313c0.005-0.892,0.097-1.645,0.276-2.259
		c0.178-0.614,0.451-1.217,0.817-1.809C57.963,10.165,58.59,9.592,59.478,9.036z"/>
	<path d="M65.715,3.773c0.115-0.205,0.299-0.292,0.55-0.263s0.435,0.146,0.55,0.351c0.115,0.204,0.212,0.453,0.289,0.745
		c0.077,0.292,0.062,0.6-0.043,0.921c-0.105,0.322-0.208,0.741-0.304,1.261c-0.097,0.518-0.223,1.246-0.376,2.182
		c-0.154,0.935-0.146,1.462,0.028,1.579c0.174,0.117,0.473,0.234,0.898,0.351c0.425,0.117,1.103,0.161,2.032,0.131
		c0.93-0.029,0.88,0.074-0.152,0.306c-1.034,0.234-1.797,0.445-2.293,0.636c-0.497,0.19-0.826,0.326-0.985,0.405
		c-0.159,0.08-0.429,0.892-0.811,2.434s-0.632,2.57-0.752,3.081c-0.121,0.512-0.249,0.855-0.383,1.03
		c-0.136,0.175-0.31,0.307-0.522,0.394c-0.212,0.088-0.404,0.073-0.578-0.043s-0.171-0.592,0.007-1.426
		c0.178-0.832,0.423-1.82,0.73-2.96c0.309-1.14,0.478-1.849,0.506-2.127c0.029-0.277-0.097-0.379-0.376-0.306
		c-0.279,0.073-0.528,0.113-0.746,0.121c-0.217,0.007-0.323-0.198-0.317-0.614c0.004-0.417,0.18-0.757,0.528-1.02
		c0.348-0.263,0.656-0.398,0.926-0.406c0.271-0.007,0.512-0.577,0.724-1.71s0.338-1.886,0.376-2.259
		c0.038-0.373,0.1-0.88,0.189-1.524C65.498,4.402,65.6,3.979,65.715,3.773z"/>
</g>
</svg>
