<?xml version="1.0" encoding="iso-8859-1"?>
<!-- Generator: Adobe Illustrator 19.2.1, SVG Export Plug-In . SVG Version: 6.00 Build 0)  -->
<svg version="1.1" id="Layer_1" xmlns="http://www.w3.org/2000/svg" xmlns:xlink="http://www.w3.org/1999/xlink" x="0px" y="0px"
	 viewBox="0 0 70 20" style="enable-background:new 0 0 70 20;" xml:space="preserve">
<path id="fr7" style="fill:#00A69C;" d="M20.5,10c0,4.475-4.337,8.104-9.687,8.104c-5.351,0-9.688-3.628-9.688-8.104
	c0-4.476,4.337-8.104,9.688-8.104C16.163,1.896,20.5,5.524,20.5,10"/>
<g>
	<path d="M30.044,0.506c0.452-0.439,0.837-0.592,1.152-0.461c0.315,0.133,0.552,0.369,0.712,0.713s0.192,0.731,0.1,1.161
		c-0.094,0.431-0.255,0.699-0.486,0.801c-0.231,0.102-0.511,0.244-0.84,0.427c-0.329,0.184-0.691,0.49-1.086,0.921
		c-0.395,0.43-0.898,1.063-1.512,1.897c-0.612,0.832-1.226,1.78-1.838,2.839c-0.613,1.059-1.037,2.126-1.272,3.201
		c-0.236,1.075-0.365,1.831-0.386,2.27c-0.022,0.439,0.009,0.914,0.094,1.426c0.084,0.512,0.226,0.914,0.426,1.206
		c0.2,0.292,0.446,0.501,0.738,0.625c0.294,0.124,0.601,0.165,0.926,0.121c0.324-0.043,0.737-0.102,1.238-0.175
		c0.501-0.073,1.156-0.292,1.964-0.657c0.807-0.365,1.629-0.914,2.464-1.644c0.835-0.731,1.381-1.316,1.638-1.754
		c0.257-0.439,0.244-0.366-0.04,0.218c-0.285,0.586-0.688,1.155-1.212,1.711c-0.524,0.555-1.301,1.313-2.33,2.269
		c-1.03,0.958-1.789,1.568-2.277,1.831c-0.489,0.263-0.971,0.431-1.446,0.504c-0.475,0.074-0.915,0.054-1.318-0.054
		c-0.404-0.11-0.74-0.314-1.006-0.614c-0.266-0.3-0.551-0.793-0.852-1.48c-0.302-0.687-0.484-1.491-0.546-2.412
		c-0.062-0.92-0.017-1.856,0.132-2.806c0.151-0.95,0.371-1.8,0.66-2.553c0.289-0.753,0.657-1.627,1.106-2.621
		c0.449-0.993,1.09-2.035,1.924-3.125c0.835-1.089,1.461-1.882,1.878-2.378C29.17,1.412,29.6,0.945,30.044,0.506z"/>
	<path d="M32.561,9.606c0.169-0.263,0.375-0.43,0.62-0.504c0.244-0.073,0.446-0.051,0.606,0.065c0.16,0.117,0.295,0.326,0.406,0.626
		c0.111,0.3,0.389,0.442,0.832,0.427c0.444-0.014,0.996-0.01,1.658,0.011c0.661,0.022,0.521,0.054-0.42,0.099
		c-0.941,0.043-1.476,0.106-1.604,0.186c-0.129,0.08-0.182,0.34-0.16,0.779c0.022,0.439,0.04,0.903,0.054,1.393
		c0.014,0.49,0.015,1.034,0.006,1.633s-0.035,1.045-0.08,1.338c-0.045,0.292-0.111,0.6-0.2,0.921
		c-0.089,0.322-0.22,0.662-0.394,1.019c-0.174,0.359-0.386,0.69-0.64,0.997c-0.254,0.306-0.486,0.537-0.7,0.69
		c-0.214,0.154-0.444,0.161-0.692,0.022c-0.249-0.138-0.45-0.357-0.606-0.657c-0.156-0.3-0.28-0.611-0.372-0.932
		c-0.094-0.322-0.134-0.884-0.12-1.688s0.066-1.45,0.16-1.941c0.094-0.49,0.237-1.001,0.434-1.535
		c0.195-0.533,0.252-0.781,0.172-0.745c-0.08,0.037-0.1,0.018-0.06-0.054c0.04-0.073,0.194-0.387,0.46-0.943
		C32.188,10.257,32.402,9.855,32.561,9.606z M33.227,13.049c-0.195-0.394-0.44-0.286-0.732,0.328
		c-0.292,0.614-0.469,1.265-0.526,1.951c-0.057,0.688-0.035,1.169,0.066,1.447c0.102,0.278,0.209,0.439,0.32,0.482
		c0.111,0.043,0.269-0.077,0.472-0.362c0.204-0.285,0.371-0.903,0.5-1.854C33.455,14.093,33.423,13.428,33.227,13.049z"/>
	<path d="M37.383,8.927c0.186-0.147,0.424-0.116,0.712,0.088c0.289,0.204,0.35,0.585,0.186,1.14
		c-0.164,0.555-0.432,1.473-0.806,2.751c-0.372,1.28-0.411,1.631-0.114,1.053c0.297-0.577,0.657-1.165,1.078-1.764
		c0.421-0.599,0.726-0.987,0.912-1.163c0.186-0.175,0.389-0.307,0.606-0.394c0.217-0.088,0.464-0.066,0.738,0.066
		c0.275,0.131,0.511,0.501,0.706,1.107s0.3,1.608,0.314,3.003c0.014,1.396,0.221,2.08,0.626,2.05
		c0.404-0.029,0.797-0.275,1.178-0.734c0.382-0.461,0.666-0.928,0.852-1.404c0.187-0.475,0.266-0.603,0.24-0.384
		c-0.027,0.219-0.129,0.541-0.306,0.965c-0.177,0.425-0.555,1.082-1.132,1.974c-0.577,0.892-1.077,1.345-1.498,1.359
		c-0.421,0.015-0.728-0.263-0.918-0.832c-0.191-0.57-0.315-1.481-0.372-2.73c-0.057-1.249-0.157-1.885-0.3-1.908
		c-0.142-0.022-0.454,0.213-0.932,0.702c-0.48,0.49-0.918,1.13-1.318,1.919c-0.4,0.79-0.726,1.458-0.978,2.006
		c-0.252,0.548-0.481,0.881-0.686,0.997c-0.204,0.117-0.371,0.029-0.499-0.263c-0.129-0.292-0.174-0.651-0.134-1.075
		s0.117-1.075,0.234-1.951c0.115-0.877,0.28-1.801,0.492-2.774c0.214-0.971,0.165-1.29-0.146-0.953
		c-0.311,0.336-0.69,0.844-1.138,1.524c-0.449,0.68-0.289,0.359,0.48-0.965c0.768-1.323,1.194-2.094,1.278-2.313
		c0.084-0.219,0.166-0.42,0.246-0.603C37.063,9.236,37.196,9.072,37.383,8.927z"/>
	<path d="M46.145,3.773c0.106-0.205,0.275-0.292,0.506-0.263c0.231,0.029,0.4,0.146,0.506,0.351
		c0.106,0.204,0.195,0.453,0.266,0.745c0.071,0.292,0.057,0.6-0.04,0.921c-0.097,0.322-0.191,0.741-0.28,1.261
		c-0.089,0.518-0.205,1.246-0.346,2.182c-0.142,0.935-0.134,1.462,0.026,1.579c0.16,0.117,0.435,0.234,0.826,0.351
		c0.391,0.117,1.015,0.161,1.87,0.131c0.857-0.029,0.81,0.074-0.14,0.306c-0.95,0.234-1.654,0.445-2.11,0.636
		c-0.457,0.19-0.76,0.326-0.906,0.405c-0.146,0.08-0.395,0.892-0.746,2.434s-0.582,2.57-0.692,3.081
		c-0.111,0.512-0.229,0.855-0.354,1.03c-0.124,0.175-0.284,0.307-0.48,0.394c-0.195,0.088-0.372,0.073-0.532-0.043
		s-0.157-0.592,0.007-1.426c0.164-0.832,0.389-1.82,0.672-2.96c0.284-1.14,0.44-1.849,0.466-2.127
		c0.026-0.277-0.089-0.379-0.346-0.306s-0.486,0.113-0.686,0.121c-0.2,0.007-0.297-0.198-0.294-0.614
		c0.004-0.417,0.166-0.757,0.486-1.02c0.32-0.263,0.603-0.398,0.852-0.406c0.249-0.007,0.471-0.577,0.666-1.71
		c0.195-1.133,0.311-1.886,0.346-2.259s0.094-0.88,0.172-1.524C45.946,4.402,46.039,3.979,46.145,3.773z"/>
	<path d="M52.405,8.597c0.205-0.088,0.429-0.102,0.672-0.045c0.244,0.06,0.44,0.184,0.586,0.373c0.146,0.19,0.286,0.563,0.42,1.118
		c0.132,0.556,0.072,0.928-0.18,1.118c-0.254,0.19-0.482,0.124-0.686-0.197c-0.205-0.322-0.417-0.387-0.64-0.198
		c-0.222,0.19-0.442,0.384-0.66,0.581c-0.217,0.197-0.486,0.508-0.806,0.932c-0.32,0.424-0.648,0.965-0.986,1.622
		c-0.337,0.658-0.524,1.079-0.56,1.261c-0.036,0.184,0.051,0.158,0.26-0.076c0.209-0.234,0.529-0.589,0.958-1.064
		c0.43-0.475,0.972-0.96,1.624-1.458c0.652-0.497,1.066-0.69,1.238-0.581c0.174,0.11,0.321,0.311,0.446,0.603
		c0.124,0.292,0.195,0.545,0.214,0.756c0.017,0.212-0.002,0.38-0.06,0.504c-0.057,0.124-0.125,0.405-0.2,0.844
		s-0.069,0.863,0.02,1.272c0.089,0.409,0.202,0.69,0.34,0.844s0.326,0.197,0.566,0.131c0.24-0.065,0.535-0.364,0.886-0.899
		c0.351-0.533,0.335-0.409-0.046,0.373c-0.381,0.782-0.683,1.28-0.906,1.491c-0.221,0.213-0.395,0.315-0.52,0.307
		c-0.125-0.008-0.286-0.073-0.486-0.197c-0.2-0.124-0.389-0.318-0.566-0.581c-0.177-0.263-0.317-0.585-0.42-0.965
		c-0.102-0.38-0.171-0.662-0.206-0.844c-0.035-0.183-0.117-0.384-0.246-0.603c-0.129-0.219-0.286-0.266-0.472-0.142
		c-0.186,0.124-0.512,0.464-0.978,1.019c-0.466,0.556-0.901,1.013-1.306,1.37c-0.404,0.359-0.766,0.607-1.086,0.746
		s-0.526,0.186-0.62,0.142c-0.092-0.045-0.195-0.209-0.306-0.493c-0.111-0.286-0.175-0.595-0.194-0.932
		c-0.017-0.336,0.011-0.676,0.086-1.02c0.075-0.343,0.36-1.03,0.852-2.06c0.492-1.031,0.967-1.875,1.424-2.533
		c0.457-0.657,0.943-1.217,1.458-1.678C51.841,8.981,52.201,8.701,52.405,8.597z"/>
	<path d="M58.505,9.036c0.861-0.556,1.447-0.694,1.758-0.417c0.311,0.278,0.464,0.694,0.46,1.249
		c-0.005,0.556-0.314,0.855-0.926,0.9c-0.613,0.043-1.141,0.311-1.586,0.8c-0.444,0.49-0.732,1.206-0.866,2.149
		c-0.134,0.942-0.022,1.655,0.332,2.137c0.355,0.482,0.715,0.705,1.078,0.669c0.365-0.037,0.686-0.128,0.966-0.275
		c0.28-0.146,0.606-0.387,0.978-0.724c0.372-0.336,0.792-0.822,1.258-1.458c0.466-0.637,0.455-0.552-0.034,0.252
		c-0.489,0.804-0.932,1.48-1.332,2.029c-0.4,0.548-0.755,0.95-1.066,1.205c-0.311,0.256-0.617,0.435-0.92,0.538
		c-0.302,0.102-0.663,0.131-1.086,0.088c-0.421-0.043-0.821-0.391-1.198-1.041c-0.377-0.651-0.564-1.421-0.56-2.313
		c0.005-0.892,0.089-1.645,0.254-2.259c0.164-0.614,0.415-1.217,0.752-1.809C57.111,10.165,57.688,9.592,58.505,9.036z"/>
	<path d="M64.244,3.773c0.106-0.205,0.275-0.292,0.506-0.263s0.4,0.146,0.506,0.351c0.106,0.204,0.195,0.453,0.266,0.745
		s0.057,0.6-0.04,0.921c-0.097,0.322-0.191,0.741-0.28,1.261c-0.089,0.518-0.205,1.246-0.346,2.182
		c-0.142,0.935-0.134,1.462,0.026,1.579c0.16,0.117,0.435,0.234,0.826,0.351c0.391,0.117,1.015,0.161,1.87,0.131
		c0.856-0.029,0.81,0.074-0.14,0.306c-0.951,0.234-1.654,0.445-2.11,0.636c-0.457,0.19-0.76,0.326-0.906,0.405
		c-0.146,0.08-0.395,0.892-0.746,2.434c-0.351,1.542-0.582,2.57-0.692,3.081c-0.111,0.512-0.229,0.855-0.352,1.03
		c-0.125,0.175-0.285,0.307-0.48,0.394c-0.195,0.088-0.372,0.073-0.532-0.043s-0.157-0.592,0.006-1.426
		c0.164-0.832,0.389-1.82,0.672-2.96c0.284-1.14,0.44-1.849,0.466-2.127c0.027-0.277-0.089-0.379-0.346-0.306
		s-0.486,0.113-0.686,0.121c-0.2,0.007-0.297-0.198-0.292-0.614c0.004-0.417,0.166-0.757,0.486-1.02
		c0.32-0.263,0.604-0.398,0.852-0.406c0.249-0.007,0.471-0.577,0.666-1.71c0.195-1.133,0.311-1.886,0.346-2.259
		c0.035-0.373,0.092-0.88,0.174-1.524C64.044,4.402,64.138,3.979,64.244,3.773z"/>
</g>
</svg>
