<?xml version="1.0" encoding="utf-8"?>
<!-- Generator: Adobe Illustrator 19.2.1, SVG Export Plug-In . SVG Version: 6.00 Build 0)  -->
<svg version="1.1" id="Layer_1" xmlns="http://www.w3.org/2000/svg" xmlns:xlink="http://www.w3.org/1999/xlink" x="0px" y="0px"
	 viewBox="0 0 632.1 150" style="enable-background:new 0 0 632.1 150;" xml:space="preserve">
<style type="text/css">
	.st0{fill:#00BD9C;}
	.st1{fill:#ECE0DB;}
	.st2{fill:#5D2D7A;}
</style>
<rect id="XMLID_11_" x="1140.7" y="-1244.1" class="st0" width="217.9" height="217.9"/>
<rect id="XMLID_197_" x="1162.4" y="-1493.4" class="st1" width="217.9" height="217.9"/>
<g id="XMLID_202_">
	<path id="XMLID_203_" class="st2" d="M198.9,125.2c-7.4,0-13.4-3-18.1-9l-5.4-8c-2.9-5.2-4.9-11.2-5.9-18.1
		c-0.5-3.5-0.7-6.8-0.6-10.1s0.4-6.5,1.1-9.6c0.5-2.6,1.2-5.1,2.2-7.4s2.1-4.6,3.3-7.1c0.2-0.3,0.3-0.5,0.4-0.6
		c0.1-0.1,0.2-0.3,0.3-0.5c0,0,0-0.1,0.1-0.1c0,0,0.1-0.1,0.1-0.2c0.1-0.1,0.2-0.2,0.2-0.2L187,43.4c0.3-0.3,0.6-0.6,0.9-0.8
		s0.6-0.5,0.8-0.7l5-3.4c0.2-0.1,0.3-0.2,0.3-0.2l0.1-0.1l0.1-0.1c0.1-0.1,0.2-0.2,0.5-0.3l5.2-3c4.9-2.2,9.8-3.5,14.8-4.1
		c4.8-0.6,10.1,0,15.9,1.8c1.2,0.4,2.3,1,3.3,1.7s2.1,1.4,3.2,2.1l1,0.8c0,0.2,0.1,0.2,0.2,0.2l3.7,4.8c0.7,1.4,1,2.2,0.9,2.5
		c0,0.3,0.1,1.1,0.4,2.3V47c0,0,0,0.1,0.1,0.1c0.4,1.3,0.6,1.8,0.6,1.2c0.1-0.3,0.1-0.3,0.1-0.2s-0.1,0.5-0.2,1l-1.9,5.6
		c-0.2,0.4-0.4,0.7-0.5,0.9c-0.7,1-1,1.5-0.9,1.3s-0.2-0.1-0.9,0.4l-0.8,0.6l-0.1,0.1l-0.1,0.1c-0.3,0.2-0.4,0.3-0.2,0.2
		c0.1,0,0.1,0,0.1,0c-0.1,0-0.3,0.1-0.6,0.2c-0.4,0.2-0.8,0.3-1.1,0.3s-0.6,0-0.9-0.1c-0.3-0.1-0.5-0.1-0.7-0.2s-0.4-0.2-0.7-0.2
		c-0.9-0.1-1.6-0.4-2.2-0.9c-0.6-0.5-1.3-0.9-2.1-1.3c-0.3-0.1-0.7-0.3-1-0.4c-0.4-0.2-0.7-0.3-1.1-0.6c-0.3-0.2-0.6-0.5-0.8-0.7
		c-0.2-0.3-0.3-0.6-0.3-1.1c0-0.2,0.2-0.3,0.5-0.4s-0.1-0.5-1.2-1.1l-5.4-1.4c-0.6-0.1-1.2-0.1-1.6-0.2c-0.4,0-0.7-0.1-0.9-0.1
		c-3.3-0.4-6.8,0.2-10.6,1.8c-0.4,0.2-0.6,0.3-0.8,0.4s-0.3,0.2-0.5,0.2c-0.1,0.1-0.3,0.1-0.5,0.2s-0.4,0.2-0.7,0.3
		c-4,1.9-7.5,4.4-10.7,7.5l-5.4,6.3c-2.4,3.6-3.8,7.1-4.1,10.5c-0.3,3.3-0.3,7.1,0.2,11.3c0.1,0.8,0.2,1.6,0.4,2.5
		c0.2,0.8,0.5,1.8,0.8,2.7c0.4,0.9,0.7,1.8,1.1,2.7c0.4,0.8,0.7,1.6,1,2.2l3.7,6.5c1.6,2.3,3.3,3.9,5.1,4.7c1.3,0.7,3,1.1,5,1.1
		c1.9,0,3.6-0.2,5.1-0.5c0.6-0.1,1.1-0.2,1.5-0.3c0.4-0.1,0.8-0.2,1.2-0.3c0.4-0.1,0.8-0.2,1.2-0.4c0.4-0.1,0.9-0.3,1.4-0.5
		c2.6-0.8,5-1.7,7.3-2.7s4.5-2.2,6.6-3.4c0.9-0.6,1.7-1,2.2-1.1c2.8-0.6,4.3-0.4,4.5,0.8c0.3,1.1-0.1,2.6-1.1,4.4
		c-0.5,0.9-1.1,1.8-1.7,2.7c-0.6,0.9-1.3,1.8-2.1,2.7c-1.5,1.8-2.7,3-3.6,3.6c-2,1.3-4,2.6-6,3.7s-4.1,2.1-6.2,2.9
		c-2.1,0.8-4.4,1.4-6.6,1.9C203.8,124.9,201.4,125.2,198.9,125.2z"/>
	<path id="XMLID_205_" class="st2" d="M277.1,123.3c-1.3,0-2-0.1-2.2-0.2c-0.1-0.1-1.3-0.2-3.6-0.3c-1.5,0-3.2-0.5-5-1.6
		c-3.7-2-6.8-4-9.3-6.2c-2.4-2.1-4.5-5.3-6.3-9.4c-2.2-5.1-3.5-11.1-4-18.1c-0.5-7.1,0.4-13.3,2.7-18.6c0.6-1.3,1.1-2.5,1.5-3.6
		c0.5-1.1,0.9-2.2,1.2-3.1c0.4-0.9,0.9-2,1.6-3.1c0.7-1.1,1.4-2.3,2.4-3.6l2-2.1l0.2-0.2l5.3-4c2.5-1.7,6.3-2.7,11.2-2.9
		c4.9-0.2,8.7,0.2,11.3,1.1c3.4,1.3,5,2,4.8,2.1s0.4,0.5,1.9,1.2c0.3,0.2,0.5,0.3,0.5,0.3c0.1,0,0,0-0.1-0.1c-0.2-0.1,0-0.1,0.5,0.1
		c0.2,0.2,0.5,0.4,0.6,0.4l2.9,2.9c0.4,0.4,0.8,0.8,1.1,1.2s0.5,0.6,0.7,0.9c0.5,0.6,1,1.4,1.5,2.5l4.9,8.9c2.1,3.3,3.3,6.5,3.6,9.4
		c0.2,1.5,0.3,3,0.4,4.5s0.3,3.2,0.4,4.8l-0.7,10.3c-0.4,2.2-1.3,4.8-2.9,7.7c-1.6,3.1-3.2,5.6-4.8,7.5c-1.7,1.9-4.4,3.9-8,5.8
		c-1.8,1-3.5,1.8-5,2.4s-2.8,1.1-4,1.4c-1.8,0.4-3,0.7-3.4,1C281,123.2,279.5,123.3,277.1,123.3z M276.6,107.7
		c0.3-0.6,0.8-1.3,1.7-2.2l6.5-10.9l0.8-1.5c0.2-0.3,0.3-0.9,0.4-1.8c0.1-1.4,0.2-2.6,0.2-3.7s0-2.1-0.1-3c-0.2-1.8-0.9-3.6-2.1-5.4
		c-0.6-0.8-1.1-1.7-1.5-2.5s-0.9-1.8-1.2-2.7c-0.6-1.8-1.4-2.9-2.2-3.2l-2.5-0.2h-0.4c-0.8,0-1.7-0.1-2.7-0.1s-1.7,0.1-2.3,0.4
		c-0.5,0.3-1.6,1.6-3.3,3.9c-1.7,2.3-2.7,3.9-3.1,4.8c-0.4,1-0.8,2.3-1.1,3.7c-0.3,1.5-0.6,3.2-0.8,5.2c-0.4,3.9-0.2,7,0.5,9.5
		l3.4,11.6l3.5-0.8c0.3-0.1,0.4,0,0.4,0.2s0.1,0.4,0.5,0.6s1.8,0.3,4.1,0.4L276.6,107.7z"/>
	<path id="XMLID_208_" class="st2" d="M335.1,48.2l1.2,0.1c0.2,0.7,0.2,1.3,0.1,1.7s-0.1,1.1-0.1,2.2l1.9-0.5h0.1h0.1c0,0,0,0,0.1,0
		l0.2-0.1l1.9-0.8c3.5-1.5,7.3-1.8,11.6-0.9c1.3,0.3,2.4,0.6,3.4,0.9s1.9,0.6,2.6,0.9c1.5,0.7,3.2,1.9,5.1,3.5
		c1.7,1.5,2.9,3.6,3.7,6.1l0.3,0.7c0.8,2.5,1.2,4.6,1.2,6.3c0,0.9,0,1.8,0,2.8c0.1,1,0.1,2,0.2,3c0.2,3-0.1,7.6-0.9,13.7
		c-0.7,6.1-1.8,10.9-3.2,14.4c-1,2.5-1.5,5.5-1.5,8.9c0,3.3-0.7,6.3-1.9,9c-0.2,0.4-0.3,0.6-0.4,0.7s-0.1,0.2-0.2,0.5
		c-0.2,0.3-0.3,0.5-0.3,0.7s-0.1,0.4-0.2,0.6c-0.7-0.5-1.3-1.2-1.9-2.1s-1-1.8-1.5-2.6c-1.8-3.5-2.6-8-2.4-13.5
		c0.1-2.7,0.2-5.2,0.3-7.6c0.1-2.3,0.1-4.5,0-6.4l-1.1-12.9l-0.6-3.3c-0.2-1-0.7-1.5-1.2-1.5c-1.7,0-3.3,0.5-4.8,1.5
		c-0.7,0.5-1.3,1-2,1.4s-1.4,0.8-2,1.2l-3.1,1.8c-1,0.5-1.8,1-2.5,1.6s-1.4,1.2-2.2,1.8l-1.2,1.7c-0.5,0.6-0.8,0.8-0.9,0.7
		c-0.1-0.2-0.3,0.1-0.5,1.1l-0.2,0.7c0,0-0.1,0.2-0.1,0.4l-6,26.9c-0.5,1.9-0.9,4.2-1.2,7c-0.4,2.8-1.1,4.8-2.3,6.3l-0.9,0.9
		c-0.1,0-0.3,0.2-0.7,0.6c-1.9-1-3.4-2.8-4.6-5.2c-0.3-0.6-0.6-1.2-0.7-1.7s-0.3-1.1-0.4-1.7s-0.2-1.2-0.3-1.8s-0.2-1.4-0.3-2.2
		c-0.7-3.7-0.9-6.5-0.8-8.3v-2c0-0.2,0-0.4,0.1-0.8c0-0.4,0.1-0.7,0.1-1l0.1-19.4c-0.1-0.9-0.1-1.7-0.1-2.3c0.1-0.6,0.1-1.2,0.1-1.8
		c-0.2-4.9-0.2-9.9-0.1-14.9s-0.1-10.1-0.6-15c-0.4-4,0.6-7.2,3.1-9.5c0.2-0.2,0.4-0.3,0.6-0.4s0.4-0.3,0.6-0.5l1.3-1.8
		c0.8-0.9,2.1-1.4,4-1.7c0.9,0,1.5,0,1.7,0.1c0.5,0.1,0.9,0.1,1,0.2s0.2,0.1,0.1,0.1s0.2,0.1,0.9,0.4c1.1,0.5,1.6,0.6,1.2,0.2
		c-0.3-0.4,0.1-0.4,1.1,0c0.7,0.3,1.3,0.8,1.6,1.7c0.4,0.8,1,1.4,2,1.8c0.1,0.1,0.2,0.2,0.2,0.1l0.1,0.1l0.1,0.1l0.4,0.4
		c1.1,1,1.6,1.7,1.7,2s0.1,1,0,2.2c-0.2,1.5,0,2,0.4,1.7c0.5-0.5,0.4-0.1-0.2,1.2L335.1,48.2z M330.9,39c-0.1,0-0.1-0.1-0.1-0.2
		L330.9,39z M331,39.2C331,39.3,331,39.3,331,39.2l-0.1,0.1L331,39.2z M334.9,49.2L334.9,49.2C334.9,49.2,335,49.2,334.9,49.2
		l0.1,0.1C335.1,49.1,335,49.1,334.9,49.2z M347.8,50.5c0,0.7,0,0.9,0.1,0.5c0-0.1,0.1-0.1,0.1-0.2s0-0.1,0.1-0.1c0,0,0-0.1,0.1-0.1
		c0.2,0,0.2-0.1,0-0.4C347.9,49.7,347.8,49.9,347.8,50.5z"/>
	<path id="XMLID_214_" class="st2" d="M390.6,31.9c0-0.9-0.1-1.2-0.2-0.8c-0.1,0.3-0.2-0.1-0.2-1.3l-0.1-5.4
		c-0.1-1.3-0.1-2.4-0.2-3.3s-0.1-1.6-0.1-2.1c0.1-1.1,0.9-2.4,2.4-4l3.3-3.8c0.3-0.4,0.8-0.8,1.4-1.1c0.5-0.2,0.8-0.3,0.9-0.3
		s0,0.1-0.3,0.2c-0.3,0.2-0.4,0.2-0.2,0.2c0.1,0,0.5-0.1,1-0.3c0.3-0.1,0.5-0.1,0.6-0.2c0.1,0,0,0-0.1,0.1c-0.3,0.1-0.2,0,0.3-0.3
		c0.4-0.3,0.4-0.4,0.2-0.2c-0.2,0,0-0.1,0.5-0.4c0.3-0.2,0.5-0.3,0.6-0.4s0.1-0.1,0.1-0.1s0.3,0,1.1-0.1l0.9,1.4
		c0.2-0.4,0.5-0.7,0.9-0.9c0.2-0.2,0.6-0.2,1.1-0.1c1.4,0.3,2.3,0.8,2.8,1.5c0.5,0.8,0.8,1.2,0.9,1.2c0.2,0.2,0.5,0.3,0.9,0.4
		s0.9,0.6,1.4,1.4l2.1,2.9c0.2,0.4,0.4,0.8,0.5,1.2c0.1,0.3,0.1,0.7,0.2,1s0.1,0.7,0.2,1.1s0.2,0.8,0.4,1.3c0.6,1.6,0.7,3.5,0.5,5.6
		c-0.1,1-0.1,2.1-0.1,3.1s0,2.1,0,3.1c0,0.7-0.1,1.6-0.3,2.6c-0.2,1-0.3,2-0.4,3.1c-0.1,0.6-0.1,1.1-0.2,1.5c0,0.5-0.1,0.9-0.1,1.4
		s-0.1,1-0.1,1.5s0,1.2,0,1.9l6.4-0.7c2.3,0,4.5,0.5,6.5,1.6c0.1,0,0.2,0.1,0.3,0.2c0.8,0.6,1.5,1.2,2.1,1.9s1.3,1.3,2.1,1.9
		c0.1,0.1,0.2,0.2,0.3,0.2l1,0.7c-0.2,0.6-0.5,1.3-0.9,2.2c0.4,0,0.8,0.1,1,0.1s0.3,0,0.4,0c0,0,0.2,0.4,0.4,1.2
		c-0.5,0.7-0.7,1-0.6,1c0,0-0.5-0.1-1.5-0.1l0.9,1.3c-0.1,1-0.1,1.5-0.1,1.4c0.1-0.1-0.4-0.3-1.3-0.5c0.2,0.3,0.3,0.6,0.4,0.7
		c0.1,0.2,0.3,0.3,0.4,0.5s0.3,0.3,0.4,0.6c0.1,0.2,0.3,0.5,0.5,0.9l-0.7,1.1c-0.3,0.4-0.5,0.6-0.6,0.7c-1.1,0.8-1.8,1.1-2.1,0.9
		c-0.3-0.2-0.5,0.2-0.6,1.1c-0.3,2-1.8,3-4.4,3c-1.3,0-2.2,0-2.5-0.1s-0.5,0.4-0.5,1.4c-3,0.1-5.4-0.2-7.3-0.8
		c-0.8-0.2-1.5-0.5-2.1-0.7s-1.3-0.3-2-0.1c-0.6,0.1-0.6,0-0.1-0.2c0.3-0.2,0.4-0.2,0.3-0.1s-0.3,0.3-0.7,0.5
		c-0.6,0.4-0.8,0.5-0.6,0.3c0.2-0.2,0.1,0.2-0.1,1l-2.3,10.6c-0.2,2.8-0.4,4.7-0.5,5.7c-0.1,0.9-0.2,3.1-0.2,6.6l0.1,6.1
		c-0.1,1.8-0.1,3.4,0.1,4.9c0.1,1.5,0.4,2.9,0.7,4.2c0.7,2.6,1.2,5,1.4,7.1c1.4,0.3,2.6,0.5,3.7,0.6s2,0.1,2.8,0
		c1.6-0.2,1.5,1.7-0.3,5.6c-1.7,3.4-4,5.2-7,5.6s-5.6-0.3-7.8-1.8c0,0-0.3-0.2-0.8-0.7s-0.8-0.7-0.8-0.8c-0.2,0-0.2-0.1-0.2-0.2
		l-2.6-3.6c-1.3-2-2.3-4.1-3.1-6.3s-1.5-4.4-2-6.7c-0.2-0.3-0.2-0.6-0.2-0.8c-0.6-2.2-1.1-4.7-1.5-7.3s-0.6-5.3-0.6-8
		c0-1.5-0.1-3.2-0.2-5.1s-0.3-4-0.6-6.3c-0.5-4.5-0.1-8.1,1.2-10.8c-1.8,0-3.4,0-4.8-0.1c-1.5-0.1-2.8-0.2-4.1-0.3
		c-2.4-0.3-5.1-1.2-7.9-2.7c-0.1-0.1-0.2-0.1-0.2-0.1l-1.5-1.4c-0.1-0.2-0.2-0.3-0.3-0.4c-0.1-0.1-0.2-0.2-0.3-0.4
		c0.6-2.2,2.1-4,4.7-5.4c2.6-1.5,4.9-2.8,6.9-3.7c0.5-0.2,0.9-0.4,1.3-0.6s0.8-0.4,1.1-0.6c0.9-0.4,1.6-0.7,2.2-0.9
		c3.3-1.1,5.1-2,5.4-2.6s0.5-4.6,0.6-12.1c0-0.9,0.1-1.4,0.2-1.2C390.6,33.3,390.6,32.9,390.6,31.9z M409.9,14.3
		c0-0.1,0-0.2-0.1-0.2L409.9,14.3z"/>
	<path id="XMLID_217_" class="st2" d="M454.1,51.4c2-0.2,4.4-0.3,7.3-0.5s5.6-0.2,8.2,0c1.1,0.1,2.1,0.2,2.9,0.3s1.5,0.2,2,0.3
		c0.6,0.1,1.2,0.2,2,0.4c0.7,0.2,1.6,0.5,2.7,0.8c1.1,0.4,2.2,0.9,3.4,1.4c1.2,0.6,2.2,1.3,3,2.2c0,0.1,0.2,0.3,0.4,0.5
		c2.3,2.9,3.4,6.2,3.1,10l-1,2.9c-0.2,0.4-0.4,0.6-0.4,0.5s-0.1,0.2-0.4,0.9l-2.4,8.7c-0.4,1.3-0.7,2.5-1.1,3.7
		c-0.4,1.1-0.7,2.3-0.9,3.6l-4.3,26.9c-0.1,0.7-0.1,1.4-0.1,2.1s0.1,1.5,0.1,2.2c0,0.8,0,1.5-0.1,2.2s-0.2,1.3-0.4,1.8
		c-0.9,2.3-2.1,3-3.4,2.1s-2.5-2-3.7-3.4c-0.3-0.3-0.5-0.6-0.6-0.7c-0.2-0.2-0.3-0.3-0.4-0.3c-0.1-0.1-0.2-0.6-0.5-1.5
		c-0.2-0.6-0.3-0.9-0.2-1c0.1-0.1,0-0.5-0.2-1.4c-0.7,0.6-1.1,1-1.1,1.1c0,0.2-0.5,0.6-1.7,1.5l-3.2,2.1c-1.3,0.7-2.5,1.3-3.7,1.8
		c-1.1,0.4-2.6,0.6-4.6,0.6c-1.5,0-2.9-0.2-4.4-0.5s-2.9-0.8-4.2-1.4c-1.4-0.6-2.6-1.3-3.9-2c-1.2-0.8-2.3-1.6-3.4-2.5l-3.1-3.1
		c-2.8-3.3-4.6-7.1-5.5-11.4c-0.3-1.7-0.3-3.6,0-5.7c0.5-2.6,1.7-5.1,3.5-7.4c0.9-1.2,1.9-2.2,2.8-3.2s1.9-1.8,2.9-2.4
		c2.6-1.9,5.2-3.2,7.7-4.1c2.4-0.9,5.1-1.6,8.2-2.3c2-0.4,3.7-0.8,5.1-1s2.6-0.3,3.6-0.4c1.9-0.1,4.7,0.2,8.5,1.1
		c0.1-0.3,0.2-0.6,0.2-1.1s0-0.9,0.1-1.4s0.1-1,0.1-1.4c0.1-0.5,0.2-1,0.4-1.4c-2,0-3.8,0-5.3,0c-1.6,0-2.9,0-4,0.1
		c-2.2,0-5.2,0.5-9,1.4c-0.1,0-0.3,0-0.5,0.1c-1.9,0.5-3.6,1.2-5.3,2c-0.5,0.5-1,0.8-1.4,0.8l-2.2,0.5c-0.4,0.1-0.6,0.1-0.7,0.2
		s0,0.1,0.2,0.1h-0.7l-7.4-2.3c-0.2-0.1-0.5-0.5-0.8-1c-0.2-0.4-0.4-0.6-0.5-0.8c-0.1-0.2-0.2-0.3-0.3-0.3c-0.1-0.1-0.2-0.1-0.2-0.1
		c-0.1,0-0.1-0.1-0.3-0.1c-0.1-0.1-0.2-0.2-0.3-0.3c-0.1-0.1-0.1-0.1-0.2-0.2c0-0.1-0.1-0.3-0.1-0.5s-0.1-0.6-0.1-1.1
		c0-1,0.3-1.8,0.8-2.4c-0.8-0.2-1.2-0.3-1.1-0.4s-0.3-0.2-1.1-0.5c0.2-1.9,0.4-3.4,0.8-4.4c0.3-0.9,1-2.2,2.1-3.7
		c0.7-0.9,1.8-1.5,3.1-1.9c1.3-0.4,2-0.8,1.9-1.1c-0.2-0.7-0.3-0.7-0.4,0c0,0.7-0.2,0.4-0.5-0.8L454.1,51.4z M434.2,63.8L434.2,63.8
		c-0.1-0.2-0.1-0.3-0.2-0.2L434.2,63.8z M444.3,101c0,0.1,0.1,0.2,0.2,0.4c0.1,0.1,0.1,0.2,0.1,0.2c0,0.1,0.1,0.2,0.1,0.2
		c0.4,0.8,0.7,1.5,1.1,2c0.3,0.6,0.8,1.1,1.4,1.7l1,0.8c3,2.3,5.4,3.4,7.3,3.2c1.9-0.2,4.1-0.7,6.6-1.8c4.1-1.6,6.5-2.7,7-3.2
		c0.6-0.6,0.8-2.9,0.8-7.2c-1.3-0.1-1.7-0.2-1.3-0.2c0.4,0,0.1-0.5-1-1.5l-1.8-1.3c-1.2-0.7-2.9-0.9-4.9-0.7l-4.5,0.4
		c-3.5,0.4-6,0.9-7.6,1.4c-1.6,0.6-3.3,1.9-5.1,4L444.3,101z"/>
	<path id="XMLID_221_" class="st2" d="M542.4,102.5c0.2,0,0.6,0.3,1.3,0.9c0.6,0.5,1,0.9,1.1,1.2c0.6,1.4,0.3,3.3-0.9,5.7
		c-0.6,1.2-1.1,2.3-1.7,3.3c-0.6,0.9-1.2,1.8-1.8,2.5c-2.5,2.8-4.8,4.8-7,5.9c-1.1,0.5-2.2,0.9-3.3,1.1s-2.3,0.5-3.5,1
		c-2,0.7-4.5,1-7.6,1c-3.1-0.1-5.5-0.5-7.3-1.1l-1.5-0.8c-0.9-0.5-1.7-0.9-2.5-1.3c-0.7-0.4-1.4-0.8-2-1.2c-0.6-0.4-1.2-0.8-1.9-1.3
		s-1.4-1.2-2.1-1.9l-1.5-1.5c-1.1-1.2-1.7-1.9-1.9-2.1l-4.7-6.4c0.1,0.1,0,0-0.1-0.2s-0.4-0.6-0.7-1.2c-0.6-1.1-1.1-2.1-1.4-2.8
		s-0.6-1.2-0.8-1.6l-1.8-4.5c-1.1-3-1.9-6.8-2.1-11.5c-0.3-4.6,0.3-8.3,1.7-11.2l1.5-2.9c0.4-0.7,1-1.5,1.7-2.5
		c0.7-0.9,1.4-1.7,2-2.3c0.7-0.9,1.4-1.7,2-2.4c0.6-0.7,1.3-1.4,2.2-2.3l4.5-4c0.5-0.4,1.2-1,2.3-1.7c1.1-0.7,2.5-1.5,4.3-2.4
		s3.3-1.7,4.6-2.2c1.3-0.6,2.3-1,3.1-1.2l4.5-1.2l4.1-0.6c2-0.3,3.4-0.4,4.1-0.2c1,0.2,2,0.4,2.8,0.5s1.6,0.2,2.3,0.3
		s1.4,0.2,2.2,0.5s1.6,0.6,2.4,1c2.1,1.1,3.8,2.4,5.1,3.8c2,2.4,3.7,5,5,7.8s1.1,6.1-0.5,9.8c-0.2,0.3-0.5,0.8-0.9,1.4
		c-0.5,0.6-1.1,1.4-1.9,2.4c-1.5,1.9-2.5,2.9-3,3c-0.4,0.1-0.7,0.1-0.8,0.1s0,0,0.2-0.1c0.5-0.1,0.5-0.2-0.1-0.2
		c-0.6,0.1-0.9,0.4-1.1,0.9h-1.8l-0.4-0.9c0,0-0.3-0.1-1.1-0.2c-1.1-0.1-1.9-0.1-2.4,0.2s-1.2-0.1-2.1-1.1l-1.9-2.1
		c-0.2,0-0.2-0.1-0.2-0.2c-0.1-0.1-0.2-0.1-0.3-0.2l-2.8-3.1c-0.2-0.3-0.3-0.6-0.2-0.8c0-0.3-0.3-0.4-1.1-0.4c-2.4,0-4,0.1-5,0.2
		c-0.9,0.1-2.4,0.6-4.5,1.4c-0.7,0.4-1.2,0.6-1.6,0.7c-0.4,0.1-0.8,0.4-1.4,0.7c-5.9,4.1-9.4,7.5-10.5,10.1c-1,2.7,0,7.1,3,13.2
		c0.7,1.4,1.4,2.7,2.2,3.9c0.8,1.2,1.6,2.4,2.5,3.5c1.9,2.1,3.8,3.5,5.8,4.2c2.2,0.8,5.5,0.8,9.8-0.1s7.5-2,9.7-3.2
		c1.5-0.8,2.3-1.4,2.3-1.7c0.1-0.3,0.6-0.7,1.7-1.1C541.4,102.6,541.9,102.5,542.4,102.5z"/>
	<path id="XMLID_223_" class="st2" d="M572.9,31.9c0-0.9-0.1-1.2-0.2-0.8c-0.1,0.3-0.2-0.1-0.2-1.3l-0.1-5.4
		c-0.1-1.3-0.1-2.4-0.2-3.3c0-0.9-0.1-1.6-0.1-2.1c0.1-1.1,0.9-2.4,2.4-4l3.3-3.8c0.3-0.4,0.8-0.8,1.4-1.1c0.5-0.2,0.8-0.3,0.9-0.3
		s0,0.1-0.3,0.2c-0.3,0.2-0.4,0.2-0.2,0.2c0.1,0,0.5-0.1,1-0.3c0.3-0.1,0.5-0.1,0.6-0.2c0.1,0,0,0-0.1,0.1c-0.3,0.1-0.2,0,0.3-0.3
		c0.4-0.3,0.4-0.4,0.2-0.2c-0.2,0,0-0.1,0.5-0.4c0.3-0.2,0.5-0.3,0.6-0.4s0.1-0.1,0.1-0.1s0.3,0,1.1-0.1l0.9,1.4
		c0.2-0.4,0.5-0.7,0.9-0.9c0.2-0.2,0.6-0.2,1.1-0.1c1.4,0.3,2.3,0.8,2.8,1.5c0.5,0.8,0.8,1.2,0.9,1.2c0.2,0.2,0.5,0.3,0.9,0.4
		s0.9,0.6,1.4,1.4l2.1,2.9c0.2,0.4,0.4,0.8,0.5,1.2c0.1,0.3,0.1,0.7,0.2,1c0.1,0.3,0.1,0.7,0.2,1.1c0.1,0.4,0.2,0.8,0.4,1.3
		c0.6,1.6,0.7,3.5,0.5,5.6c-0.1,1-0.1,2.1-0.1,3.1s0,2.1,0,3.1c0,0.7-0.1,1.6-0.3,2.6s-0.3,2-0.4,3.1c-0.1,0.6-0.1,1.1-0.2,1.5
		c0,0.5-0.1,0.9-0.1,1.4s-0.1,1-0.1,1.5s0,1.2,0,1.9l6.4-0.7c2.3,0,4.5,0.5,6.5,1.6c0.1,0,0.2,0.1,0.3,0.2c0.8,0.6,1.5,1.2,2.1,1.9
		s1.3,1.3,2.1,1.9c0.1,0.1,0.2,0.2,0.3,0.2l1,0.7c-0.2,0.6-0.5,1.3-0.9,2.2c0.4,0,0.8,0.1,1,0.1s0.3,0,0.4,0s0.2,0.4,0.4,1.2
		c-0.5,0.7-0.7,1-0.7,1s-0.5-0.1-1.5-0.1l0.9,1.3c-0.1,1-0.1,1.5-0.1,1.4c0.1-0.1-0.4-0.3-1.3-0.5c0.2,0.3,0.3,0.6,0.4,0.7
		c0.1,0.2,0.3,0.3,0.4,0.5c0.1,0.2,0.3,0.3,0.4,0.6c0.1,0.2,0.3,0.5,0.5,0.9l-0.7,1.1c-0.3,0.4-0.5,0.6-0.6,0.7
		c-1.1,0.8-1.8,1.1-2.1,0.9s-0.5,0.2-0.6,1.1c-0.3,2-1.8,3-4.4,3c-1.3,0-2.2,0-2.5-0.1s-0.5,0.4-0.5,1.4c-3,0.1-5.4-0.2-7.3-0.8
		c-0.8-0.2-1.5-0.5-2.1-0.7c-0.6-0.3-1.3-0.3-2-0.1c-0.6,0.1-0.6,0-0.1-0.2c0.3-0.2,0.4-0.2,0.3-0.1s-0.3,0.3-0.7,0.5
		c-0.6,0.4-0.8,0.5-0.6,0.3s0.1,0.2-0.1,1l-2.3,10.6c-0.2,2.8-0.4,4.7-0.5,5.7c-0.1,0.9-0.2,3.1-0.2,6.6l0.1,6.1
		c-0.1,1.8,0,3.4,0.1,4.9s0.4,2.9,0.7,4.2c0.7,2.6,1.2,5,1.4,7.1c1.4,0.3,2.6,0.5,3.7,0.6c1.1,0.1,2,0.1,2.8,0
		c1.6-0.2,1.5,1.7-0.3,5.6c-1.7,3.4-4,5.2-7,5.6s-5.6-0.3-7.8-1.8c0,0-0.3-0.2-0.8-0.7s-0.8-0.7-0.8-0.8c-0.2,0-0.2-0.1-0.2-0.2
		l-2.6-3.6c-1.3-2-2.3-4.1-3.1-6.3c-0.8-2.2-1.5-4.4-2-6.7c-0.2-0.3-0.2-0.6-0.2-0.8c-0.6-2.2-1.1-4.7-1.5-7.3
		c-0.4-2.6-0.6-5.3-0.6-8c0-1.5-0.1-3.2-0.2-5.1c-0.1-1.9-0.3-4-0.6-6.3c-0.5-4.5-0.1-8.1,1.2-10.8c-1.8,0-3.4,0-4.8-0.1
		s-2.8-0.2-4.1-0.3c-2.4-0.3-5.1-1.2-7.9-2.7c-0.1-0.1-0.2-0.1-0.2-0.1l-1.5-1.4c-0.1-0.2-0.2-0.3-0.3-0.4s-0.2-0.2-0.3-0.4
		c0.6-2.2,2.1-4,4.7-5.4c2.6-1.5,4.9-2.8,6.9-3.7c0.5-0.2,0.9-0.4,1.3-0.6c0.4-0.2,0.8-0.4,1.1-0.6c0.9-0.4,1.6-0.7,2.2-0.9
		c3.3-1.1,5.1-2,5.4-2.6c0.3-0.6,0.5-4.6,0.6-12.1c0-0.9,0.1-1.4,0.2-1.2C572.8,33.3,572.9,32.9,572.9,31.9z M592.1,14.3
		c0-0.1,0-0.2-0.1-0.2L592.1,14.3z"/>
</g>
</svg>
