<?xml version="1.0" encoding="iso-8859-1"?>
<!-- Generator: Adobe Illustrator 19.2.1, SVG Export Plug-In . SVG Version: 6.00 Build 0)  -->
<svg version="1.1" id="Layer_1" xmlns="http://www.w3.org/2000/svg" xmlns:xlink="http://www.w3.org/1999/xlink" x="0px" y="0px"
	 viewBox="0 0 70 20" style="enable-background:new 0 0 70 20;" xml:space="preserve">
<path id="fr7" style="fill:#00A69C;" d="M20.5,10c0,5.344-4.337,9.677-9.687,9.677c-5.351,0-9.688-4.332-9.688-9.677
	s4.337-9.677,9.688-9.677C16.163,0.323,20.5,4.655,20.5,10"/>
<g>
	<path d="M28.496,2.613c0.435-0.342,0.807-0.461,1.11-0.359c0.303,0.103,0.532,0.287,0.686,0.555
		c0.154,0.268,0.185,0.569,0.097,0.903c-0.091,0.335-0.246,0.544-0.469,0.623s-0.492,0.19-0.81,0.332
		c-0.317,0.143-0.666,0.381-1.046,0.717c-0.38,0.335-0.865,0.827-1.457,1.476c-0.59,0.647-1.181,1.385-1.771,2.209
		c-0.591,0.824-0.999,1.654-1.225,2.491c-0.227,0.836-0.352,1.425-0.372,1.766c-0.021,0.342,0.009,0.711,0.09,1.11
		c0.081,0.398,0.218,0.711,0.411,0.938c0.192,0.227,0.43,0.39,0.711,0.486c0.284,0.096,0.579,0.128,0.892,0.094
		c0.312-0.033,0.71-0.079,1.193-0.136c0.482-0.057,1.114-0.227,1.892-0.511c0.778-0.284,1.569-0.711,2.375-1.279
		c0.804-0.569,1.331-1.024,1.578-1.365c0.247-0.342,0.235-0.285-0.038,0.17c-0.275,0.456-0.663,0.899-1.168,1.331
		c-0.505,0.432-1.254,1.022-2.245,1.766c-0.992,0.745-1.724,1.22-2.195,1.425c-0.471,0.205-0.935,0.335-1.393,0.392
		c-0.458,0.058-0.881,0.042-1.27-0.042c-0.389-0.086-0.713-0.244-0.969-0.478c-0.256-0.233-0.531-0.617-0.821-1.152
		c-0.291-0.535-0.466-1.16-0.526-1.877c-0.059-0.716-0.016-1.444,0.127-2.183c0.145-0.739,0.357-1.401,0.636-1.987
		c0.278-0.586,0.633-1.266,1.066-2.039c0.433-0.773,1.051-1.583,1.854-2.432c0.804-0.847,1.408-1.464,1.81-1.85
		C27.654,3.318,28.068,2.954,28.496,2.613z"/>
	<path d="M30.921,9.693c0.163-0.205,0.362-0.335,0.598-0.392c0.235-0.057,0.43-0.04,0.584,0.051
		c0.154,0.091,0.285,0.254,0.391,0.487c0.106,0.233,0.375,0.344,0.802,0.332c0.428-0.011,0.959-0.008,1.598,0.009
		c0.637,0.017,0.502,0.042-0.404,0.077c-0.907,0.033-1.422,0.082-1.545,0.145c-0.124,0.062-0.176,0.265-0.154,0.606
		c0.021,0.342,0.038,0.703,0.052,1.084c0.013,0.381,0.014,0.805,0.006,1.271c-0.009,0.466-0.034,0.813-0.077,1.041
		c-0.043,0.227-0.107,0.467-0.192,0.717c-0.086,0.251-0.212,0.515-0.379,0.793c-0.168,0.279-0.372,0.537-0.617,0.776
		c-0.245,0.238-0.468,0.418-0.675,0.537c-0.207,0.12-0.428,0.125-0.667,0.017c-0.24-0.107-0.434-0.278-0.584-0.511
		c-0.151-0.233-0.27-0.475-0.358-0.725c-0.09-0.251-0.129-0.688-0.115-1.313c0.013-0.626,0.064-1.128,0.154-1.51
		c0.09-0.381,0.229-0.779,0.419-1.194c0.188-0.415,0.243-0.608,0.166-0.58c-0.077,0.029-0.097,0.014-0.058-0.042
		c0.038-0.057,0.187-0.301,0.443-0.734C30.562,10.2,30.768,9.887,30.921,9.693z M31.563,12.372
		c-0.188-0.307-0.424-0.223-0.706,0.255c-0.281,0.478-0.452,0.984-0.507,1.518c-0.055,0.535-0.034,0.91,0.064,1.126
		c0.098,0.216,0.201,0.342,0.309,0.375c0.107,0.033,0.259-0.06,0.455-0.282c0.197-0.222,0.357-0.703,0.481-1.443
		C31.783,13.185,31.752,12.667,31.563,12.372z"/>
	<path d="M35.568,9.165c0.179-0.114,0.409-0.09,0.686,0.068c0.278,0.159,0.337,0.455,0.179,0.887
		c-0.158,0.432-0.416,1.146-0.777,2.141c-0.358,0.996-0.396,1.269-0.11,0.819c0.286-0.449,0.633-0.907,1.039-1.373
		s0.7-0.768,0.879-0.905c0.179-0.136,0.375-0.239,0.584-0.307c0.209-0.068,0.447-0.051,0.711,0.051
		c0.265,0.102,0.492,0.39,0.68,0.861c0.188,0.472,0.289,1.251,0.302,2.337c0.013,1.086,0.213,1.618,0.603,1.595
		c0.389-0.023,0.768-0.214,1.135-0.571c0.368-0.359,0.642-0.722,0.821-1.092c0.18-0.37,0.256-0.469,0.231-0.299
		c-0.026,0.17-0.124,0.421-0.295,0.751c-0.17,0.331-0.535,0.842-1.091,1.536c-0.556,0.694-1.037,1.047-1.443,1.057
		c-0.406,0.012-0.701-0.205-0.885-0.647c-0.184-0.444-0.303-1.152-0.358-2.124s-0.152-1.467-0.289-1.485
		c-0.137-0.017-0.437,0.166-0.898,0.546c-0.463,0.381-0.885,0.879-1.27,1.493c-0.386,0.615-0.7,1.134-0.943,1.561
		c-0.243,0.426-0.464,0.686-0.661,0.776c-0.197,0.091-0.357,0.023-0.481-0.205c-0.124-0.227-0.168-0.507-0.129-0.836
		c0.038-0.33,0.113-0.836,0.225-1.518c0.111-0.682,0.27-1.401,0.474-2.158c0.207-0.756,0.159-1.004-0.141-0.742
		c-0.3,0.261-0.665,0.657-1.097,1.186c-0.433,0.529-0.278,0.279,0.463-0.751c0.74-1.029,1.151-1.629,1.232-1.8
		c0.081-0.17,0.16-0.327,0.237-0.469C35.259,9.405,35.387,9.278,35.568,9.165z"/>
	<path d="M44.011,5.155c0.102-0.16,0.265-0.227,0.488-0.205s0.386,0.114,0.488,0.273c0.102,0.159,0.188,0.352,0.256,0.58
		c0.068,0.227,0.055,0.467-0.038,0.717c-0.093,0.251-0.184,0.577-0.27,0.981c-0.086,0.403-0.198,0.97-0.333,1.698
		c-0.137,0.728-0.129,1.138,0.025,1.229c0.154,0.091,0.419,0.182,0.796,0.273c0.377,0.091,0.978,0.125,1.802,0.102
		c0.825-0.023,0.78,0.058-0.135,0.238c-0.915,0.182-1.593,0.346-2.033,0.495c-0.441,0.148-0.732,0.254-0.873,0.315
		c-0.141,0.062-0.38,0.694-0.719,1.894c-0.338,1.2-0.56,2-0.667,2.397c-0.107,0.398-0.221,0.665-0.341,0.801
		c-0.12,0.136-0.274,0.239-0.463,0.307c-0.188,0.068-0.358,0.057-0.512-0.033c-0.154-0.09-0.152-0.461,0.007-1.11
		c0.158-0.647,0.375-1.416,0.647-2.303c0.274-0.887,0.424-1.439,0.449-1.655c0.025-0.216-0.086-0.295-0.333-0.238
		c-0.247,0.057-0.468,0.088-0.661,0.094c-0.192,0.005-0.286-0.154-0.284-0.478c0.004-0.324,0.16-0.589,0.468-0.794
		c0.309-0.205,0.581-0.31,0.821-0.316c0.24-0.005,0.454-0.449,0.642-1.331c0.188-0.882,0.3-1.468,0.333-1.758
		c0.034-0.29,0.09-0.685,0.166-1.186C43.818,5.644,43.909,5.315,44.011,5.155z"/>
	<path d="M50.043,8.908c0.198-0.068,0.413-0.079,0.647-0.035c0.235,0.047,0.424,0.143,0.565,0.29
		c0.141,0.148,0.276,0.438,0.404,0.87c0.127,0.433,0.069,0.722-0.174,0.87c-0.245,0.148-0.465,0.096-0.661-0.153
		c-0.198-0.251-0.402-0.301-0.617-0.154c-0.214,0.148-0.426,0.299-0.636,0.452c-0.209,0.153-0.468,0.395-0.777,0.725
		c-0.309,0.33-0.624,0.751-0.951,1.262c-0.325,0.512-0.505,0.84-0.54,0.981c-0.035,0.143,0.049,0.123,0.251-0.059
		c0.202-0.182,0.51-0.458,0.923-0.828c0.414-0.37,0.936-0.747,1.565-1.134c0.629-0.387,1.027-0.537,1.193-0.452
		c0.168,0.086,0.309,0.242,0.43,0.469c0.12,0.227,0.188,0.424,0.207,0.588c0.016,0.165-0.002,0.296-0.058,0.392
		c-0.055,0.096-0.121,0.315-0.192,0.657c-0.072,0.342-0.067,0.672,0.02,0.99c0.086,0.318,0.195,0.537,0.327,0.657
		c0.133,0.12,0.314,0.153,0.545,0.102c0.231-0.051,0.515-0.283,0.854-0.7c0.338-0.415,0.323-0.318-0.044,0.29
		s-0.658,0.996-0.873,1.16c-0.213,0.166-0.38,0.245-0.501,0.239c-0.121-0.006-0.276-0.057-0.468-0.153
		c-0.192-0.096-0.375-0.247-0.545-0.452c-0.17-0.205-0.306-0.455-0.404-0.751c-0.098-0.296-0.165-0.515-0.199-0.657
		c-0.034-0.142-0.113-0.299-0.237-0.469c-0.124-0.17-0.276-0.207-0.455-0.11s-0.493,0.361-0.943,0.793
		c-0.449,0.433-0.868,0.788-1.258,1.066c-0.389,0.279-0.738,0.472-1.046,0.58c-0.309,0.108-0.507,0.145-0.598,0.11
		c-0.089-0.035-0.188-0.163-0.295-0.384c-0.107-0.223-0.168-0.463-0.187-0.725c-0.016-0.261,0.011-0.526,0.082-0.794
		c0.073-0.267,0.347-0.801,0.821-1.603c0.474-0.802,0.932-1.459,1.373-1.971c0.441-0.511,0.909-0.947,1.404-1.306
		C49.499,9.207,49.846,8.989,50.043,8.908z"/>
	<path d="M55.921,9.25c0.83-0.433,1.395-0.54,1.694-0.324c0.3,0.216,0.447,0.54,0.443,0.972c-0.004,0.433-0.302,0.665-0.892,0.7
		c-0.591,0.033-1.099,0.242-1.529,0.622c-0.428,0.381-0.706,0.938-0.834,1.672c-0.129,0.733-0.021,1.288,0.32,1.663
		c0.342,0.375,0.689,0.549,1.039,0.521c0.352-0.029,0.661-0.1,0.931-0.214c0.27-0.114,0.584-0.301,0.943-0.563
		c0.358-0.261,0.763-0.64,1.212-1.134c0.449-0.496,0.438-0.43-0.033,0.196c-0.471,0.626-0.898,1.152-1.284,1.579
		c-0.386,0.426-0.728,0.739-1.027,0.938c-0.3,0.199-0.595,0.338-0.887,0.419c-0.291,0.079-0.639,0.102-1.046,0.068
		c-0.406-0.033-0.791-0.304-1.154-0.81c-0.364-0.507-0.544-1.106-0.54-1.8c0.004-0.694,0.086-1.28,0.245-1.758
		c0.158-0.478,0.4-0.947,0.724-1.408C54.577,10.128,55.133,9.683,55.921,9.25z"/>
	<path d="M61.451,5.155c0.102-0.16,0.265-0.227,0.488-0.205s0.386,0.114,0.488,0.273c0.102,0.159,0.188,0.352,0.256,0.58
		c0.068,0.227,0.055,0.467-0.038,0.717c-0.093,0.251-0.184,0.577-0.27,0.981c-0.086,0.403-0.198,0.97-0.333,1.698
		c-0.137,0.728-0.129,1.138,0.025,1.229c0.154,0.091,0.419,0.182,0.796,0.273c0.377,0.091,0.978,0.125,1.802,0.102
		c0.825-0.023,0.78,0.058-0.135,0.238c-0.917,0.182-1.593,0.346-2.033,0.495c-0.441,0.148-0.732,0.254-0.873,0.315
		c-0.141,0.062-0.38,0.694-0.719,1.894c-0.339,1.2-0.56,2-0.667,2.397c-0.107,0.398-0.221,0.665-0.34,0.801
		c-0.121,0.136-0.275,0.239-0.463,0.307c-0.188,0.068-0.358,0.057-0.512-0.033c-0.154-0.09-0.152-0.461,0.006-1.11
		c0.158-0.647,0.375-1.416,0.647-2.303c0.274-0.887,0.424-1.439,0.449-1.655c0.026-0.216-0.086-0.295-0.333-0.238
		c-0.247,0.057-0.468,0.088-0.661,0.094c-0.192,0.005-0.286-0.154-0.281-0.478c0.004-0.324,0.16-0.589,0.468-0.794
		c0.309-0.205,0.582-0.31,0.821-0.316c0.24-0.005,0.454-0.449,0.642-1.331c0.188-0.882,0.3-1.468,0.333-1.758
		s0.089-0.685,0.168-1.186C61.258,5.644,61.349,5.315,61.451,5.155z"/>
</g>
</svg>
