<?xml version="1.0" encoding="iso-8859-1"?>
<!-- Generator: Adobe Illustrator 19.2.1, SVG Export Plug-In . SVG Version: 6.00 Build 0)  -->
<svg version="1.1" id="Layer_1" xmlns="http://www.w3.org/2000/svg" xmlns:xlink="http://www.w3.org/1999/xlink" x="0px" y="0px"
	 viewBox="0 0 70 20" style="enable-background:new 0 0 70 20;" xml:space="preserve">
<g>
	<path d="M26.383,1.402c0.332-0.099,0.624-0.129,0.875-0.093c0.251,0.037,0.48,0.091,0.686,0.16c0.207,0.07,0.368,0.191,0.485,0.364
		c0.117,0.173,0.193,0.366,0.229,0.579c0.036,0.214,0.005,0.415-0.094,0.604c-0.099,0.189-0.215,0.353-0.35,0.493
		c-0.134,0.14-0.258,0.294-0.37,0.462c-0.112,0.169-0.274,0.284-0.485,0.345c-0.211,0.062-0.364,0.062-0.458,0
		c-0.094-0.061-0.041-0.32,0.162-0.776c0.202-0.456,0.211-0.719,0.027-0.789c-0.184-0.07-0.4-0.074-0.646-0.012
		c-0.247,0.062-0.601,0.288-1.064,0.678c-0.462,0.39-0.846,0.842-1.151,1.356c-0.305,0.514-0.487,0.933-0.545,1.257
		c-0.058,0.325-0.072,0.645-0.04,0.961c0.031,0.316,0.09,0.711,0.175,1.183c0.085,0.473,0.175,0.896,0.269,1.269
		c0.094,0.374,0.108,0.865,0.041,1.473c-0.067,0.608-0.231,1.109-0.492,1.504c-0.26,0.394-0.502,0.729-0.727,1.005
		c-0.224,0.275-0.482,0.499-0.774,0.672c-0.292,0.173-0.619,0.269-0.983,0.29c-0.363,0.02-0.646-0.004-0.848-0.074
		c-0.202-0.07-0.41-0.247-0.626-0.53c-0.215-0.283-0.332-0.542-0.35-0.776c-0.018-0.234,0.063-0.506,0.243-0.814
		c0.179-0.308,0.462-0.647,0.848-1.017c0.386-0.37,0.716-0.596,0.989-0.678c0.273-0.082,0.516-0.224,0.727-0.425
		c0.211-0.201,0.202-0.766-0.027-1.695c-0.229-0.928-0.285-1.726-0.168-2.391c0.116-0.666,0.273-1.185,0.471-1.559
		c0.197-0.374,0.511-0.777,0.942-1.208c0.431-0.432,0.81-0.742,1.137-0.931c0.328-0.189,0.642-0.361,0.942-0.518
		C25.734,1.615,26.051,1.492,26.383,1.402z M22.21,10.548c-0.135-0.205-0.482,0.012-1.043,0.653
		c-0.561,0.641-0.821,1.081-0.781,1.319c0.04,0.238,0.126,0.374,0.256,0.407c0.13,0.033,0.263,0.035,0.397,0.006
		c0.135-0.029,0.256-0.094,0.364-0.197c0.108-0.103,0.256-0.232,0.444-0.388c0.188-0.156,0.336-0.353,0.444-0.592
		c0.108-0.238,0.155-0.448,0.142-0.629C22.419,10.946,22.345,10.753,22.21,10.548z"/>
	<path d="M26.908,8.082c0.799-0.493,1.288-0.768,1.467-0.826c0.18-0.057,0.33-0.037,0.451,0.062c0.121,0.099,0.193,0.22,0.215,0.364
		S29.016,8.14,28.9,8.625c-0.117,0.485-0.117,0.682,0,0.592c0.116-0.09,0.283-0.181,0.498-0.271c0.215-0.09,0.487-0.189,0.815-0.296
		c0.327-0.107,0.635-0.152,0.922-0.136c0.287,0.016,0.505,0.08,0.653,0.191c0.148,0.111,0.242,0.202,0.283,0.271
		c0.04,0.07,0.094,0.171,0.162,0.302c0.067,0.132,0.101,0.212,0.101,0.24c0,0.029,0.009,0.091,0.027,0.185
		c0.018,0.094,0.009,0.251-0.027,0.468c-0.036,0.218-0.132,0.481-0.289,0.789c-0.157,0.308-0.393,0.596-0.707,0.863
		c-0.314,0.267-0.583,0.458-0.808,0.573c-0.224,0.115-0.464,0.218-0.72,0.308c-0.256,0.09-0.521,0.154-0.794,0.191
		c-0.274,0.037-0.489,0.002-0.646-0.105c-0.157-0.107-0.238-0.228-0.242-0.364c-0.005-0.135,0.043-0.29,0.141-0.462
		c0.099-0.173,0.2-0.327,0.303-0.462c0.103-0.136,0.276-0.296,0.518-0.481c0.242-0.185,0.496-0.331,0.76-0.438
		c0.265-0.107,0.473-0.174,0.626-0.203c0.153-0.029,0.052,0.068-0.303,0.29c-0.354,0.222-0.664,0.44-0.929,0.653
		c-0.265,0.214-0.35,0.37-0.256,0.468c0.094,0.099,0.265,0.105,0.511,0.018c0.247-0.086,0.606-0.343,1.077-0.77
		c0.471-0.427,0.624-0.795,0.458-1.103c-0.166-0.308-0.485-0.382-0.956-0.222c-0.471,0.16-0.891,0.388-1.259,0.684
		c-0.368,0.296-0.754,0.894-1.158,1.794c-0.404,0.9-0.691,1.565-0.861,1.997c-0.171,0.431-0.397,1.025-0.68,1.781
		c-0.283,0.756-0.613,1.49-0.989,2.2c-0.377,0.711-0.684,1.023-0.922,0.937c-0.238-0.086-0.384-0.203-0.437-0.351
		c-0.054-0.148-0.07-0.304-0.047-0.468c0.022-0.164,0.097-0.372,0.222-0.622c0.126-0.251,0.296-0.668,0.511-1.251
		c0.215-0.583,0.671-1.707,1.366-3.371c0.695-1.664,1.108-2.65,1.238-2.958c0.13-0.308,0.298-0.762,0.504-1.362
		c0.207-0.6,0.227-0.873,0.061-0.82c-0.166,0.053-0.527,0.218-1.084,0.493C25.988,8.672,26.109,8.567,26.908,8.082z"/>
	<path d="M35.549,7.491c0.601-0.041,0.967,0.051,1.097,0.277c0.13,0.226,0.191,0.514,0.182,0.863
		c-0.009,0.349-0.188,0.645-0.538,0.887c-0.35,0.243-0.812,0.483-1.387,0.721c-0.162,0.058-0.307,0.088-0.437,0.092
		c-0.13,0.004-0.238,0-0.323-0.012c-0.085-0.012-0.152-0.025-0.202-0.037c-0.05-0.012-0.079-0.006-0.087,0.019
		c-0.161,0.238-0.245,0.477-0.249,0.715c-0.005,0.238,0.081,0.458,0.256,0.66c0.175,0.201,0.37,0.318,0.586,0.351
		c0.215,0.033,0.439,0.027,0.673-0.019c0.234-0.045,0.664-0.187,1.292-0.425c0.628-0.238,1.066-0.462,1.312-0.672
		c0.247-0.21,0.482-0.413,0.707-0.61c0.224-0.197,0.256-0.197,0.094,0c-0.161,0.197-0.361,0.436-0.599,0.715
		c-0.238,0.28-0.534,0.557-0.888,0.832c-0.354,0.275-0.644,0.487-0.868,0.635c-0.224,0.148-0.523,0.282-0.895,0.401
		c-0.372,0.119-0.738,0.156-1.097,0.111c-0.359-0.045-0.628-0.121-0.808-0.228c-0.18-0.107-0.346-0.234-0.498-0.382
		c-0.153-0.148-0.278-0.322-0.377-0.524c-0.099-0.201-0.15-0.476-0.155-0.826c-0.004-0.349,0.085-0.729,0.269-1.14
		C32.792,9.484,33,9.142,33.234,8.871c0.234-0.271,0.55-0.544,0.949-0.82C34.582,7.776,35.038,7.589,35.549,7.491z M35.562,8.6
		c-0.063-0.057-0.218-0.029-0.464,0.086c-0.247,0.115-0.427,0.245-0.538,0.388c-0.112,0.144-0.132,0.249-0.061,0.314
		c0.072,0.066,0.224,0.039,0.457-0.08c0.234-0.119,0.42-0.238,0.559-0.358C35.654,8.832,35.67,8.715,35.562,8.6z"/>
	<path d="M42.723,7.565c0.207-0.049,0.433-0.057,0.68-0.025c0.246,0.033,0.444,0.103,0.592,0.21
		c0.148,0.107,0.289,0.316,0.424,0.629c0.134,0.312,0.074,0.522-0.182,0.629c-0.256,0.107-0.487,0.07-0.693-0.111
		c-0.207-0.181-0.422-0.218-0.646-0.111c-0.224,0.107-0.446,0.216-0.666,0.327c-0.22,0.111-0.491,0.286-0.814,0.524
		c-0.323,0.238-0.655,0.542-0.996,0.912c-0.341,0.37-0.53,0.606-0.565,0.709c-0.036,0.103,0.051,0.088,0.263-0.043
		c0.211-0.131,0.534-0.331,0.969-0.598c0.435-0.267,0.982-0.54,1.642-0.82c0.659-0.279,1.077-0.388,1.252-0.327
		c0.175,0.062,0.325,0.175,0.451,0.339c0.126,0.164,0.197,0.306,0.215,0.425c0.018,0.119-0.002,0.214-0.061,0.284
		c-0.058,0.07-0.126,0.228-0.202,0.474c-0.076,0.247-0.07,0.485,0.02,0.715c0.09,0.23,0.204,0.388,0.343,0.474
		c0.139,0.086,0.33,0.111,0.572,0.074c0.242-0.037,0.54-0.205,0.895-0.505c0.354-0.3,0.339-0.23-0.047,0.209
		c-0.386,0.44-0.691,0.719-0.915,0.838c-0.224,0.119-0.399,0.177-0.525,0.173c-0.126-0.004-0.289-0.041-0.491-0.111
		c-0.202-0.07-0.393-0.179-0.572-0.327c-0.18-0.148-0.321-0.329-0.424-0.542c-0.104-0.214-0.173-0.372-0.209-0.475
		c-0.036-0.103-0.119-0.216-0.249-0.339c-0.13-0.123-0.289-0.15-0.478-0.08c-0.188,0.07-0.518,0.261-0.989,0.573
		c-0.471,0.312-0.911,0.569-1.319,0.77c-0.408,0.201-0.774,0.341-1.097,0.419c-0.323,0.078-0.531,0.105-0.626,0.08
		c-0.094-0.025-0.198-0.117-0.309-0.277c-0.112-0.16-0.177-0.335-0.195-0.524c-0.018-0.189,0.012-0.38,0.088-0.573
		c0.076-0.193,0.363-0.579,0.861-1.159c0.498-0.579,0.978-1.054,1.44-1.424c0.462-0.37,0.953-0.684,1.474-0.943
		C42.153,7.78,42.517,7.622,42.723,7.565z"/>
	<path d="M49.615,2.449c0.188-0.173,0.446-0.197,0.774-0.074c0.327,0.123,0.386,0.653,0.175,1.59
		c-0.211,0.937-0.442,1.874-0.693,2.81c-0.251,0.937-0.195,1.391,0.168,1.362c0.363-0.029,0.7-0.158,1.009-0.388
		c0.31-0.23,0.653-0.475,1.03-0.733c0.377-0.259,0.733-0.485,1.07-0.678c0.337-0.193,0.54-0.14,0.613,0.16
		c0.072,0.3,0.049,0.551-0.067,0.752c-0.117,0.202-0.592,0.557-1.427,1.066c-0.834,0.51-1.231,0.828-1.191,0.955
		c0.041,0.128,0.083,0.255,0.128,0.382c0.045,0.127,0.231,0.407,0.559,0.838c0.327,0.431,0.758,0.879,1.292,1.343
		c0.534,0.464,0.774,0.752,0.72,0.863c-0.054,0.111-0.148,0.185-0.282,0.222c-0.135,0.037-0.305,0.07-0.512,0.099
		c-0.207,0.029-0.516-0.119-0.929-0.444c-0.413-0.324-0.81-0.725-1.191-1.202c-0.381-0.477-0.704-0.857-0.969-1.14
		c-0.265-0.283-0.449-0.46-0.552-0.53c-0.103-0.07-0.296,0.312-0.579,1.146c-0.282,0.834-0.532,1.461-0.747,1.88
		c-0.215,0.419-0.453,0.598-0.713,0.536c-0.26-0.061-0.426-0.125-0.498-0.191c-0.072-0.066-0.083-0.197-0.034-0.394
		s0.213-0.565,0.491-1.103c0.278-0.538,0.599-1.588,0.963-3.149c0.364-1.561,0.592-2.66,0.687-3.297
		c0.094-0.637,0-0.711-0.283-0.222c-0.283,0.489-0.754,1.159-1.413,2.009c-0.66,0.85-0.733,0.914-0.222,0.191
		c0.512-0.723,0.875-1.263,1.09-1.621c0.215-0.358,0.478-0.91,0.787-1.658C49.177,3.082,49.426,2.622,49.615,2.449z"/>
	<path d="M56.775,7.491c0.601-0.041,0.967,0.051,1.097,0.277c0.13,0.226,0.191,0.514,0.182,0.863
		c-0.009,0.349-0.188,0.645-0.538,0.887c-0.35,0.243-0.812,0.483-1.387,0.721c-0.162,0.058-0.307,0.088-0.437,0.092
		c-0.13,0.004-0.238,0-0.323-0.012c-0.085-0.012-0.152-0.025-0.202-0.037c-0.05-0.012-0.079-0.006-0.087,0.019
		c-0.162,0.238-0.245,0.477-0.249,0.715c-0.005,0.238,0.081,0.458,0.256,0.66c0.175,0.201,0.37,0.318,0.586,0.351
		c0.215,0.033,0.439,0.027,0.673-0.019c0.234-0.045,0.664-0.187,1.292-0.425c0.628-0.238,1.066-0.462,1.312-0.672
		c0.247-0.21,0.482-0.413,0.707-0.61c0.224-0.197,0.256-0.197,0.094,0c-0.161,0.197-0.361,0.436-0.599,0.715
		c-0.238,0.28-0.534,0.557-0.888,0.832c-0.355,0.275-0.644,0.487-0.868,0.635c-0.224,0.148-0.523,0.282-0.895,0.401
		c-0.372,0.119-0.738,0.156-1.097,0.111c-0.359-0.045-0.628-0.121-0.808-0.228c-0.18-0.107-0.346-0.234-0.498-0.382
		c-0.153-0.148-0.278-0.322-0.377-0.524c-0.099-0.201-0.15-0.476-0.155-0.826c-0.004-0.349,0.085-0.729,0.269-1.14
		c0.184-0.411,0.393-0.752,0.626-1.023c0.234-0.271,0.55-0.544,0.949-0.82C55.809,7.776,56.264,7.589,56.775,7.491z M56.789,8.6
		c-0.063-0.057-0.218-0.029-0.464,0.086c-0.247,0.115-0.427,0.245-0.538,0.388c-0.112,0.144-0.132,0.249-0.061,0.314
		c0.072,0.066,0.224,0.039,0.457-0.08c0.234-0.119,0.42-0.238,0.559-0.358C56.881,8.832,56.897,8.715,56.789,8.6z"/>
	<path d="M60.181,9.229c0.323-1.142,0.635-1.701,0.936-1.676c0.301,0.025,0.527,0.148,0.68,0.37c0.153,0.222,0.137,0.495-0.047,0.82
		c-0.184,0.325-0.202,0.477-0.054,0.456c0.148-0.02,0.343-0.103,0.585-0.247c0.243-0.144,0.473-0.259,0.693-0.345
		c0.22-0.086,0.397-0.142,0.532-0.166s0.393,0.016,0.774,0.123c0.381,0.107,0.742,0.257,1.083,0.45
		c0.341,0.193,0.792,0.209,1.353,0.049c0.561-0.16,0.5-0.107-0.182,0.16c-0.682,0.267-1.38,0.393-2.093,0.376
		c-0.714-0.016-1.265,0.062-1.656,0.234c-0.39,0.173-0.72,0.364-0.989,0.573c-0.269,0.21-0.518,0.555-0.747,1.035
		c-0.229,0.481-0.404,0.886-0.525,1.214c-0.121,0.329-0.229,0.598-0.323,0.807c-0.094,0.21-0.287,0.32-0.579,0.333
		c-0.292,0.012-0.485-0.084-0.579-0.29c-0.094-0.205-0.116-0.339-0.067-0.401c0.049-0.062,0.184-0.438,0.404-1.128
		C59.6,11.287,59.867,10.371,60.181,9.229z"/>
	<path d="M68.149,7.651c0.359-0.164,0.718-0.271,1.077-0.32c0.359-0.049,0.577,0.012,0.653,0.185s0.041,0.341-0.108,0.505
		c-0.148,0.164-0.35,0.257-0.606,0.277c-0.256,0.02-0.532,0.189-0.828,0.505c-0.296,0.316-0.467,0.69-0.511,1.122
		c-0.045,0.431-0.034,0.729,0.034,0.894c0.067,0.164,0.141,0.485,0.222,0.961c0.08,0.477,0.027,0.886-0.162,1.227
		c-0.189,0.341-0.391,0.59-0.606,0.746c-0.215,0.156-0.482,0.271-0.801,0.345c-0.319,0.074-0.59,0.111-0.814,0.111
		c-0.224,0-0.464-0.049-0.72-0.148c-0.256-0.099-0.413-0.302-0.471-0.61c-0.058-0.308,0.413-0.879,1.413-1.713
		c1.001-0.834,1.079-0.858,0.236-0.074c-0.844,0.785-1.173,1.272-0.989,1.461c0.184,0.189,0.404,0.238,0.66,0.148
		c0.256-0.09,0.458-0.211,0.606-0.364c0.148-0.152,0.258-0.337,0.33-0.555c0.072-0.218,0.103-0.419,0.094-0.604
		c-0.009-0.185-0.079-0.596-0.209-1.233c-0.13-0.637-0.13-1.116,0-1.436c0.13-0.32,0.323-0.598,0.579-0.832
		C67.483,8.014,67.79,7.815,68.149,7.651z"/>
</g>
<path id="fr8" style="fill:#5D2D7B;" d="M19.327,10.247c0,4.779-4.114,8.652-9.188,8.652c-5.073,0-9.187-3.873-9.187-8.652
	c0-4.778,4.113-8.651,9.187-8.651C15.213,1.595,19.327,5.469,19.327,10.247"/>
</svg>
