<?xml version="1.0" encoding="iso-8859-1"?>
<!-- Generator: Adobe Illustrator 19.2.1, SVG Export Plug-In . SVG Version: 6.00 Build 0)  -->
<svg version="1.1" id="Layer_1" xmlns="http://www.w3.org/2000/svg" xmlns:xlink="http://www.w3.org/1999/xlink" x="0px" y="0px"
	 viewBox="0 0 80 25" style="enable-background:new 0 0 80 25;" xml:space="preserve">
<g>
	<path d="M27.727,0.395c0.396-0.137,0.745-0.179,1.044-0.129c0.3,0.052,0.573,0.126,0.819,0.223
		c0.247,0.098,0.439,0.265,0.578,0.505s0.23,0.509,0.273,0.805c0.043,0.297,0.006,0.577-0.113,0.839
		c-0.118,0.262-0.257,0.49-0.418,0.684c-0.16,0.194-0.308,0.408-0.441,0.641c-0.134,0.235-0.327,0.395-0.578,0.479
		c-0.252,0.087-0.434,0.087-0.547,0c-0.113-0.084-0.049-0.444,0.194-1.078c0.242-0.634,0.252-0.999,0.032-1.095
		c-0.22-0.098-0.477-0.103-0.771-0.016c-0.295,0.087-0.718,0.4-1.271,0.942c-0.552,0.542-1.01,1.17-1.374,1.883
		c-0.364,0.714-0.582,1.296-0.65,1.745c-0.07,0.452-0.086,0.896-0.048,1.334c0.037,0.439,0.108,0.988,0.209,1.642
		c0.101,0.657,0.209,1.244,0.321,1.763c0.113,0.52,0.129,1.201,0.049,2.046c-0.08,0.844-0.275,1.54-0.588,2.088
		c-0.31,0.547-0.599,1.012-0.868,1.396c-0.267,0.382-0.575,0.693-0.924,0.933s-0.739,0.374-1.173,0.402
		c-0.433,0.027-0.771-0.005-1.013-0.103c-0.242-0.098-0.489-0.343-0.747-0.736c-0.257-0.394-0.396-0.753-0.418-1.078
		c-0.022-0.326,0.075-0.703,0.29-1.13c0.214-0.428,0.552-0.899,1.013-1.412c0.461-0.514,0.855-0.828,1.181-0.942
		c0.326-0.114,0.616-0.311,0.868-0.59c0.252-0.28,0.242-1.063-0.032-2.354c-0.273-1.288-0.34-2.396-0.201-3.321
		c0.138-0.925,0.326-1.645,0.562-2.165c0.235-0.52,0.61-1.079,1.124-1.677c0.515-0.6,0.967-1.03,1.358-1.293
		c0.391-0.262,0.767-0.501,1.124-0.719C26.953,0.691,27.331,0.52,27.727,0.395z M22.746,13.096
		c-0.161-0.285-0.575,0.016-1.245,0.907c-0.67,0.89-0.98,1.501-0.933,1.832c0.048,0.33,0.151,0.52,0.305,0.566
		c0.156,0.046,0.314,0.048,0.474,0.009c0.161-0.041,0.305-0.13,0.434-0.274c0.129-0.144,0.305-0.322,0.53-0.538
		c0.225-0.217,0.401-0.49,0.53-0.822c0.129-0.33,0.185-0.623,0.17-0.874C22.995,13.648,22.907,13.38,22.746,13.096z"/>
	<path d="M28.354,9.671c0.954-0.684,1.538-1.067,1.751-1.147c0.215-0.079,0.394-0.052,0.539,0.087
		c0.144,0.137,0.23,0.306,0.257,0.505c0.027,0.201-0.03,0.636-0.168,1.31c-0.139,0.673-0.139,0.947,0,0.822
		c0.138-0.125,0.338-0.251,0.595-0.376c0.257-0.125,0.582-0.262,0.973-0.411c0.39-0.149,0.758-0.212,1.101-0.189
		c0.343,0.022,0.603,0.111,0.779,0.265c0.177,0.155,0.289,0.281,0.338,0.376c0.048,0.098,0.113,0.238,0.194,0.42
		c0.08,0.184,0.121,0.296,0.121,0.334c0,0.041,0.01,0.126,0.032,0.257c0.022,0.13,0.01,0.349-0.032,0.65
		c-0.043,0.303-0.158,0.668-0.345,1.095c-0.187,0.428-0.469,0.828-0.844,1.198c-0.375,0.371-0.696,0.636-0.964,0.796
		c-0.267,0.16-0.554,0.303-0.859,0.428c-0.305,0.125-0.621,0.214-0.948,0.265c-0.327,0.052-0.584,0.002-0.771-0.146
		c-0.187-0.149-0.285-0.317-0.289-0.505c-0.006-0.187,0.051-0.402,0.168-0.641c0.118-0.24,0.239-0.454,0.361-0.641
		c0.123-0.189,0.33-0.411,0.618-0.668c0.289-0.257,0.592-0.459,0.907-0.608c0.316-0.149,0.565-0.241,0.747-0.282
		c0.182-0.041,0.062,0.094-0.361,0.402c-0.423,0.308-0.792,0.611-1.109,0.907c-0.316,0.297-0.418,0.514-0.305,0.65
		c0.113,0.137,0.316,0.146,0.61,0.025c0.295-0.119,0.724-0.477,1.286-1.069c0.562-0.593,0.745-1.104,0.547-1.531
		c-0.199-0.427-0.578-0.531-1.142-0.308c-0.562,0.223-1.064,0.538-1.503,0.949s-0.9,1.241-1.382,2.492
		c-0.482,1.25-0.825,2.173-1.028,2.773c-0.204,0.599-0.474,1.423-0.812,2.473c-0.338,1.05-0.732,2.07-1.181,3.055
		c-0.451,0.988-0.817,1.421-1.101,1.301c-0.284-0.12-0.459-0.282-0.522-0.488c-0.065-0.205-0.084-0.422-0.056-0.65
		c0.027-0.228,0.116-0.516,0.265-0.864c0.151-0.349,0.353-0.927,0.61-1.738c0.257-0.809,0.801-2.37,1.631-4.681
		c0.829-2.311,1.323-3.68,1.477-4.108c0.156-0.428,0.355-1.058,0.602-1.891c0.247-0.833,0.271-1.212,0.073-1.139
		s-0.629,0.303-1.294,0.684C27.256,10.49,27.401,10.344,28.354,9.671z"/>
	<path d="M38.67,8.85c0.718-0.057,1.154,0.071,1.31,0.385s0.228,0.714,0.218,1.198c-0.01,0.485-0.224,0.896-0.642,1.232
		c-0.418,0.338-0.97,0.671-1.656,1.001c-0.194,0.08-0.367,0.123-0.522,0.127c-0.156,0.005-0.285,0-0.386-0.016
		c-0.101-0.016-0.181-0.035-0.242-0.052s-0.094-0.009-0.103,0.026c-0.192,0.33-0.293,0.662-0.297,0.993
		c-0.006,0.33,0.096,0.636,0.305,0.916c0.209,0.28,0.441,0.442,0.699,0.488c0.257,0.046,0.524,0.037,0.804-0.026
		c0.28-0.062,0.792-0.26,1.542-0.59c0.749-0.33,1.273-0.641,1.567-0.933c0.295-0.292,0.575-0.573,0.844-0.847
		c0.267-0.274,0.305-0.274,0.113,0c-0.192,0.274-0.431,0.605-0.715,0.993c-0.285,0.389-0.638,0.774-1.06,1.155
		c-0.423,0.382-0.769,0.676-1.036,0.881s-0.625,0.391-1.069,0.557c-0.444,0.166-0.881,0.217-1.31,0.155s-0.749-0.168-0.964-0.317
		c-0.215-0.149-0.413-0.326-0.595-0.531s-0.332-0.447-0.451-0.728c-0.118-0.28-0.179-0.661-0.185-1.147
		c-0.005-0.485,0.101-1.012,0.321-1.583c0.218-0.571,0.467-1.046,0.746-1.422c0.28-0.376,0.656-0.755,1.133-1.139
		C37.516,9.246,38.06,8.986,38.67,8.85z M38.686,10.39c-0.075-0.079-0.26-0.041-0.554,0.119c-0.295,0.16-0.51,0.34-0.642,0.538
		c-0.134,0.201-0.158,0.345-0.073,0.436c0.086,0.092,0.267,0.054,0.546-0.111c0.28-0.166,0.502-0.33,0.668-0.498
		C38.795,10.713,38.815,10.55,38.686,10.39z"/>
	<path d="M47.234,8.953c0.247-0.068,0.517-0.079,0.812-0.035c0.294,0.046,0.53,0.144,0.706,0.292
		c0.176,0.149,0.345,0.439,0.506,0.874c0.16,0.433,0.088,0.725-0.217,0.874c-0.305,0.149-0.582,0.098-0.827-0.155
		c-0.247-0.251-0.504-0.303-0.771-0.155c-0.267,0.149-0.532,0.3-0.796,0.454c-0.263,0.155-0.586,0.397-0.972,0.728
		c-0.386,0.33-0.782,0.753-1.189,1.266c-0.407,0.514-0.633,0.842-0.675,0.984c-0.043,0.144,0.06,0.123,0.314-0.059
		c0.252-0.182,0.638-0.459,1.157-0.831c0.519-0.371,1.172-0.75,1.961-1.139c0.786-0.387,1.286-0.538,1.495-0.454
		c0.209,0.087,0.388,0.243,0.539,0.47s0.235,0.425,0.257,0.59c0.021,0.166-0.002,0.297-0.073,0.395
		c-0.07,0.098-0.151,0.317-0.242,0.658c-0.091,0.343-0.084,0.673,0.024,0.993c0.108,0.319,0.244,0.538,0.41,0.658
		c0.166,0.119,0.394,0.155,0.683,0.103c0.289-0.052,0.645-0.285,1.069-0.702c0.423-0.417,0.404-0.319-0.056,0.29
		c-0.461,0.611-0.825,0.999-1.092,1.163c-0.267,0.166-0.476,0.246-0.627,0.24c-0.151-0.005-0.345-0.057-0.586-0.155
		c-0.242-0.098-0.469-0.249-0.683-0.454c-0.215-0.205-0.383-0.457-0.506-0.753c-0.124-0.297-0.207-0.516-0.25-0.66
		c-0.043-0.144-0.142-0.3-0.297-0.47c-0.156-0.171-0.345-0.208-0.57-0.111c-0.224,0.098-0.618,0.363-1.181,0.796
		c-0.562,0.433-1.087,0.79-1.575,1.069s-0.924,0.474-1.31,0.582c-0.386,0.109-0.634,0.146-0.747,0.111
		c-0.113-0.035-0.237-0.162-0.369-0.385c-0.134-0.223-0.211-0.465-0.232-0.728c-0.022-0.262,0.014-0.527,0.105-0.796
		s0.433-0.805,1.028-1.609c0.595-0.805,1.167-1.464,1.719-1.978c0.552-0.514,1.138-0.949,1.76-1.31
		C46.553,9.251,46.988,9.032,47.234,8.953z"/>
	<path d="M55.462,1.848c0.224-0.24,0.532-0.274,0.924-0.103c0.39,0.171,0.461,0.907,0.209,2.208
		c-0.252,1.301-0.527,2.602-0.827,3.903c-0.299,1.301-0.232,1.931,0.201,1.891s0.835-0.219,1.205-0.538
		c0.37-0.319,0.779-0.66,1.23-1.017c0.451-0.36,0.875-0.673,1.278-0.942c0.402-0.269,0.645-0.194,0.732,0.223
		c0.086,0.417,0.058,0.765-0.08,1.045c-0.139,0.281-0.706,0.774-1.704,1.48c-0.995,0.708-1.469,1.15-1.422,1.326
		c0.049,0.178,0.099,0.354,0.153,0.531c0.053,0.176,0.275,0.566,0.668,1.163c0.39,0.599,0.905,1.22,1.542,1.865
		c0.638,0.645,0.924,1.045,0.859,1.198c-0.065,0.155-0.177,0.257-0.337,0.308c-0.161,0.052-0.364,0.098-0.611,0.137
		c-0.247,0.041-0.616-0.166-1.109-0.616c-0.494-0.451-0.967-1.006-1.422-1.67c-0.455-0.662-0.841-1.189-1.157-1.583
		c-0.316-0.394-0.537-0.639-0.659-0.736c-0.123-0.098-0.353,0.433-0.691,1.592c-0.337,1.159-0.635,2.029-0.892,2.61
		c-0.257,0.582-0.541,0.831-0.851,0.744c-0.31-0.084-0.509-0.173-0.595-0.265c-0.086-0.092-0.099-0.274-0.041-0.547
		c0.058-0.274,0.254-0.785,0.586-1.531c0.332-0.748,0.715-2.206,1.15-4.373c0.435-2.167,0.706-3.693,0.82-4.578
		c0.113-0.885,0-0.988-0.338-0.308s-0.9,1.609-1.687,2.79c-0.788,1.181-0.875,1.269-0.265,0.265
		c0.611-1.004,1.044-1.754,1.301-2.251s0.57-1.264,0.94-2.302C54.939,2.728,55.237,2.09,55.462,1.848z"/>
	<path d="M64.009,8.85c0.718-0.057,1.154,0.071,1.31,0.385s0.228,0.714,0.217,1.198c-0.01,0.485-0.224,0.896-0.642,1.232
		c-0.418,0.338-0.97,0.671-1.656,1.001c-0.194,0.08-0.367,0.123-0.522,0.127c-0.156,0.005-0.285,0-0.386-0.016
		c-0.101-0.016-0.181-0.035-0.242-0.052c-0.059-0.016-0.094-0.009-0.103,0.026c-0.194,0.33-0.293,0.662-0.297,0.993
		c-0.006,0.33,0.096,0.636,0.305,0.916c0.209,0.28,0.441,0.442,0.699,0.488c0.257,0.046,0.524,0.037,0.804-0.026
		c0.28-0.062,0.792-0.26,1.542-0.59c0.749-0.33,1.273-0.641,1.567-0.933c0.295-0.292,0.575-0.573,0.844-0.847
		c0.267-0.274,0.305-0.274,0.113,0c-0.192,0.274-0.431,0.605-0.715,0.993c-0.284,0.389-0.638,0.774-1.06,1.155
		c-0.424,0.382-0.769,0.676-1.036,0.881c-0.267,0.205-0.625,0.391-1.069,0.557c-0.444,0.166-0.881,0.217-1.31,0.155
		s-0.749-0.168-0.964-0.317s-0.413-0.326-0.595-0.531s-0.332-0.447-0.451-0.728c-0.118-0.28-0.179-0.661-0.185-1.147
		c-0.005-0.485,0.101-1.012,0.321-1.583c0.22-0.571,0.469-1.045,0.747-1.421c0.28-0.376,0.656-0.755,1.133-1.139
		C62.856,9.246,63.399,8.986,64.009,8.85z M64.027,10.39c-0.075-0.079-0.26-0.041-0.554,0.119c-0.295,0.16-0.51,0.34-0.642,0.538
		c-0.134,0.201-0.158,0.345-0.073,0.436c0.086,0.092,0.267,0.054,0.546-0.111c0.28-0.166,0.502-0.33,0.668-0.498
		C64.136,10.713,64.155,10.55,64.027,10.39z"/>
	<path d="M68.076,11.264c0.386-1.586,0.758-2.362,1.117-2.327c0.359,0.035,0.629,0.205,0.812,0.514
		c0.182,0.308,0.164,0.687-0.056,1.139s-0.242,0.662-0.065,0.634c0.177-0.027,0.41-0.144,0.698-0.343
		c0.29-0.201,0.564-0.36,0.827-0.479c0.263-0.119,0.474-0.197,0.635-0.23s0.469,0.022,0.924,0.171
		c0.455,0.149,0.886,0.356,1.293,0.625c0.408,0.269,0.945,0.29,1.616,0.068c0.67-0.223,0.597-0.149-0.217,0.223
		c-0.814,0.371-1.647,0.546-2.498,0.522c-0.853-0.022-1.51,0.087-1.977,0.326c-0.466,0.24-0.859,0.505-1.181,0.796
		c-0.322,0.292-0.618,0.771-0.892,1.437c-0.273,0.668-0.482,1.23-0.627,1.686c-0.144,0.457-0.273,0.831-0.386,1.12
		c-0.113,0.292-0.343,0.444-0.691,0.463c-0.348,0.016-0.578-0.116-0.691-0.402c-0.113-0.285-0.138-0.47-0.08-0.557
		c0.058-0.087,0.22-0.608,0.482-1.567S67.7,12.849,68.076,11.264z"/>
	<path d="M77.588,9.073c0.429-0.228,0.857-0.376,1.286-0.444c0.429-0.068,0.689,0.016,0.779,0.257
		c0.091,0.24,0.049,0.474-0.129,0.702c-0.177,0.228-0.418,0.356-0.724,0.385c-0.305,0.027-0.635,0.262-0.988,0.702
		c-0.353,0.439-0.558,0.958-0.61,1.558c-0.053,0.599-0.041,1.012,0.041,1.241c0.08,0.228,0.168,0.673,0.265,1.334
		c0.095,0.662,0.032,1.23-0.194,1.704c-0.225,0.474-0.467,0.819-0.724,1.036c-0.257,0.217-0.575,0.376-0.956,0.479
		s-0.704,0.155-0.972,0.155c-0.267,0-0.554-0.068-0.859-0.205c-0.305-0.137-0.494-0.42-0.562-0.847
		c-0.069-0.427,0.494-1.22,1.687-2.379c1.195-1.159,1.288-1.192,0.282-0.103c-1.007,1.09-1.401,1.766-1.181,2.029
		s0.482,0.33,0.788,0.205c0.305-0.125,0.547-0.293,0.724-0.505s0.308-0.468,0.394-0.771s0.123-0.582,0.113-0.839
		c-0.01-0.257-0.094-0.828-0.25-1.712c-0.156-0.885-0.156-1.55,0-1.994c0.156-0.444,0.386-0.831,0.691-1.155
		C76.792,9.577,77.159,9.301,77.588,9.073z"/>
</g>
<path id="fr8" style="fill:#5D2D7B;" d="M19.303,11.85c0,4.779-4.114,8.652-9.188,8.652c-5.073,0-9.187-3.873-9.187-8.652
	c0-4.778,4.113-8.651,9.187-8.651C15.189,3.198,19.303,7.072,19.303,11.85"/>
</svg>
