<?xml version="1.0" encoding="iso-8859-1"?>
<!-- Generator: Adobe Illustrator 19.2.1, SVG Export Plug-In . SVG Version: 6.00 Build 0)  -->
<svg version="1.1" id="Layer_1" xmlns="http://www.w3.org/2000/svg" xmlns:xlink="http://www.w3.org/1999/xlink" x="0px" y="0px"
	 viewBox="0 0 80 25" style="enable-background:new 0 0 80 25;" xml:space="preserve">
<g>
	<path d="M26.098,4.596c0.379-0.62,0.703-0.922,0.973-0.905c0.27,0.016,0.496,0.112,0.676,0.286c0.18,0.174,0.224,0.664,0.129,1.468
		c-0.095,0.805-0.305,2.411-0.629,4.821c-0.324,2.409-0.435,3.82-0.332,4.233c0.103,0.413,0.672-0.152,1.705-1.696
		s1.961-3.064,2.786-4.56c0.825-1.495,1.332-2.403,1.521-2.725c0.19-0.321,0.37-0.62,0.542-0.897
		c0.171-0.277,0.333-0.495,0.487-0.652c0.153-0.157,0.302-0.132,0.446,0.073c0.145,0.207,0.234,0.418,0.27,0.636
		c0.035,0.218-0.074,0.59-0.332,1.118c-0.256,0.527-0.539,1.145-0.844,1.851s-0.688,1.536-1.148,2.487
		c-0.46,0.952-1.092,2.02-1.9,3.206c-0.807,1.186-1.423,2.056-1.847,2.611c-0.424,0.555-0.948,0.998-1.569,1.329
		c-0.622,0.332-1.051,0.31-1.285-0.066c-0.234-0.375-0.401-0.778-0.501-1.207c-0.1-0.429-0.158-0.913-0.175-1.452
		c-0.018-0.539,0.126-1.688,0.433-3.45c0.306-1.762,0.232-2.259-0.224-1.493c-0.456,0.767-0.967,1.547-1.536,2.342
		c-0.567,0.794-0.935,1.275-1.102,1.443c-0.166,0.169-0.366,0.464-0.594,0.889c-0.231,0.424-0.428,0.735-0.594,0.93
		c-0.166,0.195-0.602,0.723-1.305,1.582c-0.703,0.859-1.18,1.291-1.428,1.297c-0.248,0.005-0.441-0.092-0.582-0.294
		c-0.14-0.201-0.292-0.54-0.453-1.019c-0.163-0.479-0.219-1.065-0.169-1.762c0.05-0.697,0.151-1.341,0.305-1.932
		c0.153-0.593,0.309-1.207,0.466-1.843c0.158-0.636,0.458-1.577,0.899-2.822s0.752-2.115,0.932-2.611
		c0.18-0.495,0.327-0.799,0.44-0.913c0.112-0.114,0.317-0.117,0.616-0.008C21.473,5,21.677,5.195,21.784,5.479
		c0.108,0.283,0.108,0.56,0,0.832c-0.108,0.272-0.417,1.074-0.926,2.406c-0.509,1.332-0.943,2.781-1.299,4.347
		s-0.269,2.015,0.264,1.346c0.532-0.669,1.118-1.501,1.758-2.495c0.64-0.996,1.353-2.091,2.137-3.287
		c0.785-1.196,1.285-2.015,1.501-2.454C25.436,5.729,25.728,5.204,26.098,4.596z"/>
	<path d="M35.147,10.452c0.171-0.195,0.381-0.32,0.629-0.375c0.248-0.054,0.453-0.038,0.616,0.049
		c0.163,0.087,0.3,0.243,0.412,0.464c0.112,0.223,0.395,0.329,0.844,0.319c0.452-0.01,1.012-0.008,1.684,0.008
		c0.672,0.017,0.53,0.041-0.425,0.073c-0.956,0.033-1.498,0.079-1.629,0.139c-0.131,0.06-0.185,0.253-0.163,0.579
		c0.022,0.327,0.041,0.672,0.055,1.036c0.013,0.365,0.016,0.77,0.006,1.216c-0.009,0.446-0.035,0.778-0.081,0.996
		s-0.112,0.446-0.204,0.685c-0.09,0.239-0.224,0.492-0.398,0.758c-0.176,0.266-0.392,0.514-0.649,0.742
		c-0.256,0.228-0.493,0.4-0.711,0.514c-0.216,0.114-0.452,0.119-0.703,0.016c-0.253-0.104-0.458-0.266-0.616-0.489
		c-0.158-0.223-0.283-0.454-0.379-0.693s-0.136-0.657-0.123-1.255c0.013-0.598,0.068-1.08,0.163-1.444
		c0.095-0.364,0.242-0.745,0.439-1.141c0.198-0.396,0.256-0.581,0.176-0.555c-0.081,0.028-0.101,0.014-0.061-0.041
		c0.041-0.054,0.196-0.289,0.466-0.702C34.768,10.936,34.984,10.637,35.147,10.452z M35.823,13.014
		c-0.198-0.294-0.446-0.213-0.744,0.245c-0.299,0.457-0.476,0.941-0.534,1.452c-0.059,0.512-0.035,0.87,0.068,1.077
		c0.103,0.207,0.213,0.327,0.324,0.359c0.112,0.033,0.272-0.056,0.48-0.269c0.208-0.213,0.377-0.672,0.507-1.379
		C36.055,13.792,36.019,13.296,35.823,13.014z"/>
	<path d="M38.974,11.904c0.324-1.511,0.638-2.251,0.94-2.218c0.302,0.033,0.53,0.195,0.683,0.489
		c0.153,0.294,0.137,0.655-0.047,1.085c-0.185,0.43-0.204,0.631-0.055,0.603c0.148-0.028,0.344-0.136,0.588-0.327
		c0.243-0.19,0.475-0.342,0.696-0.457c0.221-0.114,0.4-0.188,0.534-0.22c0.135-0.033,0.395,0.022,0.779,0.163
		c0.383,0.142,0.746,0.34,1.089,0.596s0.796,0.277,1.36,0.066c0.564-0.213,0.503-0.142-0.182,0.213
		c-0.685,0.354-1.386,0.519-2.103,0.497c-0.717-0.021-1.272,0.081-1.663,0.31s-0.723,0.481-0.994,0.758
		c-0.27,0.278-0.52,0.735-0.751,1.371c-0.231,0.636-0.406,1.171-0.527,1.607c-0.123,0.436-0.23,0.791-0.324,1.068
		c-0.095,0.278-0.289,0.424-0.581,0.441c-0.294,0.016-0.487-0.112-0.582-0.383c-0.095-0.271-0.117-0.449-0.068-0.53
		c0.05-0.081,0.185-0.58,0.406-1.493C38.39,14.628,38.658,13.416,38.974,11.904z"/>
	<path d="M47.629,2.932c0.19-0.228,0.449-0.261,0.779-0.098c0.329,0.163,0.388,0.864,0.175,2.104
		c-0.213,1.24-0.444,2.479-0.696,3.719c-0.253,1.24-0.196,1.841,0.169,1.802c0.366-0.038,0.703-0.209,1.013-0.514
		c0.311-0.304,0.656-0.628,1.035-0.971c0.379-0.342,0.738-0.641,1.075-0.897c0.338-0.256,0.543-0.185,0.616,0.213
		c0.072,0.397,0.05,0.728-0.068,0.994s-0.594,0.737-1.435,1.412c-0.838,0.674-1.237,1.095-1.197,1.265
		c0.04,0.169,0.083,0.337,0.129,0.506c0.045,0.169,0.232,0.538,0.561,1.11c0.329,0.571,0.761,1.164,1.299,1.778
		c0.537,0.614,0.777,0.996,0.723,1.141c-0.055,0.147-0.148,0.245-0.283,0.294s-0.307,0.093-0.514,0.13
		c-0.208,0.038-0.518-0.157-0.933-0.588c-0.414-0.429-0.814-0.959-1.197-1.59c-0.384-0.631-0.708-1.133-0.973-1.509
		c-0.266-0.375-0.451-0.609-0.554-0.702c-0.103-0.092-0.298,0.413-0.582,1.516c-0.283,1.105-0.534,1.934-0.751,2.487
		c-0.216,0.555-0.456,0.791-0.717,0.71s-0.428-0.165-0.501-0.253c-0.073-0.087-0.084-0.261-0.034-0.522s0.215-0.748,0.493-1.46
		c0.28-0.712,0.602-2.102,0.967-4.168s0.594-3.521,0.689-4.364c0.095-0.842,0-0.941-0.283-0.294s-0.757,1.534-1.419,2.659
		c-0.662,1.126-0.738,1.21-0.224,0.253c0.514-0.957,0.88-1.673,1.095-2.145c0.216-0.474,0.48-1.204,0.791-2.195
		C47.19,3.769,47.44,3.16,47.629,2.932z"/>
	<path d="M54.702,9.815c0.36-0.218,0.722-0.359,1.081-0.424c0.36-0.066,0.58,0.016,0.656,0.245c0.077,0.228,0.041,0.451-0.108,0.669
		c-0.148,0.218-0.351,0.34-0.608,0.367c-0.256,0.028-0.535,0.251-0.831,0.669c-0.297,0.418-0.469,0.913-0.514,1.485
		c-0.046,0.571-0.033,0.966,0.033,1.182c0.068,0.218,0.142,0.641,0.224,1.272c0.081,0.631,0.027,1.171-0.163,1.623
		c-0.19,0.451-0.392,0.781-0.61,0.986c-0.216,0.207-0.485,0.359-0.804,0.457c-0.32,0.098-0.593,0.147-0.818,0.147
		c-0.226,0-0.466-0.066-0.724-0.195c-0.256-0.13-0.414-0.4-0.474-0.807c-0.059-0.408,0.414-1.164,1.419-2.268
		c1.005-1.103,1.084-1.136,0.237-0.098c-0.847,1.039-1.18,1.683-0.994,1.934c0.185,0.251,0.406,0.315,0.662,0.195
		c0.256-0.119,0.46-0.279,0.608-0.481c0.149-0.201,0.259-0.446,0.332-0.735c0.073-0.287,0.103-0.555,0.095-0.799
		c-0.009-0.245-0.079-0.788-0.21-1.632c-0.131-0.842-0.131-1.476,0-1.901c0.131-0.424,0.324-0.791,0.582-1.101
		C54.033,10.297,54.343,10.033,54.702,9.815z"/>
	<path d="M60.573,0.354c0.469-0.13,0.852-0.06,1.149,0.213c0.298,0.272,0.238,0.75-0.176,1.435S60.549,4.131,59.8,6.334
		c-0.748,2.203-1.234,3.765-1.46,4.69s-0.243,1.262-0.055,1.011c0.19-0.251,0.377-0.476,0.561-0.677s0.39-0.408,0.616-0.62
		c0.226-0.213,0.43-0.367,0.616-0.464c0.185-0.098,0.39-0.172,0.616-0.22c0.226-0.049,0.43-0.01,0.616,0.114
		c0.185,0.125,0.329,0.286,0.433,0.481c0.103,0.195,0.166,0.55,0.188,1.06c0.022,0.512-0.002,1.047-0.074,1.607
		c-0.072,0.56-0.077,0.981-0.013,1.265c0.063,0.283,0.177,0.533,0.345,0.75c0.166,0.218,0.453,0.269,0.859,0.155
		c0.406-0.114,0.722-0.315,0.948-0.603c0.226-0.289,0.277-0.269,0.155,0.056c-0.123,0.327-0.302,0.618-0.542,0.872
		c-0.239,0.256-0.531,0.479-0.872,0.669c-0.343,0.19-0.622,0.289-0.838,0.294c-0.216,0.005-0.437-0.104-0.662-0.327
		c-0.226-0.223-0.379-0.544-0.46-0.963c-0.081-0.419-0.098-1.068-0.055-1.949c0.046-0.882-0.006-1.405-0.155-1.574
		c-0.149-0.168-0.532,0.025-1.149,0.58s-1.084,1.181-1.4,1.876c-0.316,0.697-0.55,1.286-0.703,1.77
		c-0.153,0.484-0.343,0.687-0.567,0.611c-0.226-0.076-0.402-0.201-0.527-0.375c-0.127-0.174-0.19-0.421-0.19-0.742
		c0-0.32,0.27-1.562,0.812-3.727S58,7.675,58.695,5.609c0.695-2.066,1.101-3.323,1.217-3.768
		C60.027,1.393,60.248,0.899,60.573,0.354z"/>
	<path d="M65.955,10.452c0.171-0.195,0.381-0.32,0.629-0.375c0.248-0.054,0.453-0.038,0.616,0.049
		c0.163,0.087,0.3,0.243,0.412,0.464c0.112,0.223,0.395,0.329,0.845,0.319c0.452-0.01,1.012-0.008,1.684,0.008
		c0.672,0.017,0.53,0.041-0.425,0.073c-0.956,0.033-1.498,0.079-1.629,0.139c-0.131,0.06-0.185,0.253-0.163,0.579
		c0.022,0.327,0.041,0.672,0.055,1.036c0.013,0.365,0.016,0.77,0.006,1.216c-0.009,0.446-0.035,0.778-0.081,0.996
		c-0.046,0.218-0.112,0.446-0.203,0.685c-0.09,0.239-0.224,0.492-0.399,0.758c-0.176,0.266-0.392,0.514-0.649,0.742
		c-0.256,0.228-0.493,0.4-0.711,0.514c-0.216,0.114-0.452,0.119-0.703,0.016c-0.253-0.104-0.458-0.266-0.616-0.489
		s-0.283-0.454-0.379-0.693s-0.136-0.657-0.123-1.255c0.013-0.598,0.068-1.08,0.163-1.444c0.095-0.364,0.242-0.745,0.439-1.141
		c0.198-0.396,0.256-0.581,0.176-0.555c-0.081,0.028-0.101,0.014-0.061-0.041c0.04-0.054,0.196-0.289,0.466-0.702
		C65.576,10.936,65.794,10.637,65.955,10.452z M66.631,13.014c-0.198-0.294-0.447-0.213-0.744,0.245
		c-0.299,0.457-0.476,0.941-0.534,1.452c-0.059,0.512-0.035,0.87,0.068,1.077c0.103,0.207,0.213,0.327,0.324,0.359
		c0.112,0.033,0.272-0.056,0.48-0.269s0.377-0.672,0.507-1.379C66.864,13.792,66.83,13.296,66.631,13.014z"/>
	<path d="M69.662,10.387c0.802-0.652,1.294-1.017,1.474-1.093s0.332-0.049,0.453,0.081c0.123,0.13,0.193,0.291,0.216,0.481
		s-0.024,0.606-0.142,1.248c-0.117,0.641-0.117,0.903,0,0.783c0.117-0.119,0.283-0.239,0.501-0.359
		c0.216-0.119,0.488-0.251,0.818-0.391c0.329-0.142,0.638-0.201,0.926-0.18c0.289,0.022,0.507,0.106,0.656,0.253
		c0.149,0.147,0.243,0.266,0.283,0.359c0.041,0.093,0.095,0.226,0.163,0.4c0.068,0.174,0.101,0.279,0.101,0.317
		s0.009,0.119,0.027,0.245c0.018,0.125,0.009,0.332-0.027,0.62c-0.035,0.289-0.134,0.636-0.292,1.044s-0.395,0.788-0.711,1.141
		s-0.586,0.606-0.812,0.758c-0.226,0.152-0.466,0.289-0.724,0.408c-0.256,0.119-0.523,0.205-0.798,0.253s-0.491,0.003-0.649-0.139
		s-0.239-0.302-0.243-0.481c-0.005-0.18,0.044-0.383,0.142-0.611c0.098-0.228,0.199-0.433,0.305-0.611
		c0.103-0.18,0.277-0.391,0.52-0.636c0.243-0.244,0.498-0.437,0.763-0.579c0.266-0.142,0.476-0.231,0.629-0.269
		s0.052,0.089-0.305,0.383s-0.667,0.582-0.932,0.864c-0.266,0.283-0.351,0.489-0.256,0.62c0.095,0.13,0.266,0.139,0.514,0.025
		c0.248-0.114,0.609-0.454,1.081-1.019c0.474-0.565,0.627-1.052,0.46-1.46s-0.487-0.505-0.96-0.294
		c-0.474,0.213-0.895,0.514-1.265,0.905c-0.37,0.391-0.757,1.182-1.163,2.373c-0.406,1.191-0.695,2.071-0.866,2.642
		c-0.171,0.571-0.4,1.356-0.683,2.357c-0.283,1.001-0.616,1.972-0.994,2.912c-0.379,0.941-0.687,1.354-0.926,1.24
		c-0.239-0.114-0.386-0.269-0.44-0.464c-0.055-0.195-0.069-0.403-0.047-0.62c0.022-0.218,0.097-0.492,0.223-0.824
		c0.127-0.332,0.298-0.884,0.514-1.656c0.216-0.771,0.674-2.259,1.373-4.462c0.699-2.203,1.114-3.507,1.244-3.915
		s0.3-1.009,0.507-1.802c0.208-0.794,0.227-1.156,0.061-1.085s-0.53,0.289-1.089,0.652C68.736,11.168,68.859,11.029,69.662,10.387z"
		/>
	<path d="M78.223,9.815c0.36-0.218,0.722-0.359,1.081-0.424c0.36-0.066,0.58,0.016,0.656,0.245c0.077,0.228,0.04,0.451-0.108,0.669
		c-0.148,0.218-0.351,0.34-0.608,0.367c-0.256,0.028-0.534,0.251-0.831,0.669c-0.298,0.418-0.469,0.913-0.514,1.485
		c-0.046,0.571-0.033,0.966,0.033,1.182c0.068,0.218,0.142,0.641,0.224,1.272c0.08,0.631,0.027,1.171-0.163,1.623
		c-0.19,0.451-0.392,0.781-0.61,0.986c-0.216,0.207-0.485,0.359-0.804,0.457s-0.593,0.147-0.818,0.147
		c-0.226,0-0.466-0.066-0.724-0.195c-0.256-0.13-0.414-0.4-0.474-0.807c-0.059-0.408,0.414-1.164,1.419-2.268
		c1.005-1.103,1.084-1.136,0.237-0.098c-0.847,1.039-1.18,1.683-0.994,1.934s0.406,0.315,0.662,0.195
		c0.256-0.119,0.46-0.279,0.608-0.481c0.149-0.201,0.259-0.446,0.332-0.735c0.073-0.287,0.103-0.555,0.095-0.799
		c-0.009-0.245-0.079-0.788-0.21-1.632c-0.131-0.842-0.131-1.476,0-1.901c0.131-0.424,0.324-0.791,0.582-1.101
		C77.553,10.297,77.862,10.033,78.223,9.815z"/>
</g>
<path id="fr9" style="fill:#00A69C;" d="M0,12.5c0-4.294,3.917-7.772,8.749-7.772c4.834,0,8.751,3.479,8.751,7.772
	c0,4.291-3.917,7.772-8.751,7.772C3.917,20.272,0,16.791,0,12.5"/>
</svg>
