<?xml version="1.0" encoding="utf-8"?>
<!-- Generator: Adobe Illustrator 19.2.1, SVG Export Plug-In . SVG Version: 6.00 Build 0)  -->
<svg version="1.1" id="Layer_1" xmlns="http://www.w3.org/2000/svg" xmlns:xlink="http://www.w3.org/1999/xlink" x="0px" y="0px"
	 viewBox="0 0 755.1 154" style="enable-background:new 0 0 755.1 154;" xml:space="preserve">
<style type="text/css">
	.st0{fill:#5d2d7a;}
</style>
<g id="XMLID_286_">
	<path id="XMLID_287_" class="st0" d="M182.2,38.9l0.5,0.4c0.4-0.3,0.7-0.4,0.9-0.5h0.8c0,1.7,0,2.3,0.1,2s0.4,0,1,0.9
		c0.3,0.5,0.5,1.2,0.5,2l1.5,17c0,2.6,0.1,5.1,0.4,7.5c0.3,2.5,0.7,4.9,1.3,7.4s1.1,4.9,1.7,7.3c0.6,2.4,1.2,4.8,1.8,7.3l0.9,3.1
		c0,0,0.2,0.9,0.7,2.5c0.4,1.5,1,2.6,1.7,3.1c0.2-1.9,0.9-5.1,2.1-9.6c0.7-2.3,1.2-4.3,1.7-6s0.9-3.1,1.3-4.3
		c0.2-0.8,0.4-1.7,0.5-2.6s0.3-1.6,0.4-2.2l1.9-7c0.2-0.8,0.2-1.2,0.1-1.2c-0.1,0-0.1-0.3,0.1-0.9c0.2-0.9,0.4-2,0.7-3.2
		s0.7-2.6,1.2-4.1c1-3,1.6-5.5,1.9-7.5c0.2-1.1,0.3-2.1,0.3-3.1c0.1-1,0.1-2,0.1-2.9s0.2-1.9,0.4-2.8s0.6-1.9,1.1-2.9
		c1-2,2.4-3.4,4.1-4.3l1.1-0.7l0.9-0.5l1.1-0.4l1.1-0.4c0.9-0.2,1.6-0.1,2,0.3s0.6,0.6,0.6,0.5l0.1,0.2c0.7-0.5,1-0.9,0.9-1.2
		s0.2-0.2,0.8,0.4c0.2,0.2,0.4,0.3,0.5,0.4c0.2,0.1-0.1,0.7-0.9,1.8c0.7,0,1.3,0,1.7-0.1s0.9,0.1,1.6,0.3c0.6,0.2,1,0.4,1.4,0.4
		s0.7,0.3,1.1,0.8c0.5,0.8,0.6,1.2,0.3,1.3c-0.3,0-0.2,0.6,0.3,1.7c0.4,1,0.6,1.2,0.7,0.6c0.1-0.6,0.3-1.1,0.5-1.5l0.7,6
		c-0.4,1.3-0.7,1.9-0.8,1.7c0-0.3,0.1-0.1,0.4,0.7c0.2,0.6,0.4,0.9,0.4,0.9c0.1-0.1,0,0.4-0.5,1.5l-15.2,46.7
		c-0.2,0.3-0.3,0.6-0.4,0.8c-0.1,0.2-0.2,0.4-0.3,0.5s-0.3,0.6-0.6,1.4c-0.3,0.7-0.5,1.2-0.6,1.5s-0.3,0.7-0.6,1.3l-5.3,10.3
		c-0.4,0.7-0.8,1.5-1.4,2.6c-0.2,0.3-0.4,0.7-0.6,1.1c-0.3,0.4-0.5,0.9-0.9,1.4c-0.3,0.5-0.7,1.2-1.1,2.2c-0.4,0.9-0.8,2.1-1.3,3.4
		c-0.9,2.7-2.1,4-3.7,4h-0.8c0.4,0,0.4-0.2-0.1-0.4c-2-0.9-3.4-2.3-4.1-4.3c-0.7-2-1.7-3.8-3-5.6c-1.1-1.5-2.2-3.3-3.2-5.6l-2.8-6.3
		c-0.6-1.3-1.2-2.5-1.6-3.6c-0.5-1.1-0.8-2.1-1.2-3l-1.1-3.2c-0.1-0.2-0.2-0.4-0.3-0.5s-0.1-0.2-0.1-0.3c0-0.1-0.1-0.2-0.1-0.3
		c0-0.1-0.1-0.3-0.2-0.5c-0.4-0.8-0.7-1.8-1.2-3.2c-0.4-1.3-0.9-2.9-1.4-4.8c-1-3.9-1.9-6.1-2.8-6.7c-0.1,1.1-0.4,2-0.7,2.6
		c-0.4,0.6-0.7,1.4-0.9,2.5c-0.4,1.4-0.9,3-1.5,4.8c-0.7,1.8-1.4,3.8-2.3,6.1c-1.9,4.5-3.5,7.9-5,10.2l-8.5,14.1
		c-0.8,1.7-1.2,3.3-1.2,4.8s-0.7,3.2-2.1,5.1c-1.2,1.5-2.3,2-3.3,1.5c-0.5-0.2-0.9-0.7-1.3-1.3c-0.1-0.1-0.1-0.2-0.2-0.3l-0.3-0.5
		c-0.7-1.1-1.9-4.2-3.5-9.3c-1.7-5.1-2.6-8.4-2.8-9.7c0-0.1,0-0.2,0-0.2v-0.1c0,0,0-0.1-0.1-0.2c0-0.1-0.1-0.3-0.1-0.6l-5.5-22.1
		c-0.3-1-0.5-1.9-0.7-2.7c-0.2-0.8-0.3-1.5-0.4-2l-7-24.9c-0.2-1-0.3-1.9-0.4-2.7s-0.2-1.6-0.3-2.4c-0.1-0.7-0.2-1.5-0.3-2.2
		c-0.1-0.7-0.3-1.5-0.5-2.3c-0.1-0.3-0.2-0.7-0.3-1.2c-0.1-0.5-0.2-1-0.4-1.6c-0.2-1.3-0.3-2.1-0.3-2.5c0-0.6,0.4-1.7,1-3.2
		s1.1-2.5,1.6-3c0.5-0.6,0.7-0.9,0.7-0.9c-0.1,0,0.3-0.1,1.2-0.2c0.1-1.3,0.3-1.9,0.5-1.7c0.2,0.2,0.5-0.3,0.9-1.5
		c1,0.4,1.6,0.5,2,0.3l1.3-0.9l0,0c0.1,0,0.1-0.1,0.3-0.2c0.9,0.7,1.2,1.1,1.1,1.2c-0.2,0.1,0.4,0.1,1.8,0.1c0.4,0,0.7,0,1.1-0.1
		c0.3,0,0.6-0.1,0.9-0.1s0.6,0,0.9,0.1s0.7,0.2,1.1,0.4c3.5,1.7,5.2,5.2,5.2,10.4c0.9,0.6,1.4,0.8,1.4,0.9c0,0.9,0,1.8-0.1,2.7
		c-0.1,0.8-0.1,1.6-0.2,2.4c-0.1,0.8-0.1,1.6-0.1,2.4s0,1.6,0.1,2.5v0.7c0,0.5,0.1,1,0.3,1.5c0.2,0.6,0.3,1.1,0.4,1.6l1.5,7.7
		l0.1,0.6c0-0.1,0.1,0.1,0.2,0.6c0.1,0.6,0.2,1.1,0.3,1.5s0.2,0.9,0.3,1.6l3.4,27.6l1.7-4.2c1.3-4.2,2.5-8.4,3.5-12.7
		s2.1-8.5,3.3-12.5c0.1-0.5,0.2-0.8,0.3-0.9s0.1-0.4,0.3-0.9l2.6-10.6c0.5-2.2,0.4-3.8-0.4-4.6c-0.8-0.7-0.8-2.2-0.2-4.3l0.3-0.8
		c0.5-1.9,0.9-3.2,1.2-3.7c0.1-0.2,0.4-0.6,0.7-1.2c0.4-0.5,0.8-1.2,1.4-2c0-0.1,0.2-0.3,0.5-0.5l0.7-0.6l4.3-1.5l0.9,1.3
		c0.1-0.4,0.2-0.6,0.4-0.8c0.1-0.2,0.3-0.2,0.5-0.3c0.2,0,0.4,0,0.7,0.1s0.6,0.1,0.9,0.2c0.6,0.1,0.9,0.1,0.9,0.1
		c0.1-0.1,0.5,0.1,1.4,0.5c1.1,0.6,1.5,1,1.1,1.3s-0.2,0.5,0.6,0.5c0.5,0.1,0.7,0,0.7-0.4c0-0.3,0.2-0.5,0.7-0.4
		c0.1,0.1,0.2,0.2,0.4,0.4L182.2,38.9z M177.9,36.7c0-0.2,0-0.3-0.1-0.2L177.9,36.7z M178.2,37.5c0,0,0,0.1,0.1,0.1l0.1,0.1
		L178.2,37.5z M184,44.1c0,0,0,0.1,0.1,0.1l0.1,0.1L184,44.1z M220.9,33.9c0,0.1,0.1,0.1,0.2,0.1L220.9,33.9z M220.9,35.3
		c0,0.7,0,0.9,0.1,0.5c0-0.1,0.1-0.1,0.1-0.2s0-0.1,0.1-0.1c0,0,0-0.1,0.1-0.1c0.2,0,0.2-0.1,0-0.4C221,34.5,220.9,34.7,220.9,35.3z
		 M226.7,37.9C226.7,38,226.7,38,226.7,37.9c0.1,0.1,0.1,0.1,0.1,0.1L226.7,37.9z M229,47.3C228.9,47.3,229,47.3,229,47.3
		c0.1,0.1,0.1,0.1,0.1,0.1L229,47.3z"/>
	<path id="XMLID_296_" class="st0" d="M264.8,127.2c-1.3,0-2-0.1-2.2-0.2c-0.1-0.1-1.3-0.2-3.6-0.3c-1.5,0-3.2-0.5-5-1.6
		c-3.7-2-6.8-4-9.3-6.2c-2.4-2.1-4.5-5.3-6.3-9.4c-2.2-5.1-3.5-11.1-4-18.1c-0.5-7.1,0.4-13.3,2.7-18.6c0.6-1.3,1.1-2.5,1.5-3.6
		c0.5-1.1,0.9-2.2,1.2-3.1c0.4-0.9,0.9-2,1.6-3.1s1.4-2.3,2.4-3.6l2-2.1l0.2-0.2l5.3-4c2.5-1.7,6.3-2.7,11.2-2.9
		c4.9-0.2,8.7,0.2,11.3,1.1c3.4,1.3,5,2,4.8,2.1s0.4,0.5,1.9,1.2c0.3,0.2,0.5,0.3,0.5,0.3c0.1,0,0,0-0.1-0.1c-0.2-0.1,0-0.1,0.5,0.1
		c0.2,0.2,0.5,0.4,0.6,0.4l2.9,2.9c0.4,0.4,0.8,0.8,1.1,1.2c0.3,0.3,0.5,0.6,0.7,0.9c0.5,0.6,1,1.4,1.5,2.5l4.9,8.9
		c2.1,3.3,3.3,6.5,3.6,9.4c0.2,1.5,0.3,3,0.4,4.5s0.3,3.2,0.4,4.8l-0.7,10.3c-0.4,2.2-1.3,4.8-2.9,7.7c-1.6,3.1-3.2,5.6-4.8,7.5
		c-1.7,1.9-4.4,3.9-8,5.8c-1.8,1-3.5,1.8-5,2.4s-2.8,1.1-4,1.4c-1.8,0.4-3,0.7-3.4,1C268.7,127,267.3,127.2,264.8,127.2z
		 M264.3,111.5c0.3-0.6,0.8-1.3,1.7-2.2l6.5-10.9l0.8-1.5c0.2-0.3,0.3-0.9,0.4-1.8c0.1-1.4,0.2-2.6,0.2-3.7s0-2.1-0.1-3
		c-0.2-1.8-0.9-3.6-2.1-5.4c-0.6-0.8-1.1-1.7-1.5-2.5c-0.5-0.9-0.9-1.8-1.2-2.7c-0.6-1.8-1.4-2.9-2.2-3.2l-2.5-0.2h-0.4
		c-0.8,0-1.7-0.1-2.7-0.1s-1.7,0.1-2.3,0.4c-0.5,0.3-1.6,1.6-3.3,3.9s-2.7,3.9-3.1,4.8c-0.4,1-0.8,2.3-1.1,3.7s-0.6,3.2-0.8,5.2
		c-0.4,3.9-0.2,7,0.5,9.5l3.4,11.6l3.5-0.8c0.3-0.1,0.4,0,0.4,0.2s0.1,0.4,0.5,0.6s1.8,0.3,4.1,0.4L264.3,111.5z"/>
	<path id="XMLID_299_" class="st0" d="M304.7,31.3c1-0.4,1.4-0.5,1.2-0.2c-0.1,0.2,0.1,0.1,0.8-0.2c0.9-0.4,1.1-0.6,0.7-0.8
		c-0.4-0.2,1.1-0.1,4.5,0.4c0.1,1.3,0.3,1.8,0.6,1.2c0.3-0.6,1.2-0.3,2.8,0.7c1.3,0.9,2.1,1.7,2.3,2.5c0.1,0.4,0.1,0.8,0.1,1.3
		c0.6-0.6,1.1-0.6,1.7,0.1c0.4,0.5,0.8,1.2,1.1,2.1c0.3,1.1,0.4,1.6,0.2,1.5c-0.2,0-0.3,0.2-0.3,0.6c-0.1,0.4,0,1,0.5,1.8
		c0.4,0.9,0.7,1.8,0.7,2.6c0,1.2-0.1,2-0.3,2.2c-0.1,0.2-0.2,1.7-0.2,4.5l-0.6,9.4c2.4-1.6,3.9-2.8,4.5-3.8c0.6-0.9,3-2.3,7.2-4.2
		l4.1-2.1c0.8-0.5,1.7-0.8,2.7-0.9s2-0.1,2.8-0.1c0.8,0.1,1.6,0.3,2.4,0.5c0.8,0.3,1.5,0.6,2.3,1c0.7,0.4,1.5,0.9,2.4,1.4l2.3,2.1
		c0.6,0.8,0.7,1.2,0.3,1c-0.4-0.2,0.1-0.1,1.2,0.5c-0.6,1-0.7,1.4-0.5,1.2s-0.1-0.1-0.8,0.1c0.4,0.7,0.6,1,0.5,0.9
		c-0.2-0.1,0.3-0.1,1.4-0.1c-0.1,1.3-0.3,1.9-0.5,1.7s-0.6-0.2-1.4,0.1c0.3,1.2,0.6,1.7,0.9,1.5s0.3,0.4,0.1,1.8l-0.1,0.6
		c-0.4,2.2-0.6,3-0.7,2.2c-0.1-0.7-0.8-0.3-2,1.3c-0.3,0.4-0.5,0.7-0.6,1s-0.3,0.6-0.6,1c-0.5,0.7-1.1,1.1-1.7,1.3
		c-0.5,0.2-0.8,0.3-1,0.3c-0.2,0.1-0.1,0,0.1,0c0.3-0.2,0.3-0.3,0-0.3c-1,0-1.5,0-1.5,0.1c0,0.2-0.5,0.3-1.7,0.3
		c0.4,0.4,0.7,0.8,0.7,0.9c0,0.3-0.1,0.5-0.4,0.6c-0.6,0.3-1.8,0.4-3.5,0.2c-1.7-0.2-3.2-0.2-4.3,0.1c-1.3,0.3-2.8,1-4.4,2.2
		c-0.8,0.6-1.5,1.1-2.1,1.6s-1.2,1-1.7,1.4c-1.6,1.4-3.1,3.4-4.5,5.9c-0.7,1.3-1.2,2.4-1.6,3.5s-0.6,2.1-0.6,3.1
		c-0.1,1.8-0.1,3.6-0.1,5.6c0.1,1.9,0.1,3.8,0.1,5.6c0,2.3-0.2,5.5-0.5,9.4s-0.8,6.8-1.7,8.8c-0.3,0.6-0.5,1.2-0.8,1.9
		s-0.5,1.3-0.8,1.9c-0.4,0.8-0.8,1.4-1.2,1.8c-0.3,0.4-0.6,0.9-0.8,1.6l-2-0.9c-0.4-0.1-1.1-1.1-2.1-3c-0.5-0.9-0.9-1.9-1.2-2.9
		c-0.3-1-0.6-2-1-3c-0.7-1.8-1.2-4-1.4-6.6c-0.2-2.6-0.5-4.8-0.7-6.6c-0.2-1.6-0.5-3.1-0.8-4.4c-0.3-1.4-0.5-2.7-0.8-4
		s-0.5-2.5-0.8-3.7s-0.5-2.5-0.8-3.8L300.2,60c0-1.9,0-3.9-0.1-6.1s-0.4-4.6-0.7-7.2c-0.7-5.2,0.2-9.3,2.7-12.1l0.4-0.5l0.2-0.2
		c0.4-0.5,0.7-0.8,1.1-1.1l1.2-1.6V31c0,0-0.1,0-0.1-0.1v0.4H304.7z M320.3,42.9C320.3,42.9,320.3,43,320.3,42.9
		c0.1,0.1,0.1,0.1,0.1,0.1C320.5,42.9,320.4,42.8,320.3,42.9z"/>
	<path id="XMLID_302_" class="st0" d="M362.5,17.1c0.1-0.2,0.6-0.4,1.5-0.5c0.9-0.2,1.4-0.2,1.5-0.1c0,0.1,0.1,0.2,0.2,0.4
		c0.1,0.2,0.2,0.5,0.3,0.8c0.5-0.3,0.9-0.6,1.2-0.7c0.3-0.2,0.6-0.3,0.7-0.3c0.3-0.1,1.1,0.3,2.4,1.1c0.8,0.5,1.7,1.4,2.7,2.7l2.4,3
		c0.7,0.9,0.9,1.3,0.7,1.1c-0.2-0.2-0.3,0.2-0.2,1.1c0,1.1,0.3,1.9,0.8,2.6c0.5,0.6,0.8,1.4,0.8,2.4c0,1.9-0.1,3.7-0.4,5.3
		s-0.5,3.4-0.6,5.3l-1.7,24.6c0.9-0.5,2.2-1.5,3.7-3.1L382,59l1.1-1.2l5.7-5.4c0,0,0-0.1,0.1-0.1l0.1-0.1c0.7-0.7,1.5-1.4,2.3-2
		s1.7-1.3,2.5-2l5.1-4.3c1.2-1.2,3.5-3.6,6.9-7.3c3.5-3.7,6.1-5.1,7.7-4.4l-0.3-2c3.2,0,5.5,0.4,7,1.2c1.5,0.8,2.9,2.2,4.4,4.3
		c3.9,5.7,3.5,10.8-0.9,15.2c-0.2,0.2-0.4,0.5-0.6,0.7s-0.3,0.4-0.4,0.5c-0.8,0.9-1.3,1.4-1.7,1.5c-0.4,0-1,0.3-1.9,0.7
		c-1.4,0.6-2.7,1.3-4.1,2.2s-2.7,2-4.1,3.3l-9.8,8l-0.2,0.2c-1,0.9-2,1.6-2.8,2.3c-0.8,0.7-1.6,1.2-2.2,1.7
		c-1.3,0.9-1.4,2.1-0.3,3.6c3.3,4.6,5.7,8.6,7.2,12.1c1.5,3.4,3.5,7.6,6,12.6c0.9,1.7,1.7,3.4,2.6,5.1c0.9,1.6,1.8,3.3,2.8,4.9
		c2,3.3,3.5,6.8,4.4,10.5c0.6,2.3,0.7,3.7,0.3,4.1c-0.3,0.4-0.5,1.5-0.6,3.2h-2.1c-1.5,0-3.5-1.2-6-3.7c-1.2-1.3-2.3-2.4-3.1-3.3
		s-1.5-1.7-2-2.4c-0.4-0.5-0.9-1-1.3-1.3s-0.9-0.8-1.3-1.4c-0.4-0.5-0.8-0.9-1-1.4c-0.3-0.5-0.6-0.9-1-1.4l-3.3-4.3
		c-0.6-0.6-0.9-1-1-1.2c-2.3-2.8-4.4-5.7-6.2-8.9c-1.9-3.2-4.2-5.9-6.9-8.3c-0.9-0.8-1.9-1.5-2.8-2.2s-2-1.2-3.2-1.5
		c-0.4,1.3-0.8,1.8-1.4,1.7c-0.6-0.2-0.9,0.5-1,2c0,0.5,0,1.4,0,2.6c0.1,1.3,0.2,2.3,0.2,3.2c0,3-0.1,6.6-0.4,11.1
		c-0.2,4.4-0.7,7.9-1.2,10.5l-1.8,7.1c-0.1,0.2-0.1,0.3-0.1,0.3c0,0.1-0.1,0.1-0.1,0.2l-0.1,0.1l-0.7,1.4c-1.3,0-2.3-0.5-3-1.4
		c-0.5-0.7-0.6-0.9-0.5-0.8c-0.6-1-1-2-1.2-3.1c-0.2-1-0.5-2.1-0.8-3.4c-0.2-0.6-0.3-0.9-0.4-0.8c0,0-0.2-0.4-0.4-1.1
		c-0.7-1.9-1.1-3.8-1.4-5.6c-0.3-1.8-0.6-3.9-1.1-6.1l-0.9-4.2c-0.4-1.7-0.6-3.2-0.6-4.6l-0.8-0.4c-0.1,0-0.2-0.1-0.4-0.2
		c-0.1,0-0.2-0.1-0.4-0.2l-1.7-0.4c-1.1-0.4-1.7-1.2-1.7-2.4c0-2.8,0.5-4.9,1.5-6.4s1.5-3,1.3-4.4l-2.4-29.7c0-0.6,0-1.2-0.1-1.7
		c0-0.5-0.1-1-0.1-1.4s-0.1-0.9-0.1-1.3s-0.1-0.9-0.1-1.5l-2.4-18.4c0.2-2,1-3.6,2.4-4.8c0.7-0.6,1.3-1.3,2-1.9
		c0.6-0.7,1.3-1.3,1.9-2l0.2-0.2l0.7-1.1c1.1,0.4,1.4,0.6,0.9,0.5s-0.2,0,0.9,0.4L362.5,17.1z"/>
	<path id="XMLID_304_" class="st0" d="M430.2,72.6V72V72.6l0.1-0.6c0,0,0.1-0.3,0.1-0.7c0.6-4.2,2-7.3,4.1-9.3c1.1-1,2.1-2,3.2-2.9
		s2.2-1.8,3.4-2.7c3.4-2.6,8-4.4,13.7-5.3c5.8-0.9,10.7-0.8,14.8,0.4c5.9,1.9,10.5,4.9,13.7,9c2.5,3.5,3.9,6.5,4.2,9.2
		c0.3,2.7-0.6,6-2.7,9.9l-1.1,2.1c-0.3,0.6-0.4,0.9-0.4,0.9s-0.1,0.4-0.4,0.9c-0.5,0.9-1,1.5-1.4,1.7c-0.5,0.2-0.8,0.6-1.1,1.2
		c-0.9-0.6-1.2-0.9-0.9-0.9c0.3,0,0-0.1-0.9-0.2c-0.9,0-1.3,0.1-1.2,0.2c0.1,0.1-0.1-0.4-0.7-1.4l-1.4-1.7c-0.4-0.5-0.5-0.8-0.4-0.9
		c0.1,0,0.2-0.6,0.2-1.7c-1.9-0.1-3.4-1.3-4.6-3.4c-0.7-1.3-1-2-0.9-2s-0.7-0.4-2.4-1.2c-0.7-0.4-1.2-0.6-1.3-0.9
		c-0.1-0.3-0.8-0.6-2-0.9c-1.5-0.4-3.5-0.5-5.9-0.2c-2.4,0.2-4.4,0.8-6,1.6c-0.1,0-0.2,0.1-0.4,0.1s-0.4,0.2-0.6,0.3
		c-0.2,0.1-0.3,0.1-0.4,0.2c-0.1,0-0.2,0.1-0.2,0.1c-0.1,0-0.2,0.1-0.2,0.1l-1.1,0.8c-0.3,0.2-0.2,1,0.4,2.5c0.4,1.1,1.2,2.1,2.4,3
		c0.7,0.4,1.3,0.8,1.9,1.2c0.6,0.4,1.1,0.7,1.7,1c0.5,0.3,0.9,0.6,1.2,0.7c0.4,0.2,0.8,0.4,1.4,0.6c1.1,0.5,2,0.9,3,1.4
		c0.9,0.5,2,0.9,3.2,1.4l11.4,6c2.6,1.7,4.9,3.7,6.9,6.1c3.9,4.8,5.1,9.8,3.5,15.1c-1.6,5.2-5.1,9.2-10.6,11.8l-1.7,0.6l-2.8,0.9
		c-0.4,0.1-0.6,0.1-0.6,0.2c-0.1,0,0,0.1,0.2,0.1s0.2,0.1,0.1,0.1s-0.4,0-0.9,0c-5.8,0-10.5-0.3-14.2-1c-3.5-0.6-7.6-2.7-12.2-6.3
		c-0.6-0.4-1.2-1-1.8-1.7s-1.1-1.5-1.7-2.4l-2.4-4.7c-0.2-0.6-0.5-1.2-0.8-1.8c-0.3-0.6-0.6-1.3-0.8-1.9s-0.4-1.3-0.5-2
		s-0.1-1.4,0-2.1v-0.1V103c0,0,0,0,0-0.1l0.2-0.6l0.1-0.4c0-0.2,0.1-0.3,0.1-0.4s0.1-0.1,0.1-0.2s0.1-0.2,0.1-0.3s0-0.3,0-0.7
		c1.8,0,3.5,0.6,5,1.7l2.7,2.7c2.8,3.9,7,6.6,12.5,8.3c5.5,1.7,9.9,1.8,13.1,0.5c2-0.9,2.5-2.2,1.4-4c0,0-0.1-0.1-0.2-0.2
		s-0.2-0.2-0.2-0.3c-1.4-1.7-3.3-3.2-5.6-4.3c-1.1-0.6-2.2-1.1-3.3-1.6c-1-0.5-2.1-1-3-1.4c-0.2-0.1-0.4-0.2-0.5-0.2s-0.2,0-0.3-0.1
		c-0.1,0-0.2,0-0.3-0.1c-0.1,0-0.3-0.1-0.5-0.2l-7-2.8l-3.4-1.5c-1.2-0.5-2.2-1.1-3.2-1.7c-0.9-0.6-1.9-1.3-2.9-2l-5.1-4.7
		c-1.4-1.7-2.6-3.8-3.5-6.3c-0.4-1-0.6-2-0.7-3s-0.2-2-0.4-3.1L430.2,72.6z"/>
	<path id="XMLID_306_" class="st0" d="M491.9,36.4c0-0.4,0-0.7-0.1-0.9s-0.1-0.5-0.1-0.9c0-0.3,0-0.5,0-0.7s0-0.4,0-0.5
		c0.1-3-0.2-6.4-0.7-10.2c-0.6-3.9-0.7-6.4-0.5-7.4l1.1-4.2l0.3-0.5l0.2-0.7c0.1-0.1,0.1-0.2,0.1-0.2l1.2-1.2c0,0,0-0.1,0.1-0.1
		l0.1-0.1c0.4-0.4,0.5-0.6,0.2-0.6c-0.2,0-0.1,0,0.1-0.1c0.2-0.1,0.6-0.3,1.2-0.5l3.4-0.8c0.6-0.2,1-0.4,1.3-0.5s0.6-0.2,0.7-0.3
		c0.2-0.1,0.9,0,2.1,0.3c3.2,1,4.9,1.5,5.1,1.4c0.2,0,1.4,1.2,3.8,3.7l0.5,0.4l0.2,0.2c1.8,1.8,2.4,5,1.8,9.6
		c-0.5,4.5-0.8,8-0.9,10.4l-1.2,17.4c-0.1,1.1-0.2,2.2-0.3,3.2c-0.1,1-0.3,1.9-0.4,2.7c-0.2,0.8-0.3,1.7-0.4,2.7s-0.2,2.1-0.3,3.3
		c-0.2,2.6-0.5,4.4-0.9,5.3c0.9-0.2,2.2-1.4,4.1-3.6c0.9-1.1,1.8-2,2.6-2.8s1.4-1.4,2-1.9l1.7-1.4c0.7-0.6,1.7-1.3,3-1.9l2.8-1.4
		c3.5-1.1,6.4-1.6,8.9-1.5c2.6,0.1,5.4,1.1,8.5,3.2c2,1.4,3.8,3.4,5.6,6.1c1,1.6,1.8,3.3,2.4,5.3c0.6,1.9,1.2,3.7,1.6,5.4
		c0,0.3,0.1,0.6,0.2,0.8c0,0.1,0.1,0.2,0.1,0.2s0.1,0.4,0.2,1.2c0.2,1.1,0.3,2.2,0.3,3.4s0,2.4,0,3.5c0,1.2,0,2.4-0.1,3.5
		c0,1.2,0,2.3,0,3.4c0,0.4,0,0.6,0,0.7s0,0,0.1-0.2c0-0.2,0.1-0.2,0.1-0.1s0,0.4,0,0.9l-3.3,23c-0.1,0.3-0.1,0.7-0.2,1.2
		c0,0.5-0.1,1.1-0.1,1.8c-0.1,1.4-0.2,2.4-0.4,3c-0.3,0.8-0.5,1.3-0.7,1.3s-0.3,0.3-0.5,0.9s-0.3,0.9-0.2,1.1s-0.1,0.6-0.5,1.1
		l-2.5,2.4l-0.2,0.2l-0.4,0.5c-1.4,2-2.4,2.6-2.8,1.8c-0.4-0.8-0.8-0.4-1.2,1.2c-1.3-0.1-1.9-0.3-1.8-0.7c0.1-0.3-0.2-0.6-0.9-0.7
		c-0.7-0.2-0.8-0.2-0.5-0.2c0.5,0.1,0.5,0.2-0.1,0.3l-1.4-0.2c-1.2-0.2-2-0.1-2.4,0.2c-0.4,0.3-1.1-0.4-2.3-2
		c-0.2-0.3-0.3-0.5-0.4-0.5c0-0.1,0,0,0.1,0.1s0.1,0.1,0.1,0.1c-0.1-0.1-0.2-0.3-0.4-0.5c-0.3-0.3-0.5-0.4-0.5-0.5
		c-0.1-0.1-0.1,0,0.1,0.1c0.1,0.1,0.1,0.1,0.1,0.1c-0.1-0.1-0.2-0.2-0.5-0.4c-1.6-1.2-2.5-2.7-2.7-4.6c-0.2-1.3-0.1-2.3,0.3-3
		c-0.3-0.1-0.4-0.2-0.2-0.2s0.1,0-0.1,0s-0.6,0.1-1.1,0.2c0-0.8,0-1.4-0.1-1.7c-0.1-0.4-0.1-0.8-0.1-1.3l1.1-8.6
		c0.7-4.6,1.6-9.8,2.8-15.7c1.3-6,1.7-10.8,1.4-14.2c-0.1-1.1-0.1-1.9,0.1-2.3s0-1.1-0.6-2c-0.9,0.1-1.6,0.3-2.1,0.7
		c-0.5,0.3-1,0.6-1.7,1c-1.8,1.2-3.4,2.5-4.7,3.8s-2.7,2.8-4.1,4.2l-5,6.2c-0.5,0.7-0.8,1.3-1.1,1.8c-0.3,0.5-0.7,1.1-1.1,1.8
		c-0.2,0.4-0.4,0.6-0.6,0.9c-0.2,0.2-0.3,0.5-0.5,0.7c-1.5,2.7-2.8,5.8-4,9.3c-0.6,1.8-1.1,3.5-1.4,5.1s-0.5,3.1-0.5,4.6
		c0,3.9-0.4,7.2-1.2,9.9c-0.2,0.7-0.3,1.3-0.4,1.8s-0.2,1-0.4,1.5c-0.1,0.5-0.3,0.9-0.5,1.4s-0.5,1-0.9,1.5l-0.1,0.1
		c0,0,0,0.1-0.1,0.2c-0.9-0.2-1.7-0.7-2.2-1.3l-3.8-6.5c-1.3-2.8-2.2-7-2.6-12.6l-0.9-13.9l0.5-19.5c0.5-4.1,0.7-8.2,0.6-12.3
		s-0.1-8.2-0.1-12.1v-6.8c0-0.8,0-1.5,0-2c0-0.6,0-1.1-0.1-1.5c0-0.3-0.1-0.6-0.1-0.8s0-0.4,0-0.6c0-0.1,0-0.2,0.1-0.4
		c0-0.1,0-0.2,0-0.3C491.9,36.6,491.9,36.5,491.9,36.4z M491.8,10.7c0-0.2,0-0.2,0.1-0.1L491.8,10.7z M503,6.1L503,6.1L503,6.1
		L502.9,6L503,6.1z M512,12.8c0,0,0,0.1,0.1,0.1l0.1,0.1L512,12.8z M530.2,123.1C530.2,123.1,530.2,123.2,530.2,123.1l0.2,0.2
		L530.2,123.1z"/>
	<path id="XMLID_312_" class="st0" d="M586.1,127.2c-1.3,0-2-0.1-2.2-0.2c-0.1-0.1-1.3-0.2-3.6-0.3c-1.5,0-3.2-0.5-5-1.6
		c-3.7-2-6.8-4-9.3-6.2c-2.4-2.1-4.5-5.3-6.3-9.4c-2.2-5.1-3.5-11.1-4-18.1c-0.5-7.1,0.4-13.3,2.7-18.6c0.6-1.3,1.1-2.5,1.5-3.6
		s0.9-2.2,1.2-3.1c0.4-0.9,0.9-2,1.6-3.1s1.4-2.3,2.4-3.6l2-2.1l0.2-0.2l5.3-4c2.5-1.7,6.3-2.7,11.2-2.9s8.7,0.2,11.3,1.1
		c3.4,1.3,5,2,4.8,2.1s0.4,0.5,1.9,1.2c0.3,0.2,0.5,0.3,0.5,0.3c0.1,0,0,0-0.1-0.1c-0.2-0.1,0-0.1,0.5,0.1c0.2,0.2,0.5,0.4,0.6,0.4
		l2.9,2.9c0.4,0.4,0.8,0.8,1.1,1.2c0.3,0.3,0.5,0.6,0.7,0.9c0.5,0.6,1,1.4,1.5,2.5l4.9,8.9c2.1,3.3,3.3,6.5,3.6,9.4
		c0.2,1.5,0.3,3,0.4,4.5s0.3,3.2,0.4,4.8l-0.7,10.3c-0.4,2.2-1.3,4.8-2.9,7.7c-1.6,3.1-3.2,5.6-4.8,7.5c-1.7,1.9-4.4,3.9-8,5.8
		c-1.8,1-3.5,1.8-5,2.4s-2.8,1.1-4,1.4c-1.8,0.4-3,0.7-3.4,1C590,127,588.5,127.2,586.1,127.2z M585.5,111.5
		c0.3-0.6,0.8-1.3,1.7-2.2l6.5-10.9l0.8-1.5c0.2-0.3,0.3-0.9,0.4-1.8c0.1-1.4,0.2-2.6,0.2-3.7s0-2.1-0.1-3c-0.2-1.8-0.9-3.6-2.1-5.4
		c-0.6-0.8-1.1-1.7-1.5-2.5c-0.5-0.9-0.9-1.8-1.2-2.7c-0.6-1.8-1.4-2.9-2.2-3.2l-2.5-0.2h-0.3c-0.8,0-1.7-0.1-2.7-0.1
		s-1.7,0.1-2.3,0.4c-0.5,0.3-1.6,1.6-3.3,3.9s-2.7,3.9-3.1,4.8c-0.4,1-0.8,2.3-1.1,3.7s-0.6,3.2-0.8,5.2c-0.4,3.9-0.2,7,0.5,9.5
		l3.4,11.6l3.5-0.8c0.3-0.1,0.4,0,0.4,0.2s0.1,0.4,0.5,0.6s1.8,0.3,4.1,0.4L585.5,111.5z"/>
	<path id="XMLID_315_" class="st0" d="M621.7,77.6c0-1.2-0.2-4.1-0.7-8.8c-0.5-4.6-0.7-8-0.6-10.3c0.1-1.8,0.5-3.7,1.1-5.7
		s1.5-3.6,2.7-4.7l0.8-0.6l0.2-0.2c0.1,0,0.2-0.1,0.2-0.1s0,0,0-0.1c0,0,0-0.1,0.1-0.1c0.1-0.1,0.2-0.1,0.5-0.3
		c0.4-0.2,0.6-0.3,0.6-0.3s0.2-0.1,0.6-0.3l2.1-1.9c0.7,0.2,1.1,0.4,1.2,0.5c0.1,0.1-0.1,0.1-0.6,0s-0.7-0.1-0.6,0
		c0.1,0.1,0.6,0.2,1.3,0.4c1.1-1.1,2.1-1.3,2.9-0.8c0.4,0.3,0.8,0.5,1.2,0.8c0.4,0.2,0.9,0.5,1.4,0.7c0.8,0.4,1.4,0.6,1.8,0.4
		c0.4-0.2,0.9,0.4,1.7,1.9l0.4,1v0.1c0,0,0,0.1,0.1,0.1c0.1,0.2,0.2,0.4,0.4,0.7c0.4,0.6,0.6,0.9,0.7,0.8c0.2,0,0.4,0.3,0.6,1
		c2-1,5.8-1.1,11.2-0.4c5.5,0.8,8.9,1.5,10.2,2c2.4,1.1,3.3,1.5,2.8,1.1c-0.2-0.2,0-0.1,0.5,0.2c0.6,0.3,1.5,0.9,2.8,1.8
		s2.5,1.8,3.8,2.7c1.2,0.9,2.2,2,3.1,3.3l0.5,0.9c0.1,0.3,0.2,0.4,0.2,0.4s0.1,0.2,0.3,0.4l3,5.4c1.3,2.9,2.2,4.7,2.7,5.5
		c0.4,0.7,1,2.9,1.7,6.7c0.4,2.3,0.6,4.5,0.6,6.4s-0.1,3.7-0.4,5.4c-0.6,3.3-2,7.2-4.3,11.9c-1.1,2.3-2,3.9-2.5,4.8
		s-0.7,1.2-0.6,0.9c0.3-0.7-0.7,0.5-3,3.7l-0.4,0.9c-0.4,0.8-0.9,1.6-1.5,2.4s-1.3,1.5-2,2.2s-1.5,1.3-2.3,1.9s-1.6,1.1-2.3,1.5
		l-4,1.8c-0.7,0.3-1.3,0.5-1.8,0.7s-1.2,0.4-2.1,0.7c-3.6,1.1-7,0.9-10.1-0.4s-5.5-2.1-7-2.5c0,1.1-0.1,1.8-0.2,2.2
		c-0.1,0.4-0.2,1.1-0.2,2.2l-2.2,18.2c0,0.4-0.1,0.8-0.3,1.4c-0.1,0.6-0.3,1.4-0.5,2.3s-0.4,1.6-0.6,2.2c-0.2,0.6-0.3,1-0.4,1.2
		c-1.3-0.1-2.4-1-3.5-2.7c-0.4-0.6-0.8-1.1-1.2-1.7s-0.8-1.2-1.1-1.8c-1.9-3.5-3.1-8.8-3.4-15.7c-0.3-6.8-0.6-11.8-1.1-15l-1.6-20.2
		c-0.1-0.9-0.1-1.9-0.1-2.8c0.1-0.9,0-1.9-0.1-2.8c-0.1-0.6-0.3-1.4-0.4-2.4c-0.2-1-0.3-1.9-0.3-2.7l-0.3-3.2c0-0.5-0.4-1.5-1-3
		c-0.3-0.6-0.5-1-0.6-1.3s-0.1-0.3,0-0.3C621.7,78.9,621.7,78.5,621.7,77.6z M649.7,109.3c0.9,0,2-0.5,3.3-1.4
		c0.6-0.5,1.2-1,1.7-1.4s0.9-0.8,1.2-1.2l3-5l0.7-2.9c0.4-1.5,0.7-3,0.9-4.4s0.3-2.8,0.3-4.2c0-1.4-0.2-2.8-0.6-4.1
		c-0.4-1.4-0.9-2.8-1.7-4.2c-0.3-0.7-0.8-1.4-1.4-2.2c-0.5-0.7-1.2-1.3-2-1.7c-1.8-0.7-3.7-1.1-5.7-1.2c-2.1-0.1-3.7,0.8-5,2.5
		c-1.1,1.6-1.6,3-1.6,4.2l-0.7,21.6l2.5,3.2c1.1,1.2,1.8,1.9,2.1,2.1C647.3,109.2,648.2,109.3,649.7,109.3z"/>
	<path id="XMLID_318_" class="st0" d="M684.8,72.6V72V72.6l0.1-0.6c0,0,0.1-0.3,0.1-0.7c0.6-4.2,1.9-7.3,4.1-9.3
		c1.1-1,2.1-2,3.2-2.9c1.1-0.9,2.2-1.8,3.4-2.7c3.4-2.6,8-4.4,13.7-5.3c5.8-0.9,10.7-0.8,14.8,0.4c5.9,1.9,10.5,4.9,13.7,9
		c2.5,3.5,3.9,6.5,4.2,9.2s-0.6,6-2.7,9.9l-1.1,2.1c-0.3,0.6-0.4,0.9-0.4,0.9s-0.1,0.4-0.4,0.9c-0.5,0.9-1,1.5-1.4,1.7
		c-0.5,0.2-0.8,0.6-1.1,1.2c-0.9-0.6-1.2-0.9-0.9-0.9s0-0.1-0.9-0.2c-0.9,0-1.3,0.1-1.2,0.2s-0.1-0.4-0.7-1.4l-1.4-1.7
		c-0.4-0.5-0.5-0.8-0.4-0.9c0.1,0,0.2-0.6,0.2-1.7c-1.9-0.1-3.4-1.3-4.6-3.4c-0.7-1.3-1-2-0.9-2s-0.7-0.4-2.4-1.2
		c-0.7-0.4-1.2-0.6-1.3-0.9s-0.8-0.6-2-0.9c-1.5-0.4-3.5-0.5-5.8-0.2c-2.4,0.2-4.4,0.8-6,1.6c-0.1,0-0.2,0.1-0.4,0.1
		c-0.2,0.1-0.4,0.2-0.7,0.3c-0.2,0.1-0.3,0.1-0.4,0.2c-0.1,0-0.2,0.1-0.2,0.1c-0.1,0-0.2,0.1-0.2,0.1l-1.1,0.8
		c-0.3,0.2-0.2,1,0.4,2.5c0.4,1.1,1.2,2.1,2.4,3c0.7,0.4,1.3,0.8,1.9,1.2c0.6,0.4,1.1,0.7,1.7,1c0.5,0.3,0.9,0.6,1.2,0.7
		c0.4,0.2,0.8,0.4,1.4,0.6c1.1,0.5,2,0.9,3,1.4c0.9,0.5,2,0.9,3.2,1.4l11.4,6c2.6,1.7,4.9,3.7,6.9,6.1c3.9,4.8,5.1,9.8,3.5,15.1
		c-1.6,5.2-5.1,9.2-10.6,11.8l-1.7,0.6l-2.8,0.9c-0.4,0.1-0.6,0.1-0.6,0.2c-0.1,0,0,0.1,0.2,0.1s0.2,0.1,0.1,0.1s-0.4,0-0.9,0
		c-5.8,0-10.5-0.3-14.2-1c-3.5-0.6-7.6-2.7-12.2-6.3c-0.6-0.4-1.2-1-1.8-1.7s-1.1-1.5-1.7-2.4l-2.4-4.7c-0.2-0.6-0.5-1.2-0.8-1.8
		c-0.3-0.6-0.6-1.3-0.8-1.9s-0.4-1.3-0.5-2s-0.1-1.4,0-2.1v-0.1V103c0,0,0,0,0-0.1l0.2-0.6l0.1-0.4c0-0.2,0.1-0.3,0.1-0.4
		s0.1-0.1,0.1-0.2s0.1-0.2,0.1-0.3s0-0.3,0-0.7c1.8,0,3.5,0.6,5,1.7l2.7,2.7c2.8,3.9,7,6.6,12.5,8.3c5.5,1.7,9.9,1.8,13.1,0.5
		c2-0.9,2.5-2.2,1.4-4c0,0-0.1-0.1-0.2-0.2c-0.1-0.1-0.2-0.2-0.2-0.3c-1.4-1.7-3.3-3.2-5.6-4.3c-1.1-0.6-2.2-1.1-3.3-1.6
		c-1-0.5-2.1-1-3-1.4c-0.2-0.1-0.4-0.2-0.5-0.2s-0.2,0-0.3-0.1c-0.1,0-0.2,0-0.3-0.1c-0.1,0-0.3-0.1-0.5-0.2l-7-2.8l-3.4-1.5
		c-1.2-0.5-2.2-1.1-3.2-1.7c-0.9-0.6-1.9-1.3-2.9-2l-5.1-4.7c-1.4-1.7-2.6-3.8-3.5-6.3c-0.4-1-0.6-2-0.7-3c-0.1-1-0.2-2-0.4-3.1
		L684.8,72.6z"/>
</g>
</svg>
