<?xml version="1.0" encoding="iso-8859-1"?>
<!-- Generator: Adobe Illustrator 19.2.1, SVG Export Plug-In . SVG Version: 6.00 Build 0)  -->
<svg version="1.1" id="Layer_1" xmlns="http://www.w3.org/2000/svg" xmlns:xlink="http://www.w3.org/1999/xlink" x="0px" y="0px"
	 viewBox="0 0 2000 1000" style="enable-background:new 0 0 2000 1000;" xml:space="preserve">
<g>
	<defs>
		<path id="SVGID_1_" d="M702.227,342.503c-38.836,10.738-67.363,46.307-67.363,88.557c0,50.757,41.142,91.896,91.896,91.896
			c7.994,0,15.749-1.022,23.14-2.94c16.054,26.814,45.374,44.77,78.898,44.77c17.193,0,33.276-4.733,47.039-12.95
			c10.279,14.908,27.019,25.009,46.177,26.269c10.965,30.041,39.788,51.486,73.622,51.486c43.272,0,78.35-35.077,78.35-78.352
			c0-6.02-0.701-11.875-1.986-17.506c26.184-10.318,45.082-39.713,45.082-74.39c0-43.27-29.42-78.348-65.713-78.348
			s-65.714,35.077-65.714,78.348c0,4.804,0.384,9.501,1.077,14.067c-5.216,0.589-10.278,1.688-15.131,3.253
			c-8.127-9.107-18.946-15.755-31.207-18.703c6.891-16.035,10.721-33.69,10.721-52.248c0-73.156-59.304-132.459-132.457-132.459
			C768.393,273.253,724.668,301.252,702.227,342.503"/>
	</defs>
	<clipPath id="SVGID_2_">
		<use xlink:href="#SVGID_1_"  style="overflow:visible;"/>
	</clipPath>
	<path style="clip-path:url(#SVGID_2_);fill:#5D2D7B;" d="M953.538,617.651c23.818,31.103,68.341,37.01,99.445,13.193
		c31.102-23.82,37.008-68.341,13.191-99.444c-23.818-31.102-68.339-37.011-99.443-13.192
		C935.628,542.025,929.721,586.548,953.538,617.651"/>
	<path style="clip-path:url(#SVGID_2_);fill:#5D2D7B;" d="M560.819,474.477c0,62.366,50.557,112.922,112.923,112.922
		c62.366,0,112.923-50.557,112.923-112.922c0-62.366-50.557-112.923-112.923-112.923
		C611.376,361.554,560.819,412.111,560.819,474.477"/>
	<path style="clip-path:url(#SVGID_2_);fill:#5D2D7B;" d="M1019.158,532.829c25.838,33.744,74.139,40.151,107.879,14.313
		c33.744-25.838,40.15-74.139,14.313-107.879c-25.838-33.744-74.139-40.151-107.879-14.312
		C999.726,450.788,993.319,499.087,1019.158,532.829"/>
	<path style="clip-path:url(#SVGID_2_);fill:#6F3B91;" d="M907.803,545.466c0,37.103,30.076,67.182,67.18,67.182
		c37.103,0,67.179-30.078,67.179-67.182c0-37.102-30.076-67.18-67.179-67.18C937.879,478.286,907.803,508.364,907.803,545.466"/>
	<path style="clip-path:url(#SVGID_2_);fill:#6F3B91;" d="M743.22,518.335c0,59.221,48.009,107.23,107.231,107.23
		c59.221,0,107.23-48.01,107.23-107.23c0-59.222-48.01-107.232-107.23-107.232C791.229,411.103,743.22,459.113,743.22,518.335"/>
	<path style="clip-path:url(#SVGID_2_);fill:#6F3B91;" d="M522.471,314.333c0,59.222,48.01,107.232,107.231,107.232
		c59.221,0,107.231-48.01,107.231-107.232c0-59.22-48.01-107.23-107.231-107.23C570.481,207.103,522.471,255.113,522.471,314.333"/>
	<path style="clip-path:url(#SVGID_2_);fill:#5D2D7B;" d="M689.47,288.226c0,22.403,18.16,40.562,40.562,40.562
		c22.4,0,40.56-18.159,40.56-40.562c0-22.402-18.16-40.562-40.56-40.562C707.629,247.664,689.47,265.824,689.47,288.226"/>
	<path style="clip-path:url(#SVGID_2_);fill:#6F3B91;" d="M730.03,247.665c0,22.402,18.16,40.562,40.562,40.562
		c22.4,0,40.56-18.16,40.56-40.562c0-22.402-18.16-40.562-40.56-40.562C748.19,207.103,730.03,225.263,730.03,247.665"/>
	<path style="clip-path:url(#SVGID_2_);fill:#5D2D7B;" d="M802.53,282.207c0,26.464,21.454,47.918,47.919,47.918
		c26.467,0,47.922-21.454,47.922-47.918c0-26.466-21.455-47.92-47.922-47.92C823.984,234.287,802.53,255.741,802.53,282.207"/>
</g>
<g id="back_1_">
	<path id="back" style="fill:#ECE0DB;" d="M1231.747,334.713c0,4.9-3.973,8.872-8.871,8.872c-4.9,0-8.875-3.972-8.875-8.872
		s3.975-8.872,8.875-8.872C1227.774,325.841,1231.747,329.813,1231.747,334.713"/>
	<path id="back2" style="fill:#D52147;" d="M1170.691,291.017c0,5.251-4.258,9.507-9.508,9.507c-5.248,0-9.506-4.256-9.506-9.507
		c0-5.251,4.258-9.508,9.506-9.508C1166.434,281.509,1170.691,285.766,1170.691,291.017"/>
	<path id="back4" style="fill:#00A69C;" d="M1048.057,221.619c0,4.202-3.406,7.604-7.604,7.604c-4.201,0-7.605-3.402-7.605-7.604
		c0-4.201,3.404-7.605,7.605-7.605C1044.65,214.014,1048.057,217.417,1048.057,221.619"/>
	<path id="back3" style="fill:#6F3B91;" d="M1101.139,249.504c0,3.677-2.98,6.655-6.654,6.655c-3.678,0-6.656-2.978-6.656-6.655
		c0-3.676,2.979-6.654,6.656-6.654C1098.158,242.85,1101.139,245.829,1101.139,249.504"/>
	<path id="back5" style="fill:#00A69C;" d="M941.9,238.097c0,2.624-2.127,4.753-4.754,4.753c-2.623,0-4.753-2.129-4.753-4.753
		c0-2.625,2.13-4.754,4.753-4.754C939.773,233.343,941.9,235.472,941.9,238.097"/>
</g>
<g id="Stable">
	<g>
		<path style="fill:#5D2D7B;" d="M627.464,653.808c3.44-0.623,6.129-0.844,8.069-0.65c1.938,0.181,3.611,0.609,5.02,1.262
			c1.406,0.658,2.704,1.426,3.894,2.297c1.186,0.881,2.689,2.24,4.502,4.085c1.812,1.847,2.875,3.673,3.19,5.491
			c0.31,1.81,0.31,3.08,0,3.801c-0.315,0.715-0.862,1.905-1.642,3.559c-0.783,1.661-1.769,1.769-2.957,0.334
			c-1.186-1.443-2.547-3.178-4.078-5.212c-1.535-2.03-3.786-3.454-6.756-4.267c-2.972-0.815-5.755-0.984-8.35-0.517
			c-2.597,0.467-5.6,1.643-9.006,3.519c-3.411,1.875-7.334,5.503-11.773,10.884c-4.443,5.378-7.648,9.677-9.619,12.901
			c-1.972,3.223-3.647,7.549-5.02,12.992c-1.378,5.442-1.048,10.369,0.984,14.774c2.033,4.41,4.909,7.603,8.632,9.573
			c3.722,1.972,7.725,0.949,12.011-3.05c4.282-4.001,8.472-8.833,12.571-14.496c4.095-5.663,7.799-8.143,11.117-7.46
			c3.313,0.688,4.469,2.551,3.471,5.586c-1.002,3.032-1.972,7.501-2.909,13.414c-0.938,5.911-1.829,11.288-2.675,16.138
			c-0.842,4.846-3.096,7.234-6.753,7.178c-3.66-0.067-4.287-4.003-1.875-11.824c2.407-7.817,2.358-10.35-0.141-7.599
			c-2.504,2.755-5.175,5.223-8.021,7.413c-2.847,2.19-5.536,3.534-8.069,4.03c-2.532,0.506-6.019,0.314-10.462-0.565
			c-4.44-0.871-8.803-3.981-13.085-9.33c-4.287-5.347-6.069-11.271-5.348-17.776c0.717-6.503,2.094-12.089,4.128-16.749
			c2.03-4.661,4.987-9.696,8.865-15.108c3.877-5.405,7.771-9.942,11.68-13.598c3.907-3.663,7.426-6.257,10.555-7.788
			C620.742,655.517,624.022,654.438,627.464,653.808"/>
		<path style="fill:#5D2D7B;" d="M650.544,708.132c2.249-8.688,4.422-12.945,6.52-12.76c2.094,0.189,3.671,1.125,4.737,2.818
			c1.061,1.684,0.953,3.768-0.331,6.236c-1.28,2.47-1.406,3.629-0.374,3.475c1.033-0.16,2.393-0.783,4.08-1.883
			c1.692-1.091,3.298-1.971,4.833-2.624c1.531-0.659,2.77-1.081,3.707-1.27c0.938-0.184,2.732,0.131,5.392,0.943
			c2.661,0.814,5.176,1.955,7.553,3.421c2.378,1.472,5.522,1.597,9.43,0.379c3.909-1.224,3.487-0.811-1.267,1.218
			c-4.751,2.036-9.617,2.987-14.587,2.86c-4.973-0.124-8.821,0.47-11.537,1.788c-2.722,1.31-5.023,2.767-6.898,4.36
			c-1.878,1.592-3.612,4.223-5.207,7.878c-1.595,3.662-2.815,6.742-3.658,9.242c-0.846,2.504-1.598,4.552-2.253,6.143
			c-0.655,1.597-2.003,2.438-4.033,2.533c-2.032,0.095-3.378-0.641-4.037-2.201c-0.655-1.567-0.81-2.583-0.47-3.053
			c0.344-0.468,1.286-3.328,2.819-8.583C646.494,723.802,648.354,716.827,650.544,708.132"/>
		<path style="fill:#5D2D7B;" d="M718.188,695.465c1.44-0.372,3.014-0.431,4.737-0.183c1.72,0.248,3.098,0.781,4.127,1.59
			c1.033,0.813,2.019,2.411,2.957,4.786c0.937,2.378,0.516,3.977-1.269,4.787c-1.781,0.815-3.393,0.53-4.83-0.849
			c-1.44-1.371-2.942-1.655-4.503-0.841c-1.564,0.811-3.115,1.644-4.644,2.484c-1.535,0.845-3.428,2.174-5.674,3.989
			c-2.254,1.812-4.569,4.128-6.945,6.939c-2.378,2.814-3.691,4.612-3.938,5.397c-0.251,0.783,0.358,0.67,1.827-0.325
			c1.47-1.005,3.722-2.52,6.756-4.555c3.034-2.03,6.849-4.111,11.448-6.236c4.596-2.125,7.506-2.958,8.724-2.488
			c1.221,0.47,2.266,1.33,3.145,2.583c0.873,1.249,1.374,2.333,1.498,3.233c0.125,0.91-0.016,1.626-0.421,2.161
			c-0.407,0.528-0.876,1.734-1.408,3.608c-0.532,1.874-0.483,3.691,0.139,5.441c0.626,1.754,1.427,2.958,2.395,3.617
			c0.969,0.652,2.298,0.842,3.986,0.558c1.688-0.28,3.766-1.561,6.238-3.848c2.471-2.278,2.36-1.75-0.326,1.597
			c-2.691,3.349-4.816,5.474-6.381,6.383c-1.563,0.905-2.784,1.346-3.658,1.31c-0.876-0.029-2.019-0.307-3.426-0.842
			c-1.406-0.535-2.736-1.359-3.984-2.486c-1.253-1.129-2.238-2.499-2.957-4.125c-0.719-1.628-1.205-2.832-1.454-3.617
			c-0.251-0.783-0.831-1.644-1.738-2.579c-0.908-0.938-2.013-1.14-3.33-0.607c-1.315,0.528-3.611,1.983-6.894,4.365
			c-3.285,2.371-6.352,4.326-9.193,5.854c-2.848,1.538-5.396,2.602-7.647,3.195c-2.25,0.594-3.704,0.795-4.364,0.611
			c-0.657-0.189-1.376-0.896-2.157-2.113c-0.781-1.217-1.234-2.544-1.359-3.987c-0.126-1.435,0.077-2.89,0.608-4.364
			c0.534-1.466,2.534-4.408,6.004-8.813c3.473-4.412,6.817-8.026,10.04-10.84c3.221-2.814,6.646-5.205,10.273-7.177
			C714.212,697.11,716.747,695.905,718.188,695.465"/>
		<path style="fill:#5D2D7B;" d="M777.387,698.659c0.689-0.564,1.531-0.83,2.535-0.803c1,0.035,1.874,0.41,2.626,1.129
			c0.752,0.718,1.69,1.643,2.813,2.764c1.129,1.129,2.689,1.867,4.692,2.208c2,0.346,5.378,0.062,10.131-0.849
			c4.752-0.898,4.724-0.727-0.095,0.52c-4.816,1.25-8.803,2.253-11.958,3.003c-3.161,0.754-5.568,1.971-7.226,3.662
			c-1.657,1.686-3.552,3.845-5.677,6.469c-2.127,2.631-4.564,6.009-7.318,10.134c-2.751,4.13-4.567,6.945-5.44,8.445
			c-0.877,1.503-2.004,2.754-3.378,3.752c-1.378,1.003-2.879,1.127-4.501,0.373c-1.63-0.747-2.817-1.874-3.567-3.376
			c-0.752-1.504-1.186-3.254-1.312-5.252c-0.128-2.003-0.75-4.633-1.88-7.885c-1.123-3.247-2.482-6.374-4.08-9.38
			c-1.593-3.003-1.968-5.252-1.125-6.753c0.847-1.502,2.142-2.38,3.894-2.628c1.75-0.249,3.249,0.372,4.502,1.874
			c1.253,1.501,2.439,3.865,3.567,7.087c1.123,3.216,1.843,5.659,2.156,7.318c0.313,1.657,0.939,2.172,1.875,1.545
			c0.94-0.626,3.848-4.25,8.727-10.882c4.878-6.629,7.597-10.237,8.161-10.835C776.076,699.703,776.698,699.157,777.387,698.659"/>
		<path style="fill:#5D2D7B;" d="M800.842,694.528c1.374-0.308,2.955-0.222,4.735,0.284c1.785,0.499,2.096,2.316,0.94,5.437
			c-1.158,3.13-2.426,7.194-3.799,12.198c-1.379,5.006-2.676,9.07-3.894,12.197c-1.221,3.13-2.58,5.835-4.081,8.115
			c-1.503,2.285-2.941,3.519-4.314,3.703c-1.378,0.189-2.331,0.145-2.863-0.136c-0.532-0.284-0.578-1.738-0.141-4.364
			c0.44-2.629,1.363-6.647,2.769-12.056c1.408-5.412,2.737-10.12,3.988-14.119c1.251-4.001,1.265-6.054,0.046-6.144
			c-1.221-0.095-0.752-0.899,1.406-2.393C797.793,695.751,799.527,694.842,800.842,694.528 M815.853,666.101
			c1.373,1.129,2.205,3.58,2.487,7.367c0.278,3.782,1.58,7.472,3.89,11.07c2.316,3.596,5.039,6.458,8.167,8.583
			c3.122,2.124,5.986,3.626,8.582,4.505c2.595,0.873,2.516,1.079-0.236,0.611c-2.751-0.477-5.487-1.566-8.208-3.289
			c-2.721-1.717-5.644-4.281-8.772-7.693c-3.128-3.404-5.41-5.911-6.848-7.504c-1.438-1.594-2.456-2.482-3.049-2.673
			c-0.594-0.185-1.097-0.329-1.499-0.425c-0.41-0.094-1.348-0.715-2.816-1.873c-1.47-1.156-2.004-2.584-1.595-4.268
			c0.407-1.691,0.953-2.938,1.641-3.754c0.69-0.813,1.891-1.422,3.612-1.833C812.926,664.524,814.475,664.917,815.853,666.101"/>
		<path style="fill:#5D2D7B;" d="M832.455,674.827c0.751-0.871,1.937-1.254,3.567-1.127c1.625,0.131,2.813,0.628,3.563,1.502
			c0.752,0.878,1.375,1.94,1.878,3.192c0.501,1.247,0.407,2.564-0.282,3.936c-0.688,1.376-1.346,3.175-1.968,5.395
			c-0.627,2.222-1.44,5.335-2.439,9.339c-1.004,3.999-0.939,6.254,0.184,6.754c1.127,0.498,3.064,1.002,5.817,1.504
			c2.751,0.496,7.144,0.685,13.182,0.56c6.034-0.122,5.706,0.316-0.986,1.314c-6.693,1.002-11.65,1.91-14.869,2.716
			c-3.223,0.816-5.348,1.398-6.382,1.741c-1.029,0.346-2.784,3.815-5.253,10.411c-2.471,6.6-4.097,10.992-4.878,13.182
			c-0.784,2.19-1.612,3.658-2.488,4.412c-0.874,0.748-2,1.313-3.376,1.685c-1.375,0.38-2.626,0.316-3.753-0.183
			c-1.123-0.501-1.11-2.536,0.048-6.103c1.154-3.561,2.733-7.787,4.736-12.66c1.999-4.88,3.096-7.912,3.285-9.106
			c0.188-1.186-0.626-1.626-2.44-1.31c-1.815,0.314-3.424,0.485-4.832,0.515c-1.408,0.029-2.098-0.842-2.065-2.628
			c0.033-1.781,1.172-3.235,3.424-4.365c2.255-1.119,4.254-1.695,6.005-1.733c1.75-0.027,3.315-2.466,4.69-7.315
			c1.376-4.846,2.187-8.068,2.44-9.664c0.249-1.59,0.656-3.769,1.22-6.518C831.049,677.517,831.707,675.706,832.455,674.827"/>
		<path style="fill:#5D2D7B;" d="M879.65,702.315c1.185-1.253,2.594-1.655,4.225-1.217c1.622,0.434,2.778,1.156,3.468,2.154
			c0.688,1.002,0.923,2.036,0.702,3.1c-0.219,1.062-0.263,3.015-0.139,5.864c0.125,2.843-0.11,6.927-0.702,12.24
			c-0.598,5.317-1.173,9.757-1.736,13.324c-0.565,3.56-1.849,7.675-3.848,12.333c-2.003,4.66-4.629,9.041-7.88,13.137
			c-3.251,4.096-7.085,7.664-11.493,10.696c-4.41,3.032-8.333,5.281-11.774,6.753c-3.44,1.475-6.162,2.364-8.161,2.672
			c-2.003,0.313-3.94,0.313-5.818,0c-1.878-0.308-3.501-1.667-4.878-4.076c-1.374-2.411-0.717-5.911,1.97-10.506
			c2.688-4.602,3.144-4.832,1.359-0.707c-1.78,4.123-0.75,6.426,3.096,6.896c3.848,0.47,7.115-0.016,9.806-1.454
			c2.688-1.442,5.816-3.626,9.382-6.57c3.563-2.938,6.301-5.484,8.209-7.646c1.906-2.154,4-5.329,6.286-9.519
			c2.282-4.191,4.032-8.946,5.251-14.264c1.222-5.313,1.91-9.253,2.067-11.818c0.154-2.564,0.187-4.048,0.092-4.457
			c-0.092-0.404-0.67-0.232-1.736,0.515c-1.063,0.75-2.173,1.753-3.329,3.004c-1.158,1.253-2.407,2.454-3.753,3.61
			c-1.348,1.158-3.424,2.784-6.237,4.879c-2.817,2.096-5.162,3.175-7.036,3.24c-1.881,0.062-3.709-0.284-5.492-1.032
			c-1.78-0.756-3.097-1.912-3.938-3.473c-0.847-1.56-1.268-3.359-1.268-5.397c0-2.029,0.154-3.5,0.467-4.409
			c0.313-0.908,1.158-3.893,2.537-8.958c1.373-5.066,2.89-7.959,4.547-8.677c1.659-0.718,2.969-1.052,3.94-0.985
			c0.969,0.06,1.736,0.606,2.299,1.638c0.563,1.034,0.499,2.299-0.185,3.8c-0.689,1.502-1.566,4.035-2.627,7.603
			c-1.065,3.561-1.487,6.315-1.267,8.258c0.216,1.933,1.092,2.61,2.625,2.012c1.532-0.594,2.987-1.409,4.362-2.439
			c1.376-1.027,2.643-2.186,3.799-3.469c1.158-1.282,3.303-4.063,6.43-8.352C876.396,706.335,878.526,703.569,879.65,702.315"/>
		<path style="fill:#5D2D7B;" d="M899.392,670.737c0.694-0.654,1.54-1.074,2.544-1.26c1.001-0.176,1.833-0.123,2.488,0.168
			c0.655,0.291,1.211,0.813,1.668,1.558c0.459,0.745,1.593,1.102,3.42,1.065c1.822-0.035,4.093-0.025,6.808,0.027
			c2.719,0.057,2.143,0.141-1.721,0.246c-3.867,0.115-6.064,0.267-6.592,0.47c-0.529,0.194-0.748,0.843-0.656,1.939
			c0.09,1.093,0.164,2.249,0.22,3.473c0.053,1.224,0.061,2.583,0.028,4.073c-0.038,1.495-0.146,2.61-0.331,3.336
			c-0.181,0.729-0.454,1.496-0.818,2.296c-0.366,0.808-0.902,1.65-1.615,2.547c-0.709,0.897-1.586,1.721-2.623,2.485
			c-1.044,0.766-1.999,1.342-2.875,1.724c-0.874,0.384-1.821,0.401-2.841,0.059c-1.023-0.351-1.852-0.895-2.491-1.644
			c-0.638-0.748-1.148-1.52-1.529-2.321c-0.384-0.8-0.549-2.208-0.496-4.214c0.059-2.007,0.275-3.621,0.657-4.841
			c0.384-1.22,0.976-2.497,1.778-3.825c0.803-1.336,1.043-1.955,0.712-1.865c-0.328,0.096-0.409,0.048-0.247-0.137
			c0.164-0.18,0.793-0.967,1.889-2.352C897.859,672.364,898.736,671.361,899.392,670.737 M902.127,679.327
			c-0.803-0.984-1.803-0.713-3.01,0.817c-1.2,1.533-1.922,3.159-2.159,4.868c-0.238,1.717-0.146,2.92,0.271,3.608
			c0.421,0.695,0.858,1.097,1.316,1.206c0.453,0.112,1.101-0.189,1.939-0.904c0.839-0.711,1.524-2.248,2.052-4.623
			C903.067,681.933,902.93,680.275,902.127,679.327"/>
		<path style="fill:#5D2D7B;" d="M934.071,643.006c1.715-1.021,3.129-1.31,4.238-0.872c1.112,0.434,2.06,1.039,2.847,1.805
			c0.783,0.766,1.384,1.587,1.803,2.463c0.419,0.872,0.319,1.838-0.298,2.894c-0.622,1.057-1.224,1.33-1.81,0.82
			c-0.582-0.508-1.372-0.986-2.376-1.418c-1.004-0.44-1.915-0.35-2.737,0.273c-0.819,0.618-1.76,1.787-2.816,3.494
			c-1.057,1.717-2.296,4.103-3.718,7.172c-1.422,3.063-2.333,5.283-2.737,6.672c-0.401,1.385,0.331,2.063,2.191,2.023
			c1.857-0.033,3.973-0.033,6.343,0c2.369,0.039,6.982-0.029,13.838-0.196c6.856-0.158,7.515-0.179,1.97-0.054
			c-5.542,0.133-9.917,0.541-13.125,1.234c-3.213,0.689-5.381,1.182-6.513,1.475c-1.13,0.293-2.314,0.639-3.555,1.039
			c-1.237,0.402-2.043,0.804-2.402,1.203c-0.366,0.404-0.806,0.969-1.316,1.7c-0.511,0.728-2.225,5.429-5.14,14.108
			c-2.918,8.677-4.721,14.001-5.418,15.973c-0.69,1.969-1.512,3.382-2.46,4.238c-0.945,0.859-2.107,1.226-3.473,1.119
			c-1.366-0.106-2.407-0.919-3.119-2.432c-0.709-1.515-0.945-2.483-0.709-2.896c0.238-0.422,0.494-0.332,0.768,0.272
			c0.272,0.599,0.673,0.991,1.199,1.175c0.529,0.185,1.061-0.012,1.588-0.576c0.529-0.564,2.709-6.178,6.537-16.844
			c3.827-10.67,4.594-15.51,2.296-14.525c-2.296,0.984-3.344,0.388-3.143-1.807c0.2-2.182,1.247-3.314,3.143-3.387
			c1.896-0.07,3.089-0.303,3.581-0.683c0.495-0.388,1.516-2.528,3.064-6.431c1.549-3.899,2.815-6.823,3.802-8.779
			c0.986-1.95,2.107-3.874,3.363-5.766C931.035,645.593,932.465,644.102,934.071,643.006"/>
		<path style="fill:#5D2D7B;" d="M941.287,682.951c0.747-0.872,1.935-1.253,3.561-1.126c1.628,0.131,2.82,0.627,3.567,1.501
			c0.75,0.878,1.379,1.939,1.875,3.192c0.499,1.246,0.411,2.565-0.277,3.935c-0.688,1.377-1.348,3.175-1.973,5.394
			c-0.629,2.222-1.44,5.336-2.438,9.339c-1.004,3.999-0.937,6.255,0.185,6.754c1.129,0.499,3.068,1.002,5.817,1.504
			c2.754,0.496,7.147,0.686,13.182,0.56c6.037-0.122,5.711,0.316-0.985,1.314c-6.689,1.005-11.646,1.91-14.866,2.716
			c-3.224,0.815-5.351,1.397-6.383,1.741c-1.032,0.346-2.783,3.815-5.253,10.414c-2.469,6.598-4.095,10.991-4.878,13.18
			c-0.783,2.189-1.609,3.657-2.488,4.412c-0.872,0.747-2,1.312-3.378,1.687c-1.375,0.379-2.622,0.313-3.751-0.186
			c-1.127-0.501-1.109-2.535,0.047-6.104c1.158-3.561,2.737-7.787,4.738-12.66c1.999-4.879,3.098-7.912,3.283-9.106
			c0.189-1.186-0.625-1.623-2.44-1.31c-1.81,0.315-3.426,0.485-4.832,0.515c-1.407,0.029-2.095-0.842-2.06-2.628
			c0.03-1.781,1.169-3.235,3.424-4.362c2.25-1.122,4.249-1.698,6.003-1.734c1.75-0.029,3.31-2.468,4.688-7.318
			c1.376-4.846,2.19-8.067,2.44-9.664c0.25-1.589,0.658-3.767,1.223-6.516C939.88,685.641,940.532,683.829,941.287,682.951"/>
		<path style="fill:#5D2D7B;" d="M984.16,649.829c3.253-0.745,5.912-0.336,7.977,1.225c2.061,1.563,1.658,4.315-1.223,8.257
			c-2.879,3.94-6.909,12.245-12.103,24.907c-5.193,12.665-8.571,21.656-10.131,26.974c-1.561,5.315-1.686,7.255-0.375,5.815
			c1.31-1.439,2.612-2.729,3.893-3.891c1.284-1.156,2.701-2.349,4.269-3.567c1.56-1.222,2.985-2.113,4.268-2.676
			c1.281-0.558,2.705-0.986,4.268-1.263c1.565-0.279,2.985-0.061,4.266,0.657c1.283,0.719,2.287,1.638,3.004,2.767
			c0.72,1.129,1.158,3.158,1.317,6.094c0.155,2.947-0.016,6.026-0.516,9.242c-0.503,3.225-0.534,5.648-0.095,7.273
			c0.433,1.628,1.235,3.068,2.392,4.317c1.158,1.251,3.14,1.549,5.955,0.89c2.82-0.654,5.002-1.81,6.57-3.468
			c1.56-1.655,1.924-1.55,1.078,0.327c-0.848,1.876-2.094,3.55-3.756,5.019c-1.656,1.47-3.674,2.75-6.048,3.848
			c-2.379,1.093-4.315,1.654-5.815,1.687c-1.503,0.034-3.033-0.594-4.601-1.877c-1.562-1.282-2.625-3.127-3.19-5.536
			c-0.562-2.404-0.687-6.143-0.372-11.206c0.308-5.071-0.048-8.086-1.082-9.061c-1.031-0.966-3.689,0.144-7.97,3.333
			c-4.286,3.192-7.525,6.79-9.711,10.791c-2.19,4.005-3.817,7.395-4.879,10.179c-1.067,2.784-2.382,3.96-3.942,3.52
			c-1.566-0.438-2.784-1.158-3.655-2.16c-0.879-0.998-1.317-2.421-1.317-4.268c0-1.848,1.875-8.993,5.632-21.44
			c3.751-12.441,8.029-24.609,12.852-36.493c4.813-11.884,7.627-19.107,8.446-21.672
			C980.373,655.808,981.911,652.959,984.16,649.829"/>
		<path style="fill:#5D2D7B;" d="M1021.502,707.904c1.185-1.12,2.641-1.841,4.361-2.154c1.721-0.315,3.141-0.219,4.27,0.28
			c1.125,0.503,2.076,1.393,2.859,2.678c0.785,1.28,2.736,1.892,5.863,1.829c3.129-0.062,7.023-0.05,11.684,0.045
			c4.658,0.095,3.674,0.231-2.957,0.42c-6.629,0.191-10.4,0.451-11.307,0.797c-0.908,0.344-1.283,1.454-1.123,3.331
			c0.154,1.876,0.279,3.863,0.375,5.958c0.094,2.096,0.105,4.428,0.049,6.993c-0.068,2.563-0.25,4.469-0.564,5.722
			c-0.314,1.253-0.785,2.566-1.408,3.941c-0.629,1.377-1.549,2.824-2.766,4.362c-1.223,1.533-2.725,2.951-4.504,4.269
			c-1.783,1.31-3.428,2.296-4.928,2.956c-1.502,0.652-3.129,0.685-4.879,0.088c-1.752-0.594-3.176-1.531-4.267-2.813
			c-1.092-1.28-1.971-2.61-2.629-3.981c-0.654-1.38-0.94-3.789-0.844-7.231c0.094-3.438,0.469-6.205,1.127-8.3
			c0.652-2.094,1.676-4.286,3.051-6.571c1.371-2.278,1.781-3.339,1.219-3.185c-0.565,0.153-0.709,0.076-0.424-0.237
			c0.279-0.31,1.359-1.655,3.234-4.03C1018.871,710.688,1020.373,708.972,1021.502,707.904 M1026.189,722.637
			c-1.377-1.69-3.09-1.222-5.158,1.407c-2.065,2.631-3.299,5.407-3.703,8.35c-0.41,2.94-0.254,5.006,0.469,6.193
			c0.719,1.186,1.465,1.875,2.25,2.065c0.783,0.184,1.887-0.33,3.33-1.549c1.435-1.225,2.611-3.863,3.521-7.928
			C1027.799,727.107,1027.568,724.263,1026.189,722.637"/>
		<path style="fill:#5D2D7B;" d="M1080.229,711.282c1.318-0.683,2.457-0.938,3.424-0.745c0.969,0.181,1.645,0.639,2.02,1.357
			c0.375,0.718,0,3.441-1.129,8.16c-1.121,4.727-1.875,8.745-2.25,12.058c-0.371,3.317-0.064,5.645,0.939,6.991
			c0.996,1.348,2.734,1.828,5.203,1.454c2.471-0.373,5.148-2.035,8.027-4.973c2.873-2.94,3.203-3.079,0.984-0.422
			c-2.225,2.66-4.285,5.051-6.197,7.176c-1.904,2.125-3.578,3.473-5.014,4.037c-1.443,0.563-3.111,0.688-5.023,0.375
			c-1.904-0.316-3.453-1.065-4.641-2.251c-1.188-1.189-2.131-2.613-2.813-4.274c-0.689-1.655-0.754-3.685-0.189-6.097
			c0.563-2.402,0.92-4.486,1.078-6.236c0.156-1.75-0.551-1.655-2.113,0.279c-1.559,1.94-3.482,4.054-5.768,6.332
			c-2.287,2.285-4.707,4.304-7.273,6.054c-2.563,1.752-4.582,2.879-6.047,3.378c-1.473,0.499-2.943,0.859-4.41,1.081
			c-1.473,0.219-2.832-0.047-4.086-0.802c-1.25-0.749-2.029-1.924-2.344-3.52c-0.314-1.592,0-3.972,0.939-7.129
			c0.938-3.158,2.516-7.455,4.738-12.897c2.219-5.443,1.574-8.352-1.924-8.727c-3.504-0.375-6.127-1.141-7.879-2.299
			c-1.75-1.156-0.689-1,3.188,0.47c3.877,1.465,6.566,1.33,8.066-0.42c1.502-1.75,2.896-2.784,4.18-3.098
			c1.281-0.316,2.5-0.251,3.654,0.189c1.16,0.431,1.906,1.203,2.25,2.299c0.346,1.09,0.285,2.389-0.184,3.893
			c-0.467,1.499-2.066,5.441-4.783,11.818c-2.725,6.381-2.801,9.192-0.236,8.444c2.563-0.754,7.162-4.439,13.795-11.071
			C1075.039,715.54,1078.975,711.912,1080.229,711.282"/>
		<path style="fill:#5D2D7B;" d="M1129.488,704.907c4.625,0.308,6.457,1.466,5.484,3.467c-0.967,2.007-1.951,5.509-2.949,10.513
			c-1.004,5.004-1.941,9.235-2.82,12.708c-0.873,3.473-2.123,7.135-3.752,10.98c-1.625,3.848-2.891,6.814-3.799,8.912
			c-0.906,2.093-2.035,4.455-3.375,7.085c-1.35,2.622-3.568,6.345-6.662,11.159c-3.098,4.82-6.658,8.962-10.695,12.435
			c-4.035,3.473-7.318,5.552-9.852,6.238c-2.535,0.69-5.379,0.47-8.537-0.659c-3.158-1.127-4.861-3.561-5.117-7.317
			c-0.242-3.751,4.162-9.884,13.232-18.39c9.068-8.505,9.613-8.813,1.645-0.938c-7.98,7.885-12.025,13.297-12.15,16.236
			c-0.125,2.936,0.545,4.629,2.016,5.061c1.469,0.44,2.939,0.375,4.412-0.183c1.465-0.563,3.465-1.893,6-3.988
			c2.533-2.098,4.66-4.048,6.381-5.866c1.721-1.815,3.799-4.6,6.238-8.35c2.439-3.751,4.643-7.752,6.613-12.008
			c1.971-4.25,3.318-7.208,4.037-8.867c0.717-1.657,2.016-5.112,3.893-10.366c1.875-5.252,1.596-6.598-0.844-4.035
			c-2.439,2.565-5.643,5.365-9.615,8.399c-3.977,3.033-7.242,4.957-9.807,5.768c-2.563,0.814-4.521,1.034-5.863,0.659
			c-1.348-0.38-2.533-1.145-3.568-2.304c-1.025-1.155-1.215-3.434-0.557-6.848c0.652-3.407,2.297-7.472,4.92-12.191
			c2.629-4.726,5.693-8.352,9.197-10.886c3.5-2.537,6.627-4.328,9.381-5.397c2.75-1.061,4.908-1.563,6.477-1.496
			c1.561,0.061,3.33,0.512,5.301,1.358C1126.717,706.642,1128.295,706.344,1129.488,704.907 M1119.451,714.85
			c-1.068-1.064-2.658-0.955-4.791,0.327c-2.125,1.282-4.498,3.223-7.129,5.816c-2.623,2.599-4.813,5.367-6.563,8.303
			c-1.75,2.94-0.91,3.378,2.533,1.315c3.436-2.062,6.533-4.317,9.283-6.756c2.754-2.441,4.785-4.44,6.102-6.002
			C1120.197,716.285,1120.391,715.29,1119.451,714.85"/>
		<path style="fill:#5D2D7B;" d="M1168.891,649.829c3.252-0.745,5.912-0.336,7.975,1.225c2.061,1.563,1.66,4.315-1.223,8.257
			c-2.879,3.94-6.908,12.245-12.102,24.907c-5.193,12.665-8.57,21.656-10.131,26.974c-1.561,5.315-1.688,7.255-0.375,5.815
			c1.311-1.439,2.613-2.729,3.895-3.891c1.281-1.156,2.699-2.349,4.268-3.567c1.561-1.222,2.984-2.113,4.268-2.676
			c1.281-0.558,2.705-0.986,4.268-1.263c1.566-0.279,2.986-0.061,4.268,0.657c1.283,0.719,2.285,1.638,3.002,2.767
			c0.721,1.129,1.158,3.158,1.318,6.094c0.156,2.947-0.016,6.026-0.516,9.242c-0.504,3.225-0.533,5.648-0.094,7.273
			c0.432,1.628,1.234,3.068,2.391,4.317c1.158,1.251,3.141,1.549,5.953,0.89c2.822-0.654,5.004-1.81,6.572-3.468
			c1.561-1.655,1.924-1.55,1.078,0.327c-0.848,1.876-2.094,3.55-3.756,5.019c-1.656,1.47-3.674,2.75-6.049,3.848
			c-2.379,1.093-4.314,1.654-5.814,1.687c-1.504,0.034-3.035-0.594-4.602-1.877c-1.561-1.282-2.625-3.127-3.189-5.536
			c-0.563-2.404-0.686-6.143-0.373-11.206c0.309-5.071-0.047-8.086-1.08-9.061c-1.033-0.966-3.691,0.144-7.971,3.333
			c-4.287,3.192-7.525,6.79-9.711,10.791c-2.189,4.005-3.816,7.395-4.879,10.179c-1.068,2.784-2.381,3.96-3.941,3.52
			c-1.568-0.438-2.785-1.158-3.656-2.16c-0.879-0.998-1.318-2.421-1.318-4.268c0-1.848,1.875-8.993,5.633-21.44
			c3.75-12.441,8.029-24.609,12.852-36.493c4.813-11.884,7.627-19.107,8.445-21.672
			C1165.102,655.808,1166.641,652.959,1168.891,649.829"/>
		<path style="fill:#5D2D7B;" d="M1213.551,682.951c0.746-0.872,1.934-1.253,3.561-1.126c1.627,0.131,2.82,0.627,3.566,1.501
			c0.75,0.878,1.377,1.939,1.875,3.192c0.5,1.246,0.412,2.565-0.277,3.935c-0.688,1.377-1.348,3.175-1.973,5.394
			c-0.629,2.222-1.439,5.336-2.439,9.339c-1.002,3.999-0.936,6.255,0.186,6.754c1.129,0.499,3.068,1.002,5.818,1.504
			c2.752,0.496,7.146,0.686,13.18,0.56c6.039-0.122,5.713,0.316-0.984,1.314c-6.689,1.005-11.646,1.91-14.865,2.716
			c-3.225,0.815-5.352,1.397-6.383,1.741c-1.033,0.346-2.783,3.815-5.254,10.414c-2.469,6.598-4.094,10.991-4.877,13.18
			c-0.785,2.189-1.611,3.657-2.488,4.412c-0.873,0.747-2,1.312-3.379,1.687c-1.375,0.379-2.623,0.313-3.75-0.186
			c-1.129-0.501-1.109-2.535,0.047-6.104c1.158-3.561,2.736-7.787,4.736-12.66c2-4.879,3.1-7.912,3.285-9.106
			c0.188-1.186-0.625-1.623-2.441-1.31c-1.811,0.315-3.426,0.485-4.832,0.515c-1.408,0.029-2.094-0.842-2.059-2.628
			c0.029-1.781,1.168-3.235,3.424-4.362c2.25-1.122,4.248-1.698,6.002-1.734c1.75-0.029,3.311-2.468,4.689-7.318
			c1.375-4.846,2.189-8.067,2.438-9.664c0.252-1.589,0.66-3.767,1.225-6.516C1212.145,685.641,1212.795,683.829,1213.551,682.951"/>
		<path style="fill:#5D2D7B;" d="M1245.541,704.248c2.502-1.253,5-2.063,7.506-2.438c2.498-0.375,4.018,0.095,4.553,1.406
			c0.525,1.313,0.279,2.593-0.754,3.846c-1.035,1.251-2.439,1.96-4.221,2.113c-1.781,0.154-3.705,1.437-5.771,3.846
			c-2.066,2.411-3.25,5.254-3.568,8.537c-0.313,3.281-0.232,5.548,0.238,6.804c0.469,1.251,0.986,3.691,1.545,7.315
			c0.564,3.629,0.189,6.738-1.123,9.337c-1.313,2.594-2.725,4.488-4.221,5.674c-1.498,1.19-3.363,2.068-5.586,2.624
			c-2.219,0.564-4.113,0.849-5.674,0.849c-1.564,0-3.234-0.379-5.021-1.124c-1.781-0.75-2.871-2.299-3.281-4.644
			c-0.404-2.351,2.879-6.695,9.854-13.04c6.969-6.352,7.52-6.537,1.639-0.565c-5.877,5.973-8.174,9.678-6.893,11.118
			c1.275,1.439,2.814,1.809,4.594,1.122c1.781-0.683,3.188-1.607,4.223-2.766c1.031-1.156,1.797-2.565,2.303-4.221
			c0.498-1.654,0.715-3.192,0.652-4.602c-0.059-1.406-0.547-4.534-1.455-9.377c-0.908-4.851-0.908-8.494,0-10.933
			c0.908-2.439,2.258-4.548,4.037-6.336C1240.895,707.015,1243.039,705.501,1245.541,704.248"/>
	</g>
	<path style="fill:#D02F3A;" d="M1215.936,406.362c0,8.576-6.953,15.528-15.527,15.528s-15.527-6.952-15.527-15.528
		c0-8.576,6.953-15.528,15.527-15.528S1215.936,397.787,1215.936,406.362"/>
	<path style="fill:#D52147;" d="M1080.063,330.627c0,21.875-17.734,39.609-39.611,39.609s-39.61-17.734-39.61-39.609
		c0-21.875,17.733-39.611,39.61-39.611S1080.063,308.752,1080.063,330.627"/>
	<path style="fill:#6F3B91;" d="M1017.32,315.73c0,15.926-12.912,28.837-28.838,28.837c-15.926,0-28.835-12.911-28.835-28.837
		c0-15.926,12.909-28.836,28.835-28.836C1004.408,286.894,1017.32,299.805,1017.32,315.73"/>
	<path style="fill:#ECE0DB;" d="M1094.266,373.866c-2.004,16.946-17.365,29.058-34.309,27.055
		c-16.945-2.005-29.059-17.367-27.055-34.312c2.004-16.946,17.365-29.058,34.311-27.053
		C1084.158,341.559,1096.271,356.921,1094.266,373.866"/>
	<path style="fill:#6F3B91;" d="M1122.922,347.581c0,5.119-4.15,9.269-9.27,9.269s-9.271-4.15-9.271-9.269
		c0-5.12,4.152-9.27,9.271-9.27S1122.922,342.461,1122.922,347.581"/>
	<path style="fill:#5D2D7B;" d="M904.881,300.84c0,15.965-12.941,28.906-28.906,28.906c-15.966,0-28.908-12.941-28.908-28.906
		c0-15.965,12.941-28.907,28.908-28.907C891.94,271.934,904.881,284.875,904.881,300.84"/>
	<path style="fill:#D52147;" d="M907.979,369.132c0,17.676-14.328,32.004-32.004,32.004c-17.677,0-32.006-14.328-32.006-32.004
		c0-17.677,14.329-32.006,32.006-32.006C893.651,337.126,907.979,351.456,907.979,369.132"/>
	<path style="fill:#ECE0DB;" d="M1030.137,389.807c0,18.202-14.754,32.955-32.955,32.955c-18.201,0-32.957-14.753-32.957-32.955
		c0-18.201,14.756-32.955,32.957-32.955C1015.383,356.852,1030.137,371.606,1030.137,389.807"/>
	<path style="fill:#6F3B91;" d="M965.984,361.999c0,5.775-4.682,10.458-10.458,10.458c-5.775,0-10.455-4.683-10.455-10.458
		c0-5.775,4.68-10.457,10.455-10.457C961.302,351.542,965.984,356.224,965.984,361.999"/>
	<path style="fill:#00A69C;" d="M1032.686,435.199c0-21.701,17.592-39.293,39.293-39.293s39.293,17.592,39.293,39.293
		c0,21.703-17.592,39.293-39.293,39.293S1032.686,456.901,1032.686,435.199"/>
	<path style="fill:#D52147;" d="M877.712,442.435c0-25.23,20.453-45.684,45.684-45.684c25.23,0,45.684,20.454,45.684,45.684
		c0,25.23-20.453,45.683-45.684,45.683C898.165,488.118,877.712,467.665,877.712,442.435"/>
	<path style="fill:#ECE0DB;" d="M815.379,466.887c0-17.501,14.187-31.687,31.687-31.687c17.502,0,31.689,14.186,31.689,31.687
		c0,17.501-14.187,31.688-31.689,31.688C829.566,498.575,815.379,484.389,815.379,466.887"/>
	<path style="fill:#D52147;" d="M1011.441,571.923c0,26.074-21.14,47.217-47.217,47.217c-26.076,0-47.215-21.143-47.215-47.217
		c0-26.077,21.139-47.217,47.215-47.217C990.301,524.706,1011.441,545.846,1011.441,571.923"/>
	<path style="fill:#00A69C;" d="M734.383,508.843c0-23.172,18.784-41.956,41.956-41.956c23.17,0,41.956,18.784,41.956,41.956
		c0,23.173-18.786,41.957-41.956,41.957C753.167,550.8,734.383,532.016,734.383,508.843"/>
	<path style="fill:#008C83;" d="M852.152,373.689c0,30.976-25.112,56.088-56.088,56.088c-30.978,0-56.087-25.112-56.087-56.088
		c0-30.976,25.109-56.088,56.087-56.088C827.04,317.6,852.152,342.713,852.152,373.689"/>
</g>
<g id="front">
	<path id="fr5" style="fill:#D52147;" d="M1127.334,279.293c0,11.375-9.221,20.596-20.598,20.596
		c-11.375,0-20.598-9.221-20.598-20.596c0-11.377,9.223-20.597,20.598-20.597C1118.113,258.695,1127.334,267.915,1127.334,279.293"
		/>
	<path id="fr6" style="fill:#D52147;" d="M1184.881,347.581c0,14.418-11.688,26.109-26.109,26.109
		c-14.418,0-26.105-11.691-26.105-26.109c0-14.419,11.688-26.109,26.105-26.109C1173.193,321.472,1184.881,333.162,1184.881,347.581
		"/>
	<path id="fr7" style="fill:#00A69C;" d="M1161.184,412.701c0,12.076-9.789,21.866-21.863,21.866
		c-12.076,0-21.865-9.79-21.865-21.866c0-12.077,9.789-21.866,21.865-21.866C1151.395,390.835,1161.184,400.624,1161.184,412.701"/>
	<path id="fr4" style="fill:#D52147;" d="M1063.584,261.23c0,12.774-10.355,23.133-23.133,23.133
		c-12.773,0-23.133-10.358-23.133-23.133c0-12.778,10.359-23.134,23.133-23.134C1053.229,238.096,1063.584,248.452,1063.584,261.23"
		/>
	<path id="fr3" style="fill:#ECE0DB;" d="M990.101,262.072c0,12.25-9.931,22.183-22.184,22.183c-12.249,0-22.18-9.934-22.18-22.183
		c0-12.249,9.931-22.182,22.18-22.182C980.17,239.89,990.101,249.823,990.101,262.072"/>
	<path id="fr1" style="fill:#00A69C;" d="M937.148,279.293c0,11.375-9.221,20.596-20.597,20.596c-11.377,0-20.6-9.221-20.6-20.596
		c0-11.377,9.223-20.597,20.6-20.597C927.927,258.695,937.148,267.915,937.148,279.293"/>
	<path id="fr2" style="fill:#D52147;" d="M904.667,309.713c0,9.538-7.731,17.27-17.269,17.27c-9.541,0-17.272-7.732-17.272-17.27
		s7.731-17.269,17.272-17.269C896.935,292.444,904.667,300.175,904.667,309.713"/>
	<path id="fr9" style="fill:#00A69C;" d="M960.281,484.163c0-9.542,7.733-17.274,17.272-17.274c9.543,0,17.276,7.731,17.276,17.274
		c0,9.538-7.733,17.273-17.276,17.273C968.014,501.436,960.281,493.701,960.281,484.163"/>
	<path id="fr8" style="fill:#5D2D7B;" d="M916.636,406.362c0,9.277-7.521,16.796-16.796,16.796c-9.274,0-16.794-7.519-16.794-16.796
		c0-9.275,7.519-16.794,16.794-16.794C909.116,389.568,916.636,397.087,916.636,406.362"/>
	<path id="fr10" style="fill:#ECE0DB;" d="M951.712,444.22c0-9.611,7.791-17.401,17.402-17.401c9.612,0,17.402,7.791,17.402,17.401
		c0,9.612-7.79,17.403-17.402,17.403C959.503,461.623,951.712,453.832,951.712,444.22"/>
</g>
</svg>
